<?plantuml 1.2026.2?><svg xmlns="http://www.w3.org/2000/svg" xmlns:xlink="http://www.w3.org/1999/xlink" contentStyleType="text/css" data-diagram-type="CLASS" height="917px" preserveAspectRatio="none" style="width:1330px;height:917px;background:#FFFFFF;" version="1.1" viewBox="0 0 1330 917" width="1330px" zoomAndPan="magnify"><title>SmartLocate SG, Portfolio Module (Class Diagram)</title><defs/><g><g class="title" data-source-line="1"><text fill="#000000" font-family="sans-serif" font-size="14" font-weight="bold" lengthAdjust="spacing" textLength="337.6133" x="489.1934" y="24.5332">SmartLocate SG, Portfolio Module (Class Diagram)</text></g><!--cluster Portfolio Module--><g class="cluster" data-qualified-name="Portfolio Module" data-source-line="4" id="ent0002"><path d="M8.5,44.6094 L119.9277,44.6094 A3.75,3.75 0 0 1 122.4277,47.1094 L129.4277,68.2188 L1320.5,68.2188 A2.5,2.5 0 0 1 1323,70.7188 L1323,908.1094 A2.5,2.5 0 0 1 1320.5,910.6094 L8.5,910.6094 A2.5,2.5 0 0 1 6,908.1094 L6,47.1094 A2.5,2.5 0 0 1 8.5,44.6094" fill="none" style="stroke:#000000;stroke-width:1.5;"/><line style="stroke:#000000;stroke-width:1.5;" x1="6" x2="129.4277" y1="68.2188" y2="68.2188"/><text fill="#000000" font-family="sans-serif" font-size="14" font-weight="bold" lengthAdjust="spacing" textLength="110.4277" x="10" y="61.1426">Portfolio Module</text></g><!--class UserAccount--><g class="entity" data-qualified-name="Portfolio Module.UserAccount" data-source-line="6" id="ent0003"><rect fill="#F1F1F1" height="118.4375" rx="2.5" ry="2.5" style="stroke:#181818;stroke-width:0.5;" width="112.1445" x="570" y="80.6094"/><ellipse cx="585" cy="96.6094" fill="#ADD1B2" rx="11" ry="11" style="stroke:#181818;stroke-width:1;"/><path d="M587.7656,92.4844 Q587.9219,92.2656 588.1094,92.1563 Q588.2969,92.0469 588.5156,92.0469 Q588.8906,92.0469 589.125,92.3125 Q589.3594,92.5625 589.3594,93.1719 L589.3594,94.625 Q589.3594,95.2344 589.125,95.5 Q588.8906,95.7656 588.5156,95.7656 Q588.1719,95.7656 587.9688,95.5625 Q587.7656,95.375 587.6563,94.8594 Q587.6094,94.5 587.4219,94.3125 Q587.0938,93.9375 586.4844,93.7188 Q585.875,93.5 585.25,93.5 Q584.4844,93.5 583.8438,93.8281 Q583.2188,94.1563 582.7188,94.9063 Q582.2344,95.6563 582.2344,96.6875 L582.2344,97.7813 Q582.2344,99.0156 583.125,99.8438 Q584.0156,100.6563 585.6094,100.6563 Q586.5469,100.6563 587.2031,100.4063 Q587.5938,100.25 588.0156,99.8125 Q588.2813,99.5469 588.4219,99.4688 Q588.5781,99.3906 588.7813,99.3906 Q589.1094,99.3906 589.3594,99.6563 Q589.625,99.9063 589.625,100.25 Q589.625,100.5938 589.2813,101 Q588.7813,101.5781 587.9844,101.9063 Q586.9063,102.3594 585.6094,102.3594 Q584.0938,102.3594 582.8906,101.7344 Q581.9063,101.2344 581.2188,100.1719 Q580.5313,99.0938 580.5313,97.8125 L580.5313,96.6563 Q580.5313,95.3281 581.1406,94.1875 Q581.7656,93.0313 582.8594,92.4219 Q583.9531,91.7969 585.1875,91.7969 Q585.9219,91.7969 586.5625,91.9688 Q587.2188,92.125 587.7656,92.4844 Z " fill="#000000"/><text fill="#000000" font-family="sans-serif" font-size="14" lengthAdjust="spacing" textLength="80.1445" x="599" y="102.3379">UserAccount</text><line style="stroke:#181818;stroke-width:0.5;" x1="571" x2="681.1445" y1="112.6094" y2="112.6094"/><text fill="#000000" font-family="sans-serif" font-size="14" lengthAdjust="spacing" textLength="81.334" x="576" y="131.1426">+userId: long</text><text fill="#000000" font-family="sans-serif" font-size="14" lengthAdjust="spacing" textLength="87.5479" x="576" y="148.752">+name: String</text><text fill="#000000" font-family="sans-serif" font-size="14" lengthAdjust="spacing" textLength="85.9824" x="576" y="166.3613">+email: String</text><text fill="#000000" font-family="sans-serif" font-size="14" lengthAdjust="spacing" textLength="89.8789" x="576" y="183.9707">+status: String</text><line style="stroke:#181818;stroke-width:0.5;" x1="571" x2="681.1445" y1="191.0469" y2="191.0469"/></g><!--class BusinessProfile--><g class="entity" data-qualified-name="Portfolio Module.BusinessProfile" data-source-line="13" id="ent0004"><rect fill="#F1F1F1" height="171.2656" rx="2.5" ry="2.5" style="stroke:#181818;stroke-width:0.5;" width="186.7129" x="437.5" y="259.6094"/><ellipse cx="478.7006" cy="275.6094" fill="#ADD1B2" rx="11" ry="11" style="stroke:#181818;stroke-width:1;"/><path d="M481.4663,271.4844 Q481.6225,271.2656 481.81,271.1563 Q481.9975,271.0469 482.2163,271.0469 Q482.5913,271.0469 482.8256,271.3125 Q483.06,271.5625 483.06,272.1719 L483.06,273.625 Q483.06,274.2344 482.8256,274.5 Q482.5913,274.7656 482.2163,274.7656 Q481.8725,274.7656 481.6694,274.5625 Q481.4663,274.375 481.3569,273.8594 Q481.31,273.5 481.1225,273.3125 Q480.7944,272.9375 480.185,272.7188 Q479.5756,272.5 478.9506,272.5 Q478.185,272.5 477.5444,272.8281 Q476.9194,273.1563 476.4194,273.9063 Q475.935,274.6563 475.935,275.6875 L475.935,276.7813 Q475.935,278.0156 476.8256,278.8438 Q477.7163,279.6563 479.31,279.6563 Q480.2475,279.6563 480.9038,279.4063 Q481.2944,279.25 481.7163,278.8125 Q481.9819,278.5469 482.1225,278.4688 Q482.2788,278.3906 482.4819,278.3906 Q482.81,278.3906 483.06,278.6563 Q483.3256,278.9063 483.3256,279.25 Q483.3256,279.5938 482.9819,280 Q482.4819,280.5781 481.685,280.9063 Q480.6069,281.3594 479.31,281.3594 Q477.7944,281.3594 476.5913,280.7344 Q475.6069,280.2344 474.9194,279.1719 Q474.2319,278.0938 474.2319,276.8125 L474.2319,275.6563 Q474.2319,274.3281 474.8413,273.1875 Q475.4663,272.0313 476.56,271.4219 Q477.6538,270.7969 478.8881,270.7969 Q479.6225,270.7969 480.2631,270.9688 Q480.9194,271.125 481.4663,271.4844 Z " fill="#000000"/><text fill="#000000" font-family="sans-serif" font-size="14" lengthAdjust="spacing" textLength="96.4893" x="498.523" y="281.3379">BusinessProfile</text><line style="stroke:#181818;stroke-width:0.5;" x1="438.5" x2="623.2129" y1="291.6094" y2="291.6094"/><text fill="#000000" font-family="sans-serif" font-size="14" lengthAdjust="spacing" textLength="92.2305" x="443.5" y="310.1426">+profileId: long</text><text fill="#000000" font-family="sans-serif" font-size="14" lengthAdjust="spacing" textLength="81.334" x="443.5" y="327.752">+userId: long</text><text fill="#000000" font-family="sans-serif" font-size="14" lengthAdjust="spacing" textLength="128.0029" x="443.5" y="345.3613">+profileName: String</text><text fill="#000000" font-family="sans-serif" font-size="14" lengthAdjust="spacing" textLength="124.1201" x="443.5" y="362.9707">+sectorCode: String</text><text fill="#000000" font-family="sans-serif" font-size="14" lengthAdjust="spacing" textLength="117.1406" x="443.5" y="380.5801">+bandCode: String</text><text fill="#000000" font-family="sans-serif" font-size="14" lengthAdjust="spacing" textLength="135.0234" x="443.5" y="398.1895">+relianceCode: String</text><text fill="#000000" font-family="sans-serif" font-size="14" lengthAdjust="spacing" textLength="174.7129" x="443.5" y="415.7988">+activeWeightConfigId: long</text><line style="stroke:#181818;stroke-width:0.5;" x1="438.5" x2="623.2129" y1="422.875" y2="422.875"/></g><!--class WeightConfig--><g class="entity" data-qualified-name="Portfolio Module.WeightConfig" data-source-line="23" id="ent0005"><rect fill="#F1F1F1" height="118.4375" rx="2.5" ry="2.5" style="stroke:#181818;stroke-width:0.5;" width="148.5615" x="317.5" y="526.6094"/><ellipse cx="347.1342" cy="542.6094" fill="#ADD1B2" rx="11" ry="11" style="stroke:#181818;stroke-width:1;"/><path d="M349.8999,538.4844 Q350.0561,538.2656 350.2436,538.1563 Q350.4311,538.0469 350.6499,538.0469 Q351.0249,538.0469 351.2592,538.3125 Q351.4936,538.5625 351.4936,539.1719 L351.4936,540.625 Q351.4936,541.2344 351.2592,541.5 Q351.0249,541.7656 350.6499,541.7656 Q350.3061,541.7656 350.103,541.5625 Q349.8999,541.375 349.7905,540.8594 Q349.7436,540.5 349.5561,540.3125 Q349.228,539.9375 348.6186,539.7188 Q348.0092,539.5 347.3842,539.5 Q346.6186,539.5 345.978,539.8281 Q345.353,540.1563 344.853,540.9063 Q344.3686,541.6563 344.3686,542.6875 L344.3686,543.7813 Q344.3686,545.0156 345.2592,545.8438 Q346.1499,546.6563 347.7436,546.6563 Q348.6811,546.6563 349.3374,546.4063 Q349.728,546.25 350.1499,545.8125 Q350.4155,545.5469 350.5561,545.4688 Q350.7124,545.3906 350.9155,545.3906 Q351.2436,545.3906 351.4936,545.6563 Q351.7592,545.9063 351.7592,546.25 Q351.7592,546.5938 351.4155,547 Q350.9155,547.5781 350.1186,547.9063 Q349.0405,548.3594 347.7436,548.3594 Q346.228,548.3594 345.0249,547.7344 Q344.0405,547.2344 343.353,546.1719 Q342.6655,545.0938 342.6655,543.8125 L342.6655,542.6563 Q342.6655,541.3281 343.2749,540.1875 Q343.8999,539.0313 344.9936,538.4219 Q346.0874,537.7969 347.3217,537.7969 Q348.0561,537.7969 348.6967,537.9688 Q349.353,538.125 349.8999,538.4844 Z " fill="#000000"/><text fill="#000000" font-family="sans-serif" font-size="14" lengthAdjust="spacing" textLength="84.041" x="364.3863" y="548.3379">WeightConfig</text><line style="stroke:#181818;stroke-width:0.5;" x1="318.5" x2="465.0615" y1="558.6094" y2="558.6094"/><text fill="#000000" font-family="sans-serif" font-size="14" lengthAdjust="spacing" textLength="135.0371" x="323.5" y="577.1426">+weightConfigId: long</text><text fill="#000000" font-family="sans-serif" font-size="14" lengthAdjust="spacing" textLength="92.2305" x="323.5" y="594.752">+profileId: long</text><text fill="#000000" font-family="sans-serif" font-size="14" lengthAdjust="spacing" textLength="129.5684" x="323.5" y="612.3613">+weightsJson: String</text><text fill="#000000" font-family="sans-serif" font-size="14" lengthAdjust="spacing" textLength="136.5615" x="323.5" y="629.9707">+createdAt: DateTime</text><line style="stroke:#181818;stroke-width:0.5;" x1="318.5" x2="465.0615" y1="637.0469" y2="637.0469"/></g><!--class Location--><g class="entity" data-qualified-name="Portfolio Module.Location" data-source-line="30" id="ent0006"><rect fill="#F1F1F1" height="171.2656" rx="2.5" ry="2.5" style="stroke:#181818;stroke-width:0.5;" width="147.0371" x="513.5" y="723.6094"/><ellipse cx="556.4479" cy="739.6094" fill="#ADD1B2" rx="11" ry="11" style="stroke:#181818;stroke-width:1;"/><path d="M559.2135,735.4844 Q559.3698,735.2656 559.5573,735.1563 Q559.7448,735.0469 559.9635,735.0469 Q560.3385,735.0469 560.5729,735.3125 Q560.8073,735.5625 560.8073,736.1719 L560.8073,737.625 Q560.8073,738.2344 560.5729,738.5 Q560.3385,738.7656 559.9635,738.7656 Q559.6198,738.7656 559.4167,738.5625 Q559.2135,738.375 559.1042,737.8594 Q559.0573,737.5 558.8698,737.3125 Q558.5417,736.9375 557.9323,736.7188 Q557.3229,736.5 556.6979,736.5 Q555.9323,736.5 555.2917,736.8281 Q554.6667,737.1563 554.1667,737.9063 Q553.6823,738.6563 553.6823,739.6875 L553.6823,740.7813 Q553.6823,742.0156 554.5729,742.8438 Q555.4635,743.6563 557.0573,743.6563 Q557.9948,743.6563 558.651,743.4063 Q559.0417,743.25 559.4635,742.8125 Q559.7292,742.5469 559.8698,742.4688 Q560.026,742.3906 560.2292,742.3906 Q560.5573,742.3906 560.8073,742.6563 Q561.0729,742.9063 561.0729,743.25 Q561.0729,743.5938 560.7292,744 Q560.2292,744.5781 559.4323,744.9063 Q558.3542,745.3594 557.0573,745.3594 Q555.5417,745.3594 554.3385,744.7344 Q553.3542,744.2344 552.6667,743.1719 Q551.9792,742.0938 551.9792,740.8125 L551.9792,739.6563 Q551.9792,738.3281 552.5885,737.1875 Q553.2135,736.0313 554.3073,735.4219 Q555.401,734.7969 556.6354,734.7969 Q557.3698,734.7969 558.0104,734.9688 Q558.6667,735.125 559.2135,735.4844 Z " fill="#000000"/><text fill="#000000" font-family="sans-serif" font-size="14" lengthAdjust="spacing" textLength="52.9307" x="576.6585" y="745.3379">Location</text><line style="stroke:#181818;stroke-width:0.5;" x1="514.5" x2="659.5371" y1="755.6094" y2="755.6094"/><text fill="#000000" font-family="sans-serif" font-size="14" lengthAdjust="spacing" textLength="102.3545" x="519.5" y="774.1426">+locationId: long</text><text fill="#000000" font-family="sans-serif" font-size="14" lengthAdjust="spacing" textLength="87.5479" x="519.5" y="791.752">+name: String</text><text fill="#000000" font-family="sans-serif" font-size="14" lengthAdjust="spacing" textLength="102.334" x="519.5" y="809.3613">+address: String</text><text fill="#000000" font-family="sans-serif" font-size="14" lengthAdjust="spacing" textLength="123.3545" x="519.5" y="826.9707">+postalCode: String</text><text fill="#000000" font-family="sans-serif" font-size="14" lengthAdjust="spacing" textLength="103.1406" x="519.5" y="844.5801">+latitude: double</text><text fill="#000000" font-family="sans-serif" font-size="14" lengthAdjust="spacing" textLength="114.8232" x="519.5" y="862.1895">+longitude: double</text><text fill="#000000" font-family="sans-serif" font-size="14" lengthAdjust="spacing" textLength="135.0371" x="519.5" y="879.7988">+planningArea: String</text><line style="stroke:#181818;stroke-width:0.5;" x1="514.5" x2="659.5371" y1="886.875" y2="886.875"/></g><!--class SavedLocation--><g class="entity" data-qualified-name="Portfolio Module.SavedLocation" data-source-line="40" id="ent0007"><rect fill="#F1F1F1" height="153.6563" rx="2.5" ry="2.5" style="stroke:#181818;stroke-width:0.5;" width="169.5684" x="502" y="508.6094"/><ellipse cx="537.2236" cy="524.6094" fill="#ADD1B2" rx="11" ry="11" style="stroke:#181818;stroke-width:1;"/><path d="M539.9893,520.4844 Q540.1455,520.2656 540.333,520.1563 Q540.5205,520.0469 540.7393,520.0469 Q541.1143,520.0469 541.3486,520.3125 Q541.583,520.5625 541.583,521.1719 L541.583,522.625 Q541.583,523.2344 541.3486,523.5 Q541.1143,523.7656 540.7393,523.7656 Q540.3955,523.7656 540.1924,523.5625 Q539.9893,523.375 539.8799,522.8594 Q539.833,522.5 539.6455,522.3125 Q539.3174,521.9375 538.708,521.7188 Q538.0986,521.5 537.4736,521.5 Q536.708,521.5 536.0674,521.8281 Q535.4424,522.1563 534.9424,522.9063 Q534.458,523.6563 534.458,524.6875 L534.458,525.7813 Q534.458,527.0156 535.3486,527.8438 Q536.2393,528.6563 537.833,528.6563 Q538.7705,528.6563 539.4268,528.4063 Q539.8174,528.25 540.2393,527.8125 Q540.5049,527.5469 540.6455,527.4688 Q540.8018,527.3906 541.0049,527.3906 Q541.333,527.3906 541.583,527.6563 Q541.8486,527.9063 541.8486,528.25 Q541.8486,528.5938 541.5049,529 Q541.0049,529.5781 540.208,529.9063 Q539.1299,530.3594 537.833,530.3594 Q536.3174,530.3594 535.1143,529.7344 Q534.1299,529.2344 533.4424,528.1719 Q532.7549,527.0938 532.7549,525.8125 L532.7549,524.6563 Q532.7549,523.3281 533.3643,522.1875 Q533.9893,521.0313 535.083,520.4219 Q536.1768,519.7969 537.4111,519.7969 Q538.1455,519.7969 538.7861,519.9688 Q539.4424,520.125 539.9893,520.4844 Z " fill="#000000"/><text fill="#000000" font-family="sans-serif" font-size="14" lengthAdjust="spacing" textLength="92.627" x="555.7178" y="530.3379">SavedLocation</text><line style="stroke:#181818;stroke-width:0.5;" x1="503" x2="670.5684" y1="540.6094" y2="540.6094"/><text fill="#000000" font-family="sans-serif" font-size="14" lengthAdjust="spacing" textLength="144.3887" x="508" y="559.1426">+savedLocationId: long</text><text fill="#000000" font-family="sans-serif" font-size="14" lengthAdjust="spacing" textLength="81.334" x="508" y="576.752">+userId: long</text><text fill="#000000" font-family="sans-serif" font-size="14" lengthAdjust="spacing" textLength="102.3545" x="508" y="594.3613">+locationId: long</text><text fill="#000000" font-family="sans-serif" font-size="14" lengthAdjust="spacing" textLength="92.2305" x="508" y="611.9707">+profileId: long</text><text fill="#000000" font-family="sans-serif" font-size="14" lengthAdjust="spacing" textLength="127.2236" x="508" y="629.5801">+savedAt: DateTime</text><text fill="#000000" font-family="sans-serif" font-size="14" lengthAdjust="spacing" textLength="157.5684" x="508" y="647.1895">+lastViewedAt: DateTime</text><line style="stroke:#181818;stroke-width:0.5;" x1="503" x2="670.5684" y1="654.2656" y2="654.2656"/></g><!--class LocationScore--><g class="entity" data-qualified-name="Portfolio Module.LocationScore" data-source-line="49" id="ent0008"><rect fill="#F1F1F1" height="136.0469" rx="2.5" ry="2.5" style="stroke:#181818;stroke-width:0.5;" width="170.375" x="50" y="741.1094"/><ellipse cx="86.9924" cy="757.1094" fill="#ADD1B2" rx="11" ry="11" style="stroke:#181818;stroke-width:1;"/><path d="M89.7581,752.9844 Q89.9143,752.7656 90.1018,752.6563 Q90.2893,752.5469 90.5081,752.5469 Q90.8831,752.5469 91.1174,752.8125 Q91.3518,753.0625 91.3518,753.6719 L91.3518,755.125 Q91.3518,755.7344 91.1174,756 Q90.8831,756.2656 90.5081,756.2656 Q90.1643,756.2656 89.9612,756.0625 Q89.7581,755.875 89.6487,755.3594 Q89.6018,755 89.4143,754.8125 Q89.0862,754.4375 88.4768,754.2188 Q87.8674,754 87.2424,754 Q86.4768,754 85.8362,754.3281 Q85.2112,754.6563 84.7112,755.4063 Q84.2268,756.1563 84.2268,757.1875 L84.2268,758.2813 Q84.2268,759.5156 85.1174,760.3438 Q86.0081,761.1563 87.6018,761.1563 Q88.5393,761.1563 89.1956,760.9063 Q89.5862,760.75 90.0081,760.3125 Q90.2737,760.0469 90.4143,759.9688 Q90.5706,759.8906 90.7737,759.8906 Q91.1018,759.8906 91.3518,760.1563 Q91.6174,760.4063 91.6174,760.75 Q91.6174,761.0938 91.2737,761.5 Q90.7737,762.0781 89.9768,762.4063 Q88.8987,762.8594 87.6018,762.8594 Q86.0862,762.8594 84.8831,762.2344 Q83.8987,761.7344 83.2112,760.6719 Q82.5237,759.5938 82.5237,758.3125 L82.5237,757.1563 Q82.5237,755.8281 83.1331,754.6875 Q83.7581,753.5313 84.8518,752.9219 Q85.9456,752.2969 87.1799,752.2969 Q87.9143,752.2969 88.5549,752.4688 Q89.2112,752.625 89.7581,752.9844 Z " fill="#000000"/><text fill="#000000" font-family="sans-serif" font-size="14" lengthAdjust="spacing" textLength="89.5029" x="105.8796" y="762.8379">LocationScore</text><line style="stroke:#181818;stroke-width:0.5;" x1="51" x2="219.375" y1="773.1094" y2="773.1094"/><text fill="#000000" font-family="sans-serif" font-size="14" lengthAdjust="spacing" textLength="88.334" x="56" y="791.6426">+scoreId: long</text><text fill="#000000" font-family="sans-serif" font-size="14" lengthAdjust="spacing" textLength="144.3887" x="56" y="809.252">+savedLocationId: long</text><text fill="#000000" font-family="sans-serif" font-size="14" lengthAdjust="spacing" textLength="158.375" x="56" y="826.8613">+compositeScore: double</text><text fill="#000000" font-family="sans-serif" font-size="14" lengthAdjust="spacing" textLength="151.3477" x="56" y="844.4707">+computedAt: DateTime</text><text fill="#000000" font-family="sans-serif" font-size="14" lengthAdjust="spacing" textLength="146.6924" x="56" y="862.0801">+methodVersion: String</text><line style="stroke:#181818;stroke-width:0.5;" x1="51" x2="219.375" y1="869.1563" y2="869.1563"/></g><!--class ScoreBreakdown--><g class="entity" data-qualified-name="Portfolio Module.ScoreBreakdown" data-source-line="57" id="ent0009"><rect fill="#F1F1F1" height="171.2656" rx="2.5" ry="2.5" style="stroke:#181818;stroke-width:0.5;" width="194.5059" x="255.5" y="723.6094"/><ellipse cx="295.6517" cy="739.6094" fill="#ADD1B2" rx="11" ry="11" style="stroke:#181818;stroke-width:1;"/><path d="M298.4173,735.4844 Q298.5735,735.2656 298.761,735.1563 Q298.9485,735.0469 299.1673,735.0469 Q299.5423,735.0469 299.7767,735.3125 Q300.011,735.5625 300.011,736.1719 L300.011,737.625 Q300.011,738.2344 299.7767,738.5 Q299.5423,738.7656 299.1673,738.7656 Q298.8235,738.7656 298.6204,738.5625 Q298.4173,738.375 298.3079,737.8594 Q298.261,737.5 298.0735,737.3125 Q297.7454,736.9375 297.136,736.7188 Q296.5267,736.5 295.9017,736.5 Q295.136,736.5 294.4954,736.8281 Q293.8704,737.1563 293.3704,737.9063 Q292.886,738.6563 292.886,739.6875 L292.886,740.7813 Q292.886,742.0156 293.7767,742.8438 Q294.6673,743.6563 296.261,743.6563 Q297.1985,743.6563 297.8548,743.4063 Q298.2454,743.25 298.6673,742.8125 Q298.9329,742.5469 299.0735,742.4688 Q299.2298,742.3906 299.4329,742.3906 Q299.761,742.3906 300.011,742.6563 Q300.2767,742.9063 300.2767,743.25 Q300.2767,743.5938 299.9329,744 Q299.4329,744.5781 298.636,744.9063 Q297.5579,745.3594 296.261,745.3594 Q294.7454,745.3594 293.5423,744.7344 Q292.5579,744.2344 291.8704,743.1719 Q291.1829,742.0938 291.1829,740.8125 L291.1829,739.6563 Q291.1829,738.3281 291.7923,737.1875 Q292.4173,736.0313 293.511,735.4219 Q294.6048,734.7969 295.8392,734.7969 Q296.5735,734.7969 297.2142,734.9688 Q297.8704,735.125 298.4173,735.4844 Z " fill="#000000"/><text fill="#000000" font-family="sans-serif" font-size="14" lengthAdjust="spacing" textLength="106.6133" x="315.2409" y="745.3379">ScoreBreakdown</text><line style="stroke:#181818;stroke-width:0.5;" x1="256.5" x2="449.0059" y1="755.6094" y2="755.6094"/><text fill="#000000" font-family="sans-serif" font-size="14" lengthAdjust="spacing" textLength="122.5889" x="261.5" y="774.1426">+breakdownId: long</text><text fill="#000000" font-family="sans-serif" font-size="14" lengthAdjust="spacing" textLength="144.3887" x="261.5" y="791.752">+savedLocationId: long</text><text fill="#000000" font-family="sans-serif" font-size="14" lengthAdjust="spacing" textLength="182.5059" x="261.5" y="809.3613">+demographicsScore: double</text><text fill="#000000" font-family="sans-serif" font-size="14" lengthAdjust="spacing" textLength="138.1406" x="261.5" y="826.9707">+accessScore: double</text><text fill="#000000" font-family="sans-serif" font-size="14" lengthAdjust="spacing" textLength="129.5889" x="261.5" y="844.5801">+rentalScore: double</text><text fill="#000000" font-family="sans-serif" font-size="14" lengthAdjust="spacing" textLength="166.1611" x="261.5" y="862.1895">+competitionScore: double</text><text fill="#000000" font-family="sans-serif" font-size="14" lengthAdjust="spacing" textLength="122.5684" x="261.5" y="879.7988">+detailsJson: String</text><line style="stroke:#181818;stroke-width:0.5;" x1="256.5" x2="449.0059" y1="886.875" y2="886.875"/></g><!--class Note--><g class="entity" data-qualified-name="Portfolio Module.Note" data-source-line="67" id="ent0010"><rect fill="#F1F1F1" height="136.0469" rx="2.5" ry="2.5" style="stroke:#181818;stroke-width:0.5;" width="156.3887" x="897" y="741.1094"/><ellipse cx="956.1582" cy="757.1094" fill="#ADD1B2" rx="11" ry="11" style="stroke:#181818;stroke-width:1;"/><path d="M958.9238,752.9844 Q959.0801,752.7656 959.2676,752.6563 Q959.4551,752.5469 959.6738,752.5469 Q960.0488,752.5469 960.2832,752.8125 Q960.5176,753.0625 960.5176,753.6719 L960.5176,755.125 Q960.5176,755.7344 960.2832,756 Q960.0488,756.2656 959.6738,756.2656 Q959.3301,756.2656 959.127,756.0625 Q958.9238,755.875 958.8145,755.3594 Q958.7676,755 958.5801,754.8125 Q958.252,754.4375 957.6426,754.2188 Q957.0332,754 956.4082,754 Q955.6426,754 955.002,754.3281 Q954.377,754.6563 953.877,755.4063 Q953.3926,756.1563 953.3926,757.1875 L953.3926,758.2813 Q953.3926,759.5156 954.2832,760.3438 Q955.1738,761.1563 956.7676,761.1563 Q957.7051,761.1563 958.3613,760.9063 Q958.752,760.75 959.1738,760.3125 Q959.4395,760.0469 959.5801,759.9688 Q959.7363,759.8906 959.9395,759.8906 Q960.2676,759.8906 960.5176,760.1563 Q960.7832,760.4063 960.7832,760.75 Q960.7832,761.0938 960.4395,761.5 Q959.9395,762.0781 959.1426,762.4063 Q958.0645,762.8594 956.7676,762.8594 Q955.252,762.8594 954.0488,762.2344 Q953.0645,761.7344 952.377,760.6719 Q951.6895,759.5938 951.6895,758.3125 L951.6895,757.1563 Q951.6895,755.8281 952.2988,754.6875 Q952.9238,753.5313 954.0176,752.9219 Q955.1113,752.2969 956.3457,752.2969 Q957.0801,752.2969 957.7207,752.4688 Q958.377,752.625 958.9238,752.9844 Z " fill="#000000"/><text fill="#000000" font-family="sans-serif" font-size="14" lengthAdjust="spacing" textLength="29.5723" x="976.6582" y="762.8379">Note</text><line style="stroke:#181818;stroke-width:0.5;" x1="898" x2="1052.3887" y1="773.1094" y2="773.1094"/><text fill="#000000" font-family="sans-serif" font-size="14" lengthAdjust="spacing" textLength="81.3477" x="903" y="791.6426">+noteId: long</text><text fill="#000000" font-family="sans-serif" font-size="14" lengthAdjust="spacing" textLength="144.3887" x="903" y="809.252">+savedLocationId: long</text><text fill="#000000" font-family="sans-serif" font-size="14" lengthAdjust="spacing" textLength="75.0928" x="903" y="826.8613">+text: String</text><text fill="#000000" font-family="sans-serif" font-size="14" lengthAdjust="spacing" textLength="136.5615" x="903" y="844.4707">+createdAt: DateTime</text><text fill="#000000" font-family="sans-serif" font-size="14" lengthAdjust="spacing" textLength="140.4717" x="903" y="862.0801">+updatedAt: DateTime</text><line style="stroke:#181818;stroke-width:0.5;" x1="898" x2="1052.3887" y1="869.1563" y2="869.1563"/></g><!--class PortfolioController--><g class="entity" data-qualified-name="Portfolio Module.PortfolioController" data-source-line="75" id="ent0011"><rect fill="#F1F1F1" height="111.5313" rx="2.5" ry="2.5" style="stroke:#181818;stroke-width:0.5;" width="343.1328" x="697.5" y="289.1094"/><ellipse cx="808.7925" cy="310.4609" fill="#ADD1B2" rx="11" ry="11" style="stroke:#181818;stroke-width:1;"/><path d="M811.5581,306.3359 Q811.7144,306.1172 811.9019,306.0078 Q812.0894,305.8984 812.3081,305.8984 Q812.6831,305.8984 812.9175,306.1641 Q813.1519,306.4141 813.1519,307.0234 L813.1519,308.4766 Q813.1519,309.0859 812.9175,309.3516 Q812.6831,309.6172 812.3081,309.6172 Q811.9644,309.6172 811.7612,309.4141 Q811.5581,309.2266 811.4487,308.7109 Q811.4019,308.3516 811.2144,308.1641 Q810.8862,307.7891 810.2769,307.5703 Q809.6675,307.3516 809.0425,307.3516 Q808.2769,307.3516 807.6362,307.6797 Q807.0112,308.0078 806.5112,308.7578 Q806.0269,309.5078 806.0269,310.5391 L806.0269,311.6328 Q806.0269,312.8672 806.9175,313.6953 Q807.8081,314.5078 809.4019,314.5078 Q810.3394,314.5078 810.9956,314.2578 Q811.3862,314.1016 811.8081,313.6641 Q812.0737,313.3984 812.2144,313.3203 Q812.3706,313.2422 812.5737,313.2422 Q812.9019,313.2422 813.1519,313.5078 Q813.4175,313.7578 813.4175,314.1016 Q813.4175,314.4453 813.0737,314.8516 Q812.5737,315.4297 811.7769,315.7578 Q810.6987,316.2109 809.4019,316.2109 Q807.8862,316.2109 806.6831,315.5859 Q805.6987,315.0859 805.0112,314.0234 Q804.3237,312.9453 804.3237,311.6641 L804.3237,310.5078 Q804.3237,309.1797 804.9331,308.0391 Q805.5581,306.8828 806.6519,306.2734 Q807.7456,305.6484 808.98,305.6484 Q809.7144,305.6484 810.355,305.8203 Q811.0112,305.9766 811.5581,306.3359 Z " fill="#000000"/><text fill="#000000" font-family="sans-serif" font-size="12" font-style="italic" lengthAdjust="spacing" textLength="49.3652" x="860.6338" y="306.5664">&#171;control&#187;</text><text fill="#000000" font-family="sans-serif" font-size="14" lengthAdjust="spacing" textLength="112.0479" x="829.2925" y="323.7363">PortfolioController</text><line style="stroke:#181818;stroke-width:0.5;" x1="698.5" x2="1039.6328" y1="331.8125" y2="331.8125"/><line style="stroke:#181818;stroke-width:0.5;" x1="698.5" x2="1039.6328" y1="339.8125" y2="339.8125"/><text fill="#000000" font-family="sans-serif" font-size="14" lengthAdjust="spacing" textLength="325.7051" x="703.5" y="358.3457">+getPortfolioLocations(userId): List&lt;SavedLocation&gt;</text><text fill="#000000" font-family="sans-serif" font-size="14" lengthAdjust="spacing" textLength="331.1328" x="703.5" y="375.9551">+searchPortfolio(userId, query): List&lt;SavedLocation&gt;</text><text fill="#000000" font-family="sans-serif" font-size="14" lengthAdjust="spacing" textLength="283.6982" x="703.5" y="393.5645">+deleteSavedLocation(savedLocationId): void</text></g><!--class LocationController--><g class="entity" data-qualified-name="Portfolio Module.LocationController" data-source-line="81" id="ent0012"><rect fill="#F1F1F1" height="76.3125" rx="2.5" ry="2.5" style="stroke:#181818;stroke-width:0.5;" width="379.7051" x="22" y="307.1094"/><ellipse cx="150.7925" cy="328.4609" fill="#ADD1B2" rx="11" ry="11" style="stroke:#181818;stroke-width:1;"/><path d="M153.5581,324.3359 Q153.7144,324.1172 153.9019,324.0078 Q154.0894,323.8984 154.3081,323.8984 Q154.6831,323.8984 154.9175,324.1641 Q155.1519,324.4141 155.1519,325.0234 L155.1519,326.4766 Q155.1519,327.0859 154.9175,327.3516 Q154.6831,327.6172 154.3081,327.6172 Q153.9644,327.6172 153.7612,327.4141 Q153.5581,327.2266 153.4487,326.7109 Q153.4019,326.3516 153.2144,326.1641 Q152.8862,325.7891 152.2769,325.5703 Q151.6675,325.3516 151.0425,325.3516 Q150.2769,325.3516 149.6362,325.6797 Q149.0112,326.0078 148.5112,326.7578 Q148.0269,327.5078 148.0269,328.5391 L148.0269,329.6328 Q148.0269,330.8672 148.9175,331.6953 Q149.8081,332.5078 151.4019,332.5078 Q152.3394,332.5078 152.9956,332.2578 Q153.3862,332.1016 153.8081,331.6641 Q154.0737,331.3984 154.2144,331.3203 Q154.3706,331.2422 154.5737,331.2422 Q154.9019,331.2422 155.1519,331.5078 Q155.4175,331.7578 155.4175,332.1016 Q155.4175,332.4453 155.0737,332.8516 Q154.5737,333.4297 153.7769,333.7578 Q152.6987,334.2109 151.4019,334.2109 Q149.8862,334.2109 148.6831,333.5859 Q147.6987,333.0859 147.0112,332.0234 Q146.3237,330.9453 146.3237,329.6641 L146.3237,328.5078 Q146.3237,327.1797 146.9331,326.0391 Q147.5581,324.8828 148.6519,324.2734 Q149.7456,323.6484 150.98,323.6484 Q151.7144,323.6484 152.355,323.8203 Q153.0112,323.9766 153.5581,324.3359 Z " fill="#000000"/><text fill="#000000" font-family="sans-serif" font-size="12" font-style="italic" lengthAdjust="spacing" textLength="49.3652" x="203.4199" y="324.5664">&#171;control&#187;</text><text fill="#000000" font-family="sans-serif" font-size="14" lengthAdjust="spacing" textLength="113.6201" x="171.2925" y="341.7363">LocationController</text><line style="stroke:#181818;stroke-width:0.5;" x1="23" x2="400.7051" y1="349.8125" y2="349.8125"/><line style="stroke:#181818;stroke-width:0.5;" x1="23" x2="400.7051" y1="357.8125" y2="357.8125"/><text fill="#000000" font-family="sans-serif" font-size="14" lengthAdjust="spacing" textLength="367.7051" x="28" y="376.3457">+getLocationDetails(savedLocationId): LocationDetailsDTO</text></g><!--class NotesController--><g class="entity" data-qualified-name="Portfolio Module.NotesController" data-source-line="85" id="ent0013"><rect fill="#F1F1F1" height="129.1406" rx="2.5" ry="2.5" style="stroke:#181818;stroke-width:0.5;" width="260.6367" x="1045.5" y="521.1094"/><ellipse cx="1122.9375" cy="542.4609" fill="#ADD1B2" rx="11" ry="11" style="stroke:#181818;stroke-width:1;"/><path d="M1125.7031,538.3359 Q1125.8594,538.1172 1126.0469,538.0078 Q1126.2344,537.8984 1126.4531,537.8984 Q1126.8281,537.8984 1127.0625,538.1641 Q1127.2969,538.4141 1127.2969,539.0234 L1127.2969,540.4766 Q1127.2969,541.0859 1127.0625,541.3516 Q1126.8281,541.6172 1126.4531,541.6172 Q1126.1094,541.6172 1125.9063,541.4141 Q1125.7031,541.2266 1125.5938,540.7109 Q1125.5469,540.3516 1125.3594,540.1641 Q1125.0313,539.7891 1124.4219,539.5703 Q1123.8125,539.3516 1123.1875,539.3516 Q1122.4219,539.3516 1121.7813,539.6797 Q1121.1563,540.0078 1120.6563,540.7578 Q1120.1719,541.5078 1120.1719,542.5391 L1120.1719,543.6328 Q1120.1719,544.8672 1121.0625,545.6953 Q1121.9531,546.5078 1123.5469,546.5078 Q1124.4844,546.5078 1125.1406,546.2578 Q1125.5313,546.1016 1125.9531,545.6641 Q1126.2188,545.3984 1126.3594,545.3203 Q1126.5156,545.2422 1126.7188,545.2422 Q1127.0469,545.2422 1127.2969,545.5078 Q1127.5625,545.7578 1127.5625,546.1016 Q1127.5625,546.4453 1127.2188,546.8516 Q1126.7188,547.4297 1125.9219,547.7578 Q1124.8438,548.2109 1123.5469,548.2109 Q1122.0313,548.2109 1120.8281,547.5859 Q1119.8438,547.0859 1119.1563,546.0234 Q1118.4688,544.9453 1118.4688,543.6641 L1118.4688,542.5078 Q1118.4688,541.1797 1119.0781,540.0391 Q1119.7031,538.8828 1120.7969,538.2734 Q1121.8906,537.6484 1123.125,537.6484 Q1123.8594,537.6484 1124.5,537.8203 Q1125.1563,537.9766 1125.7031,538.3359 Z " fill="#000000"/><text fill="#000000" font-family="sans-serif" font-size="12" font-style="italic" lengthAdjust="spacing" textLength="49.3652" x="1167.3857" y="538.5664">&#171;control&#187;</text><text fill="#000000" font-family="sans-serif" font-size="14" lengthAdjust="spacing" textLength="97.2617" x="1143.4375" y="555.7363">NotesController</text><line style="stroke:#181818;stroke-width:0.5;" x1="1046.5" x2="1305.1367" y1="563.8125" y2="563.8125"/><line style="stroke:#181818;stroke-width:0.5;" x1="1046.5" x2="1305.1367" y1="571.8125" y2="571.8125"/><text fill="#000000" font-family="sans-serif" font-size="14" lengthAdjust="spacing" textLength="240.0918" x="1051.5" y="590.3457">+addNote(savedLocationId, text): Note</text><text fill="#000000" font-family="sans-serif" font-size="14" lengthAdjust="spacing" textLength="176.2646" x="1051.5" y="607.9551">+editNote(noteId, text): Note</text><text fill="#000000" font-family="sans-serif" font-size="14" lengthAdjust="spacing" textLength="157.6025" x="1051.5" y="625.5645">+deleteNote(noteId): void</text><text fill="#000000" font-family="sans-serif" font-size="14" lengthAdjust="spacing" textLength="248.6367" x="1051.5" y="643.1738">+listNotes(savedLocationId): List&lt;Note&gt;</text></g><!--class MapController--><g class="entity" data-qualified-name="Portfolio Module.MapController" data-source-line="92" id="ent0014"><rect fill="#F1F1F1" height="76.3125" rx="2.5" ry="2.5" style="stroke:#181818;stroke-width:0.5;" width="303.416" x="707.5" y="547.6094"/><ellipse cx="810.9961" cy="568.9609" fill="#ADD1B2" rx="11" ry="11" style="stroke:#181818;stroke-width:1;"/><path d="M813.7617,564.8359 Q813.918,564.6172 814.1055,564.5078 Q814.293,564.3984 814.5117,564.3984 Q814.8867,564.3984 815.1211,564.6641 Q815.3555,564.9141 815.3555,565.5234 L815.3555,566.9766 Q815.3555,567.5859 815.1211,567.8516 Q814.8867,568.1172 814.5117,568.1172 Q814.168,568.1172 813.9648,567.9141 Q813.7617,567.7266 813.6523,567.2109 Q813.6055,566.8516 813.418,566.6641 Q813.0898,566.2891 812.4805,566.0703 Q811.8711,565.8516 811.2461,565.8516 Q810.4805,565.8516 809.8398,566.1797 Q809.2148,566.5078 808.7148,567.2578 Q808.2305,568.0078 808.2305,569.0391 L808.2305,570.1328 Q808.2305,571.3672 809.1211,572.1953 Q810.0117,573.0078 811.6055,573.0078 Q812.543,573.0078 813.1992,572.7578 Q813.5898,572.6016 814.0117,572.1641 Q814.2773,571.8984 814.418,571.8203 Q814.5742,571.7422 814.7773,571.7422 Q815.1055,571.7422 815.3555,572.0078 Q815.6211,572.2578 815.6211,572.6016 Q815.6211,572.9453 815.2773,573.3516 Q814.7773,573.9297 813.9805,574.2578 Q812.9023,574.7109 811.6055,574.7109 Q810.0898,574.7109 808.8867,574.0859 Q807.9023,573.5859 807.2148,572.5234 Q806.5273,571.4453 806.5273,570.1641 L806.5273,569.0078 Q806.5273,567.6797 807.1367,566.5391 Q807.7617,565.3828 808.8555,564.7734 Q809.9492,564.1484 811.1836,564.1484 Q811.918,564.1484 812.5586,564.3203 Q813.2148,564.4766 813.7617,564.8359 Z " fill="#000000"/><text fill="#000000" font-family="sans-serif" font-size="12" font-style="italic" lengthAdjust="spacing" textLength="49.3652" x="850.7754" y="565.0664">&#171;control&#187;</text><text fill="#000000" font-family="sans-serif" font-size="14" lengthAdjust="spacing" textLength="87.9238" x="831.4961" y="582.2363">MapController</text><line style="stroke:#181818;stroke-width:0.5;" x1="708.5" x2="1009.916" y1="590.3125" y2="590.3125"/><line style="stroke:#181818;stroke-width:0.5;" x1="708.5" x2="1009.916" y1="598.3125" y2="598.3125"/><text fill="#000000" font-family="sans-serif" font-size="14" lengthAdjust="spacing" textLength="291.416" x="713.5" y="616.8457">+getMapView(savedLocationId): MapViewDTO</text></g><!--class PortfolioDashboardPage--><g class="entity" data-qualified-name="Portfolio Module.PortfolioDashboardPage" data-source-line="96" id="ent0015"><rect fill="#F1F1F1" height="58.7031" rx="2.5" ry="2.5" style="stroke:#181818;stroke-width:0.5;" width="184.5439" x="776.5" y="110.1094"/><ellipse cx="791.5" cy="131.4609" fill="#ADD1B2" rx="11" ry="11" style="stroke:#181818;stroke-width:1;"/><path d="M794.2656,127.3359 Q794.4219,127.1172 794.6094,127.0078 Q794.7969,126.8984 795.0156,126.8984 Q795.3906,126.8984 795.625,127.1641 Q795.8594,127.4141 795.8594,128.0234 L795.8594,129.4766 Q795.8594,130.0859 795.625,130.3516 Q795.3906,130.6172 795.0156,130.6172 Q794.6719,130.6172 794.4688,130.4141 Q794.2656,130.2266 794.1563,129.7109 Q794.1094,129.3516 793.9219,129.1641 Q793.5938,128.7891 792.9844,128.5703 Q792.375,128.3516 791.75,128.3516 Q790.9844,128.3516 790.3438,128.6797 Q789.7188,129.0078 789.2188,129.7578 Q788.7344,130.5078 788.7344,131.5391 L788.7344,132.6328 Q788.7344,133.8672 789.625,134.6953 Q790.5156,135.5078 792.1094,135.5078 Q793.0469,135.5078 793.7031,135.2578 Q794.0938,135.1016 794.5156,134.6641 Q794.7813,134.3984 794.9219,134.3203 Q795.0781,134.2422 795.2813,134.2422 Q795.6094,134.2422 795.8594,134.5078 Q796.125,134.7578 796.125,135.1016 Q796.125,135.4453 795.7813,135.8516 Q795.2813,136.4297 794.4844,136.7578 Q793.4063,137.2109 792.1094,137.2109 Q790.5938,137.2109 789.3906,136.5859 Q788.4063,136.0859 787.7188,135.0234 Q787.0313,133.9453 787.0313,132.6641 L787.0313,131.5078 Q787.0313,130.1797 787.6406,129.0391 Q788.2656,127.8828 789.3594,127.2734 Q790.4531,126.6484 791.6875,126.6484 Q792.4219,126.6484 793.0625,126.8203 Q793.7188,126.9766 794.2656,127.3359 Z " fill="#000000"/><text fill="#000000" font-family="sans-serif" font-size="12" font-style="italic" lengthAdjust="spacing" textLength="63.3867" x="850.0786" y="127.5664">&#171;boundary&#187;</text><text fill="#000000" font-family="sans-serif" font-size="14" lengthAdjust="spacing" textLength="152.5439" x="805.5" y="144.7363">PortfolioDashboardPage</text><line style="stroke:#181818;stroke-width:0.5;" x1="777.5" x2="960.0439" y1="152.8125" y2="152.8125"/><line style="stroke:#181818;stroke-width:0.5;" x1="777.5" x2="960.0439" y1="160.8125" y2="160.8125"/></g><!--class LocationDetailsPage--><g class="entity" data-qualified-name="Portfolio Module.LocationDetailsPage" data-source-line="97" id="ent0016"><rect fill="#F1F1F1" height="58.7031" rx="2.5" ry="2.5" style="stroke:#181818;stroke-width:0.5;" width="160.4199" x="132" y="110.1094"/><ellipse cx="147" cy="131.4609" fill="#ADD1B2" rx="11" ry="11" style="stroke:#181818;stroke-width:1;"/><path d="M149.7656,127.3359 Q149.9219,127.1172 150.1094,127.0078 Q150.2969,126.8984 150.5156,126.8984 Q150.8906,126.8984 151.125,127.1641 Q151.3594,127.4141 151.3594,128.0234 L151.3594,129.4766 Q151.3594,130.0859 151.125,130.3516 Q150.8906,130.6172 150.5156,130.6172 Q150.1719,130.6172 149.9688,130.4141 Q149.7656,130.2266 149.6563,129.7109 Q149.6094,129.3516 149.4219,129.1641 Q149.0938,128.7891 148.4844,128.5703 Q147.875,128.3516 147.25,128.3516 Q146.4844,128.3516 145.8438,128.6797 Q145.2188,129.0078 144.7188,129.7578 Q144.2344,130.5078 144.2344,131.5391 L144.2344,132.6328 Q144.2344,133.8672 145.125,134.6953 Q146.0156,135.5078 147.6094,135.5078 Q148.5469,135.5078 149.2031,135.2578 Q149.5938,135.1016 150.0156,134.6641 Q150.2813,134.3984 150.4219,134.3203 Q150.5781,134.2422 150.7813,134.2422 Q151.1094,134.2422 151.3594,134.5078 Q151.625,134.7578 151.625,135.1016 Q151.625,135.4453 151.2813,135.8516 Q150.7813,136.4297 149.9844,136.7578 Q148.9063,137.2109 147.6094,137.2109 Q146.0938,137.2109 144.8906,136.5859 Q143.9063,136.0859 143.2188,135.0234 Q142.5313,133.9453 142.5313,132.6641 L142.5313,131.5078 Q142.5313,130.1797 143.1406,129.0391 Q143.7656,127.8828 144.8594,127.2734 Q145.9531,126.6484 147.1875,126.6484 Q147.9219,126.6484 148.5625,126.8203 Q149.2188,126.9766 149.7656,127.3359 Z " fill="#000000"/><text fill="#000000" font-family="sans-serif" font-size="12" font-style="italic" lengthAdjust="spacing" textLength="63.3867" x="193.5166" y="127.5664">&#171;boundary&#187;</text><text fill="#000000" font-family="sans-serif" font-size="14" lengthAdjust="spacing" textLength="128.4199" x="161" y="144.7363">LocationDetailsPage</text><line style="stroke:#181818;stroke-width:0.5;" x1="133" x2="291.4199" y1="152.8125" y2="152.8125"/><line style="stroke:#181818;stroke-width:0.5;" x1="133" x2="291.4199" y1="160.8125" y2="160.8125"/></g><!--class NotesPanel--><g class="entity" data-qualified-name="Portfolio Module.NotesPanel" data-source-line="98" id="ent0017"><rect fill="#F1F1F1" height="58.7031" rx="2.5" ry="2.5" style="stroke:#181818;stroke-width:0.5;" width="104.3789" x="1203" y="315.6094"/><ellipse cx="1218" cy="336.9609" fill="#ADD1B2" rx="11" ry="11" style="stroke:#181818;stroke-width:1;"/><path d="M1220.7656,332.8359 Q1220.9219,332.6172 1221.1094,332.5078 Q1221.2969,332.3984 1221.5156,332.3984 Q1221.8906,332.3984 1222.125,332.6641 Q1222.3594,332.9141 1222.3594,333.5234 L1222.3594,334.9766 Q1222.3594,335.5859 1222.125,335.8516 Q1221.8906,336.1172 1221.5156,336.1172 Q1221.1719,336.1172 1220.9688,335.9141 Q1220.7656,335.7266 1220.6563,335.2109 Q1220.6094,334.8516 1220.4219,334.6641 Q1220.0938,334.2891 1219.4844,334.0703 Q1218.875,333.8516 1218.25,333.8516 Q1217.4844,333.8516 1216.8438,334.1797 Q1216.2188,334.5078 1215.7188,335.2578 Q1215.2344,336.0078 1215.2344,337.0391 L1215.2344,338.1328 Q1215.2344,339.3672 1216.125,340.1953 Q1217.0156,341.0078 1218.6094,341.0078 Q1219.5469,341.0078 1220.2031,340.7578 Q1220.5938,340.6016 1221.0156,340.1641 Q1221.2813,339.8984 1221.4219,339.8203 Q1221.5781,339.7422 1221.7813,339.7422 Q1222.1094,339.7422 1222.3594,340.0078 Q1222.625,340.2578 1222.625,340.6016 Q1222.625,340.9453 1222.2813,341.3516 Q1221.7813,341.9297 1220.9844,342.2578 Q1219.9063,342.7109 1218.6094,342.7109 Q1217.0938,342.7109 1215.8906,342.0859 Q1214.9063,341.5859 1214.2188,340.5234 Q1213.5313,339.4453 1213.5313,338.1641 L1213.5313,337.0078 Q1213.5313,335.6797 1214.1406,334.5391 Q1214.7656,333.3828 1215.8594,332.7734 Q1216.9531,332.1484 1218.1875,332.1484 Q1218.9219,332.1484 1219.5625,332.3203 Q1220.2188,332.4766 1220.7656,332.8359 Z " fill="#000000"/><text fill="#000000" font-family="sans-serif" font-size="12" font-style="italic" lengthAdjust="spacing" textLength="63.3867" x="1236.4961" y="333.0664">&#171;boundary&#187;</text><text fill="#000000" font-family="sans-serif" font-size="14" lengthAdjust="spacing" textLength="72.3789" x="1232" y="350.2363">NotesPanel</text><line style="stroke:#181818;stroke-width:0.5;" x1="1204" x2="1306.3789" y1="358.3125" y2="358.3125"/><line style="stroke:#181818;stroke-width:0.5;" x1="1204" x2="1306.3789" y1="366.3125" y2="366.3125"/></g><!--class MapPage--><g class="entity" data-qualified-name="Portfolio Module.MapPage" data-source-line="99" id="ent0018"><rect fill="#F1F1F1" height="58.7031" rx="2.5" ry="2.5" style="stroke:#181818;stroke-width:0.5;" width="91.9307" x="1076" y="315.6094"/><ellipse cx="1091" cy="336.9609" fill="#ADD1B2" rx="11" ry="11" style="stroke:#181818;stroke-width:1;"/><path d="M1093.7656,332.8359 Q1093.9219,332.6172 1094.1094,332.5078 Q1094.2969,332.3984 1094.5156,332.3984 Q1094.8906,332.3984 1095.125,332.6641 Q1095.3594,332.9141 1095.3594,333.5234 L1095.3594,334.9766 Q1095.3594,335.5859 1095.125,335.8516 Q1094.8906,336.1172 1094.5156,336.1172 Q1094.1719,336.1172 1093.9688,335.9141 Q1093.7656,335.7266 1093.6563,335.2109 Q1093.6094,334.8516 1093.4219,334.6641 Q1093.0938,334.2891 1092.4844,334.0703 Q1091.875,333.8516 1091.25,333.8516 Q1090.4844,333.8516 1089.8438,334.1797 Q1089.2188,334.5078 1088.7188,335.2578 Q1088.2344,336.0078 1088.2344,337.0391 L1088.2344,338.1328 Q1088.2344,339.3672 1089.125,340.1953 Q1090.0156,341.0078 1091.6094,341.0078 Q1092.5469,341.0078 1093.2031,340.7578 Q1093.5938,340.6016 1094.0156,340.1641 Q1094.2813,339.8984 1094.4219,339.8203 Q1094.5781,339.7422 1094.7813,339.7422 Q1095.1094,339.7422 1095.3594,340.0078 Q1095.625,340.2578 1095.625,340.6016 Q1095.625,340.9453 1095.2813,341.3516 Q1094.7813,341.9297 1093.9844,342.2578 Q1092.9063,342.7109 1091.6094,342.7109 Q1090.0938,342.7109 1088.8906,342.0859 Q1087.9063,341.5859 1087.2188,340.5234 Q1086.5313,339.4453 1086.5313,338.1641 L1086.5313,337.0078 Q1086.5313,335.6797 1087.1406,334.5391 Q1087.7656,333.3828 1088.8594,332.7734 Q1089.9531,332.1484 1091.1875,332.1484 Q1091.9219,332.1484 1092.5625,332.3203 Q1093.2188,332.4766 1093.7656,332.8359 Z " fill="#000000"/><text fill="#000000" font-family="sans-serif" font-size="12" font-style="italic" lengthAdjust="spacing" textLength="63.3867" x="1103.272" y="333.0664">&#171;boundary&#187;</text><text fill="#000000" font-family="sans-serif" font-size="14" lengthAdjust="spacing" textLength="59.9307" x="1105" y="350.2363">MapPage</text><line style="stroke:#181818;stroke-width:0.5;" x1="1077" x2="1166.9307" y1="358.3125" y2="358.3125"/><line style="stroke:#181818;stroke-width:0.5;" x1="1077" x2="1166.9307" y1="366.3125" y2="366.3125"/></g><!--reverse link UserAccount to BusinessProfile--><g class="link" data-entity-1="ent0003" data-entity-2="ent0004" data-link-type="aggregation" data-source-line="102" id="lnk19"><path codeLine="102" d="M593.8251,209.5234 C584.9951,228.4434 580.08,238.9694 570.53,259.4194" fill="none" id="UserAccount-backto-BusinessProfile" style="stroke:#181818;stroke-width:1;"/><polygon fill="none" points="598.9,198.6494,592.7378,202.3948,593.8251,209.5234,599.9872,205.778,598.9,198.6494" style="stroke:#181818;stroke-width:1;"/><text fill="#000000" font-family="sans-serif" font-size="13" lengthAdjust="spacing" textLength="7.23" x="587.9848" y="220.7285">1</text><text fill="#000000" font-family="sans-serif" font-size="13" lengthAdjust="spacing" textLength="19.5127" x="554.1451" y="248.8667">0..*</text></g><!--reverse link BusinessProfile to WeightConfig--><g class="link" data-entity-1="ent0004" data-entity-2="ent0005" data-link-type="aggregation" data-source-line="103" id="lnk20"><path codeLine="103" d="M475.5593,441.2381 C457.1493,472.8381 442.71,497.5994 425.99,526.2894" fill="none" id="BusinessProfile-backto-WeightConfig" style="stroke:#181818;stroke-width:1;"/><polygon fill="none" points="481.6,430.8694,475.1234,434.0401,475.5593,441.2381,482.0359,438.0673,481.6,430.8694" style="stroke:#181818;stroke-width:1;"/><text fill="#000000" font-family="sans-serif" font-size="13" lengthAdjust="spacing" textLength="7.23" x="470.0761" y="452.4257">1</text><text fill="#000000" font-family="sans-serif" font-size="13" lengthAdjust="spacing" textLength="19.5127" x="410.0327" y="515.5746">0..*</text></g><!--reverse link UserAccount to SavedLocation--><g class="link" data-entity-1="ent0003" data-entity-2="ent0007" data-link-type="aggregation" data-source-line="105" id="lnk21"><path codeLine="105" d="M642.6444,210.5278 C656.8344,278.7278 670.85,382.8794 646,478.6094 C643.41,488.5994 639.65,498.6494 635.26,508.3694" fill="none" id="UserAccount-backto-SavedLocation" style="stroke:#181818;stroke-width:1;"/><polygon fill="none" points="640.2,198.7794,637.5061,205.4684,642.6444,210.5278,645.3383,203.8388,640.2,198.7794" style="stroke:#181818;stroke-width:1;"/><text fill="#000000" font-family="sans-serif" font-size="13" lengthAdjust="spacing" textLength="7.23" x="634.5093" y="220.4556">1</text><text fill="#000000" font-family="sans-serif" font-size="13" lengthAdjust="spacing" textLength="19.5127" x="619.9993" y="497.7732">0..*</text></g><!--link SavedLocation to Location--><g class="link" data-entity-1="ent0007" data-entity-2="ent0006" data-link-type="dependency" data-source-line="106" id="lnk22"><path codeLine="106" d="M587,662.8394 C587,682.3594 587,697.4694 587,717.3894" fill="none" id="SavedLocation-to-Location" style="stroke:#181818;stroke-width:1;"/><polygon fill="#181818" points="587,723.3894,591,714.3894,587,718.3894,583,714.3894,587,723.3894" style="stroke:#181818;stroke-width:1;"/><text fill="#000000" font-family="sans-serif" font-size="13" lengthAdjust="spacing" textLength="5.0591" x="581.8062" y="683.6888">*</text><text fill="#000000" font-family="sans-serif" font-size="13" lengthAdjust="spacing" textLength="7.23" x="579.7075" y="712.8341">1</text></g><!--reverse link BusinessProfile to SavedLocation--><g class="link" data-entity-1="ent0004" data-entity-2="ent0007" data-link-type="dependency" data-source-line="108" id="lnk23"><path codeLine="108" d="M552.2714,436.7105 C558.2114,462.0105 563.32,483.7494 569.12,508.4594" fill="none" id="BusinessProfile-backto-SavedLocation" style="stroke:#181818;stroke-width:1;"/><polygon fill="#181818" points="550.9,430.8694,549.063,440.5454,552.0428,435.737,556.8512,438.7169,550.9,430.8694" style="stroke:#181818;stroke-width:1;"/><text fill="#000000" font-family="sans-serif" font-size="13" lengthAdjust="spacing" textLength="76.5908" x="561" y="475.1045">computedFor</text><text fill="#000000" font-family="sans-serif" font-size="13" lengthAdjust="spacing" textLength="7.23" x="545.3316" y="452.4257">1</text><text fill="#000000" font-family="sans-serif" font-size="13" lengthAdjust="spacing" textLength="19.5127" x="547.5553" y="497.8718">0..*</text></g><!--reverse link SavedLocation to LocationScore--><g class="link" data-entity-1="ent0007" data-entity-2="ent0008" data-link-type="aggregation" data-source-line="109" id="lnk24"><path codeLine="109" d="M491.345,659.2993 C485.495,662.6993 489.93,659.8194 484,662.6094 C382.05,710.5294 338.68,673.0894 238,723.6094 C228.18,728.5394 218.46,734.5494 209.14,741.0594" fill="none" id="SavedLocation-backto-LocationScore" style="stroke:#181818;stroke-width:1;"/><polygon fill="none" points="501.72,653.2694,494.5225,652.826,491.345,659.2993,498.5425,659.7427,501.72,653.2694" style="stroke:#181818;stroke-width:1;"/><text fill="#000000" font-family="sans-serif" font-size="13" lengthAdjust="spacing" textLength="7.23" x="486.8425" y="656.1089">1</text><text fill="#000000" font-family="sans-serif" font-size="13" lengthAdjust="spacing" textLength="21.6836" x="195.1175" y="730.2532">0..1</text></g><!--reverse link SavedLocation to ScoreBreakdown--><g class="link" data-entity-1="ent0007" data-entity-2="ent0009" data-link-type="aggregation" data-source-line="110" id="lnk25"><path codeLine="110" d="M497.7555,671.089 C477.1355,690.609 463.54,703.4694 442.5,723.3894" fill="none" id="SavedLocation-backto-ScoreBreakdown" style="stroke:#181818;stroke-width:1;"/><polygon fill="none" points="506.47,662.8394,499.3628,664.0594,497.7555,671.089,504.8626,669.869,506.47,662.8394" style="stroke:#181818;stroke-width:1;"/><text fill="#000000" font-family="sans-serif" font-size="13" lengthAdjust="spacing" textLength="7.23" x="492.2771" y="683.6888">1</text><text fill="#000000" font-family="sans-serif" font-size="13" lengthAdjust="spacing" textLength="21.6836" x="428.3397" y="712.8341">0..1</text></g><!--reverse link SavedLocation to Note--><g class="link" data-entity-1="ent0007" data-entity-2="ent0010" data-link-type="aggregation" data-source-line="111" id="lnk26"><path codeLine="111" d="M682.2161,657.8383 C688.1461,661.8283 684.14,658.9894 690,662.6094 C757.57,704.3894 838.58,744.8994 896.93,772.5094" fill="none" id="SavedLocation-backto-Note" style="stroke:#181818;stroke-width:1;"/><polygon fill="none" points="672.26,651.1394,675.0051,657.8076,682.2161,657.8383,679.471,651.1702,672.26,651.1394" style="stroke:#181818;stroke-width:1;"/><text fill="#000000" font-family="sans-serif" font-size="13" lengthAdjust="spacing" textLength="7.23" x="679.6378" y="653.4275">1</text><text fill="#000000" font-family="sans-serif" font-size="13" lengthAdjust="spacing" textLength="19.5127" x="869.5894" y="765.7681">0..*</text></g><!--link PortfolioDashboardPage to PortfolioController--><g class="link" data-entity-1="ent0015" data-entity-2="ent0011" data-link-type="dependency" data-source-line="113" id="lnk27"><path codeLine="113" d="M869,169.3294 C869,200.3394 869,244.4694 869,283.0994" fill="none" id="PortfolioDashboardPage-to-PortfolioController" style="stroke:#181818;stroke-width:1;"/><polygon fill="#181818" points="869,289.0994,873,280.0994,869,284.0994,865,280.0994,869,289.0994" style="stroke:#181818;stroke-width:1;"/></g><!--link LocationDetailsPage to LocationController--><g class="link" data-entity-1="ent0016" data-entity-2="ent0012" data-link-type="dependency" data-source-line="114" id="lnk28"><path codeLine="114" d="M212,169.3294 C212,205.3794 212,261.2694 212,300.8994" fill="none" id="LocationDetailsPage-to-LocationController" style="stroke:#181818;stroke-width:1;"/><polygon fill="#181818" points="212,306.8994,216,297.8994,212,301.8994,208,297.8994,212,306.8994" style="stroke:#181818;stroke-width:1;"/></g><!--link NotesPanel to NotesController--><g class="link" data-entity-1="ent0017" data-entity-2="ent0013" data-link-type="dependency" data-source-line="115" id="lnk29"><path codeLine="115" d="M1245.47,374.8794 C1233.57,410.8094 1214.7466,467.6237 1199.0266,515.0837" fill="none" id="NotesPanel-to-NotesController" style="stroke:#181818;stroke-width:1;"/><polygon fill="#181818" points="1197.14,520.7794,1203.767,513.4935,1198.7121,516.033,1196.1727,510.9781,1197.14,520.7794" style="stroke:#181818;stroke-width:1;"/></g><!--link MapPage to MapController--><g class="link" data-entity-1="ent0018" data-entity-2="ent0014" data-link-type="dependency" data-source-line="116" id="lnk30"><path codeLine="116" d="M1103.25,374.6194 C1091.32,391.7494 1074.96,413.4694 1058,430.6094 C1013.9,475.1694 961.6275,514.7216 919.8875,543.9016" fill="none" id="MapPage-to-MapController" style="stroke:#181818;stroke-width:1;"/><polygon fill="#181818" points="914.97,547.3394,924.6381,545.4611,919.0679,544.4746,920.0544,538.9044,914.97,547.3394" style="stroke:#181818;stroke-width:1;"/></g><!--link PortfolioController to SavedLocation--><g class="link" data-entity-1="ent0011" data-entity-2="ent0007" data-link-type="dependency" data-source-line="118" id="lnk31"><path codeLine="118" d="M803.95,401.1294 C764.75,434.2794 718.9613,473.0048 676.6313,508.8048" fill="none" id="PortfolioController-to-SavedLocation" style="stroke:#181818;stroke-width:1;"/><polygon fill="#181818" points="672.05,512.6794,681.5049,509.9217,675.8677,509.4506,676.3389,503.8134,672.05,512.6794" style="stroke:#181818;stroke-width:1;"/></g><!--link LocationController to SavedLocation--><g class="link" data-entity-1="ent0012" data-entity-2="ent0007" data-link-type="dependency" data-source-line="119" id="lnk32"><path codeLine="119" d="M278.23,383.2694 C334,415.1294 415.42,462.9794 484,508.6094 C489.83,512.4894 490.8638,513.1197 496.8238,517.2897" fill="none" id="LocationController-to-SavedLocation" style="stroke:#181818;stroke-width:1;"/><polygon fill="#181818" points="501.74,520.7294,496.6589,512.2924,497.6432,517.863,492.0726,518.8473,501.74,520.7294" style="stroke:#181818;stroke-width:1;"/></g><!--link LocationController to Location--><g class="link" data-entity-1="ent0012" data-entity-2="ent0006" data-link-type="dependency" data-source-line="120" id="lnk33"><path codeLine="120" d="M223.77,383.4094 C234,416.2494 249.03,465.4494 261,508.6094 C279.86,576.6494 252.64,610.2494 300,662.6094 C353.28,721.5194 397.65,686.7294 468,723.6094 C483.26,731.6094 493.8508,737.942 508.4608,747.892" fill="none" id="LocationController-to-Location" style="stroke:#181818;stroke-width:1;"/><polygon fill="#181818" points="513.42,751.2694,508.2329,742.8972,509.2874,748.4549,503.7297,749.5094,513.42,751.2694" style="stroke:#181818;stroke-width:1;"/></g><!--link LocationController to LocationScore--><g class="link" data-entity-1="ent0012" data-entity-2="ent0008" data-link-type="dependency" data-source-line="121" id="lnk34"><path codeLine="121" d="M205.83,383.1394 C192.87,460.8594 163.6768,636.0711 147.1968,734.9111" fill="none" id="LocationController-to-LocationScore" style="stroke:#181818;stroke-width:1;"/><polygon fill="#181818" points="146.21,740.8294,151.6357,732.6098,147.0323,735.8975,143.7446,731.2941,146.21,740.8294" style="stroke:#181818;stroke-width:1;"/></g><!--link LocationController to ScoreBreakdown--><g class="link" data-entity-1="ent0012" data-entity-2="ent0009" data-link-type="dependency" data-source-line="122" id="lnk35"><path codeLine="122" d="M215.15,383.1894 C221.11,443.3694 236.75,565.3394 272,662.6094 C279.39,682.9994 286.5525,698.6481 297.0125,718.0481" fill="none" id="LocationController-to-ScoreBreakdown" style="stroke:#181818;stroke-width:1;"/><polygon fill="#181818" points="299.86,723.3294,299.1096,713.5091,297.4871,718.9283,292.0679,717.3058,299.86,723.3294" style="stroke:#181818;stroke-width:1;"/></g><!--link NotesController to Note--><g class="link" data-entity-1="ent0013" data-entity-2="ent0010" data-link-type="dependency" data-source-line="123" id="lnk36"><path codeLine="123" d="M1118.13,650.3794 C1092.39,678.7494 1066.0922,707.7262 1039.9922,736.4862" fill="none" id="NotesController-to-Note" style="stroke:#181818;stroke-width:1;"/><polygon fill="#181818" points="1035.96,740.9294,1044.9704,736.9528,1039.3202,737.2268,1039.0462,731.5765,1035.96,740.9294" style="stroke:#181818;stroke-width:1;"/></g><!--link MapController to Location--><g class="link" data-entity-1="ent0014" data-entity-2="ent0006" data-link-type="dependency" data-source-line="124" id="lnk37"><path codeLine="124" d="M813.47,623.6794 C771.81,657.6094 714.0628,704.6411 665.3028,744.3411" fill="none" id="MapController-to-Location" style="stroke:#181818;stroke-width:1;"/><polygon fill="#181818" points="660.65,748.1294,670.1548,745.5488,664.5274,744.9725,665.1037,739.345,660.65,748.1294" style="stroke:#181818;stroke-width:1;"/></g><?plantuml-src ZLLBRzim3BxxLmWvjLjJTDSWC90ssD2XxG9awywAn3f2PScJv7RTiFy-oevToLOUFidanzT7YdB2II3haXftfnbrUFvoGLRQk2SjXIRtcjS8EBkHr5go5BGmj3pFxBDG5SKZOLwnSCw8JUtWbccr5d-0N6LPHTapBO1CXjucv6-MaTQI_B1W5epfMZaK4_m-rYYwvJCYjIfQYQ8bpCWQWtGIAAcGiSWwwceRoFwzHxckhL1WxShe9u7rx29LxMySR1n-1tiOPM61EMrkD1_8DrJniTI055Gn66ieS-85Ve8ejkv6goTH10a4POI8heRNjDM-wbgu_MgrYdDW1h3zVE5cP8c7xwA4E7Wp7qAhBh3S_Hzh5UNS8FMniDBOBZbcGg9BLtifr_L6GXTA5Gbn9QbIQBh0rDDzNzCNuCF4RIWyrljqbKbg6xy3_fgIh7iKy7eAjskcJJ-TrlyaGgHJPxf4KeM3naTCbDVLBfLS2Mwh-ICOAwA123dq_gwHucUkNtiIDvtWv0Gvb1gtHxKLp2Pof8pXb2GK1XIEofwg0CUbuotMSd2u8eQ37jJre5rFjSBpoOKu-ErEkJj-dYf--5Brkn4li3DQIZ1aFcVjJvvt-HNWUcINb3rhf_LyHkw4TVDerlDkGL73jhtfpkA2_Ah1l1qov201HodKd0qeGVCNBNXwa8-Mqm6NRPiIpWU8vVTlu_xPmt5mzNZKqFa5yIt445wvUq-uS0sqdOG4ecKamBpNxoyv4jaab2h4a-oLULp0FQsEqeGOlpiINdUQ4IrzivVKRZUQ6hxoh_1yli4tbbFpbkUZRkqetWziIbjH1JAjnsJ6nfXK-BfFFas8dax9vEhoyiDa-2HdmoTw00-VleD-evdDuWTWWlhfD6zCUaWoydoFGp8ZtJBzhCtGVP194A5PJeUXyOuzWCLycf7CzhJPLvVOALcgqnuxlgzPq6kF65oph6krrqKJ7EGKZBM7nIr9h8YJGQVgMyhtHOh97kwHhkWilfzH-Fy0?></g></svg>