<?plantuml 1.2026.2?><svg xmlns="http://www.w3.org/2000/svg" xmlns:xlink="http://www.w3.org/1999/xlink" contentStyleType="text/css" data-diagram-type="DESCRIPTION" height="950px" preserveAspectRatio="none" style="width:2860px;height:950px;background:#FFFFFF;" version="1.1" viewBox="0 0 2860 950" width="2860px" zoomAndPan="magnify"><title>SmartLocateSG - System Architecture (Master)</title><defs/><g><g class="title" data-source-line="6"><text fill="#000000" font-family="Verdana" font-size="22" font-weight="bold" lengthAdjust="spacing" textLength="582.0225" x="1134.4888" y="37.1182">SmartLocateSG - System Architecture (Master)</text></g><!--cluster Client Layer--><g class="cluster" data-qualified-name="Client Layer" data-source-line="11" id="ent0004"><polygon fill="#FFFFFF" points="163,396.2373,173,386.2373,765,386.2373,765,560.2373,755,570.2373,163,570.2373,163,396.2373" style="stroke:#000000;stroke-width:1;"/><line style="stroke:#000000;stroke-width:1;" x1="755" x2="765" y1="396.2373" y2="386.2373"/><line style="stroke:#000000;stroke-width:1;" x1="163" x2="755" y1="396.2373" y2="396.2373"/><line style="stroke:#000000;stroke-width:1;" x1="755" x2="755" y1="396.2373" y2="570.2373"/><text fill="#000000" font-family="Verdana" font-size="14" font-weight="bold" lengthAdjust="spacing" textLength="93.7754" x="413.1123" y="413.3125">Client Layer</text></g><!--cluster Application Layer--><g class="cluster" data-qualified-name="Application Layer" data-source-line="17" id="ent0008"><polygon fill="#FFFFFF" points="793,396.2373,803,386.2373,1458,386.2373,1458,665.2373,1448,675.2373,793,675.2373,793,396.2373" style="stroke:#000000;stroke-width:1;"/><line style="stroke:#000000;stroke-width:1;" x1="1448" x2="1458" y1="396.2373" y2="386.2373"/><line style="stroke:#000000;stroke-width:1;" x1="793" x2="1448" y1="396.2373" y2="396.2373"/><line style="stroke:#000000;stroke-width:1;" x1="1448" x2="1448" y1="396.2373" y2="675.2373"/><text fill="#000000" font-family="Verdana" font-size="14" font-weight="bold" lengthAdjust="spacing" textLength="136.7803" x="1053.1099" y="413.3125">Application Layer</text></g><!--cluster Domain Services--><g class="cluster" data-qualified-name="Domain Services" data-source-line="25" id="ent0014"><polygon fill="#FFFFFF" points="1500.5,148.2373,1510.5,138.2373,1710.5,138.2373,1710.5,473.2373,1700.5,483.2373,1500.5,483.2373,1500.5,148.2373" style="stroke:#000000;stroke-width:1;"/><line style="stroke:#000000;stroke-width:1;" x1="1700.5" x2="1710.5" y1="148.2373" y2="138.2373"/><line style="stroke:#000000;stroke-width:1;" x1="1500.5" x2="1700.5" y1="148.2373" y2="148.2373"/><line style="stroke:#000000;stroke-width:1;" x1="1700.5" x2="1700.5" y1="148.2373" y2="483.2373"/><text fill="#000000" font-family="Verdana" font-size="14" font-weight="bold" lengthAdjust="spacing" textLength="130.8672" x="1536.0664" y="165.3125">Domain Services</text></g><!--cluster Data Layer--><g class="cluster" data-qualified-name="Data Layer" data-source-line="32" id="ent0019"><polygon fill="#FFFFFF" points="1977,417.2373,1987,407.2373,2843,407.2373,2843,526.2373,2833,536.2373,1977,536.2373,1977,417.2373" style="stroke:#000000;stroke-width:1;"/><line style="stroke:#000000;stroke-width:1;" x1="2833" x2="2843" y1="417.2373" y2="407.2373"/><line style="stroke:#000000;stroke-width:1;" x1="1977" x2="2833" y1="417.2373" y2="417.2373"/><line style="stroke:#000000;stroke-width:1;" x1="2833" x2="2833" y1="417.2373" y2="536.2373"/><text fill="#000000" font-family="Verdana" font-size="14" font-weight="bold" lengthAdjust="spacing" textLength="85.1279" x="2363.436" y="434.3125">Data Layer</text></g><!--cluster External Providers (A05)--><g class="cluster" data-qualified-name="External Providers .A05." data-source-line="37" id="ent0022"><path d="M1504.542,635.4329 C1509.6407,627.2809 1517.9188,625.0194 1523.8235,634.5544 C1528.2355,624.8842 1537.134,622.2335 1544.8641,630.7064 C1550.4575,620.2338 1556.2697,620.6768 1563.8309,628.6871 C1569.5288,618.3462 1580.3374,616.3885 1587.3793,627.1901 C1593.1413,617.397 1599.9905,616.8469 1606.282,626.6802 C1613.6252,615.6581 1621.7811,615.3301 1628.1901,627.5604 C1634.3796,618.5061 1641.0741,617.8059 1647.4034,627.4166 C1655.6228,619.8085 1665.0219,620.7969 1668.4914,632.5818 C1676.1277,619.7237 1685.1071,621.8282 1692.8494,632.4719 C1704.3194,622.8255 1712.8326,627.1723 1717,640.2373 C1719.4449,640.0596 1720.1401,641.174 1719.2962,643.391 C1727.6106,650.417 1726.1948,656.5892 1718.0071,662.5022 C1726.8468,666.231 1728.1869,675.6316 1720.4862,681.5169 C1728.9063,688.1865 1728.7522,694.2633 1719.753,700.2513 C1730.6759,707.773 1731.0102,714.8474 1719.0644,721.6326 C1728.1209,725.5176 1728.1558,732.694 1721.7416,738.9682 C1733.0963,744.8402 1730.4677,755.7016 1721.1196,760.9888 C1729.6281,766.1652 1731.5843,773.65 1721.6728,779.3805 C1731.3289,784.8596 1731.0641,795.2594 1722.3506,801.3064 C1732.0732,808.4339 1729.2026,816.968 1719.5236,821.3605 C1727.3492,827.2339 1730.0553,832.8514 1720.3978,839.5643 C1729.0937,845.0276 1728.9173,854.3154 1719.1435,858.5591 C1728.6363,864.9272 1730.511,871.3355 1720.0888,878.641 C1728.9778,886.4623 1729.5256,892.885 1718.5288,899.197 C1728.3866,909.9515 1723.3793,920.7267 1710,923.2373 C1712.5448,923.2771 1713.1974,925.1798 1711.7425,927.0483 C1706.0783,936.4921 1698.6331,939.0291 1691.574,928.4535 C1684.974,938.2962 1675.9881,938.0337 1668.8964,929.0455 C1662.3118,938.202 1656.0893,938.9727 1649.3383,929.2175 C1642.7576,939.9353 1635.658,939.3374 1628.906,929.3869 C1624.1745,940.5965 1614.5139,940.5862 1607.8449,931.3862 C1602.7192,943.2788 1593.7975,941.1433 1587.0763,933.0437 C1578.1175,943.0916 1570.8662,942.8547 1564.4913,930.445 C1556.2801,938.0578 1549.221,936.5286 1544.2284,926.7047 C1536.5628,937.2223 1527.868,935.1003 1521.939,924.8417 C1508.7048,934.4948 1499.7671,930.8301 1494,916.2373 C1494.8172,915.0767 1495.8004,915.3967 1496.3795,916.4888 C1487.9229,911.646 1488.4332,904.5537 1495.4547,898.8973 C1486.6474,892.6249 1486.3797,884.6894 1496.7706,879.7355 C1484.6913,872.2447 1484.3399,865.3969 1496.1454,857.2421 C1487.2869,851.8354 1485.5227,844.828 1494.1671,837.6535 C1486.4109,831.1067 1486.1696,823.2591 1496.6101,819.1095 C1487.3752,816.1051 1486.4849,807.4521 1493.0697,801.3024 C1481.9368,793.5114 1481.502,786.8336 1493.4108,779.4015 C1485.2589,772.4084 1484.0388,764.0695 1495.1102,758.6508 C1484.3902,753.0694 1486.5212,745.3085 1494.7061,739.3318 C1484.4199,733.9932 1485.5018,725.8798 1493.7945,719.6794 C1485.5492,714.5289 1484.2763,705.8935 1494.1762,701.116 C1485.8826,695.1132 1487.1241,686.5767 1495.9965,682.2283 C1486.5986,676.0074 1483.5305,668.9995 1493.9987,660.9163 C1482.3009,648.0596 1484.4267,638.9429 1501,633.2373 C1502.9291,632.1319 1504.6484,633.2547 1504.542,635.4329" fill="#FFFFFF" style="stroke:#000000;stroke-width:1;"/><text fill="#000000" font-family="Verdana" font-size="14" font-weight="bold" lengthAdjust="spacing" textLength="196.3008" x="1507.3496" y="652.3125">External Providers (A05)</text></g><!--cluster AI Provider--><g class="cluster" data-qualified-name="AI Provider" data-source-line="44" id="ent0027"><path d="M2030.8005,205.1348 C2034.2239,200.1019 2037.585,198.5018 2042.0962,203.9641 C2046.0466,198.9503 2050.351,198.9227 2053.6972,204.6186 C2055.673,198.1191 2061.3045,198.3817 2065.2474,202.4734 C2068.51,196.7513 2072.1947,195.7565 2076.67,201.2369 C2079.9078,196.1635 2085.0854,196.2973 2087.5897,201.9813 C2090.5469,196.5293 2094.1789,196.9513 2097.671,201.4388 C2101.9318,196.567 2106.9314,196.848 2110.3151,202.4933 C2113.9416,197.9328 2119.5802,198.554 2121.8729,204.0294 C2125.2193,198.6894 2128.8215,198.1008 2132.4214,203.7869 C2137.3119,198.501 2140.7015,200.5618 2143.6829,205.825 C2150.4052,208.8227 2151.7719,213.2488 2145.6581,218.2819 C2150.6488,221.9488 2150.7822,226.5019 2146.0231,230.4609 C2152.2753,234.1208 2151.8471,239.3848 2145.792,242.8145 C2152.3778,246.1214 2152.4908,250.9645 2146.4959,254.9983 C2152.2471,258.5645 2150.5621,263.9074 2145.531,266.575 C2151.7724,270.6885 2150.2787,274.8653 2145.1287,278.5976 C2143.14,285.1835 2138.6685,286.4808 2133.5438,281.8309 C2130.3395,288.1159 2126.2435,287.4166 2122.3918,282.474 C2119.2043,288.3395 2114.6898,287.9484 2110.9678,283.0409 C2107.9857,288.8971 2103.596,289.4984 2099.146,284.6643 C2096.1444,291.5865 2092.3588,293.4028 2086.1224,288.1144 C2082.8638,291.7393 2078.1765,291.6631 2076.4392,286.448 C2071.7983,290.5347 2066.9972,290.1862 2064.5924,283.8952 C2060.2028,288.5752 2056.6299,287.6109 2053.7363,282.274 C2048.8948,287.8984 2043.3025,286.9395 2040.4272,280.1637 C2037.1893,284.3912 2032.368,285.1187 2029.873,279.3771 C2023.2824,276.3121 2022.6482,270.2229 2029.3819,266.644 C2023.7583,263.5802 2023.301,259.8069 2027.2372,254.9846 C2021.2495,250.7288 2021.4128,246.9346 2027.8839,243.3727 C2021.1252,239.3578 2021.3176,234.7975 2026.9944,229.958 C2022.0675,225.4869 2021.4798,219.7232 2028.8365,216.998 C2023.0886,212.7944 2024.94,207.4166 2030.8005,205.1348" fill="#FFFFFF" style="stroke:#000000;stroke-width:1;"/><text fill="#000000" font-family="Verdana" font-size="14" font-weight="bold" lengthAdjust="spacing" textLength="90.0566" x="2040.9717" y="223.3125">AI Provider</text></g><!--entity SPA--><g class="entity" data-qualified-name="Client Layer.SPA" data-source-line="12" id="ent0005"><rect fill="#FFFFFF" height="54.0293" rx="2.5" ry="2.5" style="stroke:#000000;stroke-width:1;" width="136.457" x="179" y="464.2373"/><text fill="#000000" font-family="Verdana" font-size="14" lengthAdjust="spacing" textLength="71.7979" x="189" y="488.3125">React SPA</text><text fill="#000000" font-family="Verdana" font-size="14" lengthAdjust="spacing" textLength="116.457" x="189" y="505.3271">(frontend/client)</text></g><!--entity AuthCtx--><g class="entity" data-qualified-name="Client Layer.AuthCtx" data-source-line="13" id="ent0006"><rect fill="#FFFFFF" height="37.0146" rx="2.5" ry="2.5" style="stroke:#000000;stroke-width:1;" width="112.5176" x="505.5" y="516.7373"/><text fill="#000000" font-family="Verdana" font-size="14" lengthAdjust="spacing" textLength="92.5176" x="515.5" y="540.8125">Auth Context</text></g><!--entity Pages--><g class="entity" data-qualified-name="Client Layer.Pages" data-source-line="14" id="ent0007"><rect fill="#FFFFFF" height="54.0293" rx="2.5" ry="2.5" style="stroke:#000000;stroke-width:1;" width="373.5205" x="375" y="427.2373"/><text fill="#000000" font-family="Verdana" font-size="14" lengthAdjust="spacing" textLength="96.1885" x="385" y="451.3125">Page Modules</text><text fill="#000000" font-family="Verdana" font-size="14" lengthAdjust="spacing" textLength="353.5205" x="385" y="468.3271">Dashboard/Profiles/Map/Portfolio/Compare/Admin</text></g><!--entity API--><g class="entity" data-qualified-name="Application Layer.API" data-source-line="18" id="ent0009"><rect fill="#FFFFFF" height="54.0293" rx="2.5" ry="2.5" style="stroke:#000000;stroke-width:1;" width="154.9961" x="809" y="427.2373"/><text fill="#000000" font-family="Verdana" font-size="14" lengthAdjust="spacing" textLength="134.9961" x="819" y="451.3125">Express API Server</text><text fill="#000000" font-family="Verdana" font-size="14" lengthAdjust="spacing" textLength="122.9717" x="819" y="468.3271">(frontend/server)</text></g><!--entity Routes--><g class="entity" data-qualified-name="Application Layer.Routes" data-source-line="19" id="ent0010"><rect fill="#FFFFFF" height="54.0293" rx="2.5" ry="2.5" style="stroke:#000000;stroke-width:1;" width="127.8301" x="1024" y="427.2373"/><text fill="#000000" font-family="Verdana" font-size="14" lengthAdjust="spacing" textLength="107.8301" x="1034" y="451.3125">Route Handlers</text><text fill="#000000" font-family="Verdana" font-size="14" lengthAdjust="spacing" textLength="62.3848" x="1034" y="468.3271">routes.ts</text></g><!--entity Storage--><g class="entity" data-qualified-name="Application Layer.Storage" data-source-line="20" id="ent0011"><rect fill="#FFFFFF" height="54.0293" rx="2.5" ry="2.5" style="stroke:#000000;stroke-width:1;" width="159.4463" x="1247.5" y="516.2373"/><text fill="#000000" font-family="Verdana" font-size="14" lengthAdjust="spacing" textLength="139.4463" x="1257.5" y="540.3125">Storage Abstraction</text><text fill="#000000" font-family="Verdana" font-size="14" lengthAdjust="spacing" textLength="70.6563" x="1257.5" y="557.3271">storage.ts</text></g><!--entity MapSvc--><g class="entity" data-qualified-name="Application Layer.MapSvc" data-source-line="21" id="ent0012"><rect fill="#FFFFFF" height="54.0293" rx="2.5" ry="2.5" style="stroke:#000000;stroke-width:1;" width="143.5391" x="1255" y="605.2373"/><text fill="#000000" font-family="Verdana" font-size="14" lengthAdjust="spacing" textLength="123.5391" x="1265" y="629.3125">Map Data Service</text><text fill="#000000" font-family="Verdana" font-size="14" lengthAdjust="spacing" textLength="86.0645" x="1265" y="646.3271">map-data.ts</text></g><!--entity ExplainSvc--><g class="entity" data-qualified-name="Application Layer.ExplainSvc" data-source-line="22" id="ent0013"><rect fill="#FFFFFF" height="54.0293" rx="2.5" ry="2.5" style="stroke:#000000;stroke-width:1;" width="229.7402" x="1212" y="427.2373"/><text fill="#000000" font-family="Verdana" font-size="14" lengthAdjust="spacing" textLength="209.7402" x="1222" y="451.3125">Explanation Feedback Service</text><text fill="#000000" font-family="Verdana" font-size="14" lengthAdjust="spacing" textLength="168.875" x="1222" y="468.3271">explanation-feedback.ts</text></g><!--entity Scoring--><g class="entity" data-qualified-name="Domain Services.Scoring" data-source-line="26" id="ent0015"><rect fill="#FFFFFF" height="37.0146" rx="2.5" ry="2.5" style="stroke:#000000;stroke-width:1;" width="125.1572" x="1543" y="429.7373"/><text fill="#000000" font-family="Verdana" font-size="14" lengthAdjust="spacing" textLength="105.1572" x="1553" y="453.8125">Scoring Engine</text></g><!--entity ExplainAI--><g class="entity" data-qualified-name="Domain Services.ExplainAI" data-source-line="27" id="ent0016"><rect fill="#FFFFFF" height="54.0293" rx="2.5" ry="2.5" style="stroke:#000000;stroke-width:1;" width="177.7803" x="1516.5" y="179.2373"/><text fill="#000000" font-family="Verdana" font-size="14" lengthAdjust="spacing" textLength="157.7803" x="1526.5" y="203.3125">Explanation Generator</text><text fill="#000000" font-family="Verdana" font-size="14" lengthAdjust="spacing" textLength="137.0947" x="1526.5" y="220.3271">(Gemini + fallback)</text></g><!--entity Chatbot--><g class="entity" data-qualified-name="Domain Services.Chatbot" data-source-line="28" id="ent0017"><rect fill="#FFFFFF" height="54.0293" rx="2.5" ry="2.5" style="stroke:#000000;stroke-width:1;" width="133.9688" x="1538.5" y="268.2373"/><text fill="#000000" font-family="Verdana" font-size="14" lengthAdjust="spacing" textLength="111.8633" x="1548.5" y="292.3125">Chatbot Service</text><text fill="#000000" font-family="Verdana" font-size="14" lengthAdjust="spacing" textLength="113.9688" x="1548.5" y="309.3271">(context-aware)</text></g><!--entity ETL--><g class="entity" data-qualified-name="Domain Services.ETL" data-source-line="29" id="ent0018"><rect fill="#FFFFFF" height="37.0146" rx="2.5" ry="2.5" style="stroke:#000000;stroke-width:1;" width="132.7588" x="1539" y="357.7373"/><text fill="#000000" font-family="Verdana" font-size="14" lengthAdjust="spacing" textLength="112.7588" x="1549" y="381.8125">ETL Coordinator</text></g><!--entity DB--><g class="entity" data-qualified-name="Data Layer.DB" data-source-line="33" id="ent0020"><path d="M1993,471.2373 C1993,461.2373 2085.8481,461.2373 2085.8481,461.2373 C2085.8481,461.2373 2178.6963,461.2373 2178.6963,471.2373 L2178.6963,497.252 C2178.6963,507.252 2085.8481,507.252 2085.8481,507.252 C2085.8481,507.252 1993,507.252 1993,497.252 L1993,471.2373" fill="#FFFFFF" style="stroke:#000000;stroke-width:1;"/><path d="M1993,471.2373 C1993,481.2373 2085.8481,481.2373 2085.8481,481.2373 C2085.8481,481.2373 2178.6963,481.2373 2178.6963,471.2373" fill="none" style="stroke:#000000;stroke-width:1;"/><text fill="#000000" font-family="Verdana" font-size="14" lengthAdjust="spacing" textLength="165.6963" x="2003" y="499.3125">PostgreSQL / Supabase</text></g><!--entity Tables--><g class="entity" data-qualified-name="Data Layer.Tables" data-source-line="34" id="ent0021"><rect fill="#FFFFFF" height="71.0439" rx="2.5" ry="2.5" style="stroke:#000000;stroke-width:1;" width="364.3809" x="2463" y="448.7373"/><text fill="#000000" font-family="Verdana" font-size="14" lengthAdjust="spacing" textLength="45.2334" x="2473" y="472.8125">Tables</text><text fill="#000000" font-family="Verdana" font-size="14" lengthAdjust="spacing" textLength="293.0225" x="2473" y="489.8271">users, business_profiles, candidate_sites,</text><text fill="#000000" font-family="Verdana" font-size="14" lengthAdjust="spacing" textLength="344.3809" x="2473" y="506.8418">site_scores, planning_areas, area_demographics</text></g><!--entity OneMap--><g class="entity" data-qualified-name="External Providers .A05..OneMap" data-source-line="38" id="ent0023"><rect fill="#FFFFFF" height="37.0146" rx="2.5" ry="2.5" style="stroke:#000000;stroke-width:1;" width="153.3555" x="1529" y="661.7373"/><text fill="#000000" font-family="Verdana" font-size="14" lengthAdjust="spacing" textLength="133.3555" x="1539" y="685.8125">OneMap / SingStat</text></g><!--entity LTA--><g class="entity" data-qualified-name="External Providers .A05..LTA" data-source-line="39" id="ent0024"><rect fill="#FFFFFF" height="37.0146" rx="2.5" ry="2.5" style="stroke:#000000;stroke-width:1;" width="111.9229" x="1549.5" y="733.7373"/><text fill="#000000" font-family="Verdana" font-size="14" lengthAdjust="spacing" textLength="91.9229" x="1559.5" y="757.8125">LTA DataMall</text></g><!--entity URA--><g class="entity" data-qualified-name="External Providers .A05..URA" data-source-line="40" id="ent0025"><rect fill="#FFFFFF" height="37.0146" rx="2.5" ry="2.5" style="stroke:#000000;stroke-width:1;" width="125.6357" x="1542.5" y="805.7373"/><text fill="#000000" font-family="Verdana" font-size="14" lengthAdjust="spacing" textLength="105.6357" x="1552.5" y="829.8125">URA Space API</text></g><!--entity Google--><g class="entity" data-qualified-name="External Providers .A05..Google" data-source-line="41" id="ent0026"><rect fill="#FFFFFF" height="37.0146" rx="2.5" ry="2.5" style="stroke:#000000;stroke-width:1;" width="207.127" x="1502" y="877.7373"/><text fill="#000000" font-family="Verdana" font-size="14" lengthAdjust="spacing" textLength="187.127" x="1512" y="901.8125">Google Places / Geocoding</text></g><!--entity Gemini--><g class="entity" data-qualified-name="AI Provider.Gemini" data-source-line="45" id="ent0028"><rect fill="#FFFFFF" height="37.0146" rx="2.5" ry="2.5" style="stroke:#000000;stroke-width:1;" width="98.1826" x="2037" y="232.7373"/><text fill="#000000" font-family="Verdana" font-size="14" lengthAdjust="spacing" textLength="78.1826" x="2047" y="256.8125">Gemini API</text></g><!--entity User--><g class="entity" data-qualified-name="User" data-source-line="8" id="ent0002"><ellipse cx="64.7715" cy="387.7373" fill="#FFFFFF" rx="8" ry="8" style="stroke:#000000;stroke-width:1;"/><path d="M64.7715,395.7373 L64.7715,422.7373 M51.7715,403.7373 L77.7715,403.7373 M64.7715,422.7373 L51.7715,437.7373 M64.7715,422.7373 L77.7715,437.7373" fill="none" style="stroke:#000000;stroke-width:1;"/><text fill="#000000" font-family="Verdana" font-size="14" lengthAdjust="spacing" textLength="31.8555" x="11" y="453.8125">User</text><text fill="#000000" font-family="Verdana" font-size="14" lengthAdjust="spacing" textLength="107.543" x="11" y="470.8271">(A01/A02/A03)</text></g><!--entity Admin--><g class="entity" data-qualified-name="Admin" data-source-line="9" id="ent0003"><ellipse cx="64.8057" cy="517.7373" fill="#FFFFFF" rx="8" ry="8" style="stroke:#000000;stroke-width:1;"/><path d="M64.8057,525.7373 L64.8057,552.7373 M51.8057,533.7373 L77.8057,533.7373 M64.8057,552.7373 L51.8057,567.7373 M64.8057,552.7373 L77.8057,567.7373" fill="none" style="stroke:#000000;stroke-width:1;"/><text fill="#000000" font-family="Verdana" font-size="14" lengthAdjust="spacing" textLength="44.6113" x="42.5" y="583.8125">Admin</text><text fill="#000000" font-family="Verdana" font-size="14" lengthAdjust="spacing" textLength="40.0859" x="42.5" y="600.8271">(A04)</text></g><g class="entity" data-qualified-name="GMN53" data-source-line="77" id="ent0054"><path d="M1769,58.7373 L1769,179.3325 A0,0 0 0 0 1769,179.3325 L2082,179.3325 L2086,232.6773 L2090,179.3325 L2402.9741,179.3325 A0,0 0 0 0 2402.9741,179.3325 L2402.9741,68.7373 L2392.9741,58.7373 L1769,58.7373 A0,0 0 0 0 1769,58.7373" fill="#FFFFFF" style="stroke:#000000;stroke-width:1;"/><path d="M2392.9741,58.7373 L2392.9741,68.7373 L2402.9741,68.7373 L2392.9741,58.7373" fill="#FFFFFF" style="stroke:#000000;stroke-width:1;"/><text fill="#000000" font-family="Verdana" font-size="13" lengthAdjust="spacing" textLength="298.2192" x="1775" y="76.8071">Architecture style: layered modular monolith.</text><text fill="#000000" font-family="Verdana" font-size="13" lengthAdjust="spacing" textLength="549.3516" x="1775" y="92.6064">Access control boundary: authenticated user ID scope on profile and site resources.</text><text fill="#000000" font-family="Verdana" font-size="13" lengthAdjust="spacing" textLength="477.4263" x="1775" y="108.4058">Persistence: repository-like storage abstraction over Supabase/Postgres.</text><text fill="#000000" font-family="Verdana" font-size="13" lengthAdjust="spacing" textLength="4.5703" x="1775" y="124.2051">&#160;</text><text fill="#000000" font-family="Verdana" font-size="13" lengthAdjust="spacing" textLength="155.2827" x="1775" y="140.0044">Integration boundaries:</text><text fill="#000000" font-family="Verdana" font-size="13" lengthAdjust="spacing" textLength="612.9741" x="1775" y="155.8037">- External data providers feed map overlays, transport layers, rental and competition signals.</text><text fill="#000000" font-family="Verdana" font-size="13" lengthAdjust="spacing" textLength="543.5625" x="1775" y="171.603">- AI provider supports explanation and chatbot responses with local fallback paths.</text></g><!--link User to SPA--><g class="link" data-entity-1="ent0002" data-entity-2="ent0005" data-link-type="dependency" data-source-line="48" id="lnk29"><path d="M119.03,445.3873 C137.8,452.1673 153.5273,457.8376 173.3073,464.9876" fill="none" id="User-to-SPA" style="stroke:#000000;stroke-width:1;"/><polygon fill="#000000" points="178.95,467.0273,171.8458,460.206,174.2478,465.3276,169.1262,467.7295,178.95,467.0273" style="stroke:#000000;stroke-width:1;"/></g><!--link Admin to SPA--><g class="link" data-entity-1="ent0003" data-entity-2="ent0005" data-link-type="dependency" data-source-line="49" id="lnk30"><path d="M87.71,548.3973 C110.25,540.2573 140.9966,529.155 173.2066,517.525" fill="none" id="Admin-to-SPA" style="stroke:#000000;stroke-width:1;"/><polygon fill="#000000" points="178.85,515.4873,169.0265,514.7815,174.1472,517.1853,171.7433,522.306,178.85,515.4873" style="stroke:#000000;stroke-width:1;"/></g><!--link SPA to AuthCtx--><g class="link" data-entity-1="ent0005" data-entity-2="ent0006" data-link-type="dependency" data-source-line="50" id="lnk31"><path d="M315.15,500.6773 C371.91,508.6573 446.3185,519.1118 499.5085,526.5918" fill="none" id="SPA-to-AuthCtx" style="stroke:#000000;stroke-width:1;"/><polygon fill="#000000" points="505.45,527.4273,497.0947,522.213,500.4987,526.731,495.9807,530.135,505.45,527.4273" style="stroke:#000000;stroke-width:1;"/></g><!--link SPA to Pages--><g class="link" data-entity-1="ent0005" data-entity-2="ent0007" data-link-type="dependency" data-source-line="51" id="lnk32"><path d="M315.15,483.2973 C333.2,481.1673 347.6813,479.4503 368.8713,476.9503" fill="none" id="SPA-to-Pages" style="stroke:#000000;stroke-width:1;"/><polygon fill="#000000" points="374.83,476.2473,365.4233,473.3294,369.8644,476.8331,366.3607,481.2743,374.83,476.2473" style="stroke:#000000;stroke-width:1;"/></g><!--link Pages to API--><g class="link" data-entity-1="ent0007" data-entity-2="ent0009" data-link-type="dependency" data-source-line="52" id="lnk33"><path d="M749.2,454.2373 C770.15,454.2373 784.52,454.2373 802.86,454.2373" fill="none" id="Pages-to-API" style="stroke:#000000;stroke-width:1;"/><polygon fill="#000000" points="808.86,454.2373,799.86,450.2373,803.86,454.2373,799.86,458.2373,808.86,454.2373" style="stroke:#000000;stroke-width:1;"/></g><!--link API to Routes--><g class="link" data-entity-1="ent0009" data-entity-2="ent0010" data-link-type="dependency" data-source-line="53" id="lnk34"><path d="M964.06,454.2373 C983.84,454.2373 998.91,454.2373 1017.91,454.2373" fill="none" id="API-to-Routes" style="stroke:#000000;stroke-width:1;"/><polygon fill="#000000" points="1023.91,454.2373,1014.91,450.2373,1018.91,454.2373,1014.91,458.2373,1023.91,454.2373" style="stroke:#000000;stroke-width:1;"/></g><!--link Routes to Storage--><g class="link" data-entity-1="ent0010" data-entity-2="ent0011" data-link-type="dependency" data-source-line="54" id="lnk35"><path d="M1152.2,477.9673 C1183.46,489.7073 1215.733,501.8281 1248.143,513.9981" fill="none" id="Routes-to-Storage" style="stroke:#000000;stroke-width:1;"/><polygon fill="#000000" points="1253.76,516.1073,1246.7406,509.1988,1249.0791,514.3496,1243.9283,516.6882,1253.76,516.1073" style="stroke:#000000;stroke-width:1;"/></g><!--link Routes to MapSvc--><g class="link" data-entity-1="ent0010" data-entity-2="ent0012" data-link-type="dependency" data-source-line="55" id="lnk36"><path d="M1108.14,481.3273 C1130.22,510.8673 1169.05,557.8373 1212,587.2373 C1224.99,596.1273 1234.465,601.3314 1249.235,607.5114" fill="none" id="Routes-to-MapSvc" style="stroke:#000000;stroke-width:1;"/><polygon fill="#000000" points="1254.77,609.8273,1248.0114,602.6634,1250.1575,607.8974,1244.9235,610.0434,1254.77,609.8273" style="stroke:#000000;stroke-width:1;"/></g><!--link Routes to ExplainSvc--><g class="link" data-entity-1="ent0010" data-entity-2="ent0013" data-link-type="dependency" data-source-line="56" id="lnk37"><path d="M1152.2,454.2373 C1170.58,454.2373 1185.24,454.2373 1205.73,454.2373" fill="none" id="Routes-to-ExplainSvc" style="stroke:#000000;stroke-width:1;"/><polygon fill="#000000" points="1211.73,454.2373,1202.73,450.2373,1206.73,454.2373,1202.73,458.2373,1211.73,454.2373" style="stroke:#000000;stroke-width:1;"/></g><!--link MapSvc to Scoring--><g class="link" data-entity-1="ent0012" data-entity-2="ent0015" data-link-type="dependency" data-source-line="58" id="lnk38"><path d="M1399.11,620.0073 C1422.33,613.3173 1447.01,603.0173 1466,587.2373 C1474.57,580.1173 1471.15,574.0273 1478,565.2373 C1508.52,526.0673 1547.9448,492.2204 1575.2048,470.6504" fill="none" id="MapSvc-to-Scoring" style="stroke:#000000;stroke-width:1;"/><polygon fill="#000000" points="1579.91,466.9273,1570.3702,469.3751,1575.989,470.0299,1575.3343,475.6487,1579.91,466.9273" style="stroke:#000000;stroke-width:1;"/></g><!--link Routes to ExplainAI--><g class="link" data-entity-1="ent0010" data-entity-2="ent0016" data-link-type="dependency" data-source-line="59" id="lnk39"><path d="M1105.23,427.1873 C1125.98,394.9673 1164.9,341.7973 1212,312.2373 C1306.02,253.2473 1426.6875,227.5559 1510.3775,215.8859" fill="none" id="Routes-to-ExplainAI" style="stroke:#000000;stroke-width:1;"/><polygon fill="#000000" points="1516.32,215.0573,1506.8538,212.3386,1511.3679,215.7478,1507.9587,220.2619,1516.32,215.0573" style="stroke:#000000;stroke-width:1;"/></g><!--link Routes to Chatbot--><g class="link" data-entity-1="ent0010" data-entity-2="ent0017" data-link-type="dependency" data-source-line="60" id="lnk40"><path d="M1119.65,427.1873 C1143.29,407.7873 1177.64,382.6473 1212,368.2373 C1320.66,322.6773 1452.1094,305.9191 1532.1794,299.4691" fill="none" id="Routes-to-Chatbot" style="stroke:#000000;stroke-width:1;"/><polygon fill="#000000" points="1538.16,298.9873,1528.8679,295.7229,1533.1761,299.3888,1529.5102,303.697,1538.16,298.9873" style="stroke:#000000;stroke-width:1;"/></g><!--link Routes to ETL--><g class="link" data-entity-1="ent0010" data-entity-2="ent0018" data-link-type="dependency" data-source-line="61" id="lnk41"><path d="M1152.19,427.4573 C1171.12,420.4473 1192.13,413.6273 1212,409.2373 C1325.02,384.2873 1454.161,378.0087 1532.771,376.5487" fill="none" id="Routes-to-ETL" style="stroke:#000000;stroke-width:1;"/><polygon fill="#000000" points="1538.77,376.4373,1529.6973,372.6051,1533.7709,376.5302,1529.8458,380.6037,1538.77,376.4373" style="stroke:#000000;stroke-width:1;"/></g><!--link Storage to DB--><g class="link" data-entity-1="ent0011" data-entity-2="ent0020" data-link-type="dependency" data-source-line="63" id="lnk42"><path d="M1406.52,537.1173 C1547.4,526.1373 1836.4382,503.6138 1986.7382,491.8938" fill="none" id="Storage-to-DB" style="stroke:#000000;stroke-width:1;"/><polygon fill="#000000" points="1992.72,491.4273,1983.4363,488.1391,1987.7351,491.816,1984.0582,496.1149,1992.72,491.4273" style="stroke:#000000;stroke-width:1;"/></g><!--link MapSvc to DB--><g class="link" data-entity-1="ent0012" data-entity-2="ent0020" data-link-type="dependency" data-source-line="64" id="lnk43"><path d="M1399.22,618.3173 C1536.96,591.3873 1833.8615,533.3388 1986.8115,503.4288" fill="none" id="MapSvc-to-DB" style="stroke:#000000;stroke-width:1;"/><polygon fill="#000000" points="1992.7,502.2773,1983.0996,500.0789,1987.7929,503.2369,1984.635,507.9302,1992.7,502.2773" style="stroke:#000000;stroke-width:1;"/></g><!--link Scoring to DB--><g class="link" data-entity-1="ent0015" data-entity-2="ent0020" data-link-type="dependency" data-source-line="65" id="lnk44"><path d="M1668.08,452.8673 C1750.49,459.0673 1891.3569,469.6673 1986.9469,476.8573" fill="none" id="Scoring-to-DB" style="stroke:#000000;stroke-width:1;"/><polygon fill="#000000" points="1992.93,477.3073,1984.2554,472.6435,1987.9441,476.9323,1983.6553,480.621,1992.93,477.3073" style="stroke:#000000;stroke-width:1;"/></g><!--link ETL to DB--><g class="link" data-entity-1="ent0018" data-entity-2="ent0020" data-link-type="dependency" data-source-line="66" id="lnk45"><path d="M1672.03,391.0273 C1755.09,409.7773 1892.8973,440.876 1986.9773,462.116" fill="none" id="ETL-to-DB" style="stroke:#000000;stroke-width:1;"/><polygon fill="#000000" points="1992.83,463.4373,1984.9318,457.5535,1987.9528,462.3362,1983.1701,465.3571,1992.83,463.4373" style="stroke:#000000;stroke-width:1;"/></g><!--link DB to Tables--><g class="link" data-entity-1="ent0020" data-entity-2="ent0021" data-link-type="dependency" data-source-line="67" id="lnk46"><path d="M2179.29,484.2373 C2256.2,484.2373 2362.06,484.2373 2456.77,484.2373" fill="none" id="DB-to-Tables" style="stroke:#000000;stroke-width:1;"/><polygon fill="#000000" points="2462.77,484.2373,2453.77,480.2373,2457.77,484.2373,2453.77,488.2373,2462.77,484.2373" style="stroke:#000000;stroke-width:1;"/></g><!--link MapSvc to OneMap--><g class="link" data-entity-1="ent0012" data-entity-2="ent0023" data-link-type="dependency" data-source-line="69" id="lnk47"><path d="M1399.21,644.5973 C1438.89,651.4873 1482.3783,659.0415 1522.7783,666.0515" fill="none" id="MapSvc-to-OneMap" style="stroke:#000000;stroke-width:1;"/><polygon fill="#000000" points="1528.69,667.0773,1520.5063,661.5975,1523.7636,666.2225,1519.1387,669.4798,1528.69,667.0773" style="stroke:#000000;stroke-width:1;"/></g><!--link MapSvc to LTA--><g class="link" data-entity-1="ent0012" data-entity-2="ent0024" data-link-type="dependency" data-source-line="70" id="lnk48"><path d="M1369.99,659.2473 C1399.35,677.2573 1439.96,700.4273 1478,716.2373 C1500.77,725.6973 1521.0387,732.0559 1543.5787,738.0059" fill="none" id="MapSvc-to-LTA" style="stroke:#000000;stroke-width:1;"/><polygon fill="#000000" points="1549.38,739.5373,1541.699,733.3727,1544.5456,738.2611,1539.6572,741.1077,1549.38,739.5373" style="stroke:#000000;stroke-width:1;"/></g><!--link MapSvc to URA--><g class="link" data-entity-1="ent0012" data-entity-2="ent0025" data-link-type="dependency" data-source-line="71" id="lnk49"><path d="M1346.84,659.3373 C1372.52,694.2473 1421.8,754.4673 1478,788.2373 C1497.47,799.9373 1515.1064,806.5033 1536.4964,811.9633" fill="none" id="MapSvc-to-URA" style="stroke:#000000;stroke-width:1;"/><polygon fill="#000000" points="1542.31,813.4473,1534.5789,807.3456,1537.4653,812.2107,1532.6003,815.0971,1542.31,813.4473" style="stroke:#000000;stroke-width:1;"/></g><!--link MapSvc to Google--><g class="link" data-entity-1="ent0012" data-entity-2="ent0026" data-link-type="dependency" data-source-line="72" id="lnk50"><path d="M1338.3,659.2673 C1357.95,707.1873 1405.42,806.9773 1478,860.2373 C1487.76,867.3973 1493.3271,870.914 1504.8571,875.514" fill="none" id="MapSvc-to-Google" style="stroke:#000000;stroke-width:1;"/><polygon fill="#000000" points="1510.43,877.7373,1503.5529,870.6871,1505.786,875.8845,1500.5885,878.1175,1510.43,877.7373" style="stroke:#000000;stroke-width:1;"/></g><!--link ExplainAI to Gemini--><g class="link" data-entity-1="ent0016" data-entity-2="ent0028" data-link-type="dependency" data-source-line="73" id="lnk51"><path d="M1694.54,214.5173 C1795.36,223.9973 1950.8963,238.6258 2030.8963,246.1458" fill="none" id="ExplainAI-to-Gemini" style="stroke:#000000;stroke-width:1;"/><polygon fill="#000000" points="2036.87,246.7073,2028.2839,241.8826,2031.8919,246.2394,2027.5352,249.8475,2036.87,246.7073" style="stroke:#000000;stroke-width:1;"/></g><!--link Chatbot to Gemini--><g class="link" data-entity-1="ent0017" data-entity-2="ent0028" data-link-type="dependency" data-source-line="74" id="lnk52"><path d="M1672.53,289.1673 C1770.21,280.1873 1944.9452,264.117 2031.0252,256.197" fill="none" id="Chatbot-to-Gemini" style="stroke:#000000;stroke-width:1;"/><polygon fill="#000000" points="2037,255.6473,2027.6714,252.4887,2032.021,256.1054,2028.4043,260.4551,2037,255.6473" style="stroke:#000000;stroke-width:1;"/></g><?plantuml-src TLPDR-Cs4BthLqnzIj0utdvTSYYWjRTk00Tre-mjG41BOvk8H0eabOrHx7_l6rAovHXxi2qEvtlcFVcdiEU6gQsLDfb_rQPLJZLKsgQrXaqemg5cSbm6PNOrZrHQLRwg7NzKg7aRA5XoUhSFL6cvqTPaMT01YaMZN5ZPKWKkbZIbuk03DvIxSgy3L3l7TFMW87JNMQRAO1rDldfsp-Og__JBBF_qApw_NKz8UHBve9DNZJPHwVTq6GLPPcp5D9dN6iNGIXtOJUY_Z4uLqkIHuOEATGxphRCciAbcPRH8hd1rRf5tOKzpqNmFAHW4y_1-hhL6U-Z1LbtD_jaibDzlh7BLREtiLaCsUr3jR6rTsDfQszaSbihnB2OUlOe3dtqVYiZRjjRe7DhvWqg-lBUEFT9PtrF1xYssxLYIZvA-E-lx3qsmNM3wMvcgPeTqdPpzRV1HFTxwSui2VPSAyuqFJiKfFnkVX8DThtDkYB9feOAAAUgIdqsZsca5oM06ZUAjlAYjLYPL_nTpjS7-dJpmwNQwxMy7Rz5I6_5uxEN2DX0DzlwYaqLfdJOx-c9ssd2g9Ob-dDMI3Jk5Yj7q9ME8cdwchQfhIUPwd4h-eVdplGeR6qxbN9LfkQRg6rOYsVPA7-8_hR28rbNQIEGKv6arAbGQFTeMQVD6UToihGyxnyM_AvfHqRLH71qiFfy7ULARkC8TDiZVqARpw8dtBss_o3TKOcyqNFEB1upz3HP1om4jaslfaK7lNb2Cmbb-NYfkxCwfTg_BDASKHb8lQzjLqbpGW54r0J5lka9m0hx_kBwOrZ-6PQbG1e8KGILG9kcvvkefZxltWB549GZEDRu-vbI0t5WmacZcyOFAqbfG7QrhQ7b4NR8jBIQmY-hfTbH6Vdyiu2BpVa-6KEaeji9jD9t-6SadKiBnX4zy7aXdE2UwYD_f7XWN9f3d7i3f9tdgeJaIzR0RIKRGoT9jiksXSAc9pHu9XvKTws4viu4wH81b6td6QO1UVvGDxnyNd-DJloTZitxK8udCTNIK6OwE_OoEIITXQlu0nf48M08vGXXiavszgxoy_kwe5e1nHOsmlNBuDU3qiB_Dyh8KHXOyErl3HsSgvGvtf30zh80GEWm5MdI_822cPGAPzDWY08i4ItZ5UjivEBlDra22nYlIb0ZjkBLGiEumhVMhP9HwgqwqJ1QyVuJuh0S-76NtO1bWC2hrgMdsTzcKZjWJmf1iUW0AkHBuElf4sK0pmXZVuZsMsW29Gs4mbTnbrndlVedWzGuU4NTAQFdWatpNYhMd4OadstuIo1LuyTYWR-WfrVZxK1-95Nz4mXu-yOOZ6LFsFm00?></g></svg>