<?plantuml 1.2026.2?><svg xmlns="http://www.w3.org/2000/svg" xmlns:xlink="http://www.w3.org/1999/xlink" contentStyleType="text/css" data-diagram-type="CLASS" height="977px" preserveAspectRatio="none" style="width:1106px;height:977px;background:#FFFFFF;" version="1.1" viewBox="0 0 1106 977" width="1106px" zoomAndPan="magnify"><title>SmartLocate SG - Compare Module Class Diagram</title><defs/><g><g class="title" data-source-line="1"><text fill="#000000" font-family="sans-serif" font-size="14" font-weight="bold" lengthAdjust="spacing" textLength="336.0889" x="378.3911" y="24.5332">SmartLocate SG - Compare Module Class Diagram</text></g><!--class ComparePage--><g class="entity" data-qualified-name="ComparePage" data-source-line="4" id="ent0002"><rect fill="#F1F1F1" height="129.1406" rx="2.5" ry="2.5" style="stroke:#181818;stroke-width:0.5;" width="234.1748" x="609" y="45.6094"/><ellipse cx="676.6997" cy="66.9609" fill="#ADD1B2" rx="11" ry="11" style="stroke:#181818;stroke-width:1;"/><path d="M679.4653,62.8359 Q679.6216,62.6172 679.8091,62.5078 Q679.9966,62.3984 680.2153,62.3984 Q680.5903,62.3984 680.8247,62.6641 Q681.0591,62.9141 681.0591,63.5234 L681.0591,64.9766 Q681.0591,65.5859 680.8247,65.8516 Q680.5903,66.1172 680.2153,66.1172 Q679.8716,66.1172 679.6685,65.9141 Q679.4653,65.7266 679.356,65.2109 Q679.3091,64.8516 679.1216,64.6641 Q678.7935,64.2891 678.1841,64.0703 Q677.5747,63.8516 676.9497,63.8516 Q676.1841,63.8516 675.5435,64.1797 Q674.9185,64.5078 674.4185,65.2578 Q673.9341,66.0078 673.9341,67.0391 L673.9341,68.1328 Q673.9341,69.3672 674.8247,70.1953 Q675.7153,71.0078 677.3091,71.0078 Q678.2466,71.0078 678.9028,70.7578 Q679.2935,70.6016 679.7153,70.1641 Q679.981,69.8984 680.1216,69.8203 Q680.2778,69.7422 680.481,69.7422 Q680.8091,69.7422 681.0591,70.0078 Q681.3247,70.2578 681.3247,70.6016 Q681.3247,70.9453 680.981,71.3516 Q680.481,71.9297 679.6841,72.2578 Q678.606,72.7109 677.3091,72.7109 Q675.7935,72.7109 674.5903,72.0859 Q673.606,71.5859 672.9185,70.5234 Q672.231,69.4453 672.231,68.1641 L672.231,67.0078 Q672.231,65.6797 672.8403,64.5391 Q673.4653,63.3828 674.5591,62.7734 Q675.6528,62.1484 676.8872,62.1484 Q677.6216,62.1484 678.2622,62.3203 Q678.9185,62.4766 679.4653,62.8359 Z " fill="#000000"/><text fill="#000000" font-family="sans-serif" font-size="12" font-style="italic" lengthAdjust="spacing" textLength="63.3867" x="710.644" y="63.0664">&#171;boundary&#187;</text><text fill="#000000" font-family="sans-serif" font-size="14" lengthAdjust="spacing" textLength="90.2754" x="697.1997" y="80.2363">ComparePage</text><line style="stroke:#181818;stroke-width:0.5;" x1="610" x2="842.1748" y1="88.3125" y2="88.3125"/><line style="stroke:#181818;stroke-width:0.5;" x1="610" x2="842.1748" y1="96.3125" y2="96.3125"/><text fill="#000000" font-family="sans-serif" font-size="14" lengthAdjust="spacing" textLength="189.4785" x="615" y="114.8457">+loadSites(userId: string): void</text><text fill="#000000" font-family="sans-serif" font-size="14" lengthAdjust="spacing" textLength="222.1748" x="615" y="132.4551">+toggleSelection(siteId: string): void</text><text fill="#000000" font-family="sans-serif" font-size="14" lengthAdjust="spacing" textLength="159.9131" x="615" y="150.0645">+compareSelected(): void</text><text fill="#000000" font-family="sans-serif" font-size="14" lengthAdjust="spacing" textLength="110.8857" x="615" y="167.6738">+exportPdf(): void</text></g><!--class CompareController--><g class="entity" data-qualified-name="CompareController" data-source-line="11" id="ent0003"><rect fill="#F1F1F1" height="111.5313" rx="2.5" ry="2.5" style="stroke:#181818;stroke-width:0.5;" width="347.7471" x="359" y="235.6094"/><ellipse cx="469.4893" cy="256.9609" fill="#ADD1B2" rx="11" ry="11" style="stroke:#181818;stroke-width:1;"/><path d="M472.2549,252.8359 Q472.4111,252.6172 472.5986,252.5078 Q472.7861,252.3984 473.0049,252.3984 Q473.3799,252.3984 473.6143,252.6641 Q473.8486,252.9141 473.8486,253.5234 L473.8486,254.9766 Q473.8486,255.5859 473.6143,255.8516 Q473.3799,256.1172 473.0049,256.1172 Q472.6611,256.1172 472.458,255.9141 Q472.2549,255.7266 472.1455,255.2109 Q472.0986,254.8516 471.9111,254.6641 Q471.583,254.2891 470.9736,254.0703 Q470.3643,253.8516 469.7393,253.8516 Q468.9736,253.8516 468.333,254.1797 Q467.708,254.5078 467.208,255.2578 Q466.7236,256.0078 466.7236,257.0391 L466.7236,258.1328 Q466.7236,259.3672 467.6143,260.1953 Q468.5049,261.0078 470.0986,261.0078 Q471.0361,261.0078 471.6924,260.7578 Q472.083,260.6016 472.5049,260.1641 Q472.7705,259.8984 472.9111,259.8203 Q473.0674,259.7422 473.2705,259.7422 Q473.5986,259.7422 473.8486,260.0078 Q474.1143,260.2578 474.1143,260.6016 Q474.1143,260.9453 473.7705,261.3516 Q473.2705,261.9297 472.4736,262.2578 Q471.3955,262.7109 470.0986,262.7109 Q468.583,262.7109 467.3799,262.0859 Q466.3955,261.5859 465.708,260.5234 Q465.0205,259.4453 465.0205,258.1641 L465.0205,257.0078 Q465.0205,255.6797 465.6299,254.5391 Q466.2549,253.3828 467.3486,252.7734 Q468.4424,252.1484 469.6768,252.1484 Q470.4111,252.1484 471.0518,252.3203 Q471.708,252.4766 472.2549,252.8359 Z " fill="#000000"/><text fill="#000000" font-family="sans-serif" font-size="12" font-style="italic" lengthAdjust="spacing" textLength="49.3652" x="524.4409" y="253.0664">&#171;control&#187;</text><text fill="#000000" font-family="sans-serif" font-size="14" lengthAdjust="spacing" textLength="118.2686" x="489.9893" y="270.2363">CompareController</text><line style="stroke:#181818;stroke-width:0.5;" x1="360" x2="705.7471" y1="278.3125" y2="278.3125"/><line style="stroke:#181818;stroke-width:0.5;" x1="360" x2="705.7471" y1="286.3125" y2="286.3125"/><text fill="#000000" font-family="sans-serif" font-size="14" lengthAdjust="spacing" textLength="313.9951" x="365" y="304.8457">+listCandidateSites(userId: string): CandidateSite[]</text><text fill="#000000" font-family="sans-serif" font-size="14" lengthAdjust="spacing" textLength="271.209" x="365" y="322.4551">+validateSelection(siteIds: string[]): boolean</text><text fill="#000000" font-family="sans-serif" font-size="14" lengthAdjust="spacing" textLength="335.7471" x="365" y="340.0645">+buildComparison(siteIds: string[]): ComparisonResult</text></g><!--class ExportController--><g class="entity" data-qualified-name="ExportController" data-source-line="17" id="ent0004"><rect fill="#F1F1F1" height="76.3125" rx="2.5" ry="2.5" style="stroke:#181818;stroke-width:0.5;" width="357.8711" x="742" y="253.6094"/><ellipse cx="866.1099" cy="274.9609" fill="#ADD1B2" rx="11" ry="11" style="stroke:#181818;stroke-width:1;"/><path d="M868.8755,270.8359 Q869.0317,270.6172 869.2192,270.5078 Q869.4067,270.3984 869.6255,270.3984 Q870.0005,270.3984 870.2349,270.6641 Q870.4692,270.9141 870.4692,271.5234 L870.4692,272.9766 Q870.4692,273.5859 870.2349,273.8516 Q870.0005,274.1172 869.6255,274.1172 Q869.2817,274.1172 869.0786,273.9141 Q868.8755,273.7266 868.7661,273.2109 Q868.7192,272.8516 868.5317,272.6641 Q868.2036,272.2891 867.5942,272.0703 Q866.9849,271.8516 866.3599,271.8516 Q865.5942,271.8516 864.9536,272.1797 Q864.3286,272.5078 863.8286,273.2578 Q863.3442,274.0078 863.3442,275.0391 L863.3442,276.1328 Q863.3442,277.3672 864.2349,278.1953 Q865.1255,279.0078 866.7192,279.0078 Q867.6567,279.0078 868.313,278.7578 Q868.7036,278.6016 869.1255,278.1641 Q869.3911,277.8984 869.5317,277.8203 Q869.688,277.7422 869.8911,277.7422 Q870.2192,277.7422 870.4692,278.0078 Q870.7349,278.2578 870.7349,278.6016 Q870.7349,278.9453 870.3911,279.3516 Q869.8911,279.9297 869.0942,280.2578 Q868.0161,280.7109 866.7192,280.7109 Q865.2036,280.7109 864.0005,280.0859 Q863.0161,279.5859 862.3286,278.5234 Q861.6411,277.4453 861.6411,276.1641 L861.6411,275.0078 Q861.6411,273.6797 862.2505,272.5391 Q862.8755,271.3828 863.9692,270.7734 Q865.063,270.1484 866.2974,270.1484 Q867.0317,270.1484 867.6724,270.3203 Q868.3286,270.4766 868.8755,270.8359 Z " fill="#000000"/><text fill="#000000" font-family="sans-serif" font-size="12" font-style="italic" lengthAdjust="spacing" textLength="49.3652" x="912.5029" y="271.0664">&#171;control&#187;</text><text fill="#000000" font-family="sans-serif" font-size="14" lengthAdjust="spacing" textLength="101.1514" x="886.6099" y="288.2363">ExportController</text><line style="stroke:#181818;stroke-width:0.5;" x1="743" x2="1098.8711" y1="296.3125" y2="296.3125"/><line style="stroke:#181818;stroke-width:0.5;" x1="743" x2="1098.8711" y1="304.3125" y2="304.3125"/><text fill="#000000" font-family="sans-serif" font-size="14" lengthAdjust="spacing" textLength="345.8711" x="748" y="322.8457">+exportComparisonPdf(result: ComparisonResult): Blob</text></g><!--class CandidateSite--><g class="entity" data-qualified-name="CandidateSite" data-source-line="21" id="ent0005"><rect fill="#F1F1F1" height="146.75" rx="2.5" ry="2.5" style="stroke:#181818;stroke-width:0.5;" width="146.251" x="676" y="581.6094"/><ellipse cx="702.8349" cy="602.9609" fill="#ADD1B2" rx="11" ry="11" style="stroke:#181818;stroke-width:1;"/><path d="M705.6005,598.8359 Q705.7568,598.6172 705.9443,598.5078 Q706.1318,598.3984 706.3505,598.3984 Q706.7255,598.3984 706.9599,598.6641 Q707.1943,598.9141 707.1943,599.5234 L707.1943,600.9766 Q707.1943,601.5859 706.9599,601.8516 Q706.7255,602.1172 706.3505,602.1172 Q706.0068,602.1172 705.8037,601.9141 Q705.6005,601.7266 705.4912,601.2109 Q705.4443,600.8516 705.2568,600.6641 Q704.9287,600.2891 704.3193,600.0703 Q703.7099,599.8516 703.0849,599.8516 Q702.3193,599.8516 701.6787,600.1797 Q701.0537,600.5078 700.5537,601.2578 Q700.0693,602.0078 700.0693,603.0391 L700.0693,604.1328 Q700.0693,605.3672 700.9599,606.1953 Q701.8505,607.0078 703.4443,607.0078 Q704.3818,607.0078 705.038,606.7578 Q705.4287,606.6016 705.8505,606.1641 Q706.1162,605.8984 706.2568,605.8203 Q706.413,605.7422 706.6162,605.7422 Q706.9443,605.7422 707.1943,606.0078 Q707.4599,606.2578 707.4599,606.6016 Q707.4599,606.9453 707.1162,607.3516 Q706.6162,607.9297 705.8193,608.2578 Q704.7412,608.7109 703.4443,608.7109 Q701.9287,608.7109 700.7255,608.0859 Q699.7412,607.5859 699.0537,606.5234 Q698.3662,605.4453 698.3662,604.1641 L698.3662,603.0078 Q698.3662,601.6797 698.9755,600.5391 Q699.6005,599.3828 700.6943,598.7734 Q701.788,598.1484 703.0224,598.1484 Q703.7568,598.1484 704.3974,598.3203 Q705.0537,598.4766 705.6005,598.8359 Z " fill="#000000"/><text fill="#000000" font-family="sans-serif" font-size="12" font-style="italic" lengthAdjust="spacing" textLength="42.0293" x="742.4258" y="599.0664">&#171;entity&#187;</text><text fill="#000000" font-family="sans-serif" font-size="14" lengthAdjust="spacing" textLength="87.9512" x="719.4649" y="616.2363">CandidateSite</text><line style="stroke:#181818;stroke-width:0.5;" x1="677" x2="821.251" y1="624.3125" y2="624.3125"/><text fill="#000000" font-family="sans-serif" font-size="14" lengthAdjust="spacing" textLength="61.0859" x="682" y="642.8457">+id: string</text><text fill="#000000" font-family="sans-serif" font-size="14" lengthAdjust="spacing" textLength="89.0996" x="682" y="660.4551">+userId: string</text><text fill="#000000" font-family="sans-serif" font-size="14" lengthAdjust="spacing" textLength="99.9961" x="682" y="678.0645">+profileId: string</text><text fill="#000000" font-family="sans-serif" font-size="14" lengthAdjust="spacing" textLength="109.3203" x="682" y="695.6738">+siteName: string</text><text fill="#000000" font-family="sans-serif" font-size="14" lengthAdjust="spacing" textLength="134.251" x="682" y="713.2832">+addressLabel: string</text><line style="stroke:#181818;stroke-width:0.5;" x1="677" x2="821.251" y1="720.3594" y2="720.3594"/></g><!--class SiteScore--><g class="entity" data-qualified-name="SiteScore" data-source-line="29" id="ent0006"><rect fill="#F1F1F1" height="164.3594" rx="2.5" ry="2.5" style="stroke:#181818;stroke-width:0.5;" width="203.0371" x="710.5" y="806.6094"/><ellipse cx="777.4204" cy="827.9609" fill="#ADD1B2" rx="11" ry="11" style="stroke:#181818;stroke-width:1;"/><path d="M780.186,823.8359 Q780.3423,823.6172 780.5298,823.5078 Q780.7173,823.3984 780.936,823.3984 Q781.311,823.3984 781.5454,823.6641 Q781.7798,823.9141 781.7798,824.5234 L781.7798,825.9766 Q781.7798,826.5859 781.5454,826.8516 Q781.311,827.1172 780.936,827.1172 Q780.5923,827.1172 780.3892,826.9141 Q780.186,826.7266 780.0767,826.2109 Q780.0298,825.8516 779.8423,825.6641 Q779.5142,825.2891 778.9048,825.0703 Q778.2954,824.8516 777.6704,824.8516 Q776.9048,824.8516 776.2642,825.1797 Q775.6392,825.5078 775.1392,826.2578 Q774.6548,827.0078 774.6548,828.0391 L774.6548,829.1328 Q774.6548,830.3672 775.5454,831.1953 Q776.436,832.0078 778.0298,832.0078 Q778.9673,832.0078 779.6235,831.7578 Q780.0142,831.6016 780.436,831.1641 Q780.7017,830.8984 780.8423,830.8203 Q780.9985,830.7422 781.2017,830.7422 Q781.5298,830.7422 781.7798,831.0078 Q782.0454,831.2578 782.0454,831.6016 Q782.0454,831.9453 781.7017,832.3516 Q781.2017,832.9297 780.4048,833.2578 Q779.3267,833.7109 778.0298,833.7109 Q776.5142,833.7109 775.311,833.0859 Q774.3267,832.5859 773.6392,831.5234 Q772.9517,830.4453 772.9517,829.1641 L772.9517,828.0078 Q772.9517,826.6797 773.561,825.5391 Q774.186,824.3828 775.2798,823.7734 Q776.3735,823.1484 777.6079,823.1484 Q778.3423,823.1484 778.9829,823.3203 Q779.6392,823.4766 780.186,823.8359 Z " fill="#000000"/><text fill="#000000" font-family="sans-serif" font-size="12" font-style="italic" lengthAdjust="spacing" textLength="42.0293" x="807.2539" y="824.0664">&#171;entity&#187;</text><text fill="#000000" font-family="sans-serif" font-size="14" lengthAdjust="spacing" textLength="60.6963" x="797.9204" y="841.2363">SiteScore</text><line style="stroke:#181818;stroke-width:0.5;" x1="711.5" x2="912.5371" y1="849.3125" y2="849.3125"/><text fill="#000000" font-family="sans-serif" font-size="14" lengthAdjust="spacing" textLength="61.0859" x="716.5" y="867.8457">+id: string</text><text fill="#000000" font-family="sans-serif" font-size="14" lengthAdjust="spacing" textLength="163.8027" x="716.5" y="885.4551">+compositeScore: number</text><text fill="#000000" font-family="sans-serif" font-size="14" lengthAdjust="spacing" textLength="180.9336" x="716.5" y="903.0645">+demographicScore: number</text><text fill="#000000" font-family="sans-serif" font-size="14" lengthAdjust="spacing" textLength="174.6855" x="716.5" y="920.6738">+accessibilityScore: number</text><text fill="#000000" font-family="sans-serif" font-size="14" lengthAdjust="spacing" textLength="191.0371" x="716.5" y="938.2832">+rentalPressureScore: number</text><text fill="#000000" font-family="sans-serif" font-size="14" lengthAdjust="spacing" textLength="171.5889" x="716.5" y="955.8926">+competitionScore: number</text><line style="stroke:#181818;stroke-width:0.5;" x1="711.5" x2="912.5371" y1="962.9688" y2="962.9688"/></g><!--class ComparisonResult--><g class="entity" data-qualified-name="ComparisonResult" data-source-line="38" id="ent0007"><rect fill="#F1F1F1" height="111.5313" rx="2.5" ry="2.5" style="stroke:#181818;stroke-width:0.5;" width="147.1582" x="760.5" y="408.6094"/><ellipse cx="775.5" cy="429.9609" fill="#ADD1B2" rx="11" ry="11" style="stroke:#181818;stroke-width:1;"/><path d="M778.2656,425.8359 Q778.4219,425.6172 778.6094,425.5078 Q778.7969,425.3984 779.0156,425.3984 Q779.3906,425.3984 779.625,425.6641 Q779.8594,425.9141 779.8594,426.5234 L779.8594,427.9766 Q779.8594,428.5859 779.625,428.8516 Q779.3906,429.1172 779.0156,429.1172 Q778.6719,429.1172 778.4688,428.9141 Q778.2656,428.7266 778.1563,428.2109 Q778.1094,427.8516 777.9219,427.6641 Q777.5938,427.2891 776.9844,427.0703 Q776.375,426.8516 775.75,426.8516 Q774.9844,426.8516 774.3438,427.1797 Q773.7188,427.5078 773.2188,428.2578 Q772.7344,429.0078 772.7344,430.0391 L772.7344,431.1328 Q772.7344,432.3672 773.625,433.1953 Q774.5156,434.0078 776.1094,434.0078 Q777.0469,434.0078 777.7031,433.7578 Q778.0938,433.6016 778.5156,433.1641 Q778.7813,432.8984 778.9219,432.8203 Q779.0781,432.7422 779.2813,432.7422 Q779.6094,432.7422 779.8594,433.0078 Q780.125,433.2578 780.125,433.6016 Q780.125,433.9453 779.7813,434.3516 Q779.2813,434.9297 778.4844,435.2578 Q777.4063,435.7109 776.1094,435.7109 Q774.5938,435.7109 773.3906,435.0859 Q772.4063,434.5859 771.7188,433.5234 Q771.0313,432.4453 771.0313,431.1641 L771.0313,430.0078 Q771.0313,428.6797 771.6406,427.5391 Q772.2656,426.3828 773.3594,425.7734 Q774.4531,425.1484 775.6875,425.1484 Q776.4219,425.1484 777.0625,425.3203 Q777.7188,425.4766 778.2656,425.8359 Z " fill="#000000"/><text fill="#000000" font-family="sans-serif" font-size="12" font-style="italic" lengthAdjust="spacing" textLength="42.0293" x="826.0645" y="426.0664">&#171;entity&#187;</text><text fill="#000000" font-family="sans-serif" font-size="14" lengthAdjust="spacing" textLength="115.1582" x="789.5" y="443.2363">ComparisonResult</text><line style="stroke:#181818;stroke-width:0.5;" x1="761.5" x2="906.6582" y1="451.3125" y2="451.3125"/><text fill="#000000" font-family="sans-serif" font-size="14" lengthAdjust="spacing" textLength="98.4307" x="766.5" y="469.8457">+siteIds: string[]</text><text fill="#000000" font-family="sans-serif" font-size="14" lengthAdjust="spacing" textLength="90.6514" x="766.5" y="487.4551">+rows: object[]</text><text fill="#000000" font-family="sans-serif" font-size="14" lengthAdjust="spacing" textLength="114.0098" x="766.5" y="505.0645">+chartData: object</text><line style="stroke:#181818;stroke-width:0.5;" x1="761.5" x2="906.6582" y1="512.1406" y2="512.1406"/></g><!--class CandidateSiteRepository--><g class="entity" data-qualified-name="CandidateSiteRepository" data-source-line="44" id="ent0008"><rect fill="#F1F1F1" height="93.9219" rx="2.5" ry="2.5" style="stroke:#181818;stroke-width:0.5;" width="369.5537" x="7" y="417.6094"/><ellipse cx="110.0928" cy="438.9609" fill="#ADD1B2" rx="11" ry="11" style="stroke:#181818;stroke-width:1;"/><path d="M112.8584,434.8359 Q113.0146,434.6172 113.2021,434.5078 Q113.3896,434.3984 113.6084,434.3984 Q113.9834,434.3984 114.2178,434.6641 Q114.4521,434.9141 114.4521,435.5234 L114.4521,436.9766 Q114.4521,437.5859 114.2178,437.8516 Q113.9834,438.1172 113.6084,438.1172 Q113.2646,438.1172 113.0615,437.9141 Q112.8584,437.7266 112.749,437.2109 Q112.7021,436.8516 112.5146,436.6641 Q112.1865,436.2891 111.5771,436.0703 Q110.9678,435.8516 110.3428,435.8516 Q109.5771,435.8516 108.9365,436.1797 Q108.3115,436.5078 107.8115,437.2578 Q107.3271,438.0078 107.3271,439.0391 L107.3271,440.1328 Q107.3271,441.3672 108.2178,442.1953 Q109.1084,443.0078 110.7021,443.0078 Q111.6396,443.0078 112.2959,442.7578 Q112.6865,442.6016 113.1084,442.1641 Q113.374,441.8984 113.5146,441.8203 Q113.6709,441.7422 113.874,441.7422 Q114.2021,441.7422 114.4521,442.0078 Q114.7178,442.2578 114.7178,442.6016 Q114.7178,442.9453 114.374,443.3516 Q113.874,443.9297 113.0771,444.2578 Q111.999,444.7109 110.7021,444.7109 Q109.1865,444.7109 107.9834,444.0859 Q106.999,443.5859 106.3115,442.5234 Q105.624,441.4453 105.624,440.1641 L105.624,439.0078 Q105.624,437.6797 106.2334,436.5391 Q106.8584,435.3828 107.9521,434.7734 Q109.0459,434.1484 110.2803,434.1484 Q111.0146,434.1484 111.6553,434.3203 Q112.3115,434.4766 112.8584,434.8359 Z " fill="#000000"/><text fill="#000000" font-family="sans-serif" font-size="12" font-style="italic" lengthAdjust="spacing" textLength="66.0352" x="175.0093" y="435.0664">&#171;repository&#187;</text><text fill="#000000" font-family="sans-serif" font-size="14" lengthAdjust="spacing" textLength="154.8682" x="130.5928" y="452.2363">CandidateSiteRepository</text><line style="stroke:#181818;stroke-width:0.5;" x1="8" x2="375.5537" y1="460.3125" y2="460.3125"/><line style="stroke:#181818;stroke-width:0.5;" x1="8" x2="375.5537" y1="468.3125" y2="468.3125"/><text fill="#000000" font-family="sans-serif" font-size="14" lengthAdjust="spacing" textLength="270.4023" x="13" y="486.8457">+findByUser(userId: string): CandidateSite[]</text><text fill="#000000" font-family="sans-serif" font-size="14" lengthAdjust="spacing" textLength="357.5537" x="13" y="504.4551">+findByIds(userId: string, siteIds: string[]): CandidateSite[]</text></g><!--class ScoreRepository--><g class="entity" data-qualified-name="ScoreRepository" data-source-line="49" id="ent0009"><rect fill="#F1F1F1" height="76.3125" rx="2.5" ry="2.5" style="stroke:#181818;stroke-width:0.5;" width="277.7197" x="412" y="426.6094"/><ellipse cx="494.8652" cy="447.9609" fill="#ADD1B2" rx="11" ry="11" style="stroke:#181818;stroke-width:1;"/><path d="M497.6309,443.8359 Q497.7871,443.6172 497.9746,443.5078 Q498.1621,443.3984 498.3809,443.3984 Q498.7559,443.3984 498.9902,443.6641 Q499.2246,443.9141 499.2246,444.5234 L499.2246,445.9766 Q499.2246,446.5859 498.9902,446.8516 Q498.7559,447.1172 498.3809,447.1172 Q498.0371,447.1172 497.834,446.9141 Q497.6309,446.7266 497.5215,446.2109 Q497.4746,445.8516 497.2871,445.6641 Q496.959,445.2891 496.3496,445.0703 Q495.7402,444.8516 495.1152,444.8516 Q494.3496,444.8516 493.709,445.1797 Q493.084,445.5078 492.584,446.2578 Q492.0996,447.0078 492.0996,448.0391 L492.0996,449.1328 Q492.0996,450.3672 492.9902,451.1953 Q493.8809,452.0078 495.4746,452.0078 Q496.4121,452.0078 497.0684,451.7578 Q497.459,451.6016 497.8809,451.1641 Q498.1465,450.8984 498.2871,450.8203 Q498.4434,450.7422 498.6465,450.7422 Q498.9746,450.7422 499.2246,451.0078 Q499.4902,451.2578 499.4902,451.6016 Q499.4902,451.9453 499.1465,452.3516 Q498.6465,452.9297 497.8496,453.2578 Q496.7715,453.7109 495.4746,453.7109 Q493.959,453.7109 492.7559,453.0859 Q491.7715,452.5859 491.084,451.5234 Q490.3965,450.4453 490.3965,449.1641 L490.3965,448.0078 Q490.3965,446.6797 491.0059,445.5391 Q491.6309,444.3828 492.7246,443.7734 Q493.8184,443.1484 495.0527,443.1484 Q495.7871,443.1484 496.4277,443.3203 Q497.084,443.4766 497.6309,443.8359 Z " fill="#000000"/><text fill="#000000" font-family="sans-serif" font-size="12" font-style="italic" lengthAdjust="spacing" textLength="66.0352" x="534.0923" y="444.0664">&#171;repository&#187;</text><text fill="#000000" font-family="sans-serif" font-size="14" lengthAdjust="spacing" textLength="103.4893" x="515.3652" y="461.2363">ScoreRepository</text><line style="stroke:#181818;stroke-width:0.5;" x1="413" x2="688.7197" y1="469.3125" y2="469.3125"/><line style="stroke:#181818;stroke-width:0.5;" x1="413" x2="688.7197" y1="477.3125" y2="477.3125"/><text fill="#000000" font-family="sans-serif" font-size="14" lengthAdjust="spacing" textLength="265.7197" x="418" y="495.8457">+findBySiteIds(siteIds: string[]): SiteScore[]</text></g><!--link ComparePage to CompareController--><g class="link" data-entity-1="ent0002" data-entity-2="ent0003" data-link-type="dependency" data-source-line="53" id="lnk10"><path codeLine="53" d="M657.68,174.6494 C636.32,194.5194 617.3338,212.1735 596.6438,231.4135" fill="none" id="ComparePage-to-CompareController" style="stroke:#181818;stroke-width:1;"/><polygon fill="#181818" points="592.25,235.4994,601.5646,232.2998,595.9115,232.0945,596.1168,226.4413,592.25,235.4994" style="stroke:#181818;stroke-width:1;"/></g><!--link ComparePage to ExportController--><g class="link" data-entity-1="ent0002" data-entity-2="ent0004" data-link-type="dependency" data-source-line="54" id="lnk11"><path codeLine="54" d="M795.02,174.6494 C823.73,201.0694 851.6251,226.7563 876.3451,249.5063" fill="none" id="ComparePage-to-ExportController" style="stroke:#181818;stroke-width:1;"/><polygon fill="#181818" points="880.76,253.5694,876.8464,244.5315,877.0809,250.1835,871.4289,250.418,880.76,253.5694" style="stroke:#181818;stroke-width:1;"/></g><!--link CompareController to CandidateSiteRepository--><g class="link" data-entity-1="ent0003" data-entity-2="ent0008" data-link-type="dependency" data-source-line="55" id="lnk12"><path codeLine="55" d="M423.23,347.6594 C378.25,370.2094 332.1536,393.3301 289.2136,414.8601" fill="none" id="CompareController-to-CandidateSiteRepository" style="stroke:#181818;stroke-width:1;"/><polygon fill="#181818" points="283.85,417.5494,293.6882,417.0912,288.3196,415.3083,290.1025,409.9398,283.85,417.5494" style="stroke:#181818;stroke-width:1;"/></g><!--link CompareController to ScoreRepository--><g class="link" data-entity-1="ent0003" data-entity-2="ent0009" data-link-type="dependency" data-source-line="56" id="lnk13"><path codeLine="56" d="M538.79,347.6594 C541.51,373.4294 544.043,397.4922 546.463,420.5222" fill="none" id="CompareController-to-ScoreRepository" style="stroke:#181818;stroke-width:1;"/><polygon fill="#181818" points="547.09,426.4894,550.1276,417.1206,546.5675,421.5168,542.1714,417.9567,547.09,426.4894" style="stroke:#181818;stroke-width:1;"/></g><!--link CompareController to ComparisonResult--><g class="link" data-entity-1="ent0003" data-entity-2="ent0007" data-link-type="dependency" data-source-line="57" id="lnk14"><path codeLine="57" d="M629.9,347.6594 C672.17,371.6694 715.7234,396.415 754.9834,418.725" fill="none" id="CompareController-to-ComparisonResult" style="stroke:#181818;stroke-width:1;"/><polygon fill="#181818" points="760.2,421.6894,754.3514,413.7651,755.8529,419.2191,750.3989,420.7205,760.2,421.6894" style="stroke:#181818;stroke-width:1;"/></g><!--link ExportController to ComparisonResult--><g class="link" data-entity-1="ent0004" data-entity-2="ent0007" data-link-type="dependency" data-source-line="58" id="lnk15"><path codeLine="58" d="M902.12,329.7094 C890.43,352.6994 877.9098,377.2912 864.8198,403.0312" fill="none" id="ExportController-to-ComparisonResult" style="stroke:#181818;stroke-width:1;"/><polygon fill="#181818" points="862.1,408.3794,869.7451,402.1703,864.3665,403.9226,862.6142,398.544,862.1,408.3794" style="stroke:#181818;stroke-width:1;"/></g><!--link CandidateSite to SiteScore--><g class="link" data-entity-1="ent0005" data-entity-2="ent0006" data-link-type="association" data-source-line="60" id="lnk16"><path codeLine="60" d="M768.76,728.7194 C775.47,753.3894 783.01,781.0994 789.9,806.3894" fill="none" id="CandidateSite-SiteScore" style="stroke:#181818;stroke-width:1;"/><text fill="#000000" font-family="sans-serif" font-size="13" lengthAdjust="spacing" textLength="52.7617" x="781" y="773.1045">snapshot</text><text fill="#000000" font-family="sans-serif" font-size="13" lengthAdjust="spacing" textLength="7.23" x="763.258" y="749.7656">1</text><text fill="#000000" font-family="sans-serif" font-size="13" lengthAdjust="spacing" textLength="21.6836" x="766.0254" y="795.8489">0..1</text></g><!--reverse link ComparisonResult to CandidateSite--><g class="link" data-entity-1="ent0007" data-entity-2="ent0005" data-link-type="aggregation" data-source-line="61" id="lnk17"><path codeLine="61" d="M804.2556,531.5779 C795.6756,550.5979 790.87,561.2694 781.75,581.4694" fill="none" id="ComparisonResult-backto-CandidateSite" style="stroke:#181818;stroke-width:1;"/><polygon fill="none" points="809.19,520.6394,803.0766,524.4638,804.2556,531.5779,810.369,527.7534,809.19,520.6394" style="stroke:#181818;stroke-width:1;"/><text fill="#000000" font-family="sans-serif" font-size="13" lengthAdjust="spacing" textLength="7.23" x="798.9208" y="541.5854">1</text><text fill="#000000" font-family="sans-serif" font-size="13" lengthAdjust="spacing" textLength="21.6836" x="763.0668" y="570.5764">2..3</text></g><!--reverse link ComparisonResult to SiteScore--><g class="link" data-entity-1="ent0007" data-entity-2="ent0006" data-link-type="aggregation" data-source-line="62" id="lnk18"><path codeLine="62" d="M841.8239,532.5988 C848.1139,594.9788 853.82,687.5994 842,776.6094 C840.7,786.4094 838.78,796.5594 836.53,806.5794" fill="none" id="ComparisonResult-backto-SiteScore" style="stroke:#181818;stroke-width:1;"/><polygon fill="none" points="840.62,520.6594,837.2421,527.0304,841.8239,532.5988,845.2018,526.2278,840.62,520.6594" style="stroke:#181818;stroke-width:1;"/><text fill="#000000" font-family="sans-serif" font-size="13" lengthAdjust="spacing" textLength="7.23" x="833.9849" y="541.6077">1</text><text fill="#000000" font-family="sans-serif" font-size="13" lengthAdjust="spacing" textLength="21.6836" x="816.8532" y="795.7745">2..3</text></g><?plantuml-src ZLHDRzD043tZNx7AAGWI5RX5LIIQ8bIfeAWMfwg7yUuaMLZlHBlhGa3yTsRjsexNIUdDE_Dctfil1nqCYhm45sv9Gk3lps8cLbJkmQ7uGgfY_yg0z-9QmzP1cVaVsh8NIY6Z_MC8JXTLm1j9DjU_KLnaMUrfqwnXY-Boig3AAd27vLByoLwzCGGgrm7zjFBeRjH2U4vajwyNuf6qOaIWxTPWZWPbq6Iddj6dSBAXQO2efhq7V-t9XRNQTBQ_YROLsU3867IiK3QFLg3sOGLMQSLzEQDquBz_uAX7C8qXaUtRgFi7ZYk8389bV55fenensfz1z-uxz9K9VHMVwWAVAGAV06s2s0jN9ncdPQOhGyLHZuwhuzHeWmxj_7JN1tuC6yE6lQEDDZYmnTA-Geb79b2ArVXRAD1qveu_qkQItFFSSVpaM-X2sAeiqB53OKcyiVkTbgaBf6HQNMZ3ILEdOoumwoYiSgEiaGvP2uzsw4fMg-zhgduquiX9Fzb0nNTUcjeWTtoJrn2WjPuPontMnPCxC8th7azK6stLrU4RJ-SbkzkWMLe2VYjERcKItuyjjkKbkl8cwycTxsRVP3x-bSnco_7vZX3fQMJZYwyJdMxc6NHIshcSwRsEplGaAXlUs-JTX75YSZ6VyrT_2zmc2tk_ev2DDYt6K0nwFvz_c0oB-o-weyZ-0G00?></g></svg>