<?plantuml 1.2026.2?><svg xmlns="http://www.w3.org/2000/svg" xmlns:xlink="http://www.w3.org/1999/xlink" contentStyleType="text/css" data-diagram-type="CLASS" height="783px" preserveAspectRatio="none" style="width:984px;height:783px;background:#FFFFFF;" version="1.1" viewBox="0 0 984 783" width="984px" zoomAndPan="magnify"><defs/><g><!--cluster Comparison UI (Boundary)--><g class="cluster" data-qualified-name="Comparison UI .Boundary." data-source-line="5" id="ent0003"><path d="M161.5,106 L340.6172,106 A3.75,3.75 0 0 1 343.1172,108.5 L350.1172,129.6094 L360.5,129.6094 A2.5,2.5 0 0 1 363,132.1094 L363,497.5 A2.5,2.5 0 0 1 360.5,500 L161.5,500 A2.5,2.5 0 0 1 159,497.5 L159,108.5 A2.5,2.5 0 0 1 161.5,106" fill="none" style="stroke:#000000;stroke-width:1.5;"/><line style="stroke:#000000;stroke-width:1.5;" x1="159" x2="350.1172" y1="129.6094" y2="129.6094"/><text fill="#000000" font-family="sans-serif" font-size="14" font-weight="bold" lengthAdjust="spacing" textLength="178.1172" x="163" y="122.5332">Comparison UI (Boundary)</text></g><!--cluster Comparison Logic (Control)--><g class="cluster" data-qualified-name="Comparison Logic .Control." data-source-line="12" id="ent0008"><path d="M512.5,158 L699.376,158 A3.75,3.75 0 0 1 701.876,160.5 L708.876,181.6094 L752.5,181.6094 A2.5,2.5 0 0 1 755,184.1094 L755,361.5 A2.5,2.5 0 0 1 752.5,364 L512.5,364 A2.5,2.5 0 0 1 510,361.5 L510,160.5 A2.5,2.5 0 0 1 512.5,158" fill="none" style="stroke:#000000;stroke-width:1.5;"/><line style="stroke:#000000;stroke-width:1.5;" x1="510" x2="708.876" y1="181.6094" y2="181.6094"/><text fill="#000000" font-family="sans-serif" font-size="14" font-weight="bold" lengthAdjust="spacing" textLength="185.876" x="514" y="174.5332">Comparison Logic (Control)</text></g><!--cluster Domain Data (Entity)--><g class="cluster" data-qualified-name="Domain Data .Entity." data-source-line="17" id="ent0011"><path d="M790.5,6 L929.1758,6 A3.75,3.75 0 0 1 931.6758,8.5 L938.6758,29.6094 L974.5,29.6094 A2.5,2.5 0 0 1 977,32.1094 L977,773.5 A2.5,2.5 0 0 1 974.5,776 L790.5,776 A2.5,2.5 0 0 1 788,773.5 L788,8.5 A2.5,2.5 0 0 1 790.5,6" fill="none" style="stroke:#000000;stroke-width:1.5;"/><line style="stroke:#000000;stroke-width:1.5;" x1="788" x2="938.6758" y1="29.6094" y2="29.6094"/><text fill="#000000" font-family="sans-serif" font-size="14" font-weight="bold" lengthAdjust="spacing" textLength="137.6758" x="792" y="22.5332">Domain Data (Entity)</text></g><!--class B_Compare--><g class="entity" data-qualified-name="Comparison UI .Boundary..B_Compare" data-source-line="6" id="ent0004"><rect fill="#F1F1F1" height="58.7031" rx="2.5" ry="2.5" style="stroke:#181818;stroke-width:0.5;" width="122.2754" x="200" y="424.5"/><ellipse cx="215" cy="445.8516" fill="#ADD1B2" rx="11" ry="11" style="stroke:#181818;stroke-width:1;"/><path d="M217.7656,441.7266 Q217.9219,441.5078 218.1094,441.3984 Q218.2969,441.2891 218.5156,441.2891 Q218.8906,441.2891 219.125,441.5547 Q219.3594,441.8047 219.3594,442.4141 L219.3594,443.8672 Q219.3594,444.4766 219.125,444.7422 Q218.8906,445.0078 218.5156,445.0078 Q218.1719,445.0078 217.9688,444.8047 Q217.7656,444.6172 217.6563,444.1016 Q217.6094,443.7422 217.4219,443.5547 Q217.0938,443.1797 216.4844,442.9609 Q215.875,442.7422 215.25,442.7422 Q214.4844,442.7422 213.8438,443.0703 Q213.2188,443.3984 212.7188,444.1484 Q212.2344,444.8984 212.2344,445.9297 L212.2344,447.0234 Q212.2344,448.2578 213.125,449.0859 Q214.0156,449.8984 215.6094,449.8984 Q216.5469,449.8984 217.2031,449.6484 Q217.5938,449.4922 218.0156,449.0547 Q218.2813,448.7891 218.4219,448.7109 Q218.5781,448.6328 218.7813,448.6328 Q219.1094,448.6328 219.3594,448.8984 Q219.625,449.1484 219.625,449.4922 Q219.625,449.8359 219.2813,450.2422 Q218.7813,450.8203 217.9844,451.1484 Q216.9063,451.6016 215.6094,451.6016 Q214.0938,451.6016 212.8906,450.9766 Q211.9063,450.4766 211.2188,449.4141 Q210.5313,448.3359 210.5313,447.0547 L210.5313,445.8984 Q210.5313,444.5703 211.1406,443.4297 Q211.7656,442.2734 212.8594,441.6641 Q213.9531,441.0391 215.1875,441.0391 Q215.9219,441.0391 216.5625,441.2109 Q217.2188,441.3672 217.7656,441.7266 Z " fill="#000000"/><text fill="#000000" font-family="sans-serif" font-size="12" font-style="italic" lengthAdjust="spacing" textLength="63.3867" x="242.4443" y="441.957">&#171;boundary&#187;</text><text fill="#000000" font-family="sans-serif" font-size="14" lengthAdjust="spacing" textLength="90.2754" x="229" y="459.127">ComparePage</text><line style="stroke:#181818;stroke-width:0.5;" x1="201" x2="321.2754" y1="467.2031" y2="467.2031"/><line style="stroke:#181818;stroke-width:0.5;" x1="201" x2="321.2754" y1="475.2031" y2="475.2031"/></g><!--class B_Criteria--><g class="entity" data-qualified-name="Comparison UI .Boundary..B_Criteria" data-source-line="7" id="ent0005"><rect fill="#F1F1F1" height="58.7031" rx="2.5" ry="2.5" style="stroke:#181818;stroke-width:0.5;" width="170.5029" x="175.5" y="142.5"/><ellipse cx="190.5" cy="163.8516" fill="#ADD1B2" rx="11" ry="11" style="stroke:#181818;stroke-width:1;"/><path d="M193.2656,159.7266 Q193.4219,159.5078 193.6094,159.3984 Q193.7969,159.2891 194.0156,159.2891 Q194.3906,159.2891 194.625,159.5547 Q194.8594,159.8047 194.8594,160.4141 L194.8594,161.8672 Q194.8594,162.4766 194.625,162.7422 Q194.3906,163.0078 194.0156,163.0078 Q193.6719,163.0078 193.4688,162.8047 Q193.2656,162.6172 193.1563,162.1016 Q193.1094,161.7422 192.9219,161.5547 Q192.5938,161.1797 191.9844,160.9609 Q191.375,160.7422 190.75,160.7422 Q189.9844,160.7422 189.3438,161.0703 Q188.7188,161.3984 188.2188,162.1484 Q187.7344,162.8984 187.7344,163.9297 L187.7344,165.0234 Q187.7344,166.2578 188.625,167.0859 Q189.5156,167.8984 191.1094,167.8984 Q192.0469,167.8984 192.7031,167.6484 Q193.0938,167.4922 193.5156,167.0547 Q193.7813,166.7891 193.9219,166.7109 Q194.0781,166.6328 194.2813,166.6328 Q194.6094,166.6328 194.8594,166.8984 Q195.125,167.1484 195.125,167.4922 Q195.125,167.8359 194.7813,168.2422 Q194.2813,168.8203 193.4844,169.1484 Q192.4063,169.6016 191.1094,169.6016 Q189.5938,169.6016 188.3906,168.9766 Q187.4063,168.4766 186.7188,167.4141 Q186.0313,166.3359 186.0313,165.0547 L186.0313,163.8984 Q186.0313,162.5703 186.6406,161.4297 Q187.2656,160.2734 188.3594,159.6641 Q189.4531,159.0391 190.6875,159.0391 Q191.4219,159.0391 192.0625,159.2109 Q192.7188,159.3672 193.2656,159.7266 Z " fill="#000000"/><text fill="#000000" font-family="sans-serif" font-size="12" font-style="italic" lengthAdjust="spacing" textLength="63.3867" x="242.0581" y="159.957">&#171;boundary&#187;</text><text fill="#000000" font-family="sans-serif" font-size="14" lengthAdjust="spacing" textLength="138.5029" x="204.5" y="177.127">CompareCriteriaPanel</text><line style="stroke:#181818;stroke-width:0.5;" x1="176.5" x2="345.0029" y1="185.2031" y2="185.2031"/><line style="stroke:#181818;stroke-width:0.5;" x1="176.5" x2="345.0029" y1="193.2031" y2="193.2031"/></g><!--class B_Results--><g class="entity" data-qualified-name="Comparison UI .Boundary..B_Results" data-source-line="8" id="ent0006"><rect fill="#F1F1F1" height="58.7031" rx="2.5" ry="2.5" style="stroke:#181818;stroke-width:0.5;" width="172.0684" x="175" y="330.5"/><ellipse cx="190" cy="351.8516" fill="#ADD1B2" rx="11" ry="11" style="stroke:#181818;stroke-width:1;"/><path d="M192.7656,347.7266 Q192.9219,347.5078 193.1094,347.3984 Q193.2969,347.2891 193.5156,347.2891 Q193.8906,347.2891 194.125,347.5547 Q194.3594,347.8047 194.3594,348.4141 L194.3594,349.8672 Q194.3594,350.4766 194.125,350.7422 Q193.8906,351.0078 193.5156,351.0078 Q193.1719,351.0078 192.9688,350.8047 Q192.7656,350.6172 192.6563,350.1016 Q192.6094,349.7422 192.4219,349.5547 Q192.0938,349.1797 191.4844,348.9609 Q190.875,348.7422 190.25,348.7422 Q189.4844,348.7422 188.8438,349.0703 Q188.2188,349.3984 187.7188,350.1484 Q187.2344,350.8984 187.2344,351.9297 L187.2344,353.0234 Q187.2344,354.2578 188.125,355.0859 Q189.0156,355.8984 190.6094,355.8984 Q191.5469,355.8984 192.2031,355.6484 Q192.5938,355.4922 193.0156,355.0547 Q193.2813,354.7891 193.4219,354.7109 Q193.5781,354.6328 193.7813,354.6328 Q194.1094,354.6328 194.3594,354.8984 Q194.625,355.1484 194.625,355.4922 Q194.625,355.8359 194.2813,356.2422 Q193.7813,356.8203 192.9844,357.1484 Q191.9063,357.6016 190.6094,357.6016 Q189.0938,357.6016 187.8906,356.9766 Q186.9063,356.4766 186.2188,355.4141 Q185.5313,354.3359 185.5313,353.0547 L185.5313,351.8984 Q185.5313,350.5703 186.1406,349.4297 Q186.7656,348.2734 187.8594,347.6641 Q188.9531,347.0391 190.1875,347.0391 Q190.9219,347.0391 191.5625,347.2109 Q192.2188,347.3672 192.7656,347.7266 Z " fill="#000000"/><text fill="#000000" font-family="sans-serif" font-size="12" font-style="italic" lengthAdjust="spacing" textLength="63.3867" x="242.3408" y="347.957">&#171;boundary&#187;</text><text fill="#000000" font-family="sans-serif" font-size="14" lengthAdjust="spacing" textLength="140.0684" x="204" y="365.127">CompareResultsPanel</text><line style="stroke:#181818;stroke-width:0.5;" x1="176" x2="346.0684" y1="373.2031" y2="373.2031"/><line style="stroke:#181818;stroke-width:0.5;" x1="176" x2="346.0684" y1="381.2031" y2="381.2031"/></g><!--class B_Map--><g class="entity" data-qualified-name="Comparison UI .Boundary..B_Map" data-source-line="9" id="ent0007"><rect fill="#F1F1F1" height="58.7031" rx="2.5" ry="2.5" style="stroke:#181818;stroke-width:0.5;" width="152.6201" x="184.5" y="236.5"/><ellipse cx="199.5" cy="257.8516" fill="#ADD1B2" rx="11" ry="11" style="stroke:#181818;stroke-width:1;"/><path d="M202.2656,253.7266 Q202.4219,253.5078 202.6094,253.3984 Q202.7969,253.2891 203.0156,253.2891 Q203.3906,253.2891 203.625,253.5547 Q203.8594,253.8047 203.8594,254.4141 L203.8594,255.8672 Q203.8594,256.4766 203.625,256.7422 Q203.3906,257.0078 203.0156,257.0078 Q202.6719,257.0078 202.4688,256.8047 Q202.2656,256.6172 202.1563,256.1016 Q202.1094,255.7422 201.9219,255.5547 Q201.5938,255.1797 200.9844,254.9609 Q200.375,254.7422 199.75,254.7422 Q198.9844,254.7422 198.3438,255.0703 Q197.7188,255.3984 197.2188,256.1484 Q196.7344,256.8984 196.7344,257.9297 L196.7344,259.0234 Q196.7344,260.2578 197.625,261.0859 Q198.5156,261.8984 200.1094,261.8984 Q201.0469,261.8984 201.7031,261.6484 Q202.0938,261.4922 202.5156,261.0547 Q202.7813,260.7891 202.9219,260.7109 Q203.0781,260.6328 203.2813,260.6328 Q203.6094,260.6328 203.8594,260.8984 Q204.125,261.1484 204.125,261.4922 Q204.125,261.8359 203.7813,262.2422 Q203.2813,262.8203 202.4844,263.1484 Q201.4063,263.6016 200.1094,263.6016 Q198.5938,263.6016 197.3906,262.9766 Q196.4063,262.4766 195.7188,261.4141 Q195.0313,260.3359 195.0313,259.0547 L195.0313,257.8984 Q195.0313,256.5703 195.6406,255.4297 Q196.2656,254.2734 197.3594,253.6641 Q198.4531,253.0391 199.6875,253.0391 Q200.4219,253.0391 201.0625,253.2109 Q201.7188,253.3672 202.2656,253.7266 Z " fill="#000000"/><text fill="#000000" font-family="sans-serif" font-size="12" font-style="italic" lengthAdjust="spacing" textLength="63.3867" x="242.1167" y="253.957">&#171;boundary&#187;</text><text fill="#000000" font-family="sans-serif" font-size="14" lengthAdjust="spacing" textLength="120.6201" x="213.5" y="271.127">CompareMapPanel</text><line style="stroke:#181818;stroke-width:0.5;" x1="185.5" x2="336.1201" y1="279.2031" y2="279.2031"/><line style="stroke:#181818;stroke-width:0.5;" x1="185.5" x2="336.1201" y1="287.2031" y2="287.2031"/></g><!--class C_Compare--><g class="entity" data-qualified-name="Comparison Logic .Control..C_Compare" data-source-line="13" id="ent0009"><rect fill="#F1F1F1" height="58.7031" rx="2.5" ry="2.5" style="stroke:#181818;stroke-width:0.5;" width="168.165" x="548.5" y="288.5"/><ellipse cx="563.5" cy="309.8516" fill="#ADD1B2" rx="11" ry="11" style="stroke:#181818;stroke-width:1;"/><path d="M566.2656,305.7266 Q566.4219,305.5078 566.6094,305.3984 Q566.7969,305.2891 567.0156,305.2891 Q567.3906,305.2891 567.625,305.5547 Q567.8594,305.8047 567.8594,306.4141 L567.8594,307.8672 Q567.8594,308.4766 567.625,308.7422 Q567.3906,309.0078 567.0156,309.0078 Q566.6719,309.0078 566.4688,308.8047 Q566.2656,308.6172 566.1563,308.1016 Q566.1094,307.7422 565.9219,307.5547 Q565.5938,307.1797 564.9844,306.9609 Q564.375,306.7422 563.75,306.7422 Q562.9844,306.7422 562.3438,307.0703 Q561.7188,307.3984 561.2188,308.1484 Q560.7344,308.8984 560.7344,309.9297 L560.7344,311.0234 Q560.7344,312.2578 561.625,313.0859 Q562.5156,313.8984 564.1094,313.8984 Q565.0469,313.8984 565.7031,313.6484 Q566.0938,313.4922 566.5156,313.0547 Q566.7813,312.7891 566.9219,312.7109 Q567.0781,312.6328 567.2813,312.6328 Q567.6094,312.6328 567.8594,312.8984 Q568.125,313.1484 568.125,313.4922 Q568.125,313.8359 567.7813,314.2422 Q567.2813,314.8203 566.4844,315.1484 Q565.4063,315.6016 564.1094,315.6016 Q562.5938,315.6016 561.3906,314.9766 Q560.4063,314.4766 559.7188,313.4141 Q559.0313,312.3359 559.0313,311.0547 L559.0313,309.8984 Q559.0313,308.5703 559.6406,307.4297 Q560.2656,306.2734 561.3594,305.6641 Q562.4531,305.0391 563.6875,305.0391 Q564.4219,305.0391 565.0625,305.2109 Q565.7188,305.3672 566.2656,305.7266 Z " fill="#000000"/><text fill="#000000" font-family="sans-serif" font-size="12" font-style="italic" lengthAdjust="spacing" textLength="49.3652" x="620.8999" y="305.957">&#171;control&#187;</text><text fill="#000000" font-family="sans-serif" font-size="14" lengthAdjust="spacing" textLength="136.165" x="577.5" y="323.127">ComparisonController</text><line style="stroke:#181818;stroke-width:0.5;" x1="549.5" x2="715.665" y1="331.2031" y2="331.2031"/><line style="stroke:#181818;stroke-width:0.5;" x1="549.5" x2="715.665" y1="339.2031" y2="339.2031"/></g><!--class C_Criteria--><g class="entity" data-qualified-name="Comparison Logic .Control..C_Criteria" data-source-line="14" id="ent0010"><rect fill="#F1F1F1" height="58.7031" rx="2.5" ry="2.5" style="stroke:#181818;stroke-width:0.5;" width="213.2822" x="526" y="194.5"/><ellipse cx="541" cy="215.8516" fill="#ADD1B2" rx="11" ry="11" style="stroke:#181818;stroke-width:1;"/><path d="M543.7656,211.7266 Q543.9219,211.5078 544.1094,211.3984 Q544.2969,211.2891 544.5156,211.2891 Q544.8906,211.2891 545.125,211.5547 Q545.3594,211.8047 545.3594,212.4141 L545.3594,213.8672 Q545.3594,214.4766 545.125,214.7422 Q544.8906,215.0078 544.5156,215.0078 Q544.1719,215.0078 543.9688,214.8047 Q543.7656,214.6172 543.6563,214.1016 Q543.6094,213.7422 543.4219,213.5547 Q543.0938,213.1797 542.4844,212.9609 Q541.875,212.7422 541.25,212.7422 Q540.4844,212.7422 539.8438,213.0703 Q539.2188,213.3984 538.7188,214.1484 Q538.2344,214.8984 538.2344,215.9297 L538.2344,217.0234 Q538.2344,218.2578 539.125,219.0859 Q540.0156,219.8984 541.6094,219.8984 Q542.5469,219.8984 543.2031,219.6484 Q543.5938,219.4922 544.0156,219.0547 Q544.2813,218.7891 544.4219,218.7109 Q544.5781,218.6328 544.7813,218.6328 Q545.1094,218.6328 545.3594,218.8984 Q545.625,219.1484 545.625,219.4922 Q545.625,219.8359 545.2813,220.2422 Q544.7813,220.8203 543.9844,221.1484 Q542.9063,221.6016 541.6094,221.6016 Q540.0938,221.6016 538.8906,220.9766 Q537.9063,220.4766 537.2188,219.4141 Q536.5313,218.3359 536.5313,217.0547 L536.5313,215.8984 Q536.5313,214.5703 537.1406,213.4297 Q537.7656,212.2734 538.8594,211.6641 Q539.9531,211.0391 541.1875,211.0391 Q541.9219,211.0391 542.5625,211.2109 Q543.2188,211.3672 543.7656,211.7266 Z " fill="#000000"/><text fill="#000000" font-family="sans-serif" font-size="12" font-style="italic" lengthAdjust="spacing" textLength="49.3652" x="620.9585" y="211.957">&#171;control&#187;</text><text fill="#000000" font-family="sans-serif" font-size="14" lengthAdjust="spacing" textLength="181.2822" x="555" y="229.127">ComparisonCriteriaController</text><line style="stroke:#181818;stroke-width:0.5;" x1="527" x2="738.2822" y1="237.2031" y2="237.2031"/><line style="stroke:#181818;stroke-width:0.5;" x1="527" x2="738.2822" y1="245.2031" y2="245.2031"/></g><!--class E_User--><g class="entity" data-qualified-name="Domain Data .Entity..E_User" data-source-line="18" id="ent0012"><rect fill="#F1F1F1" height="58.7031" rx="2.5" ry="2.5" style="stroke:#181818;stroke-width:0.5;" width="112.1445" x="826.5" y="606.5"/><ellipse cx="841.5" cy="627.8516" fill="#ADD1B2" rx="11" ry="11" style="stroke:#181818;stroke-width:1;"/><path d="M844.2656,623.7266 Q844.4219,623.5078 844.6094,623.3984 Q844.7969,623.2891 845.0156,623.2891 Q845.3906,623.2891 845.625,623.5547 Q845.8594,623.8047 845.8594,624.4141 L845.8594,625.8672 Q845.8594,626.4766 845.625,626.7422 Q845.3906,627.0078 845.0156,627.0078 Q844.6719,627.0078 844.4688,626.8047 Q844.2656,626.6172 844.1563,626.1016 Q844.1094,625.7422 843.9219,625.5547 Q843.5938,625.1797 842.9844,624.9609 Q842.375,624.7422 841.75,624.7422 Q840.9844,624.7422 840.3438,625.0703 Q839.7188,625.3984 839.2188,626.1484 Q838.7344,626.8984 838.7344,627.9297 L838.7344,629.0234 Q838.7344,630.2578 839.625,631.0859 Q840.5156,631.8984 842.1094,631.8984 Q843.0469,631.8984 843.7031,631.6484 Q844.0938,631.4922 844.5156,631.0547 Q844.7813,630.7891 844.9219,630.7109 Q845.0781,630.6328 845.2813,630.6328 Q845.6094,630.6328 845.8594,630.8984 Q846.125,631.1484 846.125,631.4922 Q846.125,631.8359 845.7813,632.2422 Q845.2813,632.8203 844.4844,633.1484 Q843.4063,633.6016 842.1094,633.6016 Q840.5938,633.6016 839.3906,632.9766 Q838.4063,632.4766 837.7188,631.4141 Q837.0313,630.3359 837.0313,629.0547 L837.0313,627.8984 Q837.0313,626.5703 837.6406,625.4297 Q838.2656,624.2734 839.3594,623.6641 Q840.4531,623.0391 841.6875,623.0391 Q842.4219,623.0391 843.0625,623.2109 Q843.7188,623.3672 844.2656,623.7266 Z " fill="#000000"/><text fill="#000000" font-family="sans-serif" font-size="12" font-style="italic" lengthAdjust="spacing" textLength="42.0293" x="874.5576" y="623.957">&#171;entity&#187;</text><text fill="#000000" font-family="sans-serif" font-size="14" lengthAdjust="spacing" textLength="80.1445" x="855.5" y="641.127">UserAccount</text><line style="stroke:#181818;stroke-width:0.5;" x1="827.5" x2="937.6445" y1="649.2031" y2="649.2031"/><line style="stroke:#181818;stroke-width:0.5;" x1="827.5" x2="937.6445" y1="657.2031" y2="657.2031"/></g><!--class E_Profile--><g class="entity" data-qualified-name="Domain Data .Entity..E_Profile" data-source-line="19" id="ent0013"><rect fill="#F1F1F1" height="58.7031" rx="2.5" ry="2.5" style="stroke:#181818;stroke-width:0.5;" width="128.4893" x="818.5" y="42.5"/><ellipse cx="833.5" cy="63.8516" fill="#ADD1B2" rx="11" ry="11" style="stroke:#181818;stroke-width:1;"/><path d="M836.2656,59.7266 Q836.4219,59.5078 836.6094,59.3984 Q836.7969,59.2891 837.0156,59.2891 Q837.3906,59.2891 837.625,59.5547 Q837.8594,59.8047 837.8594,60.4141 L837.8594,61.8672 Q837.8594,62.4766 837.625,62.7422 Q837.3906,63.0078 837.0156,63.0078 Q836.6719,63.0078 836.4688,62.8047 Q836.2656,62.6172 836.1563,62.1016 Q836.1094,61.7422 835.9219,61.5547 Q835.5938,61.1797 834.9844,60.9609 Q834.375,60.7422 833.75,60.7422 Q832.9844,60.7422 832.3438,61.0703 Q831.7188,61.3984 831.2188,62.1484 Q830.7344,62.8984 830.7344,63.9297 L830.7344,65.0234 Q830.7344,66.2578 831.625,67.0859 Q832.5156,67.8984 834.1094,67.8984 Q835.0469,67.8984 835.7031,67.6484 Q836.0938,67.4922 836.5156,67.0547 Q836.7813,66.7891 836.9219,66.7109 Q837.0781,66.6328 837.2813,66.6328 Q837.6094,66.6328 837.8594,66.8984 Q838.125,67.1484 838.125,67.4922 Q838.125,67.8359 837.7813,68.2422 Q837.2813,68.8203 836.4844,69.1484 Q835.4063,69.6016 834.1094,69.6016 Q832.5938,69.6016 831.3906,68.9766 Q830.4063,68.4766 829.7188,67.4141 Q829.0313,66.3359 829.0313,65.0547 L829.0313,63.8984 Q829.0313,62.5703 829.6406,61.4297 Q830.2656,60.2734 831.3594,59.6641 Q832.4531,59.0391 833.6875,59.0391 Q834.4219,59.0391 835.0625,59.2109 Q835.7188,59.3672 836.2656,59.7266 Z " fill="#000000"/><text fill="#000000" font-family="sans-serif" font-size="12" font-style="italic" lengthAdjust="spacing" textLength="42.0293" x="874.73" y="59.957">&#171;entity&#187;</text><text fill="#000000" font-family="sans-serif" font-size="14" lengthAdjust="spacing" textLength="96.4893" x="847.5" y="77.127">BusinessProfile</text><line style="stroke:#181818;stroke-width:0.5;" x1="819.5" x2="945.9893" y1="85.2031" y2="85.2031"/><line style="stroke:#181818;stroke-width:0.5;" x1="819.5" x2="945.9893" y1="93.2031" y2="93.2031"/></g><!--class E_Saved--><g class="entity" data-qualified-name="Domain Data .Entity..E_Saved" data-source-line="20" id="ent0014"><rect fill="#F1F1F1" height="58.7031" rx="2.5" ry="2.5" style="stroke:#181818;stroke-width:0.5;" width="124.627" x="820" y="700.5"/><ellipse cx="835" cy="721.8516" fill="#ADD1B2" rx="11" ry="11" style="stroke:#181818;stroke-width:1;"/><path d="M837.7656,717.7266 Q837.9219,717.5078 838.1094,717.3984 Q838.2969,717.2891 838.5156,717.2891 Q838.8906,717.2891 839.125,717.5547 Q839.3594,717.8047 839.3594,718.4141 L839.3594,719.8672 Q839.3594,720.4766 839.125,720.7422 Q838.8906,721.0078 838.5156,721.0078 Q838.1719,721.0078 837.9688,720.8047 Q837.7656,720.6172 837.6563,720.1016 Q837.6094,719.7422 837.4219,719.5547 Q837.0938,719.1797 836.4844,718.9609 Q835.875,718.7422 835.25,718.7422 Q834.4844,718.7422 833.8438,719.0703 Q833.2188,719.3984 832.7188,720.1484 Q832.2344,720.8984 832.2344,721.9297 L832.2344,723.0234 Q832.2344,724.2578 833.125,725.0859 Q834.0156,725.8984 835.6094,725.8984 Q836.5469,725.8984 837.2031,725.6484 Q837.5938,725.4922 838.0156,725.0547 Q838.2813,724.7891 838.4219,724.7109 Q838.5781,724.6328 838.7813,724.6328 Q839.1094,724.6328 839.3594,724.8984 Q839.625,725.1484 839.625,725.4922 Q839.625,725.8359 839.2813,726.2422 Q838.7813,726.8203 837.9844,727.1484 Q836.9063,727.6016 835.6094,727.6016 Q834.0938,727.6016 832.8906,726.9766 Q831.9063,726.4766 831.2188,725.4141 Q830.5313,724.3359 830.5313,723.0547 L830.5313,721.8984 Q830.5313,720.5703 831.1406,719.4297 Q831.7656,718.2734 832.8594,717.6641 Q833.9531,717.0391 835.1875,717.0391 Q835.9219,717.0391 836.5625,717.2109 Q837.2188,717.3672 837.7656,717.7266 Z " fill="#000000"/><text fill="#000000" font-family="sans-serif" font-size="12" font-style="italic" lengthAdjust="spacing" textLength="42.0293" x="874.2988" y="717.957">&#171;entity&#187;</text><text fill="#000000" font-family="sans-serif" font-size="14" lengthAdjust="spacing" textLength="92.627" x="849" y="735.127">SavedLocation</text><line style="stroke:#181818;stroke-width:0.5;" x1="821" x2="943.627" y1="743.2031" y2="743.2031"/><line style="stroke:#181818;stroke-width:0.5;" x1="821" x2="943.627" y1="751.2031" y2="751.2031"/></g><!--class E_Location--><g class="entity" data-qualified-name="Domain Data .Entity..E_Location" data-source-line="21" id="ent0015"><rect fill="#F1F1F1" height="58.7031" rx="2.5" ry="2.5" style="stroke:#181818;stroke-width:0.5;" width="84.9307" x="840" y="230.5"/><ellipse cx="855" cy="251.8516" fill="#ADD1B2" rx="11" ry="11" style="stroke:#181818;stroke-width:1;"/><path d="M857.7656,247.7266 Q857.9219,247.5078 858.1094,247.3984 Q858.2969,247.2891 858.5156,247.2891 Q858.8906,247.2891 859.125,247.5547 Q859.3594,247.8047 859.3594,248.4141 L859.3594,249.8672 Q859.3594,250.4766 859.125,250.7422 Q858.8906,251.0078 858.5156,251.0078 Q858.1719,251.0078 857.9688,250.8047 Q857.7656,250.6172 857.6563,250.1016 Q857.6094,249.7422 857.4219,249.5547 Q857.0938,249.1797 856.4844,248.9609 Q855.875,248.7422 855.25,248.7422 Q854.4844,248.7422 853.8438,249.0703 Q853.2188,249.3984 852.7188,250.1484 Q852.2344,250.8984 852.2344,251.9297 L852.2344,253.0234 Q852.2344,254.2578 853.125,255.0859 Q854.0156,255.8984 855.6094,255.8984 Q856.5469,255.8984 857.2031,255.6484 Q857.5938,255.4922 858.0156,255.0547 Q858.2813,254.7891 858.4219,254.7109 Q858.5781,254.6328 858.7813,254.6328 Q859.1094,254.6328 859.3594,254.8984 Q859.625,255.1484 859.625,255.4922 Q859.625,255.8359 859.2813,256.2422 Q858.7813,256.8203 857.9844,257.1484 Q856.9063,257.6016 855.6094,257.6016 Q854.0938,257.6016 852.8906,256.9766 Q851.9063,256.4766 851.2188,255.4141 Q850.5313,254.3359 850.5313,253.0547 L850.5313,251.8984 Q850.5313,250.5703 851.1406,249.4297 Q851.7656,248.2734 852.8594,247.6641 Q853.9531,247.0391 855.1875,247.0391 Q855.9219,247.0391 856.5625,247.2109 Q857.2188,247.3672 857.7656,247.7266 Z " fill="#000000"/><text fill="#000000" font-family="sans-serif" font-size="12" font-style="italic" lengthAdjust="spacing" textLength="42.0293" x="874.4507" y="247.957">&#171;entity&#187;</text><text fill="#000000" font-family="sans-serif" font-size="14" lengthAdjust="spacing" textLength="52.9307" x="869" y="265.127">Location</text><line style="stroke:#181818;stroke-width:0.5;" x1="841" x2="923.9307" y1="273.2031" y2="273.2031"/><line style="stroke:#181818;stroke-width:0.5;" x1="841" x2="923.9307" y1="281.2031" y2="281.2031"/></g><!--class E_Session--><g class="entity" data-qualified-name="Domain Data .Entity..E_Session" data-source-line="22" id="ent0016"><rect fill="#F1F1F1" height="58.7031" rx="2.5" ry="2.5" style="stroke:#181818;stroke-width:0.5;" width="157.2822" x="804" y="136.5"/><ellipse cx="819" cy="157.8516" fill="#ADD1B2" rx="11" ry="11" style="stroke:#181818;stroke-width:1;"/><path d="M821.7656,153.7266 Q821.9219,153.5078 822.1094,153.3984 Q822.2969,153.2891 822.5156,153.2891 Q822.8906,153.2891 823.125,153.5547 Q823.3594,153.8047 823.3594,154.4141 L823.3594,155.8672 Q823.3594,156.4766 823.125,156.7422 Q822.8906,157.0078 822.5156,157.0078 Q822.1719,157.0078 821.9688,156.8047 Q821.7656,156.6172 821.6563,156.1016 Q821.6094,155.7422 821.4219,155.5547 Q821.0938,155.1797 820.4844,154.9609 Q819.875,154.7422 819.25,154.7422 Q818.4844,154.7422 817.8438,155.0703 Q817.2188,155.3984 816.7188,156.1484 Q816.2344,156.8984 816.2344,157.9297 L816.2344,159.0234 Q816.2344,160.2578 817.125,161.0859 Q818.0156,161.8984 819.6094,161.8984 Q820.5469,161.8984 821.2031,161.6484 Q821.5938,161.4922 822.0156,161.0547 Q822.2813,160.7891 822.4219,160.7109 Q822.5781,160.6328 822.7813,160.6328 Q823.1094,160.6328 823.3594,160.8984 Q823.625,161.1484 823.625,161.4922 Q823.625,161.8359 823.2813,162.2422 Q822.7813,162.8203 821.9844,163.1484 Q820.9063,163.6016 819.6094,163.6016 Q818.0938,163.6016 816.8906,162.9766 Q815.9063,162.4766 815.2188,161.4141 Q814.5313,160.3359 814.5313,159.0547 L814.5313,157.8984 Q814.5313,156.5703 815.1406,155.4297 Q815.7656,154.2734 816.8594,153.6641 Q817.9531,153.0391 819.1875,153.0391 Q819.9219,153.0391 820.5625,153.2109 Q821.2188,153.3672 821.7656,153.7266 Z " fill="#000000"/><text fill="#000000" font-family="sans-serif" font-size="12" font-style="italic" lengthAdjust="spacing" textLength="42.0293" x="874.6265" y="153.957">&#171;entity&#187;</text><text fill="#000000" font-family="sans-serif" font-size="14" lengthAdjust="spacing" textLength="125.2822" x="833" y="171.127">ComparisonSession</text><line style="stroke:#181818;stroke-width:0.5;" x1="805" x2="960.2822" y1="179.2031" y2="179.2031"/><line style="stroke:#181818;stroke-width:0.5;" x1="805" x2="960.2822" y1="187.2031" y2="187.2031"/></g><!--class E_Result--><g class="entity" data-qualified-name="Domain Data .Entity..E_Result" data-source-line="23" id="ent0017"><rect fill="#F1F1F1" height="58.7031" rx="2.5" ry="2.5" style="stroke:#181818;stroke-width:0.5;" width="147.1582" x="809" y="324.5"/><ellipse cx="824" cy="345.8516" fill="#ADD1B2" rx="11" ry="11" style="stroke:#181818;stroke-width:1;"/><path d="M826.7656,341.7266 Q826.9219,341.5078 827.1094,341.3984 Q827.2969,341.2891 827.5156,341.2891 Q827.8906,341.2891 828.125,341.5547 Q828.3594,341.8047 828.3594,342.4141 L828.3594,343.8672 Q828.3594,344.4766 828.125,344.7422 Q827.8906,345.0078 827.5156,345.0078 Q827.1719,345.0078 826.9688,344.8047 Q826.7656,344.6172 826.6563,344.1016 Q826.6094,343.7422 826.4219,343.5547 Q826.0938,343.1797 825.4844,342.9609 Q824.875,342.7422 824.25,342.7422 Q823.4844,342.7422 822.8438,343.0703 Q822.2188,343.3984 821.7188,344.1484 Q821.2344,344.8984 821.2344,345.9297 L821.2344,347.0234 Q821.2344,348.2578 822.125,349.0859 Q823.0156,349.8984 824.6094,349.8984 Q825.5469,349.8984 826.2031,349.6484 Q826.5938,349.4922 827.0156,349.0547 Q827.2813,348.7891 827.4219,348.7109 Q827.5781,348.6328 827.7813,348.6328 Q828.1094,348.6328 828.3594,348.8984 Q828.625,349.1484 828.625,349.4922 Q828.625,349.8359 828.2813,350.2422 Q827.7813,350.8203 826.9844,351.1484 Q825.9063,351.6016 824.6094,351.6016 Q823.0938,351.6016 821.8906,350.9766 Q820.9063,350.4766 820.2188,349.4141 Q819.5313,348.3359 819.5313,347.0547 L819.5313,345.8984 Q819.5313,344.5703 820.1406,343.4297 Q820.7656,342.2734 821.8594,341.6641 Q822.9531,341.0391 824.1875,341.0391 Q824.9219,341.0391 825.5625,341.2109 Q826.2188,341.3672 826.7656,341.7266 Z " fill="#000000"/><text fill="#000000" font-family="sans-serif" font-size="12" font-style="italic" lengthAdjust="spacing" textLength="42.0293" x="874.5645" y="341.957">&#171;entity&#187;</text><text fill="#000000" font-family="sans-serif" font-size="14" lengthAdjust="spacing" textLength="115.1582" x="838" y="359.127">ComparisonResult</text><line style="stroke:#181818;stroke-width:0.5;" x1="810" x2="955.1582" y1="367.2031" y2="367.2031"/><line style="stroke:#181818;stroke-width:0.5;" x1="810" x2="955.1582" y1="375.2031" y2="375.2031"/></g><!--class E_Score--><g class="entity" data-qualified-name="Domain Data .Entity..E_Score" data-source-line="24" id="ent0018"><rect fill="#F1F1F1" height="58.7031" rx="2.5" ry="2.5" style="stroke:#181818;stroke-width:0.5;" width="121.5029" x="821.5" y="418.5"/><ellipse cx="836.5" cy="439.8516" fill="#ADD1B2" rx="11" ry="11" style="stroke:#181818;stroke-width:1;"/><path d="M839.2656,435.7266 Q839.4219,435.5078 839.6094,435.3984 Q839.7969,435.2891 840.0156,435.2891 Q840.3906,435.2891 840.625,435.5547 Q840.8594,435.8047 840.8594,436.4141 L840.8594,437.8672 Q840.8594,438.4766 840.625,438.7422 Q840.3906,439.0078 840.0156,439.0078 Q839.6719,439.0078 839.4688,438.8047 Q839.2656,438.6172 839.1563,438.1016 Q839.1094,437.7422 838.9219,437.5547 Q838.5938,437.1797 837.9844,436.9609 Q837.375,436.7422 836.75,436.7422 Q835.9844,436.7422 835.3438,437.0703 Q834.7188,437.3984 834.2188,438.1484 Q833.7344,438.8984 833.7344,439.9297 L833.7344,441.0234 Q833.7344,442.2578 834.625,443.0859 Q835.5156,443.8984 837.1094,443.8984 Q838.0469,443.8984 838.7031,443.6484 Q839.0938,443.4922 839.5156,443.0547 Q839.7813,442.7891 839.9219,442.7109 Q840.0781,442.6328 840.2813,442.6328 Q840.6094,442.6328 840.8594,442.8984 Q841.125,443.1484 841.125,443.4922 Q841.125,443.8359 840.7813,444.2422 Q840.2813,444.8203 839.4844,445.1484 Q838.4063,445.6016 837.1094,445.6016 Q835.5938,445.6016 834.3906,444.9766 Q833.4063,444.4766 832.7188,443.4141 Q832.0313,442.3359 832.0313,441.0547 L832.0313,439.8984 Q832.0313,438.5703 832.6406,437.4297 Q833.2656,436.2734 834.3594,435.6641 Q835.4531,435.0391 836.6875,435.0391 Q837.4219,435.0391 838.0625,435.2109 Q838.7188,435.3672 839.2656,435.7266 Z " fill="#000000"/><text fill="#000000" font-family="sans-serif" font-size="12" font-style="italic" lengthAdjust="spacing" textLength="42.0293" x="874.2368" y="435.957">&#171;entity&#187;</text><text fill="#000000" font-family="sans-serif" font-size="14" lengthAdjust="spacing" textLength="89.5029" x="850.5" y="453.127">LocationScore</text><line style="stroke:#181818;stroke-width:0.5;" x1="822.5" x2="942.0029" y1="461.2031" y2="461.2031"/><line style="stroke:#181818;stroke-width:0.5;" x1="822.5" x2="942.0029" y1="469.2031" y2="469.2031"/></g><!--class E_Breakdown--><g class="entity" data-qualified-name="Domain Data .Entity..E_Breakdown" data-source-line="25" id="ent0019"><rect fill="#F1F1F1" height="58.7031" rx="2.5" ry="2.5" style="stroke:#181818;stroke-width:0.5;" width="138.6133" x="813" y="512.5"/><ellipse cx="828" cy="533.8516" fill="#ADD1B2" rx="11" ry="11" style="stroke:#181818;stroke-width:1;"/><path d="M830.7656,529.7266 Q830.9219,529.5078 831.1094,529.3984 Q831.2969,529.2891 831.5156,529.2891 Q831.8906,529.2891 832.125,529.5547 Q832.3594,529.8047 832.3594,530.4141 L832.3594,531.8672 Q832.3594,532.4766 832.125,532.7422 Q831.8906,533.0078 831.5156,533.0078 Q831.1719,533.0078 830.9688,532.8047 Q830.7656,532.6172 830.6563,532.1016 Q830.6094,531.7422 830.4219,531.5547 Q830.0938,531.1797 829.4844,530.9609 Q828.875,530.7422 828.25,530.7422 Q827.4844,530.7422 826.8438,531.0703 Q826.2188,531.3984 825.7188,532.1484 Q825.2344,532.8984 825.2344,533.9297 L825.2344,535.0234 Q825.2344,536.2578 826.125,537.0859 Q827.0156,537.8984 828.6094,537.8984 Q829.5469,537.8984 830.2031,537.6484 Q830.5938,537.4922 831.0156,537.0547 Q831.2813,536.7891 831.4219,536.7109 Q831.5781,536.6328 831.7813,536.6328 Q832.1094,536.6328 832.3594,536.8984 Q832.625,537.1484 832.625,537.4922 Q832.625,537.8359 832.2813,538.2422 Q831.7813,538.8203 830.9844,539.1484 Q829.9063,539.6016 828.6094,539.6016 Q827.0938,539.6016 825.8906,538.9766 Q824.9063,538.4766 824.2188,537.4141 Q823.5313,536.3359 823.5313,535.0547 L823.5313,533.8984 Q823.5313,532.5703 824.1406,531.4297 Q824.7656,530.2734 825.8594,529.6641 Q826.9531,529.0391 828.1875,529.0391 Q828.9219,529.0391 829.5625,529.2109 Q830.2188,529.3672 830.7656,529.7266 Z " fill="#000000"/><text fill="#000000" font-family="sans-serif" font-size="12" font-style="italic" lengthAdjust="spacing" textLength="42.0293" x="874.292" y="529.957">&#171;entity&#187;</text><text fill="#000000" font-family="sans-serif" font-size="14" lengthAdjust="spacing" textLength="106.6133" x="842" y="547.127">ScoreBreakdown</text><line style="stroke:#181818;stroke-width:0.5;" x1="814" x2="950.6133" y1="555.2031" y2="555.2031"/><line style="stroke:#181818;stroke-width:0.5;" x1="814" x2="950.6133" y1="563.2031" y2="563.2031"/></g><!--class User--><g class="entity" data-qualified-name="User" data-source-line="3" id="ent0002"><rect fill="#F1F1F1" height="58.7031" rx="2.5" ry="2.5" style="stroke:#181818;stroke-width:0.5;" width="105.1104" x="7" y="297.5"/><ellipse cx="22" cy="318.8516" fill="#ADD1B2" rx="11" ry="11" style="stroke:#181818;stroke-width:1;"/><path d="M24.7656,314.7266 Q24.9219,314.5078 25.1094,314.3984 Q25.2969,314.2891 25.5156,314.2891 Q25.8906,314.2891 26.125,314.5547 Q26.3594,314.8047 26.3594,315.4141 L26.3594,316.8672 Q26.3594,317.4766 26.125,317.7422 Q25.8906,318.0078 25.5156,318.0078 Q25.1719,318.0078 24.9688,317.8047 Q24.7656,317.6172 24.6563,317.1016 Q24.6094,316.7422 24.4219,316.5547 Q24.0938,316.1797 23.4844,315.9609 Q22.875,315.7422 22.25,315.7422 Q21.4844,315.7422 20.8438,316.0703 Q20.2188,316.3984 19.7188,317.1484 Q19.2344,317.8984 19.2344,318.9297 L19.2344,320.0234 Q19.2344,321.2578 20.125,322.0859 Q21.0156,322.8984 22.6094,322.8984 Q23.5469,322.8984 24.2031,322.6484 Q24.5938,322.4922 25.0156,322.0547 Q25.2813,321.7891 25.4219,321.7109 Q25.5781,321.6328 25.7813,321.6328 Q26.1094,321.6328 26.3594,321.8984 Q26.625,322.1484 26.625,322.4922 Q26.625,322.8359 26.2813,323.2422 Q25.7813,323.8203 24.9844,324.1484 Q23.9063,324.6016 22.6094,324.6016 Q21.0938,324.6016 19.8906,323.9766 Q18.9063,323.4766 18.2188,322.4141 Q17.5313,321.3359 17.5313,320.0547 L17.5313,318.8984 Q17.5313,317.5703 18.1406,316.4297 Q18.7656,315.2734 19.8594,314.6641 Q20.9531,314.0391 22.1875,314.0391 Q22.9219,314.0391 23.5625,314.2109 Q24.2188,314.3672 24.7656,314.7266 Z " fill="#000000"/><text fill="#000000" font-family="sans-serif" font-size="12" font-style="italic" lengthAdjust="spacing" textLength="40.0254" x="52.5425" y="314.957">&#171;actor&#187;</text><text fill="#000000" font-family="sans-serif" font-size="14" lengthAdjust="spacing" textLength="73.1104" x="36" y="332.127">User (SME)</text><line style="stroke:#181818;stroke-width:0.5;" x1="8" x2="111.1104" y1="340.2031" y2="340.2031"/><line style="stroke:#181818;stroke-width:0.5;" x1="8" x2="111.1104" y1="348.2031" y2="348.2031"/></g><!--link User to B_Compare--><g class="link" data-entity-1="ent0002" data-entity-2="ent0004" data-link-type="dependency" data-source-line="29" id="lnk20"><path codeLine="29" d="M89.15,356.6 C106.07,372.93 128.51,392.73 151,407 C166.05,416.55 177.8567,422.6428 194.2067,429.6628" fill="none" id="User-to-B_Compare" style="stroke:#181818;stroke-width:1;"/><polygon fill="#181818" points="199.72,432.03,193.0282,424.8037,195.1256,430.0574,189.8719,432.1548,199.72,432.03" style="stroke:#181818;stroke-width:1;"/></g><!--link User to B_Criteria--><g class="link" data-entity-1="ent0002" data-entity-2="ent0005" data-link-type="dependency" data-source-line="30" id="lnk21"><path codeLine="30" d="M79.73,297.1 C96.25,273.35 121.97,240.63 151,219 C159.68,212.54 164.046,209.4975 173.986,204.3775" fill="none" id="User-to-B_Criteria" style="stroke:#181818;stroke-width:1;"/><polygon fill="#181818" points="179.32,201.63,169.4874,202.1952,174.875,203.9196,173.1507,209.3072,179.32,201.63" style="stroke:#181818;stroke-width:1;"/></g><!--link User to B_Results--><g class="link" data-entity-1="ent0002" data-entity-2="ent0006" data-link-type="dependency" data-source-line="31" id="lnk22"><path codeLine="31" d="M112.14,335.54 C131.3,338.71 147.6603,341.4217 169.0203,344.9517" fill="none" id="User-to-B_Results" style="stroke:#181818;stroke-width:1;"/><polygon fill="#181818" points="174.94,345.93,166.7126,340.5161,170.0069,345.1147,165.4082,348.409,174.94,345.93" style="stroke:#181818;stroke-width:1;"/></g><!--link User to B_Map--><g class="link" data-entity-1="ent0002" data-entity-2="ent0007" data-link-type="dependency" data-source-line="32" id="lnk23"><path codeLine="32" d="M112.14,311.21 C134.07,304.5 154.352,298.3036 178.402,290.9536" fill="none" id="User-to-B_Map" style="stroke:#181818;stroke-width:1;"/><polygon fill="#181818" points="184.14,289.2,174.3639,288.0051,179.3583,290.6613,176.7021,295.6558,184.14,289.2" style="stroke:#181818;stroke-width:1;"/></g><!--link B_Compare to C_Compare--><g class="link" data-entity-1="ent0004" data-entity-2="ent0009" data-link-type="dependency" data-source-line="35" id="lnk24"><path codeLine="35" d="M322.47,434.6 C369.51,419.22 436.27,396.77 494,375 C516.49,366.52 535.2414,358.9873 557.0614,349.8973" fill="none" id="B_Compare-to-C_Compare" style="stroke:#181818;stroke-width:1;"/><polygon fill="#181818" points="562.6,347.59,552.7539,347.3586,557.9845,349.5128,555.8303,354.7434,562.6,347.59" style="stroke:#181818;stroke-width:1;"/><text fill="#000000" font-family="sans-serif" font-size="13" lengthAdjust="spacing" textLength="113.4517" x="380" y="371.4951">open/select/remove</text></g><!--link B_Criteria to C_Criteria--><g class="link" data-entity-1="ent0005" data-entity-2="ent0010" data-link-type="dependency" data-source-line="36" id="lnk25"><path codeLine="36" d="M346.77,183.93 C400.04,191.43 463.2285,200.3244 520.0385,208.3144" fill="none" id="B_Criteria-to-C_Criteria" style="stroke:#181818;stroke-width:1;"/><polygon fill="#181818" points="525.98,209.15,517.6248,203.9355,521.0287,208.4536,516.5106,211.8576,525.98,209.15" style="stroke:#181818;stroke-width:1;"/><text fill="#000000" font-family="sans-serif" font-size="13" lengthAdjust="spacing" textLength="59.96" x="407" y="185.4951">set criteria</text></g><!--link B_Results to C_Compare--><g class="link" data-entity-1="ent0006" data-entity-2="ent0009" data-link-type="dependency" data-source-line="37" id="lnk26"><path codeLine="37" d="M347.18,351.75 C391.07,347.35 445.44,341.69 494,336 C511.58,333.94 524.4398,332.3512 542.3398,330.0312" fill="none" id="B_Results-to-C_Compare" style="stroke:#181818;stroke-width:1;"/><polygon fill="#181818" points="548.29,329.26,538.8505,326.45,543.3315,329.9027,539.8788,334.3836,548.29,329.26" style="stroke:#181818;stroke-width:1;"/><text fill="#000000" font-family="sans-serif" font-size="13" lengthAdjust="spacing" textLength="93.2153" x="390" y="332.4951">view breakdown</text></g><!--link B_Map to C_Compare--><g class="link" data-entity-1="ent0007" data-entity-2="ent0009" data-link-type="dependency" data-source-line="38" id="lnk27"><path codeLine="38" d="M337.67,276.65 C398.9,285.27 479.0885,296.554 542.2685,305.444" fill="none" id="B_Map-to-C_Compare" style="stroke:#181818;stroke-width:1;"/><polygon fill="#181818" points="548.21,306.28,539.8551,301.065,543.2588,305.5833,538.7404,308.987,548.21,306.28" style="stroke:#181818;stroke-width:1;"/><text fill="#000000" font-family="sans-serif" font-size="13" lengthAdjust="spacing" textLength="77.3208" x="398" y="279.4951">show on map</text></g><!--link C_Compare to E_User--><g class="link" data-entity-1="ent0009" data-entity-2="ent0012" data-link-type="dependency" data-source-line="41" id="lnk28"><path codeLine="41" d="M642.5,347.58 C660.42,402.01 705.37,518.85 780,589 C793.16,601.37 804.6598,608.5297 820.9698,615.7197" fill="none" id="C_Compare-to-E_User" style="stroke:#181818;stroke-width:1;"/><polygon fill="#181818" points="826.46,618.14,819.8382,610.8495,821.8848,616.1231,816.6112,618.1697,826.46,618.14" style="stroke:#181818;stroke-width:1;"/></g><!--link C_Compare to E_Profile--><g class="link" data-entity-1="ent0009" data-entity-2="ent0013" data-link-type="dependency" data-source-line="42" id="lnk29"><path codeLine="42" d="M716.52,303.09 C734.29,296.13 751.24,285.94 763,271 C773.51,257.65 770.07,132.79 780,119 C789.48,105.84 798.1435,98.8299 812.8335,91.8999" fill="none" id="C_Compare-to-E_Profile" style="stroke:#181818;stroke-width:1;"/><polygon fill="#181818" points="818.26,89.34,808.4137,89.5623,813.7379,91.4733,811.8269,96.7976,818.26,89.34" style="stroke:#181818;stroke-width:1;"/></g><!--link C_Compare to E_Saved--><g class="link" data-entity-1="ent0009" data-entity-2="ent0014" data-link-type="dependency" data-source-line="43" id="lnk30"><path codeLine="43" d="M637.8,347.52 C649.08,415.22 685.51,583.46 780,683 C790.96,694.55 799.9005,700.9454 814.3405,707.8054" fill="none" id="C_Compare-to-E_Saved" style="stroke:#181818;stroke-width:1;"/><polygon fill="#181818" points="819.76,710.38,813.3472,702.905,815.2437,708.2345,809.9143,710.131,819.76,710.38" style="stroke:#181818;stroke-width:1;"/></g><!--link C_Compare to E_Location--><g class="link" data-entity-1="ent0009" data-entity-2="ent0015" data-link-type="dependency" data-source-line="44" id="lnk31"><path codeLine="44" d="M716.77,298.53 C758.14,288.85 800.4777,278.9465 833.9977,271.1065" fill="none" id="C_Compare-to-E_Location" style="stroke:#181818;stroke-width:1;"/><polygon fill="#181818" points="839.84,269.74,830.1655,267.8948,834.9714,270.8787,831.9875,275.6846,839.84,269.74" style="stroke:#181818;stroke-width:1;"/></g><!--link C_Compare to E_Session--><g class="link" data-entity-1="ent0009" data-entity-2="ent0016" data-link-type="dependency" data-source-line="45" id="lnk32"><path codeLine="45" d="M716.75,300.76 C733.87,293.9 750.48,284.34 763,271 C781.39,251.42 762.47,233.35 780,213 C786.72,205.2 789.903,201.7856 798.823,196.2456" fill="none" id="C_Compare-to-E_Session" style="stroke:#181818;stroke-width:1;"/><polygon fill="#181818" points="803.92,193.08,794.1642,194.4304,799.6725,195.718,798.385,201.2264,803.92,193.08" style="stroke:#181818;stroke-width:1;"/></g><!--link C_Compare to E_Result--><g class="link" data-entity-1="ent0009" data-entity-2="ent0017" data-link-type="dependency" data-source-line="46" id="lnk33"><path codeLine="46" d="M716.77,330.09 C746.6,334.42 774.0322,338.3982 802.9022,342.5882" fill="none" id="C_Compare-to-E_Result" style="stroke:#181818;stroke-width:1;"/><polygon fill="#181818" points="808.84,343.45,800.5078,338.1988,803.8918,342.7319,799.3588,346.1159,808.84,343.45" style="stroke:#181818;stroke-width:1;"/></g><!--link C_Compare to E_Score--><g class="link" data-entity-1="ent0009" data-entity-2="ent0018" data-link-type="dependency" data-source-line="47" id="lnk34"><path codeLine="47" d="M683.46,347.65 C711.52,363.96 747.37,384.24 780,401 C793.21,407.79 802.1515,412.1857 815.8215,418.5557" fill="none" id="C_Compare-to-E_Score" style="stroke:#181818;stroke-width:1;"/><polygon fill="#181818" points="821.26,421.09,814.7917,413.6629,816.7279,418.9781,811.4127,420.9143,821.26,421.09" style="stroke:#181818;stroke-width:1;"/></g><!--link C_Compare to E_Breakdown--><g class="link" data-entity-1="ent0009" data-entity-2="ent0019" data-link-type="dependency" data-source-line="48" id="lnk35"><path codeLine="48" d="M652.04,347.81 C677.1,386.09 725.02,452.64 780,495 C789.92,502.65 795.9489,506.6865 807.3989,512.5465" fill="none" id="C_Compare-to-E_Breakdown" style="stroke:#181818;stroke-width:1;"/><polygon fill="#181818" points="812.74,515.28,806.5507,507.6189,808.2891,513.002,802.9059,514.7404,812.74,515.28" style="stroke:#181818;stroke-width:1;"/></g><!--link C_Criteria to E_Profile--><g class="link" data-entity-1="ent0010" data-entity-2="ent0013" data-link-type="dependency" data-source-line="50" id="lnk36"><path codeLine="50" d="M657.36,194.3 C682.51,165.03 724.84,121.27 771,97 C785.54,89.36 796.5033,85.3878 812.5533,81.6878" fill="none" id="C_Criteria-to-E_Profile" style="stroke:#181818;stroke-width:1;"/><polygon fill="#181818" points="818.4,80.34,808.7315,78.464,813.5278,81.4632,810.5286,86.2595,818.4,80.34" style="stroke:#181818;stroke-width:1;"/></g><!--link C_Criteria to E_Session--><g class="link" data-entity-1="ent0010" data-entity-2="ent0016" data-link-type="dependency" data-source-line="51" id="lnk37"><path codeLine="51" d="M739.03,199.32 C760.79,194.23 777.4673,190.3247 798.0173,185.5247" fill="none" id="C_Criteria-to-E_Session" style="stroke:#181818;stroke-width:1;"/><polygon fill="#181818" points="803.86,184.16,794.1861,182.3119,798.9911,185.2973,796.0057,190.1022,803.86,184.16" style="stroke:#181818;stroke-width:1;"/></g><?plantuml-src XLJBQYCn4BphAnfVrZc4t4Cmn1CV5X8mQt8EYjonHMJ9g6MRPSc_HoErCfe7tfkxLDNJZseR_0WG77YzsmVOQeygQ6U5K4OImUoLqCDyyxAwcO4aIE73WrJ1-SL2YADKdtA7C6lSuIYz9cVXzJVCb-vajzB_ZQf_0e2JPHAkeo9bMxun4bE-io9c7V8RhmDwBTVIeYb2nguh_o2TJA1QoD1rtOiyrfeOzlbVqvq_kvrMC6-S3TwPgTvR6ZyRz2bzKmr1vQTnHKd7BO_rtIow17M9J-uWjOKd6IJCLpReC5XCkzP7fMA38ULSlV6YCP7hUfOdqXQ9rjvzQ8DCvsXIiP5dt3ux9LjZCJzXa-m1iOIJt6uscrXHbJr7_z5a9x0a1rShsYZdIx_fztItxSlIe_pSkaifw2Uk9N53l_91QHlt5s-AuAB37ehHH7gylLrqXzA3UEqrnkwkeMZUzaFb8a59OmZOAA8xmPRTUV4Ut17j7Q69VmXt7W_kZA8wEsQNy1u80wXIKNTcmwndZHTuB-CG-RQ69Dgx2yJz7NBfR7Y24o6ayMaaqVGgpuuTWUpB4PxyDqBBfiVqRAWHdhiSqriFZD0V4mZHz0VPgxF_KBxy3G00?></g></svg>