<?plantuml 1.2026.2?><svg xmlns="http://www.w3.org/2000/svg" xmlns:xlink="http://www.w3.org/1999/xlink" contentStyleType="text/css" data-diagram-type="DESCRIPTION" height="1447px" preserveAspectRatio="none" style="width:1190px;height:1447px;background:#FFFFFF;" version="1.1" viewBox="0 0 1190 1447" width="1190px" zoomAndPan="magnify"><defs/><g><!--cluster SmartLocate SG\nPortfolio Module--><g class="cluster" data-qualified-name="SmartLocate SG.nPortfolio Module" data-source-line="6" id="ent0004"><rect fill="none" height="699" rx="2.5" ry="2.5" style="stroke:#181818;stroke-width:1;" width="988" x="196" y="285.02"/><text fill="#000000" font-family="sans-serif" font-size="14" font-weight="bold" lengthAdjust="spacing" textLength="108.9238" x="635.5381" y="301.5532">SmartLocate SG</text><text fill="#000000" font-family="sans-serif" font-size="14" font-weight="bold" lengthAdjust="spacing" textLength="110.4277" x="634.7861" y="319.1626">Portfolio Module</text></g><!--entity UC1--><g class="entity" data-qualified-name="SmartLocate SG.nPortfolio Module.UC1" data-source-line="8" id="ent0005"><ellipse cx="1054.5452" cy="643.829" fill="#F1F1F1" rx="87.0452" ry="19.809" style="stroke:#181818;stroke-width:0.5;"/><text fill="#000000" font-family="sans-serif" font-size="14" lengthAdjust="spacing" textLength="143.1855" x="982.9524" y="649.1337">View portfolio locations</text></g><!--entity UC2--><g class="entity" data-qualified-name="SmartLocate SG.nPortfolio Module.UC2" data-source-line="9" id="ent0006"><ellipse cx="705.3773" cy="544.2632" fill="#F1F1F1" rx="106.3773" ry="27.2432" style="stroke:#181818;stroke-width:0.5;"/><text fill="#000000" font-family="sans-serif" font-size="14" lengthAdjust="spacing" textLength="150.1787" x="630.2879" y="541.7099">Search or filter locations</text><text fill="#000000" font-family="sans-serif" font-size="14" lengthAdjust="spacing" textLength="133.0547" x="638.8499" y="559.3193">(by name or address)</text></g><!--entity UC3--><g class="entity" data-qualified-name="SmartLocate SG.nPortfolio Module.UC3" data-source-line="10" id="ent0007"><ellipse cx="705.684" cy="629.2568" fill="#F1F1F1" rx="101.684" ry="22.7368" style="stroke:#181818;stroke-width:0.5;"/><text fill="#000000" font-family="sans-serif" font-size="14" lengthAdjust="spacing" textLength="176.6406" x="617.3637" y="634.5615">Select location from portfolio</text></g><!--entity UC4--><g class="entity" data-qualified-name="SmartLocate SG.nPortfolio Module.UC4" data-source-line="12" id="ent0008"><ellipse cx="705.3337" cy="933.0392" fill="#F1F1F1" rx="81.8337" ry="26.0192" style="stroke:#181818;stroke-width:0.5;"/><text fill="#000000" font-family="sans-serif" font-size="14" lengthAdjust="spacing" textLength="120.6133" x="645.027" y="932.3231">View location score</text><text fill="#000000" font-family="sans-serif" font-size="14" lengthAdjust="spacing" textLength="73.1309" x="668.7683" y="949.9325">(composite)</text></g><!--entity UC5--><g class="entity" data-qualified-name="SmartLocate SG.nPortfolio Module.UC5" data-source-line="13" id="ent0009"><ellipse cx="705.6782" cy="832.8438" fill="#F1F1F1" rx="110.1782" ry="38.3238" style="stroke:#181818;stroke-width:0.5;"/><text fill="#000000" font-family="sans-serif" font-size="14" lengthAdjust="spacing" textLength="160.2891" x="625.5336" y="823.4996">View statistics breakdown</text><text fill="#000000" font-family="sans-serif" font-size="14" lengthAdjust="spacing" textLength="147.8408" x="631.7578" y="841.109">(demographics, access,</text><text fill="#000000" font-family="sans-serif" font-size="14" lengthAdjust="spacing" textLength="119.0547" x="646.1508" y="858.7184">rental, competition)</text></g><!--entity UC6--><g class="entity" data-qualified-name="SmartLocate SG.nPortfolio Module.UC6" data-source-line="14" id="ent0010"><ellipse cx="1054.6239" cy="932.7737" fill="#F1F1F1" rx="113.6239" ry="25.7537" style="stroke:#181818;stroke-width:0.5;"/><text fill="#000000" font-family="sans-serif" font-size="14" lengthAdjust="spacing" textLength="171.2266" x="969.0106" y="932.4733">Load saved score snapshot</text><text fill="#000000" font-family="sans-serif" font-size="14" lengthAdjust="spacing" textLength="89.4961" x="1009.8758" y="950.0827">from database</text></g><!--entity UC7--><g class="entity" data-qualified-name="SmartLocate SG.nPortfolio Module.UC7" data-source-line="15" id="ent0011"><ellipse cx="341.2198" cy="941.964" fill="#F1F1F1" rx="115.2198" ry="25.444" style="stroke:#181818;stroke-width:0.5;"/><text fill="#000000" font-family="sans-serif" font-size="14" lengthAdjust="spacing" textLength="178.9443" x="251.7476" y="942.5264">Refresh score from map flow</text><text fill="#000000" font-family="sans-serif" font-size="14" lengthAdjust="spacing" textLength="58.3652" x="312.0372" y="960.1357">(optional)</text></g><!--entity UC8--><g class="entity" data-qualified-name="SmartLocate SG.nPortfolio Module.UC8" data-source-line="17" id="ent0012"><ellipse cx="341.0967" cy="617.0393" fill="#F1F1F1" rx="103.0967" ry="23.0193" style="stroke:#181818;stroke-width:0.5;"/><text fill="#000000" font-family="sans-serif" font-size="14" lengthAdjust="spacing" textLength="179.792" x="251.2007" y="622.344">Add note to selected location</text></g><!--entity UC9--><g class="entity" data-qualified-name="SmartLocate SG.nPortfolio Module.UC9" data-source-line="18" id="ent0013"><ellipse cx="340.8408" cy="698.8882" fill="#F1F1F1" rx="104.8408" ry="23.3682" style="stroke:#181818;stroke-width:0.5;"/><text fill="#000000" font-family="sans-serif" font-size="14" lengthAdjust="spacing" textLength="183.668" x="249.0068" y="704.1928">Edit note for selected location</text></g><!--entity UC10--><g class="entity" data-qualified-name="SmartLocate SG.nPortfolio Module.UC10" data-source-line="19" id="ent0014"><ellipse cx="340.7673" cy="782.8735" fill="#F1F1F1" rx="112.2673" ry="24.8535" style="stroke:#181818;stroke-width:0.5;"/><text fill="#000000" font-family="sans-serif" font-size="14" lengthAdjust="spacing" textLength="200.0127" x="240.7609" y="788.1781">Delete note for selected location</text></g><!--entity UC11--><g class="entity" data-qualified-name="SmartLocate SG.nPortfolio Module.UC11" data-source-line="21" id="ent0015"><ellipse cx="705.6336" cy="717.1467" fill="#F1F1F1" rx="118.6336" ry="26.1267" style="stroke:#181818;stroke-width:0.5;"/><text fill="#000000" font-family="sans-serif" font-size="14" lengthAdjust="spacing" textLength="194.5371" x="608.3651" y="718.7502">Select locations for comparison</text><text fill="#000000" font-family="sans-serif" font-size="14" lengthAdjust="spacing" textLength="43.5586" x="683.8543" y="736.3595">(min 2)</text></g><!--entity UC12--><g class="entity" data-qualified-name="SmartLocate SG.nPortfolio Module.UC12" data-source-line="22" id="ent0016"><ellipse cx="340.8135" cy="861.7827" fill="#F1F1F1" rx="81.8135" ry="18.7627" style="stroke:#181818;stroke-width:0.5;"/><text fill="#000000" font-family="sans-serif" font-size="14" lengthAdjust="spacing" textLength="130.7441" x="275.4414" y="867.0874">Go to Compare page</text></g><!--entity UC13--><g class="entity" data-qualified-name="SmartLocate SG.nPortfolio Module.UC13" data-source-line="24" id="ent0017"><ellipse cx="341.2178" cy="367.2636" fill="#F1F1F1" rx="129.2178" ry="28.2436" style="stroke:#181818;stroke-width:0.5;"/><text fill="#000000" font-family="sans-serif" font-size="14" lengthAdjust="spacing" textLength="199.9854" x="241.2251" y="365.9685">Create or select business profile</text><text fill="#000000" font-family="sans-serif" font-size="14" lengthAdjust="spacing" textLength="156.4063" x="263.0147" y="383.5779">(e.g., cafe, fitness studio)</text></g><!--entity UC14--><g class="entity" data-qualified-name="SmartLocate SG.nPortfolio Module.UC14" data-source-line="25" id="ent0018"><ellipse cx="340.8797" cy="450.0959" fill="#F1F1F1" rx="88.3797" ry="20.0759" style="stroke:#181818;stroke-width:0.5;"/><text fill="#000000" font-family="sans-serif" font-size="14" lengthAdjust="spacing" textLength="146.3096" x="267.7249" y="455.4006">Update business profile</text></g><!--entity UC15--><g class="entity" data-qualified-name="SmartLocate SG.nPortfolio Module.UC15" data-source-line="27" id="ent0019"><ellipse cx="341.0488" cy="532.0298" fill="#F1F1F1" rx="123.0488" ry="27.0098" style="stroke:#181818;stroke-width:0.5;"/><text fill="#000000" font-family="sans-serif" font-size="14" lengthAdjust="spacing" textLength="223.3711" x="229.3633" y="537.3345">Open selected location in Map page</text></g><!--entity User--><g class="entity" data-qualified-name="User" data-source-line="3" id="ent0002"><ellipse cx="77.2793" cy="378.52" fill="#F1F1F1" rx="8" ry="8" style="stroke:#181818;stroke-width:0.5;"/><path d="M77.2793,386.52 L77.2793,413.52 M64.2793,394.52 L90.2793,394.52 M77.2793,413.52 L64.2793,428.52 M77.2793,413.52 L90.2793,428.52" fill="none" style="stroke:#181818;stroke-width:0.5;"/><text fill="#000000" font-family="sans-serif" font-size="14" lengthAdjust="spacing" textLength="29.5586" x="62.5" y="444.5532">User</text></g><!--entity A04--><g class="entity" data-qualified-name="A04" data-source-line="4" id="ent0003"><ellipse cx="77.5859" cy="990.52" fill="#F1F1F1" rx="8" ry="8" style="stroke:#181818;stroke-width:0.5;"/><path d="M77.5859,998.52 L77.5859,1025.52 M64.5859,1006.52 L90.5859,1006.52 M77.5859,1025.52 L64.5859,1040.52 M77.5859,1025.52 L90.5859,1040.52" fill="none" style="stroke:#181818;stroke-width:0.5;"/><text fill="#000000" font-family="sans-serif" font-size="14" lengthAdjust="spacing" textLength="143.1719" x="6" y="1056.5532">System (Backend A04)</text></g><!--link User to UC1--><g class="link" data-entity-1="ent0002" data-entity-2="ent0005" data-link-type="dependency" data-source-line="30" id="lnk20"><path d="M84.97,369.79 C99.33,288.28 136.74,105.46 188,73.02 C293.91,6 347.07,48.6 470,73.02 C783.14,135.25 994.2922,524.6707 1041.1422,618.6107" fill="none" id="User-to-UC1" style="stroke:#181818;stroke-width:1;"/><polygon fill="#181818" points="1043.82,623.98,1043.3828,614.1408,1041.5885,619.5056,1036.2238,617.7112,1043.82,623.98" style="stroke:#181818;stroke-width:1;"/></g><!--link User to UC3--><g class="link" data-entity-1="ent0002" data-entity-2="ent0007" data-link-type="dependency" data-source-line="31" id="lnk21"><path d="M78.72,369.9 C81.45,304.91 97.49,176.11 179,118.02 C284.33,42.97 342.45,96.65 470,118.02 C510.34,124.78 532.14,115.55 557,148.02 C616.58,225.84 527.57,510.1 587,588.02 C596.56,600.57 604.6856,606.9966 619.3356,613.0566" fill="none" id="User-to-UC3" style="stroke:#181818;stroke-width:1;"/><polygon fill="#181818" points="624.88,615.35,618.0924,608.2136,620.2597,613.4388,615.0345,615.6061,624.88,615.35" style="stroke:#181818;stroke-width:1;"/></g><!--link User to UC4--><g class="link" data-entity-1="ent0002" data-entity-2="ent0008" data-link-type="dependency" data-source-line="32" id="lnk22"><path d="M92.69,392.06 C111.77,370.71 147.97,335.12 188,321.02 C306.22,279.41 366.78,249.93 470,321.02 C559.32,382.55 532.67,443.33 557,549.02 C574.02,622.94 541.08,828.65 587,889.02 C598.47,904.11 610.0872,911.9533 627.8572,918.4733" fill="none" id="User-to-UC4" style="stroke:#181818;stroke-width:1;"/><polygon fill="#181818" points="633.49,920.54,626.4186,913.6847,628.796,918.8177,623.663,921.1951,633.49,920.54" style="stroke:#181818;stroke-width:1;"/></g><!--link User to UC5--><g class="link" data-entity-1="ent0002" data-entity-2="ent0009" data-link-type="dependency" data-source-line="33" id="lnk23"><path d="M92.69,392.06 C111.77,370.71 147.97,335.12 188,321.02 C306.22,279.41 366.78,249.93 470,321.02 C559.32,382.55 529.86,444.01 557,549.02 C580.7,640.73 535.24,680.69 587,760.02 C598.74,778.03 611.5017,789.2619 629.8117,800.3019" fill="none" id="User-to-UC5" style="stroke:#181818;stroke-width:1;"/><polygon fill="#181818" points="634.95,803.4,629.308,795.3273,630.6681,800.8182,625.1772,802.1783,634.95,803.4" style="stroke:#181818;stroke-width:1;"/></g><!--link User to UC8--><g class="link" data-entity-1="ent0002" data-entity-2="ent0012" data-link-type="dependency" data-source-line="34" id="lnk24"><path d="M92.61,444.61 C109.58,482.79 141.67,542.46 188,576.02 C206.92,589.73 224.3661,597.3011 246.9261,603.3711" fill="none" id="User-to-UC8" style="stroke:#181818;stroke-width:1;"/><polygon fill="#181818" points="252.72,604.93,245.0684,598.729,247.8917,603.6309,242.9898,606.4542,252.72,604.93" style="stroke:#181818;stroke-width:1;"/></g><!--link User to UC9--><g class="link" data-entity-1="ent0002" data-entity-2="ent0013" data-link-type="dependency" data-source-line="35" id="lnk25"><path d="M85.05,448.35 C96.26,503.21 124.41,602.12 188,657.02 C205.09,671.79 221.1921,679.7475 242.9721,685.9875" fill="none" id="User-to-UC9" style="stroke:#181818;stroke-width:1;"/><polygon fill="#181818" points="248.74,687.64,241.1898,681.3159,243.9334,686.2629,238.9864,689.0065,248.74,687.64" style="stroke:#181818;stroke-width:1;"/></g><!--link User to UC10--><g class="link" data-entity-1="ent0002" data-entity-2="ent0014" data-link-type="dependency" data-source-line="36" id="lnk26"><path d="M80.03,448.1 C84.9,517.07 105.03,660.61 188,740.02 C203.16,754.53 217.1153,762.3818 237.2453,768.8218" fill="none" id="User-to-UC10" style="stroke:#181818;stroke-width:1;"/><polygon fill="#181818" points="242.96,770.65,235.6068,764.0979,238.1978,769.1265,233.1692,771.7174,242.96,770.65" style="stroke:#181818;stroke-width:1;"/></g><!--link User to UC11--><g class="link" data-entity-1="ent0002" data-entity-2="ent0015" data-link-type="dependency" data-source-line="37" id="lnk27"><path d="M92.69,392.06 C111.77,370.71 147.97,335.12 188,321.02 C306.22,279.41 366.78,249.93 470,321.02 C559.32,382.55 524.46,445.56 557,549.02 C573.5,601.47 551,627.48 587,669.02 C597.68,681.35 606.5454,688.0604 621.5154,694.9204" fill="none" id="User-to-UC11" style="stroke:#181818;stroke-width:1;"/><polygon fill="#181818" points="626.97,697.42,620.4545,690.0343,622.4245,695.337,617.1218,697.307,626.97,697.42" style="stroke:#181818;stroke-width:1;"/></g><!--link User to UC12--><g class="link" data-entity-1="ent0002" data-entity-2="ent0016" data-link-type="dependency" data-source-line="38" id="lnk28"><path d="M83.68,448.31 C96.75,541.46 133.9,771.93 188,825.02 C207.19,843.86 228.3755,852.54 254.3755,857.48" fill="none" id="User-to-UC12" style="stroke:#181818;stroke-width:1;"/><polygon fill="#181818" points="260.27,858.6,252.1748,852.9904,255.3579,857.6667,250.6815,860.8498,260.27,858.6" style="stroke:#181818;stroke-width:1;"/></g><!--link User to UC13--><g class="link" data-entity-1="ent0002" data-entity-2="ent0017" data-link-type="dependency" data-source-line="39" id="lnk29"><path d="M92.56,406.77 C119.72,402.4 175.656,393.422 230.726,384.572" fill="none" id="User-to-UC13" style="stroke:#181818;stroke-width:1;"/><polygon fill="#181818" points="236.65,383.62,227.1293,381.0987,231.7133,384.4133,228.3987,388.9973,236.65,383.62" style="stroke:#181818;stroke-width:1;"/></g><!--link User to UC14--><g class="link" data-entity-1="ent0002" data-entity-2="ent0018" data-link-type="dependency" data-source-line="40" id="lnk30"><path d="M92.56,411.23 C125.02,416.32 201.1425,428.2503 261.9025,437.7803" fill="none" id="User-to-UC14" style="stroke:#181818;stroke-width:1;"/><polygon fill="#181818" points="267.83,438.71,259.5585,433.3637,262.8904,437.9352,258.3189,441.2671,267.83,438.71" style="stroke:#181818;stroke-width:1;"/></g><!--link User to UC15--><g class="link" data-entity-1="ent0002" data-entity-2="ent0019" data-link-type="dependency" data-source-line="41" id="lnk31"><path d="M92.74,421.55 C112.73,438.57 150.86,468.93 188,487.02 C209.15,497.33 227.3769,504.0665 249.9369,510.7465" fill="none" id="User-to-UC15" style="stroke:#181818;stroke-width:1;"/><polygon fill="#181818" points="255.69,512.45,248.196,506.0594,250.8958,511.0304,245.9247,513.7302,255.69,512.45" style="stroke:#181818;stroke-width:1;"/></g><!--link UC2 to UC1--><g class="link" data-entity-1="ent0006" data-entity-2="ent0005" data-link-type="dependency" data-source-line="43" id="lnk32"><path d="M776.72,564.26 C842.57,583.24 933.8544,609.5494 993.8144,626.8194" fill="none" id="UC2-to-UC1" style="stroke:#181818;stroke-width:1;stroke-dasharray:7,7;"/><polygon fill="#181818" points="999.58,628.48,992.0387,622.1453,994.7753,627.0961,989.8245,629.8328,999.58,628.48" style="stroke:#181818;stroke-width:1;"/><text fill="#000000" font-family="sans-serif" font-size="13" lengthAdjust="spacing" textLength="53.4917" x="856" y="585.5151">&#171;extend&#187;</text></g><!--link UC4 to UC6--><g class="link" data-entity-1="ent0008" data-entity-2="ent0010" data-link-type="dependency" data-source-line="45" id="lnk33"><path d="M787.86,933.02 C833.43,933.02 884.95,933.02 934.8,933.02" fill="none" id="UC4-to-UC6" style="stroke:#181818;stroke-width:1;stroke-dasharray:7,7;"/><polygon fill="#181818" points="940.8,933.02,931.8,929.02,935.8,933.02,931.8,937.02,940.8,933.02" style="stroke:#181818;stroke-width:1;"/><text fill="#000000" font-family="sans-serif" font-size="13" lengthAdjust="spacing" textLength="55.6563" x="855" y="929.5151">&#171;include&#187;</text></g><!--link UC5 to UC6--><g class="link" data-entity-1="ent0009" data-entity-2="ent0010" data-link-type="dependency" data-source-line="46" id="lnk34"><path d="M790.94,857.36 C849.82,874.33 921.7046,895.0487 977.2646,911.0587" fill="none" id="UC5-to-UC6" style="stroke:#181818;stroke-width:1;stroke-dasharray:7,7;"/><polygon fill="#181818" points="983.03,912.72,975.4894,906.3844,978.2255,911.3355,973.2743,914.0716,983.03,912.72" style="stroke:#181818;stroke-width:1;"/><text fill="#000000" font-family="sans-serif" font-size="13" lengthAdjust="spacing" textLength="55.6563" x="855" y="874.5151">&#171;include&#187;</text></g><!--link UC7 to UC4--><g class="link" data-entity-1="ent0011" data-entity-2="ent0008" data-link-type="dependency" data-source-line="47" id="lnk35"><path d="M455.7,939.2 C510.21,937.85 568.2219,936.4092 617.6719,935.1792" fill="none" id="UC7-to-UC4" style="stroke:#181818;stroke-width:1;stroke-dasharray:7,7;"/><polygon fill="#181818" points="623.67,935.03,614.5733,931.255,618.6715,935.1543,614.7722,939.2526,623.67,935.03" style="stroke:#181818;stroke-width:1;"/><text fill="#000000" font-family="sans-serif" font-size="13" lengthAdjust="spacing" textLength="53.4917" x="502" y="933.5151">&#171;extend&#187;</text></g><!--link A04 to UC1--><g class="link" data-entity-1="ent0003" data-entity-2="ent0005" data-link-type="dependency" data-source-line="49" id="lnk36"><path d="M93.33,1060.08 C110,1097.77 141.03,1152.61 188,1177.02 C333.87,1252.86 406.41,1217 557,1151.02 C724.56,1077.62 787.47,1075.95 911,941.02 C931.61,918.51 1014.5393,732.47 1042.3093,669.49" fill="none" id="A04-to-UC1" style="stroke:#181818;stroke-width:1;"/><polygon fill="#181818" points="1044.73,664,1037.4389,670.6212,1042.7127,668.575,1044.7589,673.8488,1044.73,664" style="stroke:#181818;stroke-width:1;"/></g><!--link A04 to UC4--><g class="link" data-entity-1="ent0003" data-entity-2="ent0008" data-link-type="dependency" data-source-line="50" id="lnk37"><path d="M106.75,1060.31 C124.7,1081.77 149.99,1106.31 179,1118.02 C334.78,1180.94 405.64,1190.93 557,1118.02 C626.21,1084.69 670.4349,1006.7593 690.6349,964.2493" fill="none" id="A04-to-UC4" style="stroke:#181818;stroke-width:1;"/><polygon fill="#181818" points="693.21,958.83,685.7344,965.2422,691.064,963.3461,692.9601,968.6757,693.21,958.83" style="stroke:#181818;stroke-width:1;"/></g><!--link A04 to UC5--><g class="link" data-entity-1="ent0003" data-entity-2="ent0009" data-link-type="dependency" data-source-line="51" id="lnk38"><path d="M149.05,1051.63 C251.42,1090.73 441.49,1142.66 557,1047.02 C612.05,1001.44 543.35,945.63 587,889.02 C596.66,876.5 604.5633,869.5225 618.5933,861.8025" fill="none" id="A04-to-UC5" style="stroke:#181818;stroke-width:1;"/><polygon fill="#181818" points="623.85,858.91,614.0365,859.7443,619.4694,861.3204,617.8932,866.7533,623.85,858.91" style="stroke:#181818;stroke-width:1;"/></g><!--link A04 to UC6--><g class="link" data-entity-1="ent0003" data-entity-2="ent0010" data-link-type="dependency" data-source-line="52" id="lnk39"><path d="M82.03,1060.32 C89.37,1115.8 111.7,1215.32 179,1260.02 C449.99,1440.05 638.86,1438.29 911,1260.02 C1016.68,1190.8 1043.7838,1030.2162 1050.6938,965.4162" fill="none" id="A04-to-UC6" style="stroke:#181818;stroke-width:1;"/><polygon fill="#181818" points="1051.33,959.45,1046.3982,967.9751,1050.7998,964.4218,1054.3531,968.8234,1051.33,959.45" style="stroke:#181818;stroke-width:1;"/></g><!--link A04 to UC8--><g class="link" data-entity-1="ent0003" data-entity-2="ent0012" data-link-type="dependency" data-source-line="53" id="lnk40"><path d="M78.57,981.97 C80.9,907.9 96.85,746.52 188,658.02 C203.98,642.51 219.4209,634.3583 240.9109,628.2183" fill="none" id="A04-to-UC8" style="stroke:#181818;stroke-width:1;"/><polygon fill="#181818" points="246.68,626.57,236.9274,625.1964,241.8724,627.9436,239.1252,632.8886,246.68,626.57" style="stroke:#181818;stroke-width:1;"/></g><!--link A04 to UC9--><g class="link" data-entity-1="ent0003" data-entity-2="ent0013" data-link-type="dependency" data-source-line="54" id="lnk41"><path d="M82.67,981.62 C91.24,920.75 116.49,804.19 188,740.02 C204.48,725.24 219.9819,717.3519 241.3519,711.2319" fill="none" id="A04-to-UC9" style="stroke:#181818;stroke-width:1;"/><polygon fill="#181818" points="247.12,709.58,237.3666,708.2124,242.3132,710.9566,239.5691,715.9033,247.12,709.58" style="stroke:#181818;stroke-width:1;"/></g><!--link A04 to UC10--><g class="link" data-entity-1="ent0003" data-entity-2="ent0014" data-link-type="dependency" data-source-line="55" id="lnk42"><path d="M90.16,981.8 C105.43,937.23 136.49,865.45 188,825.02 C204.8,811.84 219.7247,804.5195 240.3547,798.3095" fill="none" id="A04-to-UC10" style="stroke:#181818;stroke-width:1;"/><polygon fill="#181818" points="246.1,796.58,236.329,795.3439,241.3122,798.0212,238.6349,803.0044,246.1,796.58" style="stroke:#181818;stroke-width:1;"/></g><!--link A04 to UC11--><g class="link" data-entity-1="ent0003" data-entity-2="ent0015" data-link-type="dependency" data-source-line="56" id="lnk43"><path d="M149.38,1035.82 C257.67,1053.74 461.73,1068.07 557,947.02 C604.45,886.74 541.39,838.72 587,777.02 C599.6,759.99 613.0218,750.0283 631.9418,740.9383" fill="none" id="A04-to-UC11" style="stroke:#181818;stroke-width:1;"/><polygon fill="#181818" points="637.35,738.34,627.5055,738.632,632.8432,740.5053,630.9699,745.843,637.35,738.34" style="stroke:#181818;stroke-width:1;"/></g><!--link A04 to UC12--><g class="link" data-entity-1="ent0003" data-entity-2="ent0016" data-link-type="dependency" data-source-line="57" id="lnk44"><path d="M104.09,981.76 C123.84,954.54 153.56,919.62 188,899.02 C211.89,884.73 235.1418,877.1629 261.4818,871.7729" fill="none" id="A04-to-UC12" style="stroke:#181818;stroke-width:1;"/><polygon fill="#181818" points="267.36,870.57,257.7408,868.4555,262.4615,871.5724,259.3446,876.2931,267.36,870.57" style="stroke:#181818;stroke-width:1;"/></g><!--link UC8 to UC3--><g class="link" data-entity-1="ent0012" data-entity-2="ent0007" data-link-type="dependency" data-source-line="59" id="lnk45"><path d="M442.98,620.37 C493.57,622.04 548.6233,623.8613 599.0133,625.5313" fill="none" id="UC8-to-UC3" style="stroke:#181818;stroke-width:1;stroke-dasharray:7,7;"/><polygon fill="#181818" points="605.01,625.73,596.1474,621.4341,600.0127,625.5644,595.8824,629.4297,605.01,625.73" style="stroke:#181818;stroke-width:1;"/><text fill="#000000" font-family="sans-serif" font-size="13" lengthAdjust="spacing" textLength="53.4917" x="502" y="619.5151">&#171;extend&#187;</text></g><!--link UC9 to UC3--><g class="link" data-entity-1="ent0013" data-entity-2="ent0007" data-link-type="dependency" data-source-line="60" id="lnk46"><path d="M421.1,683.75 C482.66,671.86 561.6688,656.6075 622.4688,644.8675" fill="none" id="UC9-to-UC3" style="stroke:#181818;stroke-width:1;stroke-dasharray:7,7;"/><polygon fill="#181818" points="628.36,643.73,618.7649,641.5089,623.4507,644.678,620.2816,649.3638,628.36,643.73" style="stroke:#181818;stroke-width:1;"/><text fill="#000000" font-family="sans-serif" font-size="13" lengthAdjust="spacing" textLength="53.4917" x="502" y="654.5151">&#171;extend&#187;</text></g><!--link UC10 to UC3--><g class="link" data-entity-1="ent0014" data-entity-2="ent0007" data-link-type="dependency" data-source-line="61" id="lnk47"><path d="M408.17,762.94 C428.27,756.27 450.25,748.39 470,740.02 C510.08,723.04 520,717.97 557,695.02 C571.05,686.31 572.45,680.89 587,673.02 C605.49,663.03 621.0977,656.3606 640.3977,649.3806" fill="none" id="UC10-to-UC3" style="stroke:#181818;stroke-width:1;stroke-dasharray:7,7;"/><polygon fill="#181818" points="646.04,647.34,636.2161,646.6393,641.3381,649.0405,638.9369,654.1625,646.04,647.34" style="stroke:#181818;stroke-width:1;"/><text fill="#000000" font-family="sans-serif" font-size="13" lengthAdjust="spacing" textLength="53.4917" x="502" y="691.5151">&#171;extend&#187;</text></g><!--link UC11 to UC1--><g class="link" data-entity-1="ent0015" data-entity-2="ent0005" data-link-type="dependency" data-source-line="63" id="lnk48"><path d="M794.67,699.81 C830.77,692.64 872.92,684.12 911,676.02 C937.66,670.36 961.2081,665.135 986.3381,659.445" fill="none" id="UC11-to-UC1" style="stroke:#181818;stroke-width:1;stroke-dasharray:7,7;"/><polygon fill="#181818" points="992.19,658.12,982.5289,656.2062,987.3134,659.2242,984.2955,664.0087,992.19,658.12" style="stroke:#181818;stroke-width:1;"/><text fill="#000000" font-family="sans-serif" font-size="13" lengthAdjust="spacing" textLength="53.4917" x="856" y="672.5151">&#171;extend&#187;</text></g><!--link UC12 to UC11--><g class="link" data-entity-1="ent0016" data-entity-2="ent0015" data-link-type="dependency" data-source-line="64" id="lnk49"><path d="M422.47,864.18 C465.61,861.69 517.79,852.49 557,826.02 C578.17,811.74 568.26,794.37 587,777.02 C603.73,761.54 619.7814,751.6066 639.7814,742.0966" fill="none" id="UC12-to-UC11" style="stroke:#181818;stroke-width:1;stroke-dasharray:7,7;"/><polygon fill="#181818" points="645.2,739.52,635.3544,739.7724,640.6845,741.6671,638.7898,746.9972,645.2,739.52" style="stroke:#181818;stroke-width:1;"/><text fill="#000000" font-family="sans-serif" font-size="13" lengthAdjust="spacing" textLength="55.6563" x="501" y="822.5151">&#171;include&#187;</text></g><!--link UC15 to UC3--><g class="link" data-entity-1="ent0019" data-entity-2="ent0007" data-link-type="dependency" data-source-line="66" id="lnk50"><path d="M419.77,552.83 C485.4,570.4 572.4637,593.6998 634.0837,610.1798" fill="none" id="UC15-to-UC3" style="stroke:#181818;stroke-width:1;stroke-dasharray:7,7;"/><polygon fill="#181818" points="639.88,611.73,632.219,605.5405,635.0498,610.4382,630.1521,613.2689,639.88,611.73" style="stroke:#181818;stroke-width:1;"/><text fill="#000000" font-family="sans-serif" font-size="13" lengthAdjust="spacing" textLength="53.4917" x="502" y="571.5151">&#171;extend&#187;</text></g><?plantuml-src XLJ1Rjf04BtxAqQS4eaW38P05I6bjCebKQiWUk8oUCUmYhrhxIwbKTL_xwonOGsalStepNlpTcRid387JeEHcwq38GsbJceLHPWwRM1foTHXP_5k7HLmyndJDr827ll9RGVG-Y2AF17L9YSkBD2uPvsY8rWyhTHtRLocSwdXHOjTJXtu7KK0EqifMgx_8MaFvR4ezqpsO2lnvJmEQnU49jq2-ybaxiYSgbVgPlqE2WloA0fXoDhRMcFGriZPx949cT75gN_D65vQF19igWrnlrGNfRRIKTCckU1OnnJhP6fXRGZVXDuhPWegzCPWkMMW2vYcxBMxKeQKmxmBNfYSzCqQwL4e_QnHWCMV90vUm2eixLQxbQeU8z3XcYjhxZZalbB6azdMnAgym1AoNE_Pc2vzKyoRjlUjCJmA0KhpMlbYR3L5Tj2CfMPCGi9N8Ts1aV5IFg9CGyeNBkBw_vBYVlIFfTgAw-U8HbhjPrv81OFcNN7hgfwqVz6ygYOeSTDCBXwqcinvXQwwhuChME-iLBmxA8tcW_H7GRrDZpU86NNvHbs5MhSJKXzx3qFDPIcyvhbIKvkq37mhILrE1FXbBxp3qFWe-XD5_lE5kxjPzHK5oJ1CaZ0PXSaaJAOjjNuhQudppCAirIjkDMEJ4N-RqEjL6No2XmVwvVZdCfjv9AcHSOL8bUOxGGonpG-H-nf9pjJu9tMSn2bEWdWKnECWdWJnDDJfXqcewg-6URMJOTi9Ytm4nFthY8VYwrFopHeaFXk61qTN5Vy2?></g></svg>