<?plantuml 1.2026.2?><svg xmlns="http://www.w3.org/2000/svg" xmlns:xlink="http://www.w3.org/1999/xlink" contentStyleType="text/css" data-diagram-type="CLASS" height="595px" preserveAspectRatio="none" style="width:913px;height:595px;background:#FFFFFF;" version="1.1" viewBox="0 0 913 595" width="913px" zoomAndPan="magnify"><defs/><g><!--cluster Portfolio UI (Boundary)--><g class="cluster" data-qualified-name="Portfolio UI .Boundary." data-source-line="5" id="ent0003"><path d="M161.5,112 L316.4863,112 A3.75,3.75 0 0 1 318.9863,114.5 L325.9863,135.6094 L373.5,135.6094 A2.5,2.5 0 0 1 376,138.1094 L376,503.5 A2.5,2.5 0 0 1 373.5,506 L161.5,506 A2.5,2.5 0 0 1 159,503.5 L159,114.5 A2.5,2.5 0 0 1 161.5,112" fill="none" style="stroke:#000000;stroke-width:1.5;"/><line style="stroke:#000000;stroke-width:1.5;" x1="159" x2="325.9863" y1="135.6094" y2="135.6094"/><text fill="#000000" font-family="sans-serif" font-size="14" font-weight="bold" lengthAdjust="spacing" textLength="153.9863" x="163" y="128.5332">Portfolio UI (Boundary)</text></g><!--cluster Portfolio Logic (Control)--><g class="cluster" data-qualified-name="Portfolio Logic .Control." data-source-line="12" id="ent0008"><path d="M526.5,112 L689.2451,112 A3.75,3.75 0 0 1 691.7451,114.5 L698.7451,135.6094 L699.5,135.6094 A2.5,2.5 0 0 1 702,138.1094 L702,503.5 A2.5,2.5 0 0 1 699.5,506 L526.5,506 A2.5,2.5 0 0 1 524,503.5 L524,114.5 A2.5,2.5 0 0 1 526.5,112" fill="none" style="stroke:#000000;stroke-width:1.5;"/><line style="stroke:#000000;stroke-width:1.5;" x1="524" x2="698.7451" y1="135.6094" y2="135.6094"/><text fill="#000000" font-family="sans-serif" font-size="14" font-weight="bold" lengthAdjust="spacing" textLength="161.7451" x="528" y="128.5332">Portfolio Logic (Control)</text></g><!--cluster Domain Data (Entity)--><g class="cluster" data-qualified-name="Domain Data .Entity." data-source-line="19" id="ent0013"><path d="M737.5,6 L876.1758,6 A3.75,3.75 0 0 1 878.6758,8.5 L885.6758,29.6094 L903.5,29.6094 A2.5,2.5 0 0 1 906,32.1094 L906,585.5 A2.5,2.5 0 0 1 903.5,588 L737.5,588 A2.5,2.5 0 0 1 735,585.5 L735,8.5 A2.5,2.5 0 0 1 737.5,6" fill="none" style="stroke:#000000;stroke-width:1.5;"/><line style="stroke:#000000;stroke-width:1.5;" x1="735" x2="885.6758" y1="29.6094" y2="29.6094"/><text fill="#000000" font-family="sans-serif" font-size="14" font-weight="bold" lengthAdjust="spacing" textLength="137.6758" x="739" y="22.5332">Domain Data (Entity)</text></g><!--class B_Dashboard--><g class="entity" data-qualified-name="Portfolio UI .Boundary..B_Dashboard" data-source-line="6" id="ent0004"><rect fill="#F1F1F1" height="58.7031" rx="2.5" ry="2.5" style="stroke:#181818;stroke-width:0.5;" width="184.5439" x="175" y="242.5"/><ellipse cx="190" cy="263.8516" fill="#ADD1B2" rx="11" ry="11" style="stroke:#181818;stroke-width:1;"/><path d="M192.7656,259.7266 Q192.9219,259.5078 193.1094,259.3984 Q193.2969,259.2891 193.5156,259.2891 Q193.8906,259.2891 194.125,259.5547 Q194.3594,259.8047 194.3594,260.4141 L194.3594,261.8672 Q194.3594,262.4766 194.125,262.7422 Q193.8906,263.0078 193.5156,263.0078 Q193.1719,263.0078 192.9688,262.8047 Q192.7656,262.6172 192.6563,262.1016 Q192.6094,261.7422 192.4219,261.5547 Q192.0938,261.1797 191.4844,260.9609 Q190.875,260.7422 190.25,260.7422 Q189.4844,260.7422 188.8438,261.0703 Q188.2188,261.3984 187.7188,262.1484 Q187.2344,262.8984 187.2344,263.9297 L187.2344,265.0234 Q187.2344,266.2578 188.125,267.0859 Q189.0156,267.8984 190.6094,267.8984 Q191.5469,267.8984 192.2031,267.6484 Q192.5938,267.4922 193.0156,267.0547 Q193.2813,266.7891 193.4219,266.7109 Q193.5781,266.6328 193.7813,266.6328 Q194.1094,266.6328 194.3594,266.8984 Q194.625,267.1484 194.625,267.4922 Q194.625,267.8359 194.2813,268.2422 Q193.7813,268.8203 192.9844,269.1484 Q191.9063,269.6016 190.6094,269.6016 Q189.0938,269.6016 187.8906,268.9766 Q186.9063,268.4766 186.2188,267.4141 Q185.5313,266.3359 185.5313,265.0547 L185.5313,263.8984 Q185.5313,262.5703 186.1406,261.4297 Q186.7656,260.2734 187.8594,259.6641 Q188.9531,259.0391 190.1875,259.0391 Q190.9219,259.0391 191.5625,259.2109 Q192.2188,259.3672 192.7656,259.7266 Z " fill="#000000"/><text fill="#000000" font-family="sans-serif" font-size="12" font-style="italic" lengthAdjust="spacing" textLength="63.3867" x="248.5786" y="259.957">&#171;boundary&#187;</text><text fill="#000000" font-family="sans-serif" font-size="14" lengthAdjust="spacing" textLength="152.5439" x="204" y="277.127">PortfolioDashboardPage</text><line style="stroke:#181818;stroke-width:0.5;" x1="176" x2="358.5439" y1="285.2031" y2="285.2031"/><line style="stroke:#181818;stroke-width:0.5;" x1="176" x2="358.5439" y1="293.2031" y2="293.2031"/></g><!--class B_Details--><g class="entity" data-qualified-name="Portfolio UI .Boundary..B_Details" data-source-line="7" id="ent0005"><rect fill="#F1F1F1" height="58.7031" rx="2.5" ry="2.5" style="stroke:#181818;stroke-width:0.5;" width="160.4199" x="187.5" y="148.5"/><ellipse cx="202.5" cy="169.8516" fill="#ADD1B2" rx="11" ry="11" style="stroke:#181818;stroke-width:1;"/><path d="M205.2656,165.7266 Q205.4219,165.5078 205.6094,165.3984 Q205.7969,165.2891 206.0156,165.2891 Q206.3906,165.2891 206.625,165.5547 Q206.8594,165.8047 206.8594,166.4141 L206.8594,167.8672 Q206.8594,168.4766 206.625,168.7422 Q206.3906,169.0078 206.0156,169.0078 Q205.6719,169.0078 205.4688,168.8047 Q205.2656,168.6172 205.1563,168.1016 Q205.1094,167.7422 204.9219,167.5547 Q204.5938,167.1797 203.9844,166.9609 Q203.375,166.7422 202.75,166.7422 Q201.9844,166.7422 201.3438,167.0703 Q200.7188,167.3984 200.2188,168.1484 Q199.7344,168.8984 199.7344,169.9297 L199.7344,171.0234 Q199.7344,172.2578 200.625,173.0859 Q201.5156,173.8984 203.1094,173.8984 Q204.0469,173.8984 204.7031,173.6484 Q205.0938,173.4922 205.5156,173.0547 Q205.7813,172.7891 205.9219,172.7109 Q206.0781,172.6328 206.2813,172.6328 Q206.6094,172.6328 206.8594,172.8984 Q207.125,173.1484 207.125,173.4922 Q207.125,173.8359 206.7813,174.2422 Q206.2813,174.8203 205.4844,175.1484 Q204.4063,175.6016 203.1094,175.6016 Q201.5938,175.6016 200.3906,174.9766 Q199.4063,174.4766 198.7188,173.4141 Q198.0313,172.3359 198.0313,171.0547 L198.0313,169.8984 Q198.0313,168.5703 198.6406,167.4297 Q199.2656,166.2734 200.3594,165.6641 Q201.4531,165.0391 202.6875,165.0391 Q203.4219,165.0391 204.0625,165.2109 Q204.7188,165.3672 205.2656,165.7266 Z " fill="#000000"/><text fill="#000000" font-family="sans-serif" font-size="12" font-style="italic" lengthAdjust="spacing" textLength="63.3867" x="249.0166" y="165.957">&#171;boundary&#187;</text><text fill="#000000" font-family="sans-serif" font-size="14" lengthAdjust="spacing" textLength="128.4199" x="216.5" y="183.127">LocationDetailsPage</text><line style="stroke:#181818;stroke-width:0.5;" x1="188.5" x2="346.9199" y1="191.2031" y2="191.2031"/><line style="stroke:#181818;stroke-width:0.5;" x1="188.5" x2="346.9199" y1="199.2031" y2="199.2031"/></g><!--class B_Notes--><g class="entity" data-qualified-name="Portfolio UI .Boundary..B_Notes" data-source-line="8" id="ent0006"><rect fill="#F1F1F1" height="58.7031" rx="2.5" ry="2.5" style="stroke:#181818;stroke-width:0.5;" width="104.3789" x="215.5" y="336.5"/><ellipse cx="230.5" cy="357.8516" fill="#ADD1B2" rx="11" ry="11" style="stroke:#181818;stroke-width:1;"/><path d="M233.2656,353.7266 Q233.4219,353.5078 233.6094,353.3984 Q233.7969,353.2891 234.0156,353.2891 Q234.3906,353.2891 234.625,353.5547 Q234.8594,353.8047 234.8594,354.4141 L234.8594,355.8672 Q234.8594,356.4766 234.625,356.7422 Q234.3906,357.0078 234.0156,357.0078 Q233.6719,357.0078 233.4688,356.8047 Q233.2656,356.6172 233.1563,356.1016 Q233.1094,355.7422 232.9219,355.5547 Q232.5938,355.1797 231.9844,354.9609 Q231.375,354.7422 230.75,354.7422 Q229.9844,354.7422 229.3438,355.0703 Q228.7188,355.3984 228.2188,356.1484 Q227.7344,356.8984 227.7344,357.9297 L227.7344,359.0234 Q227.7344,360.2578 228.625,361.0859 Q229.5156,361.8984 231.1094,361.8984 Q232.0469,361.8984 232.7031,361.6484 Q233.0938,361.4922 233.5156,361.0547 Q233.7813,360.7891 233.9219,360.7109 Q234.0781,360.6328 234.2813,360.6328 Q234.6094,360.6328 234.8594,360.8984 Q235.125,361.1484 235.125,361.4922 Q235.125,361.8359 234.7813,362.2422 Q234.2813,362.8203 233.4844,363.1484 Q232.4063,363.6016 231.1094,363.6016 Q229.5938,363.6016 228.3906,362.9766 Q227.4063,362.4766 226.7188,361.4141 Q226.0313,360.3359 226.0313,359.0547 L226.0313,357.8984 Q226.0313,356.5703 226.6406,355.4297 Q227.2656,354.2734 228.3594,353.6641 Q229.4531,353.0391 230.6875,353.0391 Q231.4219,353.0391 232.0625,353.2109 Q232.7188,353.3672 233.2656,353.7266 Z " fill="#000000"/><text fill="#000000" font-family="sans-serif" font-size="12" font-style="italic" lengthAdjust="spacing" textLength="63.3867" x="248.9961" y="353.957">&#171;boundary&#187;</text><text fill="#000000" font-family="sans-serif" font-size="14" lengthAdjust="spacing" textLength="72.3789" x="244.5" y="371.127">NotesPanel</text><line style="stroke:#181818;stroke-width:0.5;" x1="216.5" x2="318.8789" y1="379.2031" y2="379.2031"/><line style="stroke:#181818;stroke-width:0.5;" x1="216.5" x2="318.8789" y1="387.2031" y2="387.2031"/></g><!--class B_Map--><g class="entity" data-qualified-name="Portfolio UI .Boundary..B_Map" data-source-line="9" id="ent0007"><rect fill="#F1F1F1" height="58.7031" rx="2.5" ry="2.5" style="stroke:#181818;stroke-width:0.5;" width="91.9307" x="221.5" y="430.5"/><ellipse cx="236.5" cy="451.8516" fill="#ADD1B2" rx="11" ry="11" style="stroke:#181818;stroke-width:1;"/><path d="M239.2656,447.7266 Q239.4219,447.5078 239.6094,447.3984 Q239.7969,447.2891 240.0156,447.2891 Q240.3906,447.2891 240.625,447.5547 Q240.8594,447.8047 240.8594,448.4141 L240.8594,449.8672 Q240.8594,450.4766 240.625,450.7422 Q240.3906,451.0078 240.0156,451.0078 Q239.6719,451.0078 239.4688,450.8047 Q239.2656,450.6172 239.1563,450.1016 Q239.1094,449.7422 238.9219,449.5547 Q238.5938,449.1797 237.9844,448.9609 Q237.375,448.7422 236.75,448.7422 Q235.9844,448.7422 235.3438,449.0703 Q234.7188,449.3984 234.2188,450.1484 Q233.7344,450.8984 233.7344,451.9297 L233.7344,453.0234 Q233.7344,454.2578 234.625,455.0859 Q235.5156,455.8984 237.1094,455.8984 Q238.0469,455.8984 238.7031,455.6484 Q239.0938,455.4922 239.5156,455.0547 Q239.7813,454.7891 239.9219,454.7109 Q240.0781,454.6328 240.2813,454.6328 Q240.6094,454.6328 240.8594,454.8984 Q241.125,455.1484 241.125,455.4922 Q241.125,455.8359 240.7813,456.2422 Q240.2813,456.8203 239.4844,457.1484 Q238.4063,457.6016 237.1094,457.6016 Q235.5938,457.6016 234.3906,456.9766 Q233.4063,456.4766 232.7188,455.4141 Q232.0313,454.3359 232.0313,453.0547 L232.0313,451.8984 Q232.0313,450.5703 232.6406,449.4297 Q233.2656,448.2734 234.3594,447.6641 Q235.4531,447.0391 236.6875,447.0391 Q237.4219,447.0391 238.0625,447.2109 Q238.7188,447.3672 239.2656,447.7266 Z " fill="#000000"/><text fill="#000000" font-family="sans-serif" font-size="12" font-style="italic" lengthAdjust="spacing" textLength="63.3867" x="248.772" y="447.957">&#171;boundary&#187;</text><text fill="#000000" font-family="sans-serif" font-size="14" lengthAdjust="spacing" textLength="59.9307" x="250.5" y="465.127">MapPage</text><line style="stroke:#181818;stroke-width:0.5;" x1="222.5" x2="312.4307" y1="473.2031" y2="473.2031"/><line style="stroke:#181818;stroke-width:0.5;" x1="222.5" x2="312.4307" y1="481.2031" y2="481.2031"/></g><!--class C_Portfolio--><g class="entity" data-qualified-name="Portfolio Logic .Control..C_Portfolio" data-source-line="13" id="ent0009"><rect fill="#F1F1F1" height="58.7031" rx="2.5" ry="2.5" style="stroke:#181818;stroke-width:0.5;" width="144.0479" x="541" y="242.5"/><ellipse cx="556" cy="263.8516" fill="#ADD1B2" rx="11" ry="11" style="stroke:#181818;stroke-width:1;"/><path d="M558.7656,259.7266 Q558.9219,259.5078 559.1094,259.3984 Q559.2969,259.2891 559.5156,259.2891 Q559.8906,259.2891 560.125,259.5547 Q560.3594,259.8047 560.3594,260.4141 L560.3594,261.8672 Q560.3594,262.4766 560.125,262.7422 Q559.8906,263.0078 559.5156,263.0078 Q559.1719,263.0078 558.9688,262.8047 Q558.7656,262.6172 558.6563,262.1016 Q558.6094,261.7422 558.4219,261.5547 Q558.0938,261.1797 557.4844,260.9609 Q556.875,260.7422 556.25,260.7422 Q555.4844,260.7422 554.8438,261.0703 Q554.2188,261.3984 553.7188,262.1484 Q553.2344,262.8984 553.2344,263.9297 L553.2344,265.0234 Q553.2344,266.2578 554.125,267.0859 Q555.0156,267.8984 556.6094,267.8984 Q557.5469,267.8984 558.2031,267.6484 Q558.5938,267.4922 559.0156,267.0547 Q559.2813,266.7891 559.4219,266.7109 Q559.5781,266.6328 559.7813,266.6328 Q560.1094,266.6328 560.3594,266.8984 Q560.625,267.1484 560.625,267.4922 Q560.625,267.8359 560.2813,268.2422 Q559.7813,268.8203 558.9844,269.1484 Q557.9063,269.6016 556.6094,269.6016 Q555.0938,269.6016 553.8906,268.9766 Q552.9063,268.4766 552.2188,267.4141 Q551.5313,266.3359 551.5313,265.0547 L551.5313,263.8984 Q551.5313,262.5703 552.1406,261.4297 Q552.7656,260.2734 553.8594,259.6641 Q554.9531,259.0391 556.1875,259.0391 Q556.9219,259.0391 557.5625,259.2109 Q558.2188,259.3672 558.7656,259.7266 Z " fill="#000000"/><text fill="#000000" font-family="sans-serif" font-size="12" font-style="italic" lengthAdjust="spacing" textLength="49.3652" x="601.3413" y="259.957">&#171;control&#187;</text><text fill="#000000" font-family="sans-serif" font-size="14" lengthAdjust="spacing" textLength="112.0479" x="570" y="277.127">PortfolioController</text><line style="stroke:#181818;stroke-width:0.5;" x1="542" x2="684.0479" y1="285.2031" y2="285.2031"/><line style="stroke:#181818;stroke-width:0.5;" x1="542" x2="684.0479" y1="293.2031" y2="293.2031"/></g><!--class C_Location--><g class="entity" data-qualified-name="Portfolio Logic .Control..C_Location" data-source-line="14" id="ent0010"><rect fill="#F1F1F1" height="58.7031" rx="2.5" ry="2.5" style="stroke:#181818;stroke-width:0.5;" width="145.6201" x="540" y="148.5"/><ellipse cx="555" cy="169.8516" fill="#ADD1B2" rx="11" ry="11" style="stroke:#181818;stroke-width:1;"/><path d="M557.7656,165.7266 Q557.9219,165.5078 558.1094,165.3984 Q558.2969,165.2891 558.5156,165.2891 Q558.8906,165.2891 559.125,165.5547 Q559.3594,165.8047 559.3594,166.4141 L559.3594,167.8672 Q559.3594,168.4766 559.125,168.7422 Q558.8906,169.0078 558.5156,169.0078 Q558.1719,169.0078 557.9688,168.8047 Q557.7656,168.6172 557.6563,168.1016 Q557.6094,167.7422 557.4219,167.5547 Q557.0938,167.1797 556.4844,166.9609 Q555.875,166.7422 555.25,166.7422 Q554.4844,166.7422 553.8438,167.0703 Q553.2188,167.3984 552.7188,168.1484 Q552.2344,168.8984 552.2344,169.9297 L552.2344,171.0234 Q552.2344,172.2578 553.125,173.0859 Q554.0156,173.8984 555.6094,173.8984 Q556.5469,173.8984 557.2031,173.6484 Q557.5938,173.4922 558.0156,173.0547 Q558.2813,172.7891 558.4219,172.7109 Q558.5781,172.6328 558.7813,172.6328 Q559.1094,172.6328 559.3594,172.8984 Q559.625,173.1484 559.625,173.4922 Q559.625,173.8359 559.2813,174.2422 Q558.7813,174.8203 557.9844,175.1484 Q556.9063,175.6016 555.6094,175.6016 Q554.0938,175.6016 552.8906,174.9766 Q551.9063,174.4766 551.2188,173.4141 Q550.5313,172.3359 550.5313,171.0547 L550.5313,169.8984 Q550.5313,168.5703 551.1406,167.4297 Q551.7656,166.2734 552.8594,165.6641 Q553.9531,165.0391 555.1875,165.0391 Q555.9219,165.0391 556.5625,165.2109 Q557.2188,165.3672 557.7656,165.7266 Z " fill="#000000"/><text fill="#000000" font-family="sans-serif" font-size="12" font-style="italic" lengthAdjust="spacing" textLength="49.3652" x="601.1274" y="165.957">&#171;control&#187;</text><text fill="#000000" font-family="sans-serif" font-size="14" lengthAdjust="spacing" textLength="113.6201" x="569" y="183.127">LocationController</text><line style="stroke:#181818;stroke-width:0.5;" x1="541" x2="684.6201" y1="191.2031" y2="191.2031"/><line style="stroke:#181818;stroke-width:0.5;" x1="541" x2="684.6201" y1="199.2031" y2="199.2031"/></g><!--class C_Notes--><g class="entity" data-qualified-name="Portfolio Logic .Control..C_Notes" data-source-line="15" id="ent0011"><rect fill="#F1F1F1" height="58.7031" rx="2.5" ry="2.5" style="stroke:#181818;stroke-width:0.5;" width="129.2617" x="548.5" y="336.5"/><ellipse cx="563.5" cy="357.8516" fill="#ADD1B2" rx="11" ry="11" style="stroke:#181818;stroke-width:1;"/><path d="M566.2656,353.7266 Q566.4219,353.5078 566.6094,353.3984 Q566.7969,353.2891 567.0156,353.2891 Q567.3906,353.2891 567.625,353.5547 Q567.8594,353.8047 567.8594,354.4141 L567.8594,355.8672 Q567.8594,356.4766 567.625,356.7422 Q567.3906,357.0078 567.0156,357.0078 Q566.6719,357.0078 566.4688,356.8047 Q566.2656,356.6172 566.1563,356.1016 Q566.1094,355.7422 565.9219,355.5547 Q565.5938,355.1797 564.9844,354.9609 Q564.375,354.7422 563.75,354.7422 Q562.9844,354.7422 562.3438,355.0703 Q561.7188,355.3984 561.2188,356.1484 Q560.7344,356.8984 560.7344,357.9297 L560.7344,359.0234 Q560.7344,360.2578 561.625,361.0859 Q562.5156,361.8984 564.1094,361.8984 Q565.0469,361.8984 565.7031,361.6484 Q566.0938,361.4922 566.5156,361.0547 Q566.7813,360.7891 566.9219,360.7109 Q567.0781,360.6328 567.2813,360.6328 Q567.6094,360.6328 567.8594,360.8984 Q568.125,361.1484 568.125,361.4922 Q568.125,361.8359 567.7813,362.2422 Q567.2813,362.8203 566.4844,363.1484 Q565.4063,363.6016 564.1094,363.6016 Q562.5938,363.6016 561.3906,362.9766 Q560.4063,362.4766 559.7188,361.4141 Q559.0313,360.3359 559.0313,359.0547 L559.0313,357.8984 Q559.0313,356.5703 559.6406,355.4297 Q560.2656,354.2734 561.3594,353.6641 Q562.4531,353.0391 563.6875,353.0391 Q564.4219,353.0391 565.0625,353.2109 Q565.7188,353.3672 566.2656,353.7266 Z " fill="#000000"/><text fill="#000000" font-family="sans-serif" font-size="12" font-style="italic" lengthAdjust="spacing" textLength="49.3652" x="601.4482" y="353.957">&#171;control&#187;</text><text fill="#000000" font-family="sans-serif" font-size="14" lengthAdjust="spacing" textLength="97.2617" x="577.5" y="371.127">NotesController</text><line style="stroke:#181818;stroke-width:0.5;" x1="549.5" x2="676.7617" y1="379.2031" y2="379.2031"/><line style="stroke:#181818;stroke-width:0.5;" x1="549.5" x2="676.7617" y1="387.2031" y2="387.2031"/></g><!--class C_Map--><g class="entity" data-qualified-name="Portfolio Logic .Control..C_Map" data-source-line="16" id="ent0012"><rect fill="#F1F1F1" height="58.7031" rx="2.5" ry="2.5" style="stroke:#181818;stroke-width:0.5;" width="119.9238" x="553" y="430.5"/><ellipse cx="568" cy="451.8516" fill="#ADD1B2" rx="11" ry="11" style="stroke:#181818;stroke-width:1;"/><path d="M570.7656,447.7266 Q570.9219,447.5078 571.1094,447.3984 Q571.2969,447.2891 571.5156,447.2891 Q571.8906,447.2891 572.125,447.5547 Q572.3594,447.8047 572.3594,448.4141 L572.3594,449.8672 Q572.3594,450.4766 572.125,450.7422 Q571.8906,451.0078 571.5156,451.0078 Q571.1719,451.0078 570.9688,450.8047 Q570.7656,450.6172 570.6563,450.1016 Q570.6094,449.7422 570.4219,449.5547 Q570.0938,449.1797 569.4844,448.9609 Q568.875,448.7422 568.25,448.7422 Q567.4844,448.7422 566.8438,449.0703 Q566.2188,449.3984 565.7188,450.1484 Q565.2344,450.8984 565.2344,451.9297 L565.2344,453.0234 Q565.2344,454.2578 566.125,455.0859 Q567.0156,455.8984 568.6094,455.8984 Q569.5469,455.8984 570.2031,455.6484 Q570.5938,455.4922 571.0156,455.0547 Q571.2813,454.7891 571.4219,454.7109 Q571.5781,454.6328 571.7813,454.6328 Q572.1094,454.6328 572.3594,454.8984 Q572.625,455.1484 572.625,455.4922 Q572.625,455.8359 572.2813,456.2422 Q571.7813,456.8203 570.9844,457.1484 Q569.9063,457.6016 568.6094,457.6016 Q567.0938,457.6016 565.8906,456.9766 Q564.9063,456.4766 564.2188,455.4141 Q563.5313,454.3359 563.5313,453.0547 L563.5313,451.8984 Q563.5313,450.5703 564.1406,449.4297 Q564.7656,448.2734 565.8594,447.6641 Q566.9531,447.0391 568.1875,447.0391 Q568.9219,447.0391 569.5625,447.2109 Q570.2188,447.3672 570.7656,447.7266 Z " fill="#000000"/><text fill="#000000" font-family="sans-serif" font-size="12" font-style="italic" lengthAdjust="spacing" textLength="49.3652" x="601.2793" y="447.957">&#171;control&#187;</text><text fill="#000000" font-family="sans-serif" font-size="14" lengthAdjust="spacing" textLength="87.9238" x="582" y="465.127">MapController</text><line style="stroke:#181818;stroke-width:0.5;" x1="554" x2="671.9238" y1="473.2031" y2="473.2031"/><line style="stroke:#181818;stroke-width:0.5;" x1="554" x2="671.9238" y1="481.2031" y2="481.2031"/></g><!--class E_User--><g class="entity" data-qualified-name="Domain Data .Entity..E_User" data-source-line="20" id="ent0014"><rect fill="#F1F1F1" height="58.7031" rx="2.5" ry="2.5" style="stroke:#181818;stroke-width:0.5;" width="112.1445" x="764.5" y="230.5"/><ellipse cx="779.5" cy="251.8516" fill="#ADD1B2" rx="11" ry="11" style="stroke:#181818;stroke-width:1;"/><path d="M782.2656,247.7266 Q782.4219,247.5078 782.6094,247.3984 Q782.7969,247.2891 783.0156,247.2891 Q783.3906,247.2891 783.625,247.5547 Q783.8594,247.8047 783.8594,248.4141 L783.8594,249.8672 Q783.8594,250.4766 783.625,250.7422 Q783.3906,251.0078 783.0156,251.0078 Q782.6719,251.0078 782.4688,250.8047 Q782.2656,250.6172 782.1563,250.1016 Q782.1094,249.7422 781.9219,249.5547 Q781.5938,249.1797 780.9844,248.9609 Q780.375,248.7422 779.75,248.7422 Q778.9844,248.7422 778.3438,249.0703 Q777.7188,249.3984 777.2188,250.1484 Q776.7344,250.8984 776.7344,251.9297 L776.7344,253.0234 Q776.7344,254.2578 777.625,255.0859 Q778.5156,255.8984 780.1094,255.8984 Q781.0469,255.8984 781.7031,255.6484 Q782.0938,255.4922 782.5156,255.0547 Q782.7813,254.7891 782.9219,254.7109 Q783.0781,254.6328 783.2813,254.6328 Q783.6094,254.6328 783.8594,254.8984 Q784.125,255.1484 784.125,255.4922 Q784.125,255.8359 783.7813,256.2422 Q783.2813,256.8203 782.4844,257.1484 Q781.4063,257.6016 780.1094,257.6016 Q778.5938,257.6016 777.3906,256.9766 Q776.4063,256.4766 775.7188,255.4141 Q775.0313,254.3359 775.0313,253.0547 L775.0313,251.8984 Q775.0313,250.5703 775.6406,249.4297 Q776.2656,248.2734 777.3594,247.6641 Q778.4531,247.0391 779.6875,247.0391 Q780.4219,247.0391 781.0625,247.2109 Q781.7188,247.3672 782.2656,247.7266 Z " fill="#000000"/><text fill="#000000" font-family="sans-serif" font-size="12" font-style="italic" lengthAdjust="spacing" textLength="42.0293" x="812.5576" y="247.957">&#171;entity&#187;</text><text fill="#000000" font-family="sans-serif" font-size="14" lengthAdjust="spacing" textLength="80.1445" x="793.5" y="265.127">UserAccount</text><line style="stroke:#181818;stroke-width:0.5;" x1="765.5" x2="875.6445" y1="273.2031" y2="273.2031"/><line style="stroke:#181818;stroke-width:0.5;" x1="765.5" x2="875.6445" y1="281.2031" y2="281.2031"/></g><!--class E_Saved--><g class="entity" data-qualified-name="Domain Data .Entity..E_Saved" data-source-line="21" id="ent0015"><rect fill="#F1F1F1" height="58.7031" rx="2.5" ry="2.5" style="stroke:#181818;stroke-width:0.5;" width="124.627" x="758" y="324.5"/><ellipse cx="773" cy="345.8516" fill="#ADD1B2" rx="11" ry="11" style="stroke:#181818;stroke-width:1;"/><path d="M775.7656,341.7266 Q775.9219,341.5078 776.1094,341.3984 Q776.2969,341.2891 776.5156,341.2891 Q776.8906,341.2891 777.125,341.5547 Q777.3594,341.8047 777.3594,342.4141 L777.3594,343.8672 Q777.3594,344.4766 777.125,344.7422 Q776.8906,345.0078 776.5156,345.0078 Q776.1719,345.0078 775.9688,344.8047 Q775.7656,344.6172 775.6563,344.1016 Q775.6094,343.7422 775.4219,343.5547 Q775.0938,343.1797 774.4844,342.9609 Q773.875,342.7422 773.25,342.7422 Q772.4844,342.7422 771.8438,343.0703 Q771.2188,343.3984 770.7188,344.1484 Q770.2344,344.8984 770.2344,345.9297 L770.2344,347.0234 Q770.2344,348.2578 771.125,349.0859 Q772.0156,349.8984 773.6094,349.8984 Q774.5469,349.8984 775.2031,349.6484 Q775.5938,349.4922 776.0156,349.0547 Q776.2813,348.7891 776.4219,348.7109 Q776.5781,348.6328 776.7813,348.6328 Q777.1094,348.6328 777.3594,348.8984 Q777.625,349.1484 777.625,349.4922 Q777.625,349.8359 777.2813,350.2422 Q776.7813,350.8203 775.9844,351.1484 Q774.9063,351.6016 773.6094,351.6016 Q772.0938,351.6016 770.8906,350.9766 Q769.9063,350.4766 769.2188,349.4141 Q768.5313,348.3359 768.5313,347.0547 L768.5313,345.8984 Q768.5313,344.5703 769.1406,343.4297 Q769.7656,342.2734 770.8594,341.6641 Q771.9531,341.0391 773.1875,341.0391 Q773.9219,341.0391 774.5625,341.2109 Q775.2188,341.3672 775.7656,341.7266 Z " fill="#000000"/><text fill="#000000" font-family="sans-serif" font-size="12" font-style="italic" lengthAdjust="spacing" textLength="42.0293" x="812.2988" y="341.957">&#171;entity&#187;</text><text fill="#000000" font-family="sans-serif" font-size="14" lengthAdjust="spacing" textLength="92.627" x="787" y="359.127">SavedLocation</text><line style="stroke:#181818;stroke-width:0.5;" x1="759" x2="881.627" y1="367.2031" y2="367.2031"/><line style="stroke:#181818;stroke-width:0.5;" x1="759" x2="881.627" y1="375.2031" y2="375.2031"/></g><!--class E_Score--><g class="entity" data-qualified-name="Domain Data .Entity..E_Score" data-source-line="22" id="ent0016"><rect fill="#F1F1F1" height="58.7031" rx="2.5" ry="2.5" style="stroke:#181818;stroke-width:0.5;" width="121.5029" x="759.5" y="42.5"/><ellipse cx="774.5" cy="63.8516" fill="#ADD1B2" rx="11" ry="11" style="stroke:#181818;stroke-width:1;"/><path d="M777.2656,59.7266 Q777.4219,59.5078 777.6094,59.3984 Q777.7969,59.2891 778.0156,59.2891 Q778.3906,59.2891 778.625,59.5547 Q778.8594,59.8047 778.8594,60.4141 L778.8594,61.8672 Q778.8594,62.4766 778.625,62.7422 Q778.3906,63.0078 778.0156,63.0078 Q777.6719,63.0078 777.4688,62.8047 Q777.2656,62.6172 777.1563,62.1016 Q777.1094,61.7422 776.9219,61.5547 Q776.5938,61.1797 775.9844,60.9609 Q775.375,60.7422 774.75,60.7422 Q773.9844,60.7422 773.3438,61.0703 Q772.7188,61.3984 772.2188,62.1484 Q771.7344,62.8984 771.7344,63.9297 L771.7344,65.0234 Q771.7344,66.2578 772.625,67.0859 Q773.5156,67.8984 775.1094,67.8984 Q776.0469,67.8984 776.7031,67.6484 Q777.0938,67.4922 777.5156,67.0547 Q777.7813,66.7891 777.9219,66.7109 Q778.0781,66.6328 778.2813,66.6328 Q778.6094,66.6328 778.8594,66.8984 Q779.125,67.1484 779.125,67.4922 Q779.125,67.8359 778.7813,68.2422 Q778.2813,68.8203 777.4844,69.1484 Q776.4063,69.6016 775.1094,69.6016 Q773.5938,69.6016 772.3906,68.9766 Q771.4063,68.4766 770.7188,67.4141 Q770.0313,66.3359 770.0313,65.0547 L770.0313,63.8984 Q770.0313,62.5703 770.6406,61.4297 Q771.2656,60.2734 772.3594,59.6641 Q773.4531,59.0391 774.6875,59.0391 Q775.4219,59.0391 776.0625,59.2109 Q776.7188,59.3672 777.2656,59.7266 Z " fill="#000000"/><text fill="#000000" font-family="sans-serif" font-size="12" font-style="italic" lengthAdjust="spacing" textLength="42.0293" x="812.2368" y="59.957">&#171;entity&#187;</text><text fill="#000000" font-family="sans-serif" font-size="14" lengthAdjust="spacing" textLength="89.5029" x="788.5" y="77.127">LocationScore</text><line style="stroke:#181818;stroke-width:0.5;" x1="760.5" x2="880.0029" y1="85.2031" y2="85.2031"/><line style="stroke:#181818;stroke-width:0.5;" x1="760.5" x2="880.0029" y1="93.2031" y2="93.2031"/></g><!--class E_Breakdown--><g class="entity" data-qualified-name="Domain Data .Entity..E_Breakdown" data-source-line="23" id="ent0017"><rect fill="#F1F1F1" height="58.7031" rx="2.5" ry="2.5" style="stroke:#181818;stroke-width:0.5;" width="138.6133" x="751" y="136.5"/><ellipse cx="766" cy="157.8516" fill="#ADD1B2" rx="11" ry="11" style="stroke:#181818;stroke-width:1;"/><path d="M768.7656,153.7266 Q768.9219,153.5078 769.1094,153.3984 Q769.2969,153.2891 769.5156,153.2891 Q769.8906,153.2891 770.125,153.5547 Q770.3594,153.8047 770.3594,154.4141 L770.3594,155.8672 Q770.3594,156.4766 770.125,156.7422 Q769.8906,157.0078 769.5156,157.0078 Q769.1719,157.0078 768.9688,156.8047 Q768.7656,156.6172 768.6563,156.1016 Q768.6094,155.7422 768.4219,155.5547 Q768.0938,155.1797 767.4844,154.9609 Q766.875,154.7422 766.25,154.7422 Q765.4844,154.7422 764.8438,155.0703 Q764.2188,155.3984 763.7188,156.1484 Q763.2344,156.8984 763.2344,157.9297 L763.2344,159.0234 Q763.2344,160.2578 764.125,161.0859 Q765.0156,161.8984 766.6094,161.8984 Q767.5469,161.8984 768.2031,161.6484 Q768.5938,161.4922 769.0156,161.0547 Q769.2813,160.7891 769.4219,160.7109 Q769.5781,160.6328 769.7813,160.6328 Q770.1094,160.6328 770.3594,160.8984 Q770.625,161.1484 770.625,161.4922 Q770.625,161.8359 770.2813,162.2422 Q769.7813,162.8203 768.9844,163.1484 Q767.9063,163.6016 766.6094,163.6016 Q765.0938,163.6016 763.8906,162.9766 Q762.9063,162.4766 762.2188,161.4141 Q761.5313,160.3359 761.5313,159.0547 L761.5313,157.8984 Q761.5313,156.5703 762.1406,155.4297 Q762.7656,154.2734 763.8594,153.6641 Q764.9531,153.0391 766.1875,153.0391 Q766.9219,153.0391 767.5625,153.2109 Q768.2188,153.3672 768.7656,153.7266 Z " fill="#000000"/><text fill="#000000" font-family="sans-serif" font-size="12" font-style="italic" lengthAdjust="spacing" textLength="42.0293" x="812.292" y="153.957">&#171;entity&#187;</text><text fill="#000000" font-family="sans-serif" font-size="14" lengthAdjust="spacing" textLength="106.6133" x="780" y="171.127">ScoreBreakdown</text><line style="stroke:#181818;stroke-width:0.5;" x1="752" x2="888.6133" y1="179.2031" y2="179.2031"/><line style="stroke:#181818;stroke-width:0.5;" x1="752" x2="888.6133" y1="187.2031" y2="187.2031"/></g><!--class E_Note--><g class="entity" data-qualified-name="Domain Data .Entity..E_Note" data-source-line="24" id="ent0018"><rect fill="#F1F1F1" height="58.7031" rx="2.5" ry="2.5" style="stroke:#181818;stroke-width:0.5;" width="70.0293" x="785.5" y="418.5"/><ellipse cx="800.5" cy="439.8516" fill="#ADD1B2" rx="11" ry="11" style="stroke:#181818;stroke-width:1;"/><path d="M803.2656,435.7266 Q803.4219,435.5078 803.6094,435.3984 Q803.7969,435.2891 804.0156,435.2891 Q804.3906,435.2891 804.625,435.5547 Q804.8594,435.8047 804.8594,436.4141 L804.8594,437.8672 Q804.8594,438.4766 804.625,438.7422 Q804.3906,439.0078 804.0156,439.0078 Q803.6719,439.0078 803.4688,438.8047 Q803.2656,438.6172 803.1563,438.1016 Q803.1094,437.7422 802.9219,437.5547 Q802.5938,437.1797 801.9844,436.9609 Q801.375,436.7422 800.75,436.7422 Q799.9844,436.7422 799.3438,437.0703 Q798.7188,437.3984 798.2188,438.1484 Q797.7344,438.8984 797.7344,439.9297 L797.7344,441.0234 Q797.7344,442.2578 798.625,443.0859 Q799.5156,443.8984 801.1094,443.8984 Q802.0469,443.8984 802.7031,443.6484 Q803.0938,443.4922 803.5156,443.0547 Q803.7813,442.7891 803.9219,442.7109 Q804.0781,442.6328 804.2813,442.6328 Q804.6094,442.6328 804.8594,442.8984 Q805.125,443.1484 805.125,443.4922 Q805.125,443.8359 804.7813,444.2422 Q804.2813,444.8203 803.4844,445.1484 Q802.4063,445.6016 801.1094,445.6016 Q799.5938,445.6016 798.3906,444.9766 Q797.4063,444.4766 796.7188,443.4141 Q796.0313,442.3359 796.0313,441.0547 L796.0313,439.8984 Q796.0313,438.5703 796.6406,437.4297 Q797.2656,436.2734 798.3594,435.6641 Q799.4531,435.0391 800.6875,435.0391 Q801.4219,435.0391 802.0625,435.2109 Q802.7188,435.3672 803.2656,435.7266 Z " fill="#000000"/><text fill="#000000" font-family="sans-serif" font-size="12" font-style="italic" lengthAdjust="spacing" textLength="42.0293" x="812.5" y="435.957">&#171;entity&#187;</text><text fill="#000000" font-family="sans-serif" font-size="14" lengthAdjust="spacing" textLength="29.5723" x="818.7285" y="453.127">Note</text><line style="stroke:#181818;stroke-width:0.5;" x1="786.5" x2="854.5293" y1="461.2031" y2="461.2031"/><line style="stroke:#181818;stroke-width:0.5;" x1="786.5" x2="854.5293" y1="469.2031" y2="469.2031"/></g><!--class E_Profile--><g class="entity" data-qualified-name="Domain Data .Entity..E_Profile" data-source-line="25" id="ent0019"><rect fill="#F1F1F1" height="58.7031" rx="2.5" ry="2.5" style="stroke:#181818;stroke-width:0.5;" width="128.4893" x="756.5" y="512.5"/><ellipse cx="771.5" cy="533.8516" fill="#ADD1B2" rx="11" ry="11" style="stroke:#181818;stroke-width:1;"/><path d="M774.2656,529.7266 Q774.4219,529.5078 774.6094,529.3984 Q774.7969,529.2891 775.0156,529.2891 Q775.3906,529.2891 775.625,529.5547 Q775.8594,529.8047 775.8594,530.4141 L775.8594,531.8672 Q775.8594,532.4766 775.625,532.7422 Q775.3906,533.0078 775.0156,533.0078 Q774.6719,533.0078 774.4688,532.8047 Q774.2656,532.6172 774.1563,532.1016 Q774.1094,531.7422 773.9219,531.5547 Q773.5938,531.1797 772.9844,530.9609 Q772.375,530.7422 771.75,530.7422 Q770.9844,530.7422 770.3438,531.0703 Q769.7188,531.3984 769.2188,532.1484 Q768.7344,532.8984 768.7344,533.9297 L768.7344,535.0234 Q768.7344,536.2578 769.625,537.0859 Q770.5156,537.8984 772.1094,537.8984 Q773.0469,537.8984 773.7031,537.6484 Q774.0938,537.4922 774.5156,537.0547 Q774.7813,536.7891 774.9219,536.7109 Q775.0781,536.6328 775.2813,536.6328 Q775.6094,536.6328 775.8594,536.8984 Q776.125,537.1484 776.125,537.4922 Q776.125,537.8359 775.7813,538.2422 Q775.2813,538.8203 774.4844,539.1484 Q773.4063,539.6016 772.1094,539.6016 Q770.5938,539.6016 769.3906,538.9766 Q768.4063,538.4766 767.7188,537.4141 Q767.0313,536.3359 767.0313,535.0547 L767.0313,533.8984 Q767.0313,532.5703 767.6406,531.4297 Q768.2656,530.2734 769.3594,529.6641 Q770.4531,529.0391 771.6875,529.0391 Q772.4219,529.0391 773.0625,529.2109 Q773.7188,529.3672 774.2656,529.7266 Z " fill="#000000"/><text fill="#000000" font-family="sans-serif" font-size="12" font-style="italic" lengthAdjust="spacing" textLength="42.0293" x="812.73" y="529.957">&#171;entity&#187;</text><text fill="#000000" font-family="sans-serif" font-size="14" lengthAdjust="spacing" textLength="96.4893" x="785.5" y="547.127">BusinessProfile</text><line style="stroke:#181818;stroke-width:0.5;" x1="757.5" x2="883.9893" y1="555.2031" y2="555.2031"/><line style="stroke:#181818;stroke-width:0.5;" x1="757.5" x2="883.9893" y1="563.2031" y2="563.2031"/></g><!--class User--><g class="entity" data-qualified-name="User" data-source-line="3" id="ent0002"><rect fill="#F1F1F1" height="58.7031" rx="2.5" ry="2.5" style="stroke:#181818;stroke-width:0.5;" width="105.1104" x="7" y="303.5"/><ellipse cx="22" cy="324.8516" fill="#ADD1B2" rx="11" ry="11" style="stroke:#181818;stroke-width:1;"/><path d="M24.7656,320.7266 Q24.9219,320.5078 25.1094,320.3984 Q25.2969,320.2891 25.5156,320.2891 Q25.8906,320.2891 26.125,320.5547 Q26.3594,320.8047 26.3594,321.4141 L26.3594,322.8672 Q26.3594,323.4766 26.125,323.7422 Q25.8906,324.0078 25.5156,324.0078 Q25.1719,324.0078 24.9688,323.8047 Q24.7656,323.6172 24.6563,323.1016 Q24.6094,322.7422 24.4219,322.5547 Q24.0938,322.1797 23.4844,321.9609 Q22.875,321.7422 22.25,321.7422 Q21.4844,321.7422 20.8438,322.0703 Q20.2188,322.3984 19.7188,323.1484 Q19.2344,323.8984 19.2344,324.9297 L19.2344,326.0234 Q19.2344,327.2578 20.125,328.0859 Q21.0156,328.8984 22.6094,328.8984 Q23.5469,328.8984 24.2031,328.6484 Q24.5938,328.4922 25.0156,328.0547 Q25.2813,327.7891 25.4219,327.7109 Q25.5781,327.6328 25.7813,327.6328 Q26.1094,327.6328 26.3594,327.8984 Q26.625,328.1484 26.625,328.4922 Q26.625,328.8359 26.2813,329.2422 Q25.7813,329.8203 24.9844,330.1484 Q23.9063,330.6016 22.6094,330.6016 Q21.0938,330.6016 19.8906,329.9766 Q18.9063,329.4766 18.2188,328.4141 Q17.5313,327.3359 17.5313,326.0547 L17.5313,324.8984 Q17.5313,323.5703 18.1406,322.4297 Q18.7656,321.2734 19.8594,320.6641 Q20.9531,320.0391 22.1875,320.0391 Q22.9219,320.0391 23.5625,320.2109 Q24.2188,320.3672 24.7656,320.7266 Z " fill="#000000"/><text fill="#000000" font-family="sans-serif" font-size="12" font-style="italic" lengthAdjust="spacing" textLength="40.0254" x="52.5425" y="320.957">&#171;actor&#187;</text><text fill="#000000" font-family="sans-serif" font-size="14" lengthAdjust="spacing" textLength="73.1104" x="36" y="338.127">User (SME)</text><line style="stroke:#181818;stroke-width:0.5;" x1="8" x2="111.1104" y1="346.2031" y2="346.2031"/><line style="stroke:#181818;stroke-width:0.5;" x1="8" x2="111.1104" y1="354.2031" y2="354.2031"/></g><!--link User to B_Dashboard--><g class="link" data-entity-1="ent0002" data-entity-2="ent0004" data-link-type="dependency" data-source-line="29" id="lnk20"><path codeLine="29" d="M112.22,317.69 C131.17,312.07 147.4769,307.2436 168.8869,300.9036" fill="none" id="User-to-B_Dashboard" style="stroke:#181818;stroke-width:1;"/><polygon fill="#181818" points="174.64,299.2,164.8747,297.92,169.8458,300.6197,167.1462,305.5908,174.64,299.2" style="stroke:#181818;stroke-width:1;"/></g><!--link User to B_Details--><g class="link" data-entity-1="ent0002" data-entity-2="ent0005" data-link-type="dependency" data-source-line="30" id="lnk21"><path codeLine="30" d="M79.28,303.42 C95.72,279.53 121.55,246.47 151,225 C162.02,216.97 169.1637,212.5576 181.8837,206.6776" fill="none" id="User-to-B_Details" style="stroke:#181818;stroke-width:1;"/><polygon fill="#181818" points="187.33,204.16,177.4822,204.3056,182.7915,206.258,180.839,211.5672,187.33,204.16" style="stroke:#181818;stroke-width:1;"/></g><!--link User to B_Notes--><g class="link" data-entity-1="ent0002" data-entity-2="ent0006" data-link-type="dependency" data-source-line="31" id="lnk22"><path codeLine="31" d="M112.22,341.28 C143.8,346.34 178.0955,351.8409 209.5555,356.8809" fill="none" id="User-to-B_Notes" style="stroke:#181818;stroke-width:1;"/><polygon fill="#181818" points="215.48,357.83,207.2261,352.4567,210.543,357.0391,205.9606,360.356,215.48,357.83" style="stroke:#181818;stroke-width:1;"/></g><!--link User to B_Map--><g class="link" data-entity-1="ent0002" data-entity-2="ent0007" data-link-type="dependency" data-source-line="32" id="lnk23"><path codeLine="32" d="M89.04,362.78 C105.92,379.16 128.37,398.96 151,413 C172.89,426.58 193.7486,435.6469 215.8386,443.6469" fill="none" id="User-to-B_Map" style="stroke:#181818;stroke-width:1;"/><polygon fill="#181818" points="221.48,445.69,214.3799,438.8644,216.7788,443.9874,211.6558,446.3863,221.48,445.69" style="stroke:#181818;stroke-width:1;"/></g><!--link B_Dashboard to C_Portfolio--><g class="link" data-entity-1="ent0004" data-entity-2="ent0009" data-link-type="dependency" data-source-line="35" id="lnk24"><path codeLine="35" d="M360.1,272 C416.74,272 482.38,272 534.76,272" fill="none" id="B_Dashboard-to-C_Portfolio" style="stroke:#181818;stroke-width:1;"/><polygon fill="#181818" points="540.76,272,531.76,268,535.76,272,531.76,276,540.76,272" style="stroke:#181818;stroke-width:1;"/><text fill="#000000" font-family="sans-serif" font-size="13" lengthAdjust="spacing" textLength="106.209" x="397" y="268.4951">view/search/select</text></g><!--link B_Details to C_Location--><g class="link" data-entity-1="ent0005" data-entity-2="ent0010" data-link-type="dependency" data-source-line="36" id="lnk25"><path codeLine="36" d="M347.74,178 C405.69,178 477.68,178 533.89,178" fill="none" id="B_Details-to-C_Location" style="stroke:#181818;stroke-width:1;"/><polygon fill="#181818" points="539.89,178,530.89,174,534.89,178,530.89,182,539.89,178" style="stroke:#181818;stroke-width:1;"/><text fill="#000000" font-family="sans-serif" font-size="13" lengthAdjust="spacing" textLength="65.7681" x="417.5" y="174.4951">load details</text></g><!--link B_Notes to C_Notes--><g class="link" data-entity-1="ent0006" data-entity-2="ent0011" data-link-type="dependency" data-source-line="37" id="lnk26"><path codeLine="37" d="M319.55,366 C380.48,366 476.38,366 542.38,366" fill="none" id="B_Notes-to-C_Notes" style="stroke:#181818;stroke-width:1;"/><polygon fill="#181818" points="548.38,366,539.38,362,543.38,366,539.38,370,548.38,366" style="stroke:#181818;stroke-width:1;"/><text fill="#000000" font-family="sans-serif" font-size="13" lengthAdjust="spacing" textLength="114.207" x="393" y="362.4951">add/edit/delete note</text></g><!--link B_Map to C_Map--><g class="link" data-entity-1="ent0007" data-entity-2="ent0012" data-link-type="dependency" data-source-line="38" id="lnk27"><path codeLine="38" d="M313.76,460 C375.15,460 478.94,460 546.81,460" fill="none" id="B_Map-to-C_Map" style="stroke:#181818;stroke-width:1;"/><polygon fill="#181818" points="552.81,460,543.81,456,547.81,460,543.81,464,552.81,460" style="stroke:#181818;stroke-width:1;"/><text fill="#000000" font-family="sans-serif" font-size="13" lengthAdjust="spacing" textLength="57.8208" x="421.5" y="456.4951">open map</text></g><!--link C_Portfolio to E_User--><g class="link" data-entity-1="ent0009" data-entity-2="ent0014" data-link-type="dependency" data-source-line="41" id="lnk28"><path codeLine="41" d="M685.01,267.85 C711,266.34 734.0001,264.9887 758.3901,263.5687" fill="none" id="C_Portfolio-to-E_User" style="stroke:#181818;stroke-width:1;"/><polygon fill="#181818" points="764.38,263.22,755.1627,259.7499,759.3885,263.5106,755.6277,267.7363,764.38,263.22" style="stroke:#181818;stroke-width:1;"/></g><!--link C_Portfolio to E_Saved--><g class="link" data-entity-1="ent0009" data-entity-2="ent0015" data-link-type="dependency" data-source-line="42" id="lnk29"><path codeLine="42" d="M685.01,300.33 C708.68,309.78 729.2571,317.9967 752.1671,327.1367" fill="none" id="C_Portfolio-to-E_Saved" style="stroke:#181818;stroke-width:1;"/><polygon fill="#181818" points="757.74,329.36,750.8629,322.3098,753.0959,327.5072,747.8985,329.7403,757.74,329.36" style="stroke:#181818;stroke-width:1;"/></g><!--link C_Location to E_Saved--><g class="link" data-entity-1="ent0010" data-entity-2="ent0015" data-link-type="dependency" data-source-line="43" id="lnk30"><path codeLine="43" d="M686.09,203.9 C695.16,209.68 703.52,216.64 710,225 C732.82,254.4 704.4,277.43 727,307 C735.09,317.59 741.005,323.0584 752.755,329.6384" fill="none" id="C_Location-to-E_Saved" style="stroke:#181818;stroke-width:1;"/><polygon fill="#181818" points="757.99,332.57,752.0919,324.6825,753.6275,330.127,748.183,331.6626,757.99,332.57" style="stroke:#181818;stroke-width:1;"/></g><!--link C_Location to E_Score--><g class="link" data-entity-1="ent0010" data-entity-2="ent0016" data-link-type="dependency" data-source-line="44" id="lnk31"><path codeLine="44" d="M670.26,148.47 C688.36,139.01 708.51,128.53 727,119 C737.89,113.39 744.1736,110.1733 755.3836,104.4633" fill="none" id="C_Location-to-E_Score" style="stroke:#181818;stroke-width:1;"/><polygon fill="#181818" points="760.73,101.74,750.8949,102.2606,756.2747,104.0094,754.5259,109.3892,760.73,101.74" style="stroke:#181818;stroke-width:1;"/></g><!--link C_Location to E_Breakdown--><g class="link" data-entity-1="ent0010" data-entity-2="ent0017" data-link-type="dependency" data-source-line="45" id="lnk32"><path codeLine="45" d="M686.16,173.79 C707.21,172.56 724.1503,171.571 744.9703,170.351" fill="none" id="C_Location-to-E_Breakdown" style="stroke:#181818;stroke-width:1;"/><polygon fill="#181818" points="750.96,170,741.7414,166.5333,745.9686,170.2925,742.2094,174.5196,750.96,170" style="stroke:#181818;stroke-width:1;"/></g><!--link C_Notes to E_Note--><g class="link" data-entity-1="ent0011" data-entity-2="ent0018" data-link-type="dependency" data-source-line="46" id="lnk33"><path codeLine="46" d="M677.61,391.38 C713.21,405.59 750.6076,420.5056 779.8676,432.1856" fill="none" id="C_Notes-to-E_Note" style="stroke:#181818;stroke-width:1;"/><polygon fill="#181818" points="785.44,434.41,778.5643,427.3584,780.7963,432.5563,775.5984,434.7884,785.44,434.41" style="stroke:#181818;stroke-width:1;"/></g><!--link C_Notes to E_Saved--><g class="link" data-entity-1="ent0011" data-entity-2="ent0015" data-link-type="dependency" data-source-line="47" id="lnk34"><path codeLine="47" d="M677.61,362.29 C703.19,360.79 726.5903,359.4318 751.9603,357.9418" fill="none" id="C_Notes-to-E_Saved" style="stroke:#181818;stroke-width:1;"/><polygon fill="#181818" points="757.95,357.59,748.731,354.1245,752.9586,357.8831,749.2,362.1108,757.95,357.59" style="stroke:#181818;stroke-width:1;"/></g><!--link C_Map to E_Saved--><g class="link" data-entity-1="ent0012" data-entity-2="ent0015" data-link-type="dependency" data-source-line="48" id="lnk35"><path codeLine="48" d="M673.17,432.87 C685.53,426.7 698.35,419.91 710,413 C717.96,408.29 719.08,405.77 727,401 C736.87,395.05 742.278,391.9297 752.808,386.3997" fill="none" id="C_Map-to-E_Saved" style="stroke:#181818;stroke-width:1;"/><polygon fill="#181818" points="758.12,383.61,748.2922,384.2532,753.6933,385.9347,752.0118,391.3359,758.12,383.61" style="stroke:#181818;stroke-width:1;"/></g><!--link C_Map to E_Profile--><g class="link" data-entity-1="ent0012" data-entity-2="ent0019" data-link-type="dependency" data-source-line="49" id="lnk36"><path codeLine="49" d="M673.16,483.61 C699.25,494.02 724.3674,504.036 750.8774,514.616" fill="none" id="C_Map-to-E_Profile" style="stroke:#181818;stroke-width:1;"/><polygon fill="#181818" points="756.45,516.84,749.5738,509.7889,751.8062,514.9867,746.6084,517.2191,756.45,516.84" style="stroke:#181818;stroke-width:1;"/></g><?plantuml-src VLDDRren4BpxLwoub1uYxWWXbOz3fQH2GZcZZRs05ST6jWcAelxt-lFX1DFJiySpyxphMKLx3zw0bOUZ1o4jSI-DPemhT0v6puuiZBTFwvyZG0TfEviXzyREvuoTaB_YWM2qCTRlZP86dd_3U67EMg3z2A9F1b2y1iuAtV75e1MRe4s-Yzs01VkN8Wz_6CIFXcEysOeyIkLQPKRkwFuOJu6jIHLw0kwGd_3K68VTLzxVRi6FvY0vZ9T6UslKdPBBgIARp9Uxgtusu_cmL-wDhXxqPQcu6qqjkIC8DTxGSzrNSblsohoXrB12Zp1UQo_zjqUE2Vd5UMYQJtRhNSaC9NBxxos-awZr57B2kknAt79ZgRBZkkyTJnQMy5MOIpKVzbr9x58XncMNipWxgScvZJLxgIgzx5f5wDcFF2rIUxAOfih1HVeZb4H9SYmn7XxcxG1y0NEsMoWzPWk4vue_Mmokm54fAE_dM3jRKT5cRmhlaYuJHsZvCNnK67zs7QbC7o8t1MLGW2YNghEKMNaz1HHYGaBwYGXkeOqwu2mFKoR6rHJCYJIyvQkN13euEuBKmjYRzfvHcPFKWLDcM7FF_yCn6RVma0ssRChAKVW6LUDQKWyfaM3_0000?></g></svg>