<?plantuml 1.2026.2?><svg xmlns="http://www.w3.org/2000/svg" xmlns:xlink="http://www.w3.org/1999/xlink" contentStyleType="text/css" data-diagram-type="DESCRIPTION" height="293px" preserveAspectRatio="none" style="width:913px;height:293px;background:#FEFEFE;" version="1.1" viewBox="0 0 913 293" width="913px" zoomAndPan="magnify"><title>UC-05: Reset Password</title><defs/><g><rect fill="#FEFEFE" height="293" style="stroke:none;stroke-width:1;" width="913" x="0" y="0"/><g class="title" data-source-line="12"><text fill="#000000" font-family="Verdana" font-size="22" font-weight="bold" lengthAdjust="spacing" textLength="288.9111" x="307.8738" y="37.1182">UC-05: Reset Password</text></g><!--cluster SmartLocateSG--><g class="cluster" data-qualified-name="SmartLocateSG" data-source-line="17" id="ent0004"><rect fill="#FFFFFF" height="104" rx="2.5" ry="2.5" style="stroke:#000000;stroke-width:1;" width="578.5" x="175" y="108.7373"/><text fill="#000000" font-family="Verdana" font-size="14" font-weight="bold" lengthAdjust="spacing" textLength="120.5449" x="403.9775" y="124.8125">SmartLocateSG</text></g><!--entity UC05--><g class="entity" data-qualified-name="SmartLocateSG.UC05" data-source-line="18" id="ent0005"><ellipse cx="264.9608" cy="170.9295" fill="#E3F2FD" rx="73.9608" ry="17.1922" style="stroke:#1565C0;stroke-width:1;"/><text fill="#000000" font-family="Verdana" font-size="11" lengthAdjust="spacing" textLength="125.1948" x="202.3634" y="174.1138">UC-05 Reset Password</text></g><!--entity R03--><g class="entity" data-qualified-name="SmartLocateSG.R03" data-source-line="19" id="ent0006"><ellipse cx="685.2455" cy="161.6864" fill="#E3F2FD" rx="52.7455" ry="12.9491" style="stroke:#1565C0;stroke-width:1;"/><text fill="#000000" font-family="Verdana" font-size="11" lengthAdjust="spacing" textLength="73.6914" x="648.3998" y="164.8707">UC-03 Log In</text></g><!--entity USER--><g class="entity" data-qualified-name="USER" data-source-line="14" id="ent0002"><ellipse cx="69.2715" cy="74.7373" fill="#FFFFFF" rx="16" ry="16" style="stroke:#000000;stroke-width:1;"/><path d="M69.2715,94.7373 C73.2715,94.7373 76.2715,94.7373 80.2715,90.7373 C88.2715,90.7373 96.2715,98.7373 96.2715,106.7373 L96.2715,110.7373 C96.2715,114.7373 92.2715,118.7373 88.2715,118.7373 L50.2715,118.7373 C46.2715,118.7373 42.2715,114.7373 42.2715,110.7373 L42.2715,106.7373 C42.2715,98.7373 50.2715,90.7373 58.2715,90.7373 C62.2715,94.7373 65.2715,94.7373 69.2715,94.7373" fill="#FFFFFF" style="stroke:#000000;stroke-width:1;"/><text fill="#000000" font-family="Verdana" font-size="14" lengthAdjust="spacing" textLength="31.8555" x="15.5" y="133.8125">User</text><text fill="#000000" font-family="Verdana" font-size="14" lengthAdjust="spacing" textLength="107.543" x="15.5" y="150.8271">(A01/A02/A03)</text></g><!--entity A04--><g class="entity" data-qualified-name="A04" data-source-line="15" id="ent0003"><ellipse cx="69.5259" cy="205.7373" fill="#FFFFFF" rx="16" ry="16" style="stroke:#000000;stroke-width:1;"/><path d="M69.5259,225.7373 C73.5259,225.7373 76.5259,225.7373 80.5259,221.7373 C88.5259,221.7373 96.5259,229.7373 96.5259,237.7373 L96.5259,241.7373 C96.5259,245.7373 92.5259,249.7373 88.5259,249.7373 L50.5259,249.7373 C46.5259,249.7373 42.5259,245.7373 42.5259,241.7373 L42.5259,237.7373 C42.5259,229.7373 50.5259,221.7373 58.5259,221.7373 C62.5259,225.7373 65.5259,225.7373 69.5259,225.7373" fill="#FFFFFF" style="stroke:#000000;stroke-width:1;"/><text fill="#000000" font-family="Verdana" font-size="14" lengthAdjust="spacing" textLength="117.0518" x="11" y="264.8125">System Backend</text><text fill="#000000" font-family="Verdana" font-size="14" lengthAdjust="spacing" textLength="40.0859" x="11" y="281.8271">(A04)</text></g><g class="entity" data-qualified-name="GMN10" data-source-line="28" id="ent0011"><path d="M463,229.2373 L463,286.6353 L906.6587,286.6353 L906.6587,239.2373 L896.6587,229.2373 L463,229.2373" fill="#FFFFFF" style="stroke:#000000;stroke-width:1;"/><path d="M896.6587,229.2373 L896.6587,239.2373 L906.6587,239.2373 L896.6587,229.2373" fill="#FFFFFF" style="stroke:#000000;stroke-width:1;"/><text fill="#000000" font-family="Verdana" font-size="13" lengthAdjust="spacing" textLength="319.2617" x="469" y="247.3071">Pre: Refer corresponding sequence precondition.</text><text fill="#000000" font-family="Verdana" font-size="13" lengthAdjust="spacing" textLength="333.7915" x="469" y="263.1064">Flow: Main interaction follows sequence messages.</text><text fill="#000000" font-family="Verdana" font-size="13" lengthAdjust="spacing" textLength="422.6587" x="469" y="278.9058">AC/EX: Alternate and exception branches traced from sequence.</text></g><!--link USER to UC05--><g class="link" data-entity-1="ent0002" data-entity-2="ent0005" data-link-type="dependency" data-source-line="22" id="lnk7"><path d="M123.63,123.5873 C154.73,134.0373 187.752,145.1275 216.642,154.8275" fill="none" id="USER-to-UC05" style="stroke:#000000;stroke-width:1;"/><polygon fill="#000000" points="222.33,156.7373,215.0712,150.0807,217.59,155.1458,212.5249,157.6646,222.33,156.7373" style="stroke:#000000;stroke-width:1;"/></g><!--link A04 to UC05--><g class="link" data-entity-1="ent0003" data-entity-2="ent0005" data-link-type="dependency" data-source-line="23" id="lnk8"><path d="M128.03,217.1173 C158.56,206.7073 189.6714,196.0947 217.2814,186.6747" fill="none" id="A04-to-UC05" style="stroke:#000000;stroke-width:1;"/><polygon fill="#000000" points="222.96,184.7373,213.1505,183.8577,218.2278,186.3518,215.7337,191.4292,222.96,184.7373" style="stroke:#000000;stroke-width:1;"/></g><!--link UC05 to R03--><g class="link" data-entity-1="ent0005" data-entity-2="ent0006" data-link-type="dependency" data-source-line="25" id="lnk9"><path d="M338.81,169.1673 C422.78,167.3573 552.7114,164.5667 626.4414,162.9767" fill="none" id="UC05-to-R03" style="stroke:#000000;stroke-width:1;stroke-dasharray:7,7;"/><polygon fill="#000000" points="632.44,162.8473,623.3559,159.0423,627.4412,162.9551,623.5283,167.0404,632.44,162.8473" style="stroke:#000000;stroke-width:1;"/><text fill="#000000" font-family="Verdana" font-size="13" lengthAdjust="spacing" textLength="62.9624" x="370" y="164.8071">&#171;include&#187;</text></g><!--link UC05 to GMN10--><g class="link" data-entity-1="ent0005" data-entity-2="ent0011" data-link-type="association" data-source-line="28" id="lnk12"><path d="M319.48,182.2773 C359.09,190.7873 414.39,202.6073 463,212.7373 C488.78,218.1073 516.26,223.7673 542.78,229.1873" fill="none" id="UC05-GMN10" style="stroke:#000000;stroke-width:1;stroke-dasharray:7,7;"/></g><?plantuml-src NP9DRzim38Rl-XLSTjaESPrcsI4e0cHkF1JeW296W1vsKMNQ4IgJhiGWxORzzqbsFuB0i26J3ycN51qs0iBWRRiNgAr78vP9VP8zTWYzqvPKUBJKQwyxUD3ciVLyeBfWnnu-bvlqd11z97IBbRmuX9HDK-lm1D16s8zkVSJ0tQdp4D3eWF1N0VmuhxMPbvVbTVAmhz6_McUBxuiYZzQIIIhx1s4sK_-K4YknnAwOveibR36Wm9qEuHXZbHf4m6GNqF-cB-jyTh7EB-Cx_pe17M1NRRPlJFKI1Bj13L8zqDz6AXwKUcynaftsSij62rO_9qCFR_rC1XrdCiPIHRuu1-TmootSq01iytbg9qc2wNGr1iJI7pygVI7BLec59LnTMJBkKEDgfHInuEljSZFoTnxJH1hqODXx33rJRQc5W4y791ElFNQLR6aLCbKwFYxXLzm4i2JezR0YqB2BZl0HrM48yUf3fjR5nUP-2MiNQOhZ04qruBF1VeXyy9hC7WD8p8KrD9wxzpIPYcE695lz1m00?></g></svg>