<?plantuml 1.2026.2?><svg xmlns="http://www.w3.org/2000/svg" xmlns:xlink="http://www.w3.org/1999/xlink" contentStyleType="text/css" data-diagram-type="DESCRIPTION" height="293px" preserveAspectRatio="none" style="width:919px;height:293px;background:#FEFEFE;" version="1.1" viewBox="0 0 919 293" width="919px" zoomAndPan="magnify"><title>UC-01: Register Account</title><defs/><g><rect fill="#FEFEFE" height="293" style="stroke:none;stroke-width:1;" width="919" x="0" y="0"/><g class="title" data-source-line="12"><text fill="#000000" font-family="Verdana" font-size="22" font-weight="bold" lengthAdjust="spacing" textLength="302.2959" x="304.1814" y="37.1182">UC-01: Register Account</text></g><!--cluster SmartLocateSG--><g class="cluster" data-qualified-name="SmartLocateSG" data-source-line="17" id="ent0004"><rect fill="#FFFFFF" height="104" rx="2.5" ry="2.5" style="stroke:#000000;stroke-width:1;" width="597" x="175" y="108.7373"/><text fill="#000000" font-family="Verdana" font-size="14" font-weight="bold" lengthAdjust="spacing" textLength="120.5449" x="413.2275" y="124.8125">SmartLocateSG</text></g><!--entity UC01--><g class="entity" data-qualified-name="SmartLocateSG.UC01" data-source-line="18" id="ent0005"><ellipse cx="267.8672" cy="170.5107" fill="#E3F2FD" rx="76.8672" ry="17.7734" style="stroke:#1565C0;stroke-width:1;"/><text fill="#000000" font-family="Verdana" font-size="11" lengthAdjust="spacing" textLength="131.7476" x="201.9934" y="173.6951">UC-01 Register Account</text></g><!--entity R02--><g class="entity" data-qualified-name="SmartLocateSG.R02" data-source-line="19" id="ent0006"><ellipse cx="691.1968" cy="161.6767" fill="#E3F2FD" rx="65.1968" ry="15.4394" style="stroke:#1565C0;stroke-width:1;"/><text fill="#000000" font-family="Verdana" font-size="11" lengthAdjust="spacing" textLength="104.9082" x="638.7427" y="164.861">UC-02 Verify Email</text></g><!--entity USER--><g class="entity" data-qualified-name="USER" data-source-line="14" id="ent0002"><ellipse cx="69.2715" cy="74.7373" fill="#FFFFFF" rx="16" ry="16" style="stroke:#000000;stroke-width:1;"/><path d="M69.2715,94.7373 C73.2715,94.7373 76.2715,94.7373 80.2715,90.7373 C88.2715,90.7373 96.2715,98.7373 96.2715,106.7373 L96.2715,110.7373 C96.2715,114.7373 92.2715,118.7373 88.2715,118.7373 L50.2715,118.7373 C46.2715,118.7373 42.2715,114.7373 42.2715,110.7373 L42.2715,106.7373 C42.2715,98.7373 50.2715,90.7373 58.2715,90.7373 C62.2715,94.7373 65.2715,94.7373 69.2715,94.7373" fill="#FFFFFF" style="stroke:#000000;stroke-width:1;"/><text fill="#000000" font-family="Verdana" font-size="14" lengthAdjust="spacing" textLength="31.8555" x="15.5" y="133.8125">User</text><text fill="#000000" font-family="Verdana" font-size="14" lengthAdjust="spacing" textLength="107.543" x="15.5" y="150.8271">(A01/A02/A03)</text></g><!--entity A04--><g class="entity" data-qualified-name="A04" data-source-line="15" id="ent0003"><ellipse cx="69.5259" cy="205.7373" fill="#FFFFFF" rx="16" ry="16" style="stroke:#000000;stroke-width:1;"/><path d="M69.5259,225.7373 C73.5259,225.7373 76.5259,225.7373 80.5259,221.7373 C88.5259,221.7373 96.5259,229.7373 96.5259,237.7373 L96.5259,241.7373 C96.5259,245.7373 92.5259,249.7373 88.5259,249.7373 L50.5259,249.7373 C46.5259,249.7373 42.5259,245.7373 42.5259,241.7373 L42.5259,237.7373 C42.5259,229.7373 50.5259,221.7373 58.5259,221.7373 C62.5259,225.7373 65.5259,225.7373 69.5259,225.7373" fill="#FFFFFF" style="stroke:#000000;stroke-width:1;"/><text fill="#000000" font-family="Verdana" font-size="14" lengthAdjust="spacing" textLength="117.0518" x="11" y="264.8125">System Backend</text><text fill="#000000" font-family="Verdana" font-size="14" lengthAdjust="spacing" textLength="40.0859" x="11" y="281.8271">(A04)</text></g><g class="entity" data-qualified-name="GMN10" data-source-line="28" id="ent0011"><path d="M469,229.2373 L469,286.6353 L912.6587,286.6353 L912.6587,239.2373 L902.6587,229.2373 L469,229.2373" fill="#FFFFFF" style="stroke:#000000;stroke-width:1;"/><path d="M902.6587,229.2373 L902.6587,239.2373 L912.6587,239.2373 L902.6587,229.2373" fill="#FFFFFF" style="stroke:#000000;stroke-width:1;"/><text fill="#000000" font-family="Verdana" font-size="13" lengthAdjust="spacing" textLength="319.2617" x="475" y="247.3071">Pre: Refer corresponding sequence precondition.</text><text fill="#000000" font-family="Verdana" font-size="13" lengthAdjust="spacing" textLength="333.7915" x="475" y="263.1064">Flow: Main interaction follows sequence messages.</text><text fill="#000000" font-family="Verdana" font-size="13" lengthAdjust="spacing" textLength="422.6587" x="475" y="278.9058">AC/EX: Alternate and exception branches traced from sequence.</text></g><!--link USER to UC01--><g class="link" data-entity-1="ent0002" data-entity-2="ent0005" data-link-type="dependency" data-source-line="22" id="lnk7"><path d="M123.68,123.3273 C154.71,133.5873 187.6935,144.5033 217.0535,154.2133" fill="none" id="USER-to-UC01" style="stroke:#000000;stroke-width:1;"/><polygon fill="#000000" points="222.75,156.0973,215.4612,149.4736,218.0029,154.5273,212.9492,157.069,222.75,156.0973" style="stroke:#000000;stroke-width:1;"/></g><!--link A04 to UC01--><g class="link" data-entity-1="ent0003" data-entity-2="ent0005" data-link-type="dependency" data-source-line="23" id="lnk8"><path d="M128.13,217.3773 C158.48,207.1873 189.4122,196.7975 217.4322,187.3875" fill="none" id="A04-to-UC01" style="stroke:#000000;stroke-width:1;"/><polygon fill="#000000" points="223.12,185.4773,213.3148,184.5506,218.3801,187.0691,215.8617,192.1344,223.12,185.4773" style="stroke:#000000;stroke-width:1;"/></g><!--link UC01 to R02--><g class="link" data-entity-1="ent0005" data-entity-2="ent0006" data-link-type="dependency" data-source-line="25" id="lnk9"><path d="M344.75,169.1173 C425.12,167.3973 544.7114,164.846 620.2114,163.226" fill="none" id="UC01-to-R02" style="stroke:#000000;stroke-width:1;stroke-dasharray:7,7;"/><polygon fill="#000000" points="626.21,163.0973,617.1263,159.2913,621.2112,163.2046,617.2979,167.2895,626.21,163.0973" style="stroke:#000000;stroke-width:1;"/><text fill="#000000" font-family="Verdana" font-size="13" lengthAdjust="spacing" textLength="62.9624" x="376" y="164.8071">&#171;include&#187;</text></g><!--link UC01 to GMN10--><g class="link" data-entity-1="ent0005" data-entity-2="ent0011" data-link-type="association" data-source-line="28" id="lnk12"><path d="M325.88,182.7773 C365.89,191.2273 420.71,202.7473 469,212.7373 C494.88,218.0873 522.48,223.7473 549.09,229.1773" fill="none" id="UC01-GMN10" style="stroke:#000000;stroke-width:1;stroke-dasharray:7,7;"/></g><?plantuml-src PP9DJ-Cm48Rl_XMpvS8U6fAoSAXGfH2IlR0IQbJ4WOjn9gc5uydQhjY2-EyxJlYeG56YPEQPcVTrnc0R810utMq3DDgX2fgi-16ss2CCHceh_AEsWtIoXmUf7Zj7EziKPCZ1KLN6wu0Oc90Trc5l468tQJk31u1KWToKba_egJzCxZmgwH5U1C3brrdbQRMehcA6N8FkBPgTdPyLAKShig7MpmXP9bw523hmY4qnJxCbhB7JFg23N2dk68GOPS1iuz7Ts-CypKxoTC7twSyPI0-Rkbo_C_MUI_jH3zfcf7zD5By8yM6IoLwwS4rA1gn_pqONxuvcev9lGgPXHPfzHHTmYqwtUoXxgSs8hTD5D1QbmNo-cifOmkU7Y4z8abLaOGaN5zegisjmjHB2Ki2t_qpjnDyuZ6VJiXv5pg4Vo3RQTk3nxmwjuWLWTp4Mbo8HbQ6d9VpXdG1jsOKSbmLQCfpmdrKzUizBu1EH5oVbtH9omxJbOm5f6y1_2eUnyi59gxRe8N0lRA1rr7-qIGGVDqJPuZy0?></g></svg>