<?plantuml 1.2026.2?><svg xmlns="http://www.w3.org/2000/svg" xmlns:xlink="http://www.w3.org/1999/xlink" contentStyleType="text/css" data-diagram-type="DESCRIPTION" height="293px" preserveAspectRatio="none" style="width:935px;height:293px;background:#FEFEFE;" version="1.1" viewBox="0 0 935 293" width="935px" zoomAndPan="magnify"><title>UC-08: Edit Business Profile</title><defs/><g><rect fill="#FEFEFE" height="293" style="stroke:none;stroke-width:1;" width="935" x="0" y="0"/><g class="title" data-source-line="12"><text fill="#000000" font-family="Verdana" font-size="22" font-weight="bold" lengthAdjust="spacing" textLength="345.4795" x="290.5896" y="37.1182">UC-08: Edit Business Profile</text></g><!--cluster SmartLocateSG--><g class="cluster" data-qualified-name="SmartLocateSG" data-source-line="17" id="ent0004"><rect fill="#FFFFFF" height="104" rx="2.5" ry="2.5" style="stroke:#000000;stroke-width:1;" width="638" x="175" y="108.7373"/><text fill="#000000" font-family="Verdana" font-size="14" font-weight="bold" lengthAdjust="spacing" textLength="120.5449" x="433.7275" y="124.8125">SmartLocateSG</text></g><!--entity UC08--><g class="entity" data-qualified-name="SmartLocateSG.UC08" data-source-line="18" id="ent0005"><ellipse cx="276.1851" cy="170.6743" fill="#E3F2FD" rx="85.1851" ry="19.437" style="stroke:#1565C0;stroke-width:1;"/><text fill="#000000" font-family="Verdana" font-size="11" lengthAdjust="spacing" textLength="150.165" x="201.1026" y="173.8587">UC-08 Edit Business Profile</text></g><!--entity R07--><g class="entity" data-qualified-name="SmartLocateSG.R07" data-source-line="19" id="ent0006"><ellipse cx="707.0822" cy="165.6537" fill="#E3F2FD" rx="90.0822" ry="20.4164" style="stroke:#1565C0;stroke-width:1;"/><text fill="#000000" font-family="Verdana" font-size="11" lengthAdjust="spacing" textLength="160.8267" x="626.6689" y="168.8381">UC-07 View Business Profiles</text></g><!--entity USER--><g class="entity" data-qualified-name="USER" data-source-line="14" id="ent0002"><ellipse cx="69.2715" cy="74.7373" fill="#FFFFFF" rx="16" ry="16" style="stroke:#000000;stroke-width:1;"/><path d="M69.2715,94.7373 C73.2715,94.7373 76.2715,94.7373 80.2715,90.7373 C88.2715,90.7373 96.2715,98.7373 96.2715,106.7373 L96.2715,110.7373 C96.2715,114.7373 92.2715,118.7373 88.2715,118.7373 L50.2715,118.7373 C46.2715,118.7373 42.2715,114.7373 42.2715,110.7373 L42.2715,106.7373 C42.2715,98.7373 50.2715,90.7373 58.2715,90.7373 C62.2715,94.7373 65.2715,94.7373 69.2715,94.7373" fill="#FFFFFF" style="stroke:#000000;stroke-width:1;"/><text fill="#000000" font-family="Verdana" font-size="14" lengthAdjust="spacing" textLength="31.8555" x="15.5" y="133.8125">User</text><text fill="#000000" font-family="Verdana" font-size="14" lengthAdjust="spacing" textLength="107.543" x="15.5" y="150.8271">(A01/A02/A03)</text></g><!--entity A04--><g class="entity" data-qualified-name="A04" data-source-line="15" id="ent0003"><ellipse cx="69.5259" cy="205.7373" fill="#FFFFFF" rx="16" ry="16" style="stroke:#000000;stroke-width:1;"/><path d="M69.5259,225.7373 C73.5259,225.7373 76.5259,225.7373 80.5259,221.7373 C88.5259,221.7373 96.5259,229.7373 96.5259,237.7373 L96.5259,241.7373 C96.5259,245.7373 92.5259,249.7373 88.5259,249.7373 L50.5259,249.7373 C46.5259,249.7373 42.5259,245.7373 42.5259,241.7373 L42.5259,237.7373 C42.5259,229.7373 50.5259,221.7373 58.5259,221.7373 C62.5259,225.7373 65.5259,225.7373 69.5259,225.7373" fill="#FFFFFF" style="stroke:#000000;stroke-width:1;"/><text fill="#000000" font-family="Verdana" font-size="14" lengthAdjust="spacing" textLength="117.0518" x="11" y="264.8125">System Backend</text><text fill="#000000" font-family="Verdana" font-size="14" lengthAdjust="spacing" textLength="40.0859" x="11" y="281.8271">(A04)</text></g><g class="entity" data-qualified-name="GMN10" data-source-line="28" id="ent0011"><path d="M485,229.2373 L485,286.6353 A0,0 0 0 0 485,286.6353 L928.6587,286.6353 A0,0 0 0 0 928.6587,286.6353 L928.6587,239.2373 L918.6587,229.2373 L569.2,229.2373 L340.3,183.5773 L561.2,229.2373 L485,229.2373 A0,0 0 0 0 485,229.2373" fill="#FFFFFF" style="stroke:#000000;stroke-width:1;"/><path d="M918.6587,229.2373 L918.6587,239.2373 L928.6587,239.2373 L918.6587,229.2373" fill="#FFFFFF" style="stroke:#000000;stroke-width:1;"/><text fill="#000000" font-family="Verdana" font-size="13" lengthAdjust="spacing" textLength="319.2617" x="491" y="247.3071">Pre: Refer corresponding sequence precondition.</text><text fill="#000000" font-family="Verdana" font-size="13" lengthAdjust="spacing" textLength="333.7915" x="491" y="263.1064">Flow: Main interaction follows sequence messages.</text><text fill="#000000" font-family="Verdana" font-size="13" lengthAdjust="spacing" textLength="422.6587" x="491" y="278.9058">AC/EX: Alternate and exception branches traced from sequence.</text></g><!--link USER to UC08--><g class="link" data-entity-1="ent0002" data-entity-2="ent0005" data-link-type="dependency" data-source-line="22" id="lnk7"><path d="M123.7,122.6473 C155.18,132.6473 189.0619,143.4198 219.8619,153.2098" fill="none" id="USER-to-UC08" style="stroke:#000000;stroke-width:1;"/><polygon fill="#000000" points="225.58,155.0273,218.2146,148.4889,220.8149,153.5127,215.7912,156.1131,225.58,155.0273" style="stroke:#000000;stroke-width:1;"/></g><!--link A04 to UC08--><g class="link" data-entity-1="ent0003" data-entity-2="ent0005" data-link-type="dependency" data-source-line="23" id="lnk8"><path d="M128.01,218.1773 C158.84,208.2273 190.7303,197.9411 220.1803,188.4311" fill="none" id="A04-to-UC08" style="stroke:#000000;stroke-width:1;"/><polygon fill="#000000" points="225.89,186.5873,216.0963,185.5465,221.1319,188.1238,218.5547,193.1594,225.89,186.5873" style="stroke:#000000;stroke-width:1;"/></g><!--link UC08 to R07--><g class="link" data-entity-1="ent0005" data-entity-2="ent0006" data-link-type="dependency" data-source-line="25" id="lnk9"><path d="M360.99,169.7573 C434.78,168.8973 535.8104,167.7167 611.0404,166.8467" fill="none" id="UC08-to-R07" style="stroke:#000000;stroke-width:1;stroke-dasharray:7,7;"/><polygon fill="#000000" points="617.04,166.7773,607.9943,162.8816,612.0403,166.8351,608.0869,170.8811,617.04,166.7773" style="stroke:#000000;stroke-width:1;"/><text fill="#000000" font-family="Verdana" font-size="13" lengthAdjust="spacing" textLength="62.9624" x="392" y="165.8071">&#171;include&#187;</text></g><?plantuml-src RP9DRzim38Rl-XLSTjaESPrsNGkZ291wzYuRKCJ8iCCkgaGxGcNAesHatT3_FidkHz0DXWsRV4Y-b5-BRO3WW4st3w0Demh6aNWJzjWZ35OQ4lxEq21Pzd0hrLt7RYHTEkiOtjPLkew88HAomoRSMuJKJL9dyGYGAZYUq_A0tlN7oT6ZaXxXZm2uVZshEgjFwqyfurWZFqPNvn_Fopn6QqUXCRyHLYln84Gm8OxObSlyie1Acm3NepU4tiCDkzP4KMBI0ekTH_v1xpRvwcIJdyRxxFq2f8TTKssVcERU1-mdKKXweZ_CL7mHuddJIFQImnUdPC3cys9QvMcjnIJd_shcYML--Pg_W6y63__mVYhOvXTfsQGKbilrt20gUlaGwGbPjaui571rPKZPKUDwBGIvW8__thKpVyDOm1PRP52E6VtWI1lgmEFF4Kb5KyHbKomP9HErTOS2laQVWA60B2S3GUjiJFYNgZvgZyRmcTYK9zNt0ZOsqXHF2IHfm5yAXwdobYMfFNe8iHTgQDdrpsqo4KyVacpn5m00?></g></svg>