<?plantuml 1.2026.2?><svg xmlns="http://www.w3.org/2000/svg" xmlns:xlink="http://www.w3.org/1999/xlink" contentStyleType="text/css" data-diagram-type="DESCRIPTION" height="421px" preserveAspectRatio="none" style="width:910px;height:421px;background:#FEFEFE;" version="1.1" viewBox="0 0 910 421" width="910px" zoomAndPan="magnify"><title>UC-11: Toggle Map Layers</title><defs/><g><rect fill="#FEFEFE" height="421" style="stroke:none;stroke-width:1;" width="910" x="0" y="0"/><g class="title" data-source-line="12"><text fill="#000000" font-family="Verdana" font-size="22" font-weight="bold" lengthAdjust="spacing" textLength="322.5879" x="289.5354" y="37.1182">UC-11: Toggle Map Layers</text></g><!--cluster SmartLocateSG--><g class="cluster" data-qualified-name="SmartLocateSG" data-source-line="18" id="ent0005"><rect fill="#FFFFFF" height="90" rx="2.5" ry="2.5" style="stroke:#000000;stroke-width:1;" width="195" x="221" y="181.7373"/><text fill="#000000" font-family="Verdana" font-size="14" font-weight="bold" lengthAdjust="spacing" textLength="120.5449" x="258.2275" y="197.8125">SmartLocateSG</text></g><!--entity UC11--><g class="entity" data-qualified-name="SmartLocateSG.UC11" data-source-line="19" id="ent0006"><ellipse cx="318.471" cy="236.9315" fill="#E3F2FD" rx="81.471" ry="18.6942" style="stroke:#1565C0;stroke-width:1;"/><text fill="#000000" font-family="Verdana" font-size="11" lengthAdjust="spacing" textLength="141.9956" x="247.4732" y="240.1158">UC-11 Toggle Map Layers</text></g><!--entity USER--><g class="entity" data-qualified-name="USER" data-source-line="14" id="ent0002"><ellipse cx="93.7715" cy="74.7373" fill="#FFFFFF" rx="16" ry="16" style="stroke:#000000;stroke-width:1;"/><path d="M93.7715,94.7373 C97.7715,94.7373 100.7715,94.7373 104.7715,90.7373 C112.7715,90.7373 120.7715,98.7373 120.7715,106.7373 L120.7715,110.7373 C120.7715,114.7373 116.7715,118.7373 112.7715,118.7373 L74.7715,118.7373 C70.7715,118.7373 66.7715,114.7373 66.7715,110.7373 L66.7715,106.7373 C66.7715,98.7373 74.7715,90.7373 82.7715,90.7373 C86.7715,94.7373 89.7715,94.7373 93.7715,94.7373" fill="#FFFFFF" style="stroke:#000000;stroke-width:1;"/><text fill="#000000" font-family="Verdana" font-size="14" lengthAdjust="spacing" textLength="31.8555" x="40" y="133.8125">User</text><text fill="#000000" font-family="Verdana" font-size="14" lengthAdjust="spacing" textLength="107.543" x="40" y="150.8271">(A01/A02/A03)</text></g><!--entity A04--><g class="entity" data-qualified-name="A04" data-source-line="15" id="ent0003"><ellipse cx="94.0259" cy="205.7373" fill="#FFFFFF" rx="16" ry="16" style="stroke:#000000;stroke-width:1;"/><path d="M94.0259,225.7373 C98.0259,225.7373 101.0259,225.7373 105.0259,221.7373 C113.0259,221.7373 121.0259,229.7373 121.0259,237.7373 L121.0259,241.7373 C121.0259,245.7373 117.0259,249.7373 113.0259,249.7373 L75.0259,249.7373 C71.0259,249.7373 67.0259,245.7373 67.0259,241.7373 L67.0259,237.7373 C67.0259,229.7373 75.0259,221.7373 83.0259,221.7373 C87.0259,225.7373 90.0259,225.7373 94.0259,225.7373" fill="#FFFFFF" style="stroke:#000000;stroke-width:1;"/><text fill="#000000" font-family="Verdana" font-size="14" lengthAdjust="spacing" textLength="117.0518" x="35.5" y="264.8125">System Backend</text><text fill="#000000" font-family="Verdana" font-size="14" lengthAdjust="spacing" textLength="40.0859" x="35.5" y="281.8271">(A04)</text></g><!--entity A05--><g class="entity" data-qualified-name="A05" data-source-line="16" id="ent0004"><ellipse cx="94.207" cy="336.7373" fill="#FFFFFF" rx="16" ry="16" style="stroke:#000000;stroke-width:1;"/><path d="M94.207,356.7373 C98.207,356.7373 101.207,356.7373 105.207,352.7373 C113.207,352.7373 121.207,360.7373 121.207,368.7373 L121.207,372.7373 C121.207,376.7373 117.207,380.7373 113.207,380.7373 L75.207,380.7373 C71.207,380.7373 67.207,376.7373 67.207,372.7373 L67.207,368.7373 C67.207,360.7373 75.207,352.7373 83.207,352.7373 C87.207,356.7373 90.207,356.7373 94.207,356.7373" fill="#FFFFFF" style="stroke:#000000;stroke-width:1;"/><text fill="#000000" font-family="Verdana" font-size="14" lengthAdjust="spacing" textLength="166.4141" x="11" y="395.8125">External Data Providers</text><text fill="#000000" font-family="Verdana" font-size="14" lengthAdjust="spacing" textLength="40.0859" x="11" y="412.8271">(A05)</text></g><g class="entity" data-qualified-name="GMN10" data-source-line="30" id="ent0011"><path d="M460,208.2373 L460,232.7373 L400.18,236.7373 L460,240.7373 L460,265.6353 A0,0 0 0 0 460,265.6353 L903.6587,265.6353 A0,0 0 0 0 903.6587,265.6353 L903.6587,218.2373 L893.6587,208.2373 L460,208.2373 A0,0 0 0 0 460,208.2373" fill="#FFFFFF" style="stroke:#000000;stroke-width:1;"/><path d="M893.6587,208.2373 L893.6587,218.2373 L903.6587,218.2373 L893.6587,208.2373" fill="#FFFFFF" style="stroke:#000000;stroke-width:1;"/><text fill="#000000" font-family="Verdana" font-size="13" lengthAdjust="spacing" textLength="319.2617" x="466" y="226.3071">Pre: Refer corresponding sequence precondition.</text><text fill="#000000" font-family="Verdana" font-size="13" lengthAdjust="spacing" textLength="333.7915" x="466" y="242.1064">Flow: Main interaction follows sequence messages.</text><text fill="#000000" font-family="Verdana" font-size="13" lengthAdjust="spacing" textLength="422.6587" x="466" y="257.9058">AC/EX: Alternate and exception branches traced from sequence.</text></g><!--link USER to UC11--><g class="link" data-entity-1="ent0002" data-entity-2="ent0006" data-link-type="dependency" data-source-line="23" id="lnk7"><path d="M148.01,136.9473 C191.84,162.7573 247.2999,195.4027 282.9099,216.3727" fill="none" id="USER-to-UC11" style="stroke:#000000;stroke-width:1;"/><polygon fill="#000000" points="288.08,219.4173,282.3545,211.4036,283.7715,216.8801,278.295,218.2972,288.08,219.4173" style="stroke:#000000;stroke-width:1;"/></g><!--link A04 to UC11--><g class="link" data-entity-1="ent0003" data-entity-2="ent0006" data-link-type="dependency" data-source-line="24" id="lnk8"><path d="M152.59,236.7373 C178.21,236.7373 202.83,236.7373 230.69,236.7373" fill="none" id="A04-to-UC11" style="stroke:#000000;stroke-width:1;"/><polygon fill="#000000" points="236.69,236.7373,227.69,232.7373,231.69,236.7373,227.69,240.7373,236.69,236.7373" style="stroke:#000000;stroke-width:1;"/></g><!--link A05 to UC11--><g class="link" data-entity-1="ent0004" data-entity-2="ent0006" data-link-type="dependency" data-source-line="25" id="lnk9"><path d="M176.59,319.6973 C215.53,296.7773 254.5399,273.8121 282.8799,257.1221" fill="none" id="A05-to-UC11" style="stroke:#000000;stroke-width:1;"/><polygon fill="#000000" points="288.05,254.0773,278.2651,255.1977,283.7416,256.6146,282.3247,262.0911,288.05,254.0773" style="stroke:#000000;stroke-width:1;"/></g><?plantuml-src PPB1Rjim38RlUWekkso7f74xxv13WSorU-c0ecw07dfXRTeHQeikfQpDXhtxQBbfWzM60UldB-eZnOwQ0851RBiDK5kXAbXsvbFOKaymT6YTyO_M3IZOmmDMZwtmpjKPTopmkSZ7zyWng0DRAiE-8nYpeMixEZ9W5LYcC3wJv_uukFDKeIVuOm1-_7zMVbQS5XTZXAKcULMJz7kQBLKjs8NI_YP84lFNc6237h79vacoWbjkbG9-uW1Nk2VnnaGEc6qyoRtxibuc9-lbgNvdNsU07ZPbVdFmb7iVg8z0vEhe_ZQvzETWoby2YSCEBZ0WN0l_iWhfepizk5DZtdgYUNkKSCKL1YelPx7eGmDc4VmZzyIMQObZZICapEVdaw8mnulqVQ6Fuq2ljypDf5uBhU266XAeM8JymAwshWLFJpjobLw_mexQE18BKtJyl58Mwy0wBHRZg433dGRy-wwUlDSHy0kppaxoknMikzWQ1K1N0xrKDCIT3uAksfA7eBceXaQuVqkpCDfh6B7DFm00?></g></svg>