<?plantuml 1.2026.2?><svg xmlns="http://www.w3.org/2000/svg" xmlns:xlink="http://www.w3.org/1999/xlink" contentStyleType="text/css" data-diagram-type="DESCRIPTION" height="421px" preserveAspectRatio="none" style="width:922px;height:421px;background:#FEFEFE;" version="1.1" viewBox="0 0 922 421" width="922px" zoomAndPan="magnify"><title>UC-10: View Interactive Map</title><defs/><g><rect fill="#FEFEFE" height="421" style="stroke:none;stroke-width:1;" width="922" x="0" y="0"/><g class="title" data-source-line="12"><text fill="#000000" font-family="Verdana" font-size="22" font-weight="bold" lengthAdjust="spacing" textLength="355.7813" x="278.9387" y="37.1182">UC-10: View Interactive Map</text></g><!--cluster SmartLocateSG--><g class="cluster" data-qualified-name="SmartLocateSG" data-source-line="18" id="ent0005"><rect fill="#FFFFFF" height="92" rx="2.5" ry="2.5" style="stroke:#000000;stroke-width:1;" width="207" x="221" y="180.7373"/><text fill="#000000" font-family="Verdana" font-size="14" font-weight="bold" lengthAdjust="spacing" textLength="120.5449" x="264.2275" y="196.8125">SmartLocateSG</text></g><!--entity UC10--><g class="entity" data-qualified-name="SmartLocateSG.UC10" data-source-line="19" id="ent0006"><ellipse cx="324.4285" cy="236.623" fill="#E3F2FD" rx="87.4285" ry="19.8857" style="stroke:#1565C0;stroke-width:1;"/><text fill="#000000" font-family="Verdana" font-size="11" lengthAdjust="spacing" textLength="155.0635" x="246.8968" y="239.8073">UC-10 View Interactive Map</text></g><!--entity USER--><g class="entity" data-qualified-name="USER" data-source-line="14" id="ent0002"><ellipse cx="93.7715" cy="74.7373" fill="#FFFFFF" rx="16" ry="16" style="stroke:#000000;stroke-width:1;"/><path d="M93.7715,94.7373 C97.7715,94.7373 100.7715,94.7373 104.7715,90.7373 C112.7715,90.7373 120.7715,98.7373 120.7715,106.7373 L120.7715,110.7373 C120.7715,114.7373 116.7715,118.7373 112.7715,118.7373 L74.7715,118.7373 C70.7715,118.7373 66.7715,114.7373 66.7715,110.7373 L66.7715,106.7373 C66.7715,98.7373 74.7715,90.7373 82.7715,90.7373 C86.7715,94.7373 89.7715,94.7373 93.7715,94.7373" fill="#FFFFFF" style="stroke:#000000;stroke-width:1;"/><text fill="#000000" font-family="Verdana" font-size="14" lengthAdjust="spacing" textLength="31.8555" x="40" y="133.8125">User</text><text fill="#000000" font-family="Verdana" font-size="14" lengthAdjust="spacing" textLength="107.543" x="40" y="150.8271">(A01/A02/A03)</text></g><!--entity A04--><g class="entity" data-qualified-name="A04" data-source-line="15" id="ent0003"><ellipse cx="94.0259" cy="205.7373" fill="#FFFFFF" rx="16" ry="16" style="stroke:#000000;stroke-width:1;"/><path d="M94.0259,225.7373 C98.0259,225.7373 101.0259,225.7373 105.0259,221.7373 C113.0259,221.7373 121.0259,229.7373 121.0259,237.7373 L121.0259,241.7373 C121.0259,245.7373 117.0259,249.7373 113.0259,249.7373 L75.0259,249.7373 C71.0259,249.7373 67.0259,245.7373 67.0259,241.7373 L67.0259,237.7373 C67.0259,229.7373 75.0259,221.7373 83.0259,221.7373 C87.0259,225.7373 90.0259,225.7373 94.0259,225.7373" fill="#FFFFFF" style="stroke:#000000;stroke-width:1;"/><text fill="#000000" font-family="Verdana" font-size="14" lengthAdjust="spacing" textLength="117.0518" x="35.5" y="264.8125">System Backend</text><text fill="#000000" font-family="Verdana" font-size="14" lengthAdjust="spacing" textLength="40.0859" x="35.5" y="281.8271">(A04)</text></g><!--entity A05--><g class="entity" data-qualified-name="A05" data-source-line="16" id="ent0004"><ellipse cx="94.207" cy="336.7373" fill="#FFFFFF" rx="16" ry="16" style="stroke:#000000;stroke-width:1;"/><path d="M94.207,356.7373 C98.207,356.7373 101.207,356.7373 105.207,352.7373 C113.207,352.7373 121.207,360.7373 121.207,368.7373 L121.207,372.7373 C121.207,376.7373 117.207,380.7373 113.207,380.7373 L75.207,380.7373 C71.207,380.7373 67.207,376.7373 67.207,372.7373 L67.207,368.7373 C67.207,360.7373 75.207,352.7373 83.207,352.7373 C87.207,356.7373 90.207,356.7373 94.207,356.7373" fill="#FFFFFF" style="stroke:#000000;stroke-width:1;"/><text fill="#000000" font-family="Verdana" font-size="14" lengthAdjust="spacing" textLength="166.4141" x="11" y="395.8125">External Data Providers</text><text fill="#000000" font-family="Verdana" font-size="14" lengthAdjust="spacing" textLength="40.0859" x="11" y="412.8271">(A05)</text></g><g class="entity" data-qualified-name="GMN10" data-source-line="30" id="ent0011"><path d="M472,208.2373 L472,232.7373 L412.13,236.7373 L472,240.7373 L472,265.6353 A0,0 0 0 0 472,265.6353 L915.6587,265.6353 A0,0 0 0 0 915.6587,265.6353 L915.6587,218.2373 L905.6587,208.2373 L472,208.2373 A0,0 0 0 0 472,208.2373" fill="#FFFFFF" style="stroke:#000000;stroke-width:1;"/><path d="M905.6587,208.2373 L905.6587,218.2373 L915.6587,218.2373 L905.6587,208.2373" fill="#FFFFFF" style="stroke:#000000;stroke-width:1;"/><text fill="#000000" font-family="Verdana" font-size="13" lengthAdjust="spacing" textLength="319.2617" x="478" y="226.3071">Pre: Refer corresponding sequence precondition.</text><text fill="#000000" font-family="Verdana" font-size="13" lengthAdjust="spacing" textLength="333.7915" x="478" y="242.1064">Flow: Main interaction follows sequence messages.</text><text fill="#000000" font-family="Verdana" font-size="13" lengthAdjust="spacing" textLength="422.6587" x="478" y="257.9058">AC/EX: Alternate and exception branches traced from sequence.</text></g><!--link USER to UC10--><g class="link" data-entity-1="ent0002" data-entity-2="ent0006" data-link-type="dependency" data-source-line="23" id="lnk7"><path d="M148.28,136.2873 C192.46,161.6173 248.6351,193.8125 285.7951,215.1225" fill="none" id="USER-to-UC10" style="stroke:#000000;stroke-width:1;"/><polygon fill="#000000" points="291,218.1073,285.1826,210.1601,286.6626,215.62,281.2028,217.1,291,218.1073" style="stroke:#000000;stroke-width:1;"/></g><!--link A04 to UC10--><g class="link" data-entity-1="ent0003" data-entity-2="ent0006" data-link-type="dependency" data-source-line="24" id="lnk8"><path d="M152.66,236.7373 C178.18,236.7373 202.73,236.7373 230.9,236.7373" fill="none" id="A04-to-UC10" style="stroke:#000000;stroke-width:1;"/><polygon fill="#000000" points="236.9,236.7373,227.9,232.7373,231.9,236.7373,227.9,240.7373,236.9,236.7373" style="stroke:#000000;stroke-width:1;"/></g><!--link A05 to UC10--><g class="link" data-entity-1="ent0004" data-entity-2="ent0006" data-link-type="dependency" data-source-line="25" id="lnk9"><path d="M177.17,320.6273 C216.58,298.0373 256.325,275.2519 285.885,258.3019" fill="none" id="A05-to-UC10" style="stroke:#000000;stroke-width:1;"/><polygon fill="#000000" points="291.09,255.3173,281.2927,256.3242,286.7525,257.8045,285.2722,263.2642,291.09,255.3173" style="stroke:#000000;stroke-width:1;"/></g><?plantuml-src RPB1Rjim38RlUWekkso7f7Oxzv33WCorYm4RKDJ8q4Clh4mxGcNHbPIctR1t7stNRL3CXW7fvo_o4qrBJOJ8u4sxYr0RJpeQTkf3t557q5iqJeLxuthqsC4TwllMyzxLELlsyB4iXlV8qOi3MwhYioKOig5hBHqPK4VsKnWF5BWx3ku3QGm4VnJ0j_UrYhFojBmO8knhyYzgcfrdUI9goIvMvZT1cgg_IaKJfSGsNwR96duPEi1t5ybBUVD8y1DxfKOKM6m3-LltQPEa9vlaLBwppml00Dkgk9uzrNE8r8rCvEhH_MLooM8s5KzImA652um8LvuVZN26qPtDxaofrxP8tWvz_C4Q8rMNY_7USmyM8_j_qIUyF4tKSDE14vRBhvCYFCURx6qZZ-D8B_-QcqczyhI6Qsh8WsRlAVJiQkDQ2FIm9wTb28Htq8R1MAdIyc4j4CQ1cQdOGSDM0k7jL4SXo224bTha9yND6ZPsx8u0eAk1dZJruyaxZqxlA42KN5H3uxbxJRDIqcuOiDK_?></g></svg>