<?plantuml 1.2026.2?><svg xmlns="http://www.w3.org/2000/svg" xmlns:xlink="http://www.w3.org/1999/xlink" contentStyleType="text/css" data-diagram-type="DESCRIPTION" height="290px" preserveAspectRatio="none" style="width:836px;height:290px;background:#FEFEFE;" version="1.1" viewBox="0 0 836 290" width="836px" zoomAndPan="magnify"><title>UC-17: View Portfolio</title><defs/><g><rect fill="#FEFEFE" height="290" style="stroke:none;stroke-width:1;" width="836" x="0" y="0"/><g class="title" data-source-line="12"><text fill="#000000" font-family="Verdana" font-size="22" font-weight="bold" lengthAdjust="spacing" textLength="266.7178" x="280.4705" y="37.1182">UC-17: View Portfolio</text></g><!--cluster SmartLocateSG--><g class="cluster" data-qualified-name="SmartLocateSG" data-source-line="17" id="ent0004"><rect fill="#FFFFFF" height="84" rx="2.5" ry="2.5" style="stroke:#000000;stroke-width:1;" width="170" x="172" y="119.7373"/><text fill="#000000" font-family="Verdana" font-size="14" font-weight="bold" lengthAdjust="spacing" textLength="120.5449" x="196.7275" y="135.8125">SmartLocateSG</text></g><!--entity UC17--><g class="entity" data-qualified-name="SmartLocateSG.UC17" data-source-line="18" id="ent0005"><ellipse cx="257.1343" cy="171.9642" fill="#E3F2FD" rx="69.1343" ry="16.2269" style="stroke:#1565C0;stroke-width:1;"/><text fill="#000000" font-family="Verdana" font-size="11" lengthAdjust="spacing" textLength="114.1357" x="200.0664" y="175.1485">UC-17 View Portfolio</text></g><!--entity USER--><g class="entity" data-qualified-name="USER" data-source-line="14" id="ent0002"><ellipse cx="69.2715" cy="74.7373" fill="#FFFFFF" rx="16" ry="16" style="stroke:#000000;stroke-width:1;"/><path d="M69.2715,94.7373 C73.2715,94.7373 76.2715,94.7373 80.2715,90.7373 C88.2715,90.7373 96.2715,98.7373 96.2715,106.7373 L96.2715,110.7373 C96.2715,114.7373 92.2715,118.7373 88.2715,118.7373 L50.2715,118.7373 C46.2715,118.7373 42.2715,114.7373 42.2715,110.7373 L42.2715,106.7373 C42.2715,98.7373 50.2715,90.7373 58.2715,90.7373 C62.2715,94.7373 65.2715,94.7373 69.2715,94.7373" fill="#FFFFFF" style="stroke:#000000;stroke-width:1;"/><text fill="#000000" font-family="Verdana" font-size="14" lengthAdjust="spacing" textLength="31.8555" x="15.5" y="133.8125">User</text><text fill="#000000" font-family="Verdana" font-size="14" lengthAdjust="spacing" textLength="107.543" x="15.5" y="150.8271">(A01/A02/A03)</text></g><!--entity A04--><g class="entity" data-qualified-name="A04" data-source-line="15" id="ent0003"><ellipse cx="69.5259" cy="205.7373" fill="#FFFFFF" rx="16" ry="16" style="stroke:#000000;stroke-width:1;"/><path d="M69.5259,225.7373 C73.5259,225.7373 76.5259,225.7373 80.5259,221.7373 C88.5259,221.7373 96.5259,229.7373 96.5259,237.7373 L96.5259,241.7373 C96.5259,245.7373 92.5259,249.7373 88.5259,249.7373 L50.5259,249.7373 C46.5259,249.7373 42.5259,245.7373 42.5259,241.7373 L42.5259,237.7373 C42.5259,229.7373 50.5259,221.7373 58.5259,221.7373 C62.5259,225.7373 65.5259,225.7373 69.5259,225.7373" fill="#FFFFFF" style="stroke:#000000;stroke-width:1;"/><text fill="#000000" font-family="Verdana" font-size="14" lengthAdjust="spacing" textLength="117.0518" x="11" y="264.8125">System Backend</text><text fill="#000000" font-family="Verdana" font-size="14" lengthAdjust="spacing" textLength="40.0859" x="11" y="281.8271">(A04)</text></g><g class="entity" data-qualified-name="GMN8" data-source-line="28" id="ent0009"><path d="M386,143.2373 L386,167.7373 L326.12,171.7373 L386,175.7373 L386,200.6353 A0,0 0 0 0 386,200.6353 L829.6587,200.6353 A0,0 0 0 0 829.6587,200.6353 L829.6587,153.2373 L819.6587,143.2373 L386,143.2373 A0,0 0 0 0 386,143.2373" fill="#FFFFFF" style="stroke:#000000;stroke-width:1;"/><path d="M819.6587,143.2373 L819.6587,153.2373 L829.6587,153.2373 L819.6587,143.2373" fill="#FFFFFF" style="stroke:#000000;stroke-width:1;"/><text fill="#000000" font-family="Verdana" font-size="13" lengthAdjust="spacing" textLength="319.2617" x="392" y="161.3071">Pre: Refer corresponding sequence precondition.</text><text fill="#000000" font-family="Verdana" font-size="13" lengthAdjust="spacing" textLength="333.7915" x="392" y="177.1064">Flow: Main interaction follows sequence messages.</text><text fill="#000000" font-family="Verdana" font-size="13" lengthAdjust="spacing" textLength="422.6587" x="392" y="192.9058">AC/EX: Alternate and exception branches traced from sequence.</text></g><!--link USER to UC17--><g class="link" data-entity-1="ent0002" data-entity-2="ent0005" data-link-type="dependency" data-source-line="22" id="lnk6"><path d="M123.66,124.6473 C153.95,135.4273 185.5374,146.6652 212.7874,156.3652" fill="none" id="USER-to-UC17" style="stroke:#000000;stroke-width:1;"/><polygon fill="#000000" points="218.44,158.3773,211.3026,151.5908,213.7295,156.7006,208.6198,159.1275,218.44,158.3773" style="stroke:#000000;stroke-width:1;"/></g><!--link A04 to UC17--><g class="link" data-entity-1="ent0003" data-entity-2="ent0005" data-link-type="dependency" data-source-line="23" id="lnk7"><path d="M128.18,216.5273 C157.42,206.2773 186.4675,196.1012 212.3275,187.0412" fill="none" id="A04-to-UC17" style="stroke:#000000;stroke-width:1;"/><polygon fill="#000000" points="217.99,185.0573,208.1736,184.2581,213.2712,186.7105,210.8188,191.8081,217.99,185.0573" style="stroke:#000000;stroke-width:1;"/></g><?plantuml-src NL5DJyCm3BtdLvXnWSF6ogUq0z8eAnUG4DKG1ouXTRk8DYwEf_4X_ZjkoyT4eaZ9yxFzd5TZAI04xAkLGE4PdNWAPaTMs22qjVN1n6SVMiksWIVhdYkcTIXIgebXDrjqUulHAiDMcCjRZT1Liw6gSOjWdH0FORl1ICrsS1tHsOZmOG0k_lTQ76M7sMKN8IwGlz7avFGadIgQKP3SloCaYVaqHhneYsKwJivcSEzn0xV4KbBjoPXU18oM4VanxCsdoS5yUgZdQ7y4Di8oNzpzSFAtADZqQZ0KFVjuOEd5cDyHbTbObcjoLZ2_6lKp_CmpwdNyap6qIfCpq-djUi9uV3uWMllleIkGuBT9L0xeBUCCxh141aVC65iAXGyLH7nPOt3gdehhiCxHYSbgsipWHWq57mJPzaw3Ij50_CjgC4PrC4xCF3rOFCnWNYixw5HWGm7uwh3jCv_O1hV22AAri82IgVajCp7wMz39Dby0?></g></svg>