<?plantuml 1.2026.2?><svg xmlns="http://www.w3.org/2000/svg" xmlns:xlink="http://www.w3.org/1999/xlink" contentStyleType="text/css" data-diagram-type="DESCRIPTION" height="290px" preserveAspectRatio="none" style="width:869px;height:290px;background:#FEFEFE;" version="1.1" viewBox="0 0 869 290" width="869px" zoomAndPan="magnify"><title>UC-16: Save Candidate Site</title><defs/><g><rect fill="#FEFEFE" height="290" style="stroke:none;stroke-width:1;" width="869" x="0" y="0"/><g class="title" data-source-line="12"><text fill="#000000" font-family="Verdana" font-size="22" font-weight="bold" lengthAdjust="spacing" textLength="337.9492" x="261.3547" y="37.1182">UC-16: Save Candidate Site</text></g><!--cluster SmartLocateSG--><g class="cluster" data-qualified-name="SmartLocateSG" data-source-line="17" id="ent0004"><rect fill="#FFFFFF" height="92" rx="2.5" ry="2.5" style="stroke:#000000;stroke-width:1;" width="203" x="172" y="115.7373"/><text fill="#000000" font-family="Verdana" font-size="14" font-weight="bold" lengthAdjust="spacing" textLength="120.5449" x="213.2275" y="131.8125">SmartLocateSG</text></g><!--entity UC16--><g class="entity" data-qualified-name="SmartLocateSG.UC16" data-source-line="18" id="ent0005"><ellipse cx="273.2906" cy="171.6954" fill="#E3F2FD" rx="85.2906" ry="19.4581" style="stroke:#1565C0;stroke-width:1;"/><text fill="#000000" font-family="Verdana" font-size="11" lengthAdjust="spacing" textLength="150.396" x="198.0926" y="174.8798">UC-16 Save Candidate Site</text></g><!--entity USER--><g class="entity" data-qualified-name="USER" data-source-line="14" id="ent0002"><ellipse cx="69.2715" cy="74.7373" fill="#FFFFFF" rx="16" ry="16" style="stroke:#000000;stroke-width:1;"/><path d="M69.2715,94.7373 C73.2715,94.7373 76.2715,94.7373 80.2715,90.7373 C88.2715,90.7373 96.2715,98.7373 96.2715,106.7373 L96.2715,110.7373 C96.2715,114.7373 92.2715,118.7373 88.2715,118.7373 L50.2715,118.7373 C46.2715,118.7373 42.2715,114.7373 42.2715,110.7373 L42.2715,106.7373 C42.2715,98.7373 50.2715,90.7373 58.2715,90.7373 C62.2715,94.7373 65.2715,94.7373 69.2715,94.7373" fill="#FFFFFF" style="stroke:#000000;stroke-width:1;"/><text fill="#000000" font-family="Verdana" font-size="14" lengthAdjust="spacing" textLength="31.8555" x="15.5" y="133.8125">User</text><text fill="#000000" font-family="Verdana" font-size="14" lengthAdjust="spacing" textLength="107.543" x="15.5" y="150.8271">(A01/A02/A03)</text></g><!--entity A04--><g class="entity" data-qualified-name="A04" data-source-line="15" id="ent0003"><ellipse cx="69.5259" cy="205.7373" fill="#FFFFFF" rx="16" ry="16" style="stroke:#000000;stroke-width:1;"/><path d="M69.5259,225.7373 C73.5259,225.7373 76.5259,225.7373 80.5259,221.7373 C88.5259,221.7373 96.5259,229.7373 96.5259,237.7373 L96.5259,241.7373 C96.5259,245.7373 92.5259,249.7373 88.5259,249.7373 L50.5259,249.7373 C46.5259,249.7373 42.5259,245.7373 42.5259,241.7373 L42.5259,237.7373 C42.5259,229.7373 50.5259,221.7373 58.5259,221.7373 C62.5259,225.7373 65.5259,225.7373 69.5259,225.7373" fill="#FFFFFF" style="stroke:#000000;stroke-width:1;"/><text fill="#000000" font-family="Verdana" font-size="14" lengthAdjust="spacing" textLength="117.0518" x="11" y="264.8125">System Backend</text><text fill="#000000" font-family="Verdana" font-size="14" lengthAdjust="spacing" textLength="40.0859" x="11" y="281.8271">(A04)</text></g><g class="entity" data-qualified-name="GMN8" data-source-line="28" id="ent0009"><path d="M419,143.2373 L419,167.7373 L359.27,171.7373 L419,175.7373 L419,200.6353 A0,0 0 0 0 419,200.6353 L862.6587,200.6353 A0,0 0 0 0 862.6587,200.6353 L862.6587,153.2373 L852.6587,143.2373 L419,143.2373 A0,0 0 0 0 419,143.2373" fill="#FFFFFF" style="stroke:#000000;stroke-width:1;"/><path d="M852.6587,143.2373 L852.6587,153.2373 L862.6587,153.2373 L852.6587,143.2373" fill="#FFFFFF" style="stroke:#000000;stroke-width:1;"/><text fill="#000000" font-family="Verdana" font-size="13" lengthAdjust="spacing" textLength="319.2617" x="425" y="161.3071">Pre: Refer corresponding sequence precondition.</text><text fill="#000000" font-family="Verdana" font-size="13" lengthAdjust="spacing" textLength="333.7915" x="425" y="177.1064">Flow: Main interaction follows sequence messages.</text><text fill="#000000" font-family="Verdana" font-size="13" lengthAdjust="spacing" textLength="422.6587" x="425" y="192.9058">AC/EX: Alternate and exception branches traced from sequence.</text></g><!--link USER to UC16--><g class="link" data-entity-1="ent0002" data-entity-2="ent0005" data-link-type="dependency" data-source-line="22" id="lnk6"><path d="M123.57,123.0773 C154.55,133.1973 187.6569,144.0134 217.8869,153.8934" fill="none" id="USER-to-UC16" style="stroke:#000000;stroke-width:1;"/><polygon fill="#000000" points="223.59,155.7573,216.2779,149.1593,218.8374,154.204,213.7927,156.7635,223.59,155.7573" style="stroke:#000000;stroke-width:1;"/></g><!--link A04 to UC16--><g class="link" data-entity-1="ent0003" data-entity-2="ent0005" data-link-type="dependency" data-source-line="23" id="lnk7"><path d="M128.11,218.1973 C158.2,208.5173 188.9185,198.6355 217.6585,189.3855" fill="none" id="A04-to-UC16" style="stroke:#000000;stroke-width:1;"/><polygon fill="#000000" points="223.37,187.5473,213.5773,186.497,218.6104,189.0792,216.0283,194.1123,223.37,187.5473" style="stroke:#000000;stroke-width:1;"/></g><?plantuml-src RL5DJyCm3BtdLvXnWSF6oc277P16MRc0X5PDui0bf6uNqSR5oHW3yTznMZucHADAxVEpttDUZMM0GC2sMWSeBAC9bfmw26ji4DfQMwVyatMjPjt0epPF5TF65IdLn72OBUBPOxJ2q1NcOLSZn6dQLJNk4RG9n7rPRz5Jir_SU3JQ8xmhWCk_Mej9TffTnGfnWVo59kVJytGiQ4OkvFOD8KdKXrB11f5OfSDaEeDSlo2asXMsq04Xjm6Lwfp0OEMH7zpHV9oSpCUdyawE1w0zhFB5yfkJxtp0fhE4hkZOPprBFfJwsLEOZUPmGqPaykj1jyZtKeFEp7zUUhqqcQheF0h3S7ZH8oBm-oEF8sdguwAoH-yOPx344XaCCQDlIQQx2Zm-Rz0PoL4SHYncEr9PJTiPt4gqO5r0rbtcK58j1V_RrQ3tagKVgNbwihYVmRmMjekknJxWgy6swtnaxSmQFGIPXGMKJCtFc96IAuDeMtq2?></g></svg>