<?plantuml 1.2026.2?><svg xmlns="http://www.w3.org/2000/svg" xmlns:xlink="http://www.w3.org/1999/xlink" contentStyleType="text/css" data-diagram-type="DESCRIPTION" height="421px" preserveAspectRatio="none" style="width:951px;height:421px;background:#FEFEFE;" version="1.1" viewBox="0 0 951 421" width="951px" zoomAndPan="magnify"><title>UC-14: View Planning Area Details</title><defs/><g><rect fill="#FEFEFE" height="421" style="stroke:none;stroke-width:1;" width="951" x="0" y="0"/><g class="title" data-source-line="12"><text fill="#000000" font-family="Verdana" font-size="22" font-weight="bold" lengthAdjust="spacing" textLength="426.293" x="258.1829" y="37.1182">UC-14: View Planning Area Details</text></g><!--cluster SmartLocateSG--><g class="cluster" data-qualified-name="SmartLocateSG" data-source-line="18" id="ent0005"><rect fill="#FFFFFF" height="98" rx="2.5" ry="2.5" style="stroke:#000000;stroke-width:1;" width="236" x="221" y="177.7373"/><text fill="#000000" font-family="Verdana" font-size="14" font-weight="bold" lengthAdjust="spacing" textLength="120.5449" x="278.7275" y="193.8125">SmartLocateSG</text></g><!--entity UC14--><g class="entity" data-qualified-name="SmartLocateSG.UC14" data-source-line="19" id="ent0006"><ellipse cx="339.0106" cy="236.5394" fill="#E3F2FD" rx="102.0106" ry="22.8021" style="stroke:#1565C0;stroke-width:1;"/><text fill="#000000" font-family="Verdana" font-size="11" lengthAdjust="spacing" textLength="186.3984" x="245.8114" y="239.7238">UC-14 View Planning Area Details</text></g><!--entity USER--><g class="entity" data-qualified-name="USER" data-source-line="14" id="ent0002"><ellipse cx="93.7715" cy="74.7373" fill="#FFFFFF" rx="16" ry="16" style="stroke:#000000;stroke-width:1;"/><path d="M93.7715,94.7373 C97.7715,94.7373 100.7715,94.7373 104.7715,90.7373 C112.7715,90.7373 120.7715,98.7373 120.7715,106.7373 L120.7715,110.7373 C120.7715,114.7373 116.7715,118.7373 112.7715,118.7373 L74.7715,118.7373 C70.7715,118.7373 66.7715,114.7373 66.7715,110.7373 L66.7715,106.7373 C66.7715,98.7373 74.7715,90.7373 82.7715,90.7373 C86.7715,94.7373 89.7715,94.7373 93.7715,94.7373" fill="#FFFFFF" style="stroke:#000000;stroke-width:1;"/><text fill="#000000" font-family="Verdana" font-size="14" lengthAdjust="spacing" textLength="31.8555" x="40" y="133.8125">User</text><text fill="#000000" font-family="Verdana" font-size="14" lengthAdjust="spacing" textLength="107.543" x="40" y="150.8271">(A01/A02/A03)</text></g><!--entity A04--><g class="entity" data-qualified-name="A04" data-source-line="15" id="ent0003"><ellipse cx="94.0259" cy="205.7373" fill="#FFFFFF" rx="16" ry="16" style="stroke:#000000;stroke-width:1;"/><path d="M94.0259,225.7373 C98.0259,225.7373 101.0259,225.7373 105.0259,221.7373 C113.0259,221.7373 121.0259,229.7373 121.0259,237.7373 L121.0259,241.7373 C121.0259,245.7373 117.0259,249.7373 113.0259,249.7373 L75.0259,249.7373 C71.0259,249.7373 67.0259,245.7373 67.0259,241.7373 L67.0259,237.7373 C67.0259,229.7373 75.0259,221.7373 83.0259,221.7373 C87.0259,225.7373 90.0259,225.7373 94.0259,225.7373" fill="#FFFFFF" style="stroke:#000000;stroke-width:1;"/><text fill="#000000" font-family="Verdana" font-size="14" lengthAdjust="spacing" textLength="117.0518" x="35.5" y="264.8125">System Backend</text><text fill="#000000" font-family="Verdana" font-size="14" lengthAdjust="spacing" textLength="40.0859" x="35.5" y="281.8271">(A04)</text></g><!--entity A05--><g class="entity" data-qualified-name="A05" data-source-line="16" id="ent0004"><ellipse cx="94.207" cy="336.7373" fill="#FFFFFF" rx="16" ry="16" style="stroke:#000000;stroke-width:1;"/><path d="M94.207,356.7373 C98.207,356.7373 101.207,356.7373 105.207,352.7373 C113.207,352.7373 121.207,360.7373 121.207,368.7373 L121.207,372.7373 C121.207,376.7373 117.207,380.7373 113.207,380.7373 L75.207,380.7373 C71.207,380.7373 67.207,376.7373 67.207,372.7373 L67.207,368.7373 C67.207,360.7373 75.207,352.7373 83.207,352.7373 C87.207,356.7373 90.207,356.7373 94.207,356.7373" fill="#FFFFFF" style="stroke:#000000;stroke-width:1;"/><text fill="#000000" font-family="Verdana" font-size="14" lengthAdjust="spacing" textLength="166.4141" x="11" y="395.8125">External Data Providers</text><text fill="#000000" font-family="Verdana" font-size="14" lengthAdjust="spacing" textLength="40.0859" x="11" y="412.8271">(A05)</text></g><g class="entity" data-qualified-name="GMN10" data-source-line="30" id="ent0011"><path d="M501,208.2373 L501,232.7373 L441.12,236.7373 L501,240.7373 L501,265.6353 A0,0 0 0 0 501,265.6353 L944.6587,265.6353 A0,0 0 0 0 944.6587,265.6353 L944.6587,218.2373 L934.6587,208.2373 L501,208.2373 A0,0 0 0 0 501,208.2373" fill="#FFFFFF" style="stroke:#000000;stroke-width:1;"/><path d="M934.6587,208.2373 L934.6587,218.2373 L944.6587,218.2373 L934.6587,208.2373" fill="#FFFFFF" style="stroke:#000000;stroke-width:1;"/><text fill="#000000" font-family="Verdana" font-size="13" lengthAdjust="spacing" textLength="319.2617" x="507" y="226.3071">Pre: Refer corresponding sequence precondition.</text><text fill="#000000" font-family="Verdana" font-size="13" lengthAdjust="spacing" textLength="333.7915" x="507" y="242.1064">Flow: Main interaction follows sequence messages.</text><text fill="#000000" font-family="Verdana" font-size="13" lengthAdjust="spacing" textLength="422.6587" x="507" y="257.9058">AC/EX: Alternate and exception branches traced from sequence.</text></g><!--link USER to UC14--><g class="link" data-entity-1="ent0002" data-entity-2="ent0006" data-link-type="dependency" data-source-line="23" id="lnk7"><path d="M148.03,134.3273 C193.41,158.7873 252.4491,190.6091 293.3691,212.6791" fill="none" id="USER-to-UC14" style="stroke:#000000;stroke-width:1;"/><polygon fill="#000000" points="298.65,215.5273,292.6275,207.7344,294.2493,213.1538,288.8299,214.7756,298.65,215.5273" style="stroke:#000000;stroke-width:1;"/></g><!--link A04 to UC14--><g class="link" data-entity-1="ent0003" data-entity-2="ent0006" data-link-type="dependency" data-source-line="24" id="lnk8"><path d="M152.59,236.7373 C177.71,236.7373 201.93,236.7373 230.61,236.7373" fill="none" id="A04-to-UC14" style="stroke:#000000;stroke-width:1;"/><polygon fill="#000000" points="236.61,236.7373,227.61,232.7373,231.61,236.7373,227.61,240.7373,236.61,236.7373" style="stroke:#000000;stroke-width:1;"/></g><!--link A05 to UC14--><g class="link" data-entity-1="ent0004" data-entity-2="ent0006" data-link-type="dependency" data-source-line="25" id="lnk9"><path d="M177.27,323.3873 C218.3,301.2673 260.7386,278.3946 293.4586,260.7546" fill="none" id="A05-to-UC14" style="stroke:#000000;stroke-width:1;"/><polygon fill="#000000" points="298.74,257.9073,288.9197,258.6573,294.3389,260.28,292.7161,265.6992,298.74,257.9073" style="stroke:#000000;stroke-width:1;"/></g><?plantuml-src VLAnRjim4Dtv5LTtQGSxLc9ry510bQKi3M14SD2XouKwoKGeKZdISTAY_rwIYXEZGqK88DyzthqxFasT1s-1LR_tq2ecwPKrueFVqq0mQbH6k0TbHcGSu1xbGy_sODhIQilmiQxYEcECWO4zDVv54yHiQ7fDPmIKtl8KnYCvEvm73uuaEeBV0k3RlxMgg_gotiI8vPRu5StoBtcv36XjZM_KBu8i4t-4yCg74hjodgtMSAVe25kDnYZJGy64i26FIZiXaY2OxHpnJ_EfM6ONnV8o_5UVPu0ETarrU-8qByxJa9IHQHDxDR72vaIgdZsnGGqRz0XRjaygg7M9dP_OkH1lmmbv1sJ_tKhqr5pFKlUdISnI1_zfO19PPYiHkuvgOJx_EY51rVaXVp-4prXFh-zkkmdTCgtXbZfYa9QPt6XD6miwUZoGaS4GGNN4eaaMejRsk8QRu15G9dIDoJpGMHq2xltMGCu5KxY5ACgBwiSQ2frc50IWQO6U9OtfvZsZaNjou4CkQg5ZExobMOWmT8YonLy0?></g></svg>