<?plantuml 1.2026.2?><svg xmlns="http://www.w3.org/2000/svg" xmlns:xlink="http://www.w3.org/1999/xlink" contentStyleType="text/css" data-diagram-type="DESCRIPTION" height="421px" preserveAspectRatio="none" style="width:1047px;height:421px;background:#FEFEFE;" version="1.1" viewBox="0 0 1047 421" width="1047px" zoomAndPan="magnify"><title>UC-13: Drop POI Pin and Get Site Score</title><defs/><g><rect fill="#FEFEFE" height="421" style="stroke:none;stroke-width:1;" width="1047" x="0" y="0"/><g class="title" data-source-line="12"><text fill="#000000" font-family="Verdana" font-size="22" font-weight="bold" lengthAdjust="spacing" textLength="488.1787" x="275.24" y="37.1182">UC-13: Drop POI Pin and Get Site Score</text></g><!--cluster SmartLocateSG--><g class="cluster" data-qualified-name="SmartLocateSG" data-source-line="18" id="ent0005"><rect fill="#FFFFFF" height="169" rx="2.5" ry="2.5" style="stroke:#000000;stroke-width:1;" width="702" x="224" y="118.7373"/><text fill="#000000" font-family="Verdana" font-size="14" font-weight="bold" lengthAdjust="spacing" textLength="120.5449" x="514.7275" y="134.8125">SmartLocateSG</text></g><!--entity UC13--><g class="entity" data-qualified-name="SmartLocateSG.UC13" data-source-line="19" id="ent0006"><ellipse cx="356.7479" cy="236.9869" fill="#E3F2FD" rx="116.7479" ry="25.7496" style="stroke:#1565C0;stroke-width:1;"/><text fill="#000000" font-family="Verdana" font-size="11" lengthAdjust="spacing" textLength="217.4541" x="248.0208" y="240.1712">UC-13 Drop POI Pin and Get Site Score</text></g><!--entity R10--><g class="entity" data-qualified-name="SmartLocateSG.R10" data-source-line="20" id="ent0007"><ellipse cx="818.9285" cy="251.623" fill="#E3F2FD" rx="87.4285" ry="19.8857" style="stroke:#1565C0;stroke-width:1;"/><text fill="#000000" font-family="Verdana" font-size="11" lengthAdjust="spacing" textLength="155.0635" x="741.3968" y="254.8073">UC-10 View Interactive Map</text></g><!--entity R22--><g class="entity" data-qualified-name="SmartLocateSG.R22" data-source-line="21" id="ent0008"><ellipse cx="818.7547" cy="175.7882" fill="#E3F2FD" rx="90.7547" ry="20.5509" style="stroke:#1565C0;stroke-width:1;"/><text fill="#000000" font-family="Verdana" font-size="11" lengthAdjust="spacing" textLength="162.2822" x="737.6136" y="178.9726">UC-22 Select Scenario Preset</text></g><!--entity USER--><g class="entity" data-qualified-name="USER" data-source-line="14" id="ent0002"><ellipse cx="93.7715" cy="74.7373" fill="#FFFFFF" rx="16" ry="16" style="stroke:#000000;stroke-width:1;"/><path d="M93.7715,94.7373 C97.7715,94.7373 100.7715,94.7373 104.7715,90.7373 C112.7715,90.7373 120.7715,98.7373 120.7715,106.7373 L120.7715,110.7373 C120.7715,114.7373 116.7715,118.7373 112.7715,118.7373 L74.7715,118.7373 C70.7715,118.7373 66.7715,114.7373 66.7715,110.7373 L66.7715,106.7373 C66.7715,98.7373 74.7715,90.7373 82.7715,90.7373 C86.7715,94.7373 89.7715,94.7373 93.7715,94.7373" fill="#FFFFFF" style="stroke:#000000;stroke-width:1;"/><text fill="#000000" font-family="Verdana" font-size="14" lengthAdjust="spacing" textLength="31.8555" x="40" y="133.8125">User</text><text fill="#000000" font-family="Verdana" font-size="14" lengthAdjust="spacing" textLength="107.543" x="40" y="150.8271">(A01/A02/A03)</text></g><!--entity A04--><g class="entity" data-qualified-name="A04" data-source-line="15" id="ent0003"><ellipse cx="94.0259" cy="205.7373" fill="#FFFFFF" rx="16" ry="16" style="stroke:#000000;stroke-width:1;"/><path d="M94.0259,225.7373 C98.0259,225.7373 101.0259,225.7373 105.0259,221.7373 C113.0259,221.7373 121.0259,229.7373 121.0259,237.7373 L121.0259,241.7373 C121.0259,245.7373 117.0259,249.7373 113.0259,249.7373 L75.0259,249.7373 C71.0259,249.7373 67.0259,245.7373 67.0259,241.7373 L67.0259,237.7373 C67.0259,229.7373 75.0259,221.7373 83.0259,221.7373 C87.0259,225.7373 90.0259,225.7373 94.0259,225.7373" fill="#FFFFFF" style="stroke:#000000;stroke-width:1;"/><text fill="#000000" font-family="Verdana" font-size="14" lengthAdjust="spacing" textLength="117.0518" x="35.5" y="264.8125">System Backend</text><text fill="#000000" font-family="Verdana" font-size="14" lengthAdjust="spacing" textLength="40.0859" x="35.5" y="281.8271">(A04)</text></g><!--entity A05--><g class="entity" data-qualified-name="A05" data-source-line="16" id="ent0004"><ellipse cx="94.207" cy="336.7373" fill="#FFFFFF" rx="16" ry="16" style="stroke:#000000;stroke-width:1;"/><path d="M94.207,356.7373 C98.207,356.7373 101.207,356.7373 105.207,352.7373 C113.207,352.7373 121.207,360.7373 121.207,368.7373 L121.207,372.7373 C121.207,376.7373 117.207,380.7373 113.207,380.7373 L75.207,380.7373 C71.207,380.7373 67.207,376.7373 67.207,372.7373 L67.207,368.7373 C67.207,360.7373 75.207,352.7373 83.207,352.7373 C87.207,356.7373 90.207,356.7373 94.207,356.7373" fill="#FFFFFF" style="stroke:#000000;stroke-width:1;"/><text fill="#000000" font-family="Verdana" font-size="14" lengthAdjust="spacing" textLength="166.4141" x="11" y="395.8125">External Data Providers</text><text fill="#000000" font-family="Verdana" font-size="14" lengthAdjust="spacing" textLength="40.0859" x="11" y="412.8271">(A05)</text></g><g class="entity" data-qualified-name="GMN14" data-source-line="32" id="ent0015"><path d="M597,307.2373 L597,364.6353 A0,0 0 0 0 597,364.6353 L1040.6587,364.6353 A0,0 0 0 0 1040.6587,364.6353 L1040.6587,317.2373 L1030.6587,307.2373 L689.24,307.2373 L440.36,254.5473 L681.24,307.2373 L597,307.2373 A0,0 0 0 0 597,307.2373" fill="#FFFFFF" style="stroke:#000000;stroke-width:1;"/><path d="M1030.6587,307.2373 L1030.6587,317.2373 L1040.6587,317.2373 L1030.6587,307.2373" fill="#FFFFFF" style="stroke:#000000;stroke-width:1;"/><text fill="#000000" font-family="Verdana" font-size="13" lengthAdjust="spacing" textLength="319.2617" x="603" y="325.3071">Pre: Refer corresponding sequence precondition.</text><text fill="#000000" font-family="Verdana" font-size="13" lengthAdjust="spacing" textLength="333.7915" x="603" y="341.1064">Flow: Main interaction follows sequence messages.</text><text fill="#000000" font-family="Verdana" font-size="13" lengthAdjust="spacing" textLength="422.6587" x="603" y="356.9058">AC/EX: Alternate and exception branches traced from sequence.</text></g><!--link USER to UC13--><g class="link" data-entity-1="ent0002" data-entity-2="ent0006" data-link-type="dependency" data-source-line="24" id="lnk9"><path d="M148.03,132.4073 C195.34,156.1973 258.5496,187.9817 303.7296,210.7017" fill="none" id="USER-to-UC13" style="stroke:#000000;stroke-width:1;"/><polygon fill="#000000" points="309.09,213.3973,302.8465,205.7803,304.623,211.151,299.2524,212.9275,309.09,213.3973" style="stroke:#000000;stroke-width:1;"/></g><!--link A04 to UC13--><g class="link" data-entity-1="ent0003" data-entity-2="ent0006" data-link-type="dependency" data-source-line="25" id="lnk10"><path d="M152.81,236.7373 C178.52,236.7373 203.75,236.7373 233.91,236.7373" fill="none" id="A04-to-UC13" style="stroke:#000000;stroke-width:1;"/><polygon fill="#000000" points="239.91,236.7373,230.91,232.7373,234.91,236.7373,230.91,240.7373,239.91,236.7373" style="stroke:#000000;stroke-width:1;"/></g><!--link A05 to UC13--><g class="link" data-entity-1="ent0004" data-entity-2="ent0006" data-link-type="dependency" data-source-line="26" id="lnk11"><path d="M177.07,326.4673 C220.61,304.5673 267.1702,281.1641 303.7402,262.7641" fill="none" id="A05-to-UC13" style="stroke:#000000;stroke-width:1;"/><polygon fill="#000000" points="309.1,260.0673,299.2625,260.5392,304.6335,262.3146,302.8581,267.6856,309.1,260.0673" style="stroke:#000000;stroke-width:1;"/></g><!--link UC13 to R10--><g class="link" data-entity-1="ent0006" data-entity-2="ent0007" data-link-type="dependency" data-source-line="28" id="lnk12"><path d="M471.92,240.4673 C552.5,243.0873 652.6732,246.352 726.0632,248.742" fill="none" id="UC13-to-R10" style="stroke:#000000;stroke-width:1;stroke-dasharray:7,7;"/><polygon fill="#000000" points="732.06,248.9373,723.195,244.6465,727.0626,248.7746,722.9346,252.6422,732.06,248.9373" style="stroke:#000000;stroke-width:1;"/><text fill="#000000" font-family="Verdana" font-size="13" lengthAdjust="spacing" textLength="62.9624" x="504" y="238.8071">&#171;include&#187;</text></g><!--link UC13 to R22--><g class="link" data-entity-1="ent0006" data-entity-2="ent0008" data-link-type="dependency" data-source-line="29" id="lnk13"><path d="M455.32,223.1973 C471.25,221.0173 487.58,218.7973 503,216.7373 C583.49,205.9673 669.649,194.7829 733.389,186.5829" fill="none" id="UC13-to-R22" style="stroke:#000000;stroke-width:1;stroke-dasharray:7,7;"/><polygon fill="#000000" points="739.34,185.8173,729.9032,182.9984,734.3809,186.4553,730.9239,190.933,739.34,185.8173" style="stroke:#000000;stroke-width:1;"/><text fill="#000000" font-family="Verdana" font-size="13" lengthAdjust="spacing" textLength="62.9624" x="504" y="205.8071">&#171;include&#187;</text></g><?plantuml-src XLB1Rjim3BthAxZiiXtYsiwoWr44o9oaAB1XGOmCE-oYshGZL1OzIMdQ5VltKVRSPhaCXWs9V2JVUwR6seCdiAevUAYKnT8hCkADFs2Bq6cfZ73todJIoXRkP7dVM3gQAYTD5jvkrk4vGtICa0qM_aaZX6xID1hF0BBqP8UqFA6ZzZnvT5XAX_0i03vTpbhFDkbc5J9aAxH_eydyupoFEReXumlr2o59n6yXlF8yOfzFara6AqiTRB_UmbOPaAQ26_HGA8zGb6HHY9uLJFOExG_pRXadLyiuvNVsVWBImRvOxqPCyUGyjZqzD5MF_Z2W-322reyUhP4QLj9Bs5fwK4pPzUZvY9uByU8GzssbzP-fb1wBcqblmMZ7f9VnFnK3qpoPNLR6y4tX2MuDSs9-wW7XY-nw-2w9Bz1f2WLgfiLDqKYhYEcZGp_WqpIO6_o0wNGnZ6FTvvVvwqM4BqJH8Wo23AwlbIdriSB5uYp58_zD2KCiQjX9geTMJ2A37TPeWSKoeuvCfKm33dyUqPIyh6ncY8K5ZiH6qobZdMoL6eMJWPeq9znhLOlEySAwI2ppg_Nt39Qw_tLC85YCZoLsVUMTbQOye0FFlR22sbBxqYOIl0iGQ8i_?></g></svg>