<?plantuml 1.2026.2?><svg xmlns="http://www.w3.org/2000/svg" xmlns:xlink="http://www.w3.org/1999/xlink" contentStyleType="text/css" data-diagram-type="DESCRIPTION" height="290px" preserveAspectRatio="none" style="width:882px;height:290px;background:#FEFEFE;" version="1.1" viewBox="0 0 882 290" width="882px" zoomAndPan="magnify"><title>UC-09: Delete Business Profile</title><defs/><g><rect fill="#FEFEFE" height="290" style="stroke:none;stroke-width:1;" width="882" x="0" y="0"/><g class="title" data-source-line="12"><text fill="#000000" font-family="Verdana" font-size="22" font-weight="bold" lengthAdjust="spacing" textLength="377.1582" x="248.2502" y="37.1182">UC-09: Delete Business Profile</text></g><!--cluster SmartLocateSG--><g class="cluster" data-qualified-name="SmartLocateSG" data-source-line="17" id="ent0004"><rect fill="#FFFFFF" height="94" rx="2.5" ry="2.5" style="stroke:#000000;stroke-width:1;" width="216" x="172" y="114.7373"/><text fill="#000000" font-family="Verdana" font-size="14" font-weight="bold" lengthAdjust="spacing" textLength="120.5449" x="219.7275" y="130.8125">SmartLocateSG</text></g><!--entity UC09--><g class="entity" data-qualified-name="SmartLocateSG.UC09" data-source-line="18" id="ent0005"><ellipse cx="279.7763" cy="171.4926" fill="#E3F2FD" rx="91.7763" ry="20.7553" style="stroke:#1565C0;stroke-width:1;"/><text fill="#000000" font-family="Verdana" font-size="11" lengthAdjust="spacing" textLength="164.4897" x="197.5314" y="174.6769">UC-09 Delete Business Profile</text></g><!--entity USER--><g class="entity" data-qualified-name="USER" data-source-line="14" id="ent0002"><ellipse cx="69.2715" cy="74.7373" fill="#FFFFFF" rx="16" ry="16" style="stroke:#000000;stroke-width:1;"/><path d="M69.2715,94.7373 C73.2715,94.7373 76.2715,94.7373 80.2715,90.7373 C88.2715,90.7373 96.2715,98.7373 96.2715,106.7373 L96.2715,110.7373 C96.2715,114.7373 92.2715,118.7373 88.2715,118.7373 L50.2715,118.7373 C46.2715,118.7373 42.2715,114.7373 42.2715,110.7373 L42.2715,106.7373 C42.2715,98.7373 50.2715,90.7373 58.2715,90.7373 C62.2715,94.7373 65.2715,94.7373 69.2715,94.7373" fill="#FFFFFF" style="stroke:#000000;stroke-width:1;"/><text fill="#000000" font-family="Verdana" font-size="14" lengthAdjust="spacing" textLength="31.8555" x="15.5" y="133.8125">User</text><text fill="#000000" font-family="Verdana" font-size="14" lengthAdjust="spacing" textLength="107.543" x="15.5" y="150.8271">(A01/A02/A03)</text></g><!--entity A04--><g class="entity" data-qualified-name="A04" data-source-line="15" id="ent0003"><ellipse cx="69.5259" cy="205.7373" fill="#FFFFFF" rx="16" ry="16" style="stroke:#000000;stroke-width:1;"/><path d="M69.5259,225.7373 C73.5259,225.7373 76.5259,225.7373 80.5259,221.7373 C88.5259,221.7373 96.5259,229.7373 96.5259,237.7373 L96.5259,241.7373 C96.5259,245.7373 92.5259,249.7373 88.5259,249.7373 L50.5259,249.7373 C46.5259,249.7373 42.5259,245.7373 42.5259,241.7373 L42.5259,237.7373 C42.5259,229.7373 50.5259,221.7373 58.5259,221.7373 C62.5259,225.7373 65.5259,225.7373 69.5259,225.7373" fill="#FFFFFF" style="stroke:#000000;stroke-width:1;"/><text fill="#000000" font-family="Verdana" font-size="14" lengthAdjust="spacing" textLength="117.0518" x="11" y="264.8125">System Backend</text><text fill="#000000" font-family="Verdana" font-size="14" lengthAdjust="spacing" textLength="40.0859" x="11" y="281.8271">(A04)</text></g><g class="entity" data-qualified-name="GMN8" data-source-line="28" id="ent0009"><path d="M432,143.2373 L432,167.7373 L372,171.7373 L432,175.7373 L432,200.6353 A0,0 0 0 0 432,200.6353 L875.6587,200.6353 A0,0 0 0 0 875.6587,200.6353 L875.6587,153.2373 L865.6587,143.2373 L432,143.2373 A0,0 0 0 0 432,143.2373" fill="#FFFFFF" style="stroke:#000000;stroke-width:1;"/><path d="M865.6587,143.2373 L865.6587,153.2373 L875.6587,153.2373 L865.6587,143.2373" fill="#FFFFFF" style="stroke:#000000;stroke-width:1;"/><text fill="#000000" font-family="Verdana" font-size="13" lengthAdjust="spacing" textLength="319.2617" x="438" y="161.3071">Pre: Refer corresponding sequence precondition.</text><text fill="#000000" font-family="Verdana" font-size="13" lengthAdjust="spacing" textLength="333.7915" x="438" y="177.1064">Flow: Main interaction follows sequence messages.</text><text fill="#000000" font-family="Verdana" font-size="13" lengthAdjust="spacing" textLength="422.6587" x="438" y="192.9058">AC/EX: Alternate and exception branches traced from sequence.</text></g><!--link USER to UC09--><g class="link" data-entity-1="ent0002" data-entity-2="ent0005" data-link-type="dependency" data-source-line="22" id="lnk6"><path d="M123.65,122.5673 C154.78,132.4173 188.2598,143.0164 219.4998,152.9064" fill="none" id="USER-to-UC09" style="stroke:#000000;stroke-width:1;"/><polygon fill="#000000" points="225.22,154.7173,217.847,148.1875,220.4532,153.2082,215.4324,155.8144,225.22,154.7173" style="stroke:#000000;stroke-width:1;"/></g><!--link A04 to UC09--><g class="link" data-entity-1="ent0003" data-entity-2="ent0005" data-link-type="dependency" data-source-line="23" id="lnk7"><path d="M128.03,218.8073 C158.28,209.3673 189.4218,199.6628 219.1618,190.3928" fill="none" id="A04-to-UC09" style="stroke:#000000;stroke-width:1;"/><polygon fill="#000000" points="224.89,188.6073,215.1074,187.4667,220.1165,190.0952,217.4881,195.1043,224.89,188.6073" style="stroke:#000000;stroke-width:1;"/></g><?plantuml-src TL7BJkD04BpFL_I62tj8S623H0v8mSHSM0bXHUB0PHYtdH7ZRjCp4R2h_VTjspmY96nPigjhkgfS0Ui4YK5yiqrGUK6NF9FvaRRO8dJ1UZBnqLDdnRRmODrZ8xoZAkV00WV5kh_t69qoR8DbUWq8_JPBJS0zWdM9PHpRPupSxWzt4PsD27yDmCLNhVL9SLnSzXEM2kKDdIzE5tccQC6KIly7OJut_un9Fgd49fzcPqkun809uM8NFM6CS2DSUxLb1ZSmsKIKUpfSPVEZLNQipydF2TW8ct9z-yufNsF2Th25L0tiNoDBNupvoAhCragwPcSJbbUJ8SnxiCbWw3i_esQUdPa-GIyEq-dvYAZ8vuTUnBfWh8th4RqHNC8jrYZWM0HZnrHvQY3Yqmx9QP_giiVwZcUc2FoyXDzQCNXAA7Re7ceEEeYVfrgrg9t6cLdbH-kx9Qo2iadZWQKAyCLXDvny44jkYn6Ixi8AQk7sOytCw6-3thRv3m00?></g></svg>