<?plantuml 1.2026.2?><svg xmlns="http://www.w3.org/2000/svg" xmlns:xlink="http://www.w3.org/1999/xlink" contentStyleType="text/css" data-diagram-type="DESCRIPTION" height="293px" preserveAspectRatio="none" style="width:949px;height:293px;background:#FEFEFE;" version="1.1" viewBox="0 0 949 293" width="949px" zoomAndPan="magnify"><title>UC-06: Create Business Profile</title><defs/><g><rect fill="#FEFEFE" height="293" style="stroke:none;stroke-width:1;" width="949" x="0" y="0"/><g class="title" data-source-line="12"><text fill="#000000" font-family="Verdana" font-size="22" font-weight="bold" lengthAdjust="spacing" textLength="378.3184" x="281.1702" y="37.1182">UC-06: Create Business Profile</text></g><!--cluster SmartLocateSG--><g class="cluster" data-qualified-name="SmartLocateSG" data-source-line="17" id="ent0004"><rect fill="#FFFFFF" height="104" rx="2.5" ry="2.5" style="stroke:#000000;stroke-width:1;" width="652" x="175" y="108.7373"/><text fill="#000000" font-family="Verdana" font-size="14" font-weight="bold" lengthAdjust="spacing" textLength="120.5449" x="440.7275" y="124.8125">SmartLocateSG</text></g><!--entity UC06--><g class="entity" data-qualified-name="SmartLocateSG.UC06" data-source-line="18" id="ent0005"><ellipse cx="283.2093" cy="170.5792" fill="#E3F2FD" rx="92.2093" ry="20.8419" style="stroke:#1565C0;stroke-width:1;"/><text fill="#000000" font-family="Verdana" font-size="11" lengthAdjust="spacing" textLength="165.4243" x="200.4972" y="173.7635">UC-06 Create Business Profile</text></g><!--entity R07--><g class="entity" data-qualified-name="SmartLocateSG.R07" data-source-line="19" id="ent0006"><ellipse cx="721.0822" cy="165.6537" fill="#E3F2FD" rx="90.0822" ry="20.4164" style="stroke:#1565C0;stroke-width:1;"/><text fill="#000000" font-family="Verdana" font-size="11" lengthAdjust="spacing" textLength="160.8267" x="640.6689" y="168.8381">UC-07 View Business Profiles</text></g><!--entity USER--><g class="entity" data-qualified-name="USER" data-source-line="14" id="ent0002"><ellipse cx="69.2715" cy="74.7373" fill="#FFFFFF" rx="16" ry="16" style="stroke:#000000;stroke-width:1;"/><path d="M69.2715,94.7373 C73.2715,94.7373 76.2715,94.7373 80.2715,90.7373 C88.2715,90.7373 96.2715,98.7373 96.2715,106.7373 L96.2715,110.7373 C96.2715,114.7373 92.2715,118.7373 88.2715,118.7373 L50.2715,118.7373 C46.2715,118.7373 42.2715,114.7373 42.2715,110.7373 L42.2715,106.7373 C42.2715,98.7373 50.2715,90.7373 58.2715,90.7373 C62.2715,94.7373 65.2715,94.7373 69.2715,94.7373" fill="#FFFFFF" style="stroke:#000000;stroke-width:1;"/><text fill="#000000" font-family="Verdana" font-size="14" lengthAdjust="spacing" textLength="31.8555" x="15.5" y="133.8125">User</text><text fill="#000000" font-family="Verdana" font-size="14" lengthAdjust="spacing" textLength="107.543" x="15.5" y="150.8271">(A01/A02/A03)</text></g><!--entity A04--><g class="entity" data-qualified-name="A04" data-source-line="15" id="ent0003"><ellipse cx="69.5259" cy="205.7373" fill="#FFFFFF" rx="16" ry="16" style="stroke:#000000;stroke-width:1;"/><path d="M69.5259,225.7373 C73.5259,225.7373 76.5259,225.7373 80.5259,221.7373 C88.5259,221.7373 96.5259,229.7373 96.5259,237.7373 L96.5259,241.7373 C96.5259,245.7373 92.5259,249.7373 88.5259,249.7373 L50.5259,249.7373 C46.5259,249.7373 42.5259,245.7373 42.5259,241.7373 L42.5259,237.7373 C42.5259,229.7373 50.5259,221.7373 58.5259,221.7373 C62.5259,225.7373 65.5259,225.7373 69.5259,225.7373" fill="#FFFFFF" style="stroke:#000000;stroke-width:1;"/><text fill="#000000" font-family="Verdana" font-size="14" lengthAdjust="spacing" textLength="117.0518" x="11" y="264.8125">System Backend</text><text fill="#000000" font-family="Verdana" font-size="14" lengthAdjust="spacing" textLength="40.0859" x="11" y="281.8271">(A04)</text></g><g class="entity" data-qualified-name="GMN10" data-source-line="28" id="ent0011"><path d="M499,229.2373 L499,286.6353 A0,0 0 0 0 499,286.6353 L942.6587,286.6353 A0,0 0 0 0 942.6587,286.6353 L942.6587,239.2373 L932.6587,229.2373 L580.8,229.2373 L353.09,184.5273 L572.8,229.2373 L499,229.2373 A0,0 0 0 0 499,229.2373" fill="#FFFFFF" style="stroke:#000000;stroke-width:1;"/><path d="M932.6587,229.2373 L932.6587,239.2373 L942.6587,239.2373 L932.6587,229.2373" fill="#FFFFFF" style="stroke:#000000;stroke-width:1;"/><text fill="#000000" font-family="Verdana" font-size="13" lengthAdjust="spacing" textLength="319.2617" x="505" y="247.3071">Pre: Refer corresponding sequence precondition.</text><text fill="#000000" font-family="Verdana" font-size="13" lengthAdjust="spacing" textLength="333.7915" x="505" y="263.1064">Flow: Main interaction follows sequence messages.</text><text fill="#000000" font-family="Verdana" font-size="13" lengthAdjust="spacing" textLength="422.6587" x="505" y="278.9058">AC/EX: Alternate and exception branches traced from sequence.</text></g><!--link USER to UC06--><g class="link" data-entity-1="ent0002" data-entity-2="ent0005" data-link-type="dependency" data-source-line="22" id="lnk7"><path d="M123.6,122.0573 C155.29,131.7973 189.7146,142.3751 221.6746,152.1951" fill="none" id="USER-to-UC06" style="stroke:#000000;stroke-width:1;"/><polygon fill="#000000" points="227.41,153.9573,219.9818,147.4904,222.6305,152.4888,217.6321,155.1375,227.41,153.9573" style="stroke:#000000;stroke-width:1;"/></g><!--link A04 to UC06--><g class="link" data-entity-1="ent0003" data-entity-2="ent0005" data-link-type="dependency" data-source-line="23" id="lnk8"><path d="M128.01,218.7873 C159.08,209.0973 191.4922,198.9741 222.0422,189.4441" fill="none" id="A04-to-UC06" style="stroke:#000000;stroke-width:1;"/><polygon fill="#000000" points="227.77,187.6573,217.9872,186.5189,222.9969,189.1463,220.3695,194.156,227.77,187.6573" style="stroke:#000000;stroke-width:1;"/></g><!--link UC06 to R07--><g class="link" data-entity-1="ent0005" data-entity-2="ent0006" data-link-type="dependency" data-source-line="25" id="lnk9"><path d="M375.13,169.6873 C450.28,168.8273 550.2604,167.6865 624.8504,166.8265" fill="none" id="UC06-to-R07" style="stroke:#000000;stroke-width:1;stroke-dasharray:7,7;"/><polygon fill="#000000" points="630.85,166.7573,621.8045,162.8613,625.8503,166.8149,621.8967,170.8608,630.85,166.7573" style="stroke:#000000;stroke-width:1;"/><text fill="#000000" font-family="Verdana" font-size="13" lengthAdjust="spacing" textLength="62.9624" x="406" y="165.8071">&#171;include&#187;</text></g><?plantuml-src TPB1Rfj048Rl-nHJzz8UJ73IE1AAB3dKvD98aP6h7dhPB0DU1NRex28dZVhkcOKciL9L20Gptypyi_mjrW420Tjc7w2oZ2POSkf3s6E7qBVQEkNlhUirwmxkjBblc0PNvTGImyTY4wyZeXT2DrY6nnOXTjEkQV48q2OGJsbzG4_TSNBmQBH7U580L-zdRSwAq-9hp11No7-ZY_FbUPvAj20NIliROR5GVvGADiY8NJvFbndaZ3eWN0tUElGURfbgAxBKg0PcEu_yqtrQfukJTNegzzdd6MWFktApVM7AHn-m6sMXgqRwoqJ9YrAlkmhPQGxVoCZ8ydesBlEos6mKz3yzqymyNRwlk83l5W__y7uisAONSU6e5URprTH0DBrzgFY495b55ZAulBJEj4E5gvLIZaJ9zF-fdlXRnWosM2E38MRqFRdAkWOy_XhG6J66h1jZqIo9AbewP70ZNW7h0h8UJGGrjPBmRrMTQ1Tp-4IjyvFDZmpMhT0k7eLs5U23mNwil6Fjp1uz1Ec55THCtMkRHCdvGvIjdW40?></g></svg>