<?plantuml 1.2026.2?><svg xmlns="http://www.w3.org/2000/svg" xmlns:xlink="http://www.w3.org/1999/xlink" contentStyleType="text/css" data-diagram-type="DESCRIPTION" height="290px" preserveAspectRatio="none" style="width:828px;height:290px;background:#FEFEFE;" version="1.1" viewBox="0 0 828 290" width="828px" zoomAndPan="magnify"><title>UC-02: Verify Email</title><defs/><g><rect fill="#FEFEFE" height="290" style="stroke:none;stroke-width:1;" width="828" x="0" y="0"/><g class="title" data-source-line="12"><text fill="#000000" font-family="Verdana" font-size="22" font-weight="bold" lengthAdjust="spacing" textLength="241.0332" x="289.3127" y="37.1182">UC-02: Verify Email</text></g><!--cluster SmartLocateSG--><g class="cluster" data-qualified-name="SmartLocateSG" data-source-line="17" id="ent0004"><rect fill="#FFFFFF" height="84" rx="2.5" ry="2.5" style="stroke:#000000;stroke-width:1;" width="162" x="172" y="119.7373"/><text fill="#000000" font-family="Verdana" font-size="14" font-weight="bold" lengthAdjust="spacing" textLength="120.5449" x="192.7275" y="135.8125">SmartLocateSG</text></g><!--entity UC02--><g class="entity" data-qualified-name="SmartLocateSG.UC02" data-source-line="18" id="ent0005"><ellipse cx="253.1968" cy="171.6767" fill="#E3F2FD" rx="65.1968" ry="15.4394" style="stroke:#1565C0;stroke-width:1;"/><text fill="#000000" font-family="Verdana" font-size="11" lengthAdjust="spacing" textLength="104.9082" x="200.7427" y="174.861">UC-02 Verify Email</text></g><!--entity USER--><g class="entity" data-qualified-name="USER" data-source-line="14" id="ent0002"><ellipse cx="69.2715" cy="74.7373" fill="#FFFFFF" rx="16" ry="16" style="stroke:#000000;stroke-width:1;"/><path d="M69.2715,94.7373 C73.2715,94.7373 76.2715,94.7373 80.2715,90.7373 C88.2715,90.7373 96.2715,98.7373 96.2715,106.7373 L96.2715,110.7373 C96.2715,114.7373 92.2715,118.7373 88.2715,118.7373 L50.2715,118.7373 C46.2715,118.7373 42.2715,114.7373 42.2715,110.7373 L42.2715,106.7373 C42.2715,98.7373 50.2715,90.7373 58.2715,90.7373 C62.2715,94.7373 65.2715,94.7373 69.2715,94.7373" fill="#FFFFFF" style="stroke:#000000;stroke-width:1;"/><text fill="#000000" font-family="Verdana" font-size="14" lengthAdjust="spacing" textLength="31.8555" x="15.5" y="133.8125">User</text><text fill="#000000" font-family="Verdana" font-size="14" lengthAdjust="spacing" textLength="107.543" x="15.5" y="150.8271">(A01/A02/A03)</text></g><!--entity A04--><g class="entity" data-qualified-name="A04" data-source-line="15" id="ent0003"><ellipse cx="69.5259" cy="205.7373" fill="#FFFFFF" rx="16" ry="16" style="stroke:#000000;stroke-width:1;"/><path d="M69.5259,225.7373 C73.5259,225.7373 76.5259,225.7373 80.5259,221.7373 C88.5259,221.7373 96.5259,229.7373 96.5259,237.7373 L96.5259,241.7373 C96.5259,245.7373 92.5259,249.7373 88.5259,249.7373 L50.5259,249.7373 C46.5259,249.7373 42.5259,245.7373 42.5259,241.7373 L42.5259,237.7373 C42.5259,229.7373 50.5259,221.7373 58.5259,221.7373 C62.5259,225.7373 65.5259,225.7373 69.5259,225.7373" fill="#FFFFFF" style="stroke:#000000;stroke-width:1;"/><text fill="#000000" font-family="Verdana" font-size="14" lengthAdjust="spacing" textLength="117.0518" x="11" y="264.8125">System Backend</text><text fill="#000000" font-family="Verdana" font-size="14" lengthAdjust="spacing" textLength="40.0859" x="11" y="281.8271">(A04)</text></g><g class="entity" data-qualified-name="GMN8" data-source-line="28" id="ent0009"><path d="M378,143.2373 L378,167.7373 L318.08,171.7373 L378,175.7373 L378,200.6353 A0,0 0 0 0 378,200.6353 L821.6587,200.6353 A0,0 0 0 0 821.6587,200.6353 L821.6587,153.2373 L811.6587,143.2373 L378,143.2373 A0,0 0 0 0 378,143.2373" fill="#FFFFFF" style="stroke:#000000;stroke-width:1;"/><path d="M811.6587,143.2373 L811.6587,153.2373 L821.6587,153.2373 L811.6587,143.2373" fill="#FFFFFF" style="stroke:#000000;stroke-width:1;"/><text fill="#000000" font-family="Verdana" font-size="13" lengthAdjust="spacing" textLength="319.2617" x="384" y="161.3071">Pre: Refer corresponding sequence precondition.</text><text fill="#000000" font-family="Verdana" font-size="13" lengthAdjust="spacing" textLength="333.7915" x="384" y="177.1064">Flow: Main interaction follows sequence messages.</text><text fill="#000000" font-family="Verdana" font-size="13" lengthAdjust="spacing" textLength="422.6587" x="384" y="192.9058">AC/EX: Alternate and exception branches traced from sequence.</text></g><!--link USER to UC02--><g class="link" data-entity-1="ent0002" data-entity-2="ent0005" data-link-type="dependency" data-source-line="22" id="lnk6"><path d="M123.97,125.1873 C153.78,136.0173 184.4312,147.167 210.7512,156.737" fill="none" id="USER-to-UC02" style="stroke:#000000;stroke-width:1;"/><polygon fill="#000000" points="216.39,158.7873,209.2986,151.9527,211.691,157.0787,206.5649,159.4711,216.39,158.7873" style="stroke:#000000;stroke-width:1;"/></g><!--link A04 to UC02--><g class="link" data-entity-1="ent0003" data-entity-2="ent0005" data-link-type="dependency" data-source-line="23" id="lnk7"><path d="M128.18,216.0773 C157.03,205.7473 185.4107,195.5786 210.4807,186.6086" fill="none" id="A04-to-UC02" style="stroke:#000000;stroke-width:1;"/><polygon fill="#000000" points="216.13,184.5873,206.3085,183.8531,211.4223,186.2717,209.0036,191.3854,216.13,184.5873" style="stroke:#000000;stroke-width:1;"/></g><?plantuml-src NL5DJyCm3BtdLvXnWSD6DnY77P16QRc0XAY6E709gTj5f75nCi50_7VSbez1eaZ9yxFzdEUmYX09sDRh2ALbDD6ILtjnZGr2wxJrAZnPtshM3JngyrGpRNoPaYE6_JphzWwZ5OQkiOXRXz1Lqxvsk4FG9X8FOVs2WPhTu2QWqG7XNG6S_--L7UUp_AAB49V8N-XqVZfF4q5pyh6mRmZJgVfGAjeeBLRfE9aju0xPLbl86csTKhq46Aq2yeC_M2RJesKoatDyE08TO5Lajz-SOXiYDhqMz6NFFXbOSb7gPq1XDfhZ5HaTiRWSzHDyJpFgLVmHCJHAavdgj7OTOJm-6n2f_FkGvIdYbq5K3UWDum9kiK86GymOMlAbzJK4VDwWD-ASIEkmpis9oXszBE1Qp0Jh8xBkNOQAd0J2RrQ38OXxOQAMwL5slu2b4xQNcK3x4l3LODjdFhBsPeq1ejJ24YgcvgVCHCbVGITRVG80?></g></svg>