<?plantuml 1.2026.2?><svg xmlns="http://www.w3.org/2000/svg" xmlns:xlink="http://www.w3.org/1999/xlink" contentStyleType="text/css" data-diagram-type="DESCRIPTION" height="421px" preserveAspectRatio="none" style="width:962px;height:421px;background:#FEFEFE;" version="1.1" viewBox="0 0 962 421" width="962px" zoomAndPan="magnify"><title>UC-12: Search Location</title><defs/><g><rect fill="#FEFEFE" height="421" style="stroke:none;stroke-width:1;" width="962" x="0" y="0"/><g class="title" data-source-line="12"><text fill="#000000" font-family="Verdana" font-size="22" font-weight="bold" lengthAdjust="spacing" textLength="289.083" x="332.2878" y="37.1182">UC-12: Search Location</text></g><!--cluster SmartLocateSG--><g class="cluster" data-qualified-name="SmartLocateSG" data-source-line="18" id="ent0005"><rect fill="#FFFFFF" height="104" rx="2.5" ry="2.5" style="stroke:#000000;stroke-width:1;" width="613.5" x="224" y="174.7373"/><text fill="#000000" font-family="Verdana" font-size="14" font-weight="bold" lengthAdjust="spacing" textLength="120.5449" x="470.4775" y="190.8125">SmartLocateSG</text></g><!--entity UC12--><g class="entity" data-qualified-name="SmartLocateSG.UC12" data-source-line="19" id="ent0006"><ellipse cx="314.5989" cy="236.5571" fill="#E3F2FD" rx="74.5989" ry="17.3198" style="stroke:#1565C0;stroke-width:1;"/><text fill="#000000" font-family="Verdana" font-size="11" lengthAdjust="spacing" textLength="126.6396" x="251.2791" y="239.7414">UC-12 Search Location</text></g><!--entity R10--><g class="entity" data-qualified-name="SmartLocateSG.R10" data-source-line="20" id="ent0007"><ellipse cx="733.9285" cy="230.623" fill="#E3F2FD" rx="87.4285" ry="19.8857" style="stroke:#1565C0;stroke-width:1;"/><text fill="#000000" font-family="Verdana" font-size="11" lengthAdjust="spacing" textLength="155.0635" x="656.3968" y="233.8073">UC-10 View Interactive Map</text></g><!--entity USER--><g class="entity" data-qualified-name="USER" data-source-line="14" id="ent0002"><ellipse cx="93.7715" cy="74.7373" fill="#FFFFFF" rx="16" ry="16" style="stroke:#000000;stroke-width:1;"/><path d="M93.7715,94.7373 C97.7715,94.7373 100.7715,94.7373 104.7715,90.7373 C112.7715,90.7373 120.7715,98.7373 120.7715,106.7373 L120.7715,110.7373 C120.7715,114.7373 116.7715,118.7373 112.7715,118.7373 L74.7715,118.7373 C70.7715,118.7373 66.7715,114.7373 66.7715,110.7373 L66.7715,106.7373 C66.7715,98.7373 74.7715,90.7373 82.7715,90.7373 C86.7715,94.7373 89.7715,94.7373 93.7715,94.7373" fill="#FFFFFF" style="stroke:#000000;stroke-width:1;"/><text fill="#000000" font-family="Verdana" font-size="14" lengthAdjust="spacing" textLength="31.8555" x="40" y="133.8125">User</text><text fill="#000000" font-family="Verdana" font-size="14" lengthAdjust="spacing" textLength="107.543" x="40" y="150.8271">(A01/A02/A03)</text></g><!--entity A04--><g class="entity" data-qualified-name="A04" data-source-line="15" id="ent0003"><ellipse cx="94.0259" cy="205.7373" fill="#FFFFFF" rx="16" ry="16" style="stroke:#000000;stroke-width:1;"/><path d="M94.0259,225.7373 C98.0259,225.7373 101.0259,225.7373 105.0259,221.7373 C113.0259,221.7373 121.0259,229.7373 121.0259,237.7373 L121.0259,241.7373 C121.0259,245.7373 117.0259,249.7373 113.0259,249.7373 L75.0259,249.7373 C71.0259,249.7373 67.0259,245.7373 67.0259,241.7373 L67.0259,237.7373 C67.0259,229.7373 75.0259,221.7373 83.0259,221.7373 C87.0259,225.7373 90.0259,225.7373 94.0259,225.7373" fill="#FFFFFF" style="stroke:#000000;stroke-width:1;"/><text fill="#000000" font-family="Verdana" font-size="14" lengthAdjust="spacing" textLength="117.0518" x="35.5" y="264.8125">System Backend</text><text fill="#000000" font-family="Verdana" font-size="14" lengthAdjust="spacing" textLength="40.0859" x="35.5" y="281.8271">(A04)</text></g><!--entity A05--><g class="entity" data-qualified-name="A05" data-source-line="16" id="ent0004"><ellipse cx="94.207" cy="336.7373" fill="#FFFFFF" rx="16" ry="16" style="stroke:#000000;stroke-width:1;"/><path d="M94.207,356.7373 C98.207,356.7373 101.207,356.7373 105.207,352.7373 C113.207,352.7373 121.207,360.7373 121.207,368.7373 L121.207,372.7373 C121.207,376.7373 117.207,380.7373 113.207,380.7373 L75.207,380.7373 C71.207,380.7373 67.207,376.7373 67.207,372.7373 L67.207,368.7373 C67.207,360.7373 75.207,352.7373 83.207,352.7373 C87.207,356.7373 90.207,356.7373 94.207,356.7373" fill="#FFFFFF" style="stroke:#000000;stroke-width:1;"/><text fill="#000000" font-family="Verdana" font-size="14" lengthAdjust="spacing" textLength="166.4141" x="11" y="395.8125">External Data Providers</text><text fill="#000000" font-family="Verdana" font-size="14" lengthAdjust="spacing" textLength="40.0859" x="11" y="412.8271">(A05)</text></g><g class="entity" data-qualified-name="GMN12" data-source-line="30" id="ent0013"><path d="M512,295.2373 L512,352.6353 L955.6587,352.6353 L955.6587,305.2373 L945.6587,295.2373 L512,295.2373" fill="#FFFFFF" style="stroke:#000000;stroke-width:1;"/><path d="M945.6587,295.2373 L945.6587,305.2373 L955.6587,305.2373 L945.6587,295.2373" fill="#FFFFFF" style="stroke:#000000;stroke-width:1;"/><text fill="#000000" font-family="Verdana" font-size="13" lengthAdjust="spacing" textLength="319.2617" x="518" y="313.3071">Pre: Refer corresponding sequence precondition.</text><text fill="#000000" font-family="Verdana" font-size="13" lengthAdjust="spacing" textLength="333.7915" x="518" y="329.1064">Flow: Main interaction follows sequence messages.</text><text fill="#000000" font-family="Verdana" font-size="13" lengthAdjust="spacing" textLength="422.6587" x="518" y="344.9058">AC/EX: Alternate and exception branches traced from sequence.</text></g><!--link USER to UC12--><g class="link" data-entity-1="ent0002" data-entity-2="ent0006" data-link-type="dependency" data-source-line="23" id="lnk8"><path d="M148.17,137.6173 C191.88,163.8173 246.8737,196.7925 281.2737,217.4125" fill="none" id="USER-to-UC12" style="stroke:#000000;stroke-width:1;"/><polygon fill="#000000" points="286.42,220.4973,280.7571,212.4393,282.1314,217.9267,276.6441,219.301,286.42,220.4973" style="stroke:#000000;stroke-width:1;"/></g><!--link A04 to UC12--><g class="link" data-entity-1="ent0003" data-entity-2="ent0006" data-link-type="dependency" data-source-line="24" id="lnk9"><path d="M152.69,236.7373 C179.37,236.7373 205.37,236.7373 233.78,236.7373" fill="none" id="A04-to-UC12" style="stroke:#000000;stroke-width:1;"/><polygon fill="#000000" points="239.78,236.7373,230.78,232.7373,234.78,236.7373,230.78,240.7373,239.78,236.7373" style="stroke:#000000;stroke-width:1;"/></g><!--link A05 to UC12--><g class="link" data-entity-1="ent0004" data-entity-2="ent0006" data-link-type="dependency" data-source-line="25" id="lnk10"><path d="M175.12,319.6973 C214.22,296.2573 253.5331,272.681 281.2731,256.061" fill="none" id="A05-to-UC12" style="stroke:#000000;stroke-width:1;"/><polygon fill="#000000" points="286.42,252.9773,276.6438,254.1716,282.1309,255.5471,280.7554,261.0341,286.42,252.9773" style="stroke:#000000;stroke-width:1;"/></g><!--link UC12 to R10--><g class="link" data-entity-1="ent0006" data-entity-2="ent0007" data-link-type="dependency" data-source-line="27" id="lnk11"><path d="M389.18,235.6773 C461.05,234.6473 564.3406,233.1633 640.3506,232.0733" fill="none" id="UC12-to-R10" style="stroke:#000000;stroke-width:1;stroke-dasharray:7,7;"/><polygon fill="#000000" points="646.35,231.9873,637.2936,228.1168,641.3505,232.059,637.4083,236.1159,646.35,231.9873" style="stroke:#000000;stroke-width:1;"/><text fill="#000000" font-family="Verdana" font-size="13" lengthAdjust="spacing" textLength="61.3882" x="420" y="231.8071">&#171;extend&#187;</text></g><!--link UC12 to GMN12--><g class="link" data-entity-1="ent0006" data-entity-2="ent0013" data-link-type="association" data-source-line="30" id="lnk14"><path d="M370.1,248.5573 C409.52,257.0473 464.02,268.7273 512,278.7373 C537.78,284.1173 565.26,289.7773 591.78,295.1973" fill="none" id="UC12-GMN12" style="stroke:#000000;stroke-width:1;stroke-dasharray:7,7;"/></g><?plantuml-src NPB1Rjim38RlUWekkso7k7Owxs0K0LBN7WPiG14Zmmwzg3Bj29L5JrAQTaFVVP9Sjq5WsB38dzJt4rJOEN04HlPx1wqqA9mapJwuFGu8e-9IC_iWzSWD7-2UYuVUq46t9IaoyB6kmdEY6Bs2zzYuPuKGkd7TApmHSE78J6b-H4l3QV9WKN2By8y1N9_VLLtMg_ecPCYqQ5wZMVurBrCVhKcxHlv5o3BsmfYJpb-nAvVPge06kH5x-462HtiiKi1YPz7SwK-RDBlOf2l_NdvU0BUmQwhjh6cUhSCXug1ke_hBfF8_iwXwScWqLt337OTRGu_I8zgepcTrpjZRH7pVWHiNYR3vjeYMP_kBY7rEFP6LsUfScS8lYKVuhZs3vv6F23_v6ENRB0t327vWkLnFvPxxz92_7rZuGfAiGo4KS7M5tfXkrsl6D3bytHFg9lcjmGAssA41GSQW7KctKlTWySy1jV0Bv0s7ME1FMAteM7WsgK7EiAIX8-KJzhrgG6lz4jc4RSgBwdS16nN7wm6uRW6V18wnyjvmBVPemVbUs49dQ7Xhap1F3W6R_GS0?></g></svg>