<?plantuml 1.2026.2?><svg xmlns="http://www.w3.org/2000/svg" xmlns:xlink="http://www.w3.org/1999/xlink" contentStyleType="text/css" data-diagram-type="DESCRIPTION" height="293px" preserveAspectRatio="none" style="width:962px;height:293px;background:#FEFEFE;" version="1.1" viewBox="0 0 962 293" width="962px" zoomAndPan="magnify"><title>UC-18: Edit Candidate Site Notes</title><defs/><g><rect fill="#FEFEFE" height="293" style="stroke:none;stroke-width:1;" width="962" x="0" y="0"/><g class="title" data-source-line="12"><text fill="#000000" font-family="Verdana" font-size="22" font-weight="bold" lengthAdjust="spacing" textLength="405.6035" x="274.0276" y="37.1182">UC-18: Edit Candidate Site Notes</text></g><!--cluster SmartLocateSG--><g class="cluster" data-qualified-name="SmartLocateSG" data-source-line="17" id="ent0004"><rect fill="#FFFFFF" height="104" rx="2.5" ry="2.5" style="stroke:#000000;stroke-width:1;" width="644" x="175" y="108.7373"/><text fill="#000000" font-family="Verdana" font-size="14" font-weight="bold" lengthAdjust="spacing" textLength="120.5449" x="436.7275" y="124.8125">SmartLocateSG</text></g><!--entity UC18--><g class="entity" data-qualified-name="SmartLocateSG.UC18" data-source-line="18" id="ent0005"><ellipse cx="289.8926" cy="170.9158" fill="#E3F2FD" rx="98.8926" ry="22.1785" style="stroke:#1565C0;stroke-width:1;"/><text fill="#000000" font-family="Verdana" font-size="11" lengthAdjust="spacing" textLength="179.7598" x="200.0128" y="174.1002">UC-18 Edit Candidate Site Notes</text></g><!--entity R17--><g class="entity" data-qualified-name="SmartLocateSG.R17" data-source-line="19" id="ent0006"><ellipse cx="734.1343" cy="161.9642" fill="#E3F2FD" rx="69.1343" ry="16.2269" style="stroke:#1565C0;stroke-width:1;"/><text fill="#000000" font-family="Verdana" font-size="11" lengthAdjust="spacing" textLength="114.1357" x="677.0664" y="165.1485">UC-17 View Portfolio</text></g><!--entity USER--><g class="entity" data-qualified-name="USER" data-source-line="14" id="ent0002"><ellipse cx="69.2715" cy="74.7373" fill="#FFFFFF" rx="16" ry="16" style="stroke:#000000;stroke-width:1;"/><path d="M69.2715,94.7373 C73.2715,94.7373 76.2715,94.7373 80.2715,90.7373 C88.2715,90.7373 96.2715,98.7373 96.2715,106.7373 L96.2715,110.7373 C96.2715,114.7373 92.2715,118.7373 88.2715,118.7373 L50.2715,118.7373 C46.2715,118.7373 42.2715,114.7373 42.2715,110.7373 L42.2715,106.7373 C42.2715,98.7373 50.2715,90.7373 58.2715,90.7373 C62.2715,94.7373 65.2715,94.7373 69.2715,94.7373" fill="#FFFFFF" style="stroke:#000000;stroke-width:1;"/><text fill="#000000" font-family="Verdana" font-size="14" lengthAdjust="spacing" textLength="31.8555" x="15.5" y="133.8125">User</text><text fill="#000000" font-family="Verdana" font-size="14" lengthAdjust="spacing" textLength="107.543" x="15.5" y="150.8271">(A01/A02/A03)</text></g><!--entity A04--><g class="entity" data-qualified-name="A04" data-source-line="15" id="ent0003"><ellipse cx="69.5259" cy="205.7373" fill="#FFFFFF" rx="16" ry="16" style="stroke:#000000;stroke-width:1;"/><path d="M69.5259,225.7373 C73.5259,225.7373 76.5259,225.7373 80.5259,221.7373 C88.5259,221.7373 96.5259,229.7373 96.5259,237.7373 L96.5259,241.7373 C96.5259,245.7373 92.5259,249.7373 88.5259,249.7373 L50.5259,249.7373 C46.5259,249.7373 42.5259,245.7373 42.5259,241.7373 L42.5259,237.7373 C42.5259,229.7373 50.5259,221.7373 58.5259,221.7373 C62.5259,225.7373 65.5259,225.7373 69.5259,225.7373" fill="#FFFFFF" style="stroke:#000000;stroke-width:1;"/><text fill="#000000" font-family="Verdana" font-size="14" lengthAdjust="spacing" textLength="117.0518" x="11" y="264.8125">System Backend</text><text fill="#000000" font-family="Verdana" font-size="14" lengthAdjust="spacing" textLength="40.0859" x="11" y="281.8271">(A04)</text></g><g class="entity" data-qualified-name="GMN10" data-source-line="28" id="ent0011"><path d="M512,229.2373 L512,286.6353 A0,0 0 0 0 512,286.6353 L955.6587,286.6353 A0,0 0 0 0 955.6587,286.6353 L955.6587,239.2373 L945.6587,229.2373 L592.07,229.2373 L364.98,185.2973 L584.07,229.2373 L512,229.2373 A0,0 0 0 0 512,229.2373" fill="#FFFFFF" style="stroke:#000000;stroke-width:1;"/><path d="M945.6587,229.2373 L945.6587,239.2373 L955.6587,239.2373 L945.6587,229.2373" fill="#FFFFFF" style="stroke:#000000;stroke-width:1;"/><text fill="#000000" font-family="Verdana" font-size="13" lengthAdjust="spacing" textLength="319.2617" x="518" y="247.3071">Pre: Refer corresponding sequence precondition.</text><text fill="#000000" font-family="Verdana" font-size="13" lengthAdjust="spacing" textLength="333.7915" x="518" y="263.1064">Flow: Main interaction follows sequence messages.</text><text fill="#000000" font-family="Verdana" font-size="13" lengthAdjust="spacing" textLength="422.6587" x="518" y="278.9058">AC/EX: Alternate and exception branches traced from sequence.</text></g><!--link USER to UC18--><g class="link" data-entity-1="ent0002" data-entity-2="ent0005" data-link-type="dependency" data-source-line="22" id="lnk7"><path d="M123.67,121.5573 C155.76,131.0973 190.9491,141.5664 224.0591,151.4164" fill="none" id="USER-to-UC18" style="stroke:#000000;stroke-width:1;"/><polygon fill="#000000" points="229.81,153.1273,222.3242,146.7271,225.0176,151.7016,220.0431,154.395,229.81,153.1273" style="stroke:#000000;stroke-width:1;"/></g><!--link A04 to UC18--><g class="link" data-entity-1="ent0003" data-entity-2="ent0005" data-link-type="dependency" data-source-line="23" id="lnk8"><path d="M128.19,219.3073 C159.8,209.7673 193.1362,199.692 224.8562,190.112" fill="none" id="A04-to-UC18" style="stroke:#000000;stroke-width:1;"/><polygon fill="#000000" points="230.6,188.3773,220.8279,187.1502,225.8135,189.8229,223.1408,194.8086,230.6,188.3773" style="stroke:#000000;stroke-width:1;"/></g><!--link UC18 to R17--><g class="link" data-entity-1="ent0005" data-entity-2="ent0006" data-link-type="dependency" data-source-line="25" id="lnk9"><path d="M388.82,168.7473 C472.6,167.0373 585.1012,164.7492 658.9212,163.2492" fill="none" id="UC18-to-R17" style="stroke:#000000;stroke-width:1;stroke-dasharray:7,7;"/><polygon fill="#000000" points="664.92,163.1273,655.8406,159.311,659.921,163.2289,656.0031,167.3093,664.92,163.1273" style="stroke:#000000;stroke-width:1;"/><text fill="#000000" font-family="Verdana" font-size="13" lengthAdjust="spacing" textLength="61.3882" x="420" y="164.8071">&#171;extend&#187;</text></g><?plantuml-src TP9DRvn038RlyolSxIKzB5cIfebGjDAMGYvf5ItQgeTU9eDXHu4ndV5gyw7-zteW7wj85M84zcFxVS4TDWnCu6sxPQYjHyEMdFh0M-mHXavRfyATTOFskeTRRUvQJpjNvzIHXuzb4Qy3OX12jrZnGuSGksdNTdW0QCFafxJUOw3-CBaBQ7H0U580Nz_FAaxBa_9Rp92lqJz7qxClP_b2eYKvhkmZGfgglqgnPHcnoUVfHGP5RHboxMfRQqQeh1m_Y34eDUg1sIQW_-sELelqUBKuaVlqqmnqW4rLh5-OwY4mzgCmTFL8VvueUL3grQsGlVPyJKQ6LLUpqSwBjTaewV-AfgbvUl6-vXn-Mjp33NbkgBCqWklqF9gDAc4-Nqw5ekRjHSKJacGPMSZWyXBlMUGlbqev6VZywwcPy1kF6QonGG-6lCSma6XqBGJyiqDdP2V4Pup5FKbKsT4-W--o9c0TezVZ_e0eb4Hug-en1DcBaAXLVbpyoc3L2UsYT_a8WFS6Xx7orcjdjXY0fHVMq7ZgNziaIfH3bAt-0G00?></g></svg>