<?plantuml 1.2026.2?><svg xmlns="http://www.w3.org/2000/svg" xmlns:xlink="http://www.w3.org/1999/xlink" contentStyleType="text/css" data-diagram-type="DESCRIPTION" height="404px" preserveAspectRatio="none" style="width:951px;height:404px;background:#FEFEFE;" version="1.1" viewBox="0 0 951 404" width="951px" zoomAndPan="magnify"><title>UC-15: View Score Explanation</title><defs/><g><rect fill="#FEFEFE" height="404" style="stroke:none;stroke-width:1;" width="951" x="0" y="0"/><g class="title" data-source-line="12"><text fill="#000000" font-family="Verdana" font-size="22" font-weight="bold" lengthAdjust="spacing" textLength="382.7656" x="279.9465" y="37.1182">UC-15: View Score Explanation</text></g><!--cluster SmartLocateSG--><g class="cluster" data-qualified-name="SmartLocateSG" data-source-line="18" id="ent0005"><rect fill="#FFFFFF" height="104" rx="2.5" ry="2.5" style="stroke:#000000;stroke-width:1;" width="680.5" x="175" y="174.7373"/><text fill="#000000" font-family="Verdana" font-size="14" font-weight="bold" lengthAdjust="spacing" textLength="120.5449" x="454.9775" y="190.8125">SmartLocateSG</text></g><!--entity UC15--><g class="entity" data-qualified-name="SmartLocateSG.UC15" data-source-line="19" id="ent0006"><ellipse cx="284.4432" cy="236.826" fill="#E3F2FD" rx="93.4432" ry="21.0886" style="stroke:#1565C0;stroke-width:1;"/><text fill="#000000" font-family="Verdana" font-size="11" lengthAdjust="spacing" textLength="168.083" x="200.4017" y="240.0103">UC-15 View Score Explanation</text></g><!--entity R13--><g class="entity" data-qualified-name="SmartLocateSG.R13" data-source-line="20" id="ent0007"><ellipse cx="723.2479" cy="236.9869" fill="#E3F2FD" rx="116.7479" ry="25.7496" style="stroke:#1565C0;stroke-width:1;"/><text fill="#000000" font-family="Verdana" font-size="11" lengthAdjust="spacing" textLength="217.4541" x="614.5208" y="240.1712">UC-13 Drop POI Pin and Get Site Score</text></g><!--entity USER--><g class="entity" data-qualified-name="USER" data-source-line="14" id="ent0002"><ellipse cx="69.2715" cy="74.7373" fill="#FFFFFF" rx="16" ry="16" style="stroke:#000000;stroke-width:1;"/><path d="M69.2715,94.7373 C73.2715,94.7373 76.2715,94.7373 80.2715,90.7373 C88.2715,90.7373 96.2715,98.7373 96.2715,106.7373 L96.2715,110.7373 C96.2715,114.7373 92.2715,118.7373 88.2715,118.7373 L50.2715,118.7373 C46.2715,118.7373 42.2715,114.7373 42.2715,110.7373 L42.2715,106.7373 C42.2715,98.7373 50.2715,90.7373 58.2715,90.7373 C62.2715,94.7373 65.2715,94.7373 69.2715,94.7373" fill="#FFFFFF" style="stroke:#000000;stroke-width:1;"/><text fill="#000000" font-family="Verdana" font-size="14" lengthAdjust="spacing" textLength="31.8555" x="15.5" y="133.8125">User</text><text fill="#000000" font-family="Verdana" font-size="14" lengthAdjust="spacing" textLength="107.543" x="15.5" y="150.8271">(A01/A02/A03)</text></g><!--entity A04--><g class="entity" data-qualified-name="A04" data-source-line="15" id="ent0003"><ellipse cx="69.5259" cy="205.7373" fill="#FFFFFF" rx="16" ry="16" style="stroke:#000000;stroke-width:1;"/><path d="M69.5259,225.7373 C73.5259,225.7373 76.5259,225.7373 80.5259,221.7373 C88.5259,221.7373 96.5259,229.7373 96.5259,237.7373 L96.5259,241.7373 C96.5259,245.7373 92.5259,249.7373 88.5259,249.7373 L50.5259,249.7373 C46.5259,249.7373 42.5259,245.7373 42.5259,241.7373 L42.5259,237.7373 C42.5259,229.7373 50.5259,221.7373 58.5259,221.7373 C62.5259,225.7373 65.5259,225.7373 69.5259,225.7373" fill="#FFFFFF" style="stroke:#000000;stroke-width:1;"/><text fill="#000000" font-family="Verdana" font-size="14" lengthAdjust="spacing" textLength="117.0518" x="11" y="264.8125">System Backend</text><text fill="#000000" font-family="Verdana" font-size="14" lengthAdjust="spacing" textLength="40.0859" x="11" y="281.8271">(A04)</text></g><!--entity AI--><g class="entity" data-qualified-name="AI" data-source-line="16" id="ent0004"><ellipse cx="69.4897" cy="337.2373" fill="#FFFFFF" rx="16" ry="16" style="stroke:#000000;stroke-width:1;"/><path d="M69.4897,357.2373 C73.4897,357.2373 76.4897,357.2373 80.4897,353.2373 C88.4897,353.2373 96.4897,361.2373 96.4897,369.2373 L96.4897,373.2373 C96.4897,377.2373 92.4897,381.2373 88.4897,381.2373 L50.4897,381.2373 C46.4897,381.2373 42.4897,377.2373 42.4897,373.2373 L42.4897,369.2373 C42.4897,361.2373 50.4897,353.2373 58.4897,353.2373 C62.4897,357.2373 65.4897,357.2373 69.4897,357.2373" fill="#FFFFFF" style="stroke:#000000;stroke-width:1;"/><text fill="#000000" font-family="Verdana" font-size="14" lengthAdjust="spacing" textLength="83.9795" x="27.5" y="396.3125">AI Assistant</text></g><g class="entity" data-qualified-name="GMN12" data-source-line="30" id="ent0013"><path d="M501,297.2373 L501,354.6353 A0,0 0 0 0 501,354.6353 L944.6587,354.6353 A0,0 0 0 0 944.6587,354.6353 L944.6587,307.2373 L934.6587,297.2373 L585.94,297.2373 L354.18,250.7373 L577.94,297.2373 L501,297.2373 A0,0 0 0 0 501,297.2373" fill="#FFFFFF" style="stroke:#000000;stroke-width:1;"/><path d="M934.6587,297.2373 L934.6587,307.2373 L944.6587,307.2373 L934.6587,297.2373" fill="#FFFFFF" style="stroke:#000000;stroke-width:1;"/><text fill="#000000" font-family="Verdana" font-size="13" lengthAdjust="spacing" textLength="319.2617" x="507" y="315.3071">Pre: Refer corresponding sequence precondition.</text><text fill="#000000" font-family="Verdana" font-size="13" lengthAdjust="spacing" textLength="333.7915" x="507" y="331.1064">Flow: Main interaction follows sequence messages.</text><text fill="#000000" font-family="Verdana" font-size="13" lengthAdjust="spacing" textLength="422.6587" x="507" y="346.9058">AC/EX: Alternate and exception branches traced from sequence.</text></g><!--link USER to UC15--><g class="link" data-entity-1="ent0002" data-entity-2="ent0006" data-link-type="dependency" data-source-line="23" id="lnk8"><path d="M123.7,138.4573 C163.87,163.1573 212.5591,193.1042 246.3491,213.8842" fill="none" id="USER-to-UC15" style="stroke:#000000;stroke-width:1;"/><polygon fill="#000000" points="251.46,217.0273,245.8891,208.9055,247.2009,214.4081,241.6983,215.72,251.46,217.0273" style="stroke:#000000;stroke-width:1;"/></g><!--link A04 to UC15--><g class="link" data-entity-1="ent0003" data-entity-2="ent0006" data-link-type="dependency" data-source-line="24" id="lnk9"><path d="M128.14,236.7373 C147.48,236.7373 163.57,236.7373 184.9,236.7373" fill="none" id="A04-to-UC15" style="stroke:#000000;stroke-width:1;"/><polygon fill="#000000" points="190.9,236.7373,181.9,232.7373,185.9,236.7373,181.9,240.7373,190.9,236.7373" style="stroke:#000000;stroke-width:1;"/></g><!--link AI to UC15--><g class="link" data-entity-1="ent0004" data-entity-2="ent0006" data-link-type="dependency" data-source-line="25" id="lnk10"><path d="M111.57,336.0173 C151.7,312.8473 206.8842,280.9778 244.3742,259.3278" fill="none" id="AI-to-UC15" style="stroke:#000000;stroke-width:1;"/><polygon fill="#000000" points="249.57,256.3273,239.7759,257.3642,245.2401,258.8277,243.7766,264.292,249.57,256.3273" style="stroke:#000000;stroke-width:1;"/></g><!--link UC15 to R13--><g class="link" data-entity-1="ent0006" data-entity-2="ent0007" data-link-type="dependency" data-source-line="27" id="lnk11"><path d="M378.07,236.7373 C444.64,236.7373 528.87,236.7373 600.21,236.7373" fill="none" id="UC15-to-R13" style="stroke:#000000;stroke-width:1;stroke-dasharray:7,7;"/><polygon fill="#000000" points="606.21,236.7373,597.21,232.7373,601.21,236.7373,597.21,240.7373,606.21,236.7373" style="stroke:#000000;stroke-width:1;"/><text fill="#000000" font-family="Verdana" font-size="13" lengthAdjust="spacing" textLength="61.3882" x="409" y="233.8071">&#171;extend&#187;</text></g><?plantuml-src TLB1Rjim3BthAxZiqXtYnitIWr44y5ox2B1XGOmKFUoYshGZr9PSYK7I3VltKNBJ1WK6mO9CFZw-Hx33Xe0CMDNk26fbiI9bjFX4E-mHXaugBToJqeEqieT7MJsrrknrdPdEMFXSvFwS8GP6o1PBUkaGF9lKROTd05cHiMDQ7j2P_ZovTrX9X_1707pxs2kV5rV5hSyOMwDzZSQBwqKsusXXD9NgDq8SYxz2a29kiSscyIA1UuK7A2jZ4V8Zcz8ok1H134os3kqlVP7EuijqTiNV_Ci4f8DjcMzEcFB54VP15UeweB-EA7wSGEaAKkUKOzSqvbP2l4s1INffwRkf965vDmasJvOdGUf_b8vgidZniM0EjzOCiFwvWhNI87KDTqXGAiAH9LHkuhaVYRS3q-boP6BPPp-hzxVmDqJHqjT10ZStU2Jsl5mAeGqJZyjYcX6-jfZ01Xkqm0qjki7eMkaM73xlKLUyHJm17_DE8b5qvf303ruiK9hGoh1nq9YE4-wzgaVdU9DS9DBiCdz88EqOpVF0O1EF5GwXyj5ANUtG0J4Nrj1Oqx_HH8ALWvSj_W40?></g></svg>