<?plantuml 1.2026.2?><svg xmlns="http://www.w3.org/2000/svg" xmlns:xlink="http://www.w3.org/1999/xlink" contentStyleType="text/css" data-diagram-type="DESCRIPTION" height="293px" preserveAspectRatio="none" style="width:962px;height:293px;background:#FEFEFE;" version="1.1" viewBox="0 0 962 293" width="962px" zoomAndPan="magnify"><title>UC-20: Compare Candidate Sites</title><defs/><g><rect fill="#FEFEFE" height="293" style="stroke:none;stroke-width:1;" width="962" x="0" y="0"/><g class="title" data-source-line="12"><text fill="#000000" font-family="Verdana" font-size="22" font-weight="bold" lengthAdjust="spacing" textLength="401.6934" x="275.9827" y="37.1182">UC-20: Compare Candidate Sites</text></g><!--cluster SmartLocateSG--><g class="cluster" data-qualified-name="SmartLocateSG" data-source-line="17" id="ent0004"><rect fill="#FFFFFF" height="104" rx="2.5" ry="2.5" style="stroke:#000000;stroke-width:1;" width="644" x="175" y="108.7373"/><text fill="#000000" font-family="Verdana" font-size="14" font-weight="bold" lengthAdjust="spacing" textLength="120.5449" x="436.7275" y="124.8125">SmartLocateSG</text></g><!--entity UC20--><g class="entity" data-qualified-name="SmartLocateSG.UC20" data-source-line="18" id="ent0005"><ellipse cx="289.3969" cy="170.8167" fill="#E3F2FD" rx="98.3969" ry="22.0794" style="stroke:#1565C0;stroke-width:1;"/><text fill="#000000" font-family="Verdana" font-size="11" lengthAdjust="spacing" textLength="178.7017" x="200.0461" y="174.001">UC-20 Compare Candidate Sites</text></g><!--entity R17--><g class="entity" data-qualified-name="SmartLocateSG.R17" data-source-line="19" id="ent0006"><ellipse cx="734.1343" cy="161.9642" fill="#E3F2FD" rx="69.1343" ry="16.2269" style="stroke:#1565C0;stroke-width:1;"/><text fill="#000000" font-family="Verdana" font-size="11" lengthAdjust="spacing" textLength="114.1357" x="677.0664" y="165.1485">UC-17 View Portfolio</text></g><!--entity USER--><g class="entity" data-qualified-name="USER" data-source-line="14" id="ent0002"><ellipse cx="69.2715" cy="74.7373" fill="#FFFFFF" rx="16" ry="16" style="stroke:#000000;stroke-width:1;"/><path d="M69.2715,94.7373 C73.2715,94.7373 76.2715,94.7373 80.2715,90.7373 C88.2715,90.7373 96.2715,98.7373 96.2715,106.7373 L96.2715,110.7373 C96.2715,114.7373 92.2715,118.7373 88.2715,118.7373 L50.2715,118.7373 C46.2715,118.7373 42.2715,114.7373 42.2715,110.7373 L42.2715,106.7373 C42.2715,98.7373 50.2715,90.7373 58.2715,90.7373 C62.2715,94.7373 65.2715,94.7373 69.2715,94.7373" fill="#FFFFFF" style="stroke:#000000;stroke-width:1;"/><text fill="#000000" font-family="Verdana" font-size="14" lengthAdjust="spacing" textLength="31.8555" x="15.5" y="133.8125">User</text><text fill="#000000" font-family="Verdana" font-size="14" lengthAdjust="spacing" textLength="107.543" x="15.5" y="150.8271">(A01/A02/A03)</text></g><!--entity A04--><g class="entity" data-qualified-name="A04" data-source-line="15" id="ent0003"><ellipse cx="69.5259" cy="205.7373" fill="#FFFFFF" rx="16" ry="16" style="stroke:#000000;stroke-width:1;"/><path d="M69.5259,225.7373 C73.5259,225.7373 76.5259,225.7373 80.5259,221.7373 C88.5259,221.7373 96.5259,229.7373 96.5259,237.7373 L96.5259,241.7373 C96.5259,245.7373 92.5259,249.7373 88.5259,249.7373 L50.5259,249.7373 C46.5259,249.7373 42.5259,245.7373 42.5259,241.7373 L42.5259,237.7373 C42.5259,229.7373 50.5259,221.7373 58.5259,221.7373 C62.5259,225.7373 65.5259,225.7373 69.5259,225.7373" fill="#FFFFFF" style="stroke:#000000;stroke-width:1;"/><text fill="#000000" font-family="Verdana" font-size="14" lengthAdjust="spacing" textLength="117.0518" x="11" y="264.8125">System Backend</text><text fill="#000000" font-family="Verdana" font-size="14" lengthAdjust="spacing" textLength="40.0859" x="11" y="281.8271">(A04)</text></g><g class="entity" data-qualified-name="GMN10" data-source-line="28" id="ent0011"><path d="M512,229.2373 L512,286.6353 A0,0 0 0 0 512,286.6353 L955.6587,286.6353 A0,0 0 0 0 955.6587,286.6353 L955.6587,239.2373 L945.6587,229.2373 L591.59,229.2373 L364.07,185.1973 L583.59,229.2373 L512,229.2373 A0,0 0 0 0 512,229.2373" fill="#FFFFFF" style="stroke:#000000;stroke-width:1;"/><path d="M945.6587,229.2373 L945.6587,239.2373 L955.6587,239.2373 L945.6587,229.2373" fill="#FFFFFF" style="stroke:#000000;stroke-width:1;"/><text fill="#000000" font-family="Verdana" font-size="13" lengthAdjust="spacing" textLength="319.2617" x="518" y="247.3071">Pre: Refer corresponding sequence precondition.</text><text fill="#000000" font-family="Verdana" font-size="13" lengthAdjust="spacing" textLength="333.7915" x="518" y="263.1064">Flow: Main interaction follows sequence messages.</text><text fill="#000000" font-family="Verdana" font-size="13" lengthAdjust="spacing" textLength="422.6587" x="518" y="278.9058">AC/EX: Alternate and exception branches traced from sequence.</text></g><!--link USER to UC20--><g class="link" data-entity-1="ent0002" data-entity-2="ent0005" data-link-type="dependency" data-source-line="22" id="lnk7"><path d="M123.55,121.5573 C155.56,131.0973 190.6602,141.5626 223.6902,151.4126" fill="none" id="USER-to-UC20" style="stroke:#000000;stroke-width:1;"/><polygon fill="#000000" points="229.44,153.1273,221.9584,146.7221,224.6485,151.6984,219.6722,154.3885,229.44,153.1273" style="stroke:#000000;stroke-width:1;"/></g><!--link A04 to UC20--><g class="link" data-entity-1="ent0003" data-entity-2="ent0005" data-link-type="dependency" data-source-line="23" id="lnk8"><path d="M128.06,219.3073 C159.6,209.7673 192.8473,199.6955 224.4973,190.1155" fill="none" id="A04-to-UC20" style="stroke:#000000;stroke-width:1;"/><polygon fill="#000000" points="230.24,188.3773,220.4671,187.1562,225.4544,189.8258,222.7848,194.8131,230.24,188.3773" style="stroke:#000000;stroke-width:1;"/></g><!--link UC20 to R17--><g class="link" data-entity-1="ent0005" data-entity-2="ent0006" data-link-type="dependency" data-source-line="25" id="lnk9"><path d="M387.61,168.7573 C471.56,167.0573 584.7812,164.7495 658.9212,163.2395" fill="none" id="UC20-to-R17" style="stroke:#000000;stroke-width:1;stroke-dasharray:7,7;"/><polygon fill="#000000" points="664.92,163.1173,655.8404,159.3014,659.921,163.2191,656.0033,167.2997,664.92,163.1173" style="stroke:#000000;stroke-width:1;"/><text fill="#000000" font-family="Verdana" font-size="13" lengthAdjust="spacing" textLength="62.9624" x="419" y="164.8071">&#171;include&#187;</text></g><?plantuml-src TLB1RjD04BtlLmpX0eUuTagfP5MHWecvW5J52kB0PRiUEwkkTypiHg4W_frPcxPH9MJPicVUp7jl_Hns4I81s_uGeRMC9bhowbKyu80mEcsz2lVMZvhr07VQtFTCHzzMv8ZXTRrDrnbY58JkiOaF3Y5jqxvtU0RG9XBFRNt2GCDvynZGw83mMm5yUCcrlQnNzSVK8MwH_rMBg_TNLIxLcdnix2-4eb1_b8es2iM-Mgxo4YeQX02XqhwrhOu8ZOqOb9hKm68VaB_xDvkykDZaAxaltov01zWtszqZfda84OT95lfsGh-RKVAYr9DNGGwQusSomjDyManc7eqj9a7_qpDpLglynKHn3Lyjdk2ME7RaB4t0NN6TZ2QDi5okvq7HyloXqXEoR9smKCBDZVN67LjShvNo9BJpVwTknjyobh333XaCCMCOIVJv7WB-EA8t4WYncMef99cg7PrA-28P0UiZifx20o9H6k5vQi0G91GXKvlgOlkjX8qJj4--vG00VneSfyaxrjuSC42KNTX2npGyhScKd3iasUel?></g></svg>