<?plantuml 1.2026.2?><svg xmlns="http://www.w3.org/2000/svg" xmlns:xlink="http://www.w3.org/1999/xlink" contentStyleType="text/css" data-diagram-type="DESCRIPTION" height="293px" preserveAspectRatio="none" style="width:967px;height:293px;background:#FEFEFE;" version="1.1" viewBox="0 0 967 293" width="967px" zoomAndPan="magnify"><title>UC-21: Export Comparison Report</title><defs/><g><rect fill="#FEFEFE" height="293" style="stroke:none;stroke-width:1;" width="967" x="0" y="0"/><g class="title" data-source-line="12"><text fill="#000000" font-family="Verdana" font-size="22" font-weight="bold" lengthAdjust="spacing" textLength="418.1504" x="270.2542" y="37.1182">UC-21: Export Comparison Report</text></g><!--cluster SmartLocateSG--><g class="cluster" data-qualified-name="SmartLocateSG" data-source-line="17" id="ent0004"><rect fill="#FFFFFF" height="104" rx="2.5" ry="2.5" style="stroke:#000000;stroke-width:1;" width="678.5" x="175" y="108.7373"/><text fill="#000000" font-family="Verdana" font-size="14" font-weight="bold" lengthAdjust="spacing" textLength="120.5449" x="453.9775" y="124.8125">SmartLocateSG</text></g><!--entity UC21--><g class="entity" data-qualified-name="SmartLocateSG.UC21" data-source-line="18" id="ent0005"><ellipse cx="292.2097" cy="170.8792" fill="#E3F2FD" rx="101.2097" ry="22.6419" style="stroke:#1565C0;stroke-width:1;"/><text fill="#000000" font-family="Verdana" font-size="11" lengthAdjust="spacing" textLength="184.6958" x="199.8618" y="174.0636">UC-21 Export Comparison Report</text></g><!--entity R20--><g class="entity" data-qualified-name="SmartLocateSG.R20" data-source-line="19" id="ent0006"><ellipse cx="738.8969" cy="166.8167" fill="#E3F2FD" rx="98.3969" ry="22.0794" style="stroke:#1565C0;stroke-width:1;"/><text fill="#000000" font-family="Verdana" font-size="11" lengthAdjust="spacing" textLength="178.7017" x="649.5461" y="170.001">UC-20 Compare Candidate Sites</text></g><!--entity USER--><g class="entity" data-qualified-name="USER" data-source-line="14" id="ent0002"><ellipse cx="69.2715" cy="74.7373" fill="#FFFFFF" rx="16" ry="16" style="stroke:#000000;stroke-width:1;"/><path d="M69.2715,94.7373 C73.2715,94.7373 76.2715,94.7373 80.2715,90.7373 C88.2715,90.7373 96.2715,98.7373 96.2715,106.7373 L96.2715,110.7373 C96.2715,114.7373 92.2715,118.7373 88.2715,118.7373 L50.2715,118.7373 C46.2715,118.7373 42.2715,114.7373 42.2715,110.7373 L42.2715,106.7373 C42.2715,98.7373 50.2715,90.7373 58.2715,90.7373 C62.2715,94.7373 65.2715,94.7373 69.2715,94.7373" fill="#FFFFFF" style="stroke:#000000;stroke-width:1;"/><text fill="#000000" font-family="Verdana" font-size="14" lengthAdjust="spacing" textLength="31.8555" x="15.5" y="133.8125">User</text><text fill="#000000" font-family="Verdana" font-size="14" lengthAdjust="spacing" textLength="107.543" x="15.5" y="150.8271">(A01/A02/A03)</text></g><!--entity A04--><g class="entity" data-qualified-name="A04" data-source-line="15" id="ent0003"><ellipse cx="69.5259" cy="205.7373" fill="#FFFFFF" rx="16" ry="16" style="stroke:#000000;stroke-width:1;"/><path d="M69.5259,225.7373 C73.5259,225.7373 76.5259,225.7373 80.5259,221.7373 C88.5259,221.7373 96.5259,229.7373 96.5259,237.7373 L96.5259,241.7373 C96.5259,245.7373 92.5259,249.7373 88.5259,249.7373 L50.5259,249.7373 C46.5259,249.7373 42.5259,245.7373 42.5259,241.7373 L42.5259,237.7373 C42.5259,229.7373 50.5259,221.7373 58.5259,221.7373 C62.5259,225.7373 65.5259,225.7373 69.5259,225.7373" fill="#FFFFFF" style="stroke:#000000;stroke-width:1;"/><text fill="#000000" font-family="Verdana" font-size="14" lengthAdjust="spacing" textLength="117.0518" x="11" y="264.8125">System Backend</text><text fill="#000000" font-family="Verdana" font-size="14" lengthAdjust="spacing" textLength="40.0859" x="11" y="281.8271">(A04)</text></g><g class="entity" data-qualified-name="GMN10" data-source-line="28" id="ent0011"><path d="M517,229.2373 L517,286.6353 A0,0 0 0 0 517,286.6353 L960.6587,286.6353 A0,0 0 0 0 960.6587,286.6353 L960.6587,239.2373 L950.6587,229.2373 L595.82,229.2373 L368.49,185.4973 L587.82,229.2373 L517,229.2373 A0,0 0 0 0 517,229.2373" fill="#FFFFFF" style="stroke:#000000;stroke-width:1;"/><path d="M950.6587,229.2373 L950.6587,239.2373 L960.6587,239.2373 L950.6587,229.2373" fill="#FFFFFF" style="stroke:#000000;stroke-width:1;"/><text fill="#000000" font-family="Verdana" font-size="13" lengthAdjust="spacing" textLength="319.2617" x="523" y="247.3071">Pre: Refer corresponding sequence precondition.</text><text fill="#000000" font-family="Verdana" font-size="13" lengthAdjust="spacing" textLength="333.7915" x="523" y="263.1064">Flow: Main interaction follows sequence messages.</text><text fill="#000000" font-family="Verdana" font-size="13" lengthAdjust="spacing" textLength="422.6587" x="523" y="278.9058">AC/EX: Alternate and exception branches traced from sequence.</text></g><!--link USER to UC21--><g class="link" data-entity-1="ent0002" data-entity-2="ent0005" data-link-type="dependency" data-source-line="22" id="lnk7"><path d="M123.6,121.3873 C155.71,130.8573 191.0048,141.261 224.4248,151.111" fill="none" id="USER-to-UC21" style="stroke:#000000;stroke-width:1;"/><polygon fill="#000000" points="230.18,152.8073,222.678,146.4261,225.384,151.3938,220.4163,154.0997,230.18,152.8073" style="stroke:#000000;stroke-width:1;"/></g><!--link A04 to UC21--><g class="link" data-entity-1="ent0003" data-entity-2="ent0005" data-link-type="dependency" data-source-line="23" id="lnk8"><path d="M128.15,219.4873 C159.79,210.0073 193.2419,199.9976 225.2519,190.4176" fill="none" id="A04-to-UC21" style="stroke:#000000;stroke-width:1;"/><polygon fill="#000000" points="231,188.6973,221.231,187.4457,226.2099,190.1309,223.5247,195.1098,231,188.6973" style="stroke:#000000;stroke-width:1;"/></g><!--link UC21 to R20--><g class="link" data-entity-1="ent0005" data-entity-2="ent0006" data-link-type="dependency" data-source-line="25" id="lnk9"><path d="M393.14,169.8373 C467.09,169.1773 561.1902,168.3313 634.5002,167.6713" fill="none" id="UC21-to-R20" style="stroke:#000000;stroke-width:1;stroke-dasharray:7,7;"/><polygon fill="#000000" points="640.5,167.6173,631.4644,163.6985,635.5002,167.6623,631.5364,171.6982,640.5,167.6173" style="stroke:#000000;stroke-width:1;"/><text fill="#000000" font-family="Verdana" font-size="13" lengthAdjust="spacing" textLength="62.9624" x="424" y="166.8071">&#171;include&#187;</text></g><?plantuml-src TL9DRvmm4BtxLqotb_Qm14ZJ0ufMsXBefPMYHIlrq8jZ1jOAUCZOgoIjyjyxXdoi8bN826RUl7bFVWDs0G81s_uGeBMC9bXowaCuu8Wm3TewvM-jcpJh4MwqkUsPZgujQI26ZtKLdnF490ZTOnCU1uJ8fbq_u0b0cq2yjFKzUXfFcqUFHdk4lmhWs_jTrNcTrrUnGzmYFrUpYwyNPIhLcbnex1-4B5DFIWKRPCM-NETP0TN3H1oWf57sM4yETXWhIiroOBNtoB_TfssQdMtJNCxvvnLe3_kcshrWcaSVS9nreMjdz9S59HzAlPeLvAWv_22Z0pRVLxER5sUhMT5_1IrBopnxFv8-On5AxLhR2ZKqDg2V9tPv6Zr7jR1URnO6KVNse-8RacGJiL30vQLrPZYskDaevKZObWXGj-2l6GlHr2638MRq4ybQruF7koCw8zaGmx4MyvAeUg3x0dvANC2wWApd7457WpJyszI8tai-VAAsvLdrgu3j86WNxOWlm0U3qpnvmzgP0te8meKjT4pZAqsYv0OWobR_0000?></g></svg>