<?plantuml 1.2026.2?><svg xmlns="http://www.w3.org/2000/svg" xmlns:xlink="http://www.w3.org/1999/xlink" contentStyleType="text/css" data-diagram-type="SEQUENCE" height="1355px" preserveAspectRatio="none" style="width:1406px;height:1355px;background:#FFFFFF;" version="1.1" viewBox="0 0 1406 1355" width="1406px" zoomAndPan="magnify"><title>Portfolio Page, View Details and Manage Notes (Sequence)</title><defs/><g><text fill="#000000" font-family="sans-serif" font-size="14" font-weight="bold" lengthAdjust="spacing" textLength="391.3096" x="503.4973" y="29.5332">Portfolio Page, View Details and Manage Notes (Sequence)</text><g class="participant-lifeline" data-entity-uid="part1" data-qualified-name="User" id="part1-lifeline"><g><title>User .SME.</title><rect fill="#000000" fill-opacity="0.00000" height="1152.3047" width="8" x="40.5552" y="121.2188"/><line style="stroke:#181818;stroke-width:0.5;stroke-dasharray:5,5;" x1="44" x2="44" y1="121.2188" y2="1273.5234"/></g></g><g class="participant-lifeline" data-entity-uid="part2" data-qualified-name="UI_Dash" id="part2-lifeline"><g><title>PortfolioDashboardPage</title><rect fill="#000000" fill-opacity="0.00000" height="1152.3047" width="8" x="256.0576" y="121.2188"/><line style="stroke:#181818;stroke-width:0.5;stroke-dasharray:5,5;" x1="259.7856" x2="259.7856" y1="121.2188" y2="1273.5234"/></g></g><g class="participant-lifeline" data-entity-uid="part3" data-qualified-name="UI_Details" id="part3-lifeline"><g><title>LocationDetailsPage</title><rect fill="#000000" fill-opacity="0.00000" height="1152.3047" width="8" x="412.5396" y="121.2188"/><line style="stroke:#181818;stroke-width:0.5;stroke-dasharray:5,5;" x1="416.3296" x2="416.3296" y1="121.2188" y2="1273.5234"/></g></g><g class="participant-lifeline" data-entity-uid="part4" data-qualified-name="UI_Notes" id="part4-lifeline"><g><title>NotesPanel</title><rect fill="#000000" fill-opacity="0.00000" height="1152.3047" width="8" x="528.939" y="121.2188"/><line style="stroke:#181818;stroke-width:0.5;stroke-dasharray:5,5;" x1="532.7495" x2="532.7495" y1="121.2188" y2="1273.5234"/></g></g><g class="participant-lifeline" data-entity-uid="part5" data-qualified-name="C_Portfolio" id="part5-lifeline"><g><title>PortfolioController</title><rect fill="#000000" fill-opacity="0.00000" height="1152.3047" width="8" x="637.1523" y="121.2188"/><line style="stroke:#181818;stroke-width:0.5;stroke-dasharray:5,5;" x1="641.1284" x2="641.1284" y1="121.2188" y2="1273.5234"/></g></g><g class="participant-lifeline" data-entity-uid="part6" data-qualified-name="C_Location" id="part6-lifeline"><g><title>LocationController</title><rect fill="#000000" fill-opacity="0.00000" height="1152.3047" width="8" x="765.9863" y="121.2188"/><line style="stroke:#181818;stroke-width:0.5;stroke-dasharray:5,5;" x1="769.1763" x2="769.1763" y1="121.2188" y2="1273.5234"/></g></g><g class="participant-lifeline" data-entity-uid="part7" data-qualified-name="C_Notes" id="part7-lifeline"><g><title>NotesController</title><rect fill="#000000" fill-opacity="0.00000" height="1152.3047" width="8" x="887.4272" y="121.2188"/><line style="stroke:#181818;stroke-width:0.5;stroke-dasharray:5,5;" x1="890.7964" x2="890.7964" y1="121.2188" y2="1273.5234"/></g></g><g class="participant-lifeline" data-entity-uid="part8" data-qualified-name="E_Saved" id="part8-lifeline"><g><title>SavedLocation</title><rect fill="#000000" fill-opacity="0.00000" height="1152.3047" width="8" x="998.3716" y="121.2188"/><line style="stroke:#181818;stroke-width:0.5;stroke-dasharray:5,5;" x1="1002.0581" x2="1002.0581" y1="121.2188" y2="1273.5234"/></g></g><g class="participant-lifeline" data-entity-uid="part9" data-qualified-name="E_Location" id="part9-lifeline"><g><title>Location</title><rect fill="#000000" fill-opacity="0.00000" height="1152.3047" width="8" x="1087.1504" y="121.2188"/><line style="stroke:#181818;stroke-width:0.5;stroke-dasharray:5,5;" x1="1090.6851" x2="1090.6851" y1="121.2188" y2="1273.5234"/></g></g><g class="participant-lifeline" data-entity-uid="part10" data-qualified-name="E_Score" id="part10-lifeline"><g><title>LocationScore</title><rect fill="#000000" fill-opacity="0.00000" height="1152.3047" width="8" x="1174.3672" y="121.2188"/><line style="stroke:#181818;stroke-width:0.5;stroke-dasharray:5,5;" x1="1177.6157" x2="1177.6157" y1="121.2188" y2="1273.5234"/></g></g><g class="participant-lifeline" data-entity-uid="part11" data-qualified-name="E_Breakdown" id="part11-lifeline"><g><title>ScoreBreakdown</title><rect fill="#000000" fill-opacity="0.00000" height="1152.3047" width="8" x="1288.4253" y="121.2188"/><line style="stroke:#181818;stroke-width:0.5;stroke-dasharray:5,5;" x1="1292.1187" x2="1292.1187" y1="121.2188" y2="1273.5234"/></g></g><g class="participant-lifeline" data-entity-uid="part12" data-qualified-name="E_Note" id="part12-lifeline"><g><title>Note</title><rect fill="#000000" fill-opacity="0.00000" height="1152.3047" width="8" x="1372.5181" y="121.2188"/><line style="stroke:#181818;stroke-width:0.5;stroke-dasharray:5,5;" x1="1375.7319" x2="1375.7319" y1="121.2188" y2="1273.5234"/></g></g><g class="participant participant-head" data-entity-uid="part1" data-qualified-name="User" id="part1-head"><text fill="#000000" font-family="sans-serif" font-size="14" lengthAdjust="spacing" textLength="73.1104" x="5" y="118.1426">User (SME)</text><ellipse cx="44.5552" cy="52.1094" fill="#E2E2F0" rx="8" ry="8" style="stroke:#181818;stroke-width:0.5;"/><path d="M44.5552,60.1094 L44.5552,87.1094 M31.5552,68.1094 L57.5552,68.1094 M44.5552,87.1094 L31.5552,102.1094 M44.5552,87.1094 L57.5552,102.1094" fill="none" style="stroke:#181818;stroke-width:0.5;"/></g><g class="participant participant-tail" data-entity-uid="part1" data-qualified-name="User" id="part1-tail"><text fill="#000000" font-family="sans-serif" font-size="14" lengthAdjust="spacing" textLength="73.1104" x="5" y="1287.0566">User (SME)</text><ellipse cx="44.5552" cy="1298.6328" fill="#E2E2F0" rx="8" ry="8" style="stroke:#181818;stroke-width:0.5;"/><path d="M44.5552,1306.6328 L44.5552,1333.6328 M31.5552,1314.6328 L57.5552,1314.6328 M44.5552,1333.6328 L31.5552,1348.6328 M44.5552,1333.6328 L57.5552,1348.6328" fill="none" style="stroke:#181818;stroke-width:0.5;"/></g><g class="participant participant-head" data-entity-uid="part2" data-qualified-name="UI_Dash" id="part2-head"><text fill="#000000" font-family="sans-serif" font-size="14" lengthAdjust="spacing" textLength="152.5439" x="180.7856" y="118.1426">PortfolioDashboardPage</text><path d="M239.5576,75.6094 L239.5576,99.6094 M239.5576,87.6094 L256.5576,87.6094" fill="none" style="stroke:#181818;stroke-width:0.5;"/><ellipse cx="268.5576" cy="87.6094" fill="#E2E2F0" rx="12" ry="12" style="stroke:#181818;stroke-width:0.5;"/></g><g class="participant participant-tail" data-entity-uid="part2" data-qualified-name="UI_Dash" id="part2-tail"><text fill="#000000" font-family="sans-serif" font-size="14" lengthAdjust="spacing" textLength="152.5439" x="180.7856" y="1287.0566">PortfolioDashboardPage</text><path d="M239.5576,1294.1328 L239.5576,1318.1328 M239.5576,1306.1328 L256.5576,1306.1328" fill="none" style="stroke:#181818;stroke-width:0.5;"/><ellipse cx="268.5576" cy="1306.1328" fill="#E2E2F0" rx="12" ry="12" style="stroke:#181818;stroke-width:0.5;"/></g><g class="participant participant-head" data-entity-uid="part3" data-qualified-name="UI_Details" id="part3-head"><text fill="#000000" font-family="sans-serif" font-size="14" lengthAdjust="spacing" textLength="128.4199" x="349.3296" y="118.1426">LocationDetailsPage</text><path d="M396.0396,75.6094 L396.0396,99.6094 M396.0396,87.6094 L413.0396,87.6094" fill="none" style="stroke:#181818;stroke-width:0.5;"/><ellipse cx="425.0396" cy="87.6094" fill="#E2E2F0" rx="12" ry="12" style="stroke:#181818;stroke-width:0.5;"/></g><g class="participant participant-tail" data-entity-uid="part3" data-qualified-name="UI_Details" id="part3-tail"><text fill="#000000" font-family="sans-serif" font-size="14" lengthAdjust="spacing" textLength="128.4199" x="349.3296" y="1287.0566">LocationDetailsPage</text><path d="M396.0396,1294.1328 L396.0396,1318.1328 M396.0396,1306.1328 L413.0396,1306.1328" fill="none" style="stroke:#181818;stroke-width:0.5;"/><ellipse cx="425.0396" cy="1306.1328" fill="#E2E2F0" rx="12" ry="12" style="stroke:#181818;stroke-width:0.5;"/></g><g class="participant participant-head" data-entity-uid="part4" data-qualified-name="UI_Notes" id="part4-head"><text fill="#000000" font-family="sans-serif" font-size="14" lengthAdjust="spacing" textLength="72.3789" x="493.7495" y="118.1426">NotesPanel</text><path d="M512.439,75.6094 L512.439,99.6094 M512.439,87.6094 L529.439,87.6094" fill="none" style="stroke:#181818;stroke-width:0.5;"/><ellipse cx="541.439" cy="87.6094" fill="#E2E2F0" rx="12" ry="12" style="stroke:#181818;stroke-width:0.5;"/></g><g class="participant participant-tail" data-entity-uid="part4" data-qualified-name="UI_Notes" id="part4-tail"><text fill="#000000" font-family="sans-serif" font-size="14" lengthAdjust="spacing" textLength="72.3789" x="493.7495" y="1287.0566">NotesPanel</text><path d="M512.439,1294.1328 L512.439,1318.1328 M512.439,1306.1328 L529.439,1306.1328" fill="none" style="stroke:#181818;stroke-width:0.5;"/><ellipse cx="541.439" cy="1306.1328" fill="#E2E2F0" rx="12" ry="12" style="stroke:#181818;stroke-width:0.5;"/></g><g class="participant participant-head" data-entity-uid="part5" data-qualified-name="C_Portfolio" id="part5-head"><text fill="#000000" font-family="sans-serif" font-size="14" lengthAdjust="spacing" textLength="112.0479" x="582.1284" y="118.1426">PortfolioController</text><ellipse cx="641.1523" cy="87.6094" fill="#E2E2F0" rx="12" ry="12" style="stroke:#181818;stroke-width:0.5;"/><polygon fill="#181818" points="637.1523,75.6094,643.1523,70.6094,641.1523,75.6094,643.1523,80.6094,637.1523,75.6094" style="stroke:#181818;stroke-width:1;"/></g><g class="participant participant-tail" data-entity-uid="part5" data-qualified-name="C_Portfolio" id="part5-tail"><text fill="#000000" font-family="sans-serif" font-size="14" lengthAdjust="spacing" textLength="112.0479" x="582.1284" y="1287.0566">PortfolioController</text><ellipse cx="641.1523" cy="1306.1328" fill="#E2E2F0" rx="12" ry="12" style="stroke:#181818;stroke-width:0.5;"/><polygon fill="#181818" points="637.1523,1294.1328,643.1523,1289.1328,641.1523,1294.1328,643.1523,1299.1328,637.1523,1294.1328" style="stroke:#181818;stroke-width:1;"/></g><g class="participant participant-head" data-entity-uid="part6" data-qualified-name="C_Location" id="part6-head"><text fill="#000000" font-family="sans-serif" font-size="14" lengthAdjust="spacing" textLength="113.6201" x="710.1763" y="118.1426">LocationController</text><ellipse cx="769.9863" cy="87.6094" fill="#E2E2F0" rx="12" ry="12" style="stroke:#181818;stroke-width:0.5;"/><polygon fill="#181818" points="765.9863,75.6094,771.9863,70.6094,769.9863,75.6094,771.9863,80.6094,765.9863,75.6094" style="stroke:#181818;stroke-width:1;"/></g><g class="participant participant-tail" data-entity-uid="part6" data-qualified-name="C_Location" id="part6-tail"><text fill="#000000" font-family="sans-serif" font-size="14" lengthAdjust="spacing" textLength="113.6201" x="710.1763" y="1287.0566">LocationController</text><ellipse cx="769.9863" cy="1306.1328" fill="#E2E2F0" rx="12" ry="12" style="stroke:#181818;stroke-width:0.5;"/><polygon fill="#181818" points="765.9863,1294.1328,771.9863,1289.1328,769.9863,1294.1328,771.9863,1299.1328,765.9863,1294.1328" style="stroke:#181818;stroke-width:1;"/></g><g class="participant participant-head" data-entity-uid="part7" data-qualified-name="C_Notes" id="part7-head"><text fill="#000000" font-family="sans-serif" font-size="14" lengthAdjust="spacing" textLength="97.2617" x="839.7964" y="118.1426">NotesController</text><ellipse cx="891.4272" cy="87.6094" fill="#E2E2F0" rx="12" ry="12" style="stroke:#181818;stroke-width:0.5;"/><polygon fill="#181818" points="887.4272,75.6094,893.4272,70.6094,891.4272,75.6094,893.4272,80.6094,887.4272,75.6094" style="stroke:#181818;stroke-width:1;"/></g><g class="participant participant-tail" data-entity-uid="part7" data-qualified-name="C_Notes" id="part7-tail"><text fill="#000000" font-family="sans-serif" font-size="14" lengthAdjust="spacing" textLength="97.2617" x="839.7964" y="1287.0566">NotesController</text><ellipse cx="891.4272" cy="1306.1328" fill="#E2E2F0" rx="12" ry="12" style="stroke:#181818;stroke-width:0.5;"/><polygon fill="#181818" points="887.4272,1294.1328,893.4272,1289.1328,891.4272,1294.1328,893.4272,1299.1328,887.4272,1294.1328" style="stroke:#181818;stroke-width:1;"/></g><g class="participant participant-head" data-entity-uid="part8" data-qualified-name="E_Saved" id="part8-head"><text fill="#000000" font-family="sans-serif" font-size="14" lengthAdjust="spacing" textLength="92.627" x="953.0581" y="118.1426">SavedLocation</text><ellipse cx="1002.3716" cy="87.6094" fill="#E2E2F0" rx="12" ry="12" style="stroke:#181818;stroke-width:0.5;"/><line style="stroke:#181818;stroke-width:0.5;" x1="990.3716" x2="1014.3716" y1="101.6094" y2="101.6094"/></g><g class="participant participant-tail" data-entity-uid="part8" data-qualified-name="E_Saved" id="part8-tail"><text fill="#000000" font-family="sans-serif" font-size="14" lengthAdjust="spacing" textLength="92.627" x="953.0581" y="1287.0566">SavedLocation</text><ellipse cx="1002.3716" cy="1306.1328" fill="#E2E2F0" rx="12" ry="12" style="stroke:#181818;stroke-width:0.5;"/><line style="stroke:#181818;stroke-width:0.5;" x1="990.3716" x2="1014.3716" y1="1320.1328" y2="1320.1328"/></g><g class="participant participant-head" data-entity-uid="part9" data-qualified-name="E_Location" id="part9-head"><text fill="#000000" font-family="sans-serif" font-size="14" lengthAdjust="spacing" textLength="52.9307" x="1061.6851" y="118.1426">Location</text><ellipse cx="1091.1504" cy="87.6094" fill="#E2E2F0" rx="12" ry="12" style="stroke:#181818;stroke-width:0.5;"/><line style="stroke:#181818;stroke-width:0.5;" x1="1079.1504" x2="1103.1504" y1="101.6094" y2="101.6094"/></g><g class="participant participant-tail" data-entity-uid="part9" data-qualified-name="E_Location" id="part9-tail"><text fill="#000000" font-family="sans-serif" font-size="14" lengthAdjust="spacing" textLength="52.9307" x="1061.6851" y="1287.0566">Location</text><ellipse cx="1091.1504" cy="1306.1328" fill="#E2E2F0" rx="12" ry="12" style="stroke:#181818;stroke-width:0.5;"/><line style="stroke:#181818;stroke-width:0.5;" x1="1079.1504" x2="1103.1504" y1="1320.1328" y2="1320.1328"/></g><g class="participant participant-head" data-entity-uid="part10" data-qualified-name="E_Score" id="part10-head"><text fill="#000000" font-family="sans-serif" font-size="14" lengthAdjust="spacing" textLength="89.5029" x="1130.6157" y="118.1426">LocationScore</text><ellipse cx="1178.3672" cy="87.6094" fill="#E2E2F0" rx="12" ry="12" style="stroke:#181818;stroke-width:0.5;"/><line style="stroke:#181818;stroke-width:0.5;" x1="1166.3672" x2="1190.3672" y1="101.6094" y2="101.6094"/></g><g class="participant participant-tail" data-entity-uid="part10" data-qualified-name="E_Score" id="part10-tail"><text fill="#000000" font-family="sans-serif" font-size="14" lengthAdjust="spacing" textLength="89.5029" x="1130.6157" y="1287.0566">LocationScore</text><ellipse cx="1178.3672" cy="1306.1328" fill="#E2E2F0" rx="12" ry="12" style="stroke:#181818;stroke-width:0.5;"/><line style="stroke:#181818;stroke-width:0.5;" x1="1166.3672" x2="1190.3672" y1="1320.1328" y2="1320.1328"/></g><g class="participant participant-head" data-entity-uid="part11" data-qualified-name="E_Breakdown" id="part11-head"><text fill="#000000" font-family="sans-serif" font-size="14" lengthAdjust="spacing" textLength="106.6133" x="1236.1187" y="118.1426">ScoreBreakdown</text><ellipse cx="1292.4253" cy="87.6094" fill="#E2E2F0" rx="12" ry="12" style="stroke:#181818;stroke-width:0.5;"/><line style="stroke:#181818;stroke-width:0.5;" x1="1280.4253" x2="1304.4253" y1="101.6094" y2="101.6094"/></g><g class="participant participant-tail" data-entity-uid="part11" data-qualified-name="E_Breakdown" id="part11-tail"><text fill="#000000" font-family="sans-serif" font-size="14" lengthAdjust="spacing" textLength="106.6133" x="1236.1187" y="1287.0566">ScoreBreakdown</text><ellipse cx="1292.4253" cy="1306.1328" fill="#E2E2F0" rx="12" ry="12" style="stroke:#181818;stroke-width:0.5;"/><line style="stroke:#181818;stroke-width:0.5;" x1="1280.4253" x2="1304.4253" y1="1320.1328" y2="1320.1328"/></g><g class="participant participant-head" data-entity-uid="part12" data-qualified-name="E_Note" id="part12-head"><text fill="#000000" font-family="sans-serif" font-size="14" lengthAdjust="spacing" textLength="29.5723" x="1358.7319" y="118.1426">Note</text><ellipse cx="1376.5181" cy="87.6094" fill="#E2E2F0" rx="12" ry="12" style="stroke:#181818;stroke-width:0.5;"/><line style="stroke:#181818;stroke-width:0.5;" x1="1364.5181" x2="1388.5181" y1="101.6094" y2="101.6094"/></g><g class="participant participant-tail" data-entity-uid="part12" data-qualified-name="E_Note" id="part12-tail"><text fill="#000000" font-family="sans-serif" font-size="14" lengthAdjust="spacing" textLength="29.5723" x="1358.7319" y="1287.0566">Note</text><ellipse cx="1376.5181" cy="1306.1328" fill="#E2E2F0" rx="12" ry="12" style="stroke:#181818;stroke-width:0.5;"/><line style="stroke:#181818;stroke-width:0.5;" x1="1364.5181" x2="1388.5181" y1="1320.1328" y2="1320.1328"/></g><rect fill="#EEEEEE" height="3" style="stroke:#EEEEEE;stroke-width:1;" width="1399.3042" x="0" y="152.3945"/><line style="stroke:#000000;stroke-width:1;" x1="0" x2="1399.3042" y1="152.3945" y2="152.3945"/><line style="stroke:#000000;stroke-width:1;" x1="0" x2="1399.3042" y1="155.3945" y2="155.3945"/><rect fill="#EEEEEE" height="24.3516" style="stroke:#000000;stroke-width:2;" width="104.981" x="647.1616" y="141.2188"/><text fill="#000000" font-family="sans-serif" font-size="13" font-weight="bold" lengthAdjust="spacing" textLength="87.3691" x="653.1616" y="158.7139">Load portfolio</text><g class="message" data-entity-1="part1" data-entity-2="part2" id="msg1"><polygon fill="#181818" points="248.0576,193.9219,258.0576,197.9219,248.0576,201.9219,252.0576,197.9219" style="stroke:#181818;stroke-width:1;"/><line style="stroke:#181818;stroke-width:1;" x1="44.5552" x2="254.0576" y1="197.9219" y2="197.9219"/><text fill="#000000" font-family="sans-serif" font-size="13" lengthAdjust="spacing" textLength="83.1035" x="51.5552" y="193.0654">Open Portfolio</text></g><g class="message" data-entity-1="part2" data-entity-2="part5" id="msg2"><polygon fill="#181818" points="629.1523,224.2734,639.1523,228.2734,629.1523,232.2734,633.1523,228.2734" style="stroke:#181818;stroke-width:1;"/><line style="stroke:#181818;stroke-width:1;" x1="260.0576" x2="635.1523" y1="228.2734" y2="228.2734"/><text fill="#000000" font-family="sans-serif" font-size="13" lengthAdjust="spacing" textLength="166.2007" x="267.0576" y="223.417">getPortfolioLocations(userId)</text></g><g class="message" data-entity-1="part5" data-entity-2="part8" id="msg3"><polygon fill="#181818" points="990.3716,254.625,1000.3716,258.625,990.3716,262.625,994.3716,258.625" style="stroke:#181818;stroke-width:1;"/><line style="stroke:#181818;stroke-width:1;" x1="641.1523" x2="996.3716" y1="258.625" y2="258.625"/><text fill="#000000" font-family="sans-serif" font-size="13" lengthAdjust="spacing" textLength="108.3672" x="648.1523" y="253.7686">findByUser(userId)</text></g><g class="message" data-entity-1="part8" data-entity-2="part5" id="msg4"><polygon fill="#181818" points="652.1523,284.9766,642.1523,288.9766,652.1523,292.9766,648.1523,288.9766" style="stroke:#181818;stroke-width:1;"/><line style="stroke:#181818;stroke-width:1;stroke-dasharray:2,2;" x1="646.1523" x2="1001.3716" y1="288.9766" y2="288.9766"/><text fill="#000000" font-family="sans-serif" font-size="13" lengthAdjust="spacing" textLength="97.5635" x="658.1523" y="284.1201">savedLocations[]</text></g><g class="message" data-entity-1="part5" data-entity-2="part2" id="msg5"><polygon fill="#181818" points="271.0576,315.3281,261.0576,319.3281,271.0576,323.3281,267.0576,319.3281" style="stroke:#181818;stroke-width:1;"/><line style="stroke:#181818;stroke-width:1;stroke-dasharray:2,2;" x1="265.0576" x2="640.1523" y1="319.3281" y2="319.3281"/><text fill="#000000" font-family="sans-serif" font-size="13" lengthAdjust="spacing" textLength="97.5635" x="277.0576" y="314.4717">savedLocations[]</text></g><rect fill="#EEEEEE" height="3" style="stroke:#EEEEEE;stroke-width:1;" width="1399.3042" x="0" y="348.5039"/><line style="stroke:#000000;stroke-width:1;" x1="0" x2="1399.3042" y1="348.5039" y2="348.5039"/><line style="stroke:#000000;stroke-width:1;" x1="0" x2="1399.3042" y1="351.5039" y2="351.5039"/><rect fill="#EEEEEE" height="24.3516" style="stroke:#000000;stroke-width:2;" width="160.6753" x="619.3145" y="337.3281"/><text fill="#000000" font-family="sans-serif" font-size="13" font-weight="bold" lengthAdjust="spacing" textLength="143.0635" x="625.3145" y="354.8232">Select a saved location</text><g class="message" data-entity-1="part1" data-entity-2="part2" id="msg6"><polygon fill="#181818" points="248.0576,390.0313,258.0576,394.0313,248.0576,398.0313,252.0576,394.0313" style="stroke:#181818;stroke-width:1;"/><line style="stroke:#181818;stroke-width:1;" x1="44.5552" x2="254.0576" y1="394.0313" y2="394.0313"/><text fill="#000000" font-family="sans-serif" font-size="13" lengthAdjust="spacing" textLength="191.5024" x="51.5552" y="389.1748">Select location (savedLocationId)</text></g><g class="message" data-entity-1="part2" data-entity-2="part6" id="msg7"><polygon fill="#181818" points="757.9863,420.3828,767.9863,424.3828,757.9863,428.3828,761.9863,424.3828" style="stroke:#181818;stroke-width:1;"/><line style="stroke:#181818;stroke-width:1;" x1="260.0576" x2="763.9863" y1="424.3828" y2="424.3828"/><text fill="#000000" font-family="sans-serif" font-size="13" lengthAdjust="spacing" textLength="210.2979" x="267.0576" y="419.5264">getLocationDetails(savedLocationId)</text></g><g class="message" data-entity-1="part6" data-entity-2="part8" id="msg8"><polygon fill="#181818" points="990.3716,450.7344,1000.3716,454.7344,990.3716,458.7344,994.3716,454.7344" style="stroke:#181818;stroke-width:1;"/><line style="stroke:#181818;stroke-width:1;" x1="769.9863" x2="996.3716" y1="454.7344" y2="454.7344"/><text fill="#000000" font-family="sans-serif" font-size="13" lengthAdjust="spacing" textLength="150.3125" x="776.9863" y="449.8779">findById(savedLocationId)</text></g><g class="message" data-entity-1="part8" data-entity-2="part6" id="msg9"><polygon fill="#181818" points="780.9863,481.0859,770.9863,485.0859,780.9863,489.0859,776.9863,485.0859" style="stroke:#181818;stroke-width:1;"/><line style="stroke:#181818;stroke-width:1;stroke-dasharray:2,2;" x1="774.9863" x2="1001.3716" y1="485.0859" y2="485.0859"/><text fill="#000000" font-family="sans-serif" font-size="13" lengthAdjust="spacing" textLength="83.8398" x="786.9863" y="480.2295">savedLocation</text></g><g class="message" data-entity-1="part6" data-entity-2="part9" id="msg10"><polygon fill="#181818" points="1079.1504,511.4375,1089.1504,515.4375,1079.1504,519.4375,1083.1504,515.4375" style="stroke:#181818;stroke-width:1;"/><line style="stroke:#181818;stroke-width:1;" x1="769.9863" x2="1085.1504" y1="515.4375" y2="515.4375"/><text fill="#000000" font-family="sans-serif" font-size="13" lengthAdjust="spacing" textLength="198.7324" x="776.9863" y="510.5811">findById(savedLocation.locationId)</text></g><g class="message" data-entity-1="part9" data-entity-2="part6" id="msg11"><polygon fill="#181818" points="780.9863,541.7891,770.9863,545.7891,780.9863,549.7891,776.9863,545.7891" style="stroke:#181818;stroke-width:1;"/><line style="stroke:#181818;stroke-width:1;stroke-dasharray:2,2;" x1="774.9863" x2="1090.1504" y1="545.7891" y2="545.7891"/><text fill="#000000" font-family="sans-serif" font-size="13" lengthAdjust="spacing" textLength="44.8081" x="786.9863" y="540.9326">location</text></g><g class="message" data-entity-1="part6" data-entity-2="part10" id="msg12"><polygon fill="#181818" points="1166.3672,572.1406,1176.3672,576.1406,1166.3672,580.1406,1170.3672,576.1406" style="stroke:#181818;stroke-width:1;"/><line style="stroke:#181818;stroke-width:1;" x1="769.9863" x2="1172.3672" y1="576.1406" y2="576.1406"/><text fill="#000000" font-family="sans-serif" font-size="13" lengthAdjust="spacing" textLength="155.3716" x="776.9863" y="571.2842">getScore(savedLocationId)</text></g><g class="message" data-entity-1="part10" data-entity-2="part6" id="msg13"><polygon fill="#181818" points="780.9863,602.4922,770.9863,606.4922,780.9863,610.4922,776.9863,606.4922" style="stroke:#181818;stroke-width:1;"/><line style="stroke:#181818;stroke-width:1;stroke-dasharray:2,2;" x1="774.9863" x2="1177.3672" y1="606.4922" y2="606.4922"/><text fill="#000000" font-family="sans-serif" font-size="13" lengthAdjust="spacing" textLength="93.209" x="786.9863" y="601.6357">compositeScore</text></g><g class="message" data-entity-1="part6" data-entity-2="part11" id="msg14"><polygon fill="#181818" points="1280.4253,632.8438,1290.4253,636.8438,1280.4253,640.8438,1284.4253,636.8438" style="stroke:#181818;stroke-width:1;"/><line style="stroke:#181818;stroke-width:1;" x1="769.9863" x2="1286.4253" y1="636.8438" y2="636.8438"/><text fill="#000000" font-family="sans-serif" font-size="13" lengthAdjust="spacing" textLength="186.4497" x="776.9863" y="631.9873">getBreakdown(savedLocationId)</text></g><g class="message" data-entity-1="part11" data-entity-2="part6" id="msg15"><polygon fill="#181818" points="780.9863,663.1953,770.9863,667.1953,780.9863,671.1953,776.9863,667.1953" style="stroke:#181818;stroke-width:1;"/><line style="stroke:#181818;stroke-width:1;stroke-dasharray:2,2;" x1="774.9863" x2="1291.4253" y1="667.1953" y2="667.1953"/><text fill="#000000" font-family="sans-serif" font-size="13" lengthAdjust="spacing" textLength="63.5972" x="786.9863" y="662.3389">breakdown</text></g><g class="message" data-entity-1="part6" data-entity-2="part3" id="msg16"><polygon fill="#181818" points="427.5396,693.5469,417.5396,697.5469,427.5396,701.5469,423.5396,697.5469" style="stroke:#181818;stroke-width:1;"/><line style="stroke:#181818;stroke-width:1;stroke-dasharray:2,2;" x1="421.5396" x2="768.9863" y1="697.5469" y2="697.5469"/><text fill="#000000" font-family="sans-serif" font-size="13" lengthAdjust="spacing" textLength="169.8252" x="433.5396" y="692.6904">location + score + breakdown</text></g><rect fill="#EEEEEE" height="3" style="stroke:#EEEEEE;stroke-width:1;" width="1399.3042" x="0" y="726.7227"/><line style="stroke:#000000;stroke-width:1;" x1="0" x2="1399.3042" y1="726.7227" y2="726.7227"/><line style="stroke:#000000;stroke-width:1;" x1="0" x2="1399.3042" y1="729.7227" y2="729.7227"/><rect fill="#EEEEEE" height="24.3516" style="stroke:#000000;stroke-width:2;" width="136.751" x="631.2766" y="715.5469"/><text fill="#000000" font-family="sans-serif" font-size="13" font-weight="bold" lengthAdjust="spacing" textLength="119.1392" x="637.2766" y="733.042">Add note (optional)</text><g class="message" data-entity-1="part1" data-entity-2="part4" id="msg17"><polygon fill="#181818" points="520.939,768.25,530.939,772.25,520.939,776.25,524.939,772.25" style="stroke:#181818;stroke-width:1;"/><line style="stroke:#181818;stroke-width:1;" x1="44.5552" x2="526.939" y1="772.25" y2="772.25"/><text fill="#000000" font-family="sans-serif" font-size="13" lengthAdjust="spacing" textLength="81.6563" x="51.5552" y="767.3936">Add note(text)</text></g><g class="message" data-entity-1="part4" data-entity-2="part7" id="msg18"><polygon fill="#181818" points="879.4272,798.6016,889.4272,802.6016,879.4272,806.6016,883.4272,802.6016" style="stroke:#181818;stroke-width:1;"/><line style="stroke:#181818;stroke-width:1;" x1="532.939" x2="885.4272" y1="802.6016" y2="802.6016"/><text fill="#000000" font-family="sans-serif" font-size="13" lengthAdjust="spacing" textLength="180.667" x="539.939" y="797.7451">addNote(savedLocationId, text)</text></g><g class="message" data-entity-1="part7" data-entity-2="part12" id="msg19"><polygon fill="#181818" points="1364.5181,828.9531,1374.5181,832.9531,1364.5181,836.9531,1368.5181,832.9531" style="stroke:#181818;stroke-width:1;"/><line style="stroke:#181818;stroke-width:1;" x1="891.4272" x2="1370.5181" y1="832.9531" y2="832.9531"/><text fill="#000000" font-family="sans-serif" font-size="13" lengthAdjust="spacing" textLength="167.6479" x="898.4272" y="828.0967">create(savedLocationId, text)</text></g><g class="message" data-entity-1="part12" data-entity-2="part7" id="msg20"><polygon fill="#181818" points="902.4272,859.3047,892.4272,863.3047,902.4272,867.3047,898.4272,863.3047" style="stroke:#181818;stroke-width:1;"/><line style="stroke:#181818;stroke-width:1;stroke-dasharray:2,2;" x1="896.4272" x2="1375.5181" y1="863.3047" y2="863.3047"/><text fill="#000000" font-family="sans-serif" font-size="13" lengthAdjust="spacing" textLength="25.3018" x="908.4272" y="858.4482">note</text></g><g class="message" data-entity-1="part7" data-entity-2="part4" id="msg21"><polygon fill="#181818" points="543.939,889.6563,533.939,893.6563,543.939,897.6563,539.939,893.6563" style="stroke:#181818;stroke-width:1;"/><line style="stroke:#181818;stroke-width:1;stroke-dasharray:2,2;" x1="537.939" x2="890.4272" y1="893.6563" y2="893.6563"/><text fill="#000000" font-family="sans-serif" font-size="13" lengthAdjust="spacing" textLength="65.0635" x="549.939" y="888.7998">note added</text></g><rect fill="#EEEEEE" height="3" style="stroke:#EEEEEE;stroke-width:1;" width="1399.3042" x="0" y="922.832"/><line style="stroke:#000000;stroke-width:1;" x1="0" x2="1399.3042" y1="922.832" y2="922.832"/><line style="stroke:#000000;stroke-width:1;" x1="0" x2="1399.3042" y1="925.832" y2="925.832"/><rect fill="#EEEEEE" height="24.3516" style="stroke:#000000;stroke-width:2;" width="136.0337" x="631.6353" y="911.6563"/><text fill="#000000" font-family="sans-serif" font-size="13" font-weight="bold" lengthAdjust="spacing" textLength="118.4219" x="637.6353" y="929.1514">Edit note (optional)</text><g class="message" data-entity-1="part1" data-entity-2="part4" id="msg22"><polygon fill="#181818" points="520.939,964.3594,530.939,968.3594,520.939,972.3594,524.939,968.3594" style="stroke:#181818;stroke-width:1;"/><line style="stroke:#181818;stroke-width:1;" x1="44.5552" x2="526.939" y1="968.3594" y2="968.3594"/><text fill="#000000" font-family="sans-serif" font-size="13" lengthAdjust="spacing" textLength="152.4707" x="51.5552" y="963.5029">Edit note(noteId, newText)</text></g><g class="message" data-entity-1="part4" data-entity-2="part7" id="msg23"><polygon fill="#181818" points="879.4272,994.7109,889.4272,998.7109,879.4272,1002.7109,883.4272,998.7109" style="stroke:#181818;stroke-width:1;"/><line style="stroke:#181818;stroke-width:1;" x1="532.939" x2="885.4272" y1="998.7109" y2="998.7109"/><text fill="#000000" font-family="sans-serif" font-size="13" lengthAdjust="spacing" textLength="149.5762" x="539.939" y="993.8545">editNote(noteId, newText)</text></g><g class="message" data-entity-1="part7" data-entity-2="part12" id="msg24"><polygon fill="#181818" points="1364.5181,1025.0625,1374.5181,1029.0625,1364.5181,1033.0625,1368.5181,1029.0625" style="stroke:#181818;stroke-width:1;"/><line style="stroke:#181818;stroke-width:1;" x1="891.4272" x2="1370.5181" y1="1029.0625" y2="1029.0625"/><text fill="#000000" font-family="sans-serif" font-size="13" lengthAdjust="spacing" textLength="140.918" x="898.4272" y="1024.2061">update(noteId, newText)</text></g><g class="message" data-entity-1="part12" data-entity-2="part7" id="msg25"><polygon fill="#181818" points="902.4272,1055.4141,892.4272,1059.4141,902.4272,1063.4141,898.4272,1059.4141" style="stroke:#181818;stroke-width:1;"/><line style="stroke:#181818;stroke-width:1;stroke-dasharray:2,2;" x1="896.4272" x2="1375.5181" y1="1059.4141" y2="1059.4141"/><text fill="#000000" font-family="sans-serif" font-size="13" lengthAdjust="spacing" textLength="74.4517" x="908.4272" y="1054.5576">updatedNote</text></g><g class="message" data-entity-1="part7" data-entity-2="part4" id="msg26"><polygon fill="#181818" points="543.939,1085.7656,533.939,1089.7656,543.939,1093.7656,539.939,1089.7656" style="stroke:#181818;stroke-width:1;"/><line style="stroke:#181818;stroke-width:1;stroke-dasharray:2,2;" x1="537.939" x2="890.4272" y1="1089.7656" y2="1089.7656"/><text fill="#000000" font-family="sans-serif" font-size="13" lengthAdjust="spacing" textLength="75.9053" x="549.939" y="1084.9092">note updated</text></g><rect fill="#EEEEEE" height="3" style="stroke:#EEEEEE;stroke-width:1;" width="1399.3042" x="0" y="1118.9414"/><line style="stroke:#000000;stroke-width:1;" x1="0" x2="1399.3042" y1="1118.9414" y2="1118.9414"/><line style="stroke:#000000;stroke-width:1;" x1="0" x2="1399.3042" y1="1121.9414" y2="1121.9414"/><rect fill="#EEEEEE" height="24.3516" style="stroke:#000000;stroke-width:2;" width="150.5" x="624.4021" y="1107.7656"/><text fill="#000000" font-family="sans-serif" font-size="13" font-weight="bold" lengthAdjust="spacing" textLength="132.8882" x="630.4021" y="1125.2607">Delete note (optional)</text><g class="message" data-entity-1="part1" data-entity-2="part4" id="msg27"><polygon fill="#181818" points="520.939,1160.4688,530.939,1164.4688,520.939,1168.4688,524.939,1164.4688" style="stroke:#181818;stroke-width:1;"/><line style="stroke:#181818;stroke-width:1;" x1="44.5552" x2="526.939" y1="1164.4688" y2="1164.4688"/><text fill="#000000" font-family="sans-serif" font-size="13" lengthAdjust="spacing" textLength="111.2935" x="51.5552" y="1159.6123">Delete note(noteId)</text></g><g class="message" data-entity-1="part4" data-entity-2="part7" id="msg28"><polygon fill="#181818" points="879.4272,1190.8203,889.4272,1194.8203,879.4272,1198.8203,883.4272,1194.8203" style="stroke:#181818;stroke-width:1;"/><line style="stroke:#181818;stroke-width:1;" x1="532.939" x2="885.4272" y1="1194.8203" y2="1194.8203"/><text fill="#000000" font-family="sans-serif" font-size="13" lengthAdjust="spacing" textLength="107.6816" x="539.939" y="1189.9639">deleteNote(noteId)</text></g><g class="message" data-entity-1="part7" data-entity-2="part12" id="msg29"><polygon fill="#181818" points="1364.5181,1221.1719,1374.5181,1225.1719,1364.5181,1229.1719,1368.5181,1225.1719" style="stroke:#181818;stroke-width:1;"/><line style="stroke:#181818;stroke-width:1;" x1="891.4272" x2="1370.5181" y1="1225.1719" y2="1225.1719"/><text fill="#000000" font-family="sans-serif" font-size="13" lengthAdjust="spacing" textLength="80.2217" x="898.4272" y="1220.3154">delete(noteId)</text></g><g class="message" data-entity-1="part7" data-entity-2="part4" id="msg30"><polygon fill="#181818" points="543.939,1251.5234,533.939,1255.5234,543.939,1259.5234,539.939,1255.5234" style="stroke:#181818;stroke-width:1;"/><line style="stroke:#181818;stroke-width:1;stroke-dasharray:2,2;" x1="537.939" x2="890.4272" y1="1255.5234" y2="1255.5234"/><text fill="#000000" font-family="sans-serif" font-size="13" lengthAdjust="spacing" textLength="71.5635" x="549.939" y="1250.667">note deleted</text></g><?plantuml-src ZPJDRjim3CVlUWeY9mTjzW05Cc1jSWZGPW6oxJ8CWMAndJ5DocnbMTz--hPaAKKlXYJ-o3z9KLQTuWWxsQjdoJi9E_g2j_2jmmkiKD6E3q05WoSgj06sKk40pHx_d56qE2U4jahsCFiwOA_FdzRp6T01p9OSvLamsh_2B8PVqU7dKTAU6Hb7RWxcC84VPKjL9uMNpqXtbC0seHqLo0DZJmXffL2zv8dsWplXs5lquH0j8noq2pOOHjJg59nNHw4wfTFRqx_8Wgz5rWTx5ec9CUfCxVjMzXWYcFMeONRtFT9VJ5v2dBYFcCdC6ysIaEKI7YLbS8ftlrmIUu-BZ-5Qu0u-dr2Cyq62GJD91pNtWYfkGz93SzRnDcnEKbQx-Yvej-TEiFjN8nlPO5mK6aFQpk7xZpnibdQ1cdhtoB5LG9qLk3VN2_TmX9eif4aqwqKmk5PCXhZq9Ob7fI4RLhhaVKdqChACd93ru1zufZ9wJuNuLGqxXAvqkwncRvaYQ2j_d-JGANHZNOIEe-p2nsrDOcGBcMDy4Pc2ltB_gnjBX1iORButgQUUeK-CWT0F21fvCY3byydyk9_aNIGRXV-KdHPdiPa5Y39cbjDYRi4vFOm-xjsQXkbyhdjuR96fc3J6M7cQjXYTXlufcVhMh5FlB32YZVcO50HUlhnHB6g7RPMlrNa-CLfZgnKwsFRopK8zPqjTwHUkZzvNR0BxbAvLoIovJS5QUGuhaKhI3cNaFm00?></g></svg>