<?plantuml 1.2026.2?><svg xmlns="http://www.w3.org/2000/svg" xmlns:xlink="http://www.w3.org/1999/xlink" contentStyleType="text/css" data-diagram-type="SEQUENCE" height="882px" preserveAspectRatio="none" style="width:744px;height:882px;background:#FFFFFF;" version="1.1" viewBox="0 0 744 882" width="744px" zoomAndPan="magnify"><title>UC-02: Verify Email</title><defs/><g><text fill="#000000" font-family="Georgia" font-size="14" font-weight="bold" lengthAdjust="spacing" textLength="144.5254" x="301.2006" y="27.8379">UC-02: Verify Email</text><rect fill="none" height="447.9678" rx="5" ry="5" style="stroke:#000000;stroke-width:1.5;" width="727.9265" x="10" y="327.8926"/><g class="participant-lifeline" data-entity-uid="part1" data-qualified-name="User" id="part1-lifeline"><g><title>User</title><rect fill="#000000" fill-opacity="0.00000" height="665.9561" width="8" x="57.9485" y="126.9043"/><line style="stroke:#181818;stroke-width:0.5;stroke-dasharray:5,5;" x1="61" x2="61" y1="126.9043" y2="792.8604"/></g></g><g class="participant-lifeline" data-entity-uid="part2" data-qualified-name="Email" id="part2-lifeline"><g><title>Email Client</title><rect fill="#000000" fill-opacity="0.00000" height="665.9561" width="8" x="197.9158" y="126.9043"/><line style="stroke:#181818;stroke-width:0.5;stroke-dasharray:5,5;" x1="201.6711" x2="201.6711" y1="126.9043" y2="792.8604"/></g></g><g class="participant-lifeline" data-entity-uid="part3" data-qualified-name="FE" id="part3-lifeline"><g><title>Frontend</title><rect fill="#000000" fill-opacity="0.00000" height="665.9561" width="8" x="274.8882" y="126.9043"/><line style="stroke:#181818;stroke-width:0.5;stroke-dasharray:5,5;" x1="278.1604" x2="278.1604" y1="126.9043" y2="792.8604"/></g></g><g class="participant-lifeline" data-entity-uid="part4" data-qualified-name="A04" id="part4-lifeline"><g><title>Backend</title><rect fill="#000000" fill-opacity="0.00000" height="665.9561" width="8" x="493.021" y="126.9043"/><line style="stroke:#181818;stroke-width:0.5;stroke-dasharray:5,5;" x1="496.1436" x2="496.1436" y1="126.9043" y2="792.8604"/></g></g><g class="participant-lifeline" data-entity-uid="part5" data-qualified-name="DB" id="part5-lifeline"><g><title>Database</title><rect fill="#000000" fill-opacity="0.00000" height="665.9561" width="8" x="698.478" y="126.9043"/><line style="stroke:#181818;stroke-width:0.5;stroke-dasharray:5,5;" x1="702.0295" x2="702.0295" y1="126.9043" y2="792.8604"/></g></g><g class="participant participant-head" data-entity-uid="part1" data-qualified-name="User" id="part1-head"><text fill="#000000" font-family="Georgia" font-size="11" lengthAdjust="spacing" textLength="22.897" x="47.5" y="111.9941">User</text><text fill="#000000" font-family="Georgia" font-size="11" lengthAdjust="spacing" textLength="77.897" x="20" y="124.4927">(A01/A02/A03)</text><ellipse cx="61.9485" cy="50.4072" fill="#E2E2F0" rx="8" ry="8" style="stroke:#181818;stroke-width:0.5;"/><path d="M61.9485,58.4072 L61.9485,85.4072 M48.9485,66.4072 L74.9485,66.4072 M61.9485,85.4072 L48.9485,100.4072 M61.9485,85.4072 L74.9485,100.4072" fill="none" style="stroke:#181818;stroke-width:0.5;"/></g><g class="participant participant-tail" data-entity-uid="part1" data-qualified-name="User" id="part1-tail"><text fill="#000000" font-family="Georgia" font-size="11" lengthAdjust="spacing" textLength="22.897" x="47.5" y="801.9473">User</text><text fill="#000000" font-family="Georgia" font-size="11" lengthAdjust="spacing" textLength="77.897" x="20" y="814.4458">(A01/A02/A03)</text><ellipse cx="61.9485" cy="825.3574" fill="#E2E2F0" rx="8" ry="8" style="stroke:#181818;stroke-width:0.5;"/><path d="M61.9485,833.3574 L61.9485,860.3574 M48.9485,841.3574 L74.9485,841.3574 M61.9485,860.3574 L48.9485,875.3574 M61.9485,860.3574 L74.9485,875.3574" fill="none" style="stroke:#181818;stroke-width:0.5;"/></g><g class="participant participant-head" data-entity-uid="part2" data-qualified-name="Email" id="part2-head"><rect fill="#E2E2F0" height="26.4985" rx="5" ry="5" style="stroke:#181818;stroke-width:0.5;" width="74.4893" x="164.6711" y="99.4058"/><text fill="#000000" font-family="Georgia" font-size="11" lengthAdjust="spacing" textLength="60.4893" x="171.6711" y="116.4927">Email Client</text></g><g class="participant participant-tail" data-entity-uid="part2" data-qualified-name="Email" id="part2-tail"><rect fill="#E2E2F0" height="26.4985" rx="5" ry="5" style="stroke:#181818;stroke-width:0.5;" width="74.4893" x="164.6711" y="791.8604"/><text fill="#000000" font-family="Georgia" font-size="11" lengthAdjust="spacing" textLength="60.4893" x="171.6711" y="808.9473">Email Client</text></g><g class="participant participant-head" data-entity-uid="part3" data-qualified-name="FE" id="part3-head"><rect fill="#E2E2F0" height="38.9971" rx="5" ry="5" style="stroke:#181818;stroke-width:0.5;" width="59.4556" x="249.1604" y="86.9072"/><text fill="#000000" font-family="Georgia" font-size="11" lengthAdjust="spacing" textLength="45.4556" x="256.1604" y="103.9941">Frontend</text><text fill="#000000" font-family="Georgia" font-size="11" lengthAdjust="spacing" textLength="35.6211" x="261.0776" y="116.4927">(React)</text></g><g class="participant participant-tail" data-entity-uid="part3" data-qualified-name="FE" id="part3-tail"><rect fill="#E2E2F0" height="38.9971" rx="5" ry="5" style="stroke:#181818;stroke-width:0.5;" width="59.4556" x="249.1604" y="791.8604"/><text fill="#000000" font-family="Georgia" font-size="11" lengthAdjust="spacing" textLength="45.4556" x="256.1604" y="808.9473">Frontend</text><text fill="#000000" font-family="Georgia" font-size="11" lengthAdjust="spacing" textLength="35.6211" x="261.0776" y="821.4458">(React)</text></g><g class="participant participant-head" data-entity-uid="part4" data-qualified-name="A04" id="part4-head"><rect fill="#E2E2F0" height="38.9971" rx="5" ry="5" style="stroke:#181818;stroke-width:0.5;" width="55.7549" x="469.1436" y="86.9072"/><text fill="#000000" font-family="Georgia" font-size="11" lengthAdjust="spacing" textLength="41.7549" x="476.1436" y="103.9941">Backend</text><text fill="#000000" font-family="Georgia" font-size="11" lengthAdjust="spacing" textLength="28.5957" x="482.7231" y="116.4927">(A04)</text></g><g class="participant participant-tail" data-entity-uid="part4" data-qualified-name="A04" id="part4-tail"><rect fill="#E2E2F0" height="38.9971" rx="5" ry="5" style="stroke:#181818;stroke-width:0.5;" width="55.7549" x="469.1436" y="791.8604"/><text fill="#000000" font-family="Georgia" font-size="11" lengthAdjust="spacing" textLength="41.7549" x="476.1436" y="808.9473">Backend</text><text fill="#000000" font-family="Georgia" font-size="11" lengthAdjust="spacing" textLength="28.5957" x="482.7231" y="821.4458">(A04)</text></g><g class="participant participant-head" data-entity-uid="part5" data-qualified-name="DB" id="part5-head"><text fill="#000000" font-family="Georgia" font-size="11" lengthAdjust="spacing" textLength="44.897" x="677.0295" y="124.4927">Database</text><path d="M684.478,78.4058 C684.478,68.4058 702.478,68.4058 702.478,68.4058 C702.478,68.4058 720.478,68.4058 720.478,78.4058 L720.478,104.4058 C720.478,114.4058 702.478,114.4058 702.478,114.4058 C702.478,114.4058 684.478,114.4058 684.478,104.4058 L684.478,78.4058" fill="#E2E2F0" style="stroke:#181818;stroke-width:0.5;"/><path d="M684.478,78.4058 C684.478,88.4058 702.478,88.4058 702.478,88.4058 C702.478,88.4058 720.478,88.4058 720.478,78.4058" fill="none" style="stroke:#181818;stroke-width:0.5;"/></g><g class="participant participant-tail" data-entity-uid="part5" data-qualified-name="DB" id="part5-tail"><text fill="#000000" font-family="Georgia" font-size="11" lengthAdjust="spacing" textLength="44.897" x="677.0295" y="801.9473">Database</text><path d="M684.478,814.3589 C684.478,804.3589 702.478,804.3589 702.478,804.3589 C702.478,804.3589 720.478,804.3589 720.478,814.3589 L720.478,840.3589 C720.478,850.3589 702.478,850.3589 702.478,850.3589 C702.478,850.3589 684.478,850.3589 684.478,840.3589 L684.478,814.3589" fill="#E2E2F0" style="stroke:#181818;stroke-width:0.5;"/><path d="M684.478,814.3589 C684.478,824.3589 702.478,824.3589 702.478,824.3589 C702.478,824.3589 720.478,824.3589 720.478,814.3589" fill="none" style="stroke:#181818;stroke-width:0.5;"/></g><g class="message" data-entity-1="part1" data-entity-2="part2" id="msg1"><polygon fill="#181818" points="189.9158,151.4028,199.9158,155.4028,189.9158,159.4028,193.9158,155.4028" style="stroke:#181818;stroke-width:1;"/><line style="stroke:#181818;stroke-width:2;" x1="61.9485" x2="195.9158" y1="155.4028" y2="155.4028"/><text fill="#000000" font-family="Georgia" font-size="11" lengthAdjust="spacing" textLength="113.8081" x="68.9485" y="150.9912">Open verification email</text></g><g class="message" data-entity-1="part2" data-entity-2="part1" id="msg2"><polygon fill="#181818" points="72.9485,177.9014,62.9485,181.9014,72.9485,185.9014,68.9485,181.9014" style="stroke:#181818;stroke-width:1;"/><line style="stroke:#181818;stroke-width:2;" x1="66.9485" x2="200.9158" y1="181.9014" y2="181.9014"/><text fill="#000000" font-family="Georgia" font-size="11" lengthAdjust="spacing" textLength="115.9673" x="78.9485" y="177.4897">Display verification link</text></g><g class="message" data-entity-1="part1" data-entity-2="part3" id="msg3"><polygon fill="#181818" points="266.8882,216.8984,276.8882,220.8984,266.8882,224.8984,270.8882,220.8984" style="stroke:#181818;stroke-width:1;"/><line style="stroke:#181818;stroke-width:2;" x1="61.9485" x2="272.8882" y1="220.8984" y2="220.8984"/><text fill="#000000" font-family="Georgia" font-size="11" lengthAdjust="spacing" textLength="103.6836" x="68.9485" y="203.9883">Click verification link</text><text fill="#000000" font-family="Georgia" font-size="11" lengthAdjust="spacing" textLength="146.8833" x="68.9485" y="216.4868">(GET /verify?token=&lt;token&gt;)</text></g><g class="message" data-entity-1="part3" data-entity-2="part4" id="msg4"><polygon fill="#181818" points="485.021,243.397,495.021,247.397,485.021,251.397,489.021,247.397" style="stroke:#181818;stroke-width:1;"/><line style="stroke:#181818;stroke-width:2;" x1="278.8882" x2="491.021" y1="247.397" y2="247.397"/><text fill="#000000" font-family="Georgia" font-size="11" lengthAdjust="spacing" textLength="186.0654" x="285.8882" y="242.9854">GET /api/auth/verify?token=&lt;token&gt;</text></g><g class="message" data-entity-1="part4" data-entity-2="part5" id="msg5"><polygon fill="#181818" points="690.478,282.394,700.478,286.394,690.478,290.394,694.478,286.394" style="stroke:#181818;stroke-width:1;"/><line style="stroke:#181818;stroke-width:2;" x1="497.021" x2="696.478" y1="286.394" y2="286.394"/><text fill="#000000" font-family="Georgia" font-size="11" lengthAdjust="spacing" textLength="181.457" x="504.021" y="269.4839">SELECT * FROM verification_tokens</text><text fill="#000000" font-family="Georgia" font-size="11" lengthAdjust="spacing" textLength="89.52" x="504.021" y="281.9824">WHERE token = ?</text></g><g class="message" data-entity-1="part5" data-entity-2="part4" id="msg6"><polygon fill="#181818" points="508.021,308.8926,498.021,312.8926,508.021,316.8926,504.021,312.8926" style="stroke:#181818;stroke-width:1;"/><line style="stroke:#181818;stroke-width:2;stroke-dasharray:2,2;" x1="502.021" x2="701.478" y1="312.8926" y2="312.8926"/><text fill="#000000" font-family="Georgia" font-size="11" lengthAdjust="spacing" textLength="64.668" x="514.021" y="308.481">Token record</text></g><path d="M15,327.8926 L69.7114,327.8926 L69.7114,332.3911 L59.7114,342.3911 L10,342.3911 L10,332.8926 A5,5 0 0 1 15,327.8926" fill="#EEEEEE" style="stroke:#000000;stroke-width:1.5;"/><rect fill="none" height="447.9678" rx="5" ry="5" style="stroke:#000000;stroke-width:1.5;" width="727.9265" x="10" y="327.8926"/><text fill="#000000" font-family="Georgia" font-size="11" font-weight="bold" lengthAdjust="spacing" textLength="14.7114" x="25" y="338.9795">alt</text><text fill="#000000" font-family="Georgia" font-size="11" font-weight="bold" lengthAdjust="spacing" textLength="238.7612" x="84.7114" y="339.9795">[Token not found or invalid [UC-02.EX.1]]</text><g class="message" data-entity-1="part4" data-entity-2="part3" id="msg7"><polygon fill="#181818" points="289.8882,369.3882,279.8882,373.3882,289.8882,377.3882,285.8882,373.3882" style="stroke:#181818;stroke-width:1;"/><line style="stroke:#181818;stroke-width:2;stroke-dasharray:2,2;" x1="283.8882" x2="496.021" y1="373.3882" y2="373.3882"/><text fill="#000000" font-family="Georgia" font-size="11" lengthAdjust="spacing" textLength="83.4614" x="295.8882" y="356.478">400 Bad Request</text><text fill="#000000" font-family="Georgia" font-size="11" lengthAdjust="spacing" textLength="171.8911" x="295.8882" y="368.9766">{error: "Invalid verification token"}</text></g><g class="message" data-entity-1="part3" data-entity-2="part1" id="msg8"><polygon fill="#181818" points="72.9485,408.3853,62.9485,412.3853,72.9485,416.3853,68.9485,412.3853" style="stroke:#181818;stroke-width:1;"/><line style="stroke:#181818;stroke-width:2;stroke-dasharray:2,2;" x1="66.9485" x2="277.8882" y1="412.3853" y2="412.3853"/><text fill="#000000" font-family="Georgia" font-size="11" lengthAdjust="spacing" textLength="97.6626" x="78.9485" y="395.4751">Show error message</text><text fill="#000000" font-family="Georgia" font-size="11" lengthAdjust="spacing" textLength="176.5425" x="78.9485" y="407.9736">+ "Resend verification email" option</text></g><line style="stroke:#000000;stroke-width:1;stroke-dasharray:2,2;" x1="10" x2="737.9265" y1="421.3853" y2="421.3853"/><text fill="#000000" font-family="Georgia" font-size="11" font-weight="bold" lengthAdjust="spacing" textLength="169.0176" x="15" y="431.4722">[Token expired [UC-02.EX.1]]</text><g class="message" data-entity-1="part4" data-entity-2="part4" id="msg9"><line style="stroke:#181818;stroke-width:2;" x1="497.021" x2="539.021" y1="453.3823" y2="453.3823"/><line style="stroke:#181818;stroke-width:2;" x1="539.021" x2="539.021" y1="453.3823" y2="466.3823"/><line style="stroke:#181818;stroke-width:2;" x1="498.021" x2="539.021" y1="466.3823" y2="466.3823"/><polygon fill="#181818" points="508.021,462.3823,498.021,466.3823,508.021,470.3823,504.021,466.3823" style="stroke:#181818;stroke-width:1;"/><text fill="#000000" font-family="Georgia" font-size="11" lengthAdjust="spacing" textLength="131.6777" x="504.021" y="448.9707">Check expires_at &lt; NOW()</text></g><g class="message" data-entity-1="part4" data-entity-2="part3" id="msg10"><polygon fill="#181818" points="289.8882,501.3794,279.8882,505.3794,289.8882,509.3794,285.8882,505.3794" style="stroke:#181818;stroke-width:1;"/><line style="stroke:#181818;stroke-width:2;stroke-dasharray:2,2;" x1="283.8882" x2="496.021" y1="505.3794" y2="505.3794"/><text fill="#000000" font-family="Georgia" font-size="11" lengthAdjust="spacing" textLength="83.4614" x="295.8882" y="488.4692">400 Bad Request</text><text fill="#000000" font-family="Georgia" font-size="11" lengthAdjust="spacing" textLength="186.479" x="295.8882" y="500.9678">{error: "Verification link has expired"}</text></g><g class="message" data-entity-1="part3" data-entity-2="part1" id="msg11"><polygon fill="#181818" points="72.9485,540.3765,62.9485,544.3765,72.9485,548.3765,68.9485,544.3765" style="stroke:#181818;stroke-width:1;"/><line style="stroke:#181818;stroke-width:2;stroke-dasharray:2,2;" x1="66.9485" x2="277.8882" y1="544.3765" y2="544.3765"/><text fill="#000000" font-family="Georgia" font-size="11" lengthAdjust="spacing" textLength="86.9849" x="78.9485" y="527.4663">Show expiry error</text><text fill="#000000" font-family="Georgia" font-size="11" lengthAdjust="spacing" textLength="176.5425" x="78.9485" y="539.9648">+ "Resend verification email" option</text></g><line style="stroke:#000000;stroke-width:1;stroke-dasharray:2,2;" x1="10" x2="737.9265" y1="553.3765" y2="553.3765"/><text fill="#000000" font-family="Georgia" font-size="11" font-weight="bold" lengthAdjust="spacing" textLength="75.7271" x="15" y="563.4634">[Token valid]</text><g class="message" data-entity-1="part4" data-entity-2="part5" id="msg12"><polygon fill="#181818" points="690.478,593.8721,700.478,597.8721,690.478,601.8721,694.478,597.8721" style="stroke:#181818;stroke-width:1;"/><line style="stroke:#181818;stroke-width:2;" x1="497.021" x2="696.478" y1="597.8721" y2="597.8721"/><text fill="#000000" font-family="Georgia" font-size="11" lengthAdjust="spacing" textLength="177.1655" x="504.021" y="580.9619">UPDATE users SET status = "active"</text><text fill="#000000" font-family="Georgia" font-size="11" lengthAdjust="spacing" textLength="134.2773" x="504.021" y="593.4604">WHERE id = token.user_id</text></g><g class="message" data-entity-1="part5" data-entity-2="part4" id="msg13"><polygon fill="#181818" points="508.021,620.3706,498.021,624.3706,508.021,628.3706,504.021,624.3706" style="stroke:#181818;stroke-width:1;"/><line style="stroke:#181818;stroke-width:2;stroke-dasharray:2,2;" x1="502.021" x2="701.478" y1="624.3706" y2="624.3706"/><text fill="#000000" font-family="Georgia" font-size="11" lengthAdjust="spacing" textLength="99.6768" x="514.021" y="619.959">User record updated</text></g><g class="message" data-entity-1="part4" data-entity-2="part5" id="msg14"><polygon fill="#181818" points="690.478,659.3677,700.478,663.3677,690.478,667.3677,694.478,663.3677" style="stroke:#181818;stroke-width:1;"/><line style="stroke:#181818;stroke-width:2;" x1="497.021" x2="696.478" y1="663.3677" y2="663.3677"/><text fill="#000000" font-family="Georgia" font-size="11" lengthAdjust="spacing" textLength="175.8013" x="504.021" y="646.4575">DELETE FROM verification_tokens</text><text fill="#000000" font-family="Georgia" font-size="11" lengthAdjust="spacing" textLength="89.52" x="504.021" y="658.9561">WHERE token = ?</text></g><g class="message" data-entity-1="part5" data-entity-2="part4" id="msg15"><polygon fill="#181818" points="508.021,685.8662,498.021,689.8662,508.021,693.8662,504.021,689.8662" style="stroke:#181818;stroke-width:1;"/><line style="stroke:#181818;stroke-width:2;stroke-dasharray:2,2;" x1="502.021" x2="701.478" y1="689.8662" y2="689.8662"/><text fill="#000000" font-family="Georgia" font-size="11" lengthAdjust="spacing" textLength="87.4844" x="514.021" y="685.4546">Token invalidated</text></g><g class="message" data-entity-1="part4" data-entity-2="part3" id="msg16"><polygon fill="#181818" points="289.8882,724.8633,279.8882,728.8633,289.8882,732.8633,285.8882,728.8633" style="stroke:#181818;stroke-width:1;"/><line style="stroke:#181818;stroke-width:2;stroke-dasharray:2,2;" x1="283.8882" x2="496.021" y1="728.8633" y2="728.8633"/><text fill="#000000" font-family="Georgia" font-size="11" lengthAdjust="spacing" textLength="38.124" x="295.8882" y="711.9531">200 OK</text><text fill="#000000" font-family="Georgia" font-size="11" lengthAdjust="spacing" textLength="194.1328" x="295.8882" y="724.4517">{message: "Email verified successfully"}</text></g><g class="message" data-entity-1="part3" data-entity-2="part1" id="msg17"><polygon fill="#181818" points="72.9485,763.8604,62.9485,767.8604,72.9485,771.8604,68.9485,767.8604" style="stroke:#181818;stroke-width:1;"/><line style="stroke:#181818;stroke-width:2;stroke-dasharray:2,2;" x1="66.9485" x2="277.8882" y1="767.8604" y2="767.8604"/><text fill="#000000" font-family="Georgia" font-size="11" lengthAdjust="spacing" textLength="108.7915" x="78.9485" y="750.9502">Show success message</text><text fill="#000000" font-family="Georgia" font-size="11" lengthAdjust="spacing" textLength="71.8062" x="78.9485" y="763.4487">+ "Log In" link</text></g><?plantuml-src bLJRRjf047tVhnZvARG23CqJ2ecuc3Hg6YekIQLIeQqzm0gpTdVNfBJgltUyQnfCIDKW8UoTCtDcvfp521CZJ7jLlzc2UrHYiODWmqNCc5uBcNB5Dw3nUuOon8vIoUDa9SArHAsXUG1HIIQZC54I5JJyWq242vx5Pf18SySt2DUOgANWfn5ZyHEXqM2CXoPHu4qrgfayw_YDUiTlqlTTnGEk8Jzdb6r4A58k3NYsP-Z50gMn43T42JDGH84oeeeZ90PNQn2KKLqUhXseuvyx23smY1l-ZMi4hryysL2_orZU3LGl7IMqO9YYX6s-In5o8n89Q9jnSGBQX1RqXKvZlYj3Oo7NJoK70U5egd3z74KTNWSJgDl0xiear7RxmlvSLXXbKZvrJWKiZAUYpZEpEebdB4TIGhzB-75m6_Gcy0O6e-774l7SmlLCFhmFHW7ODsZ35QEywb--YJrMI7w8IClO52SoCR38ZG8ahf1R7ei8lbZprOBFjSPN1lIndUndF_TzwF88Hha5jPd9NqWcL2tmRehyqbviGzvlMoVVmDEonwla4MmkRCYyV8ap-HQy4MeI-uHQ7YHf_iOm9j5T__WZ5GfVQda_VM-599V3wZatS05tmuUpock6kpyM6rPajeB_7_FbW9qRy_NZsNqUpcFDCFtKxqm2o8X6apCce0qtcIRLFRf3OelUtWqaHjifKClHyw9OoHgsM-SCo5AwL4WEEQRia_-8yl_Tzup63LHOx8Xal_qcRN_uWPPU-A6r_nTnbAIppiAGOeiiZdSlBxr0bMnrcopXHdhkDfC2x0y0?></g></svg>