<?plantuml 1.2026.2?><svg xmlns="http://www.w3.org/2000/svg" xmlns:xlink="http://www.w3.org/1999/xlink" contentStyleType="text/css" data-diagram-type="SEQUENCE" height="976px" preserveAspectRatio="none" style="width:805px;height:976px;background:#FFFFFF;" version="1.1" viewBox="0 0 805 976" width="805px" zoomAndPan="magnify"><title>UC-09: Delete Business Profile</title><defs/><g><text fill="#000000" font-family="Georgia" font-size="14" font-weight="bold" lengthAdjust="spacing" textLength="221.252" x="293.1028" y="27.8379">UC-09: Delete Business Profile</text><rect fill="none" height="648.4575" rx="5" ry="5" style="stroke:#000000;stroke-width:1.5;" width="788.4575" x="10" y="221.8984"/><rect fill="none" height="277.481" rx="5" ry="5" style="stroke:#000000;stroke-width:1.5;" width="768.4575" x="20" y="585.875"/><g class="participant-lifeline" data-entity-uid="part1" data-qualified-name="User" id="part1-lifeline"><g><title>User</title><rect fill="#000000" fill-opacity="0.00000" height="760.4517" width="8" x="67.9485" y="126.9043"/><line style="stroke:#181818;stroke-width:0.5;stroke-dasharray:5,5;" x1="71" x2="71" y1="126.9043" y2="887.356"/></g></g><g class="participant-lifeline" data-entity-uid="part2" data-qualified-name="FE" id="part2-lifeline"><g><title>Frontend</title><rect fill="#000000" fill-opacity="0.00000" height="760.4517" width="8" x="299.6541" y="126.9043"/><line style="stroke:#181818;stroke-width:0.5;stroke-dasharray:5,5;" x1="302.9263" x2="302.9263" y1="126.9043" y2="887.356"/></g></g><g class="participant-lifeline" data-entity-uid="part3" data-qualified-name="A04" id="part3-lifeline"><g><title>Backend</title><rect fill="#000000" fill-opacity="0.00000" height="760.4517" width="8" x="558.1667" y="126.9043"/><line style="stroke:#181818;stroke-width:0.5;stroke-dasharray:5,5;" x1="561.2893" x2="561.2893" y1="126.9043" y2="887.356"/></g></g><g class="participant-lifeline" data-entity-uid="part4" data-qualified-name="DB" id="part4-lifeline"><g><title>Database</title><rect fill="#000000" fill-opacity="0.00000" height="760.4517" width="8" x="749.009" y="126.9043"/><line style="stroke:#181818;stroke-width:0.5;stroke-dasharray:5,5;" x1="752.5605" x2="752.5605" y1="126.9043" y2="887.356"/></g></g><g class="participant participant-head" data-entity-uid="part1" data-qualified-name="User" id="part1-head"><text fill="#000000" font-family="Georgia" font-size="11" lengthAdjust="spacing" textLength="22.897" x="57.5" y="111.9941">User</text><text fill="#000000" font-family="Georgia" font-size="11" lengthAdjust="spacing" textLength="77.897" x="30" y="124.4927">(A01/A02/A03)</text><ellipse cx="71.9485" cy="50.4072" fill="#E2E2F0" rx="8" ry="8" style="stroke:#181818;stroke-width:0.5;"/><path d="M71.9485,58.4072 L71.9485,85.4072 M58.9485,66.4072 L84.9485,66.4072 M71.9485,85.4072 L58.9485,100.4072 M71.9485,85.4072 L84.9485,100.4072" fill="none" style="stroke:#181818;stroke-width:0.5;"/></g><g class="participant participant-tail" data-entity-uid="part1" data-qualified-name="User" id="part1-tail"><text fill="#000000" font-family="Georgia" font-size="11" lengthAdjust="spacing" textLength="22.897" x="57.5" y="896.4429">User</text><text fill="#000000" font-family="Georgia" font-size="11" lengthAdjust="spacing" textLength="77.897" x="30" y="908.9414">(A01/A02/A03)</text><ellipse cx="71.9485" cy="919.853" fill="#E2E2F0" rx="8" ry="8" style="stroke:#181818;stroke-width:0.5;"/><path d="M71.9485,927.853 L71.9485,954.853 M58.9485,935.853 L84.9485,935.853 M71.9485,954.853 L58.9485,969.853 M71.9485,954.853 L84.9485,969.853" fill="none" style="stroke:#181818;stroke-width:0.5;"/></g><g class="participant participant-head" data-entity-uid="part2" data-qualified-name="FE" id="part2-head"><rect fill="#E2E2F0" height="38.9971" rx="5" ry="5" style="stroke:#181818;stroke-width:0.5;" width="59.4556" x="273.9263" y="86.9072"/><text fill="#000000" font-family="Georgia" font-size="11" lengthAdjust="spacing" textLength="45.4556" x="280.9263" y="103.9941">Frontend</text><text fill="#000000" font-family="Georgia" font-size="11" lengthAdjust="spacing" textLength="35.6211" x="285.8435" y="116.4927">(React)</text></g><g class="participant participant-tail" data-entity-uid="part2" data-qualified-name="FE" id="part2-tail"><rect fill="#E2E2F0" height="38.9971" rx="5" ry="5" style="stroke:#181818;stroke-width:0.5;" width="59.4556" x="273.9263" y="886.356"/><text fill="#000000" font-family="Georgia" font-size="11" lengthAdjust="spacing" textLength="45.4556" x="280.9263" y="903.4429">Frontend</text><text fill="#000000" font-family="Georgia" font-size="11" lengthAdjust="spacing" textLength="35.6211" x="285.8435" y="915.9414">(React)</text></g><g class="participant participant-head" data-entity-uid="part3" data-qualified-name="A04" id="part3-head"><rect fill="#E2E2F0" height="38.9971" rx="5" ry="5" style="stroke:#181818;stroke-width:0.5;" width="55.7549" x="534.2893" y="86.9072"/><text fill="#000000" font-family="Georgia" font-size="11" lengthAdjust="spacing" textLength="41.7549" x="541.2893" y="103.9941">Backend</text><text fill="#000000" font-family="Georgia" font-size="11" lengthAdjust="spacing" textLength="28.5957" x="547.8689" y="116.4927">(A04)</text></g><g class="participant participant-tail" data-entity-uid="part3" data-qualified-name="A04" id="part3-tail"><rect fill="#E2E2F0" height="38.9971" rx="5" ry="5" style="stroke:#181818;stroke-width:0.5;" width="55.7549" x="534.2893" y="886.356"/><text fill="#000000" font-family="Georgia" font-size="11" lengthAdjust="spacing" textLength="41.7549" x="541.2893" y="903.4429">Backend</text><text fill="#000000" font-family="Georgia" font-size="11" lengthAdjust="spacing" textLength="28.5957" x="547.8689" y="915.9414">(A04)</text></g><g class="participant participant-head" data-entity-uid="part4" data-qualified-name="DB" id="part4-head"><text fill="#000000" font-family="Georgia" font-size="11" lengthAdjust="spacing" textLength="44.897" x="727.5605" y="124.4927">Database</text><path d="M735.009,78.4058 C735.009,68.4058 753.009,68.4058 753.009,68.4058 C753.009,68.4058 771.009,68.4058 771.009,78.4058 L771.009,104.4058 C771.009,114.4058 753.009,114.4058 753.009,114.4058 C753.009,114.4058 735.009,114.4058 735.009,104.4058 L735.009,78.4058" fill="#E2E2F0" style="stroke:#181818;stroke-width:0.5;"/><path d="M735.009,78.4058 C735.009,88.4058 753.009,88.4058 753.009,88.4058 C753.009,88.4058 771.009,88.4058 771.009,78.4058" fill="none" style="stroke:#181818;stroke-width:0.5;"/></g><g class="participant participant-tail" data-entity-uid="part4" data-qualified-name="DB" id="part4-tail"><text fill="#000000" font-family="Georgia" font-size="11" lengthAdjust="spacing" textLength="44.897" x="727.5605" y="896.4429">Database</text><path d="M735.009,908.8545 C735.009,898.8545 753.009,898.8545 753.009,898.8545 C753.009,898.8545 771.009,898.8545 771.009,908.8545 L771.009,934.8545 C771.009,944.8545 753.009,944.8545 753.009,944.8545 C753.009,944.8545 735.009,944.8545 735.009,934.8545 L735.009,908.8545" fill="#E2E2F0" style="stroke:#181818;stroke-width:0.5;"/><path d="M735.009,908.8545 C735.009,918.8545 753.009,918.8545 753.009,918.8545 C753.009,918.8545 771.009,918.8545 771.009,908.8545" fill="none" style="stroke:#181818;stroke-width:0.5;"/></g><g class="message" data-entity-1="part1" data-entity-2="part2" id="msg1"><polygon fill="#181818" points="291.6541,151.4028,301.6541,155.4028,291.6541,159.4028,295.6541,155.4028" style="stroke:#181818;stroke-width:1;"/><line style="stroke:#181818;stroke-width:2;" x1="71.9485" x2="297.6541" y1="155.4028" y2="155.4028"/><text fill="#000000" font-family="Georgia" font-size="11" lengthAdjust="spacing" textLength="169.5225" x="78.9485" y="150.9912">Click "Delete" on a business profile</text></g><g class="message" data-entity-1="part2" data-entity-2="part1" id="msg2"><polygon fill="#181818" points="82.9485,202.8984,72.9485,206.8984,82.9485,210.8984,78.9485,206.8984" style="stroke:#181818;stroke-width:1;"/><line style="stroke:#181818;stroke-width:2;stroke-dasharray:2,2;" x1="76.9485" x2="302.6541" y1="206.8984" y2="206.8984"/><text fill="#000000" font-family="Georgia" font-size="11" lengthAdjust="spacing" textLength="128.5303" x="88.9485" y="177.4897">Show confirmation dialog:</text><text fill="#000000" font-family="Georgia" font-size="11" lengthAdjust="spacing" textLength="167.2021" x="88.9485" y="189.9883">"This will also delete all associated</text><text fill="#000000" font-family="Georgia" font-size="11" lengthAdjust="spacing" textLength="207.7056" x="88.9485" y="202.4868">candidate sites. This action is irreversible."</text></g><path d="M15,221.8984 L69.7114,221.8984 L69.7114,226.397 L59.7114,236.397 L10,236.397 L10,226.8984 A5,5 0 0 1 15,221.8984" fill="#EEEEEE" style="stroke:#000000;stroke-width:1.5;"/><rect fill="none" height="648.4575" rx="5" ry="5" style="stroke:#000000;stroke-width:1.5;" width="788.4575" x="10" y="221.8984"/><text fill="#000000" font-family="Georgia" font-size="11" font-weight="bold" lengthAdjust="spacing" textLength="14.7114" x="25" y="232.9854">alt</text><text fill="#000000" font-family="Georgia" font-size="11" font-weight="bold" lengthAdjust="spacing" textLength="158.4688" x="84.7114" y="233.9854">[User cancels [UC-09.AC.1]]</text><g class="message" data-entity-1="part1" data-entity-2="part2" id="msg3"><polygon fill="#181818" points="291.6541,250.8955,301.6541,254.8955,291.6541,258.8955,295.6541,254.8955" style="stroke:#181818;stroke-width:1;"/><line style="stroke:#181818;stroke-width:2;" x1="71.9485" x2="297.6541" y1="254.8955" y2="254.8955"/><text fill="#000000" font-family="Georgia" font-size="11" lengthAdjust="spacing" textLength="68.5942" x="78.9485" y="250.4839">Click "Cancel"</text></g><g class="message" data-entity-1="part2" data-entity-2="part1" id="msg4"><polygon fill="#181818" points="82.9485,289.8926,72.9485,293.8926,82.9485,297.8926,78.9485,293.8926" style="stroke:#181818;stroke-width:1;"/><line style="stroke:#181818;stroke-width:2;stroke-dasharray:2,2;" x1="76.9485" x2="302.6541" y1="293.8926" y2="293.8926"/><text fill="#000000" font-family="Georgia" font-size="11" lengthAdjust="spacing" textLength="71.0488" x="88.9485" y="276.9824">Dismiss dialog</text><text fill="#000000" font-family="Georgia" font-size="11" lengthAdjust="spacing" textLength="85.6528" x="88.9485" y="289.481">No changes made</text></g><line style="stroke:#000000;stroke-width:1;stroke-dasharray:2,2;" x1="10" x2="798.4575" y1="302.8926" y2="302.8926"/><text fill="#000000" font-family="Georgia" font-size="11" font-weight="bold" lengthAdjust="spacing" textLength="139.9063" x="15" y="312.9795">[User confirms deletion]</text><g class="message" data-entity-1="part1" data-entity-2="part2" id="msg5"><polygon fill="#181818" points="291.6541,330.8896,301.6541,334.8896,291.6541,338.8896,295.6541,334.8896" style="stroke:#181818;stroke-width:1;"/><line style="stroke:#181818;stroke-width:2;" x1="71.9485" x2="297.6541" y1="334.8896" y2="334.8896"/><text fill="#000000" font-family="Georgia" font-size="11" lengthAdjust="spacing" textLength="110.3062" x="78.9485" y="330.478">Click "Confirm Delete"</text></g><g class="message" data-entity-1="part2" data-entity-2="part3" id="msg6"><polygon fill="#181818" points="550.1667,357.3882,560.1667,361.3882,550.1667,365.3882,554.1667,361.3882" style="stroke:#181818;stroke-width:1;"/><line style="stroke:#181818;stroke-width:2;" x1="303.6541" x2="556.1667" y1="361.3882" y2="361.3882"/><text fill="#000000" font-family="Georgia" font-size="11" lengthAdjust="spacing" textLength="171.2144" x="310.6541" y="356.9766">DELETE /api/profiles/{profile_id}</text></g><g class="message" data-entity-1="part3" data-entity-2="part3" id="msg7"><line style="stroke:#181818;stroke-width:2;" x1="562.1667" x2="604.1667" y1="400.3853" y2="400.3853"/><line style="stroke:#181818;stroke-width:2;" x1="604.1667" x2="604.1667" y1="400.3853" y2="413.3853"/><line style="stroke:#181818;stroke-width:2;" x1="563.1667" x2="604.1667" y1="413.3853" y2="413.3853"/><polygon fill="#181818" points="573.1667,409.3853,563.1667,413.3853,573.1667,417.3853,569.1667,413.3853" style="stroke:#181818;stroke-width:1;"/><text fill="#000000" font-family="Georgia" font-size="11" lengthAdjust="spacing" textLength="78.1011" x="569.1667" y="383.4751">Validate session</text><text fill="#000000" font-family="Georgia" font-size="11" lengthAdjust="spacing" textLength="140.0083" x="569.1667" y="395.9736">Verify profile belongs to user</text></g><g class="message" data-entity-1="part3" data-entity-2="part4" id="msg8"><polygon fill="#181818" points="741.009,435.8838,751.009,439.8838,741.009,443.8838,745.009,439.8838" style="stroke:#181818;stroke-width:1;"/><line style="stroke:#181818;stroke-width:2;" x1="562.1667" x2="747.009" y1="439.8838" y2="439.8838"/><text fill="#000000" font-family="Georgia" font-size="11" lengthAdjust="spacing" textLength="116.4023" x="569.1667" y="435.4722">BEGIN TRANSACTION</text></g><g class="message" data-entity-1="part3" data-entity-2="part4" id="msg9"><polygon fill="#181818" points="741.009,474.8809,751.009,478.8809,741.009,482.8809,745.009,478.8809" style="stroke:#181818;stroke-width:1;"/><line style="stroke:#181818;stroke-width:2;" x1="562.1667" x2="747.009" y1="478.8809" y2="478.8809"/><text fill="#000000" font-family="Georgia" font-size="11" lengthAdjust="spacing" textLength="157.7114" x="569.1667" y="461.9707">DELETE FROM candidate_sites</text><text fill="#000000" font-family="Georgia" font-size="11" lengthAdjust="spacing" textLength="110.6821" x="569.1667" y="474.4692">WHERE profile_id = ?</text></g><g class="message" data-entity-1="part4" data-entity-2="part3" id="msg10"><polygon fill="#181818" points="573.1667,501.3794,563.1667,505.3794,573.1667,509.3794,569.1667,505.3794" style="stroke:#181818;stroke-width:1;"/><line style="stroke:#181818;stroke-width:2;stroke-dasharray:2,2;" x1="567.1667" x2="752.009" y1="505.3794" y2="505.3794"/><text fill="#000000" font-family="Georgia" font-size="11" lengthAdjust="spacing" textLength="114.689" x="579.1667" y="500.9678">Associated sites deleted</text></g><g class="message" data-entity-1="part3" data-entity-2="part4" id="msg11"><polygon fill="#181818" points="741.009,540.3765,751.009,544.3765,741.009,548.3765,745.009,544.3765" style="stroke:#181818;stroke-width:1;"/><line style="stroke:#181818;stroke-width:2;" x1="562.1667" x2="747.009" y1="544.3765" y2="544.3765"/><text fill="#000000" font-family="Georgia" font-size="11" lengthAdjust="spacing" textLength="166.8423" x="569.1667" y="527.4663">DELETE FROM business_profiles</text><text fill="#000000" font-family="Georgia" font-size="11" lengthAdjust="spacing" textLength="156.1484" x="569.1667" y="539.9648">WHERE id = ? AND user_id = ?</text></g><g class="message" data-entity-1="part4" data-entity-2="part3" id="msg12"><polygon fill="#181818" points="573.1667,566.875,563.1667,570.875,573.1667,574.875,569.1667,570.875" style="stroke:#181818;stroke-width:1;"/><line style="stroke:#181818;stroke-width:2;stroke-dasharray:2,2;" x1="567.1667" x2="752.009" y1="570.875" y2="570.875"/><text fill="#000000" font-family="Georgia" font-size="11" lengthAdjust="spacing" textLength="104.8169" x="579.1667" y="566.4634">Profile record deleted</text></g><path d="M25,585.875 L79.7114,585.875 L79.7114,590.3735 L69.7114,600.3735 L20,600.3735 L20,590.875 A5,5 0 0 1 25,585.875" fill="#EEEEEE" style="stroke:#000000;stroke-width:1.5;"/><rect fill="none" height="277.481" rx="5" ry="5" style="stroke:#000000;stroke-width:1.5;" width="768.4575" x="20" y="585.875"/><text fill="#000000" font-family="Georgia" font-size="11" font-weight="bold" lengthAdjust="spacing" textLength="14.7114" x="35" y="596.9619">alt</text><text fill="#000000" font-family="Georgia" font-size="11" font-weight="bold" lengthAdjust="spacing" textLength="230.2588" x="94.7114" y="597.9619">[Database deletion failure [UC-09.EX.1]]</text><g class="message" data-entity-1="part3" data-entity-2="part4" id="msg13"><polygon fill="#181818" points="741.009,614.8721,751.009,618.8721,741.009,622.8721,745.009,618.8721" style="stroke:#181818;stroke-width:1;"/><line style="stroke:#181818;stroke-width:2;" x1="562.1667" x2="747.009" y1="618.8721" y2="618.8721"/><text fill="#000000" font-family="Georgia" font-size="11" lengthAdjust="spacing" textLength="58.4536" x="569.1667" y="614.4604">ROLLBACK</text></g><g class="message" data-entity-1="part3" data-entity-2="part3" id="msg14"><line style="stroke:#181818;stroke-width:2;" x1="562.1667" x2="604.1667" y1="645.3706" y2="645.3706"/><line style="stroke:#181818;stroke-width:2;" x1="604.1667" x2="604.1667" y1="645.3706" y2="658.3706"/><line style="stroke:#181818;stroke-width:2;" x1="563.1667" x2="604.1667" y1="658.3706" y2="658.3706"/><polygon fill="#181818" points="573.1667,654.3706,563.1667,658.3706,573.1667,662.3706,569.1667,658.3706" style="stroke:#181818;stroke-width:1;"/><text fill="#000000" font-family="Georgia" font-size="11" lengthAdjust="spacing" textLength="45.5898" x="569.1667" y="640.959">Log error</text></g><g class="message" data-entity-1="part3" data-entity-2="part2" id="msg15"><polygon fill="#181818" points="314.6541,693.3677,304.6541,697.3677,314.6541,701.3677,310.6541,697.3677" style="stroke:#181818;stroke-width:1;"/><line style="stroke:#181818;stroke-width:2;stroke-dasharray:2,2;" x1="308.6541" x2="561.1667" y1="697.3677" y2="697.3677"/><text fill="#000000" font-family="Georgia" font-size="11" lengthAdjust="spacing" textLength="124.7866" x="320.6541" y="680.4575">500 Internal Server Error</text><text fill="#000000" font-family="Georgia" font-size="11" lengthAdjust="spacing" textLength="186.189" x="320.6541" y="692.9561">{error: "Deletion failed. Please retry."}</text></g><g class="message" data-entity-1="part2" data-entity-2="part1" id="msg16"><polygon fill="#181818" points="82.9485,732.3647,72.9485,736.3647,82.9485,740.3647,78.9485,736.3647" style="stroke:#181818;stroke-width:1;"/><line style="stroke:#181818;stroke-width:2;stroke-dasharray:2,2;" x1="76.9485" x2="302.6541" y1="736.3647" y2="736.3647"/><text fill="#000000" font-family="Georgia" font-size="11" lengthAdjust="spacing" textLength="97.6626" x="88.9485" y="719.4546">Show error message</text><text fill="#000000" font-family="Georgia" font-size="11" lengthAdjust="spacing" textLength="104.543" x="88.9485" y="731.9531">Profile remains in list</text></g><line style="stroke:#000000;stroke-width:1;stroke-dasharray:2,2;" x1="20" x2="788.4575" y1="745.3647" y2="745.3647"/><text fill="#000000" font-family="Georgia" font-size="11" font-weight="bold" lengthAdjust="spacing" textLength="118.8999" x="25" y="755.4517">[Deletion successful]</text><g class="message" data-entity-1="part3" data-entity-2="part4" id="msg17"><polygon fill="#181818" points="741.009,773.3618,751.009,777.3618,741.009,781.3618,745.009,777.3618" style="stroke:#181818;stroke-width:1;"/><line style="stroke:#181818;stroke-width:2;" x1="562.1667" x2="747.009" y1="777.3618" y2="777.3618"/><text fill="#000000" font-family="Georgia" font-size="11" lengthAdjust="spacing" textLength="46.7393" x="569.1667" y="772.9502">COMMIT</text></g><g class="message" data-entity-1="part3" data-entity-2="part2" id="msg18"><polygon fill="#181818" points="314.6541,812.3589,304.6541,816.3589,314.6541,820.3589,310.6541,816.3589" style="stroke:#181818;stroke-width:1;"/><line style="stroke:#181818;stroke-width:2;stroke-dasharray:2,2;" x1="308.6541" x2="561.1667" y1="816.3589" y2="816.3589"/><text fill="#000000" font-family="Georgia" font-size="11" lengthAdjust="spacing" textLength="38.124" x="320.6541" y="799.4487">200 OK</text><text fill="#000000" font-family="Georgia" font-size="11" lengthAdjust="spacing" textLength="234.5127" x="320.6541" y="811.9473">{message: "Profile and associated sites deleted"}</text></g><g class="message" data-entity-1="part2" data-entity-2="part1" id="msg19"><polygon fill="#181818" points="82.9485,851.356,72.9485,855.356,82.9485,859.356,78.9485,855.356" style="stroke:#181818;stroke-width:1;"/><line style="stroke:#181818;stroke-width:2;stroke-dasharray:2,2;" x1="76.9485" x2="302.6541" y1="855.356" y2="855.356"/><text fill="#000000" font-family="Georgia" font-size="11" lengthAdjust="spacing" textLength="119.1523" x="88.9485" y="838.4458">Show confirmation toast</text><text fill="#000000" font-family="Georgia" font-size="11" lengthAdjust="spacing" textLength="200.4331" x="88.9485" y="850.9443">+ Refresh and display updated profile list</text></g><?plantuml-src VLHTRzem57tFhxZAqwO92DtsCAHr2X0wD0eLq6xICbKckO1LnsQsiwgh-jztutm07IrI90UVSyyzzoEMMu5mFMW5dtemH84MePyRBj4OkD9gpGLwdhdZSiSqoy3WxnnbWg7MwdwvvScTGvuTGBJAPPeeBL53DpYuI77DSc57Ijefon0kKEaDPwSH2_uNeTlrF9POfS6_DgXZ-IOCkfqmEAFd_LiVc87YVu_ObYTynwG5VwI9ZZ8bz1o9NU96qJ6gpvAx4XG67qe87RoKMRPY1i4VLYTtDUnxNg44hNEA13qO2B9E85Sn7vG41gkwRhkgReHi4S4HUx3Ogdj8b5npdJ7BYP9o9jIc5qkVAcdWdWi1J1X5TN2DOCMxCIhXp2AbcZ2PSieGmN2BfWsEHXQBO7JYMkCVr8Ql1BPzAfsmfJWH4nG6Vhf6jyD1k_lB0_gTyZHmOD_T7piOSfDnybVc7SkfWcJBv0ODP2n5ZoIm4Ynjcj89fVUoMeciPc-lUbwqez2C9j4oWWxRyKvLLzDvh4wtF7to7AK0DvmR9geoKJT8F9OtgFdweMuCh50ekJ5W5UJ5_1o66FOfGZ-w64zXEG-dYt2m7C-c_qEgn4RpsIKqZRbrZOdbzw_HF89zbl0PlhW8H6qrUOPDRyk6LdrFNnUhn-osBaSjLyf0E1qwLo_ALciD6cbBqsFHOcJgoM-Q1sl6HQwndf_eHpq_p_ESpoQJVZZuzloo59we3I1zEFJnTJqH7uC0nhIwMZ812zGqoX0Ly5W-EbglMhWw9KpRS2MmI5MZrGzj_wc9V6BtN0p8g7HiWx7Sbo5ZNDBsI13SM1V1JNAZPV8a8TOw5oTD3sQNb-FbQKzdv6dsZGnKicIXrgMPETZkumbutSZHHyGgPcmity4SrnhDriLDkTa9zW3vBdN1wy7V6vIfLpp_0000?></g></svg>