<?plantuml 1.2026.2?><svg xmlns="http://www.w3.org/2000/svg" xmlns:xlink="http://www.w3.org/1999/xlink" contentStyleType="text/css" data-diagram-type="SEQUENCE" height="1161px" preserveAspectRatio="none" style="width:897px;height:1161px;background:#FFFFFF;" version="1.1" viewBox="0 0 897 1161" width="897px" zoomAndPan="magnify"><title>UC-03: Log In</title><defs/><g><text fill="#000000" font-family="Georgia" font-size="14" font-weight="bold" lengthAdjust="spacing" textLength="100.2695" x="399.6899" y="27.8379">UC-03: Log In</text><rect fill="none" height="739.9561" rx="5" ry="5" style="stroke:#000000;stroke-width:1.5;" width="880.6494" x="10" y="315.394"/><g class="participant-lifeline" data-entity-uid="part1" data-qualified-name="User" id="part1-lifeline"><g><title>User</title><rect fill="#000000" fill-opacity="0.00000" height="945.4458" width="8" x="57.9485" y="126.9043"/><line style="stroke:#181818;stroke-width:0.5;stroke-dasharray:5,5;" x1="61" x2="61" y1="126.9043" y2="1072.3501"/></g></g><g class="participant-lifeline" data-entity-uid="part2" data-qualified-name="FE" id="part2-lifeline"><g><title>Frontend</title><rect fill="#000000" fill-opacity="0.00000" height="945.4458" width="8" x="247.6414" y="126.9043"/><line style="stroke:#181818;stroke-width:0.5;stroke-dasharray:5,5;" x1="250.9136" x2="250.9136" y1="126.9043" y2="1072.3501"/></g></g><g class="participant-lifeline" data-entity-uid="part3" data-qualified-name="A04" id="part3-lifeline"><g><title>Backend</title><rect fill="#000000" fill-opacity="0.00000" height="945.4458" width="8" x="507.1584" y="126.9043"/><line style="stroke:#181818;stroke-width:0.5;stroke-dasharray:5,5;" x1="510.281" x2="510.281" y1="126.9043" y2="1072.3501"/></g></g><g class="participant-lifeline" data-entity-uid="part4" data-qualified-name="DB" id="part4-lifeline"><g><title>Database</title><rect fill="#000000" fill-opacity="0.00000" height="945.4458" width="8" x="770.1785" y="126.9043"/><line style="stroke:#181818;stroke-width:0.5;stroke-dasharray:5,5;" x1="773.73" x2="773.73" y1="126.9043" y2="1072.3501"/></g></g><g class="participant-lifeline" data-entity-uid="part5" data-qualified-name="SS" id="part5-lifeline"><g><title>Session Store</title><rect fill="#000000" fill-opacity="0.00000" height="945.4458" width="8" x="841.1382" y="126.9043"/><line style="stroke:#181818;stroke-width:0.5;stroke-dasharray:5,5;" x1="844.627" x2="844.627" y1="126.9043" y2="1072.3501"/></g></g><g class="participant participant-head" data-entity-uid="part1" data-qualified-name="User" id="part1-head"><text fill="#000000" font-family="Georgia" font-size="11" lengthAdjust="spacing" textLength="22.897" x="47.5" y="111.9941">User</text><text fill="#000000" font-family="Georgia" font-size="11" lengthAdjust="spacing" textLength="77.897" x="20" y="124.4927">(A01/A02/A03)</text><ellipse cx="61.9485" cy="50.4072" fill="#E2E2F0" rx="8" ry="8" style="stroke:#181818;stroke-width:0.5;"/><path d="M61.9485,58.4072 L61.9485,85.4072 M48.9485,66.4072 L74.9485,66.4072 M61.9485,85.4072 L48.9485,100.4072 M61.9485,85.4072 L74.9485,100.4072" fill="none" style="stroke:#181818;stroke-width:0.5;"/></g><g class="participant participant-tail" data-entity-uid="part1" data-qualified-name="User" id="part1-tail"><text fill="#000000" font-family="Georgia" font-size="11" lengthAdjust="spacing" textLength="22.897" x="47.5" y="1081.437">User</text><text fill="#000000" font-family="Georgia" font-size="11" lengthAdjust="spacing" textLength="77.897" x="20" y="1093.9355">(A01/A02/A03)</text><ellipse cx="61.9485" cy="1104.8472" fill="#E2E2F0" rx="8" ry="8" style="stroke:#181818;stroke-width:0.5;"/><path d="M61.9485,1112.8472 L61.9485,1139.8472 M48.9485,1120.8472 L74.9485,1120.8472 M61.9485,1139.8472 L48.9485,1154.8472 M61.9485,1139.8472 L74.9485,1154.8472" fill="none" style="stroke:#181818;stroke-width:0.5;"/></g><g class="participant participant-head" data-entity-uid="part2" data-qualified-name="FE" id="part2-head"><rect fill="#E2E2F0" height="38.9971" rx="5" ry="5" style="stroke:#181818;stroke-width:0.5;" width="59.4556" x="221.9136" y="86.9072"/><text fill="#000000" font-family="Georgia" font-size="11" lengthAdjust="spacing" textLength="45.4556" x="228.9136" y="103.9941">Frontend</text><text fill="#000000" font-family="Georgia" font-size="11" lengthAdjust="spacing" textLength="35.6211" x="233.8308" y="116.4927">(React)</text></g><g class="participant participant-tail" data-entity-uid="part2" data-qualified-name="FE" id="part2-tail"><rect fill="#E2E2F0" height="38.9971" rx="5" ry="5" style="stroke:#181818;stroke-width:0.5;" width="59.4556" x="221.9136" y="1071.3501"/><text fill="#000000" font-family="Georgia" font-size="11" lengthAdjust="spacing" textLength="45.4556" x="228.9136" y="1088.437">Frontend</text><text fill="#000000" font-family="Georgia" font-size="11" lengthAdjust="spacing" textLength="35.6211" x="233.8308" y="1100.9355">(React)</text></g><g class="participant participant-head" data-entity-uid="part3" data-qualified-name="A04" id="part3-head"><rect fill="#E2E2F0" height="38.9971" rx="5" ry="5" style="stroke:#181818;stroke-width:0.5;" width="55.7549" x="483.281" y="86.9072"/><text fill="#000000" font-family="Georgia" font-size="11" lengthAdjust="spacing" textLength="41.7549" x="490.281" y="103.9941">Backend</text><text fill="#000000" font-family="Georgia" font-size="11" lengthAdjust="spacing" textLength="28.5957" x="496.8606" y="116.4927">(A04)</text></g><g class="participant participant-tail" data-entity-uid="part3" data-qualified-name="A04" id="part3-tail"><rect fill="#E2E2F0" height="38.9971" rx="5" ry="5" style="stroke:#181818;stroke-width:0.5;" width="55.7549" x="483.281" y="1071.3501"/><text fill="#000000" font-family="Georgia" font-size="11" lengthAdjust="spacing" textLength="41.7549" x="490.281" y="1088.437">Backend</text><text fill="#000000" font-family="Georgia" font-size="11" lengthAdjust="spacing" textLength="28.5957" x="496.8606" y="1100.9355">(A04)</text></g><g class="participant participant-head" data-entity-uid="part4" data-qualified-name="DB" id="part4-head"><text fill="#000000" font-family="Georgia" font-size="11" lengthAdjust="spacing" textLength="44.897" x="748.73" y="124.4927">Database</text><path d="M756.1785,78.4058 C756.1785,68.4058 774.1785,68.4058 774.1785,68.4058 C774.1785,68.4058 792.1785,68.4058 792.1785,78.4058 L792.1785,104.4058 C792.1785,114.4058 774.1785,114.4058 774.1785,114.4058 C774.1785,114.4058 756.1785,114.4058 756.1785,104.4058 L756.1785,78.4058" fill="#E2E2F0" style="stroke:#181818;stroke-width:0.5;"/><path d="M756.1785,78.4058 C756.1785,88.4058 774.1785,88.4058 774.1785,88.4058 C774.1785,88.4058 792.1785,88.4058 792.1785,78.4058" fill="none" style="stroke:#181818;stroke-width:0.5;"/></g><g class="participant participant-tail" data-entity-uid="part4" data-qualified-name="DB" id="part4-tail"><text fill="#000000" font-family="Georgia" font-size="11" lengthAdjust="spacing" textLength="44.897" x="748.73" y="1081.437">Database</text><path d="M756.1785,1093.8486 C756.1785,1083.8486 774.1785,1083.8486 774.1785,1083.8486 C774.1785,1083.8486 792.1785,1083.8486 792.1785,1093.8486 L792.1785,1119.8486 C792.1785,1129.8486 774.1785,1129.8486 774.1785,1129.8486 C774.1785,1129.8486 756.1785,1129.8486 756.1785,1119.8486 L756.1785,1093.8486" fill="#E2E2F0" style="stroke:#181818;stroke-width:0.5;"/><path d="M756.1785,1093.8486 C756.1785,1103.8486 774.1785,1103.8486 774.1785,1103.8486 C774.1785,1103.8486 792.1785,1103.8486 792.1785,1093.8486" fill="none" style="stroke:#181818;stroke-width:0.5;"/></g><g class="participant participant-head" data-entity-uid="part5" data-qualified-name="SS" id="part5-head"><text fill="#000000" font-family="Georgia" font-size="11" lengthAdjust="spacing" textLength="65.0225" x="809.627" y="111.9941">Session Store</text><text fill="#000000" font-family="Georgia" font-size="11" lengthAdjust="spacing" textLength="56.1655" x="814.0554" y="124.4927">(Redis/DB)</text><path d="M827.1382,65.9072 C827.1382,55.9072 845.1382,55.9072 845.1382,55.9072 C845.1382,55.9072 863.1382,55.9072 863.1382,65.9072 L863.1382,91.9072 C863.1382,101.9072 845.1382,101.9072 845.1382,101.9072 C845.1382,101.9072 827.1382,101.9072 827.1382,91.9072 L827.1382,65.9072" fill="#E2E2F0" style="stroke:#181818;stroke-width:0.5;"/><path d="M827.1382,65.9072 C827.1382,75.9072 845.1382,75.9072 845.1382,75.9072 C845.1382,75.9072 863.1382,75.9072 863.1382,65.9072" fill="none" style="stroke:#181818;stroke-width:0.5;"/></g><g class="participant participant-tail" data-entity-uid="part5" data-qualified-name="SS" id="part5-tail"><text fill="#000000" font-family="Georgia" font-size="11" lengthAdjust="spacing" textLength="65.0225" x="809.627" y="1081.437">Session Store</text><text fill="#000000" font-family="Georgia" font-size="11" lengthAdjust="spacing" textLength="56.1655" x="814.0554" y="1093.9355">(Redis/DB)</text><path d="M827.1382,1106.3472 C827.1382,1096.3472 845.1382,1096.3472 845.1382,1096.3472 C845.1382,1096.3472 863.1382,1096.3472 863.1382,1106.3472 L863.1382,1132.3472 C863.1382,1142.3472 845.1382,1142.3472 845.1382,1142.3472 C845.1382,1142.3472 827.1382,1142.3472 827.1382,1132.3472 L827.1382,1106.3472" fill="#E2E2F0" style="stroke:#181818;stroke-width:0.5;"/><path d="M827.1382,1106.3472 C827.1382,1116.3472 845.1382,1116.3472 845.1382,1116.3472 C845.1382,1116.3472 863.1382,1116.3472 863.1382,1106.3472" fill="none" style="stroke:#181818;stroke-width:0.5;"/></g><g class="message" data-entity-1="part1" data-entity-2="part2" id="msg1"><polygon fill="#181818" points="239.6414,151.4028,249.6414,155.4028,239.6414,159.4028,243.6414,155.4028" style="stroke:#181818;stroke-width:1;"/><line style="stroke:#181818;stroke-width:2;" x1="61.9485" x2="245.6414" y1="155.4028" y2="155.4028"/><text fill="#000000" font-family="Georgia" font-size="11" lengthAdjust="spacing" textLength="78.7402" x="68.9485" y="150.9912">Open login page</text></g><g class="message" data-entity-1="part2" data-entity-2="part1" id="msg2"><polygon fill="#181818" points="72.9485,177.9014,62.9485,181.9014,72.9485,185.9014,68.9485,181.9014" style="stroke:#181818;stroke-width:1;"/><line style="stroke:#181818;stroke-width:2;stroke-dasharray:2,2;" x1="66.9485" x2="250.6414" y1="181.9014" y2="181.9014"/><text fill="#000000" font-family="Georgia" font-size="11" lengthAdjust="spacing" textLength="90.0142" x="78.9485" y="177.4897">Display login form</text></g><g class="message" data-entity-1="part1" data-entity-2="part2" id="msg3"><polygon fill="#181818" points="239.6414,204.3999,249.6414,208.3999,239.6414,212.3999,243.6414,208.3999" style="stroke:#181818;stroke-width:1;"/><line style="stroke:#181818;stroke-width:2;" x1="61.9485" x2="245.6414" y1="208.3999" y2="208.3999"/><text fill="#000000" font-family="Georgia" font-size="11" lengthAdjust="spacing" textLength="126.7417" x="68.9485" y="203.9883">Enter email and password</text></g><g class="message" data-entity-1="part2" data-entity-2="part3" id="msg4"><polygon fill="#181818" points="499.1584,243.397,509.1584,247.397,499.1584,251.397,503.1584,247.397" style="stroke:#181818;stroke-width:1;"/><line style="stroke:#181818;stroke-width:2;" x1="251.6414" x2="505.1584" y1="247.397" y2="247.397"/><text fill="#000000" font-family="Georgia" font-size="11" lengthAdjust="spacing" textLength="107.5132" x="258.6414" y="230.4868">POST /api/auth/login</text><text fill="#000000" font-family="Georgia" font-size="11" lengthAdjust="spacing" textLength="88.1987" x="258.6414" y="242.9854">{email, password}</text></g><g class="message" data-entity-1="part3" data-entity-2="part4" id="msg5"><polygon fill="#181818" points="762.1785,269.8955,772.1785,273.8955,762.1785,277.8955,766.1785,273.8955" style="stroke:#181818;stroke-width:1;"/><line style="stroke:#181818;stroke-width:2;" x1="511.1584" x2="768.1785" y1="273.8955" y2="273.8955"/><text fill="#000000" font-family="Georgia" font-size="11" lengthAdjust="spacing" textLength="204.2144" x="518.1584" y="269.4839">SELECT * FROM users WHERE email = ?</text></g><g class="message" data-entity-1="part4" data-entity-2="part3" id="msg6"><polygon fill="#181818" points="522.1584,296.394,512.1584,300.394,522.1584,304.394,518.1584,300.394" style="stroke:#181818;stroke-width:1;"/><line style="stroke:#181818;stroke-width:2;stroke-dasharray:2,2;" x1="516.1584" x2="773.1785" y1="300.394" y2="300.394"/><text fill="#000000" font-family="Georgia" font-size="11" lengthAdjust="spacing" textLength="100.2354" x="528.1584" y="295.9824">User record (or null)</text></g><path d="M15,315.394 L69.7114,315.394 L69.7114,319.8926 L59.7114,329.8926 L10,329.8926 L10,320.394 A5,5 0 0 1 15,315.394" fill="#EEEEEE" style="stroke:#000000;stroke-width:1.5;"/><rect fill="none" height="739.9561" rx="5" ry="5" style="stroke:#000000;stroke-width:1.5;" width="880.6494" x="10" y="315.394"/><text fill="#000000" font-family="Georgia" font-size="11" font-weight="bold" lengthAdjust="spacing" textLength="14.7114" x="25" y="326.481">alt</text><text fill="#000000" font-family="Georgia" font-size="11" font-weight="bold" lengthAdjust="spacing" textLength="283.8623" x="84.7114" y="327.481">[User not found or wrong password [UC-03.AC.1]]</text><g class="message" data-entity-1="part3" data-entity-2="part3" id="msg7"><line style="stroke:#181818;stroke-width:2;" x1="511.1584" x2="553.1584" y1="360.8896" y2="360.8896"/><line style="stroke:#181818;stroke-width:2;" x1="553.1584" x2="553.1584" y1="360.8896" y2="373.8896"/><line style="stroke:#181818;stroke-width:2;" x1="512.1584" x2="553.1584" y1="373.8896" y2="373.8896"/><polygon fill="#181818" points="522.1584,369.8896,512.1584,373.8896,522.1584,377.8896,518.1584,373.8896" style="stroke:#181818;stroke-width:1;"/><text fill="#000000" font-family="Georgia" font-size="11" lengthAdjust="spacing" textLength="159.5537" x="518.1584" y="343.9795">bcrypt.compare(password, hash)</text><text fill="#000000" font-family="Georgia" font-size="11" lengthAdjust="spacing" textLength="152.9956" x="518.1584" y="356.478">returns false OR user not found</text></g><g class="message" data-entity-1="part3" data-entity-2="part2" id="msg8"><polygon fill="#181818" points="262.6414,408.8867,252.6414,412.8867,262.6414,416.8867,258.6414,412.8867" style="stroke:#181818;stroke-width:1;"/><line style="stroke:#181818;stroke-width:2;stroke-dasharray:2,2;" x1="256.6414" x2="510.1584" y1="412.8867" y2="412.8867"/><text fill="#000000" font-family="Georgia" font-size="11" lengthAdjust="spacing" textLength="87.4092" x="268.6414" y="395.9766">401 Unauthorized</text><text fill="#000000" font-family="Georgia" font-size="11" lengthAdjust="spacing" textLength="175.3662" x="268.6414" y="408.4751">{error: "Invalid email or password"}</text></g><g class="message" data-entity-1="part2" data-entity-2="part1" id="msg9"><polygon fill="#181818" points="72.9485,435.3853,62.9485,439.3853,72.9485,443.3853,68.9485,439.3853" style="stroke:#181818;stroke-width:1;"/><line style="stroke:#181818;stroke-width:2;stroke-dasharray:2,2;" x1="66.9485" x2="250.6414" y1="439.3853" y2="439.3853"/><text fill="#000000" font-family="Georgia" font-size="11" lengthAdjust="spacing" textLength="165.6929" x="78.9485" y="434.9736">Show generic authentication error</text></g><line style="stroke:#000000;stroke-width:1;stroke-dasharray:2,2;" x1="10" x2="890.6494" y1="448.3853" y2="448.3853"/><text fill="#000000" font-family="Georgia" font-size="11" font-weight="bold" lengthAdjust="spacing" textLength="223.0938" x="15" y="458.4722">[Account not yet verified [UC-03.AC.2]]</text><g class="message" data-entity-1="part3" data-entity-2="part3" id="msg10"><line style="stroke:#181818;stroke-width:2;" x1="511.1584" x2="553.1584" y1="480.3823" y2="480.3823"/><line style="stroke:#181818;stroke-width:2;" x1="553.1584" x2="553.1584" y1="480.3823" y2="493.3823"/><line style="stroke:#181818;stroke-width:2;" x1="512.1584" x2="553.1584" y1="493.3823" y2="493.3823"/><polygon fill="#181818" points="522.1584,489.3823,512.1584,493.3823,522.1584,497.3823,518.1584,493.3823" style="stroke:#181818;stroke-width:1;"/><text fill="#000000" font-family="Georgia" font-size="11" lengthAdjust="spacing" textLength="153.4146" x="518.1584" y="475.9707">Check user.status == "pending"</text></g><g class="message" data-entity-1="part3" data-entity-2="part2" id="msg11"><polygon fill="#181818" points="262.6414,528.3794,252.6414,532.3794,262.6414,536.3794,258.6414,532.3794" style="stroke:#181818;stroke-width:1;"/><line style="stroke:#181818;stroke-width:2;stroke-dasharray:2,2;" x1="256.6414" x2="510.1584" y1="532.3794" y2="532.3794"/><text fill="#000000" font-family="Georgia" font-size="11" lengthAdjust="spacing" textLength="72.5474" x="268.6414" y="515.4692">403 Forbidden</text><text fill="#000000" font-family="Georgia" font-size="11" lengthAdjust="spacing" textLength="187.231" x="268.6414" y="527.9678">{error: "Please verify your email first"}</text></g><g class="message" data-entity-1="part2" data-entity-2="part1" id="msg12"><polygon fill="#181818" points="72.9485,567.3765,62.9485,571.3765,72.9485,575.3765,68.9485,571.3765" style="stroke:#181818;stroke-width:1;"/><line style="stroke:#181818;stroke-width:2;stroke-dasharray:2,2;" x1="66.9485" x2="250.6414" y1="571.3765" y2="571.3765"/><text fill="#000000" font-family="Georgia" font-size="11" lengthAdjust="spacing" textLength="109.0225" x="78.9485" y="554.4663">Prompt to verify email</text><text fill="#000000" font-family="Georgia" font-size="11" lengthAdjust="spacing" textLength="103.748" x="78.9485" y="566.9648">or resend verification</text></g><line style="stroke:#000000;stroke-width:1;stroke-dasharray:2,2;" x1="10" x2="890.6494" y1="580.3765" y2="580.3765"/><text fill="#000000" font-family="Georgia" font-size="11" font-weight="bold" lengthAdjust="spacing" textLength="231.231" x="15" y="590.4634">[Session store unavailable [UC-03.EX.1]]</text><g class="message" data-entity-1="part3" data-entity-2="part5" id="msg13"><polygon fill="#181818" points="833.1382,608.3735,843.1382,612.3735,833.1382,616.3735,837.1382,612.3735" style="stroke:#181818;stroke-width:1;"/><line style="stroke:#181818;stroke-width:2;" x1="511.1584" x2="839.1382" y1="612.3735" y2="612.3735"/><text fill="#000000" font-family="Georgia" font-size="11" lengthAdjust="spacing" textLength="93.6934" x="518.1584" y="607.9619">Store session token</text></g><g class="message" data-entity-1="part5" data-entity-2="part3" id="msg14"><polygon fill="#181818" points="522.1584,634.8721,512.1584,638.8721,522.1584,642.8721,518.1584,638.8721" style="stroke:#181818;stroke-width:1;"/><line style="stroke:#181818;stroke-width:2;stroke-dasharray:2,2;" x1="516.1584" x2="844.1382" y1="638.8721" y2="638.8721"/><text fill="#000000" font-family="Georgia" font-size="11" lengthAdjust="spacing" textLength="78.187" x="528.1584" y="634.4604">Error / Timeout</text></g><g class="message" data-entity-1="part3" data-entity-2="part3" id="msg15"><line style="stroke:#181818;stroke-width:2;" x1="511.1584" x2="553.1584" y1="665.3706" y2="665.3706"/><line style="stroke:#181818;stroke-width:2;" x1="553.1584" x2="553.1584" y1="665.3706" y2="678.3706"/><line style="stroke:#181818;stroke-width:2;" x1="512.1584" x2="553.1584" y1="678.3706" y2="678.3706"/><polygon fill="#181818" points="522.1584,674.3706,512.1584,678.3706,522.1584,682.3706,518.1584,678.3706" style="stroke:#181818;stroke-width:1;"/><text fill="#000000" font-family="Georgia" font-size="11" lengthAdjust="spacing" textLength="45.5898" x="518.1584" y="660.959">Log error</text></g><g class="message" data-entity-1="part3" data-entity-2="part2" id="msg16"><polygon fill="#181818" points="262.6414,713.3677,252.6414,717.3677,262.6414,721.3677,258.6414,717.3677" style="stroke:#181818;stroke-width:1;"/><line style="stroke:#181818;stroke-width:2;stroke-dasharray:2,2;" x1="256.6414" x2="510.1584" y1="717.3677" y2="717.3677"/><text fill="#000000" font-family="Georgia" font-size="11" lengthAdjust="spacing" textLength="116.8374" x="268.6414" y="700.4575">503 Service Unavailable</text><text fill="#000000" font-family="Georgia" font-size="11" lengthAdjust="spacing" textLength="202.9468" x="268.6414" y="712.9561">{error: "Service temporarily unavailable"}</text></g><g class="message" data-entity-1="part2" data-entity-2="part1" id="msg17"><polygon fill="#181818" points="72.9485,739.8662,62.9485,743.8662,72.9485,747.8662,68.9485,743.8662" style="stroke:#181818;stroke-width:1;"/><line style="stroke:#181818;stroke-width:2;stroke-dasharray:2,2;" x1="66.9485" x2="250.6414" y1="743.8662" y2="743.8662"/><text fill="#000000" font-family="Georgia" font-size="11" lengthAdjust="spacing" textLength="165.0376" x="78.9485" y="739.4546">Show service unavailable message</text></g><line style="stroke:#000000;stroke-width:1;stroke-dasharray:2,2;" x1="10" x2="890.6494" y1="752.8662" y2="752.8662"/><text fill="#000000" font-family="Georgia" font-size="11" font-weight="bold" lengthAdjust="spacing" textLength="192.8115" x="15" y="762.9531">[Valid credentials, account active]</text><g class="message" data-entity-1="part3" data-entity-2="part3" id="msg18"><line style="stroke:#181818;stroke-width:2;" x1="511.1584" x2="553.1584" y1="797.3618" y2="797.3618"/><line style="stroke:#181818;stroke-width:2;" x1="553.1584" x2="553.1584" y1="797.3618" y2="810.3618"/><line style="stroke:#181818;stroke-width:2;" x1="512.1584" x2="553.1584" y1="810.3618" y2="810.3618"/><polygon fill="#181818" points="522.1584,806.3618,512.1584,810.3618,522.1584,814.3618,518.1584,810.3618" style="stroke:#181818;stroke-width:1;"/><text fill="#000000" font-family="Georgia" font-size="11" lengthAdjust="spacing" textLength="197.248" x="518.1584" y="780.4517">bcrypt.compare(password, stored_hash)</text><text fill="#000000" font-family="Georgia" font-size="11" lengthAdjust="spacing" textLength="58.3086" x="518.1584" y="792.9502">returns true</text></g><g class="message" data-entity-1="part3" data-entity-2="part3" id="msg19"><line style="stroke:#181818;stroke-width:2;" x1="511.1584" x2="553.1584" y1="836.8604" y2="836.8604"/><line style="stroke:#181818;stroke-width:2;" x1="553.1584" x2="553.1584" y1="836.8604" y2="849.8604"/><line style="stroke:#181818;stroke-width:2;" x1="512.1584" x2="553.1584" y1="849.8604" y2="849.8604"/><polygon fill="#181818" points="522.1584,845.8604,512.1584,849.8604,522.1584,853.8604,518.1584,849.8604" style="stroke:#181818;stroke-width:1;"/><text fill="#000000" font-family="Georgia" font-size="11" lengthAdjust="spacing" textLength="142.0117" x="518.1584" y="832.4487">Check user.status == "active"</text></g><g class="message" data-entity-1="part3" data-entity-2="part3" id="msg20"><line style="stroke:#181818;stroke-width:2;" x1="511.1584" x2="553.1584" y1="876.3589" y2="876.3589"/><line style="stroke:#181818;stroke-width:2;" x1="553.1584" x2="553.1584" y1="876.3589" y2="889.3589"/><line style="stroke:#181818;stroke-width:2;" x1="512.1584" x2="553.1584" y1="889.3589" y2="889.3589"/><polygon fill="#181818" points="522.1584,885.3589,512.1584,889.3589,522.1584,893.3589,518.1584,889.3589" style="stroke:#181818;stroke-width:1;"/><text fill="#000000" font-family="Georgia" font-size="11" lengthAdjust="spacing" textLength="249.02" x="518.1584" y="871.9473">Generate session token (cryptographically random)</text></g><g class="message" data-entity-1="part3" data-entity-2="part5" id="msg21"><polygon fill="#181818" points="833.1382,911.8574,843.1382,915.8574,833.1382,919.8574,837.1382,915.8574" style="stroke:#181818;stroke-width:1;"/><line style="stroke:#181818;stroke-width:2;" x1="511.1584" x2="839.1382" y1="915.8574" y2="915.8574"/><text fill="#000000" font-family="Georgia" font-size="11" lengthAdjust="spacing" textLength="234.561" x="518.1584" y="911.4458">STORE session:{token} &#8594; {user_id, expires_at}</text></g><g class="message" data-entity-1="part5" data-entity-2="part3" id="msg22"><polygon fill="#181818" points="522.1584,938.356,512.1584,942.356,522.1584,946.356,518.1584,942.356" style="stroke:#181818;stroke-width:1;"/><line style="stroke:#181818;stroke-width:2;stroke-dasharray:2,2;" x1="516.1584" x2="844.1382" y1="942.356" y2="942.356"/><text fill="#000000" font-family="Georgia" font-size="11" lengthAdjust="spacing" textLength="69.9209" x="528.1584" y="937.9443">Session stored</text></g><g class="message" data-entity-1="part3" data-entity-2="part2" id="msg23"><polygon fill="#181818" points="262.6414,977.353,252.6414,981.353,262.6414,985.353,258.6414,981.353" style="stroke:#181818;stroke-width:1;"/><line style="stroke:#181818;stroke-width:2;stroke-dasharray:2,2;" x1="256.6414" x2="510.1584" y1="981.353" y2="981.353"/><text fill="#000000" font-family="Georgia" font-size="11" lengthAdjust="spacing" textLength="38.124" x="268.6414" y="964.4429">200 OK</text><text fill="#000000" font-family="Georgia" font-size="11" lengthAdjust="spacing" textLength="235.5171" x="268.6414" y="976.9414">{sessionToken} + Set-Cookie (HttpOnly, Secure)</text></g><g class="message" data-entity-1="part2" data-entity-2="part2" id="msg24"><line style="stroke:#181818;stroke-width:2;" x1="251.6414" x2="293.6414" y1="1007.8516" y2="1007.8516"/><line style="stroke:#181818;stroke-width:2;" x1="293.6414" x2="293.6414" y1="1007.8516" y2="1020.8516"/><line style="stroke:#181818;stroke-width:2;" x1="252.6414" x2="293.6414" y1="1020.8516" y2="1020.8516"/><polygon fill="#181818" points="262.6414,1016.8516,252.6414,1020.8516,262.6414,1024.8516,258.6414,1020.8516" style="stroke:#181818;stroke-width:1;"/><text fill="#000000" font-family="Georgia" font-size="11" lengthAdjust="spacing" textLength="93.6934" x="258.6414" y="1003.4399">Store session token</text></g><g class="message" data-entity-1="part2" data-entity-2="part1" id="msg25"><polygon fill="#181818" points="72.9485,1043.3501,62.9485,1047.3501,72.9485,1051.3501,68.9485,1047.3501" style="stroke:#181818;stroke-width:1;"/><line style="stroke:#181818;stroke-width:2;stroke-dasharray:2,2;" x1="66.9485" x2="250.6414" y1="1047.3501" y2="1047.3501"/><text fill="#000000" font-family="Georgia" font-size="11" lengthAdjust="spacing" textLength="109.6187" x="78.9485" y="1042.9385">Redirect to Dashboard</text></g><?plantuml-src bLJ1Rjf04BtxAqO-GGi1alI2b5G4J58rBL5CsagbYXPxC2liNNTt3QLHhls0VcA_fBDhan18f1O9oVBCcvatxtaCDod2JR_PFkh2fKpWdV0ylU0YPufbeF5xWIB2db9oDPxpQ25GQpZSIb6o474abK05dVPM8COPAr8pbC9yP1d2EKgLSFPyHiX_8dGwdiSY8nNuDnhLHDHwxKwhrpwa_r7T1wR1llS8RNZ4SoOC-4D5S1GnPLyZeSkyOV0qwun5YpAfrpukK-Z1YvbXKwOH_47rv4A3iwr8I8ov513IOEYwn5ot1cTbbJ3qF3iKD4-fANHXbAE0L2PSGCuIzEXbas8kfmi3hlEKhQk4cLJP3ZmWCWemOpm59cAgeVLAgjZLERL3KzBLA1n3Y-MynGepRxbY4t7dK8q7oBtdsNH23Su850QNGNyChs1uFVe01JNLyFaYk0wgRYVmrgF4vaCNDvT2qZQ66eaYYZIjaqAfAKD26c90wWC5LoH3yj0QlZfB7VJw1vrl7j2lcgIiF8tKEZS7aSn89AnjK0sOCpslJuH2KoYXOSPIKc1qxQPzxFTOSBErutO7ReHTXbJafDWkWoohkk2_4qkMyhWYIPDkkldthivJVSAvN462P6OUWQs7Wap4Z3M0g-YX7QaNHJI8SIEjqS2IycSSjtaVFiExFyTeuSWSQCDCeU7a17moJCn5uZz7wmY6Karv7AFOudILehMcwxg6jImsZfbnfSspnAuKBTk0aHkK0qo4j19hcg3YK78jMMwShwtpeH1iIH0sfODHqGo-xCWRXdQ7BbrNO2FfmtCv57mqLs2fG0l6F4DPcFrTsMDKRdnlBMzeBI6g9O_GghwPQcj1cwZ1B9UAAPwkj-T_MNfT0RV9PiJ4Vibk9v-ScIA5iNK6-RC1h3837H--nFzmkzjhVBjZUgCA_5Vhb2tz_VHpQs5cTcI0cXj59ehbTCnPIcjHT6LaLjzNSJoYqr31ktSEVmz_Vls6Epl5BIS2-2Fdv9vRPkxt5NxYdjZRb_6mtORHUrAjQZ8kMxmcf6dsfLnmXDg5CVb8fEi6lOqAXVK7vQegBxdjgRZsQDCfSn_0WFOzbOnkAjdU-mi0?></g></svg>