<?plantuml 1.2026.2?><svg xmlns="http://www.w3.org/2000/svg" xmlns:xlink="http://www.w3.org/1999/xlink" contentStyleType="text/css" data-diagram-type="SEQUENCE" height="693px" preserveAspectRatio="none" style="width:707px;height:693px;background:#FFFFFF;" version="1.1" viewBox="0 0 707 693" width="707px" zoomAndPan="magnify"><title>UC-07: View Business Profiles</title><defs/><g><text fill="#000000" font-family="Georgia" font-size="14" font-weight="bold" lengthAdjust="spacing" textLength="216.7539" x="242.4456" y="27.8379">UC-07: View Business Profiles</text><rect fill="none" height="247.478" rx="5" ry="5" style="stroke:#000000;stroke-width:1.5;" width="503.5759" x="10" y="339.3911"/><g class="participant-lifeline" data-entity-uid="part1" data-qualified-name="User" id="part1-lifeline"><g><title>User</title><rect fill="#000000" fill-opacity="0.00000" height="476.9648" width="8" x="57.9485" y="126.9043"/><line style="stroke:#181818;stroke-width:0.5;stroke-dasharray:5,5;" x1="61" x2="61" y1="126.9043" y2="603.8691"/></g></g><g class="participant-lifeline" data-entity-uid="part2" data-qualified-name="FE" id="part2-lifeline"><g><title>Frontend</title><rect fill="#000000" fill-opacity="0.00000" height="476.9648" width="8" x="247.9421" y="126.9043"/><line style="stroke:#181818;stroke-width:0.5;stroke-dasharray:5,5;" x1="251.2144" x2="251.2144" y1="126.9043" y2="603.8691"/></g></g><g class="participant-lifeline" data-entity-uid="part3" data-qualified-name="A04" id="part3-lifeline"><g><title>Backend</title><rect fill="#000000" fill-opacity="0.00000" height="476.9648" width="8" x="471.6985" y="126.9043"/><line style="stroke:#181818;stroke-width:0.5;stroke-dasharray:5,5;" x1="474.821" x2="474.821" y1="126.9043" y2="603.8691"/></g></g><g class="participant-lifeline" data-entity-uid="part4" data-qualified-name="DB" id="part4-lifeline"><g><title>Database</title><rect fill="#000000" fill-opacity="0.00000" height="476.9648" width="8" x="668.1965" y="126.9043"/><line style="stroke:#181818;stroke-width:0.5;stroke-dasharray:5,5;" x1="671.748" x2="671.748" y1="126.9043" y2="603.8691"/></g></g><g class="participant participant-head" data-entity-uid="part1" data-qualified-name="User" id="part1-head"><text fill="#000000" font-family="Georgia" font-size="11" lengthAdjust="spacing" textLength="22.897" x="47.5" y="111.9941">User</text><text fill="#000000" font-family="Georgia" font-size="11" lengthAdjust="spacing" textLength="77.897" x="20" y="124.4927">(A01/A02/A03)</text><ellipse cx="61.9485" cy="50.4072" fill="#E2E2F0" rx="8" ry="8" style="stroke:#181818;stroke-width:0.5;"/><path d="M61.9485,58.4072 L61.9485,85.4072 M48.9485,66.4072 L74.9485,66.4072 M61.9485,85.4072 L48.9485,100.4072 M61.9485,85.4072 L74.9485,100.4072" fill="none" style="stroke:#181818;stroke-width:0.5;"/></g><g class="participant participant-tail" data-entity-uid="part1" data-qualified-name="User" id="part1-tail"><text fill="#000000" font-family="Georgia" font-size="11" lengthAdjust="spacing" textLength="22.897" x="47.5" y="612.9561">User</text><text fill="#000000" font-family="Georgia" font-size="11" lengthAdjust="spacing" textLength="77.897" x="20" y="625.4546">(A01/A02/A03)</text><ellipse cx="61.9485" cy="636.3662" fill="#E2E2F0" rx="8" ry="8" style="stroke:#181818;stroke-width:0.5;"/><path d="M61.9485,644.3662 L61.9485,671.3662 M48.9485,652.3662 L74.9485,652.3662 M61.9485,671.3662 L48.9485,686.3662 M61.9485,671.3662 L74.9485,686.3662" fill="none" style="stroke:#181818;stroke-width:0.5;"/></g><g class="participant participant-head" data-entity-uid="part2" data-qualified-name="FE" id="part2-head"><rect fill="#E2E2F0" height="38.9971" rx="5" ry="5" style="stroke:#181818;stroke-width:0.5;" width="59.4556" x="222.2144" y="86.9072"/><text fill="#000000" font-family="Georgia" font-size="11" lengthAdjust="spacing" textLength="45.4556" x="229.2144" y="103.9941">Frontend</text><text fill="#000000" font-family="Georgia" font-size="11" lengthAdjust="spacing" textLength="35.6211" x="234.1316" y="116.4927">(React)</text></g><g class="participant participant-tail" data-entity-uid="part2" data-qualified-name="FE" id="part2-tail"><rect fill="#E2E2F0" height="38.9971" rx="5" ry="5" style="stroke:#181818;stroke-width:0.5;" width="59.4556" x="222.2144" y="602.8691"/><text fill="#000000" font-family="Georgia" font-size="11" lengthAdjust="spacing" textLength="45.4556" x="229.2144" y="619.9561">Frontend</text><text fill="#000000" font-family="Georgia" font-size="11" lengthAdjust="spacing" textLength="35.6211" x="234.1316" y="632.4546">(React)</text></g><g class="participant participant-head" data-entity-uid="part3" data-qualified-name="A04" id="part3-head"><rect fill="#E2E2F0" height="38.9971" rx="5" ry="5" style="stroke:#181818;stroke-width:0.5;" width="55.7549" x="447.821" y="86.9072"/><text fill="#000000" font-family="Georgia" font-size="11" lengthAdjust="spacing" textLength="41.7549" x="454.821" y="103.9941">Backend</text><text fill="#000000" font-family="Georgia" font-size="11" lengthAdjust="spacing" textLength="28.5957" x="461.4006" y="116.4927">(A04)</text></g><g class="participant participant-tail" data-entity-uid="part3" data-qualified-name="A04" id="part3-tail"><rect fill="#E2E2F0" height="38.9971" rx="5" ry="5" style="stroke:#181818;stroke-width:0.5;" width="55.7549" x="447.821" y="602.8691"/><text fill="#000000" font-family="Georgia" font-size="11" lengthAdjust="spacing" textLength="41.7549" x="454.821" y="619.9561">Backend</text><text fill="#000000" font-family="Georgia" font-size="11" lengthAdjust="spacing" textLength="28.5957" x="461.4006" y="632.4546">(A04)</text></g><g class="participant participant-head" data-entity-uid="part4" data-qualified-name="DB" id="part4-head"><text fill="#000000" font-family="Georgia" font-size="11" lengthAdjust="spacing" textLength="44.897" x="646.748" y="124.4927">Database</text><path d="M654.1965,78.4058 C654.1965,68.4058 672.1965,68.4058 672.1965,68.4058 C672.1965,68.4058 690.1965,68.4058 690.1965,78.4058 L690.1965,104.4058 C690.1965,114.4058 672.1965,114.4058 672.1965,114.4058 C672.1965,114.4058 654.1965,114.4058 654.1965,104.4058 L654.1965,78.4058" fill="#E2E2F0" style="stroke:#181818;stroke-width:0.5;"/><path d="M654.1965,78.4058 C654.1965,88.4058 672.1965,88.4058 672.1965,88.4058 C672.1965,88.4058 690.1965,88.4058 690.1965,78.4058" fill="none" style="stroke:#181818;stroke-width:0.5;"/></g><g class="participant participant-tail" data-entity-uid="part4" data-qualified-name="DB" id="part4-tail"><text fill="#000000" font-family="Georgia" font-size="11" lengthAdjust="spacing" textLength="44.897" x="646.748" y="612.9561">Database</text><path d="M654.1965,625.3677 C654.1965,615.3677 672.1965,615.3677 672.1965,615.3677 C672.1965,615.3677 690.1965,615.3677 690.1965,625.3677 L690.1965,651.3677 C690.1965,661.3677 672.1965,661.3677 672.1965,661.3677 C672.1965,661.3677 654.1965,661.3677 654.1965,651.3677 L654.1965,625.3677" fill="#E2E2F0" style="stroke:#181818;stroke-width:0.5;"/><path d="M654.1965,625.3677 C654.1965,635.3677 672.1965,635.3677 672.1965,635.3677 C672.1965,635.3677 690.1965,635.3677 690.1965,625.3677" fill="none" style="stroke:#181818;stroke-width:0.5;"/></g><g class="message" data-entity-1="part1" data-entity-2="part2" id="msg1"><polygon fill="#181818" points="239.9421,151.4028,249.9421,155.4028,239.9421,159.4028,243.9421,155.4028" style="stroke:#181818;stroke-width:1;"/><line style="stroke:#181818;stroke-width:2;" x1="61.9485" x2="245.9421" y1="155.4028" y2="155.4028"/><text fill="#000000" font-family="Georgia" font-size="11" lengthAdjust="spacing" textLength="165.9937" x="68.9485" y="150.9912">Navigate to Business Profiles page</text></g><g class="message" data-entity-1="part2" data-entity-2="part3" id="msg2"><polygon fill="#181818" points="463.6985,190.3999,473.6985,194.3999,463.6985,198.3999,467.6985,194.3999" style="stroke:#181818;stroke-width:1;"/><line style="stroke:#181818;stroke-width:2;" x1="251.9421" x2="469.6985" y1="194.3999" y2="194.3999"/><text fill="#000000" font-family="Georgia" font-size="11" lengthAdjust="spacing" textLength="86.7217" x="258.9421" y="177.4897">GET /api/profiles</text><text fill="#000000" font-family="Georgia" font-size="11" lengthAdjust="spacing" textLength="97.7539" x="258.9421" y="189.9883">(with session token)</text></g><g class="message" data-entity-1="part3" data-entity-2="part3" id="msg3"><line style="stroke:#181818;stroke-width:2;" x1="475.6985" x2="517.6985" y1="233.397" y2="233.397"/><line style="stroke:#181818;stroke-width:2;" x1="517.6985" x2="517.6985" y1="233.397" y2="246.397"/><line style="stroke:#181818;stroke-width:2;" x1="476.6985" x2="517.6985" y1="246.397" y2="246.397"/><polygon fill="#181818" points="486.6985,242.397,476.6985,246.397,486.6985,250.397,482.6985,246.397" style="stroke:#181818;stroke-width:1;"/><text fill="#000000" font-family="Georgia" font-size="11" lengthAdjust="spacing" textLength="108.1899" x="482.6985" y="216.4868">Validate session token</text><text fill="#000000" font-family="Georgia" font-size="11" lengthAdjust="spacing" textLength="75.5498" x="482.6985" y="228.9854">Extract user_id</text></g><g class="message" data-entity-1="part3" data-entity-2="part4" id="msg4"><polygon fill="#181818" points="660.1965,293.8926,670.1965,297.8926,660.1965,301.8926,664.1965,297.8926" style="stroke:#181818;stroke-width:1;"/><line style="stroke:#181818;stroke-width:2;" x1="475.6985" x2="666.1965" y1="297.8926" y2="297.8926"/><text fill="#000000" font-family="Georgia" font-size="11" lengthAdjust="spacing" textLength="172.498" x="482.6985" y="268.4839">SELECT * FROM business_profiles</text><text fill="#000000" font-family="Georgia" font-size="11" lengthAdjust="spacing" textLength="99.6016" x="482.6985" y="280.9824">WHERE user_id = ?</text><text fill="#000000" font-family="Georgia" font-size="11" lengthAdjust="spacing" textLength="145.9434" x="482.6985" y="293.481">ORDER BY updated_at DESC</text></g><g class="message" data-entity-1="part4" data-entity-2="part3" id="msg5"><polygon fill="#181818" points="486.6985,320.3911,476.6985,324.3911,486.6985,328.3911,482.6985,324.3911" style="stroke:#181818;stroke-width:1;"/><line style="stroke:#181818;stroke-width:2;stroke-dasharray:2,2;" x1="480.6985" x2="671.1965" y1="324.3911" y2="324.3911"/><text fill="#000000" font-family="Georgia" font-size="11" lengthAdjust="spacing" textLength="104.1885" x="492.6985" y="319.9795">List of profile records</text></g><path d="M15,339.3911 L69.7114,339.3911 L69.7114,343.8896 L59.7114,353.8896 L10,353.8896 L10,344.3911 A5,5 0 0 1 15,339.3911" fill="#EEEEEE" style="stroke:#000000;stroke-width:1.5;"/><rect fill="none" height="247.478" rx="5" ry="5" style="stroke:#000000;stroke-width:1.5;" width="503.5759" x="10" y="339.3911"/><text fill="#000000" font-family="Georgia" font-size="11" font-weight="bold" lengthAdjust="spacing" textLength="14.7114" x="25" y="350.478">alt</text><text fill="#000000" font-family="Georgia" font-size="11" font-weight="bold" lengthAdjust="spacing" textLength="109.1621" x="84.7114" y="351.478">[No profiles found]</text><g class="message" data-entity-1="part3" data-entity-2="part2" id="msg6"><polygon fill="#181818" points="262.9421,380.8867,252.9421,384.8867,262.9421,388.8867,258.9421,384.8867" style="stroke:#181818;stroke-width:1;"/><line style="stroke:#181818;stroke-width:2;stroke-dasharray:2,2;" x1="256.9421" x2="474.6985" y1="384.8867" y2="384.8867"/><text fill="#000000" font-family="Georgia" font-size="11" lengthAdjust="spacing" textLength="38.124" x="268.9421" y="367.9766">200 OK</text><text fill="#000000" font-family="Georgia" font-size="11" lengthAdjust="spacing" textLength="60.543" x="268.9421" y="380.4751">{profiles: []}</text></g><g class="message" data-entity-1="part2" data-entity-2="part1" id="msg7"><polygon fill="#181818" points="72.9485,419.8838,62.9485,423.8838,72.9485,427.8838,68.9485,423.8838" style="stroke:#181818;stroke-width:1;"/><line style="stroke:#181818;stroke-width:2;stroke-dasharray:2,2;" x1="66.9485" x2="250.9421" y1="423.8838" y2="423.8838"/><text fill="#000000" font-family="Georgia" font-size="11" lengthAdjust="spacing" textLength="119.2544" x="78.9485" y="406.9736">Display "No profiles yet"</text><text fill="#000000" font-family="Georgia" font-size="11" lengthAdjust="spacing" textLength="154.7627" x="78.9485" y="419.4722">+ "Create Business Profile" CTA</text></g><line style="stroke:#000000;stroke-width:1;stroke-dasharray:2,2;" x1="10" x2="513.5759" y1="432.8838" y2="432.8838"/><text fill="#000000" font-family="Georgia" font-size="11" font-weight="bold" lengthAdjust="spacing" textLength="90.6211" x="15" y="442.9707">[Profiles found]</text><g class="message" data-entity-1="part3" data-entity-2="part2" id="msg8"><polygon fill="#181818" points="262.9421,498.3765,252.9421,502.3765,262.9421,506.3765,258.9421,502.3765" style="stroke:#181818;stroke-width:1;"/><line style="stroke:#181818;stroke-width:2;stroke-dasharray:2,2;" x1="256.9421" x2="474.6985" y1="502.3765" y2="502.3765"/><text fill="#000000" font-family="Georgia" font-size="11" lengthAdjust="spacing" textLength="38.124" x="268.9421" y="460.4692">200 OK</text><text fill="#000000" font-family="Georgia" font-size="11" lengthAdjust="spacing" textLength="136.5063" x="268.9421" y="472.9678">{profiles: [{id, name, sector,</text><text fill="#000000" font-family="Georgia" font-size="11" lengthAdjust="spacing" textLength="182.2734" x="268.9421" y="485.4663">priceBand, ageGroups, incomeBands,</text><text fill="#000000" font-family="Georgia" font-size="11" lengthAdjust="spacing" textLength="199.7563" x="268.9421" y="497.9648">relianceType, createdAt, updatedAt}, ...]}</text></g><g class="message" data-entity-1="part2" data-entity-2="part1" id="msg9"><polygon fill="#181818" points="72.9485,574.8691,62.9485,578.8691,72.9485,582.8691,68.9485,578.8691" style="stroke:#181818;stroke-width:1;"/><line style="stroke:#181818;stroke-width:2;stroke-dasharray:2,2;" x1="66.9485" x2="250.9421" y1="578.8691" y2="578.8691"/><text fill="#000000" font-family="Georgia" font-size="11" lengthAdjust="spacing" textLength="153.8335" x="78.9485" y="524.4634">Display profile list with actions:</text><text fill="#000000" font-family="Georgia" font-size="11" lengthAdjust="spacing" textLength="54.8818" x="78.9485" y="536.9619">- Set Active</text><text fill="#000000" font-family="Georgia" font-size="11" lengthAdjust="spacing" textLength="27.2905" x="78.9485" y="549.4604">- Edit</text><text fill="#000000" font-family="Georgia" font-size="11" lengthAdjust="spacing" textLength="37.9038" x="78.9485" y="561.959">- Delete</text><text fill="#000000" font-family="Georgia" font-size="11" lengthAdjust="spacing" textLength="62.8311" x="78.9485" y="574.4575">- Create New</text></g><?plantuml-src dPDjRzCm4CVV-rESyef1sgO52QaIeAH9YyHefxORGWHLNdBjhAPsi9sLCksxSqwJqW7Y1P6YsEVVFVX_5ojiWN0zwWIlXt0ZS0zHPOH4O-1AgxKeq31cjaAMNFCT6FnMeSmmr5hjbtSYszReu0pHgf9vfhH43VtWx237DQyAErRIJlaEOO9ARmJ_Ex4GFn3wVSPuPfK6xzgWJkMpCEZtmc10xyiB3xW1PsVaRKKcIYujU6DDxYXpekT8taTkd3ob8fvjZr0Ol3eYj60vj_oM6mGlRbRrKHmnvZ91vor5WY5C-RtOS8jWrP-2GSato8WZce8IFacMqEEbw9KDGddtmjwHdiO89IaCLNF1cCDFNZUy4BbByeHAPVBTQheOL5JHIkGdhpWYfqLocOoMy1p6yzb7k6rgM_rA_EbzCazQNtW3xr8vcyV97ABFK9KkNxxY5k9aCM8KiNCgvr8O2seDJIZGI5tEQJnuOM6gMhk1jPi01lJKXRMQ3O80PXzI-T22G_ZozR7cd5Q4rH8F8HQcBFW1lFEW1xHUAb-0DzBeDFbTTGz6ov1XGRsx-ez27aJkWwInz4bjDt9-AaijCeouf1Dgw8G6kpG-29cfNMqsn6Wi1ASVOdaeoJMhQyj3wxTIXlRHXswt-y-BjeeMJk5wBgYzr70pJ6K75cWXfFqzkbsI2-k-CHPeQqiZo1JtZ2QQ_GG0?></g></svg>