<?plantuml 1.2026.2?><svg xmlns="http://www.w3.org/2000/svg" xmlns:xlink="http://www.w3.org/1999/xlink" contentStyleType="text/css" data-diagram-type="SEQUENCE" height="1825px" preserveAspectRatio="none" style="width:978px;height:1825px;background:#FFFFFF;" version="1.1" viewBox="0 0 978 1825" width="978px" zoomAndPan="magnify"><title>UC-05: Reset Password (Forgot Password)</title><defs/><g><text fill="#000000" font-family="Georgia" font-size="14" font-weight="bold" lengthAdjust="spacing" textLength="305.2178" x="332.8269" y="27.8379">UC-05: Reset Password (Forgot Password)</text><rect fill="none" height="606.4604" rx="5" ry="5" style="stroke:#000000;stroke-width:1.5;" width="951.8716" x="10" y="413.3882"/><rect fill="none" height="513.4663" rx="5" ry="5" style="stroke:#000000;stroke-width:1.5;" width="861.4365" x="10" y="1205.3384"/><g class="participant-lifeline" data-entity-uid="part1" data-qualified-name="User" id="part1-lifeline"><g><title>User</title><rect fill="#000000" fill-opacity="0.00000" height="1608.9004" width="8" x="57.9485" y="126.9043"/><line style="stroke:#181818;stroke-width:0.5;stroke-dasharray:5,5;" x1="61" x2="61" y1="126.9043" y2="1735.8047"/></g></g><g class="participant-lifeline" data-entity-uid="part2" data-qualified-name="FE" id="part2-lifeline"><g><title>Frontend</title><rect fill="#000000" fill-opacity="0.00000" height="1608.9004" width="8" x="283.574" y="126.9043"/><line style="stroke:#181818;stroke-width:0.5;stroke-dasharray:5,5;" x1="286.8462" x2="286.8462" y1="126.9043" y2="1735.8047"/></g></g><g class="participant-lifeline" data-entity-uid="part3" data-qualified-name="A04" id="part3-lifeline"><g><title>Backend</title><rect fill="#000000" fill-opacity="0.00000" height="1608.9004" width="8" x="565.408" y="126.9043"/><line style="stroke:#181818;stroke-width:0.5;stroke-dasharray:5,5;" x1="568.5305" x2="568.5305" y1="126.9043" y2="1735.8047"/></g></g><g class="participant-lifeline" data-entity-uid="part4" data-qualified-name="DB" id="part4-lifeline"><g><title>Database</title><rect fill="#000000" fill-opacity="0.00000" height="1608.9004" width="8" x="831.988" y="126.9043"/><line style="stroke:#181818;stroke-width:0.5;stroke-dasharray:5,5;" x1="835.5396" x2="835.5396" y1="126.9043" y2="1735.8047"/></g></g><g class="participant-lifeline" data-entity-uid="part5" data-qualified-name="A05" id="part5-lifeline"><g><title>Email Service</title><rect fill="#000000" fill-opacity="0.00000" height="1608.9004" width="8" x="907.6541" y="126.9043"/><line style="stroke:#181818;stroke-width:0.5;stroke-dasharray:5,5;" x1="911.4365" x2="911.4365" y1="126.9043" y2="1735.8047"/></g></g><g class="participant participant-head" data-entity-uid="part1" data-qualified-name="User" id="part1-head"><text fill="#000000" font-family="Georgia" font-size="11" lengthAdjust="spacing" textLength="22.897" x="47.5" y="111.9941">User</text><text fill="#000000" font-family="Georgia" font-size="11" lengthAdjust="spacing" textLength="77.897" x="20" y="124.4927">(A01/A02/A03)</text><ellipse cx="61.9485" cy="50.4072" fill="#E2E2F0" rx="8" ry="8" style="stroke:#181818;stroke-width:0.5;"/><path d="M61.9485,58.4072 L61.9485,85.4072 M48.9485,66.4072 L74.9485,66.4072 M61.9485,85.4072 L48.9485,100.4072 M61.9485,85.4072 L74.9485,100.4072" fill="none" style="stroke:#181818;stroke-width:0.5;"/></g><g class="participant participant-tail" data-entity-uid="part1" data-qualified-name="User" id="part1-tail"><text fill="#000000" font-family="Georgia" font-size="11" lengthAdjust="spacing" textLength="22.897" x="47.5" y="1744.8916">User</text><text fill="#000000" font-family="Georgia" font-size="11" lengthAdjust="spacing" textLength="77.897" x="20" y="1757.3901">(A01/A02/A03)</text><ellipse cx="61.9485" cy="1768.3018" fill="#E2E2F0" rx="8" ry="8" style="stroke:#181818;stroke-width:0.5;"/><path d="M61.9485,1776.3018 L61.9485,1803.3018 M48.9485,1784.3018 L74.9485,1784.3018 M61.9485,1803.3018 L48.9485,1818.3018 M61.9485,1803.3018 L74.9485,1818.3018" fill="none" style="stroke:#181818;stroke-width:0.5;"/></g><g class="participant participant-head" data-entity-uid="part2" data-qualified-name="FE" id="part2-head"><rect fill="#E2E2F0" height="38.9971" rx="5" ry="5" style="stroke:#181818;stroke-width:0.5;" width="59.4556" x="257.8462" y="86.9072"/><text fill="#000000" font-family="Georgia" font-size="11" lengthAdjust="spacing" textLength="45.4556" x="264.8462" y="103.9941">Frontend</text><text fill="#000000" font-family="Georgia" font-size="11" lengthAdjust="spacing" textLength="35.6211" x="269.7634" y="116.4927">(React)</text></g><g class="participant participant-tail" data-entity-uid="part2" data-qualified-name="FE" id="part2-tail"><rect fill="#E2E2F0" height="38.9971" rx="5" ry="5" style="stroke:#181818;stroke-width:0.5;" width="59.4556" x="257.8462" y="1734.8047"/><text fill="#000000" font-family="Georgia" font-size="11" lengthAdjust="spacing" textLength="45.4556" x="264.8462" y="1751.8916">Frontend</text><text fill="#000000" font-family="Georgia" font-size="11" lengthAdjust="spacing" textLength="35.6211" x="269.7634" y="1764.3901">(React)</text></g><g class="participant participant-head" data-entity-uid="part3" data-qualified-name="A04" id="part3-head"><rect fill="#E2E2F0" height="38.9971" rx="5" ry="5" style="stroke:#181818;stroke-width:0.5;" width="55.7549" x="541.5305" y="86.9072"/><text fill="#000000" font-family="Georgia" font-size="11" lengthAdjust="spacing" textLength="41.7549" x="548.5305" y="103.9941">Backend</text><text fill="#000000" font-family="Georgia" font-size="11" lengthAdjust="spacing" textLength="28.5957" x="555.1101" y="116.4927">(A04)</text></g><g class="participant participant-tail" data-entity-uid="part3" data-qualified-name="A04" id="part3-tail"><rect fill="#E2E2F0" height="38.9971" rx="5" ry="5" style="stroke:#181818;stroke-width:0.5;" width="55.7549" x="541.5305" y="1734.8047"/><text fill="#000000" font-family="Georgia" font-size="11" lengthAdjust="spacing" textLength="41.7549" x="548.5305" y="1751.8916">Backend</text><text fill="#000000" font-family="Georgia" font-size="11" lengthAdjust="spacing" textLength="28.5957" x="555.1101" y="1764.3901">(A04)</text></g><g class="participant participant-head" data-entity-uid="part4" data-qualified-name="DB" id="part4-head"><text fill="#000000" font-family="Georgia" font-size="11" lengthAdjust="spacing" textLength="44.897" x="810.5396" y="124.4927">Database</text><path d="M817.988,78.4058 C817.988,68.4058 835.988,68.4058 835.988,68.4058 C835.988,68.4058 853.988,68.4058 853.988,78.4058 L853.988,104.4058 C853.988,114.4058 835.988,114.4058 835.988,114.4058 C835.988,114.4058 817.988,114.4058 817.988,104.4058 L817.988,78.4058" fill="#E2E2F0" style="stroke:#181818;stroke-width:0.5;"/><path d="M817.988,78.4058 C817.988,88.4058 835.988,88.4058 835.988,88.4058 C835.988,88.4058 853.988,88.4058 853.988,78.4058" fill="none" style="stroke:#181818;stroke-width:0.5;"/></g><g class="participant participant-tail" data-entity-uid="part4" data-qualified-name="DB" id="part4-tail"><text fill="#000000" font-family="Georgia" font-size="11" lengthAdjust="spacing" textLength="44.897" x="810.5396" y="1744.8916">Database</text><path d="M817.988,1757.3032 C817.988,1747.3032 835.988,1747.3032 835.988,1747.3032 C835.988,1747.3032 853.988,1747.3032 853.988,1757.3032 L853.988,1783.3032 C853.988,1793.3032 835.988,1793.3032 835.988,1793.3032 C835.988,1793.3032 817.988,1793.3032 817.988,1783.3032 L817.988,1757.3032" fill="#E2E2F0" style="stroke:#181818;stroke-width:0.5;"/><path d="M817.988,1757.3032 C817.988,1767.3032 835.988,1767.3032 835.988,1767.3032 C835.988,1767.3032 853.988,1767.3032 853.988,1757.3032" fill="none" style="stroke:#181818;stroke-width:0.5;"/></g><g class="participant participant-head" data-entity-uid="part5" data-qualified-name="A05" id="part5-head"><rect fill="#E2E2F0" height="38.9971" rx="5" ry="5" style="stroke:#181818;stroke-width:0.5;" width="80.4351" x="871.4365" y="86.9072"/><text fill="#000000" font-family="Georgia" font-size="11" lengthAdjust="spacing" textLength="66.4351" x="878.4365" y="103.9941">Email Service</text><text fill="#000000" font-family="Georgia" font-size="11" lengthAdjust="spacing" textLength="28.1929" x="897.5576" y="116.4927">(A05)</text></g><g class="participant participant-tail" data-entity-uid="part5" data-qualified-name="A05" id="part5-tail"><rect fill="#E2E2F0" height="38.9971" rx="5" ry="5" style="stroke:#181818;stroke-width:0.5;" width="80.4351" x="871.4365" y="1734.8047"/><text fill="#000000" font-family="Georgia" font-size="11" lengthAdjust="spacing" textLength="66.4351" x="878.4365" y="1751.8916">Email Service</text><text fill="#000000" font-family="Georgia" font-size="11" lengthAdjust="spacing" textLength="28.1929" x="897.5576" y="1764.3901">(A05)</text></g><rect fill="#EEEEEE" height="3" rx="5" ry="5" style="stroke:#EEEEEE;stroke-width:1;" width="971.8716" x="0" y="156.1536"/><line style="stroke:#000000;stroke-width:1;" x1="0" x2="971.8716" y1="156.1536" y2="156.1536"/><line style="stroke:#000000;stroke-width:1;" x1="0" x2="971.8716" y1="159.1536" y2="159.1536"/><rect fill="#EEEEEE" height="20.4985" rx="5" ry="5" style="stroke:#000000;stroke-width:2;" width="145.5703" x="413.1506" y="146.9043"/><text fill="#000000" font-family="Georgia" font-size="11" font-weight="bold" lengthAdjust="spacing" textLength="128.7773" x="419.1506" y="160.9912">Phase 1: Request Reset</text><g class="message" data-entity-1="part1" data-entity-2="part2" id="msg1"><polygon fill="#181818" points="275.574,191.9014,285.574,195.9014,275.574,199.9014,279.574,195.9014" style="stroke:#181818;stroke-width:1;"/><line style="stroke:#181818;stroke-width:2;" x1="61.9485" x2="281.574" y1="195.9014" y2="195.9014"/><text fill="#000000" font-family="Georgia" font-size="11" lengthAdjust="spacing" textLength="117.6592" x="68.9485" y="191.4897">Click "Forgot Password"</text></g><g class="message" data-entity-1="part2" data-entity-2="part1" id="msg2"><polygon fill="#181818" points="72.9485,218.3999,62.9485,222.3999,72.9485,226.3999,68.9485,222.3999" style="stroke:#181818;stroke-width:1;"/><line style="stroke:#181818;stroke-width:2;stroke-dasharray:2,2;" x1="66.9485" x2="286.574" y1="222.3999" y2="222.3999"/><text fill="#000000" font-family="Georgia" font-size="11" lengthAdjust="spacing" textLength="120.7207" x="78.9485" y="217.9883">Display email entry form</text></g><g class="message" data-entity-1="part1" data-entity-2="part2" id="msg3"><polygon fill="#181818" points="275.574,244.8984,285.574,248.8984,275.574,252.8984,279.574,248.8984" style="stroke:#181818;stroke-width:1;"/><line style="stroke:#181818;stroke-width:2;" x1="61.9485" x2="281.574" y1="248.8984" y2="248.8984"/><text fill="#000000" font-family="Georgia" font-size="11" lengthAdjust="spacing" textLength="148.3496" x="68.9485" y="244.4868">Enter registered email address</text></g><g class="message" data-entity-1="part2" data-entity-2="part3" id="msg4"><polygon fill="#181818" points="557.408,283.8955,567.408,287.8955,557.408,291.8955,561.408,287.8955" style="stroke:#181818;stroke-width:1;"/><line style="stroke:#181818;stroke-width:2;" x1="287.574" x2="563.408" y1="287.8955" y2="287.8955"/><text fill="#000000" font-family="Georgia" font-size="11" lengthAdjust="spacing" textLength="162.7656" x="294.574" y="270.9854">POST /api/auth/forgot-password</text><text fill="#000000" font-family="Georgia" font-size="11" lengthAdjust="spacing" textLength="36.3838" x="294.574" y="283.4839">{email}</text></g><g class="message" data-entity-1="part3" data-entity-2="part4" id="msg5"><polygon fill="#181818" points="823.988,310.394,833.988,314.394,823.988,318.394,827.988,314.394" style="stroke:#181818;stroke-width:1;"/><line style="stroke:#181818;stroke-width:2;" x1="569.408" x2="829.988" y1="314.394" y2="314.394"/><text fill="#000000" font-family="Georgia" font-size="11" lengthAdjust="spacing" textLength="204.2144" x="576.408" y="309.9824">SELECT * FROM users WHERE email = ?</text></g><g class="message" data-entity-1="part4" data-entity-2="part3" id="msg6"><polygon fill="#181818" points="580.408,336.8926,570.408,340.8926,580.408,344.8926,576.408,340.8926" style="stroke:#181818;stroke-width:1;"/><line style="stroke:#181818;stroke-width:2;stroke-dasharray:2,2;" x1="574.408" x2="834.988" y1="340.8926" y2="340.8926"/><text fill="#000000" font-family="Georgia" font-size="11" lengthAdjust="spacing" textLength="100.2354" x="586.408" y="336.481">User record (or null)</text></g><path d="M490,358.8926 L490,395.8926 A5,5 0 0 0 495,400.8926 L642,400.8926 A5,5 0 0 0 647,395.8926 L647,363.8926 L637,353.8926 L495,353.8926 A5,5 0 0 0 490,358.8926" fill="#FEFFDD" style="stroke:#181818;stroke-width:0.5;"/><path d="M637,353.8926 L637,361.3926 A2.5,2.5 0 0 0 639.5,363.8926 L647,363.8926 L637,353.8926" fill="#FEFFDD" style="stroke:#181818;stroke-width:0.5;"/><text fill="#000000" font-family="Georgia" font-size="11" lengthAdjust="spacing" textLength="113.7974" x="496" y="368.9795">Security: Always return</text><text fill="#000000" font-family="Georgia" font-size="11" lengthAdjust="spacing" textLength="129.1748" x="496" y="381.478">generic "check your email"</text><text fill="#000000" font-family="Georgia" font-size="11" lengthAdjust="spacing" textLength="136.0552" x="496" y="393.9766">message regardless of result</text><path d="M15,413.3882 L69.7114,413.3882 L69.7114,417.8867 L59.7114,427.8867 L10,427.8867 L10,418.3882 A5,5 0 0 1 15,413.3882" fill="#EEEEEE" style="stroke:#000000;stroke-width:1.5;"/><rect fill="none" height="606.4604" rx="5" ry="5" style="stroke:#000000;stroke-width:1.5;" width="951.8716" x="10" y="413.3882"/><text fill="#000000" font-family="Georgia" font-size="11" font-weight="bold" lengthAdjust="spacing" textLength="14.7114" x="25" y="424.4751">alt</text><text fill="#000000" font-family="Georgia" font-size="11" font-weight="bold" lengthAdjust="spacing" textLength="178.2935" x="84.7114" y="425.4751">[Email not found [UC-05.AC.1]]</text><g class="message" data-entity-1="part3" data-entity-2="part2" id="msg7"><polygon fill="#181818" points="298.574,454.8838,288.574,458.8838,298.574,462.8838,294.574,458.8838" style="stroke:#181818;stroke-width:1;"/><line style="stroke:#181818;stroke-width:2;stroke-dasharray:2,2;" x1="292.574" x2="568.408" y1="458.8838" y2="458.8838"/><text fill="#000000" font-family="Georgia" font-size="11" lengthAdjust="spacing" textLength="38.124" x="304.574" y="441.9736">200 OK</text><text fill="#000000" font-family="Georgia" font-size="11" lengthAdjust="spacing" textLength="256.1636" x="304.574" y="454.4722">{message: "If that email exists, a link has been sent"}</text></g><g class="message" data-entity-1="part2" data-entity-2="part1" id="msg8"><polygon fill="#181818" points="72.9485,481.3823,62.9485,485.3823,72.9485,489.3823,68.9485,485.3823" style="stroke:#181818;stroke-width:1;"/><line style="stroke:#181818;stroke-width:2;stroke-dasharray:2,2;" x1="66.9485" x2="286.574" y1="485.3823" y2="485.3823"/><text fill="#000000" font-family="Georgia" font-size="11" lengthAdjust="spacing" textLength="177.2407" x="78.9485" y="480.9707">Show generic "check email" message</text></g><line style="stroke:#000000;stroke-width:1;stroke-dasharray:2,2;" x1="10" x2="961.8716" y1="494.3823" y2="494.3823"/><text fill="#000000" font-family="Georgia" font-size="11" font-weight="bold" lengthAdjust="spacing" textLength="231.999" x="15" y="504.4692">[Email service unavailable [UC-05.EX.1]]</text><g class="message" data-entity-1="part3" data-entity-2="part3" id="msg9"><line style="stroke:#181818;stroke-width:2;" x1="569.408" x2="611.408" y1="526.3794" y2="526.3794"/><line style="stroke:#181818;stroke-width:2;" x1="611.408" x2="611.408" y1="526.3794" y2="539.3794"/><line style="stroke:#181818;stroke-width:2;" x1="570.408" x2="611.408" y1="539.3794" y2="539.3794"/><polygon fill="#181818" points="580.408,535.3794,570.408,539.3794,580.408,543.3794,576.408,539.3794" style="stroke:#181818;stroke-width:1;"/><text fill="#000000" font-family="Georgia" font-size="11" lengthAdjust="spacing" textLength="160.1982" x="576.408" y="521.9678">Generate reset token (1hr expiry)</text></g><g class="message" data-entity-1="part3" data-entity-2="part4" id="msg10"><polygon fill="#181818" points="823.988,574.3765,833.988,578.3765,823.988,582.3765,827.988,578.3765" style="stroke:#181818;stroke-width:1;"/><line style="stroke:#181818;stroke-width:2;" x1="569.408" x2="829.988" y1="578.3765" y2="578.3765"/><text fill="#000000" font-family="Georgia" font-size="11" lengthAdjust="spacing" textLength="136.5815" x="576.408" y="561.4663">INSERT INTO reset_tokens</text><text fill="#000000" font-family="Georgia" font-size="11" lengthAdjust="spacing" textLength="135.8081" x="576.408" y="573.9648">(user_id, token, expires_at)</text></g><g class="message" data-entity-1="part3" data-entity-2="part5" id="msg11"><polygon fill="#181818" points="899.6541,613.3735,909.6541,617.3735,899.6541,621.3735,903.6541,617.3735" style="stroke:#181818;stroke-width:1;"/><line style="stroke:#181818;stroke-width:2;" x1="569.408" x2="905.6541" y1="617.3735" y2="617.3735"/><text fill="#000000" font-family="Georgia" font-size="11" lengthAdjust="spacing" textLength="80.2227" x="576.408" y="600.4634">Send reset email</text><text fill="#000000" font-family="Georgia" font-size="11" lengthAdjust="spacing" textLength="106.1328" x="576.408" y="612.9619">(to: email, reset_link)</text></g><g class="message" data-entity-1="part5" data-entity-2="part3" id="msg12"><polygon fill="#181818" points="580.408,639.8721,570.408,643.8721,580.408,647.8721,576.408,643.8721" style="stroke:#181818;stroke-width:1;"/><line style="stroke:#181818;stroke-width:2;stroke-dasharray:2,2;" x1="574.408" x2="910.6541" y1="643.8721" y2="643.8721"/><text fill="#000000" font-family="Georgia" font-size="11" lengthAdjust="spacing" textLength="78.187" x="586.408" y="639.4604">Error / Timeout</text></g><g class="message" data-entity-1="part3" data-entity-2="part3" id="msg13"><line style="stroke:#181818;stroke-width:2;" x1="569.408" x2="611.408" y1="670.3706" y2="670.3706"/><line style="stroke:#181818;stroke-width:2;" x1="611.408" x2="611.408" y1="670.3706" y2="683.3706"/><line style="stroke:#181818;stroke-width:2;" x1="570.408" x2="611.408" y1="683.3706" y2="683.3706"/><polygon fill="#181818" points="580.408,679.3706,570.408,683.3706,580.408,687.3706,576.408,683.3706" style="stroke:#181818;stroke-width:1;"/><text fill="#000000" font-family="Georgia" font-size="11" lengthAdjust="spacing" textLength="45.5898" x="576.408" y="665.959">Log error</text></g><g class="message" data-entity-1="part3" data-entity-2="part2" id="msg14"><polygon fill="#181818" points="298.574,718.3677,288.574,722.3677,298.574,726.3677,294.574,722.3677" style="stroke:#181818;stroke-width:1;"/><line style="stroke:#181818;stroke-width:2;stroke-dasharray:2,2;" x1="292.574" x2="568.408" y1="722.3677" y2="722.3677"/><text fill="#000000" font-family="Georgia" font-size="11" lengthAdjust="spacing" textLength="116.8374" x="304.574" y="705.4575">503 Service Unavailable</text><text fill="#000000" font-family="Georgia" font-size="11" lengthAdjust="spacing" textLength="257.834" x="304.574" y="717.9561">{error: "Could not send reset email. Try again later."}</text></g><g class="message" data-entity-1="part2" data-entity-2="part1" id="msg15"><polygon fill="#181818" points="72.9485,744.8662,62.9485,748.8662,72.9485,752.8662,68.9485,748.8662" style="stroke:#181818;stroke-width:1;"/><line style="stroke:#181818;stroke-width:2;stroke-dasharray:2,2;" x1="66.9485" x2="286.574" y1="748.8662" y2="748.8662"/><text fill="#000000" font-family="Georgia" font-size="11" lengthAdjust="spacing" textLength="124.271" x="78.9485" y="744.4546">Show error + retry option</text></g><line style="stroke:#000000;stroke-width:1;stroke-dasharray:2,2;" x1="10" x2="961.8716" y1="757.8662" y2="757.8662"/><text fill="#000000" font-family="Georgia" font-size="11" font-weight="bold" lengthAdjust="spacing" textLength="179.4482" x="15" y="767.9531">[Email found, service available]</text><g class="message" data-entity-1="part3" data-entity-2="part3" id="msg16"><line style="stroke:#181818;stroke-width:2;" x1="569.408" x2="611.408" y1="802.3618" y2="802.3618"/><line style="stroke:#181818;stroke-width:2;" x1="611.408" x2="611.408" y1="802.3618" y2="815.3618"/><line style="stroke:#181818;stroke-width:2;" x1="570.408" x2="611.408" y1="815.3618" y2="815.3618"/><polygon fill="#181818" points="580.408,811.3618,570.408,815.3618,580.408,819.3618,576.408,815.3618" style="stroke:#181818;stroke-width:1;"/><text fill="#000000" font-family="Georgia" font-size="11" lengthAdjust="spacing" textLength="149.5581" x="576.408" y="785.4517">Generate password reset token</text><text fill="#000000" font-family="Georgia" font-size="11" lengthAdjust="spacing" textLength="91.6201" x="576.408" y="797.9502">(UUID, 1hr expiry)</text></g><g class="message" data-entity-1="part3" data-entity-2="part4" id="msg17"><polygon fill="#181818" points="823.988,850.3589,833.988,854.3589,823.988,858.3589,827.988,854.3589" style="stroke:#181818;stroke-width:1;"/><line style="stroke:#181818;stroke-width:2;" x1="569.408" x2="829.988" y1="854.3589" y2="854.3589"/><text fill="#000000" font-family="Georgia" font-size="11" lengthAdjust="spacing" textLength="136.5815" x="576.408" y="837.4487">INSERT INTO reset_tokens</text><text fill="#000000" font-family="Georgia" font-size="11" lengthAdjust="spacing" textLength="135.8081" x="576.408" y="849.9473">(user_id, token, expires_at)</text></g><g class="message" data-entity-1="part4" data-entity-2="part3" id="msg18"><polygon fill="#181818" points="580.408,876.8574,570.408,880.8574,580.408,884.8574,576.408,880.8574" style="stroke:#181818;stroke-width:1;"/><line style="stroke:#181818;stroke-width:2;stroke-dasharray:2,2;" x1="574.408" x2="834.988" y1="880.8574" y2="880.8574"/><text fill="#000000" font-family="Georgia" font-size="11" lengthAdjust="spacing" textLength="63.7173" x="586.408" y="876.4458">Token stored</text></g><g class="message" data-entity-1="part3" data-entity-2="part5" id="msg19"><polygon fill="#181818" points="899.6541,915.8545,909.6541,919.8545,899.6541,923.8545,903.6541,919.8545" style="stroke:#181818;stroke-width:1;"/><line style="stroke:#181818;stroke-width:2;" x1="569.408" x2="905.6541" y1="919.8545" y2="919.8545"/><text fill="#000000" font-family="Georgia" font-size="11" lengthAdjust="spacing" textLength="80.2227" x="576.408" y="902.9443">Send reset email</text><text fill="#000000" font-family="Georgia" font-size="11" lengthAdjust="spacing" textLength="160.4077" x="576.408" y="915.4429">(to: email, reset_link with token)</text></g><g class="message" data-entity-1="part5" data-entity-2="part3" id="msg20"><polygon fill="#181818" points="580.408,942.353,570.408,946.353,580.408,950.353,576.408,946.353" style="stroke:#181818;stroke-width:1;"/><line style="stroke:#181818;stroke-width:2;stroke-dasharray:2,2;" x1="574.408" x2="910.6541" y1="946.353" y2="946.353"/><text fill="#000000" font-family="Georgia" font-size="11" lengthAdjust="spacing" textLength="51.8096" x="586.408" y="941.9414">Email sent</text></g><g class="message" data-entity-1="part3" data-entity-2="part2" id="msg21"><polygon fill="#181818" points="298.574,981.3501,288.574,985.3501,298.574,989.3501,294.574,985.3501" style="stroke:#181818;stroke-width:1;"/><line style="stroke:#181818;stroke-width:2;stroke-dasharray:2,2;" x1="292.574" x2="568.408" y1="985.3501" y2="985.3501"/><text fill="#000000" font-family="Georgia" font-size="11" lengthAdjust="spacing" textLength="38.124" x="304.574" y="968.4399">200 OK</text><text fill="#000000" font-family="Georgia" font-size="11" lengthAdjust="spacing" textLength="149.6602" x="304.574" y="980.9385">{message: "Check your email"}</text></g><g class="message" data-entity-1="part2" data-entity-2="part1" id="msg22"><polygon fill="#181818" points="72.9485,1007.8486,62.9485,1011.8486,72.9485,1015.8486,68.9485,1011.8486" style="stroke:#181818;stroke-width:1;"/><line style="stroke:#181818;stroke-width:2;stroke-dasharray:2,2;" x1="66.9485" x2="286.574" y1="1011.8486" y2="1011.8486"/><text fill="#000000" font-family="Georgia" font-size="11" lengthAdjust="spacing" textLength="166.0259" x="78.9485" y="1007.437">Show "Check your email" message</text></g><rect fill="#EEEEEE" height="3" rx="5" ry="5" style="stroke:#EEEEEE;stroke-width:1;" width="971.8716" x="0" y="1046.0979"/><line style="stroke:#000000;stroke-width:1;" x1="0" x2="971.8716" y1="1046.0979" y2="1046.0979"/><line style="stroke:#000000;stroke-width:1;" x1="0" x2="971.8716" y1="1049.0979" y2="1049.0979"/><rect fill="#EEEEEE" height="20.4985" rx="5" ry="5" style="stroke:#000000;stroke-width:2;" width="193.749" x="389.0613" y="1036.8486"/><text fill="#000000" font-family="Georgia" font-size="11" font-weight="bold" lengthAdjust="spacing" textLength="176.9561" x="395.0613" y="1050.9355">Phase 2: Submit New Password</text><g class="message" data-entity-1="part1" data-entity-2="part2" id="msg23"><polygon fill="#181818" points="275.574,1094.3442,285.574,1098.3442,275.574,1102.3442,279.574,1098.3442" style="stroke:#181818;stroke-width:1;"/><line style="stroke:#181818;stroke-width:2;" x1="61.9485" x2="281.574" y1="1098.3442" y2="1098.3442"/><text fill="#000000" font-family="Georgia" font-size="11" lengthAdjust="spacing" textLength="114.0283" x="68.9485" y="1081.4341">Click reset link in email</text><text fill="#000000" font-family="Georgia" font-size="11" lengthAdjust="spacing" textLength="193.3862" x="68.9485" y="1093.9326">(GET /reset-password?token=&lt;token&gt;)</text></g><g class="message" data-entity-1="part2" data-entity-2="part3" id="msg24"><polygon fill="#181818" points="557.408,1120.8428,567.408,1124.8428,557.408,1128.8428,561.408,1124.8428" style="stroke:#181818;stroke-width:1;"/><line style="stroke:#181818;stroke-width:2;" x1="287.574" x2="563.408" y1="1124.8428" y2="1124.8428"/><text fill="#000000" font-family="Georgia" font-size="11" lengthAdjust="spacing" textLength="256.271" x="294.574" y="1120.4312">GET /api/auth/validate-reset-token?token=&lt;token&gt;</text></g><g class="message" data-entity-1="part3" data-entity-2="part4" id="msg25"><polygon fill="#181818" points="823.988,1159.8398,833.988,1163.8398,823.988,1167.8398,827.988,1163.8398" style="stroke:#181818;stroke-width:1;"/><line style="stroke:#181818;stroke-width:2;" x1="569.408" x2="829.988" y1="1163.8398" y2="1163.8398"/><text fill="#000000" font-family="Georgia" font-size="11" lengthAdjust="spacing" textLength="149.8535" x="576.408" y="1146.9297">SELECT * FROM reset_tokens</text><text fill="#000000" font-family="Georgia" font-size="11" lengthAdjust="spacing" textLength="218.2383" x="576.408" y="1159.4282">WHERE token = ? AND expires_at &gt; NOW()</text></g><g class="message" data-entity-1="part4" data-entity-2="part3" id="msg26"><polygon fill="#181818" points="580.408,1186.3384,570.408,1190.3384,580.408,1194.3384,576.408,1190.3384" style="stroke:#181818;stroke-width:1;"/><line style="stroke:#181818;stroke-width:2;stroke-dasharray:2,2;" x1="574.408" x2="834.988" y1="1190.3384" y2="1190.3384"/><text fill="#000000" font-family="Georgia" font-size="11" lengthAdjust="spacing" textLength="64.668" x="586.408" y="1185.9268">Token record</text></g><path d="M15,1205.3384 L69.7114,1205.3384 L69.7114,1209.8369 L59.7114,1219.8369 L10,1219.8369 L10,1210.3384 A5,5 0 0 1 15,1205.3384" fill="#EEEEEE" style="stroke:#000000;stroke-width:1.5;"/><rect fill="none" height="513.4663" rx="5" ry="5" style="stroke:#000000;stroke-width:1.5;" width="861.4365" x="10" y="1205.3384"/><text fill="#000000" font-family="Georgia" font-size="11" font-weight="bold" lengthAdjust="spacing" textLength="14.7114" x="25" y="1216.4253">alt</text><text fill="#000000" font-family="Georgia" font-size="11" font-weight="bold" lengthAdjust="spacing" textLength="227.1382" x="84.7114" y="1217.4253">[Token invalid or expired [UC-05.AC.2]]</text><g class="message" data-entity-1="part3" data-entity-2="part2" id="msg27"><polygon fill="#181818" points="298.574,1246.834,288.574,1250.834,298.574,1254.834,294.574,1250.834" style="stroke:#181818;stroke-width:1;"/><line style="stroke:#181818;stroke-width:2;stroke-dasharray:2,2;" x1="292.574" x2="568.408" y1="1250.834" y2="1250.834"/><text fill="#000000" font-family="Georgia" font-size="11" lengthAdjust="spacing" textLength="83.4614" x="304.574" y="1233.9238">400 Bad Request</text><text fill="#000000" font-family="Georgia" font-size="11" lengthAdjust="spacing" textLength="186.0225" x="304.574" y="1246.4224">{error: "Reset link expired or invalid"}</text></g><g class="message" data-entity-1="part2" data-entity-2="part1" id="msg28"><polygon fill="#181818" points="72.9485,1273.3325,62.9485,1277.3325,72.9485,1281.3325,68.9485,1277.3325" style="stroke:#181818;stroke-width:1;"/><line style="stroke:#181818;stroke-width:2;stroke-dasharray:2,2;" x1="66.9485" x2="286.574" y1="1277.3325" y2="1277.3325"/><text fill="#000000" font-family="Georgia" font-size="11" lengthAdjust="spacing" textLength="201.6255" x="78.9485" y="1272.9209">Show error + "Resend reset email" option</text></g><line style="stroke:#000000;stroke-width:1;stroke-dasharray:2,2;" x1="10" x2="871.4365" y1="1286.3325" y2="1286.3325"/><text fill="#000000" font-family="Georgia" font-size="11" font-weight="bold" lengthAdjust="spacing" textLength="75.7271" x="15" y="1296.4194">[Token valid]</text><g class="message" data-entity-1="part3" data-entity-2="part2" id="msg29"><polygon fill="#181818" points="298.574,1326.8281,288.574,1330.8281,298.574,1334.8281,294.574,1330.8281" style="stroke:#181818;stroke-width:1;"/><line style="stroke:#181818;stroke-width:2;stroke-dasharray:2,2;" x1="292.574" x2="568.408" y1="1330.8281" y2="1330.8281"/><text fill="#000000" font-family="Georgia" font-size="11" lengthAdjust="spacing" textLength="38.124" x="304.574" y="1313.918">200 OK</text><text fill="#000000" font-family="Georgia" font-size="11" lengthAdjust="spacing" textLength="59.1948" x="304.574" y="1326.4165">{valid: true}</text></g><g class="message" data-entity-1="part2" data-entity-2="part1" id="msg30"><polygon fill="#181818" points="72.9485,1353.3267,62.9485,1357.3267,72.9485,1361.3267,68.9485,1357.3267" style="stroke:#181818;stroke-width:1;"/><line style="stroke:#181818;stroke-width:2;stroke-dasharray:2,2;" x1="66.9485" x2="286.574" y1="1357.3267" y2="1357.3267"/><text fill="#000000" font-family="Georgia" font-size="11" lengthAdjust="spacing" textLength="162.5776" x="78.9485" y="1352.915">Display new password entry form</text></g><g class="message" data-entity-1="part1" data-entity-2="part2" id="msg31"><polygon fill="#181818" points="275.574,1379.8252,285.574,1383.8252,275.574,1387.8252,279.574,1383.8252" style="stroke:#181818;stroke-width:1;"/><line style="stroke:#181818;stroke-width:2;" x1="61.9485" x2="281.574" y1="1383.8252" y2="1383.8252"/><text fill="#000000" font-family="Georgia" font-size="11" lengthAdjust="spacing" textLength="160.8213" x="68.9485" y="1379.4136">Enter and confirm new password</text></g><g class="message" data-entity-1="part2" data-entity-2="part3" id="msg32"><polygon fill="#181818" points="557.408,1418.8223,567.408,1422.8223,557.408,1426.8223,561.408,1422.8223" style="stroke:#181818;stroke-width:1;"/><line style="stroke:#181818;stroke-width:2;" x1="287.574" x2="563.408" y1="1422.8223" y2="1422.8223"/><text fill="#000000" font-family="Georgia" font-size="11" lengthAdjust="spacing" textLength="157.1152" x="294.574" y="1405.9121">POST /api/auth/reset-password</text><text fill="#000000" font-family="Georgia" font-size="11" lengthAdjust="spacing" textLength="109.0654" x="294.574" y="1418.4106">{token, newPassword}</text></g><g class="message" data-entity-1="part3" data-entity-2="part3" id="msg33"><line style="stroke:#181818;stroke-width:2;" x1="569.408" x2="611.408" y1="1461.8193" y2="1461.8193"/><line style="stroke:#181818;stroke-width:2;" x1="611.408" x2="611.408" y1="1461.8193" y2="1474.8193"/><line style="stroke:#181818;stroke-width:2;" x1="570.408" x2="611.408" y1="1474.8193" y2="1474.8193"/><polygon fill="#181818" points="580.408,1470.8193,570.408,1474.8193,580.408,1478.8193,576.408,1474.8193" style="stroke:#181818;stroke-width:1;"/><text fill="#000000" font-family="Georgia" font-size="11" lengthAdjust="spacing" textLength="89.0688" x="576.408" y="1444.9092">Validate password</text><text fill="#000000" font-family="Georgia" font-size="11" lengthAdjust="spacing" textLength="128.584" x="576.408" y="1457.4077">meets policy requirements</text></g><g class="message" data-entity-1="part3" data-entity-2="part3" id="msg34"><line style="stroke:#181818;stroke-width:2;" x1="569.408" x2="611.408" y1="1501.3179" y2="1501.3179"/><line style="stroke:#181818;stroke-width:2;" x1="611.408" x2="611.408" y1="1501.3179" y2="1514.3179"/><line style="stroke:#181818;stroke-width:2;" x1="570.408" x2="611.408" y1="1514.3179" y2="1514.3179"/><polygon fill="#181818" points="580.408,1510.3179,570.408,1514.3179,580.408,1518.3179,576.408,1514.3179" style="stroke:#181818;stroke-width:1;"/><text fill="#000000" font-family="Georgia" font-size="11" lengthAdjust="spacing" textLength="132.0215" x="576.408" y="1496.9063">bcrypt.hash(newPassword)</text></g><g class="message" data-entity-1="part3" data-entity-2="part4" id="msg35"><polygon fill="#181818" points="823.988,1549.3149,833.988,1553.3149,823.988,1557.3149,827.988,1553.3149" style="stroke:#181818;stroke-width:1;"/><line style="stroke:#181818;stroke-width:2;" x1="569.408" x2="829.988" y1="1553.3149" y2="1553.3149"/><text fill="#000000" font-family="Georgia" font-size="11" lengthAdjust="spacing" textLength="95.7666" x="576.408" y="1536.4048">UPDATE users SET</text><text fill="#000000" font-family="Georgia" font-size="11" lengthAdjust="spacing" textLength="242.5801" x="576.408" y="1548.9033">hashed_password = ? WHERE id = token.user_id</text></g><g class="message" data-entity-1="part4" data-entity-2="part3" id="msg36"><polygon fill="#181818" points="580.408,1575.8135,570.408,1579.8135,580.408,1583.8135,576.408,1579.8135" style="stroke:#181818;stroke-width:1;"/><line style="stroke:#181818;stroke-width:2;stroke-dasharray:2,2;" x1="574.408" x2="834.988" y1="1579.8135" y2="1579.8135"/><text fill="#000000" font-family="Georgia" font-size="11" lengthAdjust="spacing" textLength="89.1763" x="586.408" y="1575.4019">Password updated</text></g><g class="message" data-entity-1="part3" data-entity-2="part4" id="msg37"><polygon fill="#181818" points="823.988,1614.8105,833.988,1618.8105,823.988,1622.8105,827.988,1618.8105" style="stroke:#181818;stroke-width:1;"/><line style="stroke:#181818;stroke-width:2;" x1="569.408" x2="829.988" y1="1618.8105" y2="1618.8105"/><text fill="#000000" font-family="Georgia" font-size="11" lengthAdjust="spacing" textLength="144.1978" x="576.408" y="1601.9004">DELETE FROM reset_tokens</text><text fill="#000000" font-family="Georgia" font-size="11" lengthAdjust="spacing" textLength="89.52" x="576.408" y="1614.3989">WHERE token = ?</text></g><g class="message" data-entity-1="part4" data-entity-2="part3" id="msg38"><polygon fill="#181818" points="580.408,1641.3091,570.408,1645.3091,580.408,1649.3091,576.408,1645.3091" style="stroke:#181818;stroke-width:1;"/><line style="stroke:#181818;stroke-width:2;stroke-dasharray:2,2;" x1="574.408" x2="834.988" y1="1645.3091" y2="1645.3091"/><text fill="#000000" font-family="Georgia" font-size="11" lengthAdjust="spacing" textLength="87.4844" x="586.408" y="1640.8975">Token invalidated</text></g><g class="message" data-entity-1="part3" data-entity-2="part2" id="msg39"><polygon fill="#181818" points="298.574,1680.3062,288.574,1684.3062,298.574,1688.3062,294.574,1684.3062" style="stroke:#181818;stroke-width:1;"/><line style="stroke:#181818;stroke-width:2;stroke-dasharray:2,2;" x1="292.574" x2="568.408" y1="1684.3062" y2="1684.3062"/><text fill="#000000" font-family="Georgia" font-size="11" lengthAdjust="spacing" textLength="38.124" x="304.574" y="1667.396">200 OK</text><text fill="#000000" font-family="Georgia" font-size="11" lengthAdjust="spacing" textLength="190.1528" x="304.574" y="1679.8945">{message: "Password reset successful"}</text></g><g class="message" data-entity-1="part2" data-entity-2="part1" id="msg40"><polygon fill="#181818" points="72.9485,1706.8047,62.9485,1710.8047,72.9485,1714.8047,68.9485,1710.8047" style="stroke:#181818;stroke-width:1;"/><line style="stroke:#181818;stroke-width:2;stroke-dasharray:2,2;" x1="66.9485" x2="286.574" y1="1710.8047" y2="1710.8047"/><text fill="#000000" font-family="Georgia" font-size="11" lengthAdjust="spacing" textLength="109.5166" x="78.9485" y="1706.3931">Redirect to Login page</text></g><?plantuml-src jLNRRkCs47tNLmpy5BU-PjSlHfs5Oojfq6qI-D8jK1S18urj8ZAf9QbutIB_tY4fsLBiP8i23H1O4kVCzSoXuIP1c8-QdLuV9gZHm3tJUYjL36TNKgtauKCz2FGJ5obJR0CQlsOe8Xmg9RUpDO-U16eDvoKJ9JCHHr89LD3jb0vYNB8iCLTIc5ksGRX62iJPQOif_mkXsmq25Xcfe3RNg1RYRDZfjeUTS_h_KAy1qs2_1uGsFE8f4mPgLuhWA6AodY2XlTrLMBMwPD6JDnfsFdeJUWXYPjWZqmYrSVxaZiQNLNIuOJo1AQfd7g7pqIjyz89WC83xjNNIjSsbXccJDtam20ARCJGlA2FemoYX5bBErPRN0ZfiaespxSEOwpHXEq0N5eLHErXAjNdbBAIw5IXSSKqF6EVsB8uL3SdvlB1LakdztNG6RPRoDilCkhrqyPjf7dyX_dRGbo2mveGQNn9e6duEHpFu0QucTxz2Hg4rVFavd8Hve05y2iYmkO_YibCOELhH54MM94Gd8Gs2VAOpRpR5A5FSxFemJBPifmbYCYKMOeL48Xv1BLeZjMadC-L3rHPYGoMn5TfocOeJoqAvf3TD12BM90Rya2WOzOee2NyulhU6erRtpm3epzLMDE-yqu6xNwZot74VQZTBC6jcYhP_exRg1Z18k7W26Z0y8WfQ2M5gByvXTMhJjTp2gn9yzf37230XblWyjISJP88zqpjxf0NDCmv_hsHSTFVQkcR6ji1ooqWYD9nrrzIZRobNktePuWPuSpiD9pFwcTrvq8C3QMAmdUO3ZnlUJSExGFt0JBqQkUS6HktqKLr1X3UoxvyRkMVRf0BQAt4Y9ELGq8OPtw3Cp75Pd-KAq1eTpwZN-L0i7SmFVR9qjG0QsKXcIUnchb_bs88PRGrRCIuWeQwfrjj3SzxWHyj3miZKS2dAit9yQkn7ja_adHaLgrKU5hLjFhyPD-1_cbbb5sUE7fh45EF_Fb7OShFsyKuEDwUoCFzgmKQlr_hDYHoR7dP8n2N9FIT0zhZX1cvnUxZKtX1UNx4hZ6XHL7uTaZQwexqYVd8b3tvoFnVrYfOwyxsKFhE4qos2JU_00QhezqIrEc4lhdwnILnXU3ik3HakuFRkorazE35dBxfU1_qNBbnc87EgOLaGpqy8uaUQroMBYnkij6IJGzSAL-Gr3_3zhNBuAjrgbINp2Jjlxz38dVV1g0nFXIpkJ44qs2zV-Ugqa1FN9wFC8YcMN6qgs7s8DwxGAbyeltmfoKV1mfVWM21-o-a21-G6qMX89J5qHqtwcb67DvIvFW5_ZDGkDIsY_lgi5EbOHkRtu-4ip2_jQJXR28l1-67V6qimJpXkNrpwhLnYZkLalrbPQjEFWwE8Oo8sHVm-hT_IgfnGhxo_8oVtLOtLMHJHsJ8xhIiJZAcnaTLYU-VG_gU5dFm3?></g></svg>