<?plantuml 1.2026.2?><svg xmlns="http://www.w3.org/2000/svg" xmlns:xlink="http://www.w3.org/1999/xlink" contentStyleType="text/css" data-diagram-type="SEQUENCE" height="669px" preserveAspectRatio="none" style="width:593px;height:669px;background:#FFFFFF;" version="1.1" viewBox="0 0 593 669" width="593px" zoomAndPan="magnify"><title>UC-04: Log Out</title><defs/><g><text fill="#000000" font-family="Georgia" font-size="14" font-weight="bold" lengthAdjust="spacing" textLength="111.2344" x="242.491" y="27.8379">UC-04: Log Out</text><rect fill="none" height="125.4927" rx="5" ry="5" style="stroke:#000000;stroke-width:1.5;" width="311.2163" x="276" y="235.8984"/><g class="participant-lifeline" data-entity-uid="part1" data-qualified-name="User" id="part1-lifeline"><g><title>User</title><rect fill="#000000" fill-opacity="0.00000" height="453.4751" width="8" x="42.9485" y="126.9043"/><line style="stroke:#181818;stroke-width:0.5;stroke-dasharray:5,5;" x1="46" x2="46" y1="126.9043" y2="580.3794"/></g></g><g class="participant-lifeline" data-entity-uid="part2" data-qualified-name="FE" id="part2-lifeline"><g><title>Frontend</title><rect fill="#000000" fill-opacity="0.00000" height="453.4751" width="8" x="208.5305" y="126.9043"/><line style="stroke:#181818;stroke-width:0.5;stroke-dasharray:5,5;" x1="211.8027" x2="211.8027" y1="126.9043" y2="580.3794"/></g></g><g class="participant-lifeline" data-entity-uid="part3" data-qualified-name="A04" id="part3-lifeline"><g><title>Backend</title><rect fill="#000000" fill-opacity="0.00000" height="453.4751" width="8" x="364.2244" y="126.9043"/><line style="stroke:#181818;stroke-width:0.5;stroke-dasharray:5,5;" x1="367.3469" x2="367.3469" y1="126.9043" y2="580.3794"/></g></g><g class="participant-lifeline" data-entity-uid="part4" data-qualified-name="SS" id="part4-lifeline"><g><title>Session Store</title><rect fill="#000000" fill-opacity="0.00000" height="453.4751" width="8" x="517.8567" y="126.9043"/><line style="stroke:#181818;stroke-width:0.5;stroke-dasharray:5,5;" x1="521.3455" x2="521.3455" y1="126.9043" y2="580.3794"/></g></g><g class="participant participant-head" data-entity-uid="part1" data-qualified-name="User" id="part1-head"><text fill="#000000" font-family="Georgia" font-size="11" lengthAdjust="spacing" textLength="22.897" x="32.5" y="111.9941">User</text><text fill="#000000" font-family="Georgia" font-size="11" lengthAdjust="spacing" textLength="77.897" x="5" y="124.4927">(A01/A02/A03)</text><ellipse cx="46.9485" cy="50.4072" fill="#E2E2F0" rx="8" ry="8" style="stroke:#181818;stroke-width:0.5;"/><path d="M46.9485,58.4072 L46.9485,85.4072 M33.9485,66.4072 L59.9485,66.4072 M46.9485,85.4072 L33.9485,100.4072 M46.9485,85.4072 L59.9485,100.4072" fill="none" style="stroke:#181818;stroke-width:0.5;"/></g><g class="participant participant-tail" data-entity-uid="part1" data-qualified-name="User" id="part1-tail"><text fill="#000000" font-family="Georgia" font-size="11" lengthAdjust="spacing" textLength="22.897" x="32.5" y="589.4663">User</text><text fill="#000000" font-family="Georgia" font-size="11" lengthAdjust="spacing" textLength="77.897" x="5" y="601.9648">(A01/A02/A03)</text><ellipse cx="46.9485" cy="612.8765" fill="#E2E2F0" rx="8" ry="8" style="stroke:#181818;stroke-width:0.5;"/><path d="M46.9485,620.8765 L46.9485,647.8765 M33.9485,628.8765 L59.9485,628.8765 M46.9485,647.8765 L33.9485,662.8765 M46.9485,647.8765 L59.9485,662.8765" fill="none" style="stroke:#181818;stroke-width:0.5;"/></g><g class="participant participant-head" data-entity-uid="part2" data-qualified-name="FE" id="part2-head"><rect fill="#E2E2F0" height="38.9971" rx="5" ry="5" style="stroke:#181818;stroke-width:0.5;" width="59.4556" x="182.8027" y="86.9072"/><text fill="#000000" font-family="Georgia" font-size="11" lengthAdjust="spacing" textLength="45.4556" x="189.8027" y="103.9941">Frontend</text><text fill="#000000" font-family="Georgia" font-size="11" lengthAdjust="spacing" textLength="35.6211" x="194.72" y="116.4927">(React)</text></g><g class="participant participant-tail" data-entity-uid="part2" data-qualified-name="FE" id="part2-tail"><rect fill="#E2E2F0" height="38.9971" rx="5" ry="5" style="stroke:#181818;stroke-width:0.5;" width="59.4556" x="182.8027" y="579.3794"/><text fill="#000000" font-family="Georgia" font-size="11" lengthAdjust="spacing" textLength="45.4556" x="189.8027" y="596.4663">Frontend</text><text fill="#000000" font-family="Georgia" font-size="11" lengthAdjust="spacing" textLength="35.6211" x="194.72" y="608.9648">(React)</text></g><g class="participant participant-head" data-entity-uid="part3" data-qualified-name="A04" id="part3-head"><rect fill="#E2E2F0" height="38.9971" rx="5" ry="5" style="stroke:#181818;stroke-width:0.5;" width="55.7549" x="340.3469" y="86.9072"/><text fill="#000000" font-family="Georgia" font-size="11" lengthAdjust="spacing" textLength="41.7549" x="347.3469" y="103.9941">Backend</text><text fill="#000000" font-family="Georgia" font-size="11" lengthAdjust="spacing" textLength="28.5957" x="353.9265" y="116.4927">(A04)</text></g><g class="participant participant-tail" data-entity-uid="part3" data-qualified-name="A04" id="part3-tail"><rect fill="#E2E2F0" height="38.9971" rx="5" ry="5" style="stroke:#181818;stroke-width:0.5;" width="55.7549" x="340.3469" y="579.3794"/><text fill="#000000" font-family="Georgia" font-size="11" lengthAdjust="spacing" textLength="41.7549" x="347.3469" y="596.4663">Backend</text><text fill="#000000" font-family="Georgia" font-size="11" lengthAdjust="spacing" textLength="28.5957" x="353.9265" y="608.9648">(A04)</text></g><g class="participant participant-head" data-entity-uid="part4" data-qualified-name="SS" id="part4-head"><text fill="#000000" font-family="Georgia" font-size="11" lengthAdjust="spacing" textLength="65.0225" x="486.3455" y="111.9941">Session Store</text><text fill="#000000" font-family="Georgia" font-size="11" lengthAdjust="spacing" textLength="56.1655" x="490.7739" y="124.4927">(Redis/DB)</text><path d="M503.8567,65.9072 C503.8567,55.9072 521.8567,55.9072 521.8567,55.9072 C521.8567,55.9072 539.8567,55.9072 539.8567,65.9072 L539.8567,91.9072 C539.8567,101.9072 521.8567,101.9072 521.8567,101.9072 C521.8567,101.9072 503.8567,101.9072 503.8567,91.9072 L503.8567,65.9072" fill="#E2E2F0" style="stroke:#181818;stroke-width:0.5;"/><path d="M503.8567,65.9072 C503.8567,75.9072 521.8567,75.9072 521.8567,75.9072 C521.8567,75.9072 539.8567,75.9072 539.8567,65.9072" fill="none" style="stroke:#181818;stroke-width:0.5;"/></g><g class="participant participant-tail" data-entity-uid="part4" data-qualified-name="SS" id="part4-tail"><text fill="#000000" font-family="Georgia" font-size="11" lengthAdjust="spacing" textLength="65.0225" x="486.3455" y="589.4663">Session Store</text><text fill="#000000" font-family="Georgia" font-size="11" lengthAdjust="spacing" textLength="56.1655" x="490.7739" y="601.9648">(Redis/DB)</text><path d="M503.8567,614.3765 C503.8567,604.3765 521.8567,604.3765 521.8567,604.3765 C521.8567,604.3765 539.8567,604.3765 539.8567,614.3765 L539.8567,640.3765 C539.8567,650.3765 521.8567,650.3765 521.8567,650.3765 C521.8567,650.3765 503.8567,650.3765 503.8567,640.3765 L503.8567,614.3765" fill="#E2E2F0" style="stroke:#181818;stroke-width:0.5;"/><path d="M503.8567,614.3765 C503.8567,624.3765 521.8567,624.3765 521.8567,624.3765 C521.8567,624.3765 539.8567,624.3765 539.8567,614.3765" fill="none" style="stroke:#181818;stroke-width:0.5;"/></g><g class="message" data-entity-1="part1" data-entity-2="part2" id="msg1"><polygon fill="#181818" points="200.5305,151.4028,210.5305,155.4028,200.5305,159.4028,204.5305,155.4028" style="stroke:#181818;stroke-width:1;"/><line style="stroke:#181818;stroke-width:2;" x1="46.9485" x2="206.5305" y1="155.4028" y2="155.4028"/><text fill="#000000" font-family="Georgia" font-size="11" lengthAdjust="spacing" textLength="141.582" x="53.9485" y="150.9912">Click "Log Out" in user menu</text></g><g class="message" data-entity-1="part2" data-entity-2="part3" id="msg2"><polygon fill="#181818" points="356.2244,190.3999,366.2244,194.3999,356.2244,198.3999,360.2244,194.3999" style="stroke:#181818;stroke-width:1;"/><line style="stroke:#181818;stroke-width:2;" x1="212.5305" x2="362.2244" y1="194.3999" y2="194.3999"/><text fill="#000000" font-family="Georgia" font-size="11" lengthAdjust="spacing" textLength="113.8457" x="219.5305" y="177.4897">POST /api/auth/logout</text><text fill="#000000" font-family="Georgia" font-size="11" lengthAdjust="spacing" textLength="131.6938" x="219.5305" y="189.9883">(with session token cookie)</text></g><g class="message" data-entity-1="part3" data-entity-2="part4" id="msg3"><polygon fill="#181818" points="509.8567,216.8984,519.8567,220.8984,509.8567,224.8984,513.8567,220.8984" style="stroke:#181818;stroke-width:1;"/><line style="stroke:#181818;stroke-width:2;" x1="368.2244" x2="515.8567" y1="220.8984" y2="220.8984"/><text fill="#000000" font-family="Georgia" font-size="11" lengthAdjust="spacing" textLength="121.4619" x="375.2244" y="216.4868">DELETE session:{token}</text></g><path d="M281,235.8984 L335.7114,235.8984 L335.7114,240.397 L325.7114,250.397 L276,250.397 L276,240.8984 A5,5 0 0 1 281,235.8984" fill="#EEEEEE" style="stroke:#000000;stroke-width:1.5;"/><rect fill="none" height="125.4927" rx="5" ry="5" style="stroke:#000000;stroke-width:1.5;" width="311.2163" x="276" y="235.8984"/><text fill="#000000" font-family="Georgia" font-size="11" font-weight="bold" lengthAdjust="spacing" textLength="14.7114" x="291" y="246.9854">alt</text><text fill="#000000" font-family="Georgia" font-size="11" font-weight="bold" lengthAdjust="spacing" textLength="231.5049" x="350.7114" y="247.9854">[Session store unavailable [UC-04.EX.1]]</text><g class="message" data-entity-1="part4" data-entity-2="part3" id="msg4"><polygon fill="#181818" points="379.2244,264.8955,369.2244,268.8955,379.2244,272.8955,375.2244,268.8955" style="stroke:#181818;stroke-width:1;"/><line style="stroke:#181818;stroke-width:2;stroke-dasharray:2,2;" x1="373.2244" x2="520.8567" y1="268.8955" y2="268.8955"/><text fill="#000000" font-family="Georgia" font-size="11" lengthAdjust="spacing" textLength="78.187" x="385.2244" y="264.4839">Error / Timeout</text></g><g class="message" data-entity-1="part3" data-entity-2="part3" id="msg5"><line style="stroke:#181818;stroke-width:2;" x1="368.2244" x2="410.2244" y1="295.394" y2="295.394"/><line style="stroke:#181818;stroke-width:2;" x1="410.2244" x2="410.2244" y1="295.394" y2="308.394"/><line style="stroke:#181818;stroke-width:2;" x1="369.2244" x2="410.2244" y1="308.394" y2="308.394"/><polygon fill="#181818" points="379.2244,304.394,369.2244,308.394,379.2244,312.394,375.2244,308.394" style="stroke:#181818;stroke-width:1;"/><text fill="#000000" font-family="Georgia" font-size="11" lengthAdjust="spacing" textLength="45.5898" x="375.2244" y="290.9824">Log error</text></g><path d="M286,326.394 L286,350.394 A5,5 0 0 0 291,355.394 L445,355.394 A5,5 0 0 0 450,350.394 L450,331.394 L440,321.394 L291,321.394 A5,5 0 0 0 286,326.394" fill="#FEFFDD" style="stroke:#181818;stroke-width:0.5;"/><path d="M440,321.394 L440,328.894 A2.5,2.5 0 0 0 442.5,331.394 L450,331.394 L440,321.394" fill="#FEFFDD" style="stroke:#181818;stroke-width:0.5;"/><text fill="#000000" font-family="Georgia" font-size="11" lengthAdjust="spacing" textLength="103.5869" x="292" y="336.481">Proceed regardless &#8212;</text><text fill="#000000" font-family="Georgia" font-size="11" lengthAdjust="spacing" textLength="143.1611" x="292" y="348.9795">client-side cookie still cleared</text><g class="message" data-entity-1="part3" data-entity-2="part3" id="msg6"><line style="stroke:#181818;stroke-width:2;" x1="368.2244" x2="410.2244" y1="386.8896" y2="386.8896"/><line style="stroke:#181818;stroke-width:2;" x1="410.2244" x2="410.2244" y1="386.8896" y2="399.8896"/><line style="stroke:#181818;stroke-width:2;" x1="369.2244" x2="410.2244" y1="399.8896" y2="399.8896"/><polygon fill="#181818" points="379.2244,395.8896,369.2244,399.8896,379.2244,403.8896,375.2244,399.8896" style="stroke:#181818;stroke-width:1;"/><text fill="#000000" font-family="Georgia" font-size="11" lengthAdjust="spacing" textLength="139.6323" x="375.2244" y="382.478">Clear any user-specific cache</text></g><g class="message" data-entity-1="part3" data-entity-2="part2" id="msg7"><polygon fill="#181818" points="223.5305,434.8867,213.5305,438.8867,223.5305,442.8867,219.5305,438.8867" style="stroke:#181818;stroke-width:1;"/><line style="stroke:#181818;stroke-width:2;stroke-dasharray:2,2;" x1="217.5305" x2="367.2244" y1="438.8867" y2="438.8867"/><text fill="#000000" font-family="Georgia" font-size="11" lengthAdjust="spacing" textLength="38.124" x="229.5305" y="421.9766">200 OK</text><text fill="#000000" font-family="Georgia" font-size="11" lengthAdjust="spacing" textLength="108.8291" x="229.5305" y="434.4751">+ Clear-Cookie header</text></g><g class="message" data-entity-1="part2" data-entity-2="part2" id="msg8"><line style="stroke:#181818;stroke-width:2;" x1="212.5305" x2="254.5305" y1="465.3853" y2="465.3853"/><line style="stroke:#181818;stroke-width:2;" x1="254.5305" x2="254.5305" y1="465.3853" y2="478.3853"/><line style="stroke:#181818;stroke-width:2;" x1="213.5305" x2="254.5305" y1="478.3853" y2="478.3853"/><polygon fill="#181818" points="223.5305,474.3853,213.5305,478.3853,223.5305,482.3853,219.5305,478.3853" style="stroke:#181818;stroke-width:1;"/><text fill="#000000" font-family="Georgia" font-size="11" lengthAdjust="spacing" textLength="114.7373" x="219.5305" y="460.9736">Clear local session state</text></g><g class="message" data-entity-1="part2" data-entity-2="part1" id="msg9"><polygon fill="#181818" points="57.9485,500.8838,47.9485,504.8838,57.9485,508.8838,53.9485,504.8838" style="stroke:#181818;stroke-width:1;"/><line style="stroke:#181818;stroke-width:2;stroke-dasharray:2,2;" x1="51.9485" x2="211.5305" y1="504.8838" y2="504.8838"/><text fill="#000000" font-family="Georgia" font-size="11" lengthAdjust="spacing" textLength="109.5166" x="63.9485" y="500.4722">Redirect to Login page</text></g><path d="M186,522.8838 L186,559.8838 A5,5 0 0 0 191,564.8838 L389,564.8838 A5,5 0 0 0 394,559.8838 L394,527.8838 L384,517.8838 L191,517.8838 A5,5 0 0 0 186,522.8838" fill="#FEFFDD" style="stroke:#181818;stroke-width:0.5;"/><path d="M384,517.8838 L384,525.3838 A2.5,2.5 0 0 0 386.5,527.8838 L394,527.8838 L384,517.8838" fill="#FEFFDD" style="stroke:#181818;stroke-width:0.5;"/><text fill="#000000" font-family="Georgia" font-size="11" lengthAdjust="spacing" textLength="113.894" x="212.3234" y="532.9707">All protected routes are</text><text fill="#000000" font-family="Georgia" font-size="11" lengthAdjust="spacing" textLength="146.6523" x="212.3234" y="545.4692">inaccessible immediately after</text><text fill="#000000" font-family="Georgia" font-size="11" lengthAdjust="spacing" textLength="96.2876" x="212.3234" y="557.9678">session invalidation</text><?plantuml-src RPBFRjD04CRl-nGZdwZ0jHDwoW4fJHqEL0JXL48Y7ARhIJBAPjVihbiLXCH3y8Gy2REs4ug4fKXsvZT_lcycSZG4Tukyl9h1hTl1gejAXGFR5ZqU8T3NZgockVVkSRrdVR0K0aoV8Tvrjj7EM_8mAPy56jfYP-BIsVWUZmHloVaTu_-9chyHJ2PAeOxEGtONo6_iYtavAURbL7wlBpB00Eb_9TcHDRTe8sHBB-ba6w4_acGFtBBwbxf6VHYWUNar8FAY6enuZu4WgqKNEmkrjAU-LiEXkBaUsBfMAhM6_8sKXXaiZ7W1sMXP1coXI_4ZsKu98PpK5_33gbv3WIqNsCLzOTpETL7gFtBSYxr3q-XaED3E7PWkb4gPKg2k9V-ckgtMrOcSVU_H7-AJYN2QEQIPeRFuW6pmNZRwkL_fPVNfSl95WJnIAp_FLCasFHImvYF9D3qmzXo098iIr8UiYmJkGTIDahpJH0rusg5lJ3g8tpz_RQmsJ3RcWHiQjSXaR0neG-YfKRA0ixYXr2950ErJxruUMjAyPGqQzPu6zEJuj2nXzMvZNmv9-MBei2Tiv2H6pyVTfAB6QJHdXqF4I3qaLB_96QGLUz9Hx4-APOKjxaYfltgNrQjnqBd8QBq4T4pAnJKAWEbIsABMgKlodOz7AIgjp1FWDgORFat0zW4Doy79X_e3?></g></svg>