<?plantuml 1.2026.2?><svg xmlns="http://www.w3.org/2000/svg" xmlns:xlink="http://www.w3.org/1999/xlink" contentStyleType="text/css" data-diagram-type="SEQUENCE" height="1174px" preserveAspectRatio="none" style="width:899px;height:1174px;background:#FFFFFF;" version="1.1" viewBox="0 0 899 1174" width="899px" zoomAndPan="magnify"><title>UC-01: Register Account</title><defs/><g><text fill="#000000" font-family="Georgia" font-size="14" font-weight="bold" lengthAdjust="spacing" textLength="175.2188" x="363.1899" y="27.8379">UC-01: Register Account</text><rect fill="none" height="675.4546" rx="5" ry="5" style="stroke:#000000;stroke-width:1.5;" width="882.5986" x="10" y="392.3882"/><rect fill="none" height="252.4839" rx="5" ry="5" style="stroke:#000000;stroke-width:1.5;" width="862.5986" x="20" y="808.3589"/><g class="participant-lifeline" data-entity-uid="part1" data-qualified-name="User" id="part1-lifeline"><g><title>.u.User</title><rect fill="#000000" fill-opacity="0.00000" height="957.9385" width="8" x="67.9485" y="126.9043"/><line style="stroke:#181818;stroke-width:0.5;stroke-dasharray:5,5;" x1="71" x2="71" y1="126.9043" y2="1084.8428"/></g></g><g class="participant-lifeline" data-entity-uid="part2" data-qualified-name="FE" id="part2-lifeline"><g><title>.u.Frontend</title><rect fill="#000000" fill-opacity="0.00000" height="957.9385" width="8" x="290.3997" y="126.9043"/><line style="stroke:#181818;stroke-width:0.5;stroke-dasharray:5,5;" x1="293.6719" x2="293.6719" y1="126.9043" y2="1084.8428"/></g></g><g class="participant-lifeline" data-entity-uid="part3" data-qualified-name="A04" id="part3-lifeline"><g><title>.u.Backend</title><rect fill="#000000" fill-opacity="0.00000" height="957.9385" width="8" x="524.5007" y="126.9043"/><line style="stroke:#181818;stroke-width:0.5;stroke-dasharray:5,5;" x1="527.6233" x2="527.6233" y1="126.9043" y2="1084.8428"/></g></g><g class="participant-lifeline" data-entity-uid="part4" data-qualified-name="DB" id="part4-lifeline"><g><title>.u.Database</title><rect fill="#000000" fill-opacity="0.00000" height="957.9385" width="8" x="752.7151" y="126.9043"/><line style="stroke:#181818;stroke-width:0.5;stroke-dasharray:5,5;" x1="756.2666" x2="756.2666" y1="126.9043" y2="1084.8428"/></g></g><g class="participant-lifeline" data-entity-uid="part5" data-qualified-name="A05" id="part5-lifeline"><g><title>.u.Email Service</title><rect fill="#000000" fill-opacity="0.00000" height="957.9385" width="8" x="828.3811" y="126.9043"/><line style="stroke:#181818;stroke-width:0.5;stroke-dasharray:5,5;" x1="832.1636" x2="832.1636" y1="126.9043" y2="1084.8428"/></g></g><g class="participant participant-head" data-entity-uid="part1" data-qualified-name="User" id="part1-head"><text fill="#000000" font-family="Georgia" font-size="11" lengthAdjust="spacing" text-decoration="underline" textLength="22.897" x="57.5" y="111.9941">User</text><text fill="#000000" font-family="Georgia" font-size="11" lengthAdjust="spacing" text-decoration="underline" textLength="77.897" x="30" y="124.4927">(A01/A02/A03)</text><ellipse cx="71.9485" cy="50.4072" fill="#E2E2F0" rx="8" ry="8" style="stroke:#181818;stroke-width:0.5;"/><path d="M71.9485,58.4072 L71.9485,85.4072 M58.9485,66.4072 L84.9485,66.4072 M71.9485,85.4072 L58.9485,100.4072 M71.9485,85.4072 L84.9485,100.4072" fill="none" style="stroke:#181818;stroke-width:0.5;"/></g><g class="participant participant-tail" data-entity-uid="part1" data-qualified-name="User" id="part1-tail"><text fill="#000000" font-family="Georgia" font-size="11" lengthAdjust="spacing" text-decoration="underline" textLength="22.897" x="57.5" y="1093.9297">User</text><text fill="#000000" font-family="Georgia" font-size="11" lengthAdjust="spacing" text-decoration="underline" textLength="77.897" x="30" y="1106.4282">(A01/A02/A03)</text><ellipse cx="71.9485" cy="1117.3398" fill="#E2E2F0" rx="8" ry="8" style="stroke:#181818;stroke-width:0.5;"/><path d="M71.9485,1125.3398 L71.9485,1152.3398 M58.9485,1133.3398 L84.9485,1133.3398 M71.9485,1152.3398 L58.9485,1167.3398 M71.9485,1152.3398 L84.9485,1167.3398" fill="none" style="stroke:#181818;stroke-width:0.5;"/></g><g class="participant participant-head" data-entity-uid="part2" data-qualified-name="FE" id="part2-head"><rect fill="#E2E2F0" height="38.9971" rx="5" ry="5" style="stroke:#181818;stroke-width:0.5;" width="59.4556" x="264.6719" y="86.9072"/><text fill="#000000" font-family="Georgia" font-size="11" lengthAdjust="spacing" text-decoration="underline" textLength="45.4556" x="271.6719" y="103.9941">Frontend</text><text fill="#000000" font-family="Georgia" font-size="11" lengthAdjust="spacing" text-decoration="underline" textLength="35.6211" x="276.5891" y="116.4927">(React)</text></g><g class="participant participant-tail" data-entity-uid="part2" data-qualified-name="FE" id="part2-tail"><rect fill="#E2E2F0" height="38.9971" rx="5" ry="5" style="stroke:#181818;stroke-width:0.5;" width="59.4556" x="264.6719" y="1083.8428"/><text fill="#000000" font-family="Georgia" font-size="11" lengthAdjust="spacing" text-decoration="underline" textLength="45.4556" x="271.6719" y="1100.9297">Frontend</text><text fill="#000000" font-family="Georgia" font-size="11" lengthAdjust="spacing" text-decoration="underline" textLength="35.6211" x="276.5891" y="1113.4282">(React)</text></g><g class="participant participant-head" data-entity-uid="part3" data-qualified-name="A04" id="part3-head"><rect fill="#E2E2F0" height="38.9971" rx="5" ry="5" style="stroke:#181818;stroke-width:0.5;" width="55.7549" x="500.6233" y="86.9072"/><text fill="#000000" font-family="Georgia" font-size="11" lengthAdjust="spacing" text-decoration="underline" textLength="41.7549" x="507.6233" y="103.9941">Backend</text><text fill="#000000" font-family="Georgia" font-size="11" lengthAdjust="spacing" text-decoration="underline" textLength="28.5957" x="514.2029" y="116.4927">(A04)</text></g><g class="participant participant-tail" data-entity-uid="part3" data-qualified-name="A04" id="part3-tail"><rect fill="#E2E2F0" height="38.9971" rx="5" ry="5" style="stroke:#181818;stroke-width:0.5;" width="55.7549" x="500.6233" y="1083.8428"/><text fill="#000000" font-family="Georgia" font-size="11" lengthAdjust="spacing" text-decoration="underline" textLength="41.7549" x="507.6233" y="1100.9297">Backend</text><text fill="#000000" font-family="Georgia" font-size="11" lengthAdjust="spacing" text-decoration="underline" textLength="28.5957" x="514.2029" y="1113.4282">(A04)</text></g><g class="participant participant-head" data-entity-uid="part4" data-qualified-name="DB" id="part4-head"><text fill="#000000" font-family="Georgia" font-size="11" lengthAdjust="spacing" text-decoration="underline" textLength="44.897" x="731.2666" y="124.4927">Database</text><path d="M738.7151,78.4058 C738.7151,68.4058 756.7151,68.4058 756.7151,68.4058 C756.7151,68.4058 774.7151,68.4058 774.7151,78.4058 L774.7151,104.4058 C774.7151,114.4058 756.7151,114.4058 756.7151,114.4058 C756.7151,114.4058 738.7151,114.4058 738.7151,104.4058 L738.7151,78.4058" fill="#E2E2F0" style="stroke:#181818;stroke-width:0.5;"/><path d="M738.7151,78.4058 C738.7151,88.4058 756.7151,88.4058 756.7151,88.4058 C756.7151,88.4058 774.7151,88.4058 774.7151,78.4058" fill="none" style="stroke:#181818;stroke-width:0.5;"/></g><g class="participant participant-tail" data-entity-uid="part4" data-qualified-name="DB" id="part4-tail"><text fill="#000000" font-family="Georgia" font-size="11" lengthAdjust="spacing" text-decoration="underline" textLength="44.897" x="731.2666" y="1093.9297">Database</text><path d="M738.7151,1106.3413 C738.7151,1096.3413 756.7151,1096.3413 756.7151,1096.3413 C756.7151,1096.3413 774.7151,1096.3413 774.7151,1106.3413 L774.7151,1132.3413 C774.7151,1142.3413 756.7151,1142.3413 756.7151,1142.3413 C756.7151,1142.3413 738.7151,1142.3413 738.7151,1132.3413 L738.7151,1106.3413" fill="#E2E2F0" style="stroke:#181818;stroke-width:0.5;"/><path d="M738.7151,1106.3413 C738.7151,1116.3413 756.7151,1116.3413 756.7151,1116.3413 C756.7151,1116.3413 774.7151,1116.3413 774.7151,1106.3413" fill="none" style="stroke:#181818;stroke-width:0.5;"/></g><g class="participant participant-head" data-entity-uid="part5" data-qualified-name="A05" id="part5-head"><rect fill="#E2E2F0" height="38.9971" rx="5" ry="5" style="stroke:#181818;stroke-width:0.5;" width="80.4351" x="792.1636" y="86.9072"/><text fill="#000000" font-family="Georgia" font-size="11" lengthAdjust="spacing" text-decoration="underline" textLength="66.4351" x="799.1636" y="103.9941">Email Service</text><text fill="#000000" font-family="Georgia" font-size="11" lengthAdjust="spacing" text-decoration="underline" textLength="28.1929" x="818.2847" y="116.4927">(A05)</text></g><g class="participant participant-tail" data-entity-uid="part5" data-qualified-name="A05" id="part5-tail"><rect fill="#E2E2F0" height="38.9971" rx="5" ry="5" style="stroke:#181818;stroke-width:0.5;" width="80.4351" x="792.1636" y="1083.8428"/><text fill="#000000" font-family="Georgia" font-size="11" lengthAdjust="spacing" text-decoration="underline" textLength="66.4351" x="799.1636" y="1100.9297">Email Service</text><text fill="#000000" font-family="Georgia" font-size="11" lengthAdjust="spacing" text-decoration="underline" textLength="28.1929" x="818.2847" y="1113.4282">(A05)</text></g><g class="message" data-entity-1="part1" data-entity-2="part2" id="msg1"><polygon fill="#181818" points="282.3997,151.4028,292.3997,155.4028,282.3997,159.4028,286.3997,155.4028" style="stroke:#181818;stroke-width:1;"/><line style="stroke:#181818;stroke-width:2;" x1="71.9485" x2="288.3997" y1="155.4028" y2="155.4028"/><text fill="#000000" font-family="Georgia" font-size="11" lengthAdjust="spacing" textLength="111.0366" x="78.9485" y="150.9912">Open registration page</text></g><g class="message" data-entity-1="part2" data-entity-2="part1" id="msg2"><polygon fill="#181818" points="82.9485,177.9014,72.9485,181.9014,82.9485,185.9014,78.9485,181.9014" style="stroke:#181818;stroke-width:1;"/><line style="stroke:#181818;stroke-width:2;" x1="76.9485" x2="293.3997" y1="181.9014" y2="181.9014"/><text fill="#000000" font-family="Georgia" font-size="11" lengthAdjust="spacing" textLength="122.3105" x="88.9485" y="177.4897">Display registration form</text></g><g class="message" data-entity-1="part1" data-entity-2="part2" id="msg3"><polygon fill="#181818" points="282.3997,216.8984,292.3997,220.8984,282.3997,224.8984,286.3997,220.8984" style="stroke:#181818;stroke-width:1;"/><line style="stroke:#181818;stroke-width:2;" x1="71.9485" x2="288.3997" y1="220.8984" y2="220.8984"/><text fill="#000000" font-family="Georgia" font-size="11" lengthAdjust="spacing" textLength="111.6597" x="78.9485" y="203.9883">Enter email, password,</text><text fill="#000000" font-family="Georgia" font-size="11" lengthAdjust="spacing" textLength="137.2583" x="78.9485" y="216.4868">confirm password, user type</text></g><g class="message" data-entity-1="part2" data-entity-2="part3" id="msg4"><polygon fill="#181818" points="516.5007,255.8955,526.5007,259.8955,516.5007,263.8955,520.5007,259.8955" style="stroke:#181818;stroke-width:1;"/><line style="stroke:#181818;stroke-width:2;" x1="294.3997" x2="522.5007" y1="259.8955" y2="259.8955"/><text fill="#000000" font-family="Georgia" font-size="11" lengthAdjust="spacing" textLength="120.1353" x="301.3997" y="242.9854">POST /api/auth/register</text><text fill="#000000" font-family="Georgia" font-size="11" lengthAdjust="spacing" textLength="138.542" x="301.3997" y="255.4839">{email, password, userType}</text></g><g class="message" data-entity-1="part3" data-entity-2="part3" id="msg5"><line style="stroke:#181818;stroke-width:2;" x1="528.5007" x2="570.5007" y1="311.3911" y2="311.3911"/><line style="stroke:#181818;stroke-width:2;" x1="570.5007" x2="570.5007" y1="311.3911" y2="324.3911"/><line style="stroke:#181818;stroke-width:2;" x1="529.5007" x2="570.5007" y1="324.3911" y2="324.3911"/><polygon fill="#181818" points="539.5007,320.3911,529.5007,324.3911,539.5007,328.3911,535.5007,324.3911" style="stroke:#181818;stroke-width:1;"/><text fill="#000000" font-family="Georgia" font-size="11" lengthAdjust="spacing" textLength="73.7559" x="535.5007" y="281.9824">Validate inputs</text><text fill="#000000" font-family="Georgia" font-size="11" lengthAdjust="spacing" textLength="164.8496" x="535.5007" y="294.481">(email format, password strength,</text><text fill="#000000" font-family="Georgia" font-size="11" lengthAdjust="spacing" textLength="74.7817" x="535.5007" y="306.9795">required fields)</text></g><g class="message" data-entity-1="part3" data-entity-2="part4" id="msg6"><polygon fill="#181818" points="744.7151,346.8896,754.7151,350.8896,744.7151,354.8896,748.7151,350.8896" style="stroke:#181818;stroke-width:1;"/><line style="stroke:#181818;stroke-width:2;" x1="528.5007" x2="750.7151" y1="350.8896" y2="350.8896"/><text fill="#000000" font-family="Georgia" font-size="11" lengthAdjust="spacing" textLength="204.2144" x="535.5007" y="346.478">SELECT * FROM users WHERE email = ?</text></g><g class="message" data-entity-1="part4" data-entity-2="part3" id="msg7"><polygon fill="#181818" points="539.5007,373.3882,529.5007,377.3882,539.5007,381.3882,535.5007,377.3882" style="stroke:#181818;stroke-width:1;"/><line style="stroke:#181818;stroke-width:2;stroke-dasharray:2,2;" x1="533.5007" x2="755.7151" y1="377.3882" y2="377.3882"/><text fill="#000000" font-family="Georgia" font-size="11" lengthAdjust="spacing" textLength="118.6958" x="545.5007" y="372.9766">Result (empty = unique)</text></g><path d="M15,392.3882 L69.7114,392.3882 L69.7114,396.8867 L59.7114,406.8867 L10,406.8867 L10,397.3882 A5,5 0 0 1 15,392.3882" fill="#EEEEEE" style="stroke:#000000;stroke-width:1.5;"/><rect fill="none" height="675.4546" rx="5" ry="5" style="stroke:#000000;stroke-width:1.5;" width="882.5986" x="10" y="392.3882"/><text fill="#000000" font-family="Georgia" font-size="11" font-weight="bold" lengthAdjust="spacing" textLength="14.7114" x="25" y="403.4751">alt</text><text fill="#000000" font-family="Georgia" font-size="11" font-weight="bold" lengthAdjust="spacing" textLength="224.7158" x="84.7114" y="404.4751">[Email already registered [UC-01.AC.1]]</text><g class="message" data-entity-1="part3" data-entity-2="part2" id="msg8"><polygon fill="#181818" points="305.3997,433.8838,295.3997,437.8838,305.3997,441.8838,301.3997,437.8838" style="stroke:#181818;stroke-width:1;"/><line style="stroke:#181818;stroke-width:2;stroke-dasharray:2,2;" x1="299.3997" x2="527.5007" y1="437.8838" y2="437.8838"/><text fill="#000000" font-family="Georgia" font-size="11" lengthAdjust="spacing" textLength="60.0757" x="311.3997" y="420.9736">409 Conflict</text><text fill="#000000" font-family="Georgia" font-size="11" lengthAdjust="spacing" textLength="167.9165" x="311.3997" y="433.4722">{error: "Email already registered"}</text></g><g class="message" data-entity-1="part2" data-entity-2="part1" id="msg9"><polygon fill="#181818" points="82.9485,460.3823,72.9485,464.3823,82.9485,468.3823,78.9485,464.3823" style="stroke:#181818;stroke-width:1;"/><line style="stroke:#181818;stroke-width:2;stroke-dasharray:2,2;" x1="76.9485" x2="293.3997" y1="464.3823" y2="464.3823"/><text fill="#000000" font-family="Georgia" font-size="11" lengthAdjust="spacing" textLength="197.2856" x="88.9485" y="459.9707">Show error + "Try logging in" suggestion</text></g><line style="stroke:#000000;stroke-width:1;stroke-dasharray:2,2;" x1="10" x2="892.5986" y1="473.3823" y2="473.3823"/><text fill="#000000" font-family="Georgia" font-size="11" font-weight="bold" lengthAdjust="spacing" textLength="225.2207" x="15" y="483.4692">[Password policy not met [UC-01.AC.2]]</text><g class="message" data-entity-1="part3" data-entity-2="part2" id="msg10"><polygon fill="#181818" points="305.3997,513.8779,295.3997,517.8779,305.3997,521.8779,301.3997,517.8779" style="stroke:#181818;stroke-width:1;"/><line style="stroke:#181818;stroke-width:2;stroke-dasharray:2,2;" x1="299.3997" x2="527.5007" y1="517.8779" y2="517.8779"/><text fill="#000000" font-family="Georgia" font-size="11" lengthAdjust="spacing" textLength="125.2539" x="311.3997" y="500.9678">422 Unprocessable Entity</text><text fill="#000000" font-family="Georgia" font-size="11" lengthAdjust="spacing" textLength="132.478" x="311.3997" y="513.4663">{errors: [policy violations]}</text></g><g class="message" data-entity-1="part2" data-entity-2="part1" id="msg11"><polygon fill="#181818" points="82.9485,540.3765,72.9485,544.3765,82.9485,548.3765,78.9485,544.3765" style="stroke:#181818;stroke-width:1;"/><line style="stroke:#181818;stroke-width:2;stroke-dasharray:2,2;" x1="76.9485" x2="293.3997" y1="544.3765" y2="544.3765"/><text fill="#000000" font-family="Georgia" font-size="11" lengthAdjust="spacing" textLength="156.2021" x="88.9485" y="539.9648">Highlight unmet password rules</text></g><line style="stroke:#000000;stroke-width:1;stroke-dasharray:2,2;" x1="10" x2="892.5986" y1="553.3765" y2="553.3765"/><text fill="#000000" font-family="Georgia" font-size="11" font-weight="bold" lengthAdjust="spacing" textLength="73.0576" x="15" y="563.4634">[Valid input]</text><g class="message" data-entity-1="part3" data-entity-2="part4" id="msg12"><polygon fill="#181818" points="744.7151,606.3706,754.7151,610.3706,744.7151,614.3706,748.7151,610.3706" style="stroke:#181818;stroke-width:1;"/><line style="stroke:#181818;stroke-width:2;" x1="528.5007" x2="750.7151" y1="610.3706" y2="610.3706"/><text fill="#000000" font-family="Georgia" font-size="11" lengthAdjust="spacing" textLength="99.2847" x="535.5007" y="580.9619">INSERT INTO users</text><text fill="#000000" font-family="Georgia" font-size="11" lengthAdjust="spacing" textLength="182.0425" x="535.5007" y="593.4604">(email, hashed_password, user_type,</text><text fill="#000000" font-family="Georgia" font-size="11" lengthAdjust="spacing" textLength="88.9668" x="535.5007" y="605.959">status="pending")</text></g><g class="message" data-entity-1="part4" data-entity-2="part3" id="msg13"><polygon fill="#181818" points="539.5007,632.8691,529.5007,636.8691,539.5007,640.8691,535.5007,636.8691" style="stroke:#181818;stroke-width:1;"/><line style="stroke:#181818;stroke-width:2;stroke-dasharray:2,2;" x1="533.5007" x2="755.7151" y1="636.8691" y2="636.8691"/><text fill="#000000" font-family="Georgia" font-size="11" lengthAdjust="spacing" textLength="95.5679" x="545.5007" y="632.4575">User record created</text></g><g class="message" data-entity-1="part3" data-entity-2="part3" id="msg14"><line style="stroke:#181818;stroke-width:2;" x1="528.5007" x2="570.5007" y1="675.8662" y2="675.8662"/><line style="stroke:#181818;stroke-width:2;" x1="570.5007" x2="570.5007" y1="675.8662" y2="688.8662"/><line style="stroke:#181818;stroke-width:2;" x1="529.5007" x2="570.5007" y1="688.8662" y2="688.8662"/><polygon fill="#181818" points="539.5007,684.8662,529.5007,688.8662,539.5007,692.8662,535.5007,688.8662" style="stroke:#181818;stroke-width:1;"/><text fill="#000000" font-family="Georgia" font-size="11" lengthAdjust="spacing" textLength="132.3115" x="535.5007" y="658.9561">Generate verification token</text><text fill="#000000" font-family="Georgia" font-size="11" lengthAdjust="spacing" textLength="99.2524" x="535.5007" y="671.4546">(UUID, 24hr expiry)</text></g><g class="message" data-entity-1="part3" data-entity-2="part4" id="msg15"><polygon fill="#181818" points="744.7151,723.8633,754.7151,727.8633,744.7151,731.8633,748.7151,727.8633" style="stroke:#181818;stroke-width:1;"/><line style="stroke:#181818;stroke-width:2;" x1="528.5007" x2="750.7151" y1="727.8633" y2="727.8633"/><text fill="#000000" font-family="Georgia" font-size="11" lengthAdjust="spacing" textLength="168.1851" x="535.5007" y="710.9531">INSERT INTO verification_tokens</text><text fill="#000000" font-family="Georgia" font-size="11" lengthAdjust="spacing" textLength="135.8081" x="535.5007" y="723.4517">(user_id, token, expires_at)</text></g><g class="message" data-entity-1="part4" data-entity-2="part3" id="msg16"><polygon fill="#181818" points="539.5007,750.3618,529.5007,754.3618,539.5007,758.3618,535.5007,754.3618" style="stroke:#181818;stroke-width:1;"/><line style="stroke:#181818;stroke-width:2;stroke-dasharray:2,2;" x1="533.5007" x2="755.7151" y1="754.3618" y2="754.3618"/><text fill="#000000" font-family="Georgia" font-size="11" lengthAdjust="spacing" textLength="63.7173" x="545.5007" y="749.9502">Token stored</text></g><g class="message" data-entity-1="part3" data-entity-2="part5" id="msg17"><polygon fill="#181818" points="820.3811,789.3589,830.3811,793.3589,820.3811,797.3589,824.3811,793.3589" style="stroke:#181818;stroke-width:1;"/><line style="stroke:#181818;stroke-width:2;" x1="528.5007" x2="826.3811" y1="793.3589" y2="793.3589"/><text fill="#000000" font-family="Georgia" font-size="11" lengthAdjust="spacing" textLength="111.8262" x="535.5007" y="776.4487">Send verification email</text><text fill="#000000" font-family="Georgia" font-size="11" lengthAdjust="spacing" textLength="117.5679" x="535.5007" y="788.9473">(to: email, token: token)</text></g><path d="M25,808.3589 L79.7114,808.3589 L79.7114,812.8574 L69.7114,822.8574 L20,822.8574 L20,813.3589 A5,5 0 0 1 25,808.3589" fill="#EEEEEE" style="stroke:#000000;stroke-width:1.5;"/><rect fill="none" height="252.4839" rx="5" ry="5" style="stroke:#000000;stroke-width:1.5;" width="862.5986" x="20" y="808.3589"/><text fill="#000000" font-family="Georgia" font-size="11" font-weight="bold" lengthAdjust="spacing" textLength="14.7114" x="35" y="819.4458">alt</text><text fill="#000000" font-family="Georgia" font-size="11" font-weight="bold" lengthAdjust="spacing" textLength="230.7959" x="94.7114" y="820.4458">[Email service unavailable [UC-01.EX.1]]</text><g class="message" data-entity-1="part5" data-entity-2="part3" id="msg18"><polygon fill="#181818" points="539.5007,837.356,529.5007,841.356,539.5007,845.356,535.5007,841.356" style="stroke:#181818;stroke-width:1;"/><line style="stroke:#181818;stroke-width:2;stroke-dasharray:2,2;" x1="533.5007" x2="831.3811" y1="841.356" y2="841.356"/><text fill="#000000" font-family="Georgia" font-size="11" lengthAdjust="spacing" textLength="78.187" x="545.5007" y="836.9443">Error / Timeout</text></g><g class="message" data-entity-1="part3" data-entity-2="part3" id="msg19"><line style="stroke:#181818;stroke-width:2;" x1="528.5007" x2="570.5007" y1="867.8545" y2="867.8545"/><line style="stroke:#181818;stroke-width:2;" x1="570.5007" x2="570.5007" y1="867.8545" y2="880.8545"/><line style="stroke:#181818;stroke-width:2;" x1="529.5007" x2="570.5007" y1="880.8545" y2="880.8545"/><polygon fill="#181818" points="539.5007,876.8545,529.5007,880.8545,539.5007,884.8545,535.5007,880.8545" style="stroke:#181818;stroke-width:1;"/><text fill="#000000" font-family="Georgia" font-size="11" lengthAdjust="spacing" textLength="45.5898" x="535.5007" y="863.4429">Log error</text></g><g class="message" data-entity-1="part3" data-entity-2="part2" id="msg20"><polygon fill="#181818" points="305.3997,915.8516,295.3997,919.8516,305.3997,923.8516,301.3997,919.8516" style="stroke:#181818;stroke-width:1;"/><line style="stroke:#181818;stroke-width:2;stroke-dasharray:2,2;" x1="299.3997" x2="527.5007" y1="919.8516" y2="919.8516"/><text fill="#000000" font-family="Georgia" font-size="11" lengthAdjust="spacing" textLength="116.8374" x="311.3997" y="902.9414">503 Service Unavailable</text><text fill="#000000" font-family="Georgia" font-size="11" lengthAdjust="spacing" textLength="210.1011" x="311.3997" y="915.4399">{error: "Could not send verification email"}</text></g><g class="message" data-entity-1="part2" data-entity-2="part1" id="msg21"><polygon fill="#181818" points="82.9485,942.3501,72.9485,946.3501,82.9485,950.3501,78.9485,946.3501" style="stroke:#181818;stroke-width:1;"/><line style="stroke:#181818;stroke-width:2;stroke-dasharray:2,2;" x1="76.9485" x2="293.3997" y1="946.3501" y2="946.3501"/><text fill="#000000" font-family="Georgia" font-size="11" lengthAdjust="spacing" textLength="127.4829" x="88.9485" y="941.9385">Show error + Retry option</text></g><line style="stroke:#000000;stroke-width:1;stroke-dasharray:2,2;" x1="20" x2="882.5986" y1="955.3501" y2="955.3501"/><text fill="#000000" font-family="Georgia" font-size="11" font-weight="bold" lengthAdjust="spacing" textLength="140.5024" x="25" y="965.437">[Email sent successfully]</text><g class="message" data-entity-1="part5" data-entity-2="part3" id="msg22"><polygon fill="#181818" points="539.5007,983.3472,529.5007,987.3472,539.5007,991.3472,535.5007,987.3472" style="stroke:#181818;stroke-width:1;"/><line style="stroke:#181818;stroke-width:2;stroke-dasharray:2,2;" x1="533.5007" x2="831.3811" y1="987.3472" y2="987.3472"/><text fill="#000000" font-family="Georgia" font-size="11" lengthAdjust="spacing" textLength="117.874" x="545.5007" y="982.9355">Email sent confirmation</text></g><g class="message" data-entity-1="part3" data-entity-2="part2" id="msg23"><polygon fill="#181818" points="305.3997,1022.3442,295.3997,1026.3442,305.3997,1030.3442,301.3997,1026.3442" style="stroke:#181818;stroke-width:1;"/><line style="stroke:#181818;stroke-width:2;stroke-dasharray:2,2;" x1="299.3997" x2="527.5007" y1="1026.3442" y2="1026.3442"/><text fill="#000000" font-family="Georgia" font-size="11" lengthAdjust="spacing" textLength="58.1367" x="311.3997" y="1009.4341">201 Created</text><text fill="#000000" font-family="Georgia" font-size="11" lengthAdjust="spacing" textLength="149.6602" x="311.3997" y="1021.9326">{message: "Check your email"}</text></g><g class="message" data-entity-1="part2" data-entity-2="part1" id="msg24"><polygon fill="#181818" points="82.9485,1048.8428,72.9485,1052.8428,82.9485,1056.8428,78.9485,1052.8428" style="stroke:#181818;stroke-width:1;"/><line style="stroke:#181818;stroke-width:2;stroke-dasharray:2,2;" x1="76.9485" x2="293.3997" y1="1052.8428" y2="1052.8428"/><text fill="#000000" font-family="Georgia" font-size="11" lengthAdjust="spacing" textLength="198.4512" x="88.9485" y="1048.4312">Display "Check your email" confirmation</text></g><?plantuml-src XLHTRzDA47tthnZvwOQRaW-QXnkfe3Hn0GbebJZt8b5KBVR4NdMpwxkxRZ68_yxiRfoF9a0aouvzvioPcJDhkHK8o-bPVp26EHRSMDGmoJ9LInj5vfxBYccs1eF_roWpd6Yj7jEIP_SIZO7X7aHJJ9ufBObXq3yHUyEqvHclcBH0KDI2Izp3vRXYjR1NIjeFR8tm6fKkE3kDMF1l28D15B7CAWtnqg2-bNzD-eFUf3-awqKd1cR0lO-glSpnbQPmb3cXvqZH0NUL7A8kMNOVG9F-UO3GGvGpoxumWn3FDa_-q-poC3fPCovWWVg1P-WvHYt7A8gS9ZXxIJbX3DSLIj2-zPfPhYHKhC28lX728ySmuwOIh3c4hPHUF-5Af1iVkkHTeZ7cKUcyUoip9LTShtUle7PXjgdQH5GRnTzSBrBeiOhtM6tBdjuOubP-Vyhf2LAA_n55BdPByIyJd9g4G3EhhQ7QVQXNo-oE0QWEb8KjIPucWt2DEQmuYjnqMiRP9H4kadV9D8LdS3M_Vk_J6lZlJJ9FGfrm0QyY0fvj5SpHa4U0ybQseS-rvEI_3Zc5teR1CA6HvMq_qQN-v9VW-MJwVF0v0lfv3MrZp_l_m9IQA7XcNJTe2_Iu7VCnM_p3KxZMxeQuADKZ-4Zu6-9KDo1KKN1PKAjYC7LHe763ZL2GlsxQFbMAaZOWbOKrsZsTmrCwXqDOoaghZBQJVQ7T9ajmsxIQpHW-RGWVk1BUIERpARLlU54AkjogkhpRkUbQe0aQ_Qp3e7TIDcDx-s6Hp5EwfTTXQAqJkb0oKs9-T-YbEsT6yeAnpDRc8gQjoAatSSSp7mpOAzIOEJKPjTvY7ktd3wZNI0UHC-83QhxYMLWQgsYhISfo-NRMXU5vIUlojUAwwVosWdsEEy_Xwl6wEHNWttG34vexPa-eJXs6NA_qaToHSmVLUoZLTukoM3LkLzhd6OTRIB7pj0c73OsBFT1_F_oDMPAFhQb3sj6UhCGRiWSfNwFQpF6eb-zK4Pnx-BbrtQZ_eZtho7tRz7kBCbMroBs7pUawDnlpXwsPewMrKPLV4uVrDcphfuFNr9bp_geMelbLmJlqvbXaMxgZoeRz0Ko3nQYQjLkg0bqz9MRtqAXQ_q5-Ut8VHnndfyv4xle9?></g></svg>