<?plantuml 1.2026.2?><svg xmlns="http://www.w3.org/2000/svg" xmlns:xlink="http://www.w3.org/1999/xlink" contentStyleType="text/css" data-diagram-type="SEQUENCE" height="1243px" preserveAspectRatio="none" style="width:803px;height:1243px;background:#FFFFFF;" version="1.1" viewBox="0 0 803 1243" width="803px" zoomAndPan="magnify"><title>UC-06: Create Business Profile (Wizard)</title><defs/><g><text fill="#000000" font-family="Georgia" font-size="14" font-weight="bold" lengthAdjust="spacing" textLength="291.4297" x="256.981" y="27.8379">UC-06: Create Business Profile (Wizard)</text><rect fill="none" height="460.4663" rx="5" ry="5" style="stroke:#000000;stroke-width:1.5;" width="786.3916" x="10" y="676.3647"/><g class="participant-lifeline" data-entity-uid="part1" data-qualified-name="User" id="part1-lifeline"><g><title>User</title><rect fill="#000000" fill-opacity="0.00000" height="1026.9268" width="8" x="57.9485" y="126.9043"/><line style="stroke:#181818;stroke-width:0.5;stroke-dasharray:5,5;" x1="61" x2="61" y1="126.9043" y2="1153.8311"/></g></g><g class="participant-lifeline" data-entity-uid="part2" data-qualified-name="FE" id="part2-lifeline"><g><title>Frontend</title><rect fill="#000000" fill-opacity="0.00000" height="1026.9268" width="8" x="282.3816" y="126.9043"/><line style="stroke:#181818;stroke-width:0.5;stroke-dasharray:5,5;" x1="285.6538" x2="285.6538" y1="126.9043" y2="1153.8311"/></g></g><g class="participant-lifeline" data-entity-uid="part3" data-qualified-name="A04" id="part3-lifeline"><g><title>Backend</title><rect fill="#000000" fill-opacity="0.00000" height="1026.9268" width="8" x="522.2083" y="126.9043"/><line style="stroke:#181818;stroke-width:0.5;stroke-dasharray:5,5;" x1="525.3308" x2="525.3308" y1="126.9043" y2="1153.8311"/></g></g><g class="participant-lifeline" data-entity-uid="part4" data-qualified-name="DB" id="part4-lifeline"><g><title>Database</title><rect fill="#000000" fill-opacity="0.00000" height="1026.9268" width="8" x="756.9431" y="126.9043"/><line style="stroke:#181818;stroke-width:0.5;stroke-dasharray:5,5;" x1="760.4946" x2="760.4946" y1="126.9043" y2="1153.8311"/></g></g><g class="participant participant-head" data-entity-uid="part1" data-qualified-name="User" id="part1-head"><text fill="#000000" font-family="Georgia" font-size="11" lengthAdjust="spacing" textLength="22.897" x="47.5" y="111.9941">User</text><text fill="#000000" font-family="Georgia" font-size="11" lengthAdjust="spacing" textLength="77.897" x="20" y="124.4927">(A01/A02/A03)</text><ellipse cx="61.9485" cy="50.4072" fill="#E2E2F0" rx="8" ry="8" style="stroke:#181818;stroke-width:0.5;"/><path d="M61.9485,58.4072 L61.9485,85.4072 M48.9485,66.4072 L74.9485,66.4072 M61.9485,85.4072 L48.9485,100.4072 M61.9485,85.4072 L74.9485,100.4072" fill="none" style="stroke:#181818;stroke-width:0.5;"/></g><g class="participant participant-tail" data-entity-uid="part1" data-qualified-name="User" id="part1-tail"><text fill="#000000" font-family="Georgia" font-size="11" lengthAdjust="spacing" textLength="22.897" x="47.5" y="1162.918">User</text><text fill="#000000" font-family="Georgia" font-size="11" lengthAdjust="spacing" textLength="77.897" x="20" y="1175.4165">(A01/A02/A03)</text><ellipse cx="61.9485" cy="1186.3281" fill="#E2E2F0" rx="8" ry="8" style="stroke:#181818;stroke-width:0.5;"/><path d="M61.9485,1194.3281 L61.9485,1221.3281 M48.9485,1202.3281 L74.9485,1202.3281 M61.9485,1221.3281 L48.9485,1236.3281 M61.9485,1221.3281 L74.9485,1236.3281" fill="none" style="stroke:#181818;stroke-width:0.5;"/></g><g class="participant participant-head" data-entity-uid="part2" data-qualified-name="FE" id="part2-head"><rect fill="#E2E2F0" height="38.9971" rx="5" ry="5" style="stroke:#181818;stroke-width:0.5;" width="59.4556" x="256.6538" y="86.9072"/><text fill="#000000" font-family="Georgia" font-size="11" lengthAdjust="spacing" textLength="45.4556" x="263.6538" y="103.9941">Frontend</text><text fill="#000000" font-family="Georgia" font-size="11" lengthAdjust="spacing" textLength="35.6211" x="268.571" y="116.4927">(React)</text></g><g class="participant participant-tail" data-entity-uid="part2" data-qualified-name="FE" id="part2-tail"><rect fill="#E2E2F0" height="38.9971" rx="5" ry="5" style="stroke:#181818;stroke-width:0.5;" width="59.4556" x="256.6538" y="1152.8311"/><text fill="#000000" font-family="Georgia" font-size="11" lengthAdjust="spacing" textLength="45.4556" x="263.6538" y="1169.918">Frontend</text><text fill="#000000" font-family="Georgia" font-size="11" lengthAdjust="spacing" textLength="35.6211" x="268.571" y="1182.4165">(React)</text></g><g class="participant participant-head" data-entity-uid="part3" data-qualified-name="A04" id="part3-head"><rect fill="#E2E2F0" height="38.9971" rx="5" ry="5" style="stroke:#181818;stroke-width:0.5;" width="55.7549" x="498.3308" y="86.9072"/><text fill="#000000" font-family="Georgia" font-size="11" lengthAdjust="spacing" textLength="41.7549" x="505.3308" y="103.9941">Backend</text><text fill="#000000" font-family="Georgia" font-size="11" lengthAdjust="spacing" textLength="28.5957" x="511.9104" y="116.4927">(A04)</text></g><g class="participant participant-tail" data-entity-uid="part3" data-qualified-name="A04" id="part3-tail"><rect fill="#E2E2F0" height="38.9971" rx="5" ry="5" style="stroke:#181818;stroke-width:0.5;" width="55.7549" x="498.3308" y="1152.8311"/><text fill="#000000" font-family="Georgia" font-size="11" lengthAdjust="spacing" textLength="41.7549" x="505.3308" y="1169.918">Backend</text><text fill="#000000" font-family="Georgia" font-size="11" lengthAdjust="spacing" textLength="28.5957" x="511.9104" y="1182.4165">(A04)</text></g><g class="participant participant-head" data-entity-uid="part4" data-qualified-name="DB" id="part4-head"><text fill="#000000" font-family="Georgia" font-size="11" lengthAdjust="spacing" textLength="44.897" x="735.4946" y="124.4927">Database</text><path d="M742.9431,78.4058 C742.9431,68.4058 760.9431,68.4058 760.9431,68.4058 C760.9431,68.4058 778.9431,68.4058 778.9431,78.4058 L778.9431,104.4058 C778.9431,114.4058 760.9431,114.4058 760.9431,114.4058 C760.9431,114.4058 742.9431,114.4058 742.9431,104.4058 L742.9431,78.4058" fill="#E2E2F0" style="stroke:#181818;stroke-width:0.5;"/><path d="M742.9431,78.4058 C742.9431,88.4058 760.9431,88.4058 760.9431,88.4058 C760.9431,88.4058 778.9431,88.4058 778.9431,78.4058" fill="none" style="stroke:#181818;stroke-width:0.5;"/></g><g class="participant participant-tail" data-entity-uid="part4" data-qualified-name="DB" id="part4-tail"><text fill="#000000" font-family="Georgia" font-size="11" lengthAdjust="spacing" textLength="44.897" x="735.4946" y="1162.918">Database</text><path d="M742.9431,1175.3296 C742.9431,1165.3296 760.9431,1165.3296 760.9431,1165.3296 C760.9431,1165.3296 778.9431,1165.3296 778.9431,1175.3296 L778.9431,1201.3296 C778.9431,1211.3296 760.9431,1211.3296 760.9431,1211.3296 C760.9431,1211.3296 742.9431,1211.3296 742.9431,1201.3296 L742.9431,1175.3296" fill="#E2E2F0" style="stroke:#181818;stroke-width:0.5;"/><path d="M742.9431,1175.3296 C742.9431,1185.3296 760.9431,1185.3296 760.9431,1185.3296 C760.9431,1185.3296 778.9431,1185.3296 778.9431,1175.3296" fill="none" style="stroke:#181818;stroke-width:0.5;"/></g><g class="message" data-entity-1="part1" data-entity-2="part2" id="msg1"><polygon fill="#181818" points="274.3816,151.4028,284.3816,155.4028,274.3816,159.4028,278.3816,155.4028" style="stroke:#181818;stroke-width:1;"/><line style="stroke:#181818;stroke-width:2;" x1="61.9485" x2="280.3816" y1="155.4028" y2="155.4028"/><text fill="#000000" font-family="Georgia" font-size="11" lengthAdjust="spacing" textLength="148.1079" x="68.9485" y="150.9912">Click "Create Business Profile"</text></g><g class="message" data-entity-1="part2" data-entity-2="part1" id="msg2"><polygon fill="#181818" points="72.9485,190.3999,62.9485,194.3999,72.9485,198.3999,68.9485,194.3999" style="stroke:#181818;stroke-width:1;"/><line style="stroke:#181818;stroke-width:2;stroke-dasharray:2,2;" x1="66.9485" x2="285.3816" y1="194.3999" y2="194.3999"/><text fill="#000000" font-family="Georgia" font-size="11" lengthAdjust="spacing" textLength="118.959" x="78.9485" y="177.4897">Display wizard &#8212; Step 1:</text><text fill="#000000" font-family="Georgia" font-size="11" lengthAdjust="spacing" textLength="169.5117" x="78.9485" y="189.9883">Profile name + Sector + Price band</text></g><g class="message" data-entity-1="part1" data-entity-2="part2" id="msg3"><polygon fill="#181818" points="274.3816,229.397,284.3816,233.397,274.3816,237.397,278.3816,233.397" style="stroke:#181818;stroke-width:1;"/><line style="stroke:#181818;stroke-width:2;" x1="61.9485" x2="280.3816" y1="233.397" y2="233.397"/><text fill="#000000" font-family="Georgia" font-size="11" lengthAdjust="spacing" textLength="94.6118" x="68.9485" y="216.4868">Enter profile name,</text><text fill="#000000" font-family="Georgia" font-size="11" lengthAdjust="spacing" textLength="134.4438" x="68.9485" y="228.9854">select sector and price band</text></g><g class="message" data-entity-1="part2" data-entity-2="part1" id="msg4"><polygon fill="#181818" points="72.9485,268.394,62.9485,272.394,72.9485,276.394,68.9485,272.394" style="stroke:#181818;stroke-width:1;"/><line style="stroke:#181818;stroke-width:2;stroke-dasharray:2,2;" x1="66.9485" x2="285.3816" y1="272.394" y2="272.394"/><text fill="#000000" font-family="Georgia" font-size="11" lengthAdjust="spacing" textLength="90.3525" x="78.9485" y="255.4839">Advance to Step 2:</text><text fill="#000000" font-family="Georgia" font-size="11" lengthAdjust="spacing" textLength="94.9932" x="78.9485" y="267.9824">Target age group(s)</text></g><g class="message" data-entity-1="part1" data-entity-2="part2" id="msg5"><polygon fill="#181818" points="274.3816,307.3911,284.3816,311.3911,274.3816,315.3911,278.3816,311.3911" style="stroke:#181818;stroke-width:1;"/><line style="stroke:#181818;stroke-width:2;" x1="61.9485" x2="280.3816" y1="311.3911" y2="311.3911"/><text fill="#000000" font-family="Georgia" font-size="11" lengthAdjust="spacing" textLength="145.5029" x="68.9485" y="294.481">Select one or more age groups</text><text fill="#000000" font-family="Georgia" font-size="11" lengthAdjust="spacing" textLength="196.3296" x="68.9485" y="306.9795">(18-24, 25-34, 35-44, 45-54, 55-64, 65+)</text></g><g class="message" data-entity-1="part2" data-entity-2="part1" id="msg6"><polygon fill="#181818" points="72.9485,346.3882,62.9485,350.3882,72.9485,354.3882,68.9485,350.3882" style="stroke:#181818;stroke-width:1;"/><line style="stroke:#181818;stroke-width:2;stroke-dasharray:2,2;" x1="66.9485" x2="285.3816" y1="350.3882" y2="350.3882"/><text fill="#000000" font-family="Georgia" font-size="11" lengthAdjust="spacing" textLength="90.2773" x="78.9485" y="333.478">Advance to Step 3:</text><text fill="#000000" font-family="Georgia" font-size="11" lengthAdjust="spacing" textLength="76.8926" x="78.9485" y="345.9766">Income band(s)</text></g><g class="message" data-entity-1="part1" data-entity-2="part2" id="msg7"><polygon fill="#181818" points="274.3816,397.8838,284.3816,401.8838,274.3816,405.8838,278.3816,401.8838" style="stroke:#181818;stroke-width:1;"/><line style="stroke:#181818;stroke-width:2;" x1="61.9485" x2="280.3816" y1="401.8838" y2="401.8838"/><text fill="#000000" font-family="Georgia" font-size="11" lengthAdjust="spacing" textLength="160.5635" x="68.9485" y="372.4751">Select one or more income bands</text><text fill="#000000" font-family="Georgia" font-size="11" lengthAdjust="spacing" textLength="157.1958" x="68.9485" y="384.9736">(Low / Lower-Middle / Middle /</text><text fill="#000000" font-family="Georgia" font-size="11" lengthAdjust="spacing" textLength="108.1255" x="68.9485" y="397.4722">Upper-Middle / High)</text></g><g class="message" data-entity-1="part2" data-entity-2="part1" id="msg8"><polygon fill="#181818" points="72.9485,436.8809,62.9485,440.8809,72.9485,444.8809,68.9485,440.8809" style="stroke:#181818;stroke-width:1;"/><line style="stroke:#181818;stroke-width:2;stroke-dasharray:2,2;" x1="66.9485" x2="285.3816" y1="440.8809" y2="440.8809"/><text fill="#000000" font-family="Georgia" font-size="11" lengthAdjust="spacing" textLength="90.4224" x="78.9485" y="423.9707">Advance to Step 4:</text><text fill="#000000" font-family="Georgia" font-size="11" lengthAdjust="spacing" textLength="65.2266" x="78.9485" y="436.4692">Reliance type</text></g><g class="message" data-entity-1="part1" data-entity-2="part2" id="msg9"><polygon fill="#181818" points="274.3816,475.8779,284.3816,479.8779,274.3816,483.8779,278.3816,479.8779" style="stroke:#181818;stroke-width:1;"/><line style="stroke:#181818;stroke-width:2;" x1="61.9485" x2="280.3816" y1="479.8779" y2="479.8779"/><text fill="#000000" font-family="Georgia" font-size="11" lengthAdjust="spacing" textLength="93.4141" x="68.9485" y="462.9678">Select reliance type</text><text fill="#000000" font-family="Georgia" font-size="11" lengthAdjust="spacing" textLength="139.5625" x="68.9485" y="475.4663">(Walk-in / Delivery / Mixed)</text></g><g class="message" data-entity-1="part2" data-entity-2="part1" id="msg10"><polygon fill="#181818" points="72.9485,502.3765,62.9485,506.3765,72.9485,510.3765,68.9485,506.3765" style="stroke:#181818;stroke-width:1;"/><line style="stroke:#181818;stroke-width:2;stroke-dasharray:2,2;" x1="66.9485" x2="285.3816" y1="506.3765" y2="506.3765"/><text fill="#000000" font-family="Georgia" font-size="11" lengthAdjust="spacing" textLength="177.8906" x="78.9485" y="501.9648">Display summary &amp; "Submit" button</text></g><g class="message" data-entity-1="part1" data-entity-2="part2" id="msg11"><polygon fill="#181818" points="274.3816,528.875,284.3816,532.875,274.3816,536.875,278.3816,532.875" style="stroke:#181818;stroke-width:1;"/><line style="stroke:#181818;stroke-width:2;" x1="61.9485" x2="280.3816" y1="532.875" y2="532.875"/><text fill="#000000" font-family="Georgia" font-size="11" lengthAdjust="spacing" textLength="70.0068" x="68.9485" y="528.4634">Submit profile</text></g><g class="message" data-entity-1="part2" data-entity-2="part3" id="msg12"><polygon fill="#181818" points="514.2083,580.3706,524.2083,584.3706,514.2083,588.3706,518.2083,584.3706" style="stroke:#181818;stroke-width:1;"/><line style="stroke:#181818;stroke-width:2;" x1="286.3816" x2="520.2083" y1="584.3706" y2="584.3706"/><text fill="#000000" font-family="Georgia" font-size="11" lengthAdjust="spacing" textLength="92.6245" x="293.3816" y="554.9619">POST /api/profiles</text><text fill="#000000" font-family="Georgia" font-size="11" lengthAdjust="spacing" textLength="191.2646" x="293.3816" y="567.4604">{name, sector, priceBand, ageGroups[],</text><text fill="#000000" font-family="Georgia" font-size="11" lengthAdjust="spacing" textLength="146.9263" x="293.3816" y="579.959">incomeBands[], relianceType}</text></g><g class="message" data-entity-1="part3" data-entity-2="part3" id="msg13"><line style="stroke:#181818;stroke-width:2;" x1="526.2083" x2="568.2083" y1="648.3647" y2="648.3647"/><line style="stroke:#181818;stroke-width:2;" x1="568.2083" x2="568.2083" y1="648.3647" y2="661.3647"/><line style="stroke:#181818;stroke-width:2;" x1="527.2083" x2="568.2083" y1="661.3647" y2="661.3647"/><polygon fill="#181818" points="537.2083,657.3647,527.2083,661.3647,537.2083,665.3647,533.2083,661.3647" style="stroke:#181818;stroke-width:1;"/><text fill="#000000" font-family="Georgia" font-size="11" lengthAdjust="spacing" textLength="116.9663" x="533.2083" y="606.4575">Validate required fields:</text><text fill="#000000" font-family="Georgia" font-size="11" lengthAdjust="spacing" textLength="142.5703" x="533.2083" y="618.9561">- At least 1 age group selected</text><text fill="#000000" font-family="Georgia" font-size="11" lengthAdjust="spacing" textLength="157.6309" x="533.2083" y="631.4546">- At least 1 income band selected</text><text fill="#000000" font-family="Georgia" font-size="11" lengthAdjust="spacing" textLength="206.105" x="533.2083" y="643.9531">- Sector and price band within valid values</text></g><path d="M15,676.3647 L69.7114,676.3647 L69.7114,680.8633 L59.7114,690.8633 L10,690.8633 L10,681.3647 A5,5 0 0 1 15,676.3647" fill="#EEEEEE" style="stroke:#000000;stroke-width:1.5;"/><rect fill="none" height="460.4663" rx="5" ry="5" style="stroke:#000000;stroke-width:1.5;" width="786.3916" x="10" y="676.3647"/><text fill="#000000" font-family="Georgia" font-size="11" font-weight="bold" lengthAdjust="spacing" textLength="14.7114" x="25" y="687.4517">alt</text><text fill="#000000" font-family="Georgia" font-size="11" font-weight="bold" lengthAdjust="spacing" textLength="243.2568" x="84.7114" y="688.4517">[Missing required selections [UC-06.AC.1]]</text><g class="message" data-entity-1="part3" data-entity-2="part2" id="msg14"><polygon fill="#181818" points="297.3816,717.8604,287.3816,721.8604,297.3816,725.8604,293.3816,721.8604" style="stroke:#181818;stroke-width:1;"/><line style="stroke:#181818;stroke-width:2;stroke-dasharray:2,2;" x1="291.3816" x2="525.2083" y1="721.8604" y2="721.8604"/><text fill="#000000" font-family="Georgia" font-size="11" lengthAdjust="spacing" textLength="125.2539" x="303.3816" y="704.9502">422 Unprocessable Entity</text><text fill="#000000" font-family="Georgia" font-size="11" lengthAdjust="spacing" textLength="173.7334" x="303.3816" y="717.4487">{errors: ["age groups required", ...]}</text></g><g class="message" data-entity-1="part2" data-entity-2="part1" id="msg15"><polygon fill="#181818" points="72.9485,756.8574,62.9485,760.8574,72.9485,764.8574,68.9485,760.8574" style="stroke:#181818;stroke-width:1;"/><line style="stroke:#181818;stroke-width:2;stroke-dasharray:2,2;" x1="66.9485" x2="285.3816" y1="760.8574" y2="760.8574"/><text fill="#000000" font-family="Georgia" font-size="11" lengthAdjust="spacing" textLength="154.3169" x="78.9485" y="743.9473">Highlight missing/invalid fields</text><text fill="#000000" font-family="Georgia" font-size="11" lengthAdjust="spacing" textLength="145.5996" x="78.9485" y="756.4458">Navigate back to relevant step</text></g><line style="stroke:#000000;stroke-width:1;stroke-dasharray:2,2;" x1="10" x2="796.3916" y1="769.8574" y2="769.8574"/><text fill="#000000" font-family="Georgia" font-size="11" font-weight="bold" lengthAdjust="spacing" textLength="213.5225" x="15" y="779.9443">[Database write failure [UC-06.EX.1]]</text><g class="message" data-entity-1="part3" data-entity-2="part4" id="msg16"><polygon fill="#181818" points="748.9431,822.8516,758.9431,826.8516,748.9431,830.8516,752.9431,826.8516" style="stroke:#181818;stroke-width:1;"/><line style="stroke:#181818;stroke-width:2;" x1="526.2083" x2="754.9431" y1="826.8516" y2="826.8516"/><text fill="#000000" font-family="Georgia" font-size="11" lengthAdjust="spacing" textLength="159.2261" x="533.2083" y="797.4429">INSERT INTO business_profiles</text><text fill="#000000" font-family="Georgia" font-size="11" lengthAdjust="spacing" textLength="173.728" x="533.2083" y="809.9414">(user_id, name, sector, price_band,</text><text fill="#000000" font-family="Georgia" font-size="11" lengthAdjust="spacing" textLength="210.7349" x="533.2083" y="822.4399">age_groups, income_bands, reliance_type)</text></g><g class="message" data-entity-1="part4" data-entity-2="part3" id="msg17"><polygon fill="#181818" points="537.2083,849.3501,527.2083,853.3501,537.2083,857.3501,533.2083,853.3501" style="stroke:#181818;stroke-width:1;"/><line style="stroke:#181818;stroke-width:2;stroke-dasharray:2,2;" x1="531.2083" x2="759.9431" y1="853.3501" y2="853.3501"/><text fill="#000000" font-family="Georgia" font-size="11" lengthAdjust="spacing" textLength="26.6353" x="543.2083" y="848.9385">Error</text></g><g class="message" data-entity-1="part3" data-entity-2="part3" id="msg18"><line style="stroke:#181818;stroke-width:2;" x1="526.2083" x2="568.2083" y1="879.8486" y2="879.8486"/><line style="stroke:#181818;stroke-width:2;" x1="568.2083" x2="568.2083" y1="879.8486" y2="892.8486"/><line style="stroke:#181818;stroke-width:2;" x1="527.2083" x2="568.2083" y1="892.8486" y2="892.8486"/><polygon fill="#181818" points="537.2083,888.8486,527.2083,892.8486,537.2083,896.8486,533.2083,892.8486" style="stroke:#181818;stroke-width:1;"/><text fill="#000000" font-family="Georgia" font-size="11" lengthAdjust="spacing" textLength="45.5898" x="533.2083" y="875.437">Log error</text></g><g class="message" data-entity-1="part3" data-entity-2="part2" id="msg19"><polygon fill="#181818" points="297.3816,927.8457,287.3816,931.8457,297.3816,935.8457,293.3816,931.8457" style="stroke:#181818;stroke-width:1;"/><line style="stroke:#181818;stroke-width:2;stroke-dasharray:2,2;" x1="291.3816" x2="525.2083" y1="931.8457" y2="931.8457"/><text fill="#000000" font-family="Georgia" font-size="11" lengthAdjust="spacing" textLength="124.7866" x="303.3816" y="914.9355">500 Internal Server Error</text><text fill="#000000" font-family="Georgia" font-size="11" lengthAdjust="spacing" textLength="215.8267" x="303.3816" y="927.4341">{error: "Failed to save profile. Please retry."}</text></g><g class="message" data-entity-1="part2" data-entity-2="part1" id="msg20"><polygon fill="#181818" points="72.9485,954.3442,62.9485,958.3442,72.9485,962.3442,68.9485,958.3442" style="stroke:#181818;stroke-width:1;"/><line style="stroke:#181818;stroke-width:2;stroke-dasharray:2,2;" x1="66.9485" x2="285.3816" y1="958.3442" y2="958.3442"/><text fill="#000000" font-family="Georgia" font-size="11" lengthAdjust="spacing" textLength="199.9658" x="78.9485" y="953.9326">Show save-failure message + retry option</text></g><line style="stroke:#000000;stroke-width:1;stroke-dasharray:2,2;" x1="10" x2="796.3916" y1="967.3442" y2="967.3442"/><text fill="#000000" font-family="Georgia" font-size="11" font-weight="bold" lengthAdjust="spacing" textLength="107.5239" x="15" y="977.4312">[Valid submission]</text><g class="message" data-entity-1="part3" data-entity-2="part4" id="msg21"><polygon fill="#181818" points="748.9431,1020.3384,758.9431,1024.3384,748.9431,1028.3384,752.9431,1024.3384" style="stroke:#181818;stroke-width:1;"/><line style="stroke:#181818;stroke-width:2;" x1="526.2083" x2="754.9431" y1="1024.3384" y2="1024.3384"/><text fill="#000000" font-family="Georgia" font-size="11" lengthAdjust="spacing" textLength="159.2261" x="533.2083" y="994.9297">INSERT INTO business_profiles</text><text fill="#000000" font-family="Georgia" font-size="11" lengthAdjust="spacing" textLength="173.728" x="533.2083" y="1007.4282">(user_id, name, sector, price_band,</text><text fill="#000000" font-family="Georgia" font-size="11" lengthAdjust="spacing" textLength="210.7349" x="533.2083" y="1019.9268">age_groups, income_bands, reliance_type)</text></g><g class="message" data-entity-1="part4" data-entity-2="part3" id="msg22"><polygon fill="#181818" points="537.2083,1046.8369,527.2083,1050.8369,537.2083,1054.8369,533.2083,1050.8369" style="stroke:#181818;stroke-width:1;"/><line style="stroke:#181818;stroke-width:2;stroke-dasharray:2,2;" x1="531.2083" x2="759.9431" y1="1050.8369" y2="1050.8369"/><text fill="#000000" font-family="Georgia" font-size="11" lengthAdjust="spacing" textLength="174.4155" x="543.2083" y="1046.4253">New profile record (with profile_id)</text></g><g class="message" data-entity-1="part3" data-entity-2="part2" id="msg23"><polygon fill="#181818" points="297.3816,1085.834,287.3816,1089.834,297.3816,1093.834,293.3816,1089.834" style="stroke:#181818;stroke-width:1;"/><line style="stroke:#181818;stroke-width:2;stroke-dasharray:2,2;" x1="291.3816" x2="525.2083" y1="1089.834" y2="1089.834"/><text fill="#000000" font-family="Georgia" font-size="11" lengthAdjust="spacing" textLength="58.1367" x="303.3816" y="1072.9238">201 Created</text><text fill="#000000" font-family="Georgia" font-size="11" lengthAdjust="spacing" textLength="148.6396" x="303.3816" y="1085.4224">{profile: {id, name, sector, ...}}</text></g><g class="message" data-entity-1="part2" data-entity-2="part1" id="msg24"><polygon fill="#181818" points="72.9485,1124.8311,62.9485,1128.8311,72.9485,1132.8311,68.9485,1128.8311" style="stroke:#181818;stroke-width:1;"/><line style="stroke:#181818;stroke-width:2;stroke-dasharray:2,2;" x1="66.9485" x2="285.3816" y1="1128.8311" y2="1128.8311"/><text fill="#000000" font-family="Georgia" font-size="11" lengthAdjust="spacing" textLength="131.2266" x="78.9485" y="1111.9209">Show success confirmation</text><text fill="#000000" font-family="Georgia" font-size="11" lengthAdjust="spacing" textLength="200.4331" x="78.9485" y="1124.4194">+ Refresh and display updated profile list</text></g><?plantuml-src pLLTR-f647tthnZveG85ynM8AXuYaOJSHhhDZGBfhHGYjDW3MSLUkxjhA3UAr1_HNzXVqhCsdxb4juz5WZKxCpjdpfmTMsbZfeVBe7dMeqlDmZ9Tv4OgDeRkT3gJC5U-ocz2HrNFCozIPKABX0p_aRCAkQzrkXmzo_2b26dlkUWqLr6OQiMQMiqzGyGpaSVsEbNsLYHCdpZLSocEUmpbDwPMo_D4Q5DD_eDXFLQLVhFLw3VR-9vMVHA6tBw7Q2j3cGbboR_M26SLmVkU4LtwNGyElIv4-58wzPkTqWKFNYIic0h3v5-jdmhJrONdkKmKdECa0cSnIYV_0-fy3qu1V8kO7br9ayLYHSk2KFhdhxzfQ3cZLc-iDcmhHya93RcezmH7oP1fAbJqBlK0rMdAzi9gOsKuHY3QKqGZ20xR-4Cm_MWXq46oQGcY3H0ZeUTiISoPvkXVLZ7LTrc7PO9KCI51achUUHkmsFevQ7TgrEu6frXEkq47IwSRTB5qky4PbhFkIVK7M4w1vKQ5QL8Y_qymvCxV0VcSBgb1-6KT_2gZ21mrQFCmLWzPjc_uHSwVVmIg0r3t7CjoSvNnSKnwtmL0lehu9P0AIQvWMR1U5K3-vAZwWJnCdYG2RZ-HFyodYRG-JNDhK_K-OM7SIA0uxDof5wQxByCHDKGc6sihA7ajDBBMHgqKnWNOghaEVYeQ-FW43PL4EelxlwrdX7BUFC-TlqtpcuXbv9IlCG-aveXcakF8WAc0-fPY5iPIQoSHAWNAqJk7lUOTk0oF2Hdtnpw3qONBxdvpDXWGiGMj1ZTmleDJdYLJPUYn67Fr_cMzzUGHFaKb6ouxxJOzA90LulwAAKI1-oNj2hGnPfmsFNhqTqhVPl1hLA_NdzwA4m_RwJGLusifAM4rf2eXboIDrQrOoBcZRuefv7G6hddXvfA1u3oECO0syuUMMi9p9cISG-thQWQ_7rHpZWc5p3Utmy7z2Cle2vHJpgJ9JWYL700d4eq_eeY9OnWgGAsJijRQkZk5nUm4CN42hnR9aJNOYcBW-Dh7L6v_JkV4XwOD-TrcasxSE5CYHiirBabvoeRz7iOv2aT3GP8H2zw8lavtJa9EW5QlwlwnFWoVCGfSKB0XBt4zdhinMuHHcZc9b7mNaiOLd1PDm-x_YznRNcvdlcQyNYEgkEkmsKJcwlS4jvkjzUiTj-frxTgZr-zXGinl7vEOX-vwK9YgcTI9SAoDrGdTyqopUIwkQRGUOddc1aEq1HjBOpsyQRr_0G00?></g></svg>