<?plantuml 1.2026.2?><svg xmlns="http://www.w3.org/2000/svg" xmlns:xlink="http://www.w3.org/1999/xlink" contentStyleType="text/css" data-diagram-type="SEQUENCE" height="1133px" preserveAspectRatio="none" style="width:812px;height:1133px;background:#FFFFFF;" version="1.1" viewBox="0 0 812 1133" width="812px" zoomAndPan="magnify"><title>UC-08: Edit Business Profile</title><defs/><g><text fill="#000000" font-family="Georgia" font-size="14" font-weight="bold" lengthAdjust="spacing" textLength="205.4678" x="304.2749" y="27.8379">UC-08: Edit Business Profile</text><rect fill="none" height="505.4634" rx="5" ry="5" style="stroke:#000000;stroke-width:1.5;" width="795.0176" x="10" y="521.8779"/><g class="participant-lifeline" data-entity-uid="part1" data-qualified-name="User" id="part1-lifeline"><g><title>User</title><rect fill="#000000" fill-opacity="0.00000" height="917.437" width="8" x="57.9485" y="126.9043"/><line style="stroke:#181818;stroke-width:0.5;stroke-dasharray:5,5;" x1="61" x2="61" y1="126.9043" y2="1044.3413"/></g></g><g class="participant-lifeline" data-entity-uid="part2" data-qualified-name="FE" id="part2-lifeline"><g><title>Frontend</title><rect fill="#000000" fill-opacity="0.00000" height="917.437" width="8" x="306.1917" y="126.9043"/><line style="stroke:#181818;stroke-width:0.5;stroke-dasharray:5,5;" x1="309.4639" x2="309.4639" y1="126.9043" y2="1044.3413"/></g></g><g class="participant-lifeline" data-entity-uid="part3" data-qualified-name="A04" id="part3-lifeline"><g><title>Backend</title><rect fill="#000000" fill-opacity="0.00000" height="917.437" width="8" x="531.4573" y="126.9043"/><line style="stroke:#181818;stroke-width:0.5;stroke-dasharray:5,5;" x1="534.5798" x2="534.5798" y1="126.9043" y2="1044.3413"/></g></g><g class="participant-lifeline" data-entity-uid="part4" data-qualified-name="DB" id="part4-lifeline"><g><title>Database</title><rect fill="#000000" fill-opacity="0.00000" height="917.437" width="8" x="765.5691" y="126.9043"/><line style="stroke:#181818;stroke-width:0.5;stroke-dasharray:5,5;" x1="769.1206" x2="769.1206" y1="126.9043" y2="1044.3413"/></g></g><g class="participant participant-head" data-entity-uid="part1" data-qualified-name="User" id="part1-head"><text fill="#000000" font-family="Georgia" font-size="11" lengthAdjust="spacing" textLength="22.897" x="47.5" y="111.9941">User</text><text fill="#000000" font-family="Georgia" font-size="11" lengthAdjust="spacing" textLength="77.897" x="20" y="124.4927">(A01/A02/A03)</text><ellipse cx="61.9485" cy="50.4072" fill="#E2E2F0" rx="8" ry="8" style="stroke:#181818;stroke-width:0.5;"/><path d="M61.9485,58.4072 L61.9485,85.4072 M48.9485,66.4072 L74.9485,66.4072 M61.9485,85.4072 L48.9485,100.4072 M61.9485,85.4072 L74.9485,100.4072" fill="none" style="stroke:#181818;stroke-width:0.5;"/></g><g class="participant participant-tail" data-entity-uid="part1" data-qualified-name="User" id="part1-tail"><text fill="#000000" font-family="Georgia" font-size="11" lengthAdjust="spacing" textLength="22.897" x="47.5" y="1053.4282">User</text><text fill="#000000" font-family="Georgia" font-size="11" lengthAdjust="spacing" textLength="77.897" x="20" y="1065.9268">(A01/A02/A03)</text><ellipse cx="61.9485" cy="1076.8384" fill="#E2E2F0" rx="8" ry="8" style="stroke:#181818;stroke-width:0.5;"/><path d="M61.9485,1084.8384 L61.9485,1111.8384 M48.9485,1092.8384 L74.9485,1092.8384 M61.9485,1111.8384 L48.9485,1126.8384 M61.9485,1111.8384 L74.9485,1126.8384" fill="none" style="stroke:#181818;stroke-width:0.5;"/></g><g class="participant participant-head" data-entity-uid="part2" data-qualified-name="FE" id="part2-head"><rect fill="#E2E2F0" height="38.9971" rx="5" ry="5" style="stroke:#181818;stroke-width:0.5;" width="59.4556" x="280.4639" y="86.9072"/><text fill="#000000" font-family="Georgia" font-size="11" lengthAdjust="spacing" textLength="45.4556" x="287.4639" y="103.9941">Frontend</text><text fill="#000000" font-family="Georgia" font-size="11" lengthAdjust="spacing" textLength="35.6211" x="292.3811" y="116.4927">(React)</text></g><g class="participant participant-tail" data-entity-uid="part2" data-qualified-name="FE" id="part2-tail"><rect fill="#E2E2F0" height="38.9971" rx="5" ry="5" style="stroke:#181818;stroke-width:0.5;" width="59.4556" x="280.4639" y="1043.3413"/><text fill="#000000" font-family="Georgia" font-size="11" lengthAdjust="spacing" textLength="45.4556" x="287.4639" y="1060.4282">Frontend</text><text fill="#000000" font-family="Georgia" font-size="11" lengthAdjust="spacing" textLength="35.6211" x="292.3811" y="1072.9268">(React)</text></g><g class="participant participant-head" data-entity-uid="part3" data-qualified-name="A04" id="part3-head"><rect fill="#E2E2F0" height="38.9971" rx="5" ry="5" style="stroke:#181818;stroke-width:0.5;" width="55.7549" x="507.5798" y="86.9072"/><text fill="#000000" font-family="Georgia" font-size="11" lengthAdjust="spacing" textLength="41.7549" x="514.5798" y="103.9941">Backend</text><text fill="#000000" font-family="Georgia" font-size="11" lengthAdjust="spacing" textLength="28.5957" x="521.1594" y="116.4927">(A04)</text></g><g class="participant participant-tail" data-entity-uid="part3" data-qualified-name="A04" id="part3-tail"><rect fill="#E2E2F0" height="38.9971" rx="5" ry="5" style="stroke:#181818;stroke-width:0.5;" width="55.7549" x="507.5798" y="1043.3413"/><text fill="#000000" font-family="Georgia" font-size="11" lengthAdjust="spacing" textLength="41.7549" x="514.5798" y="1060.4282">Backend</text><text fill="#000000" font-family="Georgia" font-size="11" lengthAdjust="spacing" textLength="28.5957" x="521.1594" y="1072.9268">(A04)</text></g><g class="participant participant-head" data-entity-uid="part4" data-qualified-name="DB" id="part4-head"><text fill="#000000" font-family="Georgia" font-size="11" lengthAdjust="spacing" textLength="44.897" x="744.1206" y="124.4927">Database</text><path d="M751.5691,78.4058 C751.5691,68.4058 769.5691,68.4058 769.5691,68.4058 C769.5691,68.4058 787.5691,68.4058 787.5691,78.4058 L787.5691,104.4058 C787.5691,114.4058 769.5691,114.4058 769.5691,114.4058 C769.5691,114.4058 751.5691,114.4058 751.5691,104.4058 L751.5691,78.4058" fill="#E2E2F0" style="stroke:#181818;stroke-width:0.5;"/><path d="M751.5691,78.4058 C751.5691,88.4058 769.5691,88.4058 769.5691,88.4058 C769.5691,88.4058 787.5691,88.4058 787.5691,78.4058" fill="none" style="stroke:#181818;stroke-width:0.5;"/></g><g class="participant participant-tail" data-entity-uid="part4" data-qualified-name="DB" id="part4-tail"><text fill="#000000" font-family="Georgia" font-size="11" lengthAdjust="spacing" textLength="44.897" x="744.1206" y="1053.4282">Database</text><path d="M751.5691,1065.8398 C751.5691,1055.8398 769.5691,1055.8398 769.5691,1055.8398 C769.5691,1055.8398 787.5691,1055.8398 787.5691,1065.8398 L787.5691,1091.8398 C787.5691,1101.8398 769.5691,1101.8398 769.5691,1101.8398 C769.5691,1101.8398 751.5691,1101.8398 751.5691,1091.8398 L751.5691,1065.8398" fill="#E2E2F0" style="stroke:#181818;stroke-width:0.5;"/><path d="M751.5691,1065.8398 C751.5691,1075.8398 769.5691,1075.8398 769.5691,1075.8398 C769.5691,1075.8398 787.5691,1075.8398 787.5691,1065.8398" fill="none" style="stroke:#181818;stroke-width:0.5;"/></g><g class="message" data-entity-1="part1" data-entity-2="part2" id="msg1"><polygon fill="#181818" points="298.1917,151.4028,308.1917,155.4028,298.1917,159.4028,302.1917,155.4028" style="stroke:#181818;stroke-width:1;"/><line style="stroke:#181818;stroke-width:2;" x1="61.9485" x2="304.1917" y1="155.4028" y2="155.4028"/><text fill="#000000" font-family="Georgia" font-size="11" lengthAdjust="spacing" textLength="158.9092" x="68.9485" y="150.9912">Click "Edit" on a business profile</text></g><g class="message" data-entity-1="part2" data-entity-2="part3" id="msg2"><polygon fill="#181818" points="523.4573,177.9014,533.4573,181.9014,523.4573,185.9014,527.4573,181.9014" style="stroke:#181818;stroke-width:1;"/><line style="stroke:#181818;stroke-width:2;" x1="310.1917" x2="529.4573" y1="181.9014" y2="181.9014"/><text fill="#000000" font-family="Georgia" font-size="11" lengthAdjust="spacing" textLength="149.9395" x="317.1917" y="177.4897">GET /api/profiles/{profile_id}</text></g><g class="message" data-entity-1="part3" data-entity-2="part4" id="msg3"><polygon fill="#181818" points="757.5691,216.8984,767.5691,220.8984,757.5691,224.8984,761.5691,220.8984" style="stroke:#181818;stroke-width:1;"/><line style="stroke:#181818;stroke-width:2;" x1="535.4573" x2="763.5691" y1="220.8984" y2="220.8984"/><text fill="#000000" font-family="Georgia" font-size="11" lengthAdjust="spacing" textLength="172.498" x="542.4573" y="203.9883">SELECT * FROM business_profiles</text><text fill="#000000" font-family="Georgia" font-size="11" lengthAdjust="spacing" textLength="156.1484" x="542.4573" y="216.4868">WHERE id = ? AND user_id = ?</text></g><g class="message" data-entity-1="part4" data-entity-2="part3" id="msg4"><polygon fill="#181818" points="546.4573,243.397,536.4573,247.397,546.4573,251.397,542.4573,247.397" style="stroke:#181818;stroke-width:1;"/><line style="stroke:#181818;stroke-width:2;stroke-dasharray:2,2;" x1="540.4573" x2="768.5691" y1="247.397" y2="247.397"/><text fill="#000000" font-family="Georgia" font-size="11" lengthAdjust="spacing" textLength="66.6338" x="552.4573" y="242.9854">Profile record</text></g><g class="message" data-entity-1="part3" data-entity-2="part2" id="msg5"><polygon fill="#181818" points="321.1917,294.8926,311.1917,298.8926,321.1917,302.8926,317.1917,298.8926" style="stroke:#181818;stroke-width:1;"/><line style="stroke:#181818;stroke-width:2;stroke-dasharray:2,2;" x1="315.1917" x2="534.4573" y1="298.8926" y2="298.8926"/><text fill="#000000" font-family="Georgia" font-size="11" lengthAdjust="spacing" textLength="38.124" x="327.1917" y="269.4839">200 OK</text><text fill="#000000" font-family="Georgia" font-size="11" lengthAdjust="spacing" textLength="183.1221" x="327.1917" y="281.9824">{profile: {id, name, sector, priceBand,</text><text fill="#000000" font-family="Georgia" font-size="11" lengthAdjust="spacing" textLength="201.2656" x="327.1917" y="294.481">ageGroups, incomeBands, relianceType}}</text></g><g class="message" data-entity-1="part2" data-entity-2="part1" id="msg6"><polygon fill="#181818" points="72.9485,333.8896,62.9485,337.8896,72.9485,341.8896,68.9485,337.8896" style="stroke:#181818;stroke-width:1;"/><line style="stroke:#181818;stroke-width:2;stroke-dasharray:2,2;" x1="66.9485" x2="309.1917" y1="337.8896" y2="337.8896"/><text fill="#000000" font-family="Georgia" font-size="11" lengthAdjust="spacing" textLength="127.3701" x="78.9485" y="320.9795">Pre-populate wizard/form</text><text fill="#000000" font-family="Georgia" font-size="11" lengthAdjust="spacing" textLength="120.6455" x="78.9485" y="333.478">with existing profile data</text></g><g class="message" data-entity-1="part1" data-entity-2="part2" id="msg7"><polygon fill="#181818" points="298.1917,372.8867,308.1917,376.8867,298.1917,380.8867,302.1917,376.8867" style="stroke:#181818;stroke-width:1;"/><line style="stroke:#181818;stroke-width:2;" x1="61.9485" x2="304.1917" y1="376.8867" y2="376.8867"/><text fill="#000000" font-family="Georgia" font-size="11" lengthAdjust="spacing" textLength="63.6475" x="68.9485" y="359.9766">Modify fields</text><text fill="#000000" font-family="Georgia" font-size="11" lengthAdjust="spacing" textLength="224.2432" x="68.9485" y="372.4751">(name, sector, age groups, income bands, etc.)</text></g><g class="message" data-entity-1="part1" data-entity-2="part2" id="msg8"><polygon fill="#181818" points="298.1917,399.3853,308.1917,403.3853,298.1917,407.3853,302.1917,403.3853" style="stroke:#181818;stroke-width:1;"/><line style="stroke:#181818;stroke-width:2;" x1="61.9485" x2="304.1917" y1="403.3853" y2="403.3853"/><text fill="#000000" font-family="Georgia" font-size="11" lengthAdjust="spacing" textLength="77.1343" x="68.9485" y="398.9736">Submit changes</text></g><g class="message" data-entity-1="part2" data-entity-2="part3" id="msg9"><polygon fill="#181818" points="523.4573,450.8809,533.4573,454.8809,523.4573,458.8809,527.4573,454.8809" style="stroke:#181818;stroke-width:1;"/><line style="stroke:#181818;stroke-width:2;" x1="310.1917" x2="529.4573" y1="454.8809" y2="454.8809"/><text fill="#000000" font-family="Georgia" font-size="11" lengthAdjust="spacing" textLength="149.8052" x="317.1917" y="425.4722">PUT /api/profiles/{profile_id}</text><text fill="#000000" font-family="Georgia" font-size="11" lengthAdjust="spacing" textLength="191.2646" x="317.1917" y="437.9707">{name, sector, priceBand, ageGroups[],</text><text fill="#000000" font-family="Georgia" font-size="11" lengthAdjust="spacing" textLength="146.9263" x="317.1917" y="450.4692">incomeBands[], relianceType}</text></g><g class="message" data-entity-1="part3" data-entity-2="part3" id="msg10"><line style="stroke:#181818;stroke-width:2;" x1="535.4573" x2="577.4573" y1="493.8779" y2="493.8779"/><line style="stroke:#181818;stroke-width:2;" x1="577.4573" x2="577.4573" y1="493.8779" y2="506.8779"/><line style="stroke:#181818;stroke-width:2;" x1="536.4573" x2="577.4573" y1="506.8779" y2="506.8779"/><polygon fill="#181818" points="546.4573,502.8779,536.4573,506.8779,546.4573,510.8779,542.4573,506.8779" style="stroke:#181818;stroke-width:1;"/><text fill="#000000" font-family="Georgia" font-size="11" lengthAdjust="spacing" textLength="111.7617" x="542.4573" y="476.9678">Validate updated fields</text><text fill="#000000" font-family="Georgia" font-size="11" lengthAdjust="spacing" textLength="115.6719" x="542.4573" y="489.4663">(same rules as creation)</text></g><path d="M15,521.8779 L69.7114,521.8779 L69.7114,526.3765 L59.7114,536.3765 L10,536.3765 L10,526.8779 A5,5 0 0 1 15,521.8779" fill="#EEEEEE" style="stroke:#000000;stroke-width:1.5;"/><rect fill="none" height="505.4634" rx="5" ry="5" style="stroke:#000000;stroke-width:1.5;" width="795.0176" x="10" y="521.8779"/><text fill="#000000" font-family="Georgia" font-size="11" font-weight="bold" lengthAdjust="spacing" textLength="14.7114" x="25" y="532.9648">alt</text><text fill="#000000" font-family="Georgia" font-size="11" font-weight="bold" lengthAdjust="spacing" textLength="96.1157" x="84.7114" y="533.9648">[Validation fails]</text><g class="message" data-entity-1="part3" data-entity-2="part2" id="msg11"><polygon fill="#181818" points="321.1917,563.3735,311.1917,567.3735,321.1917,571.3735,317.1917,567.3735" style="stroke:#181818;stroke-width:1;"/><line style="stroke:#181818;stroke-width:2;stroke-dasharray:2,2;" x1="315.1917" x2="534.4573" y1="567.3735" y2="567.3735"/><text fill="#000000" font-family="Georgia" font-size="11" lengthAdjust="spacing" textLength="125.2539" x="327.1917" y="550.4634">422 Unprocessable Entity</text><text fill="#000000" font-family="Georgia" font-size="11" lengthAdjust="spacing" textLength="62.2188" x="327.1917" y="562.9619">{errors: [...]}</text></g><g class="message" data-entity-1="part2" data-entity-2="part1" id="msg12"><polygon fill="#181818" points="72.9485,589.8721,62.9485,593.8721,72.9485,597.8721,68.9485,593.8721" style="stroke:#181818;stroke-width:1;"/><line style="stroke:#181818;stroke-width:2;stroke-dasharray:2,2;" x1="66.9485" x2="309.1917" y1="593.8721" y2="593.8721"/><text fill="#000000" font-family="Georgia" font-size="11" lengthAdjust="spacing" textLength="111.418" x="78.9485" y="589.4604">Highlight invalid fields</text></g><line style="stroke:#000000;stroke-width:1;stroke-dasharray:2,2;" x1="10" x2="805.0176" y1="602.8721" y2="602.8721"/><text fill="#000000" font-family="Georgia" font-size="11" font-weight="bold" lengthAdjust="spacing" textLength="223.2549" x="15" y="612.959">[Database update failure [UC-08.EX.1]]</text><g class="message" data-entity-1="part3" data-entity-2="part4" id="msg13"><polygon fill="#181818" points="757.5691,643.3677,767.5691,647.3677,757.5691,651.3677,761.5691,647.3677" style="stroke:#181818;stroke-width:1;"/><line style="stroke:#181818;stroke-width:2;" x1="535.4573" x2="763.5691" y1="647.3677" y2="647.3677"/><text fill="#000000" font-family="Georgia" font-size="11" lengthAdjust="spacing" textLength="167.2559" x="542.4573" y="630.4575">UPDATE business_profiles SET ...</text><text fill="#000000" font-family="Georgia" font-size="11" lengthAdjust="spacing" textLength="156.1484" x="542.4573" y="642.9561">WHERE id = ? AND user_id = ?</text></g><g class="message" data-entity-1="part4" data-entity-2="part3" id="msg14"><polygon fill="#181818" points="546.4573,669.8662,536.4573,673.8662,546.4573,677.8662,542.4573,673.8662" style="stroke:#181818;stroke-width:1;"/><line style="stroke:#181818;stroke-width:2;stroke-dasharray:2,2;" x1="540.4573" x2="768.5691" y1="673.8662" y2="673.8662"/><text fill="#000000" font-family="Georgia" font-size="11" lengthAdjust="spacing" textLength="26.6353" x="552.4573" y="669.4546">Error</text></g><g class="message" data-entity-1="part3" data-entity-2="part2" id="msg15"><polygon fill="#181818" points="321.1917,696.3647,311.1917,700.3647,321.1917,704.3647,317.1917,700.3647" style="stroke:#181818;stroke-width:1;"/><line style="stroke:#181818;stroke-width:2;stroke-dasharray:2,2;" x1="315.1917" x2="534.4573" y1="700.3647" y2="700.3647"/><text fill="#000000" font-family="Georgia" font-size="11" lengthAdjust="spacing" textLength="124.7866" x="327.1917" y="695.9531">500 Internal Server Error</text></g><g class="message" data-entity-1="part2" data-entity-2="part1" id="msg16"><polygon fill="#181818" points="72.9485,722.8633,62.9485,726.8633,72.9485,730.8633,68.9485,726.8633" style="stroke:#181818;stroke-width:1;"/><line style="stroke:#181818;stroke-width:2;stroke-dasharray:2,2;" x1="66.9485" x2="309.1917" y1="726.8633" y2="726.8633"/><text fill="#000000" font-family="Georgia" font-size="11" lengthAdjust="spacing" textLength="167.9004" x="78.9485" y="722.4517">Show error message + retry option</text></g><line style="stroke:#000000;stroke-width:1;stroke-dasharray:2,2;" x1="10" x2="805.0176" y1="735.8633" y2="735.8633"/><text fill="#000000" font-family="Georgia" font-size="11" font-weight="bold" lengthAdjust="spacing" textLength="111.4287" x="15" y="745.9502">[Update successful]</text><g class="message" data-entity-1="part3" data-entity-2="part4" id="msg17"><polygon fill="#181818" points="757.5691,801.356,767.5691,805.356,757.5691,809.356,761.5691,805.356" style="stroke:#181818;stroke-width:1;"/><line style="stroke:#181818;stroke-width:2;" x1="535.4573" x2="763.5691" y1="805.356" y2="805.356"/><text fill="#000000" font-family="Georgia" font-size="11" lengthAdjust="spacing" textLength="155.708" x="542.4573" y="763.4487">UPDATE business_profiles SET</text><text fill="#000000" font-family="Georgia" font-size="11" lengthAdjust="spacing" textLength="193.1499" x="542.4573" y="775.9473">(name, sector, price_band, age_groups,</text><text fill="#000000" font-family="Georgia" font-size="11" lengthAdjust="spacing" textLength="210.1118" x="542.4573" y="788.4458">income_bands, reliance_type, updated_at)</text><text fill="#000000" font-family="Georgia" font-size="11" lengthAdjust="spacing" textLength="156.1484" x="542.4573" y="800.9443">WHERE id = ? AND user_id = ?</text></g><g class="message" data-entity-1="part4" data-entity-2="part3" id="msg18"><polygon fill="#181818" points="546.4573,827.8545,536.4573,831.8545,546.4573,835.8545,542.4573,831.8545" style="stroke:#181818;stroke-width:1;"/><line style="stroke:#181818;stroke-width:2;stroke-dasharray:2,2;" x1="540.4573" x2="768.5691" y1="831.8545" y2="831.8545"/><text fill="#000000" font-family="Georgia" font-size="11" lengthAdjust="spacing" textLength="77.3384" x="552.4573" y="827.4429">Record updated</text></g><g class="message" data-entity-1="part3" data-entity-2="part3" id="msg19"><line style="stroke:#181818;stroke-width:2;" x1="535.4573" x2="577.4573" y1="870.8516" y2="870.8516"/><line style="stroke:#181818;stroke-width:2;" x1="577.4573" x2="577.4573" y1="870.8516" y2="883.8516"/><line style="stroke:#181818;stroke-width:2;" x1="536.4573" x2="577.4573" y1="883.8516" y2="883.8516"/><polygon fill="#181818" points="546.4573,879.8516,536.4573,883.8516,546.4573,887.8516,542.4573,883.8516" style="stroke:#181818;stroke-width:1;"/><text fill="#000000" font-family="Georgia" font-size="11" lengthAdjust="spacing" textLength="118.2661" x="542.4573" y="853.9414">Invalidate cached scores</text><text fill="#000000" font-family="Georgia" font-size="11" lengthAdjust="spacing" textLength="69.4805" x="542.4573" y="866.4399">for this profile</text></g><path d="M460,901.8516 L460,938.8516 A5,5 0 0 0 465,943.8516 L604,943.8516 A5,5 0 0 0 609,938.8516 L609,906.8516 L599,896.8516 L465,896.8516 A5,5 0 0 0 460,901.8516" fill="#FEFFDD" style="stroke:#181818;stroke-width:0.5;"/><path d="M599,896.8516 L599,904.3516 A2.5,2.5 0 0 0 601.5,906.8516 L609,906.8516 L599,896.8516" fill="#FEFFDD" style="stroke:#181818;stroke-width:0.5;"/><text fill="#000000" font-family="Georgia" font-size="11" lengthAdjust="spacing" textLength="127.2036" x="466" y="911.9385">Score cache invalidated so</text><text fill="#000000" font-family="Georgia" font-size="11" lengthAdjust="spacing" textLength="128.498" x="466" y="924.437">next map load recomputes</text><text fill="#000000" font-family="Georgia" font-size="11" lengthAdjust="spacing" textLength="98.7261" x="466" y="936.9355">with updated profile</text><g class="message" data-entity-1="part3" data-entity-2="part2" id="msg20"><polygon fill="#181818" points="321.1917,976.3442,311.1917,980.3442,321.1917,984.3442,317.1917,980.3442" style="stroke:#181818;stroke-width:1;"/><line style="stroke:#181818;stroke-width:2;stroke-dasharray:2,2;" x1="315.1917" x2="534.4573" y1="980.3442" y2="980.3442"/><text fill="#000000" font-family="Georgia" font-size="11" lengthAdjust="spacing" textLength="38.124" x="327.1917" y="963.4341">200 OK</text><text fill="#000000" font-family="Georgia" font-size="11" lengthAdjust="spacing" textLength="182.6118" x="327.1917" y="975.9326">{profile: {id, name, ...updated fields}}</text></g><g class="message" data-entity-1="part2" data-entity-2="part1" id="msg21"><polygon fill="#181818" points="72.9485,1015.3413,62.9485,1019.3413,72.9485,1023.3413,68.9485,1019.3413" style="stroke:#181818;stroke-width:1;"/><line style="stroke:#181818;stroke-width:2;stroke-dasharray:2,2;" x1="66.9485" x2="309.1917" y1="1019.3413" y2="1019.3413"/><text fill="#000000" font-family="Georgia" font-size="11" lengthAdjust="spacing" textLength="131.2266" x="78.9485" y="1002.4312">Show success confirmation</text><text fill="#000000" font-family="Georgia" font-size="11" lengthAdjust="spacing" textLength="99.5317" x="78.9485" y="1014.9297">+ Refresh profile list</text></g><?plantuml-src bLLfRzf04Fs-lsB4fz1oDvKgfBQ2O9AepI6EjbA8hCLUurNiNNTt7K8Y_djdVK1ScbH1GlXuCplptfl1S1Cnc9yqEv_wuFZSm33LN32juLh9W4UC47t7HK8LZK6ptoaJ7Xie9TUpa7jt6RBt3A9aAdnFAi4KT3lFNlWie6banbAOInepE6LIhJZzDsBA7nbqkuHGpqW5jRbcQY6E1frkUz3fuVT3lGPKWtrECDfmZoTK6AYD5OOpuIDwmZ0wnusTAcf8lRiSDEWSvn2y83urT4arWzgekCfUZOQ4s9EW-GKpGHzE8cmTQfQl6aW159ObQqd16k8GZKaHVkhCe4qJtYvUwlPJSULoVqk8HI5uD4JirFdkdCpW7OmdLnUxj6uPkH0_pvo90zo7p_0L1fSZIB4oDxydcAAvExOG41H3FVpYcBA5NgS3LzyMegoa3q_SRu10QHgeiwMzWSrmZmsfy1iBGLVi5CLDT0Euy6ISFSSRnI9EqHEpJSAsswnlF2EZovR0cebCqeWQ1cl-I9NV3gIA5sBDJGZiWMl3nQfa3Qm0Vt5z8NqUR23WBFAn_QDgXLWLh2fbmJAlYnclLQ-ccgRB61tkXLIic2OLZQxdhsc4FBt43Eo8kRb5cfvnW_TLTdPAvqV-e17tBJ5fOd_yVO_Q3eXAiGfhFqynQhWKTHo7o9HX-002oYDD03yLROzxFPWBBDz3wz0byke8myq6ks0ukKhtuQRLQjrkiz2gOcTy5KRuDKZdlJsfg8gm2EUY78kYvAo0L36uoJP8o_dLwjxkwoaiFRyU3MREePVHwpF0ElxZQPkkucl7zd3OzKTqz3dElX8qWYbJzzZF7bhjSXhADMHSG6mvGXUzHwsCse1CBBLvk_EyIvrwbiaWZTxKsu5PCzEuoz8rRc7SqZJkiZfHha7JD4ftkDJKtyhK99lyCWDvNdqEECyrjarwr0lHWneZx9h1AGKJylr2ix528b1QOlFmgGNdaQLTCYDhkH22FHY8QGAHf7wsW-8aDJPrDlgbvylqXtg-kg7GDjMfsMvVahbG3pmf0gxYR78MuZsI4s2duMxtHBYB2Fufa3y0?></g></svg>