<?plantuml 1.2026.2?><svg xmlns="http://www.w3.org/2000/svg" xmlns:xlink="http://www.w3.org/1999/xlink" contentStyleType="text/css" data-diagram-type="SEQUENCE" height="1066px" preserveAspectRatio="none" style="width:820px;height:1066px;background:#FFFFFF;" version="1.1" viewBox="0 0 820 1066" width="820px" zoomAndPan="magnify"><title>UC-18: Edit Candidate Site Notes</title><defs/><g><text fill="#000000" font-family="Georgia" font-size="14" font-weight="bold" lengthAdjust="spacing" textLength="235.0059" x="293.8806" y="27.8379">UC-18: Edit Candidate Site Notes</text><rect fill="none" height="392.9707" rx="5" ry="5" style="stroke:#000000;stroke-width:1.5;" width="803.7671" x="10" y="566.875"/><g class="participant-lifeline" data-entity-uid="part1" data-qualified-name="User" id="part1-lifeline"><g><title>User</title><rect fill="#000000" fill-opacity="0.00000" height="849.9414" width="8" x="57.9485" y="126.9043"/><line style="stroke:#181818;stroke-width:0.5;stroke-dasharray:5,5;" x1="61" x2="61" y1="126.9043" y2="976.8457"/></g></g><g class="participant-lifeline" data-entity-uid="part2" data-qualified-name="FE" id="part2-lifeline"><g><title>Frontend</title><rect fill="#000000" fill-opacity="0.00000" height="849.9414" width="8" x="262.616" y="126.9043"/><line style="stroke:#181818;stroke-width:0.5;stroke-dasharray:5,5;" x1="265.8882" x2="265.8882" y1="126.9043" y2="976.8457"/></g></g><g class="participant-lifeline" data-entity-uid="part3" data-qualified-name="A04" id="part3-lifeline"><g><title>Backend</title><rect fill="#000000" fill-opacity="0.00000" height="849.9414" width="8" x="521.9827" y="126.9043"/><line style="stroke:#181818;stroke-width:0.5;stroke-dasharray:5,5;" x1="525.1052" x2="525.1052" y1="126.9043" y2="976.8457"/></g></g><g class="participant-lifeline" data-entity-uid="part4" data-qualified-name="DB" id="part4-lifeline"><g><title>Database</title><rect fill="#000000" fill-opacity="0.00000" height="849.9414" width="8" x="774.3186" y="126.9043"/><line style="stroke:#181818;stroke-width:0.5;stroke-dasharray:5,5;" x1="777.8701" x2="777.8701" y1="126.9043" y2="976.8457"/></g></g><g class="participant participant-head" data-entity-uid="part1" data-qualified-name="User" id="part1-head"><text fill="#000000" font-family="Georgia" font-size="11" lengthAdjust="spacing" textLength="22.897" x="47.5" y="111.9941">User</text><text fill="#000000" font-family="Georgia" font-size="11" lengthAdjust="spacing" textLength="77.897" x="20" y="124.4927">(A01/A02/A03)</text><ellipse cx="61.9485" cy="50.4072" fill="#E2E2F0" rx="8" ry="8" style="stroke:#181818;stroke-width:0.5;"/><path d="M61.9485,58.4072 L61.9485,85.4072 M48.9485,66.4072 L74.9485,66.4072 M61.9485,85.4072 L48.9485,100.4072 M61.9485,85.4072 L74.9485,100.4072" fill="none" style="stroke:#181818;stroke-width:0.5;"/></g><g class="participant participant-tail" data-entity-uid="part1" data-qualified-name="User" id="part1-tail"><text fill="#000000" font-family="Georgia" font-size="11" lengthAdjust="spacing" textLength="22.897" x="47.5" y="985.9326">User</text><text fill="#000000" font-family="Georgia" font-size="11" lengthAdjust="spacing" textLength="77.897" x="20" y="998.4312">(A01/A02/A03)</text><ellipse cx="61.9485" cy="1009.3428" fill="#E2E2F0" rx="8" ry="8" style="stroke:#181818;stroke-width:0.5;"/><path d="M61.9485,1017.3428 L61.9485,1044.3428 M48.9485,1025.3428 L74.9485,1025.3428 M61.9485,1044.3428 L48.9485,1059.3428 M61.9485,1044.3428 L74.9485,1059.3428" fill="none" style="stroke:#181818;stroke-width:0.5;"/></g><g class="participant participant-head" data-entity-uid="part2" data-qualified-name="FE" id="part2-head"><rect fill="#E2E2F0" height="38.9971" rx="5" ry="5" style="stroke:#181818;stroke-width:0.5;" width="59.4556" x="236.8882" y="86.9072"/><text fill="#000000" font-family="Georgia" font-size="11" lengthAdjust="spacing" textLength="45.4556" x="243.8882" y="103.9941">Frontend</text><text fill="#000000" font-family="Georgia" font-size="11" lengthAdjust="spacing" textLength="35.6211" x="248.8054" y="116.4927">(React)</text></g><g class="participant participant-tail" data-entity-uid="part2" data-qualified-name="FE" id="part2-tail"><rect fill="#E2E2F0" height="38.9971" rx="5" ry="5" style="stroke:#181818;stroke-width:0.5;" width="59.4556" x="236.8882" y="975.8457"/><text fill="#000000" font-family="Georgia" font-size="11" lengthAdjust="spacing" textLength="45.4556" x="243.8882" y="992.9326">Frontend</text><text fill="#000000" font-family="Georgia" font-size="11" lengthAdjust="spacing" textLength="35.6211" x="248.8054" y="1005.4312">(React)</text></g><g class="participant participant-head" data-entity-uid="part3" data-qualified-name="A04" id="part3-head"><rect fill="#E2E2F0" height="38.9971" rx="5" ry="5" style="stroke:#181818;stroke-width:0.5;" width="55.7549" x="498.1052" y="86.9072"/><text fill="#000000" font-family="Georgia" font-size="11" lengthAdjust="spacing" textLength="41.7549" x="505.1052" y="103.9941">Backend</text><text fill="#000000" font-family="Georgia" font-size="11" lengthAdjust="spacing" textLength="28.5957" x="511.6848" y="116.4927">(A04)</text></g><g class="participant participant-tail" data-entity-uid="part3" data-qualified-name="A04" id="part3-tail"><rect fill="#E2E2F0" height="38.9971" rx="5" ry="5" style="stroke:#181818;stroke-width:0.5;" width="55.7549" x="498.1052" y="975.8457"/><text fill="#000000" font-family="Georgia" font-size="11" lengthAdjust="spacing" textLength="41.7549" x="505.1052" y="992.9326">Backend</text><text fill="#000000" font-family="Georgia" font-size="11" lengthAdjust="spacing" textLength="28.5957" x="511.6848" y="1005.4312">(A04)</text></g><g class="participant participant-head" data-entity-uid="part4" data-qualified-name="DB" id="part4-head"><text fill="#000000" font-family="Georgia" font-size="11" lengthAdjust="spacing" textLength="44.897" x="752.8701" y="124.4927">Database</text><path d="M760.3186,78.4058 C760.3186,68.4058 778.3186,68.4058 778.3186,68.4058 C778.3186,68.4058 796.3186,68.4058 796.3186,78.4058 L796.3186,104.4058 C796.3186,114.4058 778.3186,114.4058 778.3186,114.4058 C778.3186,114.4058 760.3186,114.4058 760.3186,104.4058 L760.3186,78.4058" fill="#E2E2F0" style="stroke:#181818;stroke-width:0.5;"/><path d="M760.3186,78.4058 C760.3186,88.4058 778.3186,88.4058 778.3186,88.4058 C778.3186,88.4058 796.3186,88.4058 796.3186,78.4058" fill="none" style="stroke:#181818;stroke-width:0.5;"/></g><g class="participant participant-tail" data-entity-uid="part4" data-qualified-name="DB" id="part4-tail"><text fill="#000000" font-family="Georgia" font-size="11" lengthAdjust="spacing" textLength="44.897" x="752.8701" y="985.9326">Database</text><path d="M760.3186,998.3442 C760.3186,988.3442 778.3186,988.3442 778.3186,988.3442 C778.3186,988.3442 796.3186,988.3442 796.3186,998.3442 L796.3186,1024.3442 C796.3186,1034.3442 778.3186,1034.3442 778.3186,1034.3442 C778.3186,1034.3442 760.3186,1034.3442 760.3186,1024.3442 L760.3186,998.3442" fill="#E2E2F0" style="stroke:#181818;stroke-width:0.5;"/><path d="M760.3186,998.3442 C760.3186,1008.3442 778.3186,1008.3442 778.3186,1008.3442 C778.3186,1008.3442 796.3186,1008.3442 796.3186,998.3442" fill="none" style="stroke:#181818;stroke-width:0.5;"/></g><path d="M28,146.9043 L28,170.9043 A5,5 0 0 0 33,175.9043 L294,175.9043 A5,5 0 0 0 299,170.9043 L299,151.9043 L289,141.9043 L33,141.9043 A5,5 0 0 0 28,146.9043" fill="#FEFFDD" style="stroke:#181818;stroke-width:0.5;"/><path d="M289,141.9043 L289,149.4043 A2.5,2.5 0 0 0 291.5,151.9043 L299,151.9043 L289,141.9043" fill="#FEFFDD" style="stroke:#181818;stroke-width:0.5;"/><text fill="#000000" font-family="Georgia" font-size="11" lengthAdjust="spacing" textLength="142.6509" x="87.8464" y="156.9912">Precondition: User is viewing</text><text fill="#000000" font-family="Georgia" font-size="11" lengthAdjust="spacing" textLength="136.8501" x="87.8464" y="169.4897">Portfolio (UC-17 completed)</text><g class="message" data-entity-1="part1" data-entity-2="part2" id="msg1"><polygon fill="#181818" points="254.616,196.3999,264.616,200.3999,254.616,204.3999,258.616,200.3999" style="stroke:#181818;stroke-width:1;"/><line style="stroke:#181818;stroke-width:2;" x1="61.9485" x2="260.616" y1="200.3999" y2="200.3999"/><text fill="#000000" font-family="Georgia" font-size="11" lengthAdjust="spacing" textLength="180.6675" x="68.9485" y="195.9883">Click "Edit Notes" on a candidate site</text></g><g class="message" data-entity-1="part2" data-entity-2="part3" id="msg2"><polygon fill="#181818" points="513.9827,222.8984,523.9827,226.8984,513.9827,230.8984,517.9827,226.8984" style="stroke:#181818;stroke-width:1;"/><line style="stroke:#181818;stroke-width:2;" x1="266.616" x2="519.9827" y1="226.8984" y2="226.8984"/><text fill="#000000" font-family="Georgia" font-size="11" lengthAdjust="spacing" textLength="167.6318" x="273.616" y="222.4868">GET /api/portfolio/sites/{site_id}</text></g><g class="message" data-entity-1="part3" data-entity-2="part4" id="msg3"><polygon fill="#181818" points="766.3186,274.394,776.3186,278.394,766.3186,282.394,770.3186,278.394" style="stroke:#181818;stroke-width:1;"/><line style="stroke:#181818;stroke-width:2;" x1="525.9827" x2="772.3186" y1="278.394" y2="278.394"/><text fill="#000000" font-family="Georgia" font-size="11" lengthAdjust="spacing" textLength="188.7671" x="532.9827" y="248.9854">SELECT site_name, notes, updated_at</text><text fill="#000000" font-family="Georgia" font-size="11" lengthAdjust="spacing" textLength="111.8154" x="532.9827" y="261.4839">FROM candidate_sites</text><text fill="#000000" font-family="Georgia" font-size="11" lengthAdjust="spacing" textLength="156.1484" x="532.9827" y="273.9824">WHERE id = ? AND user_id = ?</text></g><g class="message" data-entity-1="part4" data-entity-2="part3" id="msg4"><polygon fill="#181818" points="536.9827,300.8926,526.9827,304.8926,536.9827,308.8926,532.9827,304.8926" style="stroke:#181818;stroke-width:1;"/><line style="stroke:#181818;stroke-width:2;stroke-dasharray:2,2;" x1="530.9827" x2="777.3186" y1="304.8926" y2="304.8926"/><text fill="#000000" font-family="Georgia" font-size="11" lengthAdjust="spacing" textLength="81.6138" x="542.9827" y="300.481">Current site data</text></g><g class="message" data-entity-1="part3" data-entity-2="part2" id="msg5"><polygon fill="#181818" points="277.616,339.8896,267.616,343.8896,277.616,347.8896,273.616,343.8896" style="stroke:#181818;stroke-width:1;"/><line style="stroke:#181818;stroke-width:2;stroke-dasharray:2,2;" x1="271.616" x2="524.9827" y1="343.8896" y2="343.8896"/><text fill="#000000" font-family="Georgia" font-size="11" lengthAdjust="spacing" textLength="38.124" x="283.616" y="326.9795">200 OK</text><text fill="#000000" font-family="Georgia" font-size="11" lengthAdjust="spacing" textLength="144.1548" x="283.616" y="339.478">{siteName, notes, updatedAt}</text></g><g class="message" data-entity-1="part2" data-entity-2="part1" id="msg6"><polygon fill="#181818" points="72.9485,391.3853,62.9485,395.3853,72.9485,399.3853,68.9485,395.3853" style="stroke:#181818;stroke-width:1;"/><line style="stroke:#181818;stroke-width:2;stroke-dasharray:2,2;" x1="66.9485" x2="265.616" y1="395.3853" y2="395.3853"/><text fill="#000000" font-family="Georgia" font-size="11" lengthAdjust="spacing" textLength="86.9795" x="78.9485" y="365.9766">Open notes editor</text><text fill="#000000" font-family="Georgia" font-size="11" lengthAdjust="spacing" textLength="82.5269" x="78.9485" y="378.4751">(modal or inline)</text><text fill="#000000" font-family="Georgia" font-size="11" lengthAdjust="spacing" textLength="176.1934" x="78.9485" y="390.9736">Pre-fill with current name and notes</text></g><g class="message" data-entity-1="part1" data-entity-2="part2" id="msg7"><polygon fill="#181818" points="254.616,417.8838,264.616,421.8838,254.616,425.8838,258.616,421.8838" style="stroke:#181818;stroke-width:1;"/><line style="stroke:#181818;stroke-width:2;" x1="61.9485" x2="260.616" y1="421.8838" y2="421.8838"/><text fill="#000000" font-family="Georgia" font-size="11" lengthAdjust="spacing" textLength="170.7793" x="68.9485" y="417.4722">Modify site name and/or notes text</text></g><g class="message" data-entity-1="part1" data-entity-2="part2" id="msg8"><polygon fill="#181818" points="254.616,444.3823,264.616,448.3823,254.616,452.3823,258.616,448.3823" style="stroke:#181818;stroke-width:1;"/><line style="stroke:#181818;stroke-width:2;" x1="61.9485" x2="260.616" y1="448.3823" y2="448.3823"/><text fill="#000000" font-family="Georgia" font-size="11" lengthAdjust="spacing" textLength="102.3569" x="68.9485" y="443.9707">Click "Save Changes"</text></g><g class="message" data-entity-1="part2" data-entity-2="part3" id="msg9"><polygon fill="#181818" points="513.9827,483.3794,523.9827,487.3794,513.9827,491.3794,517.9827,487.3794" style="stroke:#181818;stroke-width:1;"/><line style="stroke:#181818;stroke-width:2;" x1="266.616" x2="519.9827" y1="487.3794" y2="487.3794"/><text fill="#000000" font-family="Georgia" font-size="11" lengthAdjust="spacing" textLength="182.585" x="273.616" y="470.4692">PATCH /api/portfolio/sites/{site_id}</text><text fill="#000000" font-family="Georgia" font-size="11" lengthAdjust="spacing" textLength="87.4575" x="273.616" y="482.9678">{siteName, notes}</text></g><g class="message" data-entity-1="part3" data-entity-2="part3" id="msg10"><line style="stroke:#181818;stroke-width:2;" x1="525.9827" x2="567.9827" y1="538.875" y2="538.875"/><line style="stroke:#181818;stroke-width:2;" x1="567.9827" x2="567.9827" y1="538.875" y2="551.875"/><line style="stroke:#181818;stroke-width:2;" x1="526.9827" x2="567.9827" y1="551.875" y2="551.875"/><polygon fill="#181818" points="536.9827,547.875,526.9827,551.875,536.9827,555.875,532.9827,551.875" style="stroke:#181818;stroke-width:1;"/><text fill="#000000" font-family="Georgia" font-size="11" lengthAdjust="spacing" textLength="72.4399" x="532.9827" y="509.4663">Validate input:</text><text fill="#000000" font-family="Georgia" font-size="11" lengthAdjust="spacing" textLength="117.772" x="532.9827" y="521.9648">- notes &#8804; 500 characters</text><text fill="#000000" font-family="Georgia" font-size="11" lengthAdjust="spacing" textLength="136.4688" x="532.9827" y="534.4634">- siteName &#8804; 100 characters</text></g><path d="M15,566.875 L69.7114,566.875 L69.7114,571.3735 L59.7114,581.3735 L10,581.3735 L10,571.875 A5,5 0 0 1 15,566.875" fill="#EEEEEE" style="stroke:#000000;stroke-width:1.5;"/><rect fill="none" height="392.9707" rx="5" ry="5" style="stroke:#000000;stroke-width:1.5;" width="803.7671" x="10" y="566.875"/><text fill="#000000" font-family="Georgia" font-size="11" font-weight="bold" lengthAdjust="spacing" textLength="14.7114" x="25" y="577.9619">alt</text><text fill="#000000" font-family="Georgia" font-size="11" font-weight="bold" lengthAdjust="spacing" textLength="220.9292" x="84.7114" y="578.9619">[Database update failure [UC-18.EX.1]]</text><g class="message" data-entity-1="part3" data-entity-2="part4" id="msg11"><polygon fill="#181818" points="766.3186,620.8691,776.3186,624.8691,766.3186,628.8691,770.3186,624.8691" style="stroke:#181818;stroke-width:1;"/><line style="stroke:#181818;stroke-width:2;" x1="525.9827" x2="772.3186" y1="624.8691" y2="624.8691"/><text fill="#000000" font-family="Georgia" font-size="11" lengthAdjust="spacing" textLength="146.5771" x="532.9827" y="595.4604">UPDATE candidate_sites SET</text><text fill="#000000" font-family="Georgia" font-size="11" lengthAdjust="spacing" textLength="228.3359" x="532.9827" y="607.959">site_name = ?, notes = ?, updated_at = NOW()</text><text fill="#000000" font-family="Georgia" font-size="11" lengthAdjust="spacing" textLength="156.1484" x="532.9827" y="620.4575">WHERE id = ? AND user_id = ?</text></g><g class="message" data-entity-1="part4" data-entity-2="part3" id="msg12"><polygon fill="#181818" points="536.9827,647.3677,526.9827,651.3677,536.9827,655.3677,532.9827,651.3677" style="stroke:#181818;stroke-width:1;"/><line style="stroke:#181818;stroke-width:2;stroke-dasharray:2,2;" x1="530.9827" x2="777.3186" y1="651.3677" y2="651.3677"/><text fill="#000000" font-family="Georgia" font-size="11" lengthAdjust="spacing" textLength="26.6353" x="542.9827" y="646.9561">Error</text></g><g class="message" data-entity-1="part3" data-entity-2="part3" id="msg13"><line style="stroke:#181818;stroke-width:2;" x1="525.9827" x2="567.9827" y1="677.8662" y2="677.8662"/><line style="stroke:#181818;stroke-width:2;" x1="567.9827" x2="567.9827" y1="677.8662" y2="690.8662"/><line style="stroke:#181818;stroke-width:2;" x1="526.9827" x2="567.9827" y1="690.8662" y2="690.8662"/><polygon fill="#181818" points="536.9827,686.8662,526.9827,690.8662,536.9827,694.8662,532.9827,690.8662" style="stroke:#181818;stroke-width:1;"/><text fill="#000000" font-family="Georgia" font-size="11" lengthAdjust="spacing" textLength="45.5898" x="532.9827" y="673.4546">Log error</text></g><g class="message" data-entity-1="part3" data-entity-2="part2" id="msg14"><polygon fill="#181818" points="277.616,725.8633,267.616,729.8633,277.616,733.8633,273.616,729.8633" style="stroke:#181818;stroke-width:1;"/><line style="stroke:#181818;stroke-width:2;stroke-dasharray:2,2;" x1="271.616" x2="524.9827" y1="729.8633" y2="729.8633"/><text fill="#000000" font-family="Georgia" font-size="11" lengthAdjust="spacing" textLength="124.7866" x="283.616" y="712.9531">500 Internal Server Error</text><text fill="#000000" font-family="Georgia" font-size="11" lengthAdjust="spacing" textLength="235.3667" x="283.616" y="725.4517">{error: "Update failed. Original notes retained."}</text></g><g class="message" data-entity-1="part2" data-entity-2="part1" id="msg15"><polygon fill="#181818" points="72.9485,764.8604,62.9485,768.8604,72.9485,772.8604,68.9485,768.8604" style="stroke:#181818;stroke-width:1;"/><line style="stroke:#181818;stroke-width:2;stroke-dasharray:2,2;" x1="66.9485" x2="265.616" y1="768.8604" y2="768.8604"/><text fill="#000000" font-family="Georgia" font-size="11" lengthAdjust="spacing" textLength="97.6626" x="78.9485" y="751.9502">Show error message</text><text fill="#000000" font-family="Georgia" font-size="11" lengthAdjust="spacing" textLength="150.7344" x="78.9485" y="764.4487">Restore original notes in editor</text></g><line style="stroke:#000000;stroke-width:1;stroke-dasharray:2,2;" x1="10" x2="813.7671" y1="777.8604" y2="777.8604"/><text fill="#000000" font-family="Georgia" font-size="11" font-weight="bold" lengthAdjust="spacing" textLength="111.4287" x="15" y="787.9473">[Update successful]</text><g class="message" data-entity-1="part3" data-entity-2="part4" id="msg16"><polygon fill="#181818" points="766.3186,830.8545,776.3186,834.8545,766.3186,838.8545,770.3186,834.8545" style="stroke:#181818;stroke-width:1;"/><line style="stroke:#181818;stroke-width:2;" x1="525.9827" x2="772.3186" y1="834.8545" y2="834.8545"/><text fill="#000000" font-family="Georgia" font-size="11" lengthAdjust="spacing" textLength="146.5771" x="532.9827" y="805.4458">UPDATE candidate_sites SET</text><text fill="#000000" font-family="Georgia" font-size="11" lengthAdjust="spacing" textLength="228.3359" x="532.9827" y="817.9443">site_name = ?, notes = ?, updated_at = NOW()</text><text fill="#000000" font-family="Georgia" font-size="11" lengthAdjust="spacing" textLength="156.1484" x="532.9827" y="830.4429">WHERE id = ? AND user_id = ?</text></g><g class="message" data-entity-1="part4" data-entity-2="part3" id="msg17"><polygon fill="#181818" points="536.9827,857.353,526.9827,861.353,536.9827,865.353,532.9827,861.353" style="stroke:#181818;stroke-width:1;"/><line style="stroke:#181818;stroke-width:2;stroke-dasharray:2,2;" x1="530.9827" x2="777.3186" y1="861.353" y2="861.353"/><text fill="#000000" font-family="Georgia" font-size="11" lengthAdjust="spacing" textLength="77.3384" x="542.9827" y="856.9414">Record updated</text></g><g class="message" data-entity-1="part3" data-entity-2="part2" id="msg18"><polygon fill="#181818" points="277.616,896.3501,267.616,900.3501,277.616,904.3501,273.616,900.3501" style="stroke:#181818;stroke-width:1;"/><line style="stroke:#181818;stroke-width:2;stroke-dasharray:2,2;" x1="271.616" x2="524.9827" y1="900.3501" y2="900.3501"/><text fill="#000000" font-family="Georgia" font-size="11" lengthAdjust="spacing" textLength="38.124" x="283.616" y="883.4399">200 OK</text><text fill="#000000" font-family="Georgia" font-size="11" lengthAdjust="spacing" textLength="144.1548" x="283.616" y="895.9385">{siteName, notes, updatedAt}</text></g><g class="message" data-entity-1="part2" data-entity-2="part1" id="msg19"><polygon fill="#181818" points="72.9485,947.8457,62.9485,951.8457,72.9485,955.8457,68.9485,951.8457" style="stroke:#181818;stroke-width:1;"/><line style="stroke:#181818;stroke-width:2;stroke-dasharray:2,2;" x1="66.9485" x2="265.616" y1="951.8457" y2="951.8457"/><text fill="#000000" font-family="Georgia" font-size="11" lengthAdjust="spacing" textLength="57.9541" x="78.9485" y="922.437">Close editor</text><text fill="#000000" font-family="Georgia" font-size="11" lengthAdjust="spacing" textLength="119.1523" x="78.9485" y="934.9355">Show confirmation toast</text><text fill="#000000" font-family="Georgia" font-size="11" lengthAdjust="spacing" textLength="177.9658" x="78.9485" y="947.4341">Update site card/row in portfolio list</text></g><?plantuml-src pLNRRjf047tVhnZn5AHmIrkrGcehnvYaQW88I5Efhj3M7c0Liqjtrw4NvGFw7_soVabdrpQN95BwM2JmPS_SpfmPhB0PmbNOwBpgGfGA2o6NgKYvHPW8-XaeYuOnSoFacck-0eDVSvG91bghpNGfaXk9ni397aIhNAQ9qX8rTDfx1odEUPxPlf9sm5S8PwZqGl374HFn0w7JOOmdLcceNHdKiJmAsfrMq3wXxxDw3RW1zvwHjHM9M7DfeTRNP8uo9VGOoRh0zQD3r2bFRWfGq7vUGEY6KUdy2pS8jLvvvuzwfun9uWBKBLNbOXwJH-Z2I6EYY38hbEpw0n06RWLkX5p4SgIqdQjCA3XoBB-4HAtM6LfCwunvTEDDuIZCY4ke-IPurckW9718jWqnr116MBAWJCdaB9f2Ywz5Qrr5QJcCQVrqbvb8xnXpI3BedH9-4br4uTJxcKbgm36uaimnv6iN89rn6yl-U7Yv2php3cDvVHwD8n0fl8Qt40nwa5Fki-APaVF6Dgamrng9O6S8ZiqoXwhEatORXkzZwNCSF995OEzybMJW2Uh2S8so004IFShfOALIdW49GyXCIAmJrHeRSv5bi15s2KcPXgiJg9h2_XxdboeLy-z5gXMmHJwBM1Q_sKTxDE6t2E6IomLrwQ0Zes0QdZ_HauUbxzfKUFd0iwBZD1QvxSQoKMRqvzTlU47y9KkQbiIYDkwiykQFEmV7D3sPXKh99SCmvoBBDS8dF_ZDw6Epyva1VVR5SZNg1TFelX98GzDORXNasbyMKTpkb4JFW-7rKVq9xRYm1_g9QB7e_MoArnTg0NXuL7N5CVAE9bvBKiG4jPjGxuMOzYPTsXwxoZ5jmb2BXN3m8dMDbfE8qcRjphi_bDzagJP5R5ZHhkCBZEKO3UcGri6X8o5BXJBCYEyogicJX0pdUVRVi3ochQNJoX5xIEe_ZUb3hi9CKTtLb7hcQ3tEXLvnjo71AcveoLJ4kC5Bk4vRz6VYoDiE3MJ2M4RxcVq5?></g></svg>