<?plantuml 1.2026.2?><svg xmlns="http://www.w3.org/2000/svg" xmlns:xlink="http://www.w3.org/1999/xlink" contentStyleType="text/css" data-diagram-type="SEQUENCE" height="825px" preserveAspectRatio="none" style="width:780px;height:825px;background:#FFFFFF;" version="1.1" viewBox="0 0 780 825" width="780px" zoomAndPan="magnify"><title>UC-11: Toggle Map Layers</title><defs/><g><text fill="#000000" font-family="Georgia" font-size="14" font-weight="bold" lengthAdjust="spacing" textLength="184.0986" x="299.3779" y="27.8379">UC-11: Toggle Map Layers</text><rect fill="none" height="322.478" rx="5" ry="5" style="stroke:#000000;stroke-width:1.5;" width="763.8545" x="10" y="338.8896"/><g class="participant-lifeline" data-entity-uid="part1" data-qualified-name="User" id="part1-lifeline"><g><title>User</title><rect fill="#000000" fill-opacity="0.00000" height="608.959" width="8" x="57.9485" y="126.9043"/><line style="stroke:#181818;stroke-width:0.5;stroke-dasharray:5,5;" x1="61" x2="61" y1="126.9043" y2="735.8633"/></g></g><g class="participant-lifeline" data-entity-uid="part2" data-qualified-name="FE" id="part2-lifeline"><g><title>Frontend</title><rect fill="#000000" fill-opacity="0.00000" height="608.959" width="8" x="287.323" y="126.9043"/><line style="stroke:#181818;stroke-width:0.5;stroke-dasharray:5,5;" x1="290.5952" x2="290.5952" y1="126.9043" y2="735.8633"/></g></g><g class="participant-lifeline" data-entity-uid="part3" data-qualified-name="A04" id="part3-lifeline"><g><title>Backend</title><rect fill="#000000" fill-opacity="0.00000" height="608.959" width="8" x="470.5383" y="126.9043"/><line style="stroke:#181818;stroke-width:0.5;stroke-dasharray:5,5;" x1="473.6609" x2="473.6609" y1="126.9043" y2="735.8633"/></g></g><g class="participant-lifeline" data-entity-uid="part4" data-qualified-name="DB" id="part4-lifeline"><g><title>Database</title><rect fill="#000000" fill-opacity="0.00000" height="608.959" width="8" x="711.0847" y="126.9043"/><line style="stroke:#181818;stroke-width:0.5;stroke-dasharray:5,5;" x1="714.3149" x2="714.3149" y1="126.9043" y2="735.8633"/></g></g><g class="participant participant-head" data-entity-uid="part1" data-qualified-name="User" id="part1-head"><text fill="#000000" font-family="Georgia" font-size="11" lengthAdjust="spacing" textLength="22.897" x="47.5" y="111.9941">User</text><text fill="#000000" font-family="Georgia" font-size="11" lengthAdjust="spacing" textLength="77.897" x="20" y="124.4927">(A01/A02/A03)</text><ellipse cx="61.9485" cy="50.4072" fill="#E2E2F0" rx="8" ry="8" style="stroke:#181818;stroke-width:0.5;"/><path d="M61.9485,58.4072 L61.9485,85.4072 M48.9485,66.4072 L74.9485,66.4072 M61.9485,85.4072 L48.9485,100.4072 M61.9485,85.4072 L74.9485,100.4072" fill="none" style="stroke:#181818;stroke-width:0.5;"/></g><g class="participant participant-tail" data-entity-uid="part1" data-qualified-name="User" id="part1-tail"><text fill="#000000" font-family="Georgia" font-size="11" lengthAdjust="spacing" textLength="22.897" x="47.5" y="744.9502">User</text><text fill="#000000" font-family="Georgia" font-size="11" lengthAdjust="spacing" textLength="77.897" x="20" y="757.4487">(A01/A02/A03)</text><ellipse cx="61.9485" cy="768.3604" fill="#E2E2F0" rx="8" ry="8" style="stroke:#181818;stroke-width:0.5;"/><path d="M61.9485,776.3604 L61.9485,803.3604 M48.9485,784.3604 L74.9485,784.3604 M61.9485,803.3604 L48.9485,818.3604 M61.9485,803.3604 L74.9485,818.3604" fill="none" style="stroke:#181818;stroke-width:0.5;"/></g><g class="participant participant-head" data-entity-uid="part2" data-qualified-name="FE" id="part2-head"><rect fill="#E2E2F0" height="38.9971" rx="5" ry="5" style="stroke:#181818;stroke-width:0.5;" width="59.4556" x="261.5952" y="86.9072"/><text fill="#000000" font-family="Georgia" font-size="11" lengthAdjust="spacing" textLength="45.4556" x="268.5952" y="103.9941">Frontend</text><text fill="#000000" font-family="Georgia" font-size="11" lengthAdjust="spacing" textLength="35.6211" x="273.5125" y="116.4927">(React)</text></g><g class="participant participant-tail" data-entity-uid="part2" data-qualified-name="FE" id="part2-tail"><rect fill="#E2E2F0" height="38.9971" rx="5" ry="5" style="stroke:#181818;stroke-width:0.5;" width="59.4556" x="261.5952" y="734.8633"/><text fill="#000000" font-family="Georgia" font-size="11" lengthAdjust="spacing" textLength="45.4556" x="268.5952" y="751.9502">Frontend</text><text fill="#000000" font-family="Georgia" font-size="11" lengthAdjust="spacing" textLength="35.6211" x="273.5125" y="764.4487">(React)</text></g><g class="participant participant-head" data-entity-uid="part3" data-qualified-name="A04" id="part3-head"><rect fill="#E2E2F0" height="38.9971" rx="5" ry="5" style="stroke:#181818;stroke-width:0.5;" width="55.7549" x="446.6609" y="86.9072"/><text fill="#000000" font-family="Georgia" font-size="11" lengthAdjust="spacing" textLength="41.7549" x="453.6609" y="103.9941">Backend</text><text fill="#000000" font-family="Georgia" font-size="11" lengthAdjust="spacing" textLength="28.5957" x="460.2405" y="116.4927">(A04)</text></g><g class="participant participant-tail" data-entity-uid="part3" data-qualified-name="A04" id="part3-tail"><rect fill="#E2E2F0" height="38.9971" rx="5" ry="5" style="stroke:#181818;stroke-width:0.5;" width="55.7549" x="446.6609" y="734.8633"/><text fill="#000000" font-family="Georgia" font-size="11" lengthAdjust="spacing" textLength="41.7549" x="453.6609" y="751.9502">Backend</text><text fill="#000000" font-family="Georgia" font-size="11" lengthAdjust="spacing" textLength="28.5957" x="460.2405" y="764.4487">(A04)</text></g><g class="participant participant-head" data-entity-uid="part4" data-qualified-name="DB" id="part4-head"><text fill="#000000" font-family="Georgia" font-size="11" lengthAdjust="spacing" textLength="44.897" x="689.6362" y="111.9941">Database</text><text fill="#000000" font-family="Georgia" font-size="11" lengthAdjust="spacing" textLength="91.5396" x="666.3149" y="124.4927">(Cached Geo Data)</text><path d="M697.0847,65.9072 C697.0847,55.9072 715.0847,55.9072 715.0847,55.9072 C715.0847,55.9072 733.0847,55.9072 733.0847,65.9072 L733.0847,91.9072 C733.0847,101.9072 715.0847,101.9072 715.0847,101.9072 C715.0847,101.9072 697.0847,101.9072 697.0847,91.9072 L697.0847,65.9072" fill="#E2E2F0" style="stroke:#181818;stroke-width:0.5;"/><path d="M697.0847,65.9072 C697.0847,75.9072 715.0847,75.9072 715.0847,75.9072 C715.0847,75.9072 733.0847,75.9072 733.0847,65.9072" fill="none" style="stroke:#181818;stroke-width:0.5;"/></g><g class="participant participant-tail" data-entity-uid="part4" data-qualified-name="DB" id="part4-tail"><text fill="#000000" font-family="Georgia" font-size="11" lengthAdjust="spacing" textLength="44.897" x="689.6362" y="744.9502">Database</text><text fill="#000000" font-family="Georgia" font-size="11" lengthAdjust="spacing" textLength="91.5396" x="666.3149" y="757.4487">(Cached Geo Data)</text><path d="M697.0847,769.8604 C697.0847,759.8604 715.0847,759.8604 715.0847,759.8604 C715.0847,759.8604 733.0847,759.8604 733.0847,769.8604 L733.0847,795.8604 C733.0847,805.8604 715.0847,805.8604 715.0847,805.8604 C715.0847,805.8604 697.0847,805.8604 697.0847,795.8604 L697.0847,769.8604" fill="#E2E2F0" style="stroke:#181818;stroke-width:0.5;"/><path d="M697.0847,769.8604 C697.0847,779.8604 715.0847,779.8604 715.0847,779.8604 C715.0847,779.8604 733.0847,779.8604 733.0847,769.8604" fill="none" style="stroke:#181818;stroke-width:0.5;"/></g><g class="message" data-entity-1="part1" data-entity-2="part2" id="msg1"><polygon fill="#181818" points="279.323,151.4028,289.323,155.4028,279.323,159.4028,283.323,155.4028" style="stroke:#181818;stroke-width:1;"/><line style="stroke:#181818;stroke-width:2;" x1="61.9485" x2="285.323" y1="155.4028" y2="155.4028"/><text fill="#000000" font-family="Georgia" font-size="11" lengthAdjust="spacing" textLength="119.77" x="68.9485" y="150.9912">Open layer control panel</text></g><g class="message" data-entity-1="part2" data-entity-2="part1" id="msg2"><polygon fill="#181818" points="72.9485,202.8984,62.9485,206.8984,72.9485,210.8984,68.9485,206.8984" style="stroke:#181818;stroke-width:1;"/><line style="stroke:#181818;stroke-width:2;stroke-dasharray:2,2;" x1="66.9485" x2="290.323" y1="206.8984" y2="206.8984"/><text fill="#000000" font-family="Georgia" font-size="11" lengthAdjust="spacing" textLength="103.4258" x="78.9485" y="177.4897">Display layer toggles:</text><text fill="#000000" font-family="Georgia" font-size="11" lengthAdjust="spacing" textLength="151.5938" x="78.9485" y="189.9883">&#9744; MRT Stations  &#9744; MRT Exits</text><text fill="#000000" font-family="Georgia" font-size="11" lengthAdjust="spacing" textLength="154.3491" x="78.9485" y="202.4868">&#9744; Bus Stops  &#9744; Planning Areas</text></g><g class="message" data-entity-1="part1" data-entity-2="part2" id="msg3"><polygon fill="#181818" points="279.323,241.8955,289.323,245.8955,279.323,249.8955,283.323,245.8955" style="stroke:#181818;stroke-width:1;"/><line style="stroke:#181818;stroke-width:2;" x1="61.9485" x2="285.323" y1="245.8955" y2="245.8955"/><text fill="#000000" font-family="Georgia" font-size="11" lengthAdjust="spacing" textLength="115.0811" x="68.9485" y="228.9854">Toggle a layer checkbox</text><text fill="#000000" font-family="Georgia" font-size="11" lengthAdjust="spacing" textLength="141.5015" x="68.9485" y="241.4839">(e.g., enable "MRT Stations")</text></g><g class="message" data-entity-1="part2" data-entity-2="part3" id="msg4"><polygon fill="#181818" points="462.5383,280.8926,472.5383,284.8926,462.5383,288.8926,466.5383,284.8926" style="stroke:#181818;stroke-width:1;"/><line style="stroke:#181818;stroke-width:2;" x1="291.323" x2="468.5383" y1="284.8926" y2="284.8926"/><text fill="#000000" font-family="Georgia" font-size="11" lengthAdjust="spacing" textLength="141.0342" x="298.323" y="267.9824">GET /api/layers/{layerType}</text><text fill="#000000" font-family="Georgia" font-size="11" lengthAdjust="spacing" textLength="154.2095" x="298.323" y="280.481">(e.g., layerType = mrt_stations)</text></g><g class="message" data-entity-1="part3" data-entity-2="part4" id="msg5"><polygon fill="#181818" points="703.0847,319.8896,713.0847,323.8896,703.0847,327.8896,707.0847,323.8896" style="stroke:#181818;stroke-width:1;"/><line style="stroke:#181818;stroke-width:2;" x1="474.5383" x2="709.0847" y1="323.8896" y2="323.8896"/><text fill="#000000" font-family="Georgia" font-size="11" lengthAdjust="spacing" textLength="216.5464" x="481.5383" y="306.9795">SELECT geojson_data FROM cached_layers</text><text fill="#000000" font-family="Georgia" font-size="11" lengthAdjust="spacing" textLength="113.8994" x="481.5383" y="319.478">WHERE layer_type = ?</text></g><path d="M15,338.8896 L69.7114,338.8896 L69.7114,343.3882 L59.7114,353.3882 L10,353.3882 L10,343.8896 A5,5 0 0 1 15,338.8896" fill="#EEEEEE" style="stroke:#000000;stroke-width:1.5;"/><rect fill="none" height="322.478" rx="5" ry="5" style="stroke:#000000;stroke-width:1.5;" width="763.8545" x="10" y="338.8896"/><text fill="#000000" font-family="Georgia" font-size="11" font-weight="bold" lengthAdjust="spacing" textLength="14.7114" x="25" y="349.9766">alt</text><text fill="#000000" font-family="Georgia" font-size="11" font-weight="bold" lengthAdjust="spacing" textLength="252.6509" x="84.7114" y="350.9766">[Cached layer data unavailable [UC-11.EX.1]]</text><g class="message" data-entity-1="part4" data-entity-2="part3" id="msg6"><polygon fill="#181818" points="485.5383,367.8867,475.5383,371.8867,485.5383,375.8867,481.5383,371.8867" style="stroke:#181818;stroke-width:1;"/><line style="stroke:#181818;stroke-width:2;stroke-dasharray:2,2;" x1="479.5383" x2="714.0847" y1="371.8867" y2="371.8867"/><text fill="#000000" font-family="Georgia" font-size="11" lengthAdjust="spacing" textLength="75.3188" x="491.5383" y="367.4751">No data / Error</text></g><g class="message" data-entity-1="part3" data-entity-2="part2" id="msg7"><polygon fill="#181818" points="302.323,406.8838,292.323,410.8838,302.323,414.8838,298.323,410.8838" style="stroke:#181818;stroke-width:1;"/><line style="stroke:#181818;stroke-width:2;stroke-dasharray:2,2;" x1="296.323" x2="473.5383" y1="410.8838" y2="410.8838"/><text fill="#000000" font-family="Georgia" font-size="11" lengthAdjust="spacing" textLength="18.6323" x="308.323" y="393.9736">503</text><text fill="#000000" font-family="Georgia" font-size="11" lengthAdjust="spacing" textLength="159.2153" x="308.323" y="406.4722">{error: "Layer data unavailable"}</text></g><g class="message" data-entity-1="part2" data-entity-2="part1" id="msg8"><polygon fill="#181818" points="72.9485,445.8809,62.9485,449.8809,72.9485,453.8809,68.9485,449.8809" style="stroke:#181818;stroke-width:1;"/><line style="stroke:#181818;stroke-width:2;stroke-dasharray:2,2;" x1="66.9485" x2="290.323" y1="449.8809" y2="449.8809"/><text fill="#000000" font-family="Georgia" font-size="11" lengthAdjust="spacing" textLength="110.8647" x="78.9485" y="432.9707">Disable layer checkbox</text><text fill="#000000" font-family="Georgia" font-size="11" lengthAdjust="spacing" textLength="205.3745" x="78.9485" y="445.4692">Show tooltip: "Data currently unavailable"</text></g><line style="stroke:#000000;stroke-width:1;stroke-dasharray:2,2;" x1="10" x2="773.8545" y1="458.8809" y2="458.8809"/><text fill="#000000" font-family="Georgia" font-size="11" font-weight="bold" lengthAdjust="spacing" textLength="72.918" x="15" y="468.9678">[Data found]</text><g class="message" data-entity-1="part4" data-entity-2="part3" id="msg9"><polygon fill="#181818" points="485.5383,486.8779,475.5383,490.8779,485.5383,494.8779,481.5383,490.8779" style="stroke:#181818;stroke-width:1;"/><line style="stroke:#181818;stroke-width:2;stroke-dasharray:2,2;" x1="479.5383" x2="714.0847" y1="490.8779" y2="490.8779"/><text fill="#000000" font-family="Georgia" font-size="11" lengthAdjust="spacing" textLength="98.146" x="491.5383" y="486.4663">GeoJSON layer data</text></g><path d="M388,508.8779 L388,532.8779 A5,5 0 0 0 393,537.8779 L554,537.8779 A5,5 0 0 0 559,532.8779 L559,513.8779 L549,503.8779 L393,503.8779 A5,5 0 0 0 388,508.8779" fill="#FEFFDD" style="stroke:#181818;stroke-width:0.5;"/><path d="M549,503.8779 L549,511.3779 A2.5,2.5 0 0 0 551.5,513.8779 L559,513.8779 L549,503.8779" fill="#FEFFDD" style="stroke:#181818;stroke-width:0.5;"/><text fill="#000000" font-family="Georgia" font-size="11" lengthAdjust="spacing" textLength="100.2568" x="394" y="518.9648">MRT exits filtered to</text><text fill="#000000" font-family="Georgia" font-size="11" lengthAdjust="spacing" textLength="150.4443" x="394" y="531.4634">zoom level &#8805; 15 to avoid clutter</text><g class="message" data-entity-1="part3" data-entity-2="part2" id="msg10"><polygon fill="#181818" points="302.323,570.8721,292.323,574.8721,302.323,578.8721,298.323,574.8721" style="stroke:#181818;stroke-width:1;"/><line style="stroke:#181818;stroke-width:2;stroke-dasharray:2,2;" x1="296.323" x2="473.5383" y1="574.8721" y2="574.8721"/><text fill="#000000" font-family="Georgia" font-size="11" lengthAdjust="spacing" textLength="38.124" x="308.323" y="557.9619">200 OK</text><text fill="#000000" font-family="Georgia" font-size="11" lengthAdjust="spacing" textLength="132.6177" x="308.323" y="570.4604">{geoJSON: {...}, layerType}</text></g><g class="message" data-entity-1="part2" data-entity-2="part2" id="msg11"><line style="stroke:#181818;stroke-width:2;" x1="291.323" x2="333.323" y1="613.8691" y2="613.8691"/><line style="stroke:#181818;stroke-width:2;" x1="333.323" x2="333.323" y1="613.8691" y2="626.8691"/><line style="stroke:#181818;stroke-width:2;" x1="292.323" x2="333.323" y1="626.8691" y2="626.8691"/><polygon fill="#181818" points="302.323,622.8691,292.323,626.8691,302.323,630.8691,298.323,626.8691" style="stroke:#181818;stroke-width:1;"/><text fill="#000000" font-family="Georgia" font-size="11" lengthAdjust="spacing" textLength="146.4966" x="298.323" y="596.959">Render/remove layer markers</text><text fill="#000000" font-family="Georgia" font-size="11" lengthAdjust="spacing" textLength="72.0479" x="298.323" y="609.4575">on map canvas</text></g><g class="message" data-entity-1="part2" data-entity-2="part1" id="msg12"><polygon fill="#181818" points="72.9485,649.3677,62.9485,653.3677,72.9485,657.3677,68.9485,653.3677" style="stroke:#181818;stroke-width:1;"/><line style="stroke:#181818;stroke-width:2;stroke-dasharray:2,2;" x1="66.9485" x2="290.323" y1="653.3677" y2="653.3677"/><text fill="#000000" font-family="Georgia" font-size="11" lengthAdjust="spacing" textLength="160.1768" x="78.9485" y="648.9561">Layer displayed / hidden on map</text></g><path d="M28,678.3677 L28,715.3677 A5,5 0 0 0 33,720.3677 L319,720.3677 A5,5 0 0 0 324,715.3677 L324,683.3677 L314,673.3677 L33,673.3677 A5,5 0 0 0 28,678.3677" fill="#FEFFDD" style="stroke:#181818;stroke-width:0.5;"/><path d="M314,673.3677 L314,680.8677 A2.5,2.5 0 0 0 316.5,683.3677 L324,683.3677 L314,673.3677" fill="#FEFFDD" style="stroke:#181818;stroke-width:0.5;"/><text fill="#000000" font-family="Georgia" font-size="11" lengthAdjust="spacing" textLength="121.8325" x="98.3013" y="688.4546">User may toggle multiple</text><text fill="#000000" font-family="Georgia" font-size="11" lengthAdjust="spacing" textLength="104.7202" x="98.3013" y="700.9531">layers independently;</text><text fill="#000000" font-family="Georgia" font-size="11" lengthAdjust="spacing" textLength="146.4482" x="98.3013" y="713.4517">each triggers separate API call</text><?plantuml-src RLJRJXin47ttLupoL2HoW_AIgbG9sT0B49G4jL9JHMPtsBZnsblR2JVn0NthOt-WFyQNT6ml40YHecpiCsVEd9bP9vn4E3kejziTcEWyft_7l8GZVet6CcONGfNSy08i_bgYIh5hZBwSp4MwK6WjxAn1Z5wgBDL6eO5sQ-qYmmk-b6wWbJlX1S8XQfCB_ZfYB6uGsct6UEgqWTgPHJDLRxgjThFRsg7lxbODk0L_pYZQYLIKN3ce3Go5eye8FKAAZhX1yXpLu-aYWhgjjn523opZZfzpYr3hLq-4EE3f73El5_nfHFTxZFdaKDydSkZ0i4G5qZi6AIamMWAbGidejawW0Ev0NzYIK1NI1RDjPwhk__w1uz44neuxePK5U3X9heIp4T1RMWBeihezbLmfeNBe6kJsXPwgZ_n1qnpJnRc-edgmaJUs0HK_f_lQUjBQ5WjozxqPn76OJA39Iz4C7BPv6tudroNUFV8y7i5xA8oRsOgBg3m9SVLxH3LEZfA32UIeVrgjPjve68o6nv06TsSnmrHz_PYCaaWwSv7r0qs1T52r8POJufUAhxYGeOxlONmRoRT6-mS3-b3M-cCX9pf6D26XoJK14DGzkBNNsfsgM_IN7QWTlPgZTXVYDlePyhzqUJpNbzHUBPqeEt6S85qQWyh9wsUi32KDN01S-DtPL4-JztayF5ahdGMGqWv1h-WiudmhqKyBN0Zfq91RJa_LZTO5I5oXXFlV_w2zHwV0LrfaaCgb8o3RD6IdrOBX5_8aZyaxSDjeDExM-ltaHXKoeeL2qpHOaAPARC7D8lHLAtekgTjgHQEwwMDbUTmE4jw4kSWoMgaOo8YRiQU2VTHsJ1i82bgfk4nGBBtdaZOtpXG8abLwRTxwTrD5RuKvE2FotDzQz2yVuksUVY9vKhB_?></g></svg>