<?plantuml 1.2026.2?><svg xmlns="http://www.w3.org/2000/svg" xmlns:xlink="http://www.w3.org/1999/xlink" contentStyleType="text/css" data-diagram-type="SEQUENCE" height="797px" preserveAspectRatio="none" style="width:879px;height:797px;background:#FFFFFF;" version="1.1" viewBox="0 0 879 797" width="879px" zoomAndPan="magnify"><title>UC-14: View Planning Area Details</title><defs/><g><text fill="#000000" font-family="Georgia" font-size="14" font-weight="bold" lengthAdjust="spacing" textLength="247.7549" x="313.2988" y="27.8379">UC-14: View Planning Area Details</text><rect fill="none" height="287.9766" rx="5" ry="5" style="stroke:#000000;stroke-width:1.5;" width="582.6223" x="10" y="402.8838"/><g class="participant-lifeline" data-entity-uid="part1" data-qualified-name="User" id="part1-lifeline"><g><title>User</title><rect fill="#000000" fill-opacity="0.00000" height="580.9561" width="8" x="57.9485" y="126.9043"/><line style="stroke:#181818;stroke-width:0.5;stroke-dasharray:5,5;" x1="61" x2="61" y1="126.9043" y2="707.8604"/></g></g><g class="participant-lifeline" data-entity-uid="part2" data-qualified-name="FE" id="part2-lifeline"><g><title>Frontend</title><rect fill="#000000" fill-opacity="0.00000" height="580.9561" width="8" x="326.3547" y="126.9043"/><line style="stroke:#181818;stroke-width:0.5;stroke-dasharray:5,5;" x1="329.627" x2="329.627" y1="126.9043" y2="707.8604"/></g></g><g class="participant-lifeline" data-entity-uid="part3" data-qualified-name="A04" id="part3-lifeline"><g><title>Backend</title><rect fill="#000000" fill-opacity="0.00000" height="580.9561" width="8" x="550.7449" y="126.9043"/><line style="stroke:#181818;stroke-width:0.5;stroke-dasharray:5,5;" x1="553.8674" x2="553.8674" y1="126.9043" y2="707.8604"/></g></g><g class="participant-lifeline" data-entity-uid="part4" data-qualified-name="DB" id="part4-lifeline"><g><title>Database</title><rect fill="#000000" fill-opacity="0.00000" height="580.9561" width="8" x="840.9041" y="126.9043"/><line style="stroke:#181818;stroke-width:0.5;stroke-dasharray:5,5;" x1="844.4556" x2="844.4556" y1="126.9043" y2="707.8604"/></g></g><g class="participant participant-head" data-entity-uid="part1" data-qualified-name="User" id="part1-head"><text fill="#000000" font-family="Georgia" font-size="11" lengthAdjust="spacing" textLength="22.897" x="47.5" y="111.9941">User</text><text fill="#000000" font-family="Georgia" font-size="11" lengthAdjust="spacing" textLength="77.897" x="20" y="124.4927">(A01/A02/A03)</text><ellipse cx="61.9485" cy="50.4072" fill="#E2E2F0" rx="8" ry="8" style="stroke:#181818;stroke-width:0.5;"/><path d="M61.9485,58.4072 L61.9485,85.4072 M48.9485,66.4072 L74.9485,66.4072 M61.9485,85.4072 L48.9485,100.4072 M61.9485,85.4072 L74.9485,100.4072" fill="none" style="stroke:#181818;stroke-width:0.5;"/></g><g class="participant participant-tail" data-entity-uid="part1" data-qualified-name="User" id="part1-tail"><text fill="#000000" font-family="Georgia" font-size="11" lengthAdjust="spacing" textLength="22.897" x="47.5" y="716.9473">User</text><text fill="#000000" font-family="Georgia" font-size="11" lengthAdjust="spacing" textLength="77.897" x="20" y="729.4458">(A01/A02/A03)</text><ellipse cx="61.9485" cy="740.3574" fill="#E2E2F0" rx="8" ry="8" style="stroke:#181818;stroke-width:0.5;"/><path d="M61.9485,748.3574 L61.9485,775.3574 M48.9485,756.3574 L74.9485,756.3574 M61.9485,775.3574 L48.9485,790.3574 M61.9485,775.3574 L74.9485,790.3574" fill="none" style="stroke:#181818;stroke-width:0.5;"/></g><g class="participant participant-head" data-entity-uid="part2" data-qualified-name="FE" id="part2-head"><rect fill="#E2E2F0" height="38.9971" rx="5" ry="5" style="stroke:#181818;stroke-width:0.5;" width="59.4556" x="300.627" y="86.9072"/><text fill="#000000" font-family="Georgia" font-size="11" lengthAdjust="spacing" textLength="45.4556" x="307.627" y="103.9941">Frontend</text><text fill="#000000" font-family="Georgia" font-size="11" lengthAdjust="spacing" textLength="35.6211" x="312.5442" y="116.4927">(React)</text></g><g class="participant participant-tail" data-entity-uid="part2" data-qualified-name="FE" id="part2-tail"><rect fill="#E2E2F0" height="38.9971" rx="5" ry="5" style="stroke:#181818;stroke-width:0.5;" width="59.4556" x="300.627" y="706.8604"/><text fill="#000000" font-family="Georgia" font-size="11" lengthAdjust="spacing" textLength="45.4556" x="307.627" y="723.9473">Frontend</text><text fill="#000000" font-family="Georgia" font-size="11" lengthAdjust="spacing" textLength="35.6211" x="312.5442" y="736.4458">(React)</text></g><g class="participant participant-head" data-entity-uid="part3" data-qualified-name="A04" id="part3-head"><rect fill="#E2E2F0" height="38.9971" rx="5" ry="5" style="stroke:#181818;stroke-width:0.5;" width="55.7549" x="526.8674" y="86.9072"/><text fill="#000000" font-family="Georgia" font-size="11" lengthAdjust="spacing" textLength="41.7549" x="533.8674" y="103.9941">Backend</text><text fill="#000000" font-family="Georgia" font-size="11" lengthAdjust="spacing" textLength="28.5957" x="540.447" y="116.4927">(A04)</text></g><g class="participant participant-tail" data-entity-uid="part3" data-qualified-name="A04" id="part3-tail"><rect fill="#E2E2F0" height="38.9971" rx="5" ry="5" style="stroke:#181818;stroke-width:0.5;" width="55.7549" x="526.8674" y="706.8604"/><text fill="#000000" font-family="Georgia" font-size="11" lengthAdjust="spacing" textLength="41.7549" x="533.8674" y="723.9473">Backend</text><text fill="#000000" font-family="Georgia" font-size="11" lengthAdjust="spacing" textLength="28.5957" x="540.447" y="736.4458">(A04)</text></g><g class="participant participant-head" data-entity-uid="part4" data-qualified-name="DB" id="part4-head"><text fill="#000000" font-family="Georgia" font-size="11" lengthAdjust="spacing" textLength="44.897" x="819.4556" y="124.4927">Database</text><path d="M826.9041,78.4058 C826.9041,68.4058 844.9041,68.4058 844.9041,68.4058 C844.9041,68.4058 862.9041,68.4058 862.9041,78.4058 L862.9041,104.4058 C862.9041,114.4058 844.9041,114.4058 844.9041,114.4058 C844.9041,114.4058 826.9041,114.4058 826.9041,104.4058 L826.9041,78.4058" fill="#E2E2F0" style="stroke:#181818;stroke-width:0.5;"/><path d="M826.9041,78.4058 C826.9041,88.4058 844.9041,88.4058 844.9041,88.4058 C844.9041,88.4058 862.9041,88.4058 862.9041,78.4058" fill="none" style="stroke:#181818;stroke-width:0.5;"/></g><g class="participant participant-tail" data-entity-uid="part4" data-qualified-name="DB" id="part4-tail"><text fill="#000000" font-family="Georgia" font-size="11" lengthAdjust="spacing" textLength="44.897" x="819.4556" y="716.9473">Database</text><path d="M826.9041,729.3589 C826.9041,719.3589 844.9041,719.3589 844.9041,719.3589 C844.9041,719.3589 862.9041,719.3589 862.9041,729.3589 L862.9041,755.3589 C862.9041,765.3589 844.9041,765.3589 844.9041,765.3589 C844.9041,765.3589 826.9041,765.3589 826.9041,755.3589 L826.9041,729.3589" fill="#E2E2F0" style="stroke:#181818;stroke-width:0.5;"/><path d="M826.9041,729.3589 C826.9041,739.3589 844.9041,739.3589 844.9041,739.3589 C844.9041,739.3589 862.9041,739.3589 862.9041,729.3589" fill="none" style="stroke:#181818;stroke-width:0.5;"/></g><g class="message" data-entity-1="part1" data-entity-2="part2" id="msg1"><polygon fill="#181818" points="318.3547,163.9014,328.3547,167.9014,318.3547,171.9014,322.3547,167.9014" style="stroke:#181818;stroke-width:1;"/><line style="stroke:#181818;stroke-width:2;" x1="61.9485" x2="324.3547" y1="167.9014" y2="167.9014"/><text fill="#000000" font-family="Georgia" font-size="11" lengthAdjust="spacing" textLength="158.5708" x="68.9485" y="150.9912">Click on a planning area polygon</text><text fill="#000000" font-family="Georgia" font-size="11" lengthAdjust="spacing" textLength="113.04" x="68.9485" y="163.4897">or info icon on the map</text></g><g class="message" data-entity-1="part2" data-entity-2="part3" id="msg2"><polygon fill="#181818" points="542.7449,190.3999,552.7449,194.3999,542.7449,198.3999,546.7449,194.3999" style="stroke:#181818;stroke-width:1;"/><line style="stroke:#181818;stroke-width:2;" x1="330.3547" x2="548.7449" y1="194.3999" y2="194.3999"/><text fill="#000000" font-family="Georgia" font-size="11" lengthAdjust="spacing" textLength="200.3901" x="337.3547" y="189.9883">GET /api/areas/{areaId}?profileId=&lt;id&gt;</text></g><g class="message" data-entity-1="part3" data-entity-2="part4" id="msg3"><polygon fill="#181818" points="832.9041,229.397,842.9041,233.397,832.9041,237.397,836.9041,233.397" style="stroke:#181818;stroke-width:1;"/><line style="stroke:#181818;stroke-width:2;" x1="554.7449" x2="838.9041" y1="233.397" y2="233.397"/><text fill="#000000" font-family="Georgia" font-size="11" lengthAdjust="spacing" textLength="234.4536" x="561.7449" y="216.4868">SELECT area_id, name FROM area_boundaries</text><text fill="#000000" font-family="Georgia" font-size="11" lengthAdjust="spacing" textLength="99.6069" x="561.7449" y="228.9854">WHERE area_id = ?</text></g><g class="message" data-entity-1="part4" data-entity-2="part3" id="msg4"><polygon fill="#181818" points="565.7449,255.8955,555.7449,259.8955,565.7449,263.8955,561.7449,259.8955" style="stroke:#181818;stroke-width:1;"/><line style="stroke:#181818;stroke-width:2;stroke-dasharray:2,2;" x1="559.7449" x2="843.9041" y1="259.8955" y2="259.8955"/><text fill="#000000" font-family="Georgia" font-size="11" lengthAdjust="spacing" textLength="116.7461" x="571.7449" y="255.4839">Planning area identified</text></g><g class="message" data-entity-1="part3" data-entity-2="part4" id="msg5"><polygon fill="#181818" points="832.9041,357.3853,842.9041,361.3853,832.9041,365.3853,836.9041,361.3853" style="stroke:#181818;stroke-width:1;"/><line style="stroke:#181818;stroke-width:2;" x1="554.7449" x2="838.9041" y1="361.3853" y2="361.3853"/><text fill="#000000" font-family="Georgia" font-size="11" lengthAdjust="spacing" textLength="41.0513" x="561.7449" y="281.9824">SELECT</text><text fill="#000000" font-family="Georgia" font-size="11" lengthAdjust="spacing" textLength="260.8525" x="567.0515" y="294.481">demographics (age_distribution, income_indicators),</text><text fill="#000000" font-family="Georgia" font-size="11" lengthAdjust="spacing" textLength="205.1919" x="567.0515" y="306.9795">transport (mrt_count, bus_stop_density),</text><text fill="#000000" font-family="Georgia" font-size="11" lengthAdjust="spacing" textLength="232.1011" x="567.0515" y="319.478">commercial (vacancy_rate, rental_benchmark),</text><text fill="#000000" font-family="Georgia" font-size="11" lengthAdjust="spacing" textLength="110.478" x="567.0515" y="331.9766">area_composite_score</text><text fill="#000000" font-family="Georgia" font-size="11" lengthAdjust="spacing" textLength="100.0688" x="561.7449" y="344.4751">FROM area_profiles</text><text fill="#000000" font-family="Georgia" font-size="11" lengthAdjust="spacing" textLength="195.2124" x="561.7449" y="356.9736">WHERE area_id = ? AND profile_id = ?</text></g><g class="message" data-entity-1="part4" data-entity-2="part3" id="msg6"><polygon fill="#181818" points="565.7449,383.8838,555.7449,387.8838,565.7449,391.8838,561.7449,387.8838" style="stroke:#181818;stroke-width:1;"/><line style="stroke:#181818;stroke-width:2;stroke-dasharray:2,2;" x1="559.7449" x2="843.9041" y1="387.8838" y2="387.8838"/><text fill="#000000" font-family="Georgia" font-size="11" lengthAdjust="spacing" textLength="81.2378" x="571.7449" y="383.4722">Area profile data</text></g><path d="M15,402.8838 L69.7114,402.8838 L69.7114,407.3823 L59.7114,417.3823 L10,417.3823 L10,407.8838 A5,5 0 0 1 15,402.8838" fill="#EEEEEE" style="stroke:#000000;stroke-width:1.5;"/><rect fill="none" height="287.9766" rx="5" ry="5" style="stroke:#000000;stroke-width:1.5;" width="582.6223" x="10" y="402.8838"/><text fill="#000000" font-family="Georgia" font-size="11" font-weight="bold" lengthAdjust="spacing" textLength="14.7114" x="25" y="413.9707">alt</text><text fill="#000000" font-family="Georgia" font-size="11" font-weight="bold" lengthAdjust="spacing" textLength="239.3037" x="84.7114" y="414.9707">[Area profile data not found [UC-14.EX.1]]</text><g class="message" data-entity-1="part3" data-entity-2="part2" id="msg7"><polygon fill="#181818" points="341.3547,444.3794,331.3547,448.3794,341.3547,452.3794,337.3547,448.3794" style="stroke:#181818;stroke-width:1;"/><line style="stroke:#181818;stroke-width:2;stroke-dasharray:2,2;" x1="335.3547" x2="553.7449" y1="448.3794" y2="448.3794"/><text fill="#000000" font-family="Georgia" font-size="11" lengthAdjust="spacing" textLength="74.3145" x="347.3547" y="431.4692">404 Not Found</text><text fill="#000000" font-family="Georgia" font-size="11" lengthAdjust="spacing" textLength="192.124" x="347.3547" y="443.9678">{error: "Data unavailable for this area"}</text></g><g class="message" data-entity-1="part2" data-entity-2="part1" id="msg8"><polygon fill="#181818" points="72.9485,470.8779,62.9485,474.8779,72.9485,478.8779,68.9485,474.8779" style="stroke:#181818;stroke-width:1;"/><line style="stroke:#181818;stroke-width:2;stroke-dasharray:2,2;" x1="66.9485" x2="329.3547" y1="474.8779" y2="474.8779"/><text fill="#000000" font-family="Georgia" font-size="11" lengthAdjust="spacing" textLength="181.0703" x="78.9485" y="470.4663">Show "Data unavailable for this area"</text></g><line style="stroke:#000000;stroke-width:1;stroke-dasharray:2,2;" x1="10" x2="592.6223" y1="483.8779" y2="483.8779"/><text fill="#000000" font-family="Georgia" font-size="11" font-weight="bold" lengthAdjust="spacing" textLength="72.918" x="15" y="493.9648">[Data found]</text><g class="message" data-entity-1="part3" data-entity-2="part2" id="msg9"><polygon fill="#181818" points="341.3547,536.8721,331.3547,540.8721,341.3547,544.8721,337.3547,540.8721" style="stroke:#181818;stroke-width:1;"/><line style="stroke:#181818;stroke-width:2;stroke-dasharray:2,2;" x1="335.3547" x2="553.7449" y1="540.8721" y2="540.8721"/><text fill="#000000" font-family="Georgia" font-size="11" lengthAdjust="spacing" textLength="38.124" x="347.3547" y="511.4634">200 OK</text><text fill="#000000" font-family="Georgia" font-size="11" lengthAdjust="spacing" textLength="183.0093" x="347.3547" y="523.9619">{areaName, demographics, transport,</text><text fill="#000000" font-family="Georgia" font-size="11" lengthAdjust="spacing" textLength="115.2153" x="347.3547" y="536.4604">commercial, areaScore}</text></g><g class="message" data-entity-1="part2" data-entity-2="part1" id="msg10"><polygon fill="#181818" points="72.9485,625.8633,62.9485,629.8633,72.9485,633.8633,68.9485,629.8633" style="stroke:#181818;stroke-width:1;"/><line style="stroke:#181818;stroke-width:2;stroke-dasharray:2,2;" x1="66.9485" x2="329.3547" y1="629.8633" y2="629.8633"/><text fill="#000000" font-family="Georgia" font-size="11" lengthAdjust="spacing" textLength="115.9351" x="78.9485" y="562.959">Display side panel with:</text><text fill="#000000" font-family="Georgia" font-size="11" lengthAdjust="spacing" textLength="59.2163" x="78.9485" y="575.4575">- Area name</text><text fill="#000000" font-family="Georgia" font-size="11" lengthAdjust="spacing" textLength="238.4873" x="78.9485" y="587.9561">- Demographics charts (age/income distribution)</text><text fill="#000000" font-family="Georgia" font-size="11" lengthAdjust="spacing" textLength="244.4063" x="78.9485" y="600.4546">- Transport metrics (MRT count, bus stop density)</text><text fill="#000000" font-family="Georgia" font-size="11" lengthAdjust="spacing" textLength="229.7969" x="78.9485" y="612.9531">- Commercial metrics (vacancy %, rental index)</text><text fill="#000000" font-family="Georgia" font-size="11" lengthAdjust="spacing" textLength="203.1616" x="78.9485" y="625.4517">- Area composite score for selected profile</text></g><g class="message" data-entity-1="part1" data-entity-2="part2" id="msg11"><polygon fill="#181818" points="318.3547,652.3618,328.3547,656.3618,318.3547,660.3618,322.3547,656.3618" style="stroke:#181818;stroke-width:1;"/><line style="stroke:#181818;stroke-width:2;" x1="61.9485" x2="324.3547" y1="656.3618" y2="656.3618"/><text fill="#000000" font-family="Georgia" font-size="11" lengthAdjust="spacing" textLength="157.8618" x="68.9485" y="651.9502">Close panel or click another area</text></g><g class="message" data-entity-1="part2" data-entity-2="part1" id="msg12"><polygon fill="#181818" points="72.9485,678.8604,62.9485,682.8604,72.9485,686.8604,68.9485,682.8604" style="stroke:#181818;stroke-width:1;"/><line style="stroke:#181818;stroke-width:2;stroke-dasharray:2,2;" x1="66.9485" x2="329.3547" y1="682.8604" y2="682.8604"/><text fill="#000000" font-family="Georgia" font-size="11" lengthAdjust="spacing" textLength="159.6934" x="78.9485" y="678.4487">Close panel / repeat for new area</text></g><?plantuml-src XLJRRXen47ttLuoGAe440T8yeIOHuP9MRIuYfArKgjMmEx0Mk_RMDg4qohztxEMM1ga8nAvzpipup1axwJA2nrwZVTQ1hv9MS9-XKbBDeMi8eKyEPMQ5i0kf2ZIOWwLVIr8nTOtHgt4guuKYQ-7q06BqKYMnDeeCj5i76mdDS9cveLRk5dE2Qz9cBl4uua7-8MYtXS3OQGELHqjceghTLhlPRPtoxtsj0cZ1hmjcEndB0fM3oj0mdLJ2w14nkyGD1wzHLnWlIb2tTLP2-44aw72Abg3Itpo5hVwL43uJD2uu4dIWb_7HGIj0ABQQeTUiqDbwhjL4ST5IpJJ8c57yTIb1ZeLWEWVXN1pbUZ269XQowQcs-Up_FYKlbuNHCvdHf-JyWqmkXF1e9lMlcFCm-3BeZKEoI2PrK5xAuUZkfboQUlNHIB8JzUtZO3JO8k4SBWL7QEootxygN2Qad9n9IexbcoZWxkHwRh3WhbkeufoYH5fdv7Jff5PrFcwiSugaIcICt3HRgtkQCwXieOs3QcvS57E1hWxJfOsiqqN4QQrqwnBB0N8oiSGCgayOeuhNaK57TJ1S7MRHbCsNvcWM9JwSZKc5vXWKMROTJTHUZOsGnxI0xcqVDlj7vGaZi060zmLxCNDlbq5f1pClE_m8itGo-7xI_Yc0Fq78hMVE-EMMiKEFdQXduXaodT9fi5JunCE6KuuwO--uLDfGRkKbHFAsuK31XDoKLA_-InIKiP43A9JtjgBJLWlkFdCf7kzdilwgoVLzxrZjVM_g8Vw35_j57AckBoqFnHeiUmfut2Y3bNHfPw8QfNpUi_wbV-YeEENvB8tLBAq4X_wgUS9uvwMSUCVxy6OqXhsdm7iAjfxobDxUKZlEnbhmRkihzcv2lskx0dUMWc2f8AobZ697oRRvvSd_kHMqtPwO6N6u993zaJB8QtP4h4DEayif25t8f_W-3Xo-fiHV?></g></svg>