<?plantuml 1.2026.2?><svg xmlns="http://www.w3.org/2000/svg" xmlns:xlink="http://www.w3.org/1999/xlink" contentStyleType="text/css" data-diagram-type="SEQUENCE" height="1208px" preserveAspectRatio="none" style="width:993px;height:1208px;background:#FFFFFF;" version="1.1" viewBox="0 0 993 1208" width="993px" zoomAndPan="magnify"><title>UC-15: View Score Explanation (Insights)</title><defs/><g><text fill="#000000" font-family="Georgia" font-size="14" font-weight="bold" lengthAdjust="spacing" textLength="296.6455" x="349.6163" y="27.8379">UC-15: View Score Explanation (Insights)</text><rect fill="none" height="717.9443" rx="5" ry="5" style="stroke:#000000;stroke-width:1.5;" width="976.8782" x="10" y="383.8867"/><g class="participant-lifeline" data-entity-uid="part1" data-qualified-name="User" id="part1-lifeline"><g><title>User</title><rect fill="#000000" fill-opacity="0.00000" height="991.9268" width="8" x="57.9485" y="126.9043"/><line style="stroke:#181818;stroke-width:0.5;stroke-dasharray:5,5;" x1="61" x2="61" y1="126.9043" y2="1118.8311"/></g></g><g class="participant-lifeline" data-entity-uid="part2" data-qualified-name="FE" id="part2-lifeline"><g><title>Frontend</title><rect fill="#000000" fill-opacity="0.00000" height="991.9268" width="8" x="302.8079" y="126.9043"/><line style="stroke:#181818;stroke-width:0.5;stroke-dasharray:5,5;" x1="306.0801" x2="306.0801" y1="126.9043" y2="1118.8311"/></g></g><g class="participant-lifeline" data-entity-uid="part3" data-qualified-name="A04" id="part3-lifeline"><g><title>Backend</title><rect fill="#000000" fill-opacity="0.00000" height="991.9268" width="8" x="615.8962" y="126.9043"/><line style="stroke:#181818;stroke-width:0.5;stroke-dasharray:5,5;" x1="619.0188" x2="619.0188" y1="126.9043" y2="1118.8311"/></g></g><g class="participant-lifeline" data-entity-uid="part4" data-qualified-name="AI" id="part4-lifeline"><g><title>AI Agent</title><rect fill="#000000" fill-opacity="0.00000" height="991.9268" width="8" x="870.2947" y="126.9043"/><line style="stroke:#181818;stroke-width:0.5;stroke-dasharray:5,5;" x1="873.6082" x2="873.6082" y1="126.9043" y2="1118.8311"/></g></g><g class="participant-lifeline" data-entity-uid="part5" data-qualified-name="DB" id="part5-lifeline"><g><title>Database</title><rect fill="#000000" fill-opacity="0.00000" height="991.9268" width="8" x="947.4297" y="126.9043"/><line style="stroke:#181818;stroke-width:0.5;stroke-dasharray:5,5;" x1="950.9812" x2="950.9812" y1="126.9043" y2="1118.8311"/></g></g><g class="participant participant-head" data-entity-uid="part1" data-qualified-name="User" id="part1-head"><text fill="#000000" font-family="Georgia" font-size="11" lengthAdjust="spacing" textLength="22.897" x="47.5" y="111.9941">User</text><text fill="#000000" font-family="Georgia" font-size="11" lengthAdjust="spacing" textLength="77.897" x="20" y="124.4927">(A01/A02/A03)</text><ellipse cx="61.9485" cy="50.4072" fill="#E2E2F0" rx="8" ry="8" style="stroke:#181818;stroke-width:0.5;"/><path d="M61.9485,58.4072 L61.9485,85.4072 M48.9485,66.4072 L74.9485,66.4072 M61.9485,85.4072 L48.9485,100.4072 M61.9485,85.4072 L74.9485,100.4072" fill="none" style="stroke:#181818;stroke-width:0.5;"/></g><g class="participant participant-tail" data-entity-uid="part1" data-qualified-name="User" id="part1-tail"><text fill="#000000" font-family="Georgia" font-size="11" lengthAdjust="spacing" textLength="22.897" x="47.5" y="1127.918">User</text><text fill="#000000" font-family="Georgia" font-size="11" lengthAdjust="spacing" textLength="77.897" x="20" y="1140.4165">(A01/A02/A03)</text><ellipse cx="61.9485" cy="1151.3281" fill="#E2E2F0" rx="8" ry="8" style="stroke:#181818;stroke-width:0.5;"/><path d="M61.9485,1159.3281 L61.9485,1186.3281 M48.9485,1167.3281 L74.9485,1167.3281 M61.9485,1186.3281 L48.9485,1201.3281 M61.9485,1186.3281 L74.9485,1201.3281" fill="none" style="stroke:#181818;stroke-width:0.5;"/></g><g class="participant participant-head" data-entity-uid="part2" data-qualified-name="FE" id="part2-head"><rect fill="#E2E2F0" height="38.9971" rx="5" ry="5" style="stroke:#181818;stroke-width:0.5;" width="59.4556" x="277.0801" y="86.9072"/><text fill="#000000" font-family="Georgia" font-size="11" lengthAdjust="spacing" textLength="45.4556" x="284.0801" y="103.9941">Frontend</text><text fill="#000000" font-family="Georgia" font-size="11" lengthAdjust="spacing" textLength="35.6211" x="288.9973" y="116.4927">(React)</text></g><g class="participant participant-tail" data-entity-uid="part2" data-qualified-name="FE" id="part2-tail"><rect fill="#E2E2F0" height="38.9971" rx="5" ry="5" style="stroke:#181818;stroke-width:0.5;" width="59.4556" x="277.0801" y="1117.8311"/><text fill="#000000" font-family="Georgia" font-size="11" lengthAdjust="spacing" textLength="45.4556" x="284.0801" y="1134.918">Frontend</text><text fill="#000000" font-family="Georgia" font-size="11" lengthAdjust="spacing" textLength="35.6211" x="288.9973" y="1147.4165">(React)</text></g><g class="participant participant-head" data-entity-uid="part3" data-qualified-name="A04" id="part3-head"><rect fill="#E2E2F0" height="38.9971" rx="5" ry="5" style="stroke:#181818;stroke-width:0.5;" width="55.7549" x="592.0188" y="86.9072"/><text fill="#000000" font-family="Georgia" font-size="11" lengthAdjust="spacing" textLength="41.7549" x="599.0188" y="103.9941">Backend</text><text fill="#000000" font-family="Georgia" font-size="11" lengthAdjust="spacing" textLength="28.5957" x="605.5984" y="116.4927">(A04)</text></g><g class="participant participant-tail" data-entity-uid="part3" data-qualified-name="A04" id="part3-tail"><rect fill="#E2E2F0" height="38.9971" rx="5" ry="5" style="stroke:#181818;stroke-width:0.5;" width="55.7549" x="592.0188" y="1117.8311"/><text fill="#000000" font-family="Georgia" font-size="11" lengthAdjust="spacing" textLength="41.7549" x="599.0188" y="1134.918">Backend</text><text fill="#000000" font-family="Georgia" font-size="11" lengthAdjust="spacing" textLength="28.5957" x="605.5984" y="1147.4165">(A04)</text></g><g class="participant participant-head" data-entity-uid="part4" data-qualified-name="AI" id="part4-head"><rect fill="#E2E2F0" height="38.9971" rx="5" ry="5" style="stroke:#181818;stroke-width:0.5;" width="83.373" x="832.6082" y="86.9072"/><text fill="#000000" font-family="Georgia" font-size="11" lengthAdjust="spacing" textLength="42.915" x="852.8372" y="103.9941">AI Agent</text><text fill="#000000" font-family="Georgia" font-size="11" lengthAdjust="spacing" textLength="69.373" x="839.6082" y="116.4927">(LLM Service)</text></g><g class="participant participant-tail" data-entity-uid="part4" data-qualified-name="AI" id="part4-tail"><rect fill="#E2E2F0" height="38.9971" rx="5" ry="5" style="stroke:#181818;stroke-width:0.5;" width="83.373" x="832.6082" y="1117.8311"/><text fill="#000000" font-family="Georgia" font-size="11" lengthAdjust="spacing" textLength="42.915" x="852.8372" y="1134.918">AI Agent</text><text fill="#000000" font-family="Georgia" font-size="11" lengthAdjust="spacing" textLength="69.373" x="839.6082" y="1147.4165">(LLM Service)</text></g><g class="participant participant-head" data-entity-uid="part5" data-qualified-name="DB" id="part5-head"><text fill="#000000" font-family="Georgia" font-size="11" lengthAdjust="spacing" textLength="44.897" x="925.9812" y="124.4927">Database</text><path d="M933.4297,78.4058 C933.4297,68.4058 951.4297,68.4058 951.4297,68.4058 C951.4297,68.4058 969.4297,68.4058 969.4297,78.4058 L969.4297,104.4058 C969.4297,114.4058 951.4297,114.4058 951.4297,114.4058 C951.4297,114.4058 933.4297,114.4058 933.4297,104.4058 L933.4297,78.4058" fill="#E2E2F0" style="stroke:#181818;stroke-width:0.5;"/><path d="M933.4297,78.4058 C933.4297,88.4058 951.4297,88.4058 951.4297,88.4058 C951.4297,88.4058 969.4297,88.4058 969.4297,78.4058" fill="none" style="stroke:#181818;stroke-width:0.5;"/></g><g class="participant participant-tail" data-entity-uid="part5" data-qualified-name="DB" id="part5-tail"><text fill="#000000" font-family="Georgia" font-size="11" lengthAdjust="spacing" textLength="44.897" x="925.9812" y="1127.918">Database</text><path d="M933.4297,1140.3296 C933.4297,1130.3296 951.4297,1130.3296 951.4297,1130.3296 C951.4297,1130.3296 969.4297,1130.3296 969.4297,1140.3296 L969.4297,1166.3296 C969.4297,1176.3296 951.4297,1176.3296 951.4297,1176.3296 C951.4297,1176.3296 933.4297,1176.3296 933.4297,1166.3296 L933.4297,1140.3296" fill="#E2E2F0" style="stroke:#181818;stroke-width:0.5;"/><path d="M933.4297,1140.3296 C933.4297,1150.3296 951.4297,1150.3296 951.4297,1150.3296 C951.4297,1150.3296 969.4297,1150.3296 969.4297,1140.3296" fill="none" style="stroke:#181818;stroke-width:0.5;"/></g><path d="M28,146.9043 L28,170.9043 A5,5 0 0 0 33,175.9043 L334,175.9043 A5,5 0 0 0 339,170.9043 L339,151.9043 L329,141.9043 L33,141.9043 A5,5 0 0 0 28,146.9043" fill="#FEFFDD" style="stroke:#181818;stroke-width:0.5;"/><path d="M329,141.9043 L329,149.4043 A2.5,2.5 0 0 0 331.5,151.9043 L339,151.9043 L329,141.9043" fill="#FEFFDD" style="stroke:#181818;stroke-width:0.5;"/><text fill="#000000" font-family="Georgia" font-size="11" lengthAdjust="spacing" textLength="150.6699" x="103.9329" y="156.9912">Precondition: A site score from</text><text fill="#000000" font-family="Georgia" font-size="11" lengthAdjust="spacing" textLength="137.0542" x="103.9329" y="169.4897">UC-13 is currently displayed</text><g class="message" data-entity-1="part1" data-entity-2="part2" id="msg1"><polygon fill="#181818" points="294.8079,196.3999,304.8079,200.3999,294.8079,204.3999,298.8079,200.3999" style="stroke:#181818;stroke-width:1;"/><line style="stroke:#181818;stroke-width:2;" x1="61.9485" x2="300.8079" y1="200.3999" y2="200.3999"/><text fill="#000000" font-family="Georgia" font-size="11" lengthAdjust="spacing" textLength="103.0391" x="68.9485" y="195.9883">Click "Explain Score"</text></g><g class="message" data-entity-1="part2" data-entity-2="part3" id="msg2"><polygon fill="#181818" points="607.8962,235.397,617.8962,239.397,607.8962,243.397,611.8962,239.397" style="stroke:#181818;stroke-width:1;"/><line style="stroke:#181818;stroke-width:2;" x1="306.8079" x2="613.8962" y1="239.397" y2="239.397"/><text fill="#000000" font-family="Georgia" font-size="11" lengthAdjust="spacing" textLength="122.1118" x="313.8079" y="222.4868">POST /api/score/explain</text><text fill="#000000" font-family="Georgia" font-size="11" lengthAdjust="spacing" textLength="155.1978" x="313.8079" y="234.9854">{siteId OR scoreData, profileId}</text></g><g class="message" data-entity-1="part3" data-entity-2="part5" id="msg3"><polygon fill="#181818" points="939.4297,286.8926,949.4297,290.8926,939.4297,294.8926,943.4297,290.8926" style="stroke:#181818;stroke-width:1;"/><line style="stroke:#181818;stroke-width:2;" x1="619.8962" x2="945.4297" y1="290.8926" y2="290.8926"/><text fill="#000000" font-family="Georgia" font-size="11" lengthAdjust="spacing" textLength="207.7002" x="626.8962" y="261.4839">SELECT score_breakdown, demographics,</text><text fill="#000000" font-family="Georgia" font-size="11" lengthAdjust="spacing" textLength="144.3481" x="626.8962" y="273.9824">transport, rental, competition</text><text fill="#000000" font-family="Georgia" font-size="11" lengthAdjust="spacing" textLength="187.564" x="626.8962" y="286.481">FROM score_data WHERE site_id = ?</text></g><g class="message" data-entity-1="part5" data-entity-2="part3" id="msg4"><polygon fill="#181818" points="630.8962,313.3911,620.8962,317.3911,630.8962,321.3911,626.8962,317.3911" style="stroke:#181818;stroke-width:1;"/><line style="stroke:#181818;stroke-width:2;stroke-dasharray:2,2;" x1="624.8962" x2="950.4297" y1="317.3911" y2="317.3911"/><text fill="#000000" font-family="Georgia" font-size="11" lengthAdjust="spacing" textLength="166.2246" x="636.8962" y="312.9795">Score data and underlying metrics</text></g><g class="message" data-entity-1="part3" data-entity-2="part4" id="msg5"><polygon fill="#181818" points="862.2947,364.8867,872.2947,368.8867,862.2947,372.8867,866.2947,368.8867" style="stroke:#181818;stroke-width:1;"/><line style="stroke:#181818;stroke-width:2;" x1="619.8962" x2="868.2947" y1="368.8867" y2="368.8867"/><text fill="#000000" font-family="Georgia" font-size="11" lengthAdjust="spacing" textLength="199.0205" x="626.8962" y="339.478">Invoke AI Agent with structured prompt:</text><text fill="#000000" font-family="Georgia" font-size="11" lengthAdjust="spacing" textLength="218.5283" x="626.8962" y="351.9766">{scores, demographicData, transportMetrics,</text><text fill="#000000" font-family="Georgia" font-size="11" lengthAdjust="spacing" textLength="230.3984" x="626.8962" y="364.4751">rentalData, competitionCount, businessProfile}</text></g><path d="M15,383.8867 L69.7114,383.8867 L69.7114,388.3853 L59.7114,398.3853 L10,398.3853 L10,388.8867 A5,5 0 0 1 15,383.8867" fill="#EEEEEE" style="stroke:#000000;stroke-width:1.5;"/><rect fill="none" height="717.9443" rx="5" ry="5" style="stroke:#000000;stroke-width:1.5;" width="976.8782" x="10" y="383.8867"/><text fill="#000000" font-family="Georgia" font-size="11" font-weight="bold" lengthAdjust="spacing" textLength="14.7114" x="25" y="394.9736">alt</text><text fill="#000000" font-family="Georgia" font-size="11" font-weight="bold" lengthAdjust="spacing" textLength="209.5854" x="84.7114" y="395.9736">[AI service unavailable [UC-15.EX.1]]</text><g class="message" data-entity-1="part4" data-entity-2="part3" id="msg6"><polygon fill="#181818" points="630.8962,412.8838,620.8962,416.8838,630.8962,420.8838,626.8962,416.8838" style="stroke:#181818;stroke-width:1;"/><line style="stroke:#181818;stroke-width:2;stroke-dasharray:2,2;" x1="624.8962" x2="873.2947" y1="416.8838" y2="416.8838"/><text fill="#000000" font-family="Georgia" font-size="11" lengthAdjust="spacing" textLength="78.187" x="636.8962" y="412.4722">Error / Timeout</text></g><g class="message" data-entity-1="part3" data-entity-2="part3" id="msg7"><line style="stroke:#181818;stroke-width:2;" x1="619.8962" x2="661.8962" y1="443.3823" y2="443.3823"/><line style="stroke:#181818;stroke-width:2;" x1="661.8962" x2="661.8962" y1="443.3823" y2="456.3823"/><line style="stroke:#181818;stroke-width:2;" x1="620.8962" x2="661.8962" y1="456.3823" y2="456.3823"/><polygon fill="#181818" points="630.8962,452.3823,620.8962,456.3823,630.8962,460.3823,626.8962,456.3823" style="stroke:#181818;stroke-width:1;"/><text fill="#000000" font-family="Georgia" font-size="11" lengthAdjust="spacing" textLength="45.5898" x="626.8962" y="438.9707">Log error</text></g><g class="message" data-entity-1="part3" data-entity-2="part2" id="msg8"><polygon fill="#181818" points="317.8079,491.3794,307.8079,495.3794,317.8079,499.3794,313.8079,495.3794" style="stroke:#181818;stroke-width:1;"/><line style="stroke:#181818;stroke-width:2;stroke-dasharray:2,2;" x1="311.8079" x2="618.8962" y1="495.3794" y2="495.3794"/><text fill="#000000" font-family="Georgia" font-size="11" lengthAdjust="spacing" textLength="18.6323" x="323.8079" y="478.4692">503</text><text fill="#000000" font-family="Georgia" font-size="11" lengthAdjust="spacing" textLength="231.9131" x="323.8079" y="490.9678">{error: "Explanations temporarily unavailable"}</text></g><g class="message" data-entity-1="part2" data-entity-2="part1" id="msg9"><polygon fill="#181818" points="72.9485,530.3765,62.9485,534.3765,72.9485,538.3765,68.9485,534.3765" style="stroke:#181818;stroke-width:1;"/><line style="stroke:#181818;stroke-width:2;stroke-dasharray:2,2;" x1="66.9485" x2="305.8079" y1="534.3765" y2="534.3765"/><text fill="#000000" font-family="Georgia" font-size="11" lengthAdjust="spacing" textLength="220.8594" x="78.9485" y="517.4663">Show "Explanations temporarily unavailable"</text><text fill="#000000" font-family="Georgia" font-size="11" lengthAdjust="spacing" textLength="70.7964" x="78.9485" y="529.9648">+ Retry option</text></g><line style="stroke:#000000;stroke-width:1;stroke-dasharray:2,2;" x1="10" x2="986.8782" y1="543.3765" y2="543.3765"/><text fill="#000000" font-family="Georgia" font-size="11" font-weight="bold" lengthAdjust="spacing" textLength="197.5542" x="15" y="553.4634">[Partial data missing [UC-15.AC.1]]</text><g class="message" data-entity-1="part4" data-entity-2="part3" id="msg10"><polygon fill="#181818" points="630.8962,583.8721,620.8962,587.8721,630.8962,591.8721,626.8962,587.8721" style="stroke:#181818;stroke-width:1;"/><line style="stroke:#181818;stroke-width:2;stroke-dasharray:2,2;" x1="624.8962" x2="873.2947" y1="587.8721" y2="587.8721"/><text fill="#000000" font-family="Georgia" font-size="11" lengthAdjust="spacing" textLength="73.3745" x="636.8962" y="570.9619">Partial insights</text><text fill="#000000" font-family="Georgia" font-size="11" lengthAdjust="spacing" textLength="183.9009" x="636.8962" y="583.4604">(e.g., competition dimension missing)</text></g><g class="message" data-entity-1="part3" data-entity-2="part2" id="msg11"><polygon fill="#181818" points="317.8079,622.8691,307.8079,626.8691,317.8079,630.8691,313.8079,626.8691" style="stroke:#181818;stroke-width:1;"/><line style="stroke:#181818;stroke-width:2;stroke-dasharray:2,2;" x1="311.8079" x2="618.8962" y1="626.8691" y2="626.8691"/><text fill="#000000" font-family="Georgia" font-size="11" lengthAdjust="spacing" textLength="38.124" x="323.8079" y="609.959">200 OK</text><text fill="#000000" font-family="Georgia" font-size="11" lengthAdjust="spacing" textLength="289.0884" x="323.8079" y="622.4575">{insights: {...}, warnings: ["Competition data unavailable"]}</text></g><g class="message" data-entity-1="part2" data-entity-2="part1" id="msg12"><polygon fill="#181818" points="72.9485,661.8662,62.9485,665.8662,72.9485,669.8662,68.9485,665.8662" style="stroke:#181818;stroke-width:1;"/><line style="stroke:#181818;stroke-width:2;stroke-dasharray:2,2;" x1="66.9485" x2="305.8079" y1="665.8662" y2="665.8662"/><text fill="#000000" font-family="Georgia" font-size="11" lengthAdjust="spacing" textLength="123.2505" x="78.9485" y="648.9561">Display available insights</text><text fill="#000000" font-family="Georgia" font-size="11" lengthAdjust="spacing" textLength="177.2407" x="78.9485" y="661.4546">+ Warning about missing dimension</text></g><line style="stroke:#000000;stroke-width:1;stroke-dasharray:2,2;" x1="10" x2="986.8782" y1="674.8662" y2="674.8662"/><text fill="#000000" font-family="Georgia" font-size="11" font-weight="bold" lengthAdjust="spacing" textLength="132.9077" x="15" y="684.9531">[All insights generated]</text><g class="message" data-entity-1="part4" data-entity-2="part3" id="msg13"><polygon fill="#181818" points="630.8962,752.8574,620.8962,756.8574,630.8962,760.8574,626.8962,756.8574" style="stroke:#181818;stroke-width:1;"/><line style="stroke:#181818;stroke-width:2;stroke-dasharray:2,2;" x1="624.8962" x2="873.2947" y1="756.8574" y2="756.8574"/><text fill="#000000" font-family="Georgia" font-size="11" lengthAdjust="spacing" textLength="96.4058" x="636.8962" y="702.4517">Structured insights:</text><text fill="#000000" font-family="Georgia" font-size="11" lengthAdjust="spacing" textLength="130.7109" x="636.8962" y="714.9502">{demographicExplanation,</text><text fill="#000000" font-family="Georgia" font-size="11" lengthAdjust="spacing" textLength="120.7153" x="636.8962" y="727.4487">accessibilityExplanation,</text><text fill="#000000" font-family="Georgia" font-size="11" lengthAdjust="spacing" textLength="90.981" x="636.8962" y="739.9473">rentalExplanation,</text><text fill="#000000" font-family="Georgia" font-size="11" lengthAdjust="spacing" textLength="122.6221" x="636.8962" y="752.4458">competitionExplanation}</text></g><g class="message" data-entity-1="part3" data-entity-2="part2" id="msg14"><polygon fill="#181818" points="317.8079,804.353,307.8079,808.353,317.8079,812.353,313.8079,808.353" style="stroke:#181818;stroke-width:1;"/><line style="stroke:#181818;stroke-width:2;stroke-dasharray:2,2;" x1="311.8079" x2="618.8962" y1="808.353" y2="808.353"/><text fill="#000000" font-family="Georgia" font-size="11" lengthAdjust="spacing" textLength="38.124" x="323.8079" y="778.9443">200 OK</text><text fill="#000000" font-family="Georgia" font-size="11" lengthAdjust="spacing" textLength="184.7441" x="323.8079" y="791.4429">{insights: {demographic, accessibility,</text><text fill="#000000" font-family="Georgia" font-size="11" lengthAdjust="spacing" textLength="182.0103" x="323.8079" y="803.9414">rentalPressure, competitionDensity}}</text></g><g class="message" data-entity-1="part2" data-entity-2="part1" id="msg15"><polygon fill="#181818" points="72.9485,893.3442,62.9485,897.3442,72.9485,901.3442,68.9485,897.3442" style="stroke:#181818;stroke-width:1;"/><line style="stroke:#181818;stroke-width:2;stroke-dasharray:2,2;" x1="66.9485" x2="305.8079" y1="897.3442" y2="897.3442"/><text fill="#000000" font-family="Georgia" font-size="11" lengthAdjust="spacing" textLength="129.4756" x="78.9485" y="830.4399">Display explanation panel:</text><text fill="#000000" font-family="Georgia" font-size="11" lengthAdjust="spacing" textLength="142.2427" x="78.9485" y="842.9385">- Demographic Match insight</text><text fill="#000000" font-family="Georgia" font-size="11" lengthAdjust="spacing" textLength="103.3022" x="78.9485" y="855.437">- Accessibility insight</text><text fill="#000000" font-family="Georgia" font-size="11" lengthAdjust="spacing" textLength="119.7861" x="78.9485" y="867.9355">- Rental Pressure insight</text><text fill="#000000" font-family="Georgia" font-size="11" lengthAdjust="spacing" textLength="143.5693" x="78.9485" y="880.4341">- Competition Density insight</text><text fill="#000000" font-family="Georgia" font-size="11" lengthAdjust="spacing" textLength="170.7471" x="78.9485" y="892.9326">(each with &#128077; / &#128078; feedback button)</text></g><g class="message" data-entity-1="part1" data-entity-2="part2" id="msg16"><polygon fill="#181818" points="294.8079,932.3413,304.8079,936.3413,294.8079,940.3413,298.8079,936.3413" style="stroke:#181818;stroke-width:1;"/><line style="stroke:#181818;stroke-width:2;" x1="61.9485" x2="300.8079" y1="936.3413" y2="936.3413"/><text fill="#000000" font-family="Georgia" font-size="11" lengthAdjust="spacing" textLength="173.0029" x="68.9485" y="919.4312">Provide feedback on an explanation</text><text fill="#000000" font-family="Georgia" font-size="11" lengthAdjust="spacing" textLength="92.6567" x="68.9485" y="931.9297">(thumbs up/down)</text></g><g class="message" data-entity-1="part2" data-entity-2="part3" id="msg17"><polygon fill="#181818" points="607.8962,971.3384,617.8962,975.3384,607.8962,979.3384,611.8962,975.3384" style="stroke:#181818;stroke-width:1;"/><line style="stroke:#181818;stroke-width:2;" x1="306.8079" x2="613.8962" y1="975.3384" y2="975.3384"/><text fill="#000000" font-family="Georgia" font-size="11" lengthAdjust="spacing" textLength="170.3872" x="313.8079" y="958.4282">POST /api/score/explain/feedback</text><text fill="#000000" font-family="Georgia" font-size="11" lengthAdjust="spacing" textLength="145.4224" x="313.8079" y="970.9268">{insightId, dimension, rating}</text></g><g class="message" data-entity-1="part3" data-entity-2="part5" id="msg18"><polygon fill="#181818" points="939.4297,1010.3354,949.4297,1014.3354,939.4297,1018.3354,943.4297,1014.3354" style="stroke:#181818;stroke-width:1;"/><line style="stroke:#181818;stroke-width:2;" x1="619.8962" x2="945.4297" y1="1014.3354" y2="1014.3354"/><text fill="#000000" font-family="Georgia" font-size="11" lengthAdjust="spacing" textLength="157.3193" x="626.8962" y="997.4253">INSERT INTO insight_feedback</text><text fill="#000000" font-family="Georgia" font-size="11" lengthAdjust="spacing" textLength="193.354" x="626.8962" y="1009.9238">(insight_id, dimension, rating, user_id)</text></g><g class="message" data-entity-1="part5" data-entity-2="part3" id="msg19"><polygon fill="#181818" points="630.8962,1036.834,620.8962,1040.834,630.8962,1044.834,626.8962,1040.834" style="stroke:#181818;stroke-width:1;"/><line style="stroke:#181818;stroke-width:2;stroke-dasharray:2,2;" x1="624.8962" x2="950.4297" y1="1040.834" y2="1040.834"/><text fill="#000000" font-family="Georgia" font-size="11" lengthAdjust="spacing" textLength="79.4063" x="636.8962" y="1036.4224">Feedback stored</text></g><g class="message" data-entity-1="part3" data-entity-2="part2" id="msg20"><polygon fill="#181818" points="317.8079,1063.3325,307.8079,1067.3325,317.8079,1071.3325,313.8079,1067.3325" style="stroke:#181818;stroke-width:1;"/><line style="stroke:#181818;stroke-width:2;stroke-dasharray:2,2;" x1="311.8079" x2="618.8962" y1="1067.3325" y2="1067.3325"/><text fill="#000000" font-family="Georgia" font-size="11" lengthAdjust="spacing" textLength="38.124" x="323.8079" y="1062.9209">200 OK</text></g><g class="message" data-entity-1="part2" data-entity-2="part1" id="msg21"><polygon fill="#181818" points="72.9485,1089.8311,62.9485,1093.8311,72.9485,1097.8311,68.9485,1093.8311" style="stroke:#181818;stroke-width:1;"/><line style="stroke:#181818;stroke-width:2;stroke-dasharray:2,2;" x1="66.9485" x2="305.8079" y1="1093.8311" y2="1093.8311"/><text fill="#000000" font-family="Georgia" font-size="11" lengthAdjust="spacing" textLength="153.3877" x="78.9485" y="1089.4194">Acknowledge feedback received</text></g><?plantuml-src ZLRRZjf847ttLvHu6XGFbvdD2rAoyd3PHJiJHa2IbK8qQkmQQ65tUxlR43RY4pPIlY2_k9-mrMuRsnga3HB2SbLNrJbrgXh3JOpmVdZTVps03nmFi0YbGXX_IMCccE5ImDLKQBxP6jtsFBtZ8cMA9Q3nhmn5Y85Iyh3Syd0dK6kugRaecOc8mWbKqE_L314-ioms4odCEvOW_8PIRJYxxB7WVoFq-vx7GYCLjDvhL2jn5VJwtQ1tGz_RTWkO1llUezE6Xpnbma1hekWuYeYyvqYddTzatFIwO-7EEGMzNvmBFJHzWYa46nI6dExl7s21Qiz3B9odNiGCMpEDq1eLJxbbTETvGXe4kIS6R7q-POS1F2eCfOYufNS00MXEJZed_bd9P2LiGsw1QmWpfIXlV8I8Qsh94IFFiv7W-gsBDOo9UcZb3UF2jQ_baOaS28VDDbiieSjItirJTD6vhiHNctSQmMpkajlYVKYLVEOnlJzvdWr0SKPt56OnlXyFbyxpQQsGxI9v43wrAf4RnLAIWFPNmYWcT2gLyS5Mpc8VGfcaQ7AqAp6PpnwA89Os-FZxU3xE6NZY4Ro1NptATdqktianzsGY0X8KglZ8nGOID8fIdeka7WrWAlPoXr3s2mxSR44RbOKcKnXPS4bg1XQx3QmRvJlyPm0FBW5XSa2SkGPcIFeccEjCSwlzHqSSqSPYOqlGJYPKDDip7hCrZTgdVDOwupyx_SyUq8VyAhHZ6YO5NLZo16Lcd4C1BtUubnj0wrIPIY6yxjqIhDmuAFJW1bY3mOG0CSL9HxLYMgSyYjKA1SbLHOHlvU4dZw_4AvWJIKUGgVNqCAOPUBI3msBNiuHhRPjLm0w65s6NHtYnQ6ZCiBFfDCYc0KYGxFHK16s_vE2cruFP7qH36Ma0NpkTpic70rE2pj2BJwrXFQgjiWxgyoLIHcxueEfZLUeh-EXY0rjJpywGp_KwMeAumWUaJLJCq32_u69HYVKCWW3LP5hh3McJXI5fZwzvpCsnQNAoRRwhCLepa6P_YijQ5JuqCf_JqMxJciflD6zacJ37Kv7dChbOktDexM9CkAzXLAM41sR2RKcBDGRr4kg6ULuBbCNKJVNk5tLLvYkw9xPkQ_pxu_i_D8hqymsU4QCrtHCqwyP8qNOm6dkOfd_F8wnSAJmJTL0KtMopPAqXIxjsTxRFPFpFgkwMGQjkJ2E_KXYjMieWDgVwmiYNzlJTOZnVqizoLe9yge9TbQ_ufMW-P0IGRAxEnbgUb2WrtScbZ5-gvqAt0_gZ80ynHfiQLtGV8jzJ7Bg8lVy0?></g></svg>