<?plantuml 1.2026.2?><svg xmlns="http://www.w3.org/2000/svg" xmlns:xlink="http://www.w3.org/1999/xlink" contentStyleType="text/css" data-diagram-type="SEQUENCE" height="912px" preserveAspectRatio="none" style="width:843px;height:912px;background:#FFFFFF;" version="1.1" viewBox="0 0 843 912" width="843px" zoomAndPan="magnify"><title>UC-17: View Portfolio</title><defs/><g><text fill="#000000" font-family="Georgia" font-size="14" font-weight="bold" lengthAdjust="spacing" textLength="154.1982" x="341.9497" y="27.8379">UC-17: View Portfolio</text><rect fill="none" height="389.9678" rx="5" ry="5" style="stroke:#000000;stroke-width:1.5;" width="632.6702" x="10" y="415.8838"/><g class="participant-lifeline" data-entity-uid="part1" data-qualified-name="User" id="part1-lifeline"><g><title>User</title><rect fill="#000000" fill-opacity="0.00000" height="695.9473" width="8" x="57.9485" y="126.9043"/><line style="stroke:#181818;stroke-width:0.5;stroke-dasharray:5,5;" x1="61" x2="61" y1="126.9043" y2="822.8516"/></g></g><g class="participant-lifeline" data-entity-uid="part2" data-qualified-name="FE" id="part2-lifeline"><g><title>Frontend</title><rect fill="#000000" fill-opacity="0.00000" height="695.9473" width="8" x="372.2078" y="126.9043"/><line style="stroke:#181818;stroke-width:0.5;stroke-dasharray:5,5;" x1="375.48" x2="375.48" y1="126.9043" y2="822.8516"/></g></g><g class="participant-lifeline" data-entity-uid="part3" data-qualified-name="A04" id="part3-lifeline"><g><title>Backend</title><rect fill="#000000" fill-opacity="0.00000" height="695.9473" width="8" x="600.7927" y="126.9043"/><line style="stroke:#181818;stroke-width:0.5;stroke-dasharray:5,5;" x1="603.9153" x2="603.9153" y1="126.9043" y2="822.8516"/></g></g><g class="participant-lifeline" data-entity-uid="part4" data-qualified-name="DB" id="part4-lifeline"><g><title>Database</title><rect fill="#000000" fill-opacity="0.00000" height="695.9473" width="8" x="804.6492" y="126.9043"/><line style="stroke:#181818;stroke-width:0.5;stroke-dasharray:5,5;" x1="808.2007" x2="808.2007" y1="126.9043" y2="822.8516"/></g></g><g class="participant participant-head" data-entity-uid="part1" data-qualified-name="User" id="part1-head"><text fill="#000000" font-family="Georgia" font-size="11" lengthAdjust="spacing" textLength="22.897" x="47.5" y="111.9941">User</text><text fill="#000000" font-family="Georgia" font-size="11" lengthAdjust="spacing" textLength="77.897" x="20" y="124.4927">(A01/A02/A03)</text><ellipse cx="61.9485" cy="50.4072" fill="#E2E2F0" rx="8" ry="8" style="stroke:#181818;stroke-width:0.5;"/><path d="M61.9485,58.4072 L61.9485,85.4072 M48.9485,66.4072 L74.9485,66.4072 M61.9485,85.4072 L48.9485,100.4072 M61.9485,85.4072 L74.9485,100.4072" fill="none" style="stroke:#181818;stroke-width:0.5;"/></g><g class="participant participant-tail" data-entity-uid="part1" data-qualified-name="User" id="part1-tail"><text fill="#000000" font-family="Georgia" font-size="11" lengthAdjust="spacing" textLength="22.897" x="47.5" y="831.9385">User</text><text fill="#000000" font-family="Georgia" font-size="11" lengthAdjust="spacing" textLength="77.897" x="20" y="844.437">(A01/A02/A03)</text><ellipse cx="61.9485" cy="855.3486" fill="#E2E2F0" rx="8" ry="8" style="stroke:#181818;stroke-width:0.5;"/><path d="M61.9485,863.3486 L61.9485,890.3486 M48.9485,871.3486 L74.9485,871.3486 M61.9485,890.3486 L48.9485,905.3486 M61.9485,890.3486 L74.9485,905.3486" fill="none" style="stroke:#181818;stroke-width:0.5;"/></g><g class="participant participant-head" data-entity-uid="part2" data-qualified-name="FE" id="part2-head"><rect fill="#E2E2F0" height="38.9971" rx="5" ry="5" style="stroke:#181818;stroke-width:0.5;" width="59.4556" x="346.48" y="86.9072"/><text fill="#000000" font-family="Georgia" font-size="11" lengthAdjust="spacing" textLength="45.4556" x="353.48" y="103.9941">Frontend</text><text fill="#000000" font-family="Georgia" font-size="11" lengthAdjust="spacing" textLength="35.6211" x="358.3972" y="116.4927">(React)</text></g><g class="participant participant-tail" data-entity-uid="part2" data-qualified-name="FE" id="part2-tail"><rect fill="#E2E2F0" height="38.9971" rx="5" ry="5" style="stroke:#181818;stroke-width:0.5;" width="59.4556" x="346.48" y="821.8516"/><text fill="#000000" font-family="Georgia" font-size="11" lengthAdjust="spacing" textLength="45.4556" x="353.48" y="838.9385">Frontend</text><text fill="#000000" font-family="Georgia" font-size="11" lengthAdjust="spacing" textLength="35.6211" x="358.3972" y="851.437">(React)</text></g><g class="participant participant-head" data-entity-uid="part3" data-qualified-name="A04" id="part3-head"><rect fill="#E2E2F0" height="38.9971" rx="5" ry="5" style="stroke:#181818;stroke-width:0.5;" width="55.7549" x="576.9153" y="86.9072"/><text fill="#000000" font-family="Georgia" font-size="11" lengthAdjust="spacing" textLength="41.7549" x="583.9153" y="103.9941">Backend</text><text fill="#000000" font-family="Georgia" font-size="11" lengthAdjust="spacing" textLength="28.5957" x="590.4949" y="116.4927">(A04)</text></g><g class="participant participant-tail" data-entity-uid="part3" data-qualified-name="A04" id="part3-tail"><rect fill="#E2E2F0" height="38.9971" rx="5" ry="5" style="stroke:#181818;stroke-width:0.5;" width="55.7549" x="576.9153" y="821.8516"/><text fill="#000000" font-family="Georgia" font-size="11" lengthAdjust="spacing" textLength="41.7549" x="583.9153" y="838.9385">Backend</text><text fill="#000000" font-family="Georgia" font-size="11" lengthAdjust="spacing" textLength="28.5957" x="590.4949" y="851.437">(A04)</text></g><g class="participant participant-head" data-entity-uid="part4" data-qualified-name="DB" id="part4-head"><text fill="#000000" font-family="Georgia" font-size="11" lengthAdjust="spacing" textLength="44.897" x="783.2007" y="124.4927">Database</text><path d="M790.6492,78.4058 C790.6492,68.4058 808.6492,68.4058 808.6492,68.4058 C808.6492,68.4058 826.6492,68.4058 826.6492,78.4058 L826.6492,104.4058 C826.6492,114.4058 808.6492,114.4058 808.6492,114.4058 C808.6492,114.4058 790.6492,114.4058 790.6492,104.4058 L790.6492,78.4058" fill="#E2E2F0" style="stroke:#181818;stroke-width:0.5;"/><path d="M790.6492,78.4058 C790.6492,88.4058 808.6492,88.4058 808.6492,88.4058 C808.6492,88.4058 826.6492,88.4058 826.6492,78.4058" fill="none" style="stroke:#181818;stroke-width:0.5;"/></g><g class="participant participant-tail" data-entity-uid="part4" data-qualified-name="DB" id="part4-tail"><text fill="#000000" font-family="Georgia" font-size="11" lengthAdjust="spacing" textLength="44.897" x="783.2007" y="831.9385">Database</text><path d="M790.6492,844.3501 C790.6492,834.3501 808.6492,834.3501 808.6492,834.3501 C808.6492,834.3501 826.6492,834.3501 826.6492,844.3501 L826.6492,870.3501 C826.6492,880.3501 808.6492,880.3501 808.6492,880.3501 C808.6492,880.3501 790.6492,880.3501 790.6492,870.3501 L790.6492,844.3501" fill="#E2E2F0" style="stroke:#181818;stroke-width:0.5;"/><path d="M790.6492,844.3501 C790.6492,854.3501 808.6492,854.3501 808.6492,854.3501 C808.6492,854.3501 826.6492,854.3501 826.6492,844.3501" fill="none" style="stroke:#181818;stroke-width:0.5;"/></g><g class="message" data-entity-1="part1" data-entity-2="part2" id="msg1"><polygon fill="#181818" points="364.2078,151.4028,374.2078,155.4028,364.2078,159.4028,368.2078,155.4028" style="stroke:#181818;stroke-width:1;"/><line style="stroke:#181818;stroke-width:2;" x1="61.9485" x2="370.2078" y1="155.4028" y2="155.4028"/><text fill="#000000" font-family="Georgia" font-size="11" lengthAdjust="spacing" textLength="126.1079" x="68.9485" y="150.9912">Navigate to Portfolio page</text></g><g class="message" data-entity-1="part2" data-entity-2="part1" id="msg2"><polygon fill="#181818" points="72.9485,177.9014,62.9485,181.9014,72.9485,185.9014,68.9485,181.9014" style="stroke:#181818;stroke-width:1;"/><line style="stroke:#181818;stroke-width:2;stroke-dasharray:2,2;" x1="66.9485" x2="375.2078" y1="181.9014" y2="181.9014"/><text fill="#000000" font-family="Georgia" font-size="11" lengthAdjust="spacing" textLength="91.3892" x="78.9485" y="177.4897">Show loading state</text></g><g class="message" data-entity-1="part2" data-entity-2="part3" id="msg3"><polygon fill="#181818" points="592.7927,216.8984,602.7927,220.8984,592.7927,224.8984,596.7927,220.8984" style="stroke:#181818;stroke-width:1;"/><line style="stroke:#181818;stroke-width:2;" x1="376.2078" x2="598.7927" y1="220.8984" y2="220.8984"/><text fill="#000000" font-family="Georgia" font-size="11" lengthAdjust="spacing" textLength="197.9194" x="383.2078" y="203.9883">GET /api/portfolio/sites?profileId=&lt;id&gt;</text><text fill="#000000" font-family="Georgia" font-size="11" lengthAdjust="spacing" textLength="204.585" x="383.2078" y="216.4868">(optional profile filter, with session token)</text></g><g class="message" data-entity-1="part3" data-entity-2="part3" id="msg4"><line style="stroke:#181818;stroke-width:2;" x1="604.7927" x2="646.7927" y1="259.8955" y2="259.8955"/><line style="stroke:#181818;stroke-width:2;" x1="646.7927" x2="646.7927" y1="259.8955" y2="272.8955"/><line style="stroke:#181818;stroke-width:2;" x1="605.7927" x2="646.7927" y1="272.8955" y2="272.8955"/><polygon fill="#181818" points="615.7927,268.8955,605.7927,272.8955,615.7927,276.8955,611.7927,272.8955" style="stroke:#181818;stroke-width:1;"/><text fill="#000000" font-family="Georgia" font-size="11" lengthAdjust="spacing" textLength="108.1899" x="611.7927" y="242.9854">Validate session token</text><text fill="#000000" font-family="Georgia" font-size="11" lengthAdjust="spacing" textLength="75.5498" x="611.7927" y="255.4839">Extract user_id</text></g><g class="message" data-entity-1="part3" data-entity-2="part4" id="msg5"><polygon fill="#181818" points="796.6492,370.3853,806.6492,374.3853,796.6492,378.3853,800.6492,374.3853" style="stroke:#181818;stroke-width:1;"/><line style="stroke:#181818;stroke-width:2;" x1="604.7927" x2="802.6492" y1="374.3853" y2="374.3853"/><text fill="#000000" font-family="Georgia" font-size="11" lengthAdjust="spacing" textLength="156.1646" x="611.7927" y="294.9824">SELECT id, site_name, address,</text><text fill="#000000" font-family="Georgia" font-size="11" lengthAdjust="spacing" textLength="179.8564" x="611.7927" y="307.481">composite_score, dimension_scores,</text><text fill="#000000" font-family="Georgia" font-size="11" lengthAdjust="spacing" textLength="84.1221" x="611.7927" y="319.9795">created_at, notes</text><text fill="#000000" font-family="Georgia" font-size="11" lengthAdjust="spacing" textLength="111.8154" x="611.7927" y="332.478">FROM candidate_sites</text><text fill="#000000" font-family="Georgia" font-size="11" lengthAdjust="spacing" textLength="99.6016" x="611.7927" y="344.9766">WHERE user_id = ?</text><text fill="#000000" font-family="Georgia" font-size="11" lengthAdjust="spacing" textLength="101.2021" x="611.7927" y="357.4751">[AND profile_id = ?]</text><text fill="#000000" font-family="Georgia" font-size="11" lengthAdjust="spacing" textLength="141.8345" x="611.7927" y="369.9736">ORDER BY created_at DESC</text></g><g class="message" data-entity-1="part4" data-entity-2="part3" id="msg6"><polygon fill="#181818" points="615.7927,396.8838,605.7927,400.8838,615.7927,404.8838,611.7927,400.8838" style="stroke:#181818;stroke-width:1;"/><line style="stroke:#181818;stroke-width:2;stroke-dasharray:2,2;" x1="609.7927" x2="807.6492" y1="400.8838" y2="400.8838"/><text fill="#000000" font-family="Georgia" font-size="11" lengthAdjust="spacing" textLength="139.498" x="621.7927" y="396.4722">List of candidate site records</text></g><path d="M15,415.8838 L69.7114,415.8838 L69.7114,420.3823 L59.7114,430.3823 L10,430.3823 L10,420.8838 A5,5 0 0 1 15,415.8838" fill="#EEEEEE" style="stroke:#000000;stroke-width:1.5;"/><rect fill="none" height="389.9678" rx="5" ry="5" style="stroke:#000000;stroke-width:1.5;" width="632.6702" x="10" y="415.8838"/><text fill="#000000" font-family="Georgia" font-size="11" font-weight="bold" lengthAdjust="spacing" textLength="14.7114" x="25" y="426.9707">alt</text><text fill="#000000" font-family="Georgia" font-size="11" font-weight="bold" lengthAdjust="spacing" textLength="165.8594" x="84.7114" y="427.9707">[No sites found [UC-17.EX.1]]</text><g class="message" data-entity-1="part3" data-entity-2="part2" id="msg7"><polygon fill="#181818" points="387.2078,457.3794,377.2078,461.3794,387.2078,465.3794,383.2078,461.3794" style="stroke:#181818;stroke-width:1;"/><line style="stroke:#181818;stroke-width:2;stroke-dasharray:2,2;" x1="381.2078" x2="603.7927" y1="461.3794" y2="461.3794"/><text fill="#000000" font-family="Georgia" font-size="11" lengthAdjust="spacing" textLength="38.124" x="393.2078" y="444.4692">200 OK</text><text fill="#000000" font-family="Georgia" font-size="11" lengthAdjust="spacing" textLength="45.6489" x="393.2078" y="456.9678">{sites: []}</text></g><g class="message" data-entity-1="part2" data-entity-2="part1" id="msg8"><polygon fill="#181818" points="72.9485,496.3765,62.9485,500.3765,72.9485,504.3765,68.9485,500.3765" style="stroke:#181818;stroke-width:1;"/><line style="stroke:#181818;stroke-width:2;stroke-dasharray:2,2;" x1="66.9485" x2="375.2078" y1="500.3765" y2="500.3765"/><text fill="#000000" font-family="Georgia" font-size="11" lengthAdjust="spacing" textLength="124.416" x="78.9485" y="483.4663">Show "No saved sites yet"</text><text fill="#000000" font-family="Georgia" font-size="11" lengthAdjust="spacing" textLength="167.8735" x="78.9485" y="495.9648">+ CTA: "Explore Map to find sites"</text></g><line style="stroke:#000000;stroke-width:1;stroke-dasharray:2,2;" x1="10" x2="642.6702" y1="509.3765" y2="509.3765"/><text fill="#000000" font-family="Georgia" font-size="11" font-weight="bold" lengthAdjust="spacing" textLength="73.5947" x="15" y="519.4634">[Sites found]</text><g class="message" data-entity-1="part3" data-entity-2="part2" id="msg9"><polygon fill="#181818" points="387.2078,574.8691,377.2078,578.8691,387.2078,582.8691,383.2078,578.8691" style="stroke:#181818;stroke-width:1;"/><line style="stroke:#181818;stroke-width:2;stroke-dasharray:2,2;" x1="381.2078" x2="603.7927" y1="578.8691" y2="578.8691"/><text fill="#000000" font-family="Georgia" font-size="11" lengthAdjust="spacing" textLength="38.124" x="393.2078" y="536.9619">200 OK</text><text fill="#000000" font-family="Georgia" font-size="11" lengthAdjust="spacing" textLength="148.8491" x="393.2078" y="549.4604">{sites: [{id, siteName, address,</text><text fill="#000000" font-family="Georgia" font-size="11" lengthAdjust="spacing" textLength="168.5449" x="393.2078" y="561.959">compositeScore, dimensionScores,</text><text fill="#000000" font-family="Georgia" font-size="11" lengthAdjust="spacing" textLength="158.5117" x="393.2078" y="574.4575">savedDate, notes, profileId}, ...]}</text></g><g class="message" data-entity-1="part2" data-entity-2="part1" id="msg10"><polygon fill="#181818" points="72.9485,676.3589,62.9485,680.3589,72.9485,684.3589,68.9485,680.3589" style="stroke:#181818;stroke-width:1;"/><line style="stroke:#181818;stroke-width:2;stroke-dasharray:2,2;" x1="66.9485" x2="375.2078" y1="680.3589" y2="680.3589"/><text fill="#000000" font-family="Georgia" font-size="11" lengthAdjust="spacing" textLength="162.3091" x="78.9485" y="600.9561">Display sites in table/card format</text><text fill="#000000" font-family="Georgia" font-size="11" lengthAdjust="spacing" textLength="68.9648" x="78.9485" y="613.4546">with columns:</text><text fill="#000000" font-family="Georgia" font-size="11" lengthAdjust="spacing" textLength="104.8652" x="78.9485" y="625.9531">- Site name + address</text><text fill="#000000" font-family="Georgia" font-size="11" lengthAdjust="spacing" textLength="149.5581" x="78.9485" y="638.4517">- Composite score (prominent)</text><text fill="#000000" font-family="Georgia" font-size="11" lengthAdjust="spacing" textLength="145.2236" x="78.9485" y="650.9502">- Dimension score breakdown</text><text fill="#000000" font-family="Georgia" font-size="11" lengthAdjust="spacing" textLength="59.2056" x="78.9485" y="663.4487">- Saved date</text><text fill="#000000" font-family="Georgia" font-size="11" lengthAdjust="spacing" textLength="290.2593" x="78.9485" y="675.9473">- Actions: View on Map | Edit Notes | Delete | &#9744; (Compare)</text></g><g class="message" data-entity-1="part1" data-entity-2="part2" id="msg11"><polygon fill="#181818" points="364.2078,715.356,374.2078,719.356,364.2078,723.356,368.2078,719.356" style="stroke:#181818;stroke-width:1;"/><line style="stroke:#181818;stroke-width:2;" x1="61.9485" x2="370.2078" y1="719.356" y2="719.356"/><text fill="#000000" font-family="Georgia" font-size="11" lengthAdjust="spacing" textLength="173.5024" x="68.9485" y="702.4458">Select multiple sites for comparison</text><text fill="#000000" font-family="Georgia" font-size="11" lengthAdjust="spacing" textLength="113.7759" x="68.9485" y="714.9443">(multi-select checkbox)</text></g><g class="message" data-entity-1="part2" data-entity-2="part2" id="msg12"><line style="stroke:#181818;stroke-width:2;" x1="376.2078" x2="418.2078" y1="758.353" y2="758.353"/><line style="stroke:#181818;stroke-width:2;" x1="418.2078" x2="418.2078" y1="758.353" y2="771.353"/><line style="stroke:#181818;stroke-width:2;" x1="377.2078" x2="418.2078" y1="771.353" y2="771.353"/><polygon fill="#181818" points="387.2078,767.353,377.2078,771.353,387.2078,775.353,383.2078,771.353" style="stroke:#181818;stroke-width:1;"/><text fill="#000000" font-family="Georgia" font-size="11" lengthAdjust="spacing" textLength="125.0605" x="383.2078" y="741.4429">Enable "Compare" button</text><text fill="#000000" font-family="Georgia" font-size="11" lengthAdjust="spacing" textLength="119.6733" x="383.2078" y="753.9414">(when 2-3 sites selected)</text></g><g class="message" data-entity-1="part2" data-entity-2="part1" id="msg13"><polygon fill="#181818" points="72.9485,793.8516,62.9485,797.8516,72.9485,801.8516,68.9485,797.8516" style="stroke:#181818;stroke-width:1;"/><line style="stroke:#181818;stroke-width:2;stroke-dasharray:2,2;" x1="66.9485" x2="375.2078" y1="797.8516" y2="797.8516"/><text fill="#000000" font-family="Georgia" font-size="11" lengthAdjust="spacing" textLength="162.5776" x="78.9485" y="793.4399">"Compare Selected" button active</text></g><?plantuml-src ZLJRJXin47ttLupsAH6vqagLeW8AsOLMXL0bG5kn23dh2R6oiRUsGw30F_IntzSlwTZP3L1HgP4IRJndpfoPCrudNOvmDcXst_NWNE8AFclZfZgNcZ4xbwhWXY_0ulSbgWpxnkZLwKncSuNMmlOpYD5B9J9j51heTfu514xvCdS7MhaXNo0SeZRNah-E6CiV2DqkOpnpsa1qPj6agjRlTDlzpZPztzGZu1RyEQDi9pDPSEKWEZ2KZaeGUeIKlSOT92zH-poRhq7zpjirX1wOu8vFk4M8ul8fXE9zndmbQEuI4_HWo6_aDNS8JZyD2Wf-ZOpYJO85U0_6Cxs2N7CXrJLOHoai87PzEOeV9gVGveLi5nLBsqg7TgymUYfp_2XstaknIpfruQHMF8So0lJZq3HW9TsCZB6MmgI7sgepvjatHSvvBeLN-mALgkJM6PeGB4dhbHIRh7ZVAq-Eai4fID40h-XAaMSDu48O8ccaAjEBGeU89RSf9EG2bQTV7mICGIehhhXhWDBKLgeEHYV7a74bWgAhq6ogldn8Hacb0tPWBrKN_M5SzLeUNgRgP1Gd8zZ_1a_K42VZ0IFDpKt3Hz8wqDEdEg45C4Z2XAMboXqCTJYqCFKB2nTXzrl9rrRtaW5zmYmglxSx7JZvbAhxaDA3Yyl707h5xCWJyniK9VqTkYXLMp0uxVSWIcwBd8O3nxpmkpELgiH537FQk_6JfFzGSL-vC_oNEUE_l1bNrWI9jEHOEjE0pSOzDg3LQb67hxGOIrla_AxiJT8gyKcExOmRGQhDWhjKXONCTBvSADjBLJCq1Nv_OAlIw8y7bKW82mCrKh2G2fMh-t1SQIx34t9yBlHA1SemOM-j_zVF_DsmvPkBClnu7o0HqllibJv0Z3bIgGVu_Uidr7njRh2-xl75tHuJa2x5Wjv4iiXnioK6if0ahIO9jH1lsZKucs4sd-ZR-cPa9LcY_7mWAkj5C5aw5_9NCrImtNnJyg-9KDHV6NgLNKf3KT40tLvvWupUPEmF?></g></svg>