<?plantuml 1.2026.2?><svg xmlns="http://www.w3.org/2000/svg" xmlns:xlink="http://www.w3.org/1999/xlink" contentStyleType="text/css" data-diagram-type="SEQUENCE" height="1386px" preserveAspectRatio="none" style="width:1039px;height:1386px;background:#FFFFFF;" version="1.1" viewBox="0 0 1039 1386" width="1039px" zoomAndPan="magnify"><title>UC-13: Drop POI Pin and Get Site Score</title><defs/><g><text fill="#000000" font-family="Georgia" font-size="14" font-weight="bold" lengthAdjust="spacing" textLength="282.0986" x="376.0771" y="27.8379">UC-13: Drop POI Pin and Get Site Score</text><rect fill="none" height="123.9912" rx="5" ry="5" style="stroke:#000000;stroke-width:1.5;" width="330.4609" x="427" y="404.8867"/><rect fill="none" height="71.9941" rx="5" ry="5" style="stroke:#000000;stroke-width:1.5;" width="331.2397" x="415" y="542.8779"/><rect fill="none" height="352.4722" rx="5" ry="5" style="stroke:#000000;stroke-width:1.5;" width="814.4407" x="10" y="927.8545"/><g class="participant-lifeline" data-entity-uid="part1" data-qualified-name="User" id="part1-lifeline"><g><title>User</title><rect fill="#000000" fill-opacity="0.00000" height="1170.4224" width="8" x="57.9485" y="126.9043"/><line style="stroke:#181818;stroke-width:0.5;stroke-dasharray:5,5;" x1="61" x2="61" y1="126.9043" y2="1297.3267"/></g></g><g class="participant-lifeline" data-entity-uid="part2" data-qualified-name="FE" id="part2-lifeline"><g><title>Frontend</title><rect fill="#000000" fill-opacity="0.00000" height="1170.4224" width="8" x="253.0608" y="126.9043"/><line style="stroke:#181818;stroke-width:0.5;stroke-dasharray:5,5;" x1="256.333" x2="256.333" y1="126.9043" y2="1297.3267"/></g></g><g class="participant-lifeline" data-entity-uid="part3" data-qualified-name="A04" id="part3-lifeline"><g><title>Backend</title><rect fill="#000000" fill-opacity="0.00000" height="1170.4224" width="8" x="513.679" y="126.9043"/><line style="stroke:#181818;stroke-width:0.5;stroke-dasharray:5,5;" x1="516.8015" x2="516.8015" y1="126.9043" y2="1297.3267"/></g></g><g class="participant-lifeline" data-entity-uid="part4" data-qualified-name="SE" id="part4-lifeline"><g><title>Scoring Engine</title><rect fill="#000000" fill-opacity="0.00000" height="1170.4224" width="8" x="766.4875" y="126.9043"/><line style="stroke:#181818;stroke-width:0.5;stroke-dasharray:5,5;" x1="769.5344" x2="769.5344" y1="126.9043" y2="1297.3267"/></g></g><g class="participant-lifeline" data-entity-uid="part5" data-qualified-name="DB" id="part5-lifeline"><g><title>Database</title><rect fill="#000000" fill-opacity="0.00000" height="1170.4224" width="8" x="1000.8044" y="126.9043"/><line style="stroke:#181818;stroke-width:0.5;stroke-dasharray:5,5;" x1="1004.356" x2="1004.356" y1="126.9043" y2="1297.3267"/></g></g><g class="participant participant-head" data-entity-uid="part1" data-qualified-name="User" id="part1-head"><text fill="#000000" font-family="Georgia" font-size="11" lengthAdjust="spacing" textLength="22.897" x="47.5" y="111.9941">User</text><text fill="#000000" font-family="Georgia" font-size="11" lengthAdjust="spacing" textLength="77.897" x="20" y="124.4927">(A01/A02/A03)</text><ellipse cx="61.9485" cy="50.4072" fill="#E2E2F0" rx="8" ry="8" style="stroke:#181818;stroke-width:0.5;"/><path d="M61.9485,58.4072 L61.9485,85.4072 M48.9485,66.4072 L74.9485,66.4072 M61.9485,85.4072 L48.9485,100.4072 M61.9485,85.4072 L74.9485,100.4072" fill="none" style="stroke:#181818;stroke-width:0.5;"/></g><g class="participant participant-tail" data-entity-uid="part1" data-qualified-name="User" id="part1-tail"><text fill="#000000" font-family="Georgia" font-size="11" lengthAdjust="spacing" textLength="22.897" x="47.5" y="1306.4136">User</text><text fill="#000000" font-family="Georgia" font-size="11" lengthAdjust="spacing" textLength="77.897" x="20" y="1318.9121">(A01/A02/A03)</text><ellipse cx="61.9485" cy="1329.8237" fill="#E2E2F0" rx="8" ry="8" style="stroke:#181818;stroke-width:0.5;"/><path d="M61.9485,1337.8237 L61.9485,1364.8237 M48.9485,1345.8237 L74.9485,1345.8237 M61.9485,1364.8237 L48.9485,1379.8237 M61.9485,1364.8237 L74.9485,1379.8237" fill="none" style="stroke:#181818;stroke-width:0.5;"/></g><g class="participant participant-head" data-entity-uid="part2" data-qualified-name="FE" id="part2-head"><rect fill="#E2E2F0" height="38.9971" rx="5" ry="5" style="stroke:#181818;stroke-width:0.5;" width="59.4556" x="227.333" y="86.9072"/><text fill="#000000" font-family="Georgia" font-size="11" lengthAdjust="spacing" textLength="45.4556" x="234.333" y="103.9941">Frontend</text><text fill="#000000" font-family="Georgia" font-size="11" lengthAdjust="spacing" textLength="35.6211" x="239.2502" y="116.4927">(React)</text></g><g class="participant participant-tail" data-entity-uid="part2" data-qualified-name="FE" id="part2-tail"><rect fill="#E2E2F0" height="38.9971" rx="5" ry="5" style="stroke:#181818;stroke-width:0.5;" width="59.4556" x="227.333" y="1296.3267"/><text fill="#000000" font-family="Georgia" font-size="11" lengthAdjust="spacing" textLength="45.4556" x="234.333" y="1313.4136">Frontend</text><text fill="#000000" font-family="Georgia" font-size="11" lengthAdjust="spacing" textLength="35.6211" x="239.2502" y="1325.9121">(React)</text></g><g class="participant participant-head" data-entity-uid="part3" data-qualified-name="A04" id="part3-head"><rect fill="#E2E2F0" height="38.9971" rx="5" ry="5" style="stroke:#181818;stroke-width:0.5;" width="55.7549" x="489.8015" y="86.9072"/><text fill="#000000" font-family="Georgia" font-size="11" lengthAdjust="spacing" textLength="41.7549" x="496.8015" y="103.9941">Backend</text><text fill="#000000" font-family="Georgia" font-size="11" lengthAdjust="spacing" textLength="28.5957" x="503.3811" y="116.4927">(A04)</text></g><g class="participant participant-tail" data-entity-uid="part3" data-qualified-name="A04" id="part3-tail"><rect fill="#E2E2F0" height="38.9971" rx="5" ry="5" style="stroke:#181818;stroke-width:0.5;" width="55.7549" x="489.8015" y="1296.3267"/><text fill="#000000" font-family="Georgia" font-size="11" lengthAdjust="spacing" textLength="41.7549" x="496.8015" y="1313.4136">Backend</text><text fill="#000000" font-family="Georgia" font-size="11" lengthAdjust="spacing" textLength="28.5957" x="503.3811" y="1325.9121">(A04)</text></g><g class="participant participant-head" data-entity-uid="part4" data-qualified-name="SE" id="part4-head"><rect fill="#E2E2F0" height="26.4985" rx="5" ry="5" style="stroke:#181818;stroke-width:0.5;" width="87.9063" x="726.5344" y="99.4058"/><text fill="#000000" font-family="Georgia" font-size="11" lengthAdjust="spacing" textLength="73.9063" x="733.5344" y="116.4927">Scoring Engine</text></g><g class="participant participant-tail" data-entity-uid="part4" data-qualified-name="SE" id="part4-tail"><rect fill="#E2E2F0" height="26.4985" rx="5" ry="5" style="stroke:#181818;stroke-width:0.5;" width="87.9063" x="726.5344" y="1296.3267"/><text fill="#000000" font-family="Georgia" font-size="11" lengthAdjust="spacing" textLength="73.9063" x="733.5344" y="1313.4136">Scoring Engine</text></g><g class="participant participant-head" data-entity-uid="part5" data-qualified-name="DB" id="part5-head"><text fill="#000000" font-family="Georgia" font-size="11" lengthAdjust="spacing" textLength="44.897" x="979.356" y="124.4927">Database</text><path d="M986.8044,78.4058 C986.8044,68.4058 1004.8044,68.4058 1004.8044,68.4058 C1004.8044,68.4058 1022.8044,68.4058 1022.8044,78.4058 L1022.8044,104.4058 C1022.8044,114.4058 1004.8044,114.4058 1004.8044,114.4058 C1004.8044,114.4058 986.8044,114.4058 986.8044,104.4058 L986.8044,78.4058" fill="#E2E2F0" style="stroke:#181818;stroke-width:0.5;"/><path d="M986.8044,78.4058 C986.8044,88.4058 1004.8044,88.4058 1004.8044,88.4058 C1004.8044,88.4058 1022.8044,88.4058 1022.8044,78.4058" fill="none" style="stroke:#181818;stroke-width:0.5;"/></g><g class="participant participant-tail" data-entity-uid="part5" data-qualified-name="DB" id="part5-tail"><text fill="#000000" font-family="Georgia" font-size="11" lengthAdjust="spacing" textLength="44.897" x="979.356" y="1306.4136">Database</text><path d="M986.8044,1318.8252 C986.8044,1308.8252 1004.8044,1308.8252 1004.8044,1308.8252 C1004.8044,1308.8252 1022.8044,1308.8252 1022.8044,1318.8252 L1022.8044,1344.8252 C1022.8044,1354.8252 1004.8044,1354.8252 1004.8044,1354.8252 C1004.8044,1354.8252 986.8044,1354.8252 986.8044,1344.8252 L986.8044,1318.8252" fill="#E2E2F0" style="stroke:#181818;stroke-width:0.5;"/><path d="M986.8044,1318.8252 C986.8044,1328.8252 1004.8044,1328.8252 1004.8044,1328.8252 C1004.8044,1328.8252 1022.8044,1328.8252 1022.8044,1318.8252" fill="none" style="stroke:#181818;stroke-width:0.5;"/></g><g class="message" data-entity-1="part1" data-entity-2="part2" id="msg1"><polygon fill="#181818" points="245.0608,151.4028,255.0608,155.4028,245.0608,159.4028,249.0608,155.4028" style="stroke:#181818;stroke-width:1;"/><line style="stroke:#181818;stroke-width:2;" x1="61.9485" x2="251.0608" y1="155.4028" y2="155.4028"/><text fill="#000000" font-family="Georgia" font-size="11" lengthAdjust="spacing" textLength="139.106" x="68.9485" y="150.9912">Click/tap a point on the map</text></g><g class="message" data-entity-1="part2" data-entity-2="part2" id="msg2"><line style="stroke:#181818;stroke-width:2;" x1="257.0608" x2="299.0608" y1="181.9014" y2="181.9014"/><line style="stroke:#181818;stroke-width:2;" x1="299.0608" x2="299.0608" y1="181.9014" y2="194.9014"/><line style="stroke:#181818;stroke-width:2;" x1="258.0608" x2="299.0608" y1="194.9014" y2="194.9014"/><polygon fill="#181818" points="268.0608,190.9014,258.0608,194.9014,268.0608,198.9014,264.0608,194.9014" style="stroke:#181818;stroke-width:1;"/><text fill="#000000" font-family="Georgia" font-size="11" lengthAdjust="spacing" textLength="173.4487" x="264.0608" y="177.4897">Drop POI pin at clicked coordinates</text></g><g class="message" data-entity-1="part2" data-entity-2="part3" id="msg3"><polygon fill="#181818" points="505.679,229.8984,515.679,233.8984,505.679,237.8984,509.679,233.8984" style="stroke:#181818;stroke-width:1;"/><line style="stroke:#181818;stroke-width:2;" x1="257.0608" x2="511.679" y1="233.8984" y2="233.8984"/><text fill="#000000" font-family="Georgia" font-size="11" lengthAdjust="spacing" textLength="103.6353" x="264.0608" y="216.9883">POST /api/score/site</text><text fill="#000000" font-family="Georgia" font-size="11" lengthAdjust="spacing" textLength="177.2354" x="264.0608" y="229.4868">{lat, lng, profileId, scenarioWeights}</text></g><g class="message" data-entity-1="part3" data-entity-2="part5" id="msg4"><polygon fill="#181818" points="992.8044,268.8955,1002.8044,272.8955,992.8044,276.8955,996.8044,272.8955" style="stroke:#181818;stroke-width:1;"/><line style="stroke:#181818;stroke-width:2;" x1="517.679" x2="998.8044" y1="272.8955" y2="272.8955"/><text fill="#000000" font-family="Georgia" font-size="11" lengthAdjust="spacing" textLength="281.0317" x="524.679" y="255.9854">SELECT planning_area, subzone FROM area_boundaries</text><text fill="#000000" font-family="Georgia" font-size="11" lengthAdjust="spacing" textLength="244.3901" x="524.679" y="268.4839">WHERE ST_Contains(boundary, POINT(lat, lng))</text></g><g class="message" data-entity-1="part5" data-entity-2="part3" id="msg5"><polygon fill="#181818" points="528.679,295.394,518.679,299.394,528.679,303.394,524.679,299.394" style="stroke:#181818;stroke-width:1;"/><line style="stroke:#181818;stroke-width:2;stroke-dasharray:2,2;" x1="522.679" x2="1003.8044" y1="299.394" y2="299.394"/><text fill="#000000" font-family="Georgia" font-size="11" lengthAdjust="spacing" textLength="165.2686" x="534.679" y="294.9824">Planning area / subzone identifier</text></g><g class="message" data-entity-1="part3" data-entity-2="part5" id="msg6"><polygon fill="#181818" points="992.8044,359.3882,1002.8044,363.3882,992.8044,367.3882,996.8044,363.3882" style="stroke:#181818;stroke-width:1;"/><line style="stroke:#181818;stroke-width:2;" x1="517.679" x2="998.8044" y1="363.3882" y2="363.3882"/><text fill="#000000" font-family="Georgia" font-size="11" lengthAdjust="spacing" textLength="166.4663" x="524.679" y="321.481">SELECT demographics, transport,</text><text fill="#000000" font-family="Georgia" font-size="11" lengthAdjust="spacing" textLength="92.6514" x="524.679" y="333.9795">rental, competitors</text><text fill="#000000" font-family="Georgia" font-size="11" lengthAdjust="spacing" textLength="100.0688" x="524.679" y="346.478">FROM area_profiles</text><text fill="#000000" font-family="Georgia" font-size="11" lengthAdjust="spacing" textLength="99.6069" x="524.679" y="358.9766">WHERE area_id = ?</text></g><g class="message" data-entity-1="part5" data-entity-2="part3" id="msg7"><polygon fill="#181818" points="528.679,385.8867,518.679,389.8867,528.679,393.8867,524.679,389.8867" style="stroke:#181818;stroke-width:1;"/><line style="stroke:#181818;stroke-width:2;stroke-dasharray:2,2;" x1="522.679" x2="1003.8044" y1="389.8867" y2="389.8867"/><text fill="#000000" font-family="Georgia" font-size="11" lengthAdjust="spacing" textLength="117.6914" x="534.679" y="385.4751">Cached area profile data</text></g><path d="M432,404.8867 L486.7114,404.8867 L486.7114,409.3853 L476.7114,419.3853 L427,419.3853 L427,409.8867 A5,5 0 0 1 432,404.8867" fill="#EEEEEE" style="stroke:#000000;stroke-width:1.5;"/><rect fill="none" height="123.9912" rx="5" ry="5" style="stroke:#000000;stroke-width:1.5;" width="330.4609" x="427" y="404.8867"/><text fill="#000000" font-family="Georgia" font-size="11" font-weight="bold" lengthAdjust="spacing" textLength="14.7114" x="442" y="415.9736">alt</text><text fill="#000000" font-family="Georgia" font-size="11" font-weight="bold" lengthAdjust="spacing" textLength="250.7495" x="501.7114" y="416.9736">[Cached data stale (&gt; 30 days) [UC-13.AC.2]]</text><g class="message" data-entity-1="part3" data-entity-2="part3" id="msg8"><line style="stroke:#181818;stroke-width:2;" x1="517.679" x2="559.679" y1="462.8809" y2="462.8809"/><line style="stroke:#181818;stroke-width:2;" x1="559.679" x2="559.679" y1="462.8809" y2="475.8809"/><line style="stroke:#181818;stroke-width:2;" x1="518.679" x2="559.679" y1="475.8809" y2="475.8809"/><polygon fill="#181818" points="528.679,471.8809,518.679,475.8809,528.679,479.8809,524.679,475.8809" style="stroke:#181818;stroke-width:1;"/><text fill="#000000" font-family="Georgia" font-size="11" lengthAdjust="spacing" textLength="82.8975" x="524.679" y="433.4722">Flag data as stale</text><text fill="#000000" font-family="Georgia" font-size="11" lengthAdjust="spacing" textLength="141.4531" x="524.679" y="445.9707">Schedule background refresh</text><text fill="#000000" font-family="Georgia" font-size="11" lengthAdjust="spacing" textLength="123.3525" x="524.679" y="458.4692">Proceed with cached data</text></g><path d="M437,493.8809 L437,517.8809 A5,5 0 0 0 442,522.8809 L591,522.8809 A5,5 0 0 0 596,517.8809 L596,498.8809 L586,488.8809 L442,488.8809 A5,5 0 0 0 437,493.8809" fill="#FEFFDD" style="stroke:#181818;stroke-width:0.5;"/><path d="M586,488.8809 L586,496.3809 A2.5,2.5 0 0 0 588.5,498.8809 L596,498.8809 L586,488.8809" fill="#FEFFDD" style="stroke:#181818;stroke-width:0.5;"/><text fill="#000000" font-family="Georgia" font-size="11" lengthAdjust="spacing" textLength="138.542" x="443" y="503.9678">UC-34 Notify Data Staleness</text><text fill="#000000" font-family="Georgia" font-size="11" lengthAdjust="spacing" textLength="81.8018" x="443" y="516.4663">extends this flow</text><path d="M420,542.8779 L474.7114,542.8779 L474.7114,547.3765 L464.7114,557.3765 L415,557.3765 L415,547.8779 A5,5 0 0 1 420,542.8779" fill="#EEEEEE" style="stroke:#000000;stroke-width:1.5;"/><rect fill="none" height="71.9941" rx="5" ry="5" style="stroke:#000000;stroke-width:1.5;" width="331.2397" x="415" y="542.8779"/><text fill="#000000" font-family="Georgia" font-size="11" font-weight="bold" lengthAdjust="spacing" textLength="14.7114" x="430" y="553.9648">alt</text><text fill="#000000" font-family="Georgia" font-size="11" font-weight="bold" lengthAdjust="spacing" textLength="251.5283" x="489.7114" y="554.9648">[Competition data unavailable [UC-13.AC.1]]</text><path d="M425,567.3765 L425,604.3765 A5,5 0 0 0 430,609.3765 L603,609.3765 A5,5 0 0 0 608,604.3765 L608,572.3765 L598,562.3765 L430,562.3765 A5,5 0 0 0 425,567.3765" fill="#FEFFDD" style="stroke:#181818;stroke-width:0.5;"/><path d="M598,562.3765 L598,569.8765 A2.5,2.5 0 0 0 600.5,572.3765 L608,572.3765 L598,562.3765" fill="#FEFFDD" style="stroke:#181818;stroke-width:0.5;"/><text fill="#000000" font-family="Georgia" font-size="11" lengthAdjust="spacing" textLength="162.4756" x="431" y="577.4634">Score computed for 3 dimensions</text><text fill="#000000" font-family="Georgia" font-size="11" lengthAdjust="spacing" textLength="154.6445" x="431" y="589.9619">only; competition score omitted</text><text fill="#000000" font-family="Georgia" font-size="11" lengthAdjust="spacing" textLength="112.3364" x="431" y="602.4604">with notice in response</text><g class="message" data-entity-1="part3" data-entity-2="part4" id="msg9"><polygon fill="#181818" points="758.4875,648.8691,768.4875,652.8691,758.4875,656.8691,762.4875,652.8691" style="stroke:#181818;stroke-width:1;"/><line style="stroke:#181818;stroke-width:2;" x1="517.679" x2="764.4875" y1="652.8691" y2="652.8691"/><text fill="#000000" font-family="Georgia" font-size="11" lengthAdjust="spacing" textLength="111.7671" x="524.679" y="635.959">Execute scoring engine</text><text fill="#000000" font-family="Georgia" font-size="11" lengthAdjust="spacing" textLength="228.8086" x="524.679" y="648.4575">{areaProfile, businessProfile, scenarioWeights}</text></g><g class="message" data-entity-1="part4" data-entity-2="part4" id="msg10"><line style="stroke:#181818;stroke-width:2;" x1="770.4875" x2="812.4875" y1="691.8662" y2="691.8662"/><line style="stroke:#181818;stroke-width:2;" x1="812.4875" x2="812.4875" y1="691.8662" y2="704.8662"/><line style="stroke:#181818;stroke-width:2;" x1="771.4875" x2="812.4875" y1="704.8662" y2="704.8662"/><polygon fill="#181818" points="781.4875,700.8662,771.4875,704.8662,781.4875,708.8662,777.4875,704.8662" style="stroke:#181818;stroke-width:1;"/><text fill="#000000" font-family="Georgia" font-size="11" lengthAdjust="spacing" textLength="175.0117" x="777.4875" y="674.9561">Calculate Demographic Match score</text><text fill="#000000" font-family="Georgia" font-size="11" lengthAdjust="spacing" textLength="199.2031" x="777.4875" y="687.4546">(age/income alignment per FR-SSE-001)</text></g><g class="message" data-entity-1="part4" data-entity-2="part4" id="msg11"><line style="stroke:#181818;stroke-width:2;" x1="770.4875" x2="812.4875" y1="743.8633" y2="743.8633"/><line style="stroke:#181818;stroke-width:2;" x1="812.4875" x2="812.4875" y1="743.8633" y2="756.8633"/><line style="stroke:#181818;stroke-width:2;" x1="771.4875" x2="812.4875" y1="756.8633" y2="756.8633"/><polygon fill="#181818" points="781.4875,752.8633,771.4875,756.8633,781.4875,760.8633,777.4875,756.8633" style="stroke:#181818;stroke-width:1;"/><text fill="#000000" font-family="Georgia" font-size="11" lengthAdjust="spacing" textLength="136.0713" x="777.4875" y="726.9531">Calculate Accessibility score</text><text fill="#000000" font-family="Georgia" font-size="11" lengthAdjust="spacing" textLength="188.7725" x="777.4875" y="739.4517">(MRT/bus proximity per FR-SSE-002)</text></g><g class="message" data-entity-1="part4" data-entity-2="part4" id="msg12"><line style="stroke:#181818;stroke-width:2;" x1="770.4875" x2="812.4875" y1="795.8604" y2="795.8604"/><line style="stroke:#181818;stroke-width:2;" x1="812.4875" x2="812.4875" y1="795.8604" y2="808.8604"/><line style="stroke:#181818;stroke-width:2;" x1="771.4875" x2="812.4875" y1="808.8604" y2="808.8604"/><polygon fill="#181818" points="781.4875,804.8604,771.4875,808.8604,781.4875,812.8604,777.4875,808.8604" style="stroke:#181818;stroke-width:1;"/><text fill="#000000" font-family="Georgia" font-size="11" lengthAdjust="spacing" textLength="152.5552" x="777.4875" y="778.9502">Calculate Rental Pressure score</text><text fill="#000000" font-family="Georgia" font-size="11" lengthAdjust="spacing" textLength="220.3169" x="777.4875" y="791.4487">(vacancy rates, rental index per FR-SSE-003)</text></g><g class="message" data-entity-1="part4" data-entity-2="part4" id="msg13"><line style="stroke:#181818;stroke-width:2;" x1="770.4875" x2="812.4875" y1="847.8574" y2="847.8574"/><line style="stroke:#181818;stroke-width:2;" x1="812.4875" x2="812.4875" y1="847.8574" y2="860.8574"/><line style="stroke:#181818;stroke-width:2;" x1="771.4875" x2="812.4875" y1="860.8574" y2="860.8574"/><polygon fill="#181818" points="781.4875,856.8574,771.4875,860.8574,781.4875,864.8574,777.4875,860.8574" style="stroke:#181818;stroke-width:1;"/><text fill="#000000" font-family="Georgia" font-size="11" lengthAdjust="spacing" textLength="176.3384" x="777.4875" y="830.9473">Calculate Competition Density score</text><text fill="#000000" font-family="Georgia" font-size="11" lengthAdjust="spacing" textLength="185.3618" x="777.4875" y="843.4458">(nearby competitors per FR-SSE-005)</text></g><g class="message" data-entity-1="part4" data-entity-2="part4" id="msg14"><line style="stroke:#181818;stroke-width:2;" x1="770.4875" x2="812.4875" y1="899.8545" y2="899.8545"/><line style="stroke:#181818;stroke-width:2;" x1="812.4875" x2="812.4875" y1="899.8545" y2="912.8545"/><line style="stroke:#181818;stroke-width:2;" x1="771.4875" x2="812.4875" y1="912.8545" y2="912.8545"/><polygon fill="#181818" points="781.4875,908.8545,771.4875,912.8545,781.4875,916.8545,777.4875,912.8545" style="stroke:#181818;stroke-width:1;"/><text fill="#000000" font-family="Georgia" font-size="11" lengthAdjust="spacing" textLength="125.6084" x="777.4875" y="882.9443">Calculate composite score</text><text fill="#000000" font-family="Georgia" font-size="11" lengthAdjust="spacing" textLength="192.8813" x="777.4875" y="895.4429">using scenario weights per FR-SSE-004</text></g><path d="M15,927.8545 L69.7114,927.8545 L69.7114,932.353 L59.7114,942.353 L10,942.353 L10,932.8545 A5,5 0 0 1 15,927.8545" fill="#EEEEEE" style="stroke:#000000;stroke-width:1.5;"/><rect fill="none" height="352.4722" rx="5" ry="5" style="stroke:#000000;stroke-width:1.5;" width="814.4407" x="10" y="927.8545"/><text fill="#000000" font-family="Georgia" font-size="11" font-weight="bold" lengthAdjust="spacing" textLength="14.7114" x="25" y="938.9414">alt</text><text fill="#000000" font-family="Georgia" font-size="11" font-weight="bold" lengthAdjust="spacing" textLength="210.4448" x="84.7114" y="939.9414">[Scoring engine failure [UC-13.EX.1]]</text><g class="message" data-entity-1="part4" data-entity-2="part3" id="msg15"><polygon fill="#181818" points="528.679,956.8516,518.679,960.8516,528.679,964.8516,524.679,960.8516" style="stroke:#181818;stroke-width:1;"/><line style="stroke:#181818;stroke-width:2;stroke-dasharray:2,2;" x1="522.679" x2="769.4875" y1="960.8516" y2="960.8516"/><text fill="#000000" font-family="Georgia" font-size="11" lengthAdjust="spacing" textLength="26.6353" x="534.679" y="956.4399">Error</text></g><g class="message" data-entity-1="part3" data-entity-2="part3" id="msg16"><line style="stroke:#181818;stroke-width:2;" x1="517.679" x2="559.679" y1="987.3501" y2="987.3501"/><line style="stroke:#181818;stroke-width:2;" x1="559.679" x2="559.679" y1="987.3501" y2="1000.3501"/><line style="stroke:#181818;stroke-width:2;" x1="518.679" x2="559.679" y1="1000.3501" y2="1000.3501"/><polygon fill="#181818" points="528.679,996.3501,518.679,1000.3501,528.679,1004.3501,524.679,1000.3501" style="stroke:#181818;stroke-width:1;"/><text fill="#000000" font-family="Georgia" font-size="11" lengthAdjust="spacing" textLength="45.5898" x="524.679" y="982.9385">Log error</text></g><g class="message" data-entity-1="part3" data-entity-2="part2" id="msg17"><polygon fill="#181818" points="268.0608,1035.3472,258.0608,1039.3472,268.0608,1043.3472,264.0608,1039.3472" style="stroke:#181818;stroke-width:1;"/><line style="stroke:#181818;stroke-width:2;stroke-dasharray:2,2;" x1="262.0608" x2="516.679" y1="1039.3472" y2="1039.3472"/><text fill="#000000" font-family="Georgia" font-size="11" lengthAdjust="spacing" textLength="124.7866" x="274.0608" y="1022.437">500 Internal Server Error</text><text fill="#000000" font-family="Georgia" font-size="11" lengthAdjust="spacing" textLength="181.645" x="274.0608" y="1034.9355">{error: "Scoring failed. Please retry."}</text></g><g class="message" data-entity-1="part2" data-entity-2="part1" id="msg18"><polygon fill="#181818" points="72.9485,1061.8457,62.9485,1065.8457,72.9485,1069.8457,68.9485,1065.8457" style="stroke:#181818;stroke-width:1;"/><line style="stroke:#181818;stroke-width:2;stroke-dasharray:2,2;" x1="66.9485" x2="256.0608" y1="1065.8457" y2="1065.8457"/><text fill="#000000" font-family="Georgia" font-size="11" lengthAdjust="spacing" textLength="171.1123" x="78.9485" y="1061.4341">Show error message + Retry option</text></g><line style="stroke:#000000;stroke-width:1;stroke-dasharray:2,2;" x1="10" x2="824.4407" y1="1074.8457" y2="1074.8457"/><text fill="#000000" font-family="Georgia" font-size="11" font-weight="bold" lengthAdjust="spacing" textLength="108.0127" x="15" y="1084.9326">[Scores calculated]</text><g class="message" data-entity-1="part4" data-entity-2="part3" id="msg19"><polygon fill="#181818" points="528.679,1127.8398,518.679,1131.8398,528.679,1135.8398,524.679,1131.8398" style="stroke:#181818;stroke-width:1;"/><line style="stroke:#181818;stroke-width:2;stroke-dasharray:2,2;" x1="522.679" x2="769.4875" y1="1131.8398" y2="1131.8398"/><text fill="#000000" font-family="Georgia" font-size="11" lengthAdjust="spacing" textLength="62.4229" x="534.679" y="1102.4312">Score object:</text><text fill="#000000" font-family="Georgia" font-size="11" lengthAdjust="spacing" textLength="191.2056" x="534.679" y="1114.9297">{composite, demographic, accessibility,</text><text fill="#000000" font-family="Georgia" font-size="11" lengthAdjust="spacing" textLength="177.2783" x="534.679" y="1127.4282">rentalPressure, competitionDensity}</text></g><g class="message" data-entity-1="part3" data-entity-2="part2" id="msg20"><polygon fill="#181818" points="268.0608,1191.834,258.0608,1195.834,268.0608,1199.834,264.0608,1195.834" style="stroke:#181818;stroke-width:1;"/><line style="stroke:#181818;stroke-width:2;stroke-dasharray:2,2;" x1="262.0608" x2="516.679" y1="1195.834" y2="1195.834"/><text fill="#000000" font-family="Georgia" font-size="11" lengthAdjust="spacing" textLength="38.124" x="274.0608" y="1153.9268">200 OK</text><text fill="#000000" font-family="Georgia" font-size="11" lengthAdjust="spacing" textLength="168.1206" x="274.0608" y="1166.4253">{scores: {composite, demographic,</text><text fill="#000000" font-family="Georgia" font-size="11" lengthAdjust="spacing" textLength="138.1284" x="274.0608" y="1178.9238">accessibility, rentalPressure,</text><text fill="#000000" font-family="Georgia" font-size="11" lengthAdjust="spacing" textLength="236.6182" x="274.0608" y="1191.4224">competitionDensity}, areaName, dataFreshness}</text></g><g class="message" data-entity-1="part2" data-entity-2="part1" id="msg21"><polygon fill="#181818" points="72.9485,1268.3267,62.9485,1272.3267,72.9485,1276.3267,68.9485,1272.3267" style="stroke:#181818;stroke-width:1;"/><line style="stroke:#181818;stroke-width:2;stroke-dasharray:2,2;" x1="66.9485" x2="256.0608" y1="1272.3267" y2="1272.3267"/><text fill="#000000" font-family="Georgia" font-size="11" lengthAdjust="spacing" textLength="154.5693" x="78.9485" y="1217.9209">Display score breakdown panel:</text><text fill="#000000" font-family="Georgia" font-size="11" lengthAdjust="spacing" textLength="149.5581" x="78.9485" y="1230.4194">- Composite score (prominent)</text><text fill="#000000" font-family="Georgia" font-size="11" lengthAdjust="spacing" textLength="99.9937" x="78.9485" y="1242.918">- 4 dimension scores</text><text fill="#000000" font-family="Georgia" font-size="11" lengthAdjust="spacing" textLength="131.2642" x="78.9485" y="1255.4165">- "Save to Portfolio" button</text><text fill="#000000" font-family="Georgia" font-size="11" lengthAdjust="spacing" textLength="158.936" x="78.9485" y="1267.915">- "Explain Score" button (UC-15)</text></g><?plantuml-src TLNlRo8t4Fs-VyM8JqHT0eJSbrIzYi3Iddf94ClfAfLJP7O7SBFOMzk4SDNzxttsBh-Q10a9x9atCs_UZ9rq1TENGQlRkw6XqIMD7pxHM2eIAgVVs54g7LEQQSDHP9-aAeKHQxBypuPLndrZz7QwajcJOclfwiJ4w8tAuQVOKBTpSf7pGcmADzBAtOir8uesIodUjaZbTwPkDuf4vhIXnXVBPgQQ_KwttUzSuTkxQ92mvCyZU3kPoL8eHusHWJkh7DOJXdTbDqhEhMv5zbGPzJlNbGb-dDluwgLQKgAMKd6mIPCe5qxCXMLg3EjVuMPu6qK-6MfzH32weK41TjfEb2Ier1A0Mf5RCQr56S5YRtTWl_JiEygy7-UKQMrogOHZMviZGTYF7z8fjKKfszPtfstHg9dwjn0kfa8jOogDNiY2F-KnsOoLC59_PRbSEViZYZm6e8QtG4gJpybWIcKXb4ATZyAmWCzc_bqhfj7auOxyqUFSTnGmR6Vgw-_99A5q-ZW0oq8gswnlTx4ludxQt2ToSH4XIkkOTnqcO5Bx44Vch9nSIFJnhUnoNkkb4IMqPcDoHYXRQkFYcJBm4qKCejObEmcP8BzZrZKDXvp3eSpf5_hrFB61o5RWEwHLEv5lChHNkFsjFo2BU4pDZzJhu61dB-YlC4AN_S7brRU8yAahg917XLXMdX18S9wfrCDj03E70fTXMCZmmh1TpTJOw8mHRIlTYh9Zv02jD2PIFqDY5Jf2zwxfNeEy7NajKkf3-86SANxnCs0XE6bfKUXjXBzrHJLV4deCoMsKU1Qo47DaTIoe--tDg64b1Cut3jajC9mzokMQbGKW8cjLx7u-DCK72JeblPOE7ZCLYWEipD1yXUBHK6MvIh3cB_MJaRnmXY31tmk7mnn2wxvLuwfJCSqtLlgQ3mUlHPyc1yo1AB8D9CeqF0gBxeJBLbMUs0XYoMsfK06JAEHIeJP79HWOJLffchGwdUx5svZzB4CcSYuBwNO7lBl9j8qilRXUvDhVd85TlGCs2VgcCGYo6yC7k6UH2PNjoFZL45Cr1c0ovvTpuDuxmAS26Fg-dUIgM9ZvxdIcpZ4_l8Ff7RHVHNiatvNbeHUqhPfn3dPT2J8zwoyje4LVRot5vC-z57tWmsmbU87Cwv7xh85pVhLVj1yw7Vg4fy4eq9MoyPeEA51KSBavhdoV0-UNM5hiLxrXPtQNZHy1T5Ib4POzvc6bjrL4MgDHq0xzXDR1ddJfAOwuiFLBQZ7JDM7vwuggoTBplpbpDyZfG6bykWHZ4gSYE-p1lKpYqz6hkuiHUCN65TXu-0DXGh_i3RqNRwRE0zB_uitK6m7Zi4xzCn-77JFo-yrFQPtAEOT3QV48rIAaEJoVShrLX6UO2r3H2f8zaHSrCKjhY4Mv2tzzVTn0bO7rfurKF3CvJMCy60jTIDt0jd1Egt2Rl20e5b3WVNz3JQywgDnle_y0?></g></svg>