<?plantuml 1.2026.2?><svg xmlns="http://www.w3.org/2000/svg" xmlns:xlink="http://www.w3.org/1999/xlink" contentStyleType="text/css" data-diagram-type="SEQUENCE" height="973px" preserveAspectRatio="none" style="width:705px;height:973px;background:#FFFFFF;" version="1.1" viewBox="0 0 705 973" width="705px" zoomAndPan="magnify"><title>UC-19: Delete Candidate Site</title><defs/><g><text fill="#000000" font-family="Georgia" font-size="14" font-weight="bold" lengthAdjust="spacing" textLength="205.8369" x="250.7759" y="27.8379">UC-19: Delete Candidate Site</text><rect fill="none" height="599.959" rx="5" ry="5" style="stroke:#000000;stroke-width:1.5;" width="688.3887" x="10" y="266.8955"/><rect fill="none" height="320.9766" rx="5" ry="5" style="stroke:#000000;stroke-width:1.5;" width="668.3887" x="20" y="538.8779"/><g class="participant-lifeline" data-entity-uid="part1" data-qualified-name="User" id="part1-lifeline"><g><title>User</title><rect fill="#000000" fill-opacity="0.00000" height="756.9502" width="8" x="67.9485" y="126.9043"/><line style="stroke:#181818;stroke-width:0.5;stroke-dasharray:5,5;" x1="71" x2="71" y1="126.9043" y2="883.8545"/></g></g><g class="participant-lifeline" data-entity-uid="part2" data-qualified-name="FE" id="part2-lifeline"><g><title>Frontend</title><rect fill="#000000" fill-opacity="0.00000" height="756.9502" width="8" x="252.3401" y="126.9043"/><line style="stroke:#181818;stroke-width:0.5;stroke-dasharray:5,5;" x1="255.6123" x2="255.6123" y1="126.9043" y2="883.8545"/></g></g><g class="participant-lifeline" data-entity-uid="part3" data-qualified-name="A04" id="part3-lifeline"><g><title>Backend</title><rect fill="#000000" fill-opacity="0.00000" height="756.9502" width="8" x="467.2288" y="126.9043"/><line style="stroke:#181818;stroke-width:0.5;stroke-dasharray:5,5;" x1="470.3513" x2="470.3513" y1="126.9043" y2="883.8545"/></g></g><g class="participant-lifeline" data-entity-uid="part4" data-qualified-name="DB" id="part4-lifeline"><g><title>Database</title><rect fill="#000000" fill-opacity="0.00000" height="756.9502" width="8" x="648.9402" y="126.9043"/><line style="stroke:#181818;stroke-width:0.5;stroke-dasharray:5,5;" x1="652.4917" x2="652.4917" y1="126.9043" y2="883.8545"/></g></g><g class="participant participant-head" data-entity-uid="part1" data-qualified-name="User" id="part1-head"><text fill="#000000" font-family="Georgia" font-size="11" lengthAdjust="spacing" textLength="22.897" x="57.5" y="111.9941">User</text><text fill="#000000" font-family="Georgia" font-size="11" lengthAdjust="spacing" textLength="77.897" x="30" y="124.4927">(A01/A02/A03)</text><ellipse cx="71.9485" cy="50.4072" fill="#E2E2F0" rx="8" ry="8" style="stroke:#181818;stroke-width:0.5;"/><path d="M71.9485,58.4072 L71.9485,85.4072 M58.9485,66.4072 L84.9485,66.4072 M71.9485,85.4072 L58.9485,100.4072 M71.9485,85.4072 L84.9485,100.4072" fill="none" style="stroke:#181818;stroke-width:0.5;"/></g><g class="participant participant-tail" data-entity-uid="part1" data-qualified-name="User" id="part1-tail"><text fill="#000000" font-family="Georgia" font-size="11" lengthAdjust="spacing" textLength="22.897" x="57.5" y="892.9414">User</text><text fill="#000000" font-family="Georgia" font-size="11" lengthAdjust="spacing" textLength="77.897" x="30" y="905.4399">(A01/A02/A03)</text><ellipse cx="71.9485" cy="916.3516" fill="#E2E2F0" rx="8" ry="8" style="stroke:#181818;stroke-width:0.5;"/><path d="M71.9485,924.3516 L71.9485,951.3516 M58.9485,932.3516 L84.9485,932.3516 M71.9485,951.3516 L58.9485,966.3516 M71.9485,951.3516 L84.9485,966.3516" fill="none" style="stroke:#181818;stroke-width:0.5;"/></g><g class="participant participant-head" data-entity-uid="part2" data-qualified-name="FE" id="part2-head"><rect fill="#E2E2F0" height="38.9971" rx="5" ry="5" style="stroke:#181818;stroke-width:0.5;" width="59.4556" x="226.6123" y="86.9072"/><text fill="#000000" font-family="Georgia" font-size="11" lengthAdjust="spacing" textLength="45.4556" x="233.6123" y="103.9941">Frontend</text><text fill="#000000" font-family="Georgia" font-size="11" lengthAdjust="spacing" textLength="35.6211" x="238.5295" y="116.4927">(React)</text></g><g class="participant participant-tail" data-entity-uid="part2" data-qualified-name="FE" id="part2-tail"><rect fill="#E2E2F0" height="38.9971" rx="5" ry="5" style="stroke:#181818;stroke-width:0.5;" width="59.4556" x="226.6123" y="882.8545"/><text fill="#000000" font-family="Georgia" font-size="11" lengthAdjust="spacing" textLength="45.4556" x="233.6123" y="899.9414">Frontend</text><text fill="#000000" font-family="Georgia" font-size="11" lengthAdjust="spacing" textLength="35.6211" x="238.5295" y="912.4399">(React)</text></g><g class="participant participant-head" data-entity-uid="part3" data-qualified-name="A04" id="part3-head"><rect fill="#E2E2F0" height="38.9971" rx="5" ry="5" style="stroke:#181818;stroke-width:0.5;" width="55.7549" x="443.3513" y="86.9072"/><text fill="#000000" font-family="Georgia" font-size="11" lengthAdjust="spacing" textLength="41.7549" x="450.3513" y="103.9941">Backend</text><text fill="#000000" font-family="Georgia" font-size="11" lengthAdjust="spacing" textLength="28.5957" x="456.9309" y="116.4927">(A04)</text></g><g class="participant participant-tail" data-entity-uid="part3" data-qualified-name="A04" id="part3-tail"><rect fill="#E2E2F0" height="38.9971" rx="5" ry="5" style="stroke:#181818;stroke-width:0.5;" width="55.7549" x="443.3513" y="882.8545"/><text fill="#000000" font-family="Georgia" font-size="11" lengthAdjust="spacing" textLength="41.7549" x="450.3513" y="899.9414">Backend</text><text fill="#000000" font-family="Georgia" font-size="11" lengthAdjust="spacing" textLength="28.5957" x="456.9309" y="912.4399">(A04)</text></g><g class="participant participant-head" data-entity-uid="part4" data-qualified-name="DB" id="part4-head"><text fill="#000000" font-family="Georgia" font-size="11" lengthAdjust="spacing" textLength="44.897" x="627.4917" y="124.4927">Database</text><path d="M634.9402,78.4058 C634.9402,68.4058 652.9402,68.4058 652.9402,68.4058 C652.9402,68.4058 670.9402,68.4058 670.9402,78.4058 L670.9402,104.4058 C670.9402,114.4058 652.9402,114.4058 652.9402,114.4058 C652.9402,114.4058 634.9402,114.4058 634.9402,104.4058 L634.9402,78.4058" fill="#E2E2F0" style="stroke:#181818;stroke-width:0.5;"/><path d="M634.9402,78.4058 C634.9402,88.4058 652.9402,88.4058 652.9402,88.4058 C652.9402,88.4058 670.9402,88.4058 670.9402,78.4058" fill="none" style="stroke:#181818;stroke-width:0.5;"/></g><g class="participant participant-tail" data-entity-uid="part4" data-qualified-name="DB" id="part4-tail"><text fill="#000000" font-family="Georgia" font-size="11" lengthAdjust="spacing" textLength="44.897" x="627.4917" y="892.9414">Database</text><path d="M634.9402,905.353 C634.9402,895.353 652.9402,895.353 652.9402,895.353 C652.9402,895.353 670.9402,895.353 670.9402,905.353 L670.9402,931.353 C670.9402,941.353 652.9402,941.353 652.9402,941.353 C652.9402,941.353 634.9402,941.353 634.9402,931.353 L634.9402,905.353" fill="#E2E2F0" style="stroke:#181818;stroke-width:0.5;"/><path d="M634.9402,905.353 C634.9402,915.353 652.9402,915.353 652.9402,915.353 C652.9402,915.353 670.9402,915.353 670.9402,905.353" fill="none" style="stroke:#181818;stroke-width:0.5;"/></g><path d="M38,146.9043 L38,170.9043 A5,5 0 0 0 43,175.9043 L284,175.9043 A5,5 0 0 0 289,170.9043 L289,151.9043 L279,141.9043 L43,141.9043 A5,5 0 0 0 38,146.9043" fill="#FEFFDD" style="stroke:#181818;stroke-width:0.5;"/><path d="M279,141.9043 L279,149.4043 A2.5,2.5 0 0 0 281.5,151.9043 L289,151.9043 L279,141.9043" fill="#FEFFDD" style="stroke:#181818;stroke-width:0.5;"/><text fill="#000000" font-family="Georgia" font-size="11" lengthAdjust="spacing" textLength="142.6509" x="87.7085" y="156.9912">Precondition: User is viewing</text><text fill="#000000" font-family="Georgia" font-size="11" lengthAdjust="spacing" textLength="136.8501" x="87.7085" y="169.4897">Portfolio (UC-17 completed)</text><g class="message" data-entity-1="part1" data-entity-2="part2" id="msg1"><polygon fill="#181818" points="244.3401,196.3999,254.3401,200.3999,244.3401,204.3999,248.3401,200.3999" style="stroke:#181818;stroke-width:1;"/><line style="stroke:#181818;stroke-width:2;" x1="71.9485" x2="250.3401" y1="200.3999" y2="200.3999"/><text fill="#000000" font-family="Georgia" font-size="11" lengthAdjust="spacing" textLength="160.3916" x="78.9485" y="195.9883">Click "Delete" on a candidate site</text></g><g class="message" data-entity-1="part2" data-entity-2="part1" id="msg2"><polygon fill="#181818" points="82.9485,247.8955,72.9485,251.8955,82.9485,255.8955,78.9485,251.8955" style="stroke:#181818;stroke-width:1;"/><line style="stroke:#181818;stroke-width:2;stroke-dasharray:2,2;" x1="76.9485" x2="255.3401" y1="251.8955" y2="251.8955"/><text fill="#000000" font-family="Georgia" font-size="11" lengthAdjust="spacing" textLength="128.5303" x="88.9485" y="222.4868">Show confirmation dialog:</text><text fill="#000000" font-family="Georgia" font-size="11" lengthAdjust="spacing" textLength="146.1689" x="88.9485" y="234.9854">"Delete this site permanently?</text><text fill="#000000" font-family="Georgia" font-size="11" lengthAdjust="spacing" textLength="150.9063" x="88.9485" y="247.4839">This action cannot be undone."</text></g><path d="M15,266.8955 L69.7114,266.8955 L69.7114,271.394 L59.7114,281.394 L10,281.394 L10,271.8955 A5,5 0 0 1 15,266.8955" fill="#EEEEEE" style="stroke:#000000;stroke-width:1.5;"/><rect fill="none" height="599.959" rx="5" ry="5" style="stroke:#000000;stroke-width:1.5;" width="688.3887" x="10" y="266.8955"/><text fill="#000000" font-family="Georgia" font-size="11" font-weight="bold" lengthAdjust="spacing" textLength="14.7114" x="25" y="277.9824">alt</text><text fill="#000000" font-family="Georgia" font-size="11" font-weight="bold" lengthAdjust="spacing" textLength="156.1431" x="84.7114" y="278.9824">[User cancels [UC-19.AC.1]]</text><g class="message" data-entity-1="part1" data-entity-2="part2" id="msg3"><polygon fill="#181818" points="244.3401,295.8926,254.3401,299.8926,244.3401,303.8926,248.3401,299.8926" style="stroke:#181818;stroke-width:1;"/><line style="stroke:#181818;stroke-width:2;" x1="71.9485" x2="250.3401" y1="299.8926" y2="299.8926"/><text fill="#000000" font-family="Georgia" font-size="11" lengthAdjust="spacing" textLength="68.5942" x="78.9485" y="295.481">Click "Cancel"</text></g><g class="message" data-entity-1="part2" data-entity-2="part1" id="msg4"><polygon fill="#181818" points="82.9485,334.8896,72.9485,338.8896,82.9485,342.8896,78.9485,338.8896" style="stroke:#181818;stroke-width:1;"/><line style="stroke:#181818;stroke-width:2;stroke-dasharray:2,2;" x1="76.9485" x2="255.3401" y1="338.8896" y2="338.8896"/><text fill="#000000" font-family="Georgia" font-size="11" lengthAdjust="spacing" textLength="71.0488" x="88.9485" y="321.9795">Dismiss dialog</text><text fill="#000000" font-family="Georgia" font-size="11" lengthAdjust="spacing" textLength="85.6528" x="88.9485" y="334.478">No changes made</text></g><line style="stroke:#000000;stroke-width:1;stroke-dasharray:2,2;" x1="10" x2="698.3887" y1="347.8896" y2="347.8896"/><text fill="#000000" font-family="Georgia" font-size="11" font-weight="bold" lengthAdjust="spacing" textLength="90.6104" x="15" y="357.9766">[User confirms]</text><g class="message" data-entity-1="part1" data-entity-2="part2" id="msg5"><polygon fill="#181818" points="244.3401,375.8867,254.3401,379.8867,244.3401,383.8867,248.3401,379.8867" style="stroke:#181818;stroke-width:1;"/><line style="stroke:#181818;stroke-width:2;" x1="71.9485" x2="250.3401" y1="379.8867" y2="379.8867"/><text fill="#000000" font-family="Georgia" font-size="11" lengthAdjust="spacing" textLength="110.3062" x="78.9485" y="375.4751">Click "Confirm Delete"</text></g><g class="message" data-entity-1="part2" data-entity-2="part3" id="msg6"><polygon fill="#181818" points="459.2288,402.3853,469.2288,406.3853,459.2288,410.3853,463.2288,406.3853" style="stroke:#181818;stroke-width:1;"/><line style="stroke:#181818;stroke-width:2;" x1="256.3401" x2="465.2288" y1="406.3853" y2="406.3853"/><text fill="#000000" font-family="Georgia" font-size="11" lengthAdjust="spacing" textLength="188.9067" x="263.3401" y="401.9736">DELETE /api/portfolio/sites/{site_id}</text></g><g class="message" data-entity-1="part3" data-entity-2="part3" id="msg7"><line style="stroke:#181818;stroke-width:2;" x1="471.2288" x2="513.2288" y1="445.3823" y2="445.3823"/><line style="stroke:#181818;stroke-width:2;" x1="513.2288" x2="513.2288" y1="445.3823" y2="458.3823"/><line style="stroke:#181818;stroke-width:2;" x1="472.2288" x2="513.2288" y1="458.3823" y2="458.3823"/><polygon fill="#181818" points="482.2288,454.3823,472.2288,458.3823,482.2288,462.3823,478.2288,458.3823" style="stroke:#181818;stroke-width:1;"/><text fill="#000000" font-family="Georgia" font-size="11" lengthAdjust="spacing" textLength="78.1011" x="478.2288" y="428.4722">Validate session</text><text fill="#000000" font-family="Georgia" font-size="11" lengthAdjust="spacing" textLength="125.1143" x="478.2288" y="440.9707">Verify site belongs to user</text></g><g class="message" data-entity-1="part3" data-entity-2="part4" id="msg8"><polygon fill="#181818" points="640.9402,493.3794,650.9402,497.3794,640.9402,501.3794,644.9402,497.3794" style="stroke:#181818;stroke-width:1;"/><line style="stroke:#181818;stroke-width:2;" x1="471.2288" x2="646.9402" y1="497.3794" y2="497.3794"/><text fill="#000000" font-family="Georgia" font-size="11" lengthAdjust="spacing" textLength="157.7114" x="478.2288" y="480.4692">DELETE FROM candidate_sites</text><text fill="#000000" font-family="Georgia" font-size="11" lengthAdjust="spacing" textLength="156.1484" x="478.2288" y="492.9678">WHERE id = ? AND user_id = ?</text></g><g class="message" data-entity-1="part4" data-entity-2="part3" id="msg9"><polygon fill="#181818" points="482.2288,519.8779,472.2288,523.8779,482.2288,527.8779,478.2288,523.8779" style="stroke:#181818;stroke-width:1;"/><line style="stroke:#181818;stroke-width:2;stroke-dasharray:2,2;" x1="476.2288" x2="651.9402" y1="523.8779" y2="523.8779"/><text fill="#000000" font-family="Georgia" font-size="11" lengthAdjust="spacing" textLength="72.9663" x="488.2288" y="519.4663">Record deleted</text></g><path d="M25,538.8779 L79.7114,538.8779 L79.7114,543.3765 L69.7114,553.3765 L20,553.3765 L20,543.8779 A5,5 0 0 1 25,538.8779" fill="#EEEEEE" style="stroke:#000000;stroke-width:1.5;"/><rect fill="none" height="320.9766" rx="5" ry="5" style="stroke:#000000;stroke-width:1.5;" width="668.3887" x="20" y="538.8779"/><text fill="#000000" font-family="Georgia" font-size="11" font-weight="bold" lengthAdjust="spacing" textLength="14.7114" x="35" y="549.9648">alt</text><text fill="#000000" font-family="Georgia" font-size="11" font-weight="bold" lengthAdjust="spacing" textLength="227.9331" x="94.7114" y="550.9648">[Database deletion failure [UC-19.EX.1]]</text><g class="message" data-entity-1="part4" data-entity-2="part3" id="msg10"><polygon fill="#181818" points="482.2288,567.875,472.2288,571.875,482.2288,575.875,478.2288,571.875" style="stroke:#181818;stroke-width:1;"/><line style="stroke:#181818;stroke-width:2;stroke-dasharray:2,2;" x1="476.2288" x2="651.9402" y1="571.875" y2="571.875"/><text fill="#000000" font-family="Georgia" font-size="11" lengthAdjust="spacing" textLength="26.6353" x="488.2288" y="567.4634">Error</text></g><g class="message" data-entity-1="part3" data-entity-2="part3" id="msg11"><line style="stroke:#181818;stroke-width:2;" x1="471.2288" x2="513.2288" y1="598.3735" y2="598.3735"/><line style="stroke:#181818;stroke-width:2;" x1="513.2288" x2="513.2288" y1="598.3735" y2="611.3735"/><line style="stroke:#181818;stroke-width:2;" x1="472.2288" x2="513.2288" y1="611.3735" y2="611.3735"/><polygon fill="#181818" points="482.2288,607.3735,472.2288,611.3735,482.2288,615.3735,478.2288,611.3735" style="stroke:#181818;stroke-width:1;"/><text fill="#000000" font-family="Georgia" font-size="11" lengthAdjust="spacing" textLength="45.5898" x="478.2288" y="593.9619">Log error</text></g><g class="message" data-entity-1="part3" data-entity-2="part2" id="msg12"><polygon fill="#181818" points="267.3401,646.3706,257.3401,650.3706,267.3401,654.3706,263.3401,650.3706" style="stroke:#181818;stroke-width:1;"/><line style="stroke:#181818;stroke-width:2;stroke-dasharray:2,2;" x1="261.3401" x2="470.2288" y1="650.3706" y2="650.3706"/><text fill="#000000" font-family="Georgia" font-size="11" lengthAdjust="spacing" textLength="124.7866" x="273.3401" y="633.4604">500 Internal Server Error</text><text fill="#000000" font-family="Georgia" font-size="11" lengthAdjust="spacing" textLength="190.8887" x="273.3401" y="645.959">{error: "Deletion failed. Site retained."}</text></g><g class="message" data-entity-1="part2" data-entity-2="part1" id="msg13"><polygon fill="#181818" points="82.9485,685.3677,72.9485,689.3677,82.9485,693.3677,78.9485,689.3677" style="stroke:#181818;stroke-width:1;"/><line style="stroke:#181818;stroke-width:2;stroke-dasharray:2,2;" x1="76.9485" x2="255.3401" y1="689.3677" y2="689.3677"/><text fill="#000000" font-family="Georgia" font-size="11" lengthAdjust="spacing" textLength="97.6626" x="88.9485" y="672.4575">Show error message</text><text fill="#000000" font-family="Georgia" font-size="11" lengthAdjust="spacing" textLength="118.0459" x="88.9485" y="684.9561">Site remains in portfolio</text></g><line style="stroke:#000000;stroke-width:1;stroke-dasharray:2,2;" x1="20" x2="688.3887" y1="698.3677" y2="698.3677"/><text fill="#000000" font-family="Georgia" font-size="11" font-weight="bold" lengthAdjust="spacing" textLength="118.8999" x="25" y="708.4546">[Deletion successful]</text><g class="message" data-entity-1="part3" data-entity-2="part2" id="msg14"><polygon fill="#181818" points="267.3401,738.8633,257.3401,742.8633,267.3401,746.8633,263.3401,742.8633" style="stroke:#181818;stroke-width:1;"/><line style="stroke:#181818;stroke-width:2;stroke-dasharray:2,2;" x1="261.3401" x2="470.2288" y1="742.8633" y2="742.8633"/><text fill="#000000" font-family="Georgia" font-size="11" lengthAdjust="spacing" textLength="38.124" x="273.3401" y="725.9531">200 OK</text><text fill="#000000" font-family="Georgia" font-size="11" lengthAdjust="spacing" textLength="122.2783" x="273.3401" y="738.4517">{message: "Site deleted"}</text></g><g class="message" data-entity-1="part2" data-entity-2="part1" id="msg15"><polygon fill="#181818" points="82.9485,790.3589,72.9485,794.3589,82.9485,798.3589,78.9485,794.3589" style="stroke:#181818;stroke-width:1;"/><line style="stroke:#181818;stroke-width:2;stroke-dasharray:2,2;" x1="76.9485" x2="255.3401" y1="794.3589" y2="794.3589"/><text fill="#000000" font-family="Georgia" font-size="11" lengthAdjust="spacing" textLength="119.1523" x="88.9485" y="764.9502">Show confirmation toast</text><text fill="#000000" font-family="Georgia" font-size="11" lengthAdjust="spacing" textLength="106.8955" x="88.9485" y="777.4487">Remove site card/row</text><text fill="#000000" font-family="Georgia" font-size="11" lengthAdjust="spacing" textLength="100.144" x="88.9485" y="789.9473">Refresh portfolio list</text></g><path d="M185,812.3589 L185,849.3589 A5,5 0 0 0 190,854.3589 L322,854.3589 A5,5 0 0 0 327,849.3589 L327,817.3589 L317,807.3589 L190,807.3589 A5,5 0 0 0 185,812.3589" fill="#FEFFDD" style="stroke:#181818;stroke-width:0.5;"/><path d="M317,807.3589 L317,814.8589 A2.5,2.5 0 0 0 319.5,817.3589 L327,817.3589 L317,807.3589" fill="#FEFFDD" style="stroke:#181818;stroke-width:0.5;"/><text fill="#000000" font-family="Georgia" font-size="11" lengthAdjust="spacing" textLength="99.2256" x="191" y="822.4458">If deleted site was in</text><text fill="#000000" font-family="Georgia" font-size="11" lengthAdjust="spacing" textLength="99.0591" x="191" y="834.9443">a compare selection,</text><text fill="#000000" font-family="Georgia" font-size="11" lengthAdjust="spacing" textLength="121.4995" x="191" y="847.4429">de-select it automatically</text><?plantuml-src VLJlJzim4FsUl-AKJo3HNspJj4e3bJRTfZ50BR19ouHCScajd7DdErGCyR_lxAGf5MoLeZgvk_VExvxjf5C8L-FEuCCG9gZG8Om5vJ8Nl9fBXr5axoIjX14bMFnT8MKuCaQlBvSokoEq5WwVfHXTKPvfGsXWq7yMoB4GbN9JJUvCb0YVK9k55AzdpEKVXC4WYaJcj87uog99QM_K7_H6_KD-tkp782puxn5NEvd9bI07yTHmELBEsJFawZflckncdOZihauQzT_MARo8UDFYLbY4UDAiGcXo4aMaMGzzpxlod0UC24EuC9Xf5ij9JSCG06dXNk9QqYAb2srSePNKiESLVW-PBbTUudm_Ya9svwW66YlMabd306BG10AoTWpMZu7pEfmUoeOmN-ermr4XJIayFUHIABqOfjIWW5joBxuKLiX9XEJKmt5Ab_uxA-EBc8Ct1hS8F3LDs8rPSkLg5Wvcg2py3FReZiRTmQy8-FTQw-EG78VuRgiJQKl9BgaRJEbCGxOKj40BfSWnOWfi2Elzs7-Jr0cDKRTaHtvwdYevJIuJw8cLxAqsulUy1hRtwFzkPFuKXJ9VqDPT2zKepNPcNLAwHYEBXrg-MrIQ5XQSXihxxNdzv6HBEvsTVzjExIRGflJzSp9BGERm4OvXT3O963VrUq1YY4xRoOmDPN8-2i4cDPKVoCQFTSIFhX1ILGOtqqb-RARp0ZFXqshQqCx6J_K2y6Lu8_kxVX--y74o91JCqNZx1xIK7aFPiF7ifY7Ck-7I08DEIEBN-Ac5ViN10GHALbqiCAMcjEHI2vAWdM7024PfwMoLPLnNLEhrtW-vz_Elt6Y3pgq6-4RQ__UrSxAS5jQbDCEIptzjYKoOlCTteFzQ6BJBRQkWf7KjzlRQ24rzAJRyDSvQ-7sc9CBL88nteC9mDWzIoh5Jlu9q82gdVKEPKEgXreFoo3z_0G00?></g></svg>