<?plantuml 1.2026.2?><svg xmlns="http://www.w3.org/2000/svg" xmlns:xlink="http://www.w3.org/1999/xlink" contentStyleType="text/css" data-diagram-type="SEQUENCE" height="996px" preserveAspectRatio="none" style="width:725px;height:996px;background:#FFFFFF;" version="1.1" viewBox="0 0 725 996" width="725px" zoomAndPan="magnify"><title>UC-16: Save Candidate Site</title><defs/><g><text fill="#000000" font-family="Georgia" font-size="14" font-weight="bold" lengthAdjust="spacing" textLength="193.1289" x="267.4272" y="27.8379">UC-16: Save Candidate Site</text><rect fill="none" height="442.9648" rx="5" ry="5" style="stroke:#000000;stroke-width:1.5;" width="708.9834" x="10" y="446.8809"/><g class="participant-lifeline" data-entity-uid="part1" data-qualified-name="User" id="part1-lifeline"><g><title>User</title><rect fill="#000000" fill-opacity="0.00000" height="779.9414" width="8" x="57.9485" y="126.9043"/><line style="stroke:#181818;stroke-width:0.5;stroke-dasharray:5,5;" x1="61" x2="61" y1="126.9043" y2="906.8457"/></g></g><g class="participant-lifeline" data-entity-uid="part2" data-qualified-name="FE" id="part2-lifeline"><g><title>Frontend</title><rect fill="#000000" fill-opacity="0.00000" height="779.9414" width="8" x="281.9143" y="126.9043"/><line style="stroke:#181818;stroke-width:0.5;stroke-dasharray:5,5;" x1="285.1865" x2="285.1865" y1="126.9043" y2="906.8457"/></g></g><g class="participant-lifeline" data-entity-uid="part3" data-qualified-name="A04" id="part3-lifeline"><g><title>Backend</title><rect fill="#000000" fill-opacity="0.00000" height="779.9414" width="8" x="473.1272" y="126.9043"/><line style="stroke:#181818;stroke-width:0.5;stroke-dasharray:5,5;" x1="476.2498" x2="476.2498" y1="126.9043" y2="906.8457"/></g></g><g class="participant-lifeline" data-entity-uid="part4" data-qualified-name="DB" id="part4-lifeline"><g><title>Database</title><rect fill="#000000" fill-opacity="0.00000" height="779.9414" width="8" x="679.5349" y="126.9043"/><line style="stroke:#181818;stroke-width:0.5;stroke-dasharray:5,5;" x1="683.0864" x2="683.0864" y1="126.9043" y2="906.8457"/></g></g><g class="participant participant-head" data-entity-uid="part1" data-qualified-name="User" id="part1-head"><text fill="#000000" font-family="Georgia" font-size="11" lengthAdjust="spacing" textLength="22.897" x="47.5" y="111.9941">User</text><text fill="#000000" font-family="Georgia" font-size="11" lengthAdjust="spacing" textLength="77.897" x="20" y="124.4927">(A01/A02/A03)</text><ellipse cx="61.9485" cy="50.4072" fill="#E2E2F0" rx="8" ry="8" style="stroke:#181818;stroke-width:0.5;"/><path d="M61.9485,58.4072 L61.9485,85.4072 M48.9485,66.4072 L74.9485,66.4072 M61.9485,85.4072 L48.9485,100.4072 M61.9485,85.4072 L74.9485,100.4072" fill="none" style="stroke:#181818;stroke-width:0.5;"/></g><g class="participant participant-tail" data-entity-uid="part1" data-qualified-name="User" id="part1-tail"><text fill="#000000" font-family="Georgia" font-size="11" lengthAdjust="spacing" textLength="22.897" x="47.5" y="915.9326">User</text><text fill="#000000" font-family="Georgia" font-size="11" lengthAdjust="spacing" textLength="77.897" x="20" y="928.4312">(A01/A02/A03)</text><ellipse cx="61.9485" cy="939.3428" fill="#E2E2F0" rx="8" ry="8" style="stroke:#181818;stroke-width:0.5;"/><path d="M61.9485,947.3428 L61.9485,974.3428 M48.9485,955.3428 L74.9485,955.3428 M61.9485,974.3428 L48.9485,989.3428 M61.9485,974.3428 L74.9485,989.3428" fill="none" style="stroke:#181818;stroke-width:0.5;"/></g><g class="participant participant-head" data-entity-uid="part2" data-qualified-name="FE" id="part2-head"><rect fill="#E2E2F0" height="38.9971" rx="5" ry="5" style="stroke:#181818;stroke-width:0.5;" width="59.4556" x="256.1865" y="86.9072"/><text fill="#000000" font-family="Georgia" font-size="11" lengthAdjust="spacing" textLength="45.4556" x="263.1865" y="103.9941">Frontend</text><text fill="#000000" font-family="Georgia" font-size="11" lengthAdjust="spacing" textLength="35.6211" x="268.1038" y="116.4927">(React)</text></g><g class="participant participant-tail" data-entity-uid="part2" data-qualified-name="FE" id="part2-tail"><rect fill="#E2E2F0" height="38.9971" rx="5" ry="5" style="stroke:#181818;stroke-width:0.5;" width="59.4556" x="256.1865" y="905.8457"/><text fill="#000000" font-family="Georgia" font-size="11" lengthAdjust="spacing" textLength="45.4556" x="263.1865" y="922.9326">Frontend</text><text fill="#000000" font-family="Georgia" font-size="11" lengthAdjust="spacing" textLength="35.6211" x="268.1038" y="935.4312">(React)</text></g><g class="participant participant-head" data-entity-uid="part3" data-qualified-name="A04" id="part3-head"><rect fill="#E2E2F0" height="38.9971" rx="5" ry="5" style="stroke:#181818;stroke-width:0.5;" width="55.7549" x="449.2498" y="86.9072"/><text fill="#000000" font-family="Georgia" font-size="11" lengthAdjust="spacing" textLength="41.7549" x="456.2498" y="103.9941">Backend</text><text fill="#000000" font-family="Georgia" font-size="11" lengthAdjust="spacing" textLength="28.5957" x="462.8293" y="116.4927">(A04)</text></g><g class="participant participant-tail" data-entity-uid="part3" data-qualified-name="A04" id="part3-tail"><rect fill="#E2E2F0" height="38.9971" rx="5" ry="5" style="stroke:#181818;stroke-width:0.5;" width="55.7549" x="449.2498" y="905.8457"/><text fill="#000000" font-family="Georgia" font-size="11" lengthAdjust="spacing" textLength="41.7549" x="456.2498" y="922.9326">Backend</text><text fill="#000000" font-family="Georgia" font-size="11" lengthAdjust="spacing" textLength="28.5957" x="462.8293" y="935.4312">(A04)</text></g><g class="participant participant-head" data-entity-uid="part4" data-qualified-name="DB" id="part4-head"><text fill="#000000" font-family="Georgia" font-size="11" lengthAdjust="spacing" textLength="44.897" x="658.0864" y="124.4927">Database</text><path d="M665.5349,78.4058 C665.5349,68.4058 683.5349,68.4058 683.5349,68.4058 C683.5349,68.4058 701.5349,68.4058 701.5349,78.4058 L701.5349,104.4058 C701.5349,114.4058 683.5349,114.4058 683.5349,114.4058 C683.5349,114.4058 665.5349,114.4058 665.5349,104.4058 L665.5349,78.4058" fill="#E2E2F0" style="stroke:#181818;stroke-width:0.5;"/><path d="M665.5349,78.4058 C665.5349,88.4058 683.5349,88.4058 683.5349,88.4058 C683.5349,88.4058 701.5349,88.4058 701.5349,78.4058" fill="none" style="stroke:#181818;stroke-width:0.5;"/></g><g class="participant participant-tail" data-entity-uid="part4" data-qualified-name="DB" id="part4-tail"><text fill="#000000" font-family="Georgia" font-size="11" lengthAdjust="spacing" textLength="44.897" x="658.0864" y="915.9326">Database</text><path d="M665.5349,928.3442 C665.5349,918.3442 683.5349,918.3442 683.5349,918.3442 C683.5349,918.3442 701.5349,918.3442 701.5349,928.3442 L701.5349,954.3442 C701.5349,964.3442 683.5349,964.3442 683.5349,964.3442 C683.5349,964.3442 665.5349,964.3442 665.5349,954.3442 L665.5349,928.3442" fill="#E2E2F0" style="stroke:#181818;stroke-width:0.5;"/><path d="M665.5349,928.3442 C665.5349,938.3442 683.5349,938.3442 683.5349,938.3442 C683.5349,938.3442 701.5349,938.3442 701.5349,928.3442" fill="none" style="stroke:#181818;stroke-width:0.5;"/></g><path d="M28,146.9043 L28,170.9043 A5,5 0 0 0 33,175.9043 L313,175.9043 A5,5 0 0 0 318,170.9043 L318,151.9043 L308,141.9043 L33,141.9043 A5,5 0 0 0 28,146.9043" fill="#FEFFDD" style="stroke:#181818;stroke-width:0.5;"/><path d="M308,141.9043 L308,149.4043 A2.5,2.5 0 0 0 310.5,151.9043 L318,151.9043 L308,141.9043" fill="#FEFFDD" style="stroke:#181818;stroke-width:0.5;"/><text fill="#000000" font-family="Georgia" font-size="11" lengthAdjust="spacing" textLength="147.6299" x="92.9248" y="156.9912">Precondition: POI pin and site</text><text fill="#000000" font-family="Georgia" font-size="11" lengthAdjust="spacing" textLength="151.7925" x="92.9248" y="169.4897">score from UC-13 are displayed</text><g class="message" data-entity-1="part1" data-entity-2="part2" id="msg1"><polygon fill="#181818" points="273.9143,196.3999,283.9143,200.3999,273.9143,204.3999,277.9143,200.3999" style="stroke:#181818;stroke-width:1;"/><line style="stroke:#181818;stroke-width:2;" x1="61.9485" x2="279.9143" y1="200.3999" y2="200.3999"/><text fill="#000000" font-family="Georgia" font-size="11" lengthAdjust="spacing" textLength="116.3057" x="68.9485" y="195.9883">Click "Save to Portfolio"</text></g><g class="message" data-entity-1="part2" data-entity-2="part1" id="msg2"><polygon fill="#181818" points="72.9485,235.397,62.9485,239.397,72.9485,243.397,68.9485,239.397" style="stroke:#181818;stroke-width:1;"/><line style="stroke:#181818;stroke-width:2;stroke-dasharray:2,2;" x1="66.9485" x2="284.9143" y1="239.397" y2="239.397"/><text fill="#000000" font-family="Georgia" font-size="11" lengthAdjust="spacing" textLength="146.0347" x="78.9485" y="222.4868">Prompt for optional site name</text><text fill="#000000" font-family="Georgia" font-size="11" lengthAdjust="spacing" textLength="47.3086" x="78.9485" y="234.9854">and notes</text></g><g class="message" data-entity-1="part1" data-entity-2="part2" id="msg3"><polygon fill="#181818" points="273.9143,274.394,283.9143,278.394,273.9143,282.394,277.9143,278.394" style="stroke:#181818;stroke-width:1;"/><line style="stroke:#181818;stroke-width:2;" x1="61.9485" x2="279.9143" y1="278.394" y2="278.394"/><text fill="#000000" font-family="Georgia" font-size="11" lengthAdjust="spacing" textLength="128.0093" x="68.9485" y="261.4839">Enter site name (optional)</text><text fill="#000000" font-family="Georgia" font-size="11" lengthAdjust="spacing" textLength="131.1406" x="68.9485" y="273.9824">and/or notes; confirm save</text></g><g class="message" data-entity-1="part2" data-entity-2="part3" id="msg4"><polygon fill="#181818" points="465.1272,363.3853,475.1272,367.3853,465.1272,371.3853,469.1272,367.3853" style="stroke:#181818;stroke-width:1;"/><line style="stroke:#181818;stroke-width:2;" x1="285.9143" x2="471.1272" y1="367.3853" y2="367.3853"/><text fill="#000000" font-family="Georgia" font-size="11" lengthAdjust="spacing" textLength="125.2109" x="292.9143" y="300.481">POST /api/portfolio/sites</text><text fill="#000000" font-family="Georgia" font-size="11" lengthAdjust="spacing" textLength="124.6631" x="292.9143" y="312.9795">{lat, lng, siteName, notes,</text><text fill="#000000" font-family="Georgia" font-size="11" lengthAdjust="spacing" textLength="139.5142" x="292.9143" y="325.478">profileId, scores:{composite,</text><text fill="#000000" font-family="Georgia" font-size="11" lengthAdjust="spacing" textLength="130.9365" x="292.9143" y="337.9766">demographic, accessibility,</text><text fill="#000000" font-family="Georgia" font-size="11" lengthAdjust="spacing" textLength="143" x="292.9143" y="350.4751">rentalPressure, competition},</text><text fill="#000000" font-family="Georgia" font-size="11" lengthAdjust="spacing" textLength="128.4497" x="292.9143" y="362.9736">scenarioWeights, address}</text></g><g class="message" data-entity-1="part3" data-entity-2="part3" id="msg5"><line style="stroke:#181818;stroke-width:2;" x1="477.1272" x2="519.1272" y1="418.8809" y2="418.8809"/><line style="stroke:#181818;stroke-width:2;" x1="519.1272" x2="519.1272" y1="418.8809" y2="431.8809"/><line style="stroke:#181818;stroke-width:2;" x1="478.1272" x2="519.1272" y1="431.8809" y2="431.8809"/><polygon fill="#181818" points="488.1272,427.8809,478.1272,431.8809,488.1272,435.8809,484.1272,431.8809" style="stroke:#181818;stroke-width:1;"/><text fill="#000000" font-family="Georgia" font-size="11" lengthAdjust="spacing" textLength="72.4399" x="484.1272" y="389.4722">Validate input:</text><text fill="#000000" font-family="Georgia" font-size="11" lengthAdjust="spacing" textLength="117.439" x="484.1272" y="401.9707">- name &#8804; 100 characters</text><text fill="#000000" font-family="Georgia" font-size="11" lengthAdjust="spacing" textLength="117.772" x="484.1272" y="414.4692">- notes &#8804; 500 characters</text></g><path d="M15,446.8809 L69.7114,446.8809 L69.7114,451.3794 L59.7114,461.3794 L10,461.3794 L10,451.8809 A5,5 0 0 1 15,446.8809" fill="#EEEEEE" style="stroke:#000000;stroke-width:1.5;"/><rect fill="none" height="442.9648" rx="5" ry="5" style="stroke:#000000;stroke-width:1.5;" width="708.9834" x="10" y="446.8809"/><text fill="#000000" font-family="Georgia" font-size="11" font-weight="bold" lengthAdjust="spacing" textLength="14.7114" x="25" y="457.9678">alt</text><text fill="#000000" font-family="Georgia" font-size="11" font-weight="bold" lengthAdjust="spacing" textLength="211.1968" x="84.7114" y="458.9678">[Database write failure [UC-16.EX.1]]</text><g class="message" data-entity-1="part3" data-entity-2="part4" id="msg6"><polygon fill="#181818" points="671.5349,525.8721,681.5349,529.8721,671.5349,533.8721,675.5349,529.8721" style="stroke:#181818;stroke-width:1;"/><line style="stroke:#181818;stroke-width:2;" x1="477.1272" x2="677.5349" y1="529.8721" y2="529.8721"/><text fill="#000000" font-family="Georgia" font-size="11" lengthAdjust="spacing" textLength="150.0952" x="484.1272" y="475.4663">INSERT INTO candidate_sites</text><text fill="#000000" font-family="Georgia" font-size="11" lengthAdjust="spacing" textLength="137.7954" x="484.1272" y="487.9648">(user_id, profile_id, lat, lng,</text><text fill="#000000" font-family="Georgia" font-size="11" lengthAdjust="spacing" textLength="174.2061" x="484.1272" y="500.4634">site_name, notes, composite_score,</text><text fill="#000000" font-family="Georgia" font-size="11" lengthAdjust="spacing" textLength="182.4077" x="484.1272" y="512.9619">dimension_scores, scenario_weights,</text><text fill="#000000" font-family="Georgia" font-size="11" lengthAdjust="spacing" textLength="99.4565" x="484.1272" y="525.4604">address, created_at)</text></g><g class="message" data-entity-1="part4" data-entity-2="part3" id="msg7"><polygon fill="#181818" points="488.1272,552.3706,478.1272,556.3706,488.1272,560.3706,484.1272,556.3706" style="stroke:#181818;stroke-width:1;"/><line style="stroke:#181818;stroke-width:2;stroke-dasharray:2,2;" x1="482.1272" x2="682.5349" y1="556.3706" y2="556.3706"/><text fill="#000000" font-family="Georgia" font-size="11" lengthAdjust="spacing" textLength="26.6353" x="494.1272" y="551.959">Error</text></g><g class="message" data-entity-1="part3" data-entity-2="part3" id="msg8"><line style="stroke:#181818;stroke-width:2;" x1="477.1272" x2="519.1272" y1="582.8691" y2="582.8691"/><line style="stroke:#181818;stroke-width:2;" x1="519.1272" x2="519.1272" y1="582.8691" y2="595.8691"/><line style="stroke:#181818;stroke-width:2;" x1="478.1272" x2="519.1272" y1="595.8691" y2="595.8691"/><polygon fill="#181818" points="488.1272,591.8691,478.1272,595.8691,488.1272,599.8691,484.1272,595.8691" style="stroke:#181818;stroke-width:1;"/><text fill="#000000" font-family="Georgia" font-size="11" lengthAdjust="spacing" textLength="45.5898" x="484.1272" y="578.4575">Log error</text></g><g class="message" data-entity-1="part3" data-entity-2="part2" id="msg9"><polygon fill="#181818" points="296.9143,630.8662,286.9143,634.8662,296.9143,638.8662,292.9143,634.8662" style="stroke:#181818;stroke-width:1;"/><line style="stroke:#181818;stroke-width:2;stroke-dasharray:2,2;" x1="290.9143" x2="476.1272" y1="634.8662" y2="634.8662"/><text fill="#000000" font-family="Georgia" font-size="11" lengthAdjust="spacing" textLength="124.7866" x="302.9143" y="617.9561">500 Internal Server Error</text><text fill="#000000" font-family="Georgia" font-size="11" lengthAdjust="spacing" textLength="167.2129" x="302.9143" y="630.4546">{error: "Save failed. Please retry."}</text></g><g class="message" data-entity-1="part2" data-entity-2="part1" id="msg10"><polygon fill="#181818" points="72.9485,657.3647,62.9485,661.3647,72.9485,665.3647,68.9485,661.3647" style="stroke:#181818;stroke-width:1;"/><line style="stroke:#181818;stroke-width:2;stroke-dasharray:2,2;" x1="66.9485" x2="284.9143" y1="661.3647" y2="661.3647"/><text fill="#000000" font-family="Georgia" font-size="11" lengthAdjust="spacing" textLength="199.9658" x="78.9485" y="656.9531">Show save-failure message + retry option</text></g><line style="stroke:#000000;stroke-width:1;stroke-dasharray:2,2;" x1="10" x2="718.9834" y1="670.3647" y2="670.3647"/><text fill="#000000" font-family="Georgia" font-size="11" font-weight="bold" lengthAdjust="spacing" textLength="96.7334" x="15" y="680.4517">[Save successful]</text><g class="message" data-entity-1="part3" data-entity-2="part4" id="msg11"><polygon fill="#181818" points="671.5349,748.356,681.5349,752.356,671.5349,756.356,675.5349,752.356" style="stroke:#181818;stroke-width:1;"/><line style="stroke:#181818;stroke-width:2;" x1="477.1272" x2="677.5349" y1="752.356" y2="752.356"/><text fill="#000000" font-family="Georgia" font-size="11" lengthAdjust="spacing" textLength="150.0952" x="484.1272" y="697.9502">INSERT INTO candidate_sites</text><text fill="#000000" font-family="Georgia" font-size="11" lengthAdjust="spacing" textLength="137.7954" x="484.1272" y="710.4487">(user_id, profile_id, lat, lng,</text><text fill="#000000" font-family="Georgia" font-size="11" lengthAdjust="spacing" textLength="174.2061" x="484.1272" y="722.9473">site_name, notes, composite_score,</text><text fill="#000000" font-family="Georgia" font-size="11" lengthAdjust="spacing" textLength="182.4077" x="484.1272" y="735.4458">dimension_scores, scenario_weights,</text><text fill="#000000" font-family="Georgia" font-size="11" lengthAdjust="spacing" textLength="99.4565" x="484.1272" y="747.9443">address, created_at)</text></g><g class="message" data-entity-1="part4" data-entity-2="part3" id="msg12"><polygon fill="#181818" points="488.1272,774.8545,478.1272,778.8545,488.1272,782.8545,484.1272,778.8545" style="stroke:#181818;stroke-width:1;"/><line style="stroke:#181818;stroke-width:2;stroke-dasharray:2,2;" x1="482.1272" x2="682.5349" y1="778.8545" y2="778.8545"/><text fill="#000000" font-family="Georgia" font-size="11" lengthAdjust="spacing" textLength="144.6274" x="494.1272" y="774.4429">New site record (with site_id)</text></g><g class="message" data-entity-1="part3" data-entity-2="part2" id="msg13"><polygon fill="#181818" points="296.9143,826.3501,286.9143,830.3501,296.9143,834.3501,292.9143,830.3501" style="stroke:#181818;stroke-width:1;"/><line style="stroke:#181818;stroke-width:2;stroke-dasharray:2,2;" x1="290.9143" x2="476.1272" y1="830.3501" y2="830.3501"/><text fill="#000000" font-family="Georgia" font-size="11" lengthAdjust="spacing" textLength="58.1367" x="302.9143" y="800.9414">201 Created</text><text fill="#000000" font-family="Georgia" font-size="11" lengthAdjust="spacing" textLength="135.8188" x="302.9143" y="813.4399">{site: {id, siteName, lat, lng,</text><text fill="#000000" font-family="Georgia" font-size="11" lengthAdjust="spacing" textLength="138.8911" x="302.9143" y="825.9385">compositeScore, createdAt}}</text></g><g class="message" data-entity-1="part2" data-entity-2="part1" id="msg14"><polygon fill="#181818" points="72.9485,877.8457,62.9485,881.8457,72.9485,885.8457,68.9485,881.8457" style="stroke:#181818;stroke-width:1;"/><line style="stroke:#181818;stroke-width:2;stroke-dasharray:2,2;" x1="66.9485" x2="284.9143" y1="881.8457" y2="881.8457"/><text fill="#000000" font-family="Georgia" font-size="11" lengthAdjust="spacing" textLength="115.4141" x="78.9485" y="852.437">Show toast notification:</text><text fill="#000000" font-family="Georgia" font-size="11" lengthAdjust="spacing" textLength="128.6216" x="78.9485" y="864.9355">"Site saved to portfolio &#10003;"</text><text fill="#000000" font-family="Georgia" font-size="11" lengthAdjust="spacing" textLength="152.7432" x="78.9485" y="877.4341">+ "View Portfolio" shortcut link</text></g><?plantuml-src rPNBJXin58RtVegZMGMHAxHTf19IW50XLO18e9KwLMHcpYGMZZsrFKGKvG6wxhRBFXbFqdCyIKXwUO16YkAPS__ysmagQ8IRarRlJHz6yW7XH9fSvJ8WZ5H08VozCgLqSWuUlrHeCXmuPnVZcShk3NeF1rikpbOcpwmpwA3NtJBaMCXAXpDhmeMS8xn3wwPA_jrZfBuYz7f2o2nO1ycDHvUQng3Rwmow1_Gzt4j0Uk3tWgA3obGfJO3ap54ucfoyhv6YQx-puQxNiSpkQwT1zrNjGWj1GyixwH6IqzKgcawFXJ2MUDW7cefhDYaZzE7AOMO9Lb3MqDFbEPJA0E43J-HIuma4Gk7iF08-14cFkVAbbe-O2y6fe7LK9plHn1EIk0N1mfLreR1QsKIGkKLUqPkBsdaPe20kjkJAKiToO0XhQhWwD-j_IpyaBEx54HhhuBqOqw5qCUmjq4Y5ShJRr4ciVSHmkFBbQ0mTMQfEkMwkmmbzQfwq34tGPjgC9NY7ctM-PcfAPmkbyJmd8nFn_QUCPh3iIUOSvtRgP4bwQeBCCfAKkbDQXKSoEZH1QWBjVUKe9mTYYCINJIQCHZfbFw2QpeAd-3ndtwKGtFEczLkfQqcJsAhGJqshfl3yxIV9j0lPZ2IO4I4VJTnujBtUiP4UTO2rDc3Xc6OXbQRMu5CyG-tXntRlim3wh1euFQRwvnUZuVMOViQNaAtFrsG5hr7HHaqKuLcHYkiDKPgI_2PcYobi-4qYKQQevaYErjHlFBEksKmMApYqqJKTYdT83UGJ6VPYhzHaQmDhICVRROzGltvlfu2xfhMu6DCv2up5E4B7voHc8MN4aFvAs0mBypPSQMI23eDxR2VBc75NvgEPNKG9jjQ0vzIvd2Birs4hzGlKb2WczrKKJr7f_vl_1IxgWyhNYykXiL1X5jzGOtlYJ_m7tHwSr1a9E3lsuObdU3cBMzDiUX_5rjUz3CBod_iGhFI1PrU5ocIyxbAJyDz3tAASBwpDdG3FFxudgTc7v5RH92yN6VWPhRCgW5RcNj05B7u1?></g></svg>