<?plantuml 1.2026.2?><svg xmlns="http://www.w3.org/2000/svg" xmlns:xlink="http://www.w3.org/1999/xlink" contentStyleType="text/css" data-diagram-type="SEQUENCE" height="907px" preserveAspectRatio="none" style="width:987px;height:907px;background:#FFFFFF;" version="1.1" viewBox="0 0 987 907" width="987px" zoomAndPan="magnify"><title>UC-10: View Interactive Map</title><defs/><g><text fill="#000000" font-family="Georgia" font-size="14" font-weight="bold" lengthAdjust="spacing" textLength="206.0352" x="391.9277" y="27.8379">UC-10: View Interactive Map</text><rect fill="none" height="591.4604" rx="5" ry="5" style="stroke:#000000;stroke-width:1.5;" width="970.8906" x="10" y="209.3999"/><g class="participant-lifeline" data-entity-uid="part1" data-qualified-name="User" id="part1-lifeline"><g><title>User</title><rect fill="#000000" fill-opacity="0.00000" height="690.9561" width="8" x="57.9485" y="126.9043"/><line style="stroke:#181818;stroke-width:0.5;stroke-dasharray:5,5;" x1="61" x2="61" y1="126.9043" y2="817.8604"/></g></g><g class="participant-lifeline" data-entity-uid="part2" data-qualified-name="FE" id="part2-lifeline"><g><title>Frontend</title><rect fill="#000000" fill-opacity="0.00000" height="690.9561" width="8" x="280.6843" y="126.9043"/><line style="stroke:#181818;stroke-width:0.5;stroke-dasharray:5,5;" x1="283.9565" x2="283.9565" y1="126.9043" y2="817.8604"/></g></g><g class="participant-lifeline" data-entity-uid="part3" data-qualified-name="A04" id="part3-lifeline"><g><title>Backend</title><rect fill="#000000" fill-opacity="0.00000" height="690.9561" width="8" x="580.8928" y="126.9043"/><line style="stroke:#181818;stroke-width:0.5;stroke-dasharray:5,5;" x1="584.0154" x2="584.0154" y1="126.9043" y2="817.8604"/></g></g><g class="participant-lifeline" data-entity-uid="part4" data-qualified-name="DB" id="part4-lifeline"><g><title>Database</title><rect fill="#000000" fill-opacity="0.00000" height="690.9561" width="8" x="811.1804" y="126.9043"/><line style="stroke:#181818;stroke-width:0.5;stroke-dasharray:5,5;" x1="814.7319" x2="814.7319" y1="126.9043" y2="817.8604"/></g></g><g class="participant-lifeline" data-entity-uid="part5" data-qualified-name="MapProvider" id="part5-lifeline"><g><title>Map Provider</title><rect fill="#000000" fill-opacity="0.00000" height="690.9561" width="8" x="906.7598" y="126.9043"/><line style="stroke:#181818;stroke-width:0.5;stroke-dasharray:5,5;" x1="910.6289" x2="910.6289" y1="126.9043" y2="817.8604"/></g></g><g class="participant participant-head" data-entity-uid="part1" data-qualified-name="User" id="part1-head"><text fill="#000000" font-family="Georgia" font-size="11" lengthAdjust="spacing" textLength="22.897" x="47.5" y="111.9941">User</text><text fill="#000000" font-family="Georgia" font-size="11" lengthAdjust="spacing" textLength="77.897" x="20" y="124.4927">(A01/A02/A03)</text><ellipse cx="61.9485" cy="50.4072" fill="#E2E2F0" rx="8" ry="8" style="stroke:#181818;stroke-width:0.5;"/><path d="M61.9485,58.4072 L61.9485,85.4072 M48.9485,66.4072 L74.9485,66.4072 M61.9485,85.4072 L48.9485,100.4072 M61.9485,85.4072 L74.9485,100.4072" fill="none" style="stroke:#181818;stroke-width:0.5;"/></g><g class="participant participant-tail" data-entity-uid="part1" data-qualified-name="User" id="part1-tail"><text fill="#000000" font-family="Georgia" font-size="11" lengthAdjust="spacing" textLength="22.897" x="47.5" y="826.9473">User</text><text fill="#000000" font-family="Georgia" font-size="11" lengthAdjust="spacing" textLength="77.897" x="20" y="839.4458">(A01/A02/A03)</text><ellipse cx="61.9485" cy="850.3574" fill="#E2E2F0" rx="8" ry="8" style="stroke:#181818;stroke-width:0.5;"/><path d="M61.9485,858.3574 L61.9485,885.3574 M48.9485,866.3574 L74.9485,866.3574 M61.9485,885.3574 L48.9485,900.3574 M61.9485,885.3574 L74.9485,900.3574" fill="none" style="stroke:#181818;stroke-width:0.5;"/></g><g class="participant participant-head" data-entity-uid="part2" data-qualified-name="FE" id="part2-head"><rect fill="#E2E2F0" height="38.9971" rx="5" ry="5" style="stroke:#181818;stroke-width:0.5;" width="59.4556" x="254.9565" y="86.9072"/><text fill="#000000" font-family="Georgia" font-size="11" lengthAdjust="spacing" textLength="45.4556" x="261.9565" y="103.9941">Frontend</text><text fill="#000000" font-family="Georgia" font-size="11" lengthAdjust="spacing" textLength="35.6211" x="266.8738" y="116.4927">(React)</text></g><g class="participant participant-tail" data-entity-uid="part2" data-qualified-name="FE" id="part2-tail"><rect fill="#E2E2F0" height="38.9971" rx="5" ry="5" style="stroke:#181818;stroke-width:0.5;" width="59.4556" x="254.9565" y="816.8604"/><text fill="#000000" font-family="Georgia" font-size="11" lengthAdjust="spacing" textLength="45.4556" x="261.9565" y="833.9473">Frontend</text><text fill="#000000" font-family="Georgia" font-size="11" lengthAdjust="spacing" textLength="35.6211" x="266.8738" y="846.4458">(React)</text></g><g class="participant participant-head" data-entity-uid="part3" data-qualified-name="A04" id="part3-head"><rect fill="#E2E2F0" height="38.9971" rx="5" ry="5" style="stroke:#181818;stroke-width:0.5;" width="55.7549" x="557.0154" y="86.9072"/><text fill="#000000" font-family="Georgia" font-size="11" lengthAdjust="spacing" textLength="41.7549" x="564.0154" y="103.9941">Backend</text><text fill="#000000" font-family="Georgia" font-size="11" lengthAdjust="spacing" textLength="28.5957" x="570.595" y="116.4927">(A04)</text></g><g class="participant participant-tail" data-entity-uid="part3" data-qualified-name="A04" id="part3-tail"><rect fill="#E2E2F0" height="38.9971" rx="5" ry="5" style="stroke:#181818;stroke-width:0.5;" width="55.7549" x="557.0154" y="816.8604"/><text fill="#000000" font-family="Georgia" font-size="11" lengthAdjust="spacing" textLength="41.7549" x="564.0154" y="833.9473">Backend</text><text fill="#000000" font-family="Georgia" font-size="11" lengthAdjust="spacing" textLength="28.5957" x="570.595" y="846.4458">(A04)</text></g><g class="participant participant-head" data-entity-uid="part4" data-qualified-name="DB" id="part4-head"><text fill="#000000" font-family="Georgia" font-size="11" lengthAdjust="spacing" textLength="44.897" x="789.7319" y="124.4927">Database</text><path d="M797.1804,78.4058 C797.1804,68.4058 815.1804,68.4058 815.1804,68.4058 C815.1804,68.4058 833.1804,68.4058 833.1804,78.4058 L833.1804,104.4058 C833.1804,114.4058 815.1804,114.4058 815.1804,114.4058 C815.1804,114.4058 797.1804,114.4058 797.1804,104.4058 L797.1804,78.4058" fill="#E2E2F0" style="stroke:#181818;stroke-width:0.5;"/><path d="M797.1804,78.4058 C797.1804,88.4058 815.1804,88.4058 815.1804,88.4058 C815.1804,88.4058 833.1804,88.4058 833.1804,78.4058" fill="none" style="stroke:#181818;stroke-width:0.5;"/></g><g class="participant participant-tail" data-entity-uid="part4" data-qualified-name="DB" id="part4-tail"><text fill="#000000" font-family="Georgia" font-size="11" lengthAdjust="spacing" textLength="44.897" x="789.7319" y="826.9473">Database</text><path d="M797.1804,839.3589 C797.1804,829.3589 815.1804,829.3589 815.1804,829.3589 C815.1804,829.3589 833.1804,829.3589 833.1804,839.3589 L833.1804,865.3589 C833.1804,875.3589 815.1804,875.3589 815.1804,875.3589 C815.1804,875.3589 797.1804,875.3589 797.1804,865.3589 L797.1804,839.3589" fill="#E2E2F0" style="stroke:#181818;stroke-width:0.5;"/><path d="M797.1804,839.3589 C797.1804,849.3589 815.1804,849.3589 815.1804,849.3589 C815.1804,849.3589 833.1804,849.3589 833.1804,839.3589" fill="none" style="stroke:#181818;stroke-width:0.5;"/></g><g class="participant participant-head" data-entity-uid="part5" data-qualified-name="MapProvider" id="part5-head"><rect fill="#E2E2F0" height="38.9971" rx="5" ry="5" style="stroke:#181818;stroke-width:0.5;" width="120.2617" x="850.6289" y="86.9072"/><text fill="#000000" font-family="Georgia" font-size="11" lengthAdjust="spacing" textLength="66.6499" x="877.4348" y="103.9941">Map Provider</text><text fill="#000000" font-family="Georgia" font-size="11" lengthAdjust="spacing" textLength="106.2617" x="857.6289" y="116.4927">(A05 &#8212; Google Maps)</text></g><g class="participant participant-tail" data-entity-uid="part5" data-qualified-name="MapProvider" id="part5-tail"><rect fill="#E2E2F0" height="38.9971" rx="5" ry="5" style="stroke:#181818;stroke-width:0.5;" width="120.2617" x="850.6289" y="816.8604"/><text fill="#000000" font-family="Georgia" font-size="11" lengthAdjust="spacing" textLength="66.6499" x="877.4348" y="833.9473">Map Provider</text><text fill="#000000" font-family="Georgia" font-size="11" lengthAdjust="spacing" textLength="106.2617" x="857.6289" y="846.4458">(A05 &#8212; Google Maps)</text></g><g class="message" data-entity-1="part1" data-entity-2="part2" id="msg1"><polygon fill="#181818" points="272.6843,151.4028,282.6843,155.4028,272.6843,159.4028,276.6843,155.4028" style="stroke:#181818;stroke-width:1;"/><line style="stroke:#181818;stroke-width:2;" x1="61.9485" x2="278.6843" y1="155.4028" y2="155.4028"/><text fill="#000000" font-family="Georgia" font-size="11" lengthAdjust="spacing" textLength="85.0083" x="68.9485" y="150.9912">Open Map screen</text></g><g class="message" data-entity-1="part2" data-entity-2="part5" id="msg2"><polygon fill="#181818" points="898.7598,190.3999,908.7598,194.3999,898.7598,198.3999,902.7598,194.3999" style="stroke:#181818;stroke-width:1;"/><line style="stroke:#181818;stroke-width:2;" x1="284.6843" x2="904.7598" y1="194.3999" y2="194.3999"/><text fill="#000000" font-family="Georgia" font-size="11" lengthAdjust="spacing" textLength="95.917" x="291.6843" y="177.4897">Load base map tiles</text><text fill="#000000" font-family="Georgia" font-size="11" lengthAdjust="spacing" textLength="126.5269" x="291.6843" y="189.9883">(Google Maps JS API init)</text></g><path d="M15,209.3999 L69.7114,209.3999 L69.7114,213.8984 L59.7114,223.8984 L10,223.8984 L10,214.3999 A5,5 0 0 1 15,209.3999" fill="#EEEEEE" style="stroke:#000000;stroke-width:1.5;"/><rect fill="none" height="591.4604" rx="5" ry="5" style="stroke:#000000;stroke-width:1.5;" width="970.8906" x="10" y="209.3999"/><text fill="#000000" font-family="Georgia" font-size="11" font-weight="bold" lengthAdjust="spacing" textLength="14.7114" x="25" y="220.4868">alt</text><text fill="#000000" font-family="Georgia" font-size="11" font-weight="bold" lengthAdjust="spacing" textLength="231.9775" x="84.7114" y="221.4868">[Map provider unavailable [UC-10.EX.1]]</text><g class="message" data-entity-1="part5" data-entity-2="part2" id="msg3"><polygon fill="#181818" points="295.6843,238.397,285.6843,242.397,295.6843,246.397,291.6843,242.397" style="stroke:#181818;stroke-width:1;"/><line style="stroke:#181818;stroke-width:2;stroke-dasharray:2,2;" x1="289.6843" x2="909.7598" y1="242.397" y2="242.397"/><text fill="#000000" font-family="Georgia" font-size="11" lengthAdjust="spacing" textLength="78.187" x="301.6843" y="237.9854">Error / Timeout</text></g><g class="message" data-entity-1="part3" data-entity-2="part3" id="msg4"><line style="stroke:#181818;stroke-width:2;" x1="584.8928" x2="626.8928" y1="268.8955" y2="268.8955"/><line style="stroke:#181818;stroke-width:2;" x1="626.8928" x2="626.8928" y1="268.8955" y2="281.8955"/><line style="stroke:#181818;stroke-width:2;" x1="585.8928" x2="626.8928" y1="281.8955" y2="281.8955"/><polygon fill="#181818" points="595.8928,277.8955,585.8928,281.8955,595.8928,285.8955,591.8928,281.8955" style="stroke:#181818;stroke-width:1;"/><text fill="#000000" font-family="Georgia" font-size="11" lengthAdjust="spacing" textLength="65.7583" x="591.8928" y="264.4839">Detect failure</text></g><g class="message" data-entity-1="part2" data-entity-2="part1" id="msg5"><polygon fill="#181818" points="72.9485,316.8926,62.9485,320.8926,72.9485,324.8926,68.9485,320.8926" style="stroke:#181818;stroke-width:1;"/><line style="stroke:#181818;stroke-width:2;stroke-dasharray:2,2;" x1="66.9485" x2="283.6843" y1="320.8926" y2="320.8926"/><text fill="#000000" font-family="Georgia" font-size="11" lengthAdjust="spacing" textLength="146.3354" x="78.9485" y="303.9824">Show "Map unavailable" error</text><text fill="#000000" font-family="Georgia" font-size="11" lengthAdjust="spacing" textLength="71.645" x="78.9485" y="316.481">+ Retry button</text></g><line style="stroke:#000000;stroke-width:1;stroke-dasharray:2,2;" x1="10" x2="980.8906" y1="329.8926" y2="329.8926"/><text fill="#000000" font-family="Georgia" font-size="11" font-weight="bold" lengthAdjust="spacing" textLength="102.647" x="15" y="339.9795">[Map tiles loaded]</text><g class="message" data-entity-1="part5" data-entity-2="part2" id="msg6"><polygon fill="#181818" points="295.6843,357.8896,285.6843,361.8896,295.6843,365.8896,291.6843,361.8896" style="stroke:#181818;stroke-width:1;"/><line style="stroke:#181818;stroke-width:2;stroke-dasharray:2,2;" x1="289.6843" x2="909.7598" y1="361.8896" y2="361.8896"/><text fill="#000000" font-family="Georgia" font-size="11" lengthAdjust="spacing" textLength="104.1938" x="301.6843" y="357.478">Base map tiles served</text></g><g class="message" data-entity-1="part2" data-entity-2="part1" id="msg7"><polygon fill="#181818" points="72.9485,384.3882,62.9485,388.3882,72.9485,392.3882,68.9485,388.3882" style="stroke:#181818;stroke-width:1;"/><line style="stroke:#181818;stroke-width:2;stroke-dasharray:2,2;" x1="66.9485" x2="283.6843" y1="388.3882" y2="388.3882"/><text fill="#000000" font-family="Georgia" font-size="11" lengthAdjust="spacing" textLength="198.7358" x="78.9485" y="383.9766">Render base map (centred on Singapore)</text></g><g class="message" data-entity-1="part2" data-entity-2="part3" id="msg8"><polygon fill="#181818" points="572.8928,423.3853,582.8928,427.3853,572.8928,431.3853,576.8928,427.3853" style="stroke:#181818;stroke-width:1;"/><line style="stroke:#181818;stroke-width:2;" x1="284.6843" x2="578.8928" y1="427.3853" y2="427.3853"/><text fill="#000000" font-family="Georgia" font-size="11" lengthAdjust="spacing" textLength="86.7217" x="291.6843" y="410.4751">GET /api/profiles</text><text fill="#000000" font-family="Georgia" font-size="11" lengthAdjust="spacing" textLength="146.8511" x="291.6843" y="422.9736">(fetch user's business profiles)</text></g><g class="message" data-entity-1="part3" data-entity-2="part4" id="msg9"><polygon fill="#181818" points="803.1804,462.3823,813.1804,466.3823,803.1804,470.3823,807.1804,466.3823" style="stroke:#181818;stroke-width:1;"/><line style="stroke:#181818;stroke-width:2;" x1="584.8928" x2="809.1804" y1="466.3823" y2="466.3823"/><text fill="#000000" font-family="Georgia" font-size="11" lengthAdjust="spacing" textLength="172.498" x="591.8928" y="449.4722">SELECT * FROM business_profiles</text><text fill="#000000" font-family="Georgia" font-size="11" lengthAdjust="spacing" textLength="99.6016" x="591.8928" y="461.9707">WHERE user_id = ?</text></g><g class="message" data-entity-1="part4" data-entity-2="part3" id="msg10"><polygon fill="#181818" points="595.8928,488.8809,585.8928,492.8809,595.8928,496.8809,591.8928,492.8809" style="stroke:#181818;stroke-width:1;"/><line style="stroke:#181818;stroke-width:2;stroke-dasharray:2,2;" x1="589.8928" x2="814.1804" y1="492.8809" y2="492.8809"/><text fill="#000000" font-family="Georgia" font-size="11" lengthAdjust="spacing" textLength="49.9834" x="601.8928" y="488.4692">Profile list</text></g><g class="message" data-entity-1="part3" data-entity-2="part2" id="msg11"><polygon fill="#181818" points="295.6843,515.3794,285.6843,519.3794,295.6843,523.3794,291.6843,519.3794" style="stroke:#181818;stroke-width:1;"/><line style="stroke:#181818;stroke-width:2;stroke-dasharray:2,2;" x1="289.6843" x2="583.8928" y1="519.3794" y2="519.3794"/><text fill="#000000" font-family="Georgia" font-size="11" lengthAdjust="spacing" textLength="110.2148" x="301.6843" y="514.9678">200 OK {profiles: [...]}</text></g><g class="message" data-entity-1="part2" data-entity-2="part1" id="msg12"><polygon fill="#181818" points="72.9485,554.3765,62.9485,558.3765,72.9485,562.3765,68.9485,558.3765" style="stroke:#181818;stroke-width:1;"/><line style="stroke:#181818;stroke-width:2;stroke-dasharray:2,2;" x1="66.9485" x2="283.6843" y1="558.3765" y2="558.3765"/><text fill="#000000" font-family="Georgia" font-size="11" lengthAdjust="spacing" textLength="118.1104" x="78.9485" y="541.4663">Populate profile selector</text><text fill="#000000" font-family="Georgia" font-size="11" lengthAdjust="spacing" textLength="91.604" x="78.9485" y="553.9648">with user's profiles</text></g><g class="message" data-entity-1="part2" data-entity-2="part3" id="msg13"><polygon fill="#181818" points="572.8928,580.875,582.8928,584.875,572.8928,588.875,576.8928,584.875" style="stroke:#181818;stroke-width:1;"/><line style="stroke:#181818;stroke-width:2;" x1="284.6843" x2="578.8928" y1="584.875" y2="584.875"/><text fill="#000000" font-family="Georgia" font-size="11" lengthAdjust="spacing" textLength="276.2085" x="291.6843" y="580.4634">GET /api/map/overlay?profileId=&lt;id&gt;&amp;type=composite</text></g><g class="message" data-entity-1="part3" data-entity-2="part4" id="msg14"><polygon fill="#181818" points="803.1804,632.3706,813.1804,636.3706,803.1804,640.3706,807.1804,636.3706" style="stroke:#181818;stroke-width:1;"/><line style="stroke:#181818;stroke-width:2;" x1="584.8928" x2="809.1804" y1="636.3706" y2="636.3706"/><text fill="#000000" font-family="Georgia" font-size="11" lengthAdjust="spacing" textLength="204.6655" x="591.8928" y="606.9619">SELECT area_scores FROM area_profiles</text><text fill="#000000" font-family="Georgia" font-size="11" lengthAdjust="spacing" textLength="110.6821" x="591.8928" y="619.4604">WHERE profile_id = ?</text><text fill="#000000" font-family="Georgia" font-size="11" lengthAdjust="spacing" textLength="206.2876" x="591.8928" y="631.959">(cached composite score by planning area)</text></g><g class="message" data-entity-1="part4" data-entity-2="part3" id="msg15"><polygon fill="#181818" points="595.8928,658.8691,585.8928,662.8691,595.8928,666.8691,591.8928,662.8691" style="stroke:#181818;stroke-width:1;"/><line style="stroke:#181818;stroke-width:2;stroke-dasharray:2,2;" x1="589.8928" x2="814.1804" y1="662.8691" y2="662.8691"/><text fill="#000000" font-family="Georgia" font-size="11" lengthAdjust="spacing" textLength="176.0054" x="601.8928" y="658.4575">Area score data (GeoJSON + scores)</text></g><g class="message" data-entity-1="part3" data-entity-2="part3" id="msg16"><line style="stroke:#181818;stroke-width:2;" x1="584.8928" x2="626.8928" y1="701.8662" y2="701.8662"/><line style="stroke:#181818;stroke-width:2;" x1="626.8928" x2="626.8928" y1="701.8662" y2="714.8662"/><line style="stroke:#181818;stroke-width:2;" x1="585.8928" x2="626.8928" y1="714.8662" y2="714.8662"/><polygon fill="#181818" points="595.8928,710.8662,585.8928,714.8662,595.8928,718.8662,591.8928,714.8662" style="stroke:#181818;stroke-width:1;"/><text fill="#000000" font-family="Georgia" font-size="11" lengthAdjust="spacing" textLength="166.4663" x="591.8928" y="684.9561">Compute choropleth colour values</text><text fill="#000000" font-family="Georgia" font-size="11" lengthAdjust="spacing" textLength="149.8965" x="591.8928" y="697.4546">for each planning area polygon</text></g><g class="message" data-entity-1="part3" data-entity-2="part2" id="msg17"><polygon fill="#181818" points="295.6843,737.3647,285.6843,741.3647,295.6843,745.3647,291.6843,741.3647" style="stroke:#181818;stroke-width:1;"/><line style="stroke:#181818;stroke-width:2;stroke-dasharray:2,2;" x1="289.6843" x2="583.8928" y1="741.3647" y2="741.3647"/><text fill="#000000" font-family="Georgia" font-size="11" lengthAdjust="spacing" textLength="195.0728" x="301.6843" y="736.9531">200 OK {overlayGeoJSON, scoreRange}</text></g><g class="message" data-entity-1="part2" data-entity-2="part1" id="msg18"><polygon fill="#181818" points="72.9485,788.8604,62.9485,792.8604,72.9485,796.8604,68.9485,792.8604" style="stroke:#181818;stroke-width:1;"/><line style="stroke:#181818;stroke-width:2;stroke-dasharray:2,2;" x1="66.9485" x2="283.6843" y1="792.8604" y2="792.8604"/><text fill="#000000" font-family="Georgia" font-size="11" lengthAdjust="spacing" textLength="116.4023" x="78.9485" y="763.4517">Render composite score</text><text fill="#000000" font-family="Georgia" font-size="11" lengthAdjust="spacing" textLength="129.9375" x="78.9485" y="775.9502">choropleth overlay on map</text><text fill="#000000" font-family="Georgia" font-size="11" lengthAdjust="spacing" textLength="143.5371" x="78.9485" y="788.4487">+ Layer controls + Search bar</text></g><?plantuml-src VLHXRzem4FsUNt7YmrRM0Q7Rlg2r5PJGjMiB0hfDAbDbaWEi6Zkp7H2RAkr7x1Vkb-pY92nqPKW8Oxzxz-xTsPPRWN1xLclwBVZ4SGqNqg9ceUKhX6iMUvvvu39ccYt1uBS4POXjhTLwlE3XWqHZuAW4qIgHKQYqH0rDltGGuOmbmlQKj3TiYN2EIiyvUnunujyHcatF8nrAG-NMe9x8WxRVRBJz8_g-gLQ06KZtFOgsFEGnanOgFKtXA2D23v6YCrmls4LrMFYGWTh-smn22ozYbasPGQXqyvKxwdPseyaL66Yrub6kwXty_laBpfMQ2-UPoIXfLS0yBvKAjHEI0YtenoZJOp2XHfIUHxjqLWeWq9LY4JWvIq9QBj1Gjb8Mk1n1Ut01N79R9Q-4TPnnGP58jc9Si2dXxroBwy6NUlEh1_GfvweLkW9gh8O6ZFaILM8Ta8n9jQK_BUYYnT32Z6WJZUuybKxdhhuMZ1PgdJbKobu1J8adyX26QFK6fecrIdeeZAiaAmu45OpHVdMT7Ize6lKgX-zg659hQR6rxY14QJL6e2ICk9opM6aamuh8ehZpO0mD5lC6EJZBxPwX3HUG4F5BGx8DTnDV0AfbXxgTjFxWAZWRmole3VlNsu3xluoVFmJ3m17UymYEuTHHK6njgsEGWK5mKsf1uSAHxqF_8_meA5jmLw_Nlpu-OyH0nObW5WkzP9d0z4PDv9hRRLa5qtyS8HiRQeLQiCrf3h-8Zj_pwEI5tSHu7Afbh0otkCyGff7T6teOg77E6hVnr9RyV-uCsH-oS46DszA3eu3f1cB1fAHcEgBgloQsQJj7fzSQ3kZ1kHprR-0mspNv0EoCzndbIIXBk51QnGB9er09bMXOCP6aEcTqF-XTMUpcXrY9pPmcUd-xSlTo5Qyp4KCcv_YuVuIVr3sH9M4vOJhKr9tqRbsnZOkXOLV2KA4ZP9gaJfdsYC_x0m00?></g></svg>