<?plantuml 1.2026.2?><svg xmlns="http://www.w3.org/2000/svg" xmlns:xlink="http://www.w3.org/1999/xlink" contentStyleType="text/css" data-diagram-type="SEQUENCE" height="1044px" preserveAspectRatio="none" style="width:944px;height:1044px;background:#FFFFFF;" version="1.1" viewBox="0 0 944 1044" width="944px" zoomAndPan="magnify"><title>UC-12: Search Location (Address / Postal Code)</title><defs/><g><text fill="#000000" font-family="Georgia" font-size="14" font-weight="bold" lengthAdjust="spacing" textLength="340.8535" x="302.666" y="27.8379">UC-12: Search Location (Address / Postal Code)</text><rect fill="none" height="545.9648" rx="5" ry="5" style="stroke:#000000;stroke-width:1.5;" width="927.1855" x="10" y="274.8955"/><rect fill="none" height="437.4722" rx="5" ry="5" style="stroke:#000000;stroke-width:1.5;" width="907.1855" x="20" y="376.3882"/><g class="participant-lifeline" data-entity-uid="part1" data-qualified-name="User" id="part1-lifeline"><g><title>User</title><rect fill="#000000" fill-opacity="0.00000" height="828.4487" width="8" x="67.9485" y="126.9043"/><line style="stroke:#181818;stroke-width:0.5;stroke-dasharray:5,5;" x1="71" x2="71" y1="126.9043" y2="955.353"/></g></g><g class="participant-lifeline" data-entity-uid="part2" data-qualified-name="FE" id="part2-lifeline"><g><title>Frontend</title><rect fill="#000000" fill-opacity="0.00000" height="828.4487" width="8" x="256.9861" y="126.9043"/><line style="stroke:#181818;stroke-width:0.5;stroke-dasharray:5,5;" x1="260.2583" x2="260.2583" y1="126.9043" y2="955.353"/></g></g><g class="participant-lifeline" data-entity-uid="part3" data-qualified-name="A04" id="part3-lifeline"><g><title>Backend</title><rect fill="#000000" fill-opacity="0.00000" height="828.4487" width="8" x="525.6663" y="126.9043"/><line style="stroke:#181818;stroke-width:0.5;stroke-dasharray:5,5;" x1="528.7888" x2="528.7888" y1="126.9043" y2="955.353"/></g></g><g class="participant-lifeline" data-entity-uid="part4" data-qualified-name="GeoAPI" id="part4-lifeline"><g><title>Geocoding API</title><rect fill="#000000" fill-opacity="0.00000" height="828.4487" width="8" x="747.8167" y="126.9043"/><line style="stroke:#181818;stroke-width:0.5;stroke-dasharray:5,5;" x1="751.8101" x2="751.8101" y1="126.9043" y2="955.353"/></g></g><g class="participant-lifeline" data-entity-uid="part5" data-qualified-name="Cache" id="part5-lifeline"><g><title>Cache</title><rect fill="#000000" fill-opacity="0.00000" height="828.4487" width="8" x="870.0044" y="126.9043"/><line style="stroke:#181818;stroke-width:0.5;stroke-dasharray:5,5;" x1="873.8232" x2="873.8232" y1="126.9043" y2="955.353"/></g></g><g class="participant participant-head" data-entity-uid="part1" data-qualified-name="User" id="part1-head"><text fill="#000000" font-family="Georgia" font-size="11" lengthAdjust="spacing" textLength="22.897" x="57.5" y="111.9941">User</text><text fill="#000000" font-family="Georgia" font-size="11" lengthAdjust="spacing" textLength="77.897" x="30" y="124.4927">(A01/A02/A03)</text><ellipse cx="71.9485" cy="50.4072" fill="#E2E2F0" rx="8" ry="8" style="stroke:#181818;stroke-width:0.5;"/><path d="M71.9485,58.4072 L71.9485,85.4072 M58.9485,66.4072 L84.9485,66.4072 M71.9485,85.4072 L58.9485,100.4072 M71.9485,85.4072 L84.9485,100.4072" fill="none" style="stroke:#181818;stroke-width:0.5;"/></g><g class="participant participant-tail" data-entity-uid="part1" data-qualified-name="User" id="part1-tail"><text fill="#000000" font-family="Georgia" font-size="11" lengthAdjust="spacing" textLength="22.897" x="57.5" y="964.4399">User</text><text fill="#000000" font-family="Georgia" font-size="11" lengthAdjust="spacing" textLength="77.897" x="30" y="976.9385">(A01/A02/A03)</text><ellipse cx="71.9485" cy="987.8501" fill="#E2E2F0" rx="8" ry="8" style="stroke:#181818;stroke-width:0.5;"/><path d="M71.9485,995.8501 L71.9485,1022.8501 M58.9485,1003.8501 L84.9485,1003.8501 M71.9485,1022.8501 L58.9485,1037.8501 M71.9485,1022.8501 L84.9485,1037.8501" fill="none" style="stroke:#181818;stroke-width:0.5;"/></g><g class="participant participant-head" data-entity-uid="part2" data-qualified-name="FE" id="part2-head"><rect fill="#E2E2F0" height="38.9971" rx="5" ry="5" style="stroke:#181818;stroke-width:0.5;" width="59.4556" x="231.2583" y="86.9072"/><text fill="#000000" font-family="Georgia" font-size="11" lengthAdjust="spacing" textLength="45.4556" x="238.2583" y="103.9941">Frontend</text><text fill="#000000" font-family="Georgia" font-size="11" lengthAdjust="spacing" textLength="35.6211" x="243.1755" y="116.4927">(React)</text></g><g class="participant participant-tail" data-entity-uid="part2" data-qualified-name="FE" id="part2-tail"><rect fill="#E2E2F0" height="38.9971" rx="5" ry="5" style="stroke:#181818;stroke-width:0.5;" width="59.4556" x="231.2583" y="954.353"/><text fill="#000000" font-family="Georgia" font-size="11" lengthAdjust="spacing" textLength="45.4556" x="238.2583" y="971.4399">Frontend</text><text fill="#000000" font-family="Georgia" font-size="11" lengthAdjust="spacing" textLength="35.6211" x="243.1755" y="983.9385">(React)</text></g><g class="participant participant-head" data-entity-uid="part3" data-qualified-name="A04" id="part3-head"><rect fill="#E2E2F0" height="38.9971" rx="5" ry="5" style="stroke:#181818;stroke-width:0.5;" width="55.7549" x="501.7888" y="86.9072"/><text fill="#000000" font-family="Georgia" font-size="11" lengthAdjust="spacing" textLength="41.7549" x="508.7888" y="103.9941">Backend</text><text fill="#000000" font-family="Georgia" font-size="11" lengthAdjust="spacing" textLength="28.5957" x="515.3684" y="116.4927">(A04)</text></g><g class="participant participant-tail" data-entity-uid="part3" data-qualified-name="A04" id="part3-tail"><rect fill="#E2E2F0" height="38.9971" rx="5" ry="5" style="stroke:#181818;stroke-width:0.5;" width="55.7549" x="501.7888" y="954.353"/><text fill="#000000" font-family="Georgia" font-size="11" lengthAdjust="spacing" textLength="41.7549" x="508.7888" y="971.4399">Backend</text><text fill="#000000" font-family="Georgia" font-size="11" lengthAdjust="spacing" textLength="28.5957" x="515.3684" y="983.9385">(A04)</text></g><g class="participant participant-head" data-entity-uid="part4" data-qualified-name="GeoAPI" id="part4-head"><rect fill="#E2E2F0" height="38.9971" rx="5" ry="5" style="stroke:#181818;stroke-width:0.5;" width="138.0132" x="682.8101" y="86.9072"/><text fill="#000000" font-family="Georgia" font-size="11" lengthAdjust="spacing" textLength="72.8159" x="715.4087" y="103.9941">Geocoding API</text><text fill="#000000" font-family="Georgia" font-size="11" lengthAdjust="spacing" textLength="124.0132" x="689.8101" y="116.4927">(A05 &#8212; OneMap/Google)</text></g><g class="participant participant-tail" data-entity-uid="part4" data-qualified-name="GeoAPI" id="part4-tail"><rect fill="#E2E2F0" height="38.9971" rx="5" ry="5" style="stroke:#181818;stroke-width:0.5;" width="138.0132" x="682.8101" y="954.353"/><text fill="#000000" font-family="Georgia" font-size="11" lengthAdjust="spacing" textLength="72.8159" x="715.4087" y="971.4399">Geocoding API</text><text fill="#000000" font-family="Georgia" font-size="11" lengthAdjust="spacing" textLength="124.0132" x="689.8101" y="983.9385">(A05 &#8212; OneMap/Google)</text></g><g class="participant participant-head" data-entity-uid="part5" data-qualified-name="Cache" id="part5-head"><text fill="#000000" font-family="Georgia" font-size="11" lengthAdjust="spacing" textLength="29.3208" x="856.344" y="111.9941">Cache</text><text fill="#000000" font-family="Georgia" font-size="11" lengthAdjust="spacing" textLength="80.3623" x="830.8232" y="124.4927">(Recent Results)</text><path d="M856.0044,65.9072 C856.0044,55.9072 874.0044,55.9072 874.0044,55.9072 C874.0044,55.9072 892.0044,55.9072 892.0044,65.9072 L892.0044,91.9072 C892.0044,101.9072 874.0044,101.9072 874.0044,101.9072 C874.0044,101.9072 856.0044,101.9072 856.0044,91.9072 L856.0044,65.9072" fill="#E2E2F0" style="stroke:#181818;stroke-width:0.5;"/><path d="M856.0044,65.9072 C856.0044,75.9072 874.0044,75.9072 874.0044,75.9072 C874.0044,75.9072 892.0044,75.9072 892.0044,65.9072" fill="none" style="stroke:#181818;stroke-width:0.5;"/></g><g class="participant participant-tail" data-entity-uid="part5" data-qualified-name="Cache" id="part5-tail"><text fill="#000000" font-family="Georgia" font-size="11" lengthAdjust="spacing" textLength="29.3208" x="856.344" y="964.4399">Cache</text><text fill="#000000" font-family="Georgia" font-size="11" lengthAdjust="spacing" textLength="80.3623" x="830.8232" y="976.9385">(Recent Results)</text><path d="M856.0044,989.3501 C856.0044,979.3501 874.0044,979.3501 874.0044,979.3501 C874.0044,979.3501 892.0044,979.3501 892.0044,989.3501 L892.0044,1015.3501 C892.0044,1025.3501 874.0044,1025.3501 874.0044,1025.3501 C874.0044,1025.3501 856.0044,1025.3501 856.0044,1015.3501 L856.0044,989.3501" fill="#E2E2F0" style="stroke:#181818;stroke-width:0.5;"/><path d="M856.0044,989.3501 C856.0044,999.3501 874.0044,999.3501 874.0044,999.3501 C874.0044,999.3501 892.0044,999.3501 892.0044,989.3501" fill="none" style="stroke:#181818;stroke-width:0.5;"/></g><g class="message" data-entity-1="part1" data-entity-2="part2" id="msg1"><polygon fill="#181818" points="248.9861,163.9014,258.9861,167.9014,248.9861,171.9014,252.9861,167.9014" style="stroke:#181818;stroke-width:1;"/><line style="stroke:#181818;stroke-width:2;" x1="71.9485" x2="254.9861" y1="167.9014" y2="167.9014"/><text fill="#000000" font-family="Georgia" font-size="11" lengthAdjust="spacing" textLength="134.3901" x="78.9485" y="150.9912">Type address or postal code</text><text fill="#000000" font-family="Georgia" font-size="11" lengthAdjust="spacing" textLength="62.7559" x="78.9485" y="163.4897">in search bar</text></g><g class="message" data-entity-1="part2" data-entity-2="part3" id="msg2"><polygon fill="#181818" points="517.6663,190.3999,527.6663,194.3999,517.6663,198.3999,521.6663,194.3999" style="stroke:#181818;stroke-width:1;"/><line style="stroke:#181818;stroke-width:2;" x1="260.9861" x2="523.6663" y1="194.3999" y2="194.3999"/><text fill="#000000" font-family="Georgia" font-size="11" lengthAdjust="spacing" textLength="186.4253" x="267.9861" y="189.9883">GET /api/search/geocode?q=&lt;query&gt;</text></g><g class="message" data-entity-1="part3" data-entity-2="part5" id="msg3"><polygon fill="#181818" points="862.0044,229.397,872.0044,233.397,862.0044,237.397,866.0044,233.397" style="stroke:#181818;stroke-width:1;"/><line style="stroke:#181818;stroke-width:2;" x1="529.6663" x2="868.0044" y1="233.397" y2="233.397"/><text fill="#000000" font-family="Georgia" font-size="11" lengthAdjust="spacing" textLength="144.5845" x="536.6663" y="216.4868">Check cache for recent results</text><text fill="#000000" font-family="Georgia" font-size="11" lengthAdjust="spacing" textLength="76.1245" x="536.6663" y="228.9854">matching query</text></g><g class="message" data-entity-1="part5" data-entity-2="part3" id="msg4"><polygon fill="#181818" points="540.6663,255.8955,530.6663,259.8955,540.6663,263.8955,536.6663,259.8955" style="stroke:#181818;stroke-width:1;"/><line style="stroke:#181818;stroke-width:2;stroke-dasharray:2,2;" x1="534.6663" x2="873.0044" y1="259.8955" y2="259.8955"/><text fill="#000000" font-family="Georgia" font-size="11" lengthAdjust="spacing" textLength="122.3105" x="546.6663" y="255.4839">Cache result (hit or miss)</text></g><path d="M15,274.8955 L69.7114,274.8955 L69.7114,279.394 L59.7114,289.394 L10,289.394 L10,279.8955 A5,5 0 0 1 15,274.8955" fill="#EEEEEE" style="stroke:#000000;stroke-width:1.5;"/><rect fill="none" height="545.9648" rx="5" ry="5" style="stroke:#000000;stroke-width:1.5;" width="927.1855" x="10" y="274.8955"/><text fill="#000000" font-family="Georgia" font-size="11" font-weight="bold" lengthAdjust="spacing" textLength="14.7114" x="25" y="285.9824">alt</text><text fill="#000000" font-family="Georgia" font-size="11" font-weight="bold" lengthAdjust="spacing" textLength="62.3906" x="84.7114" y="286.9824">[Cache hit]</text><g class="message" data-entity-1="part3" data-entity-2="part2" id="msg5"><polygon fill="#181818" points="271.9861,303.8926,261.9861,307.8926,271.9861,311.8926,267.9861,307.8926" style="stroke:#181818;stroke-width:1;"/><line style="stroke:#181818;stroke-width:2;stroke-dasharray:2,2;" x1="265.9861" x2="528.6663" y1="307.8926" y2="307.8926"/><text fill="#000000" font-family="Georgia" font-size="11" lengthAdjust="spacing" textLength="170.5913" x="277.9861" y="303.481">200 OK {results: [...]} (from cache)</text></g><line style="stroke:#000000;stroke-width:1;stroke-dasharray:2,2;" x1="10" x2="937.1855" y1="316.8926" y2="316.8926"/><text fill="#000000" font-family="Georgia" font-size="11" font-weight="bold" lengthAdjust="spacing" textLength="72.9932" x="15" y="326.9795">[Cache miss]</text><g class="message" data-entity-1="part3" data-entity-2="part4" id="msg6"><polygon fill="#181818" points="739.8167,357.3882,749.8167,361.3882,739.8167,365.3882,743.8167,361.3882" style="stroke:#181818;stroke-width:1;"/><line style="stroke:#181818;stroke-width:2;" x1="529.6663" x2="745.8167" y1="361.3882" y2="361.3882"/><text fill="#000000" font-family="Georgia" font-size="11" lengthAdjust="spacing" textLength="157.3516" x="536.6663" y="344.478">Forward query to geocoding API</text><text fill="#000000" font-family="Georgia" font-size="11" lengthAdjust="spacing" textLength="198.1504" x="536.6663" y="356.9766">(OneMap API primary / Google fallback)</text></g><path d="M25,376.3882 L79.7114,376.3882 L79.7114,380.8867 L69.7114,390.8867 L20,390.8867 L20,381.3882 A5,5 0 0 1 25,376.3882" fill="#EEEEEE" style="stroke:#000000;stroke-width:1.5;"/><rect fill="none" height="437.4722" rx="5" ry="5" style="stroke:#000000;stroke-width:1.5;" width="907.1855" x="20" y="376.3882"/><text fill="#000000" font-family="Georgia" font-size="11" font-weight="bold" lengthAdjust="spacing" textLength="14.7114" x="35" y="387.4751">alt</text><text fill="#000000" font-family="Georgia" font-size="11" font-weight="bold" lengthAdjust="spacing" textLength="237.8052" x="94.7114" y="388.4751">[Geocoding API unavailable [UC-12.EX.1]]</text><g class="message" data-entity-1="part4" data-entity-2="part3" id="msg7"><polygon fill="#181818" points="540.6663,405.3853,530.6663,409.3853,540.6663,413.3853,536.6663,409.3853" style="stroke:#181818;stroke-width:1;"/><line style="stroke:#181818;stroke-width:2;stroke-dasharray:2,2;" x1="534.6663" x2="750.8167" y1="409.3853" y2="409.3853"/><text fill="#000000" font-family="Georgia" font-size="11" lengthAdjust="spacing" textLength="78.187" x="546.6663" y="404.9736">Error / Timeout</text></g><g class="message" data-entity-1="part3" data-entity-2="part3" id="msg8"><line style="stroke:#181818;stroke-width:2;" x1="529.6663" x2="571.6663" y1="435.8838" y2="435.8838"/><line style="stroke:#181818;stroke-width:2;" x1="571.6663" x2="571.6663" y1="435.8838" y2="448.8838"/><line style="stroke:#181818;stroke-width:2;" x1="530.6663" x2="571.6663" y1="448.8838" y2="448.8838"/><polygon fill="#181818" points="540.6663,444.8838,530.6663,448.8838,540.6663,452.8838,536.6663,448.8838" style="stroke:#181818;stroke-width:1;"/><text fill="#000000" font-family="Georgia" font-size="11" lengthAdjust="spacing" textLength="45.5898" x="536.6663" y="431.4722">Log error</text></g><g class="message" data-entity-1="part3" data-entity-2="part2" id="msg9"><polygon fill="#181818" points="271.9861,483.8809,261.9861,487.8809,271.9861,491.8809,267.9861,487.8809" style="stroke:#181818;stroke-width:1;"/><line style="stroke:#181818;stroke-width:2;stroke-dasharray:2,2;" x1="265.9861" x2="528.6663" y1="487.8809" y2="487.8809"/><text fill="#000000" font-family="Georgia" font-size="11" lengthAdjust="spacing" textLength="18.6323" x="277.9861" y="470.9707">503</text><text fill="#000000" font-family="Georgia" font-size="11" lengthAdjust="spacing" textLength="244.6802" x="277.9861" y="483.4692">{error: "Location search temporarily unavailable"}</text></g><g class="message" data-entity-1="part2" data-entity-2="part1" id="msg10"><polygon fill="#181818" points="82.9485,510.3794,72.9485,514.3794,82.9485,518.3794,78.9485,514.3794" style="stroke:#181818;stroke-width:1;"/><line style="stroke:#181818;stroke-width:2;stroke-dasharray:2,2;" x1="76.9485" x2="259.9861" y1="514.3794" y2="514.3794"/><text fill="#000000" font-family="Georgia" font-size="11" lengthAdjust="spacing" textLength="165.0376" x="88.9485" y="509.9678">Show service unavailable message</text></g><line style="stroke:#000000;stroke-width:1;stroke-dasharray:2,2;" x1="20" x2="927.1855" y1="523.3794" y2="523.3794"/><text fill="#000000" font-family="Georgia" font-size="11" font-weight="bold" lengthAdjust="spacing" textLength="179.0991" x="25" y="533.4663">[No results found [UC-12.AC.1]]</text><g class="message" data-entity-1="part4" data-entity-2="part3" id="msg11"><polygon fill="#181818" points="540.6663,551.3765,530.6663,555.3765,540.6663,559.3765,536.6663,555.3765" style="stroke:#181818;stroke-width:1;"/><line style="stroke:#181818;stroke-width:2;stroke-dasharray:2,2;" x1="534.6663" x2="750.8167" y1="555.3765" y2="555.3765"/><text fill="#000000" font-family="Georgia" font-size="11" lengthAdjust="spacing" textLength="67.6274" x="546.6663" y="550.9648">Empty results</text></g><g class="message" data-entity-1="part3" data-entity-2="part2" id="msg12"><polygon fill="#181818" points="271.9861,577.875,261.9861,581.875,271.9861,585.875,267.9861,581.875" style="stroke:#181818;stroke-width:1;"/><line style="stroke:#181818;stroke-width:2;stroke-dasharray:2,2;" x1="265.9861" x2="528.6663" y1="581.875" y2="581.875"/><text fill="#000000" font-family="Georgia" font-size="11" lengthAdjust="spacing" textLength="97.1846" x="277.9861" y="577.4634">200 OK {results: []}</text></g><g class="message" data-entity-1="part2" data-entity-2="part1" id="msg13"><polygon fill="#181818" points="82.9485,616.8721,72.9485,620.8721,82.9485,624.8721,78.9485,620.8721" style="stroke:#181818;stroke-width:1;"/><line style="stroke:#181818;stroke-width:2;stroke-dasharray:2,2;" x1="76.9485" x2="259.9861" y1="620.8721" y2="620.8721"/><text fill="#000000" font-family="Georgia" font-size="11" lengthAdjust="spacing" textLength="127.1445" x="88.9485" y="603.9619">Show "No matches found"</text><text fill="#000000" font-family="Georgia" font-size="11" lengthAdjust="spacing" textLength="157.1797" x="88.9485" y="616.4604">+ Suggestions to broaden search</text></g><line style="stroke:#000000;stroke-width:1;stroke-dasharray:2,2;" x1="20" x2="927.1855" y1="629.8721" y2="629.8721"/><text fill="#000000" font-family="Georgia" font-size="11" font-weight="bold" lengthAdjust="spacing" textLength="105.2842" x="25" y="639.959">[Results returned]</text><g class="message" data-entity-1="part4" data-entity-2="part3" id="msg14"><polygon fill="#181818" points="540.6663,670.3677,530.6663,674.3677,540.6663,678.3677,536.6663,674.3677" style="stroke:#181818;stroke-width:1;"/><line style="stroke:#181818;stroke-width:2;stroke-dasharray:2,2;" x1="534.6663" x2="750.8167" y1="674.3677" y2="674.3677"/><text fill="#000000" font-family="Georgia" font-size="11" lengthAdjust="spacing" textLength="87.0439" x="546.6663" y="657.4575">Geocoding results</text><text fill="#000000" font-family="Georgia" font-size="11" lengthAdjust="spacing" textLength="169.3828" x="546.6663" y="669.9561">(coordinates, formatted addresses)</text></g><g class="message" data-entity-1="part3" data-entity-2="part3" id="msg15"><line style="stroke:#181818;stroke-width:2;" x1="529.6663" x2="571.6663" y1="700.8662" y2="700.8662"/><line style="stroke:#181818;stroke-width:2;" x1="571.6663" x2="571.6663" y1="700.8662" y2="713.8662"/><line style="stroke:#181818;stroke-width:2;" x1="530.6663" x2="571.6663" y1="713.8662" y2="713.8662"/><polygon fill="#181818" points="540.6663,709.8662,530.6663,713.8662,540.6663,717.8662,536.6663,713.8662" style="stroke:#181818;stroke-width:1;"/><text fill="#000000" font-family="Georgia" font-size="11" lengthAdjust="spacing" textLength="123.895" x="536.6663" y="696.4546">Rank results by relevance</text></g><g class="message" data-entity-1="part3" data-entity-2="part5" id="msg16"><polygon fill="#181818" points="862.0044,736.3647,872.0044,740.3647,862.0044,744.3647,866.0044,740.3647" style="stroke:#181818;stroke-width:1;"/><line style="stroke:#181818;stroke-width:2;" x1="529.6663" x2="868.0044" y1="740.3647" y2="740.3647"/><text fill="#000000" font-family="Georgia" font-size="11" lengthAdjust="spacing" textLength="132.4458" x="536.6663" y="735.9531">Cache results for this query</text></g><g class="message" data-entity-1="part3" data-entity-2="part2" id="msg17"><polygon fill="#181818" points="271.9861,775.3618,261.9861,779.3618,271.9861,783.3618,267.9861,779.3618" style="stroke:#181818;stroke-width:1;"/><line style="stroke:#181818;stroke-width:2;stroke-dasharray:2,2;" x1="265.9861" x2="528.6663" y1="779.3618" y2="779.3618"/><text fill="#000000" font-family="Georgia" font-size="11" lengthAdjust="spacing" textLength="38.124" x="277.9861" y="762.4517">200 OK</text><text fill="#000000" font-family="Georgia" font-size="11" lengthAdjust="spacing" textLength="156.8628" x="277.9861" y="774.9502">{results: [{address, lat, lng}, ...]}</text></g><g class="message" data-entity-1="part2" data-entity-2="part1" id="msg18"><polygon fill="#181818" points="82.9485,801.8604,72.9485,805.8604,82.9485,809.8604,78.9485,805.8604" style="stroke:#181818;stroke-width:1;"/><line style="stroke:#181818;stroke-width:2;stroke-dasharray:2,2;" x1="76.9485" x2="259.9861" y1="805.8604" y2="805.8604"/><text fill="#000000" font-family="Georgia" font-size="11" lengthAdjust="spacing" textLength="150.1758" x="88.9485" y="801.4487">Display result list as dropdown</text></g><g class="message" data-entity-1="part1" data-entity-2="part2" id="msg19"><polygon fill="#181818" points="248.9861,842.3589,258.9861,846.3589,248.9861,850.3589,252.9861,846.3589" style="stroke:#181818;stroke-width:1;"/><line style="stroke:#181818;stroke-width:2;" x1="71.9485" x2="254.9861" y1="846.3589" y2="846.3589"/><text fill="#000000" font-family="Georgia" font-size="11" lengthAdjust="spacing" textLength="111.375" x="78.9485" y="841.9473">Select a result from list</text></g><g class="message" data-entity-1="part2" data-entity-2="part2" id="msg20"><line style="stroke:#181818;stroke-width:2;" x1="260.9861" x2="302.9861" y1="885.356" y2="885.356"/><line style="stroke:#181818;stroke-width:2;" x1="302.9861" x2="302.9861" y1="885.356" y2="898.356"/><line style="stroke:#181818;stroke-width:2;" x1="261.9861" x2="302.9861" y1="898.356" y2="898.356"/><polygon fill="#181818" points="271.9861,894.356,261.9861,898.356,271.9861,902.356,267.9861,898.356" style="stroke:#181818;stroke-width:1;"/><text fill="#000000" font-family="Georgia" font-size="11" lengthAdjust="spacing" textLength="172.8311" x="267.9861" y="868.4458">Centre map on selected coordinates</text><text fill="#000000" font-family="Georgia" font-size="11" lengthAdjust="spacing" textLength="170.4194" x="267.9861" y="880.9443">Drop temporary marker at location</text></g><g class="message" data-entity-1="part2" data-entity-2="part1" id="msg21"><polygon fill="#181818" points="82.9485,933.353,72.9485,937.353,82.9485,941.353,78.9485,937.353" style="stroke:#181818;stroke-width:1;"/><line style="stroke:#181818;stroke-width:2;stroke-dasharray:2,2;" x1="76.9485" x2="259.9861" y1="937.353" y2="937.353"/><text fill="#000000" font-family="Georgia" font-size="11" lengthAdjust="spacing" textLength="159.8438" x="88.9485" y="920.4429">Map centred on selected location</text><text fill="#000000" font-family="Georgia" font-size="11" lengthAdjust="spacing" textLength="78.2998" x="88.9485" y="932.9414">with pin marker</text></g><?plantuml-src VLJRJXin47ttLupo55J81TeNr5AbAQ2gz28kKYN2myGxx5hPjRUsGvGYf7v4lx1Vqh6zcmi58YNAhi-PENDcnbxvak1gl3VSFuGBGYiBE3CIlJ8QkgCii-GSzE6xSHvB69kCTeHmCwLhj5Y1evzpqf96rfh5PQ7aJ0V2_WR4chdEfB6QB0m76mSPtUAyz2T6-wzO4PoIiRd2fn4NwXV1S2W4IcyiTAuSsOdkZWR3_cYmpz-3dGwWW_1UCDihgMhK7ZedbkcaCqQV4xCJxkHu6_K1vIo1HeFN2S9_jZ4iK9fCwHn6tpz5v1lu-_iFVDFq1Ul-gJ5vIOdBKCQ833rEqH5qnYWBYX8aSQnpSboOI-1u9aIG3dj7B0qEuN9P4s3ZFnTSfmPmVewYD1iVUpL5AnZFB5RBjDFZI-XZhVhfl9z7oVJ-vxktt2YxF18Y01aVap9ZN92SWOnFjvp89e4s2Ppe2hqiGisHBn9jRvKmFISqT0lbWzXAESTZWlmgdVDx0Vo9kTiIzmS3-FOPxfjKXt3Tw_Lk7g1xQqsL5Eq8Ajcz52H4NKSvQZpcG2V6Bj1cII5u0_cZHgK6XGUehQgGKNr8xO9RBCifDv_rXjX1yrQVOQxn3bM9KmPVnqtf7V_e3MyYF7mQ7MjFZdaPB6UuL1MPkLy16zq9T6Poe03SFcxDUJCucEZx23Y4pcebcxPxgcfZqQfokQclyx0A5eQ2OyMPuiqkp8Avzav9sYgeul72d28jMltLjAtdQU35RKiUZLykkQhzicK-NT7_xRvvKMw7fSJXeqPAPw9VmSKypya5BrpezDGQpAZrPLr6ir-ioC_vvicULxvkzchakz8Oow_GaziDIy4oF6NjEXBFzfCjFKSzMxat3NQKT8TyEpw6htPlOtbSt3vVADTisWicycIiNRnlPEr2YPv_TFwm2t6Jdd7tet9rYMste5JEXrieiwREp48d4tKcmdVxKhhWWYI3MsfSrC1lxg086lFrONcoUE7Ym0OAcxVXwKH_v5oh8Luoriuu3RAOPj35jkImlJB6pRQ2jl29NYXVGCqNOueb_W40?></g></svg>