<?plantuml 1.2026.2?><svg xmlns="http://www.w3.org/2000/svg" xmlns:xlink="http://www.w3.org/1999/xlink" contentStyleType="text/css" data-diagram-type="SEQUENCE" height="787px" preserveAspectRatio="none" style="width:885px;height:787px;background:#FFFFFF;" version="1.1" viewBox="0 0 885 787" width="885px" zoomAndPan="magnify"><title>UC-24: Reset Weights to Default</title><defs/><g><text fill="#000000" font-family="Georgia" font-size="14" font-weight="bold" lengthAdjust="spacing" textLength="231.0273" x="328.484" y="27.8379">UC-24: Reset Weights to Default</text><rect fill="none" height="444.9678" rx="5" ry="5" style="stroke:#000000;stroke-width:1.5;" width="868.9954" x="10" y="235.8984"/><g class="participant-lifeline" data-entity-uid="part1" data-qualified-name="User" id="part1-lifeline"><g><title>User</title><rect fill="#000000" fill-opacity="0.00000" height="570.9619" width="8" x="57.9485" y="126.9043"/><line style="stroke:#181818;stroke-width:0.5;stroke-dasharray:5,5;" x1="61" x2="61" y1="126.9043" y2="697.8662"/></g></g><g class="participant-lifeline" data-entity-uid="part2" data-qualified-name="FE" id="part2-lifeline"><g><title>Frontend</title><rect fill="#000000" fill-opacity="0.00000" height="570.9619" width="8" x="235.0354" y="126.9043"/><line style="stroke:#181818;stroke-width:0.5;stroke-dasharray:5,5;" x1="238.3076" x2="238.3076" y1="126.9043" y2="697.8662"/></g></g><g class="participant-lifeline" data-entity-uid="part3" data-qualified-name="A04" id="part3-lifeline"><g><title>Backend</title><rect fill="#000000" fill-opacity="0.00000" height="570.9619" width="8" x="565.0374" y="126.9043"/><line style="stroke:#181818;stroke-width:0.5;stroke-dasharray:5,5;" x1="568.1599" x2="568.1599" y1="126.9043" y2="697.8662"/></g></g><g class="participant-lifeline" data-entity-uid="part4" data-qualified-name="SE" id="part4-lifeline"><g><title>Scoring Engine</title><rect fill="#000000" fill-opacity="0.00000" height="570.9619" width="8" x="773.1487" y="126.9043"/><line style="stroke:#181818;stroke-width:0.5;stroke-dasharray:5,5;" x1="776.1956" x2="776.1956" y1="126.9043" y2="697.8662"/></g></g><g class="participant-lifeline" data-entity-uid="part5" data-qualified-name="Config" id="part5-lifeline"><g><title>Config</title><rect fill="#000000" fill-opacity="0.00000" height="570.9619" width="8" x="846.0486" y="126.9043"/><line style="stroke:#181818;stroke-width:0.5;stroke-dasharray:5,5;" x1="849.1018" x2="849.1018" y1="126.9043" y2="697.8662"/></g></g><g class="participant participant-head" data-entity-uid="part1" data-qualified-name="User" id="part1-head"><text fill="#000000" font-family="Georgia" font-size="11" lengthAdjust="spacing" textLength="22.897" x="47.5" y="111.9941">User</text><text fill="#000000" font-family="Georgia" font-size="11" lengthAdjust="spacing" textLength="77.897" x="20" y="124.4927">(A01/A02/A03)</text><ellipse cx="61.9485" cy="50.4072" fill="#E2E2F0" rx="8" ry="8" style="stroke:#181818;stroke-width:0.5;"/><path d="M61.9485,58.4072 L61.9485,85.4072 M48.9485,66.4072 L74.9485,66.4072 M61.9485,85.4072 L48.9485,100.4072 M61.9485,85.4072 L74.9485,100.4072" fill="none" style="stroke:#181818;stroke-width:0.5;"/></g><g class="participant participant-tail" data-entity-uid="part1" data-qualified-name="User" id="part1-tail"><text fill="#000000" font-family="Georgia" font-size="11" lengthAdjust="spacing" textLength="22.897" x="47.5" y="706.9531">User</text><text fill="#000000" font-family="Georgia" font-size="11" lengthAdjust="spacing" textLength="77.897" x="20" y="719.4517">(A01/A02/A03)</text><ellipse cx="61.9485" cy="730.3633" fill="#E2E2F0" rx="8" ry="8" style="stroke:#181818;stroke-width:0.5;"/><path d="M61.9485,738.3633 L61.9485,765.3633 M48.9485,746.3633 L74.9485,746.3633 M61.9485,765.3633 L48.9485,780.3633 M61.9485,765.3633 L74.9485,780.3633" fill="none" style="stroke:#181818;stroke-width:0.5;"/></g><g class="participant participant-head" data-entity-uid="part2" data-qualified-name="FE" id="part2-head"><rect fill="#E2E2F0" height="38.9971" rx="5" ry="5" style="stroke:#181818;stroke-width:0.5;" width="59.4556" x="209.3076" y="86.9072"/><text fill="#000000" font-family="Georgia" font-size="11" lengthAdjust="spacing" textLength="45.4556" x="216.3076" y="103.9941">Frontend</text><text fill="#000000" font-family="Georgia" font-size="11" lengthAdjust="spacing" textLength="35.6211" x="221.2249" y="116.4927">(React)</text></g><g class="participant participant-tail" data-entity-uid="part2" data-qualified-name="FE" id="part2-tail"><rect fill="#E2E2F0" height="38.9971" rx="5" ry="5" style="stroke:#181818;stroke-width:0.5;" width="59.4556" x="209.3076" y="696.8662"/><text fill="#000000" font-family="Georgia" font-size="11" lengthAdjust="spacing" textLength="45.4556" x="216.3076" y="713.9531">Frontend</text><text fill="#000000" font-family="Georgia" font-size="11" lengthAdjust="spacing" textLength="35.6211" x="221.2249" y="726.4517">(React)</text></g><g class="participant participant-head" data-entity-uid="part3" data-qualified-name="A04" id="part3-head"><rect fill="#E2E2F0" height="38.9971" rx="5" ry="5" style="stroke:#181818;stroke-width:0.5;" width="55.7549" x="541.1599" y="86.9072"/><text fill="#000000" font-family="Georgia" font-size="11" lengthAdjust="spacing" textLength="41.7549" x="548.1599" y="103.9941">Backend</text><text fill="#000000" font-family="Georgia" font-size="11" lengthAdjust="spacing" textLength="28.5957" x="554.7395" y="116.4927">(A04)</text></g><g class="participant participant-tail" data-entity-uid="part3" data-qualified-name="A04" id="part3-tail"><rect fill="#E2E2F0" height="38.9971" rx="5" ry="5" style="stroke:#181818;stroke-width:0.5;" width="55.7549" x="541.1599" y="696.8662"/><text fill="#000000" font-family="Georgia" font-size="11" lengthAdjust="spacing" textLength="41.7549" x="548.1599" y="713.9531">Backend</text><text fill="#000000" font-family="Georgia" font-size="11" lengthAdjust="spacing" textLength="28.5957" x="554.7395" y="726.4517">(A04)</text></g><g class="participant participant-head" data-entity-uid="part4" data-qualified-name="SE" id="part4-head"><rect fill="#E2E2F0" height="26.4985" rx="5" ry="5" style="stroke:#181818;stroke-width:0.5;" width="87.9063" x="733.1956" y="99.4058"/><text fill="#000000" font-family="Georgia" font-size="11" lengthAdjust="spacing" textLength="73.9063" x="740.1956" y="116.4927">Scoring Engine</text></g><g class="participant participant-tail" data-entity-uid="part4" data-qualified-name="SE" id="part4-tail"><rect fill="#E2E2F0" height="26.4985" rx="5" ry="5" style="stroke:#181818;stroke-width:0.5;" width="87.9063" x="733.1956" y="696.8662"/><text fill="#000000" font-family="Georgia" font-size="11" lengthAdjust="spacing" textLength="73.9063" x="740.1956" y="713.9531">Scoring Engine</text></g><g class="participant participant-head" data-entity-uid="part5" data-qualified-name="Config" id="part5-head"><text fill="#000000" font-family="Georgia" font-size="11" lengthAdjust="spacing" textLength="31.8936" x="831.1018" y="124.4927">Config</text><path d="M832.0486,78.4058 C832.0486,68.4058 850.0486,68.4058 850.0486,68.4058 C850.0486,68.4058 868.0486,68.4058 868.0486,78.4058 L868.0486,104.4058 C868.0486,114.4058 850.0486,114.4058 850.0486,114.4058 C850.0486,114.4058 832.0486,114.4058 832.0486,104.4058 L832.0486,78.4058" fill="#E2E2F0" style="stroke:#181818;stroke-width:0.5;"/><path d="M832.0486,78.4058 C832.0486,88.4058 850.0486,88.4058 850.0486,88.4058 C850.0486,88.4058 868.0486,88.4058 868.0486,78.4058" fill="none" style="stroke:#181818;stroke-width:0.5;"/></g><g class="participant participant-tail" data-entity-uid="part5" data-qualified-name="Config" id="part5-tail"><text fill="#000000" font-family="Georgia" font-size="11" lengthAdjust="spacing" textLength="31.8936" x="831.1018" y="706.9531">Config</text><path d="M832.0486,719.3647 C832.0486,709.3647 850.0486,709.3647 850.0486,709.3647 C850.0486,709.3647 868.0486,709.3647 868.0486,719.3647 L868.0486,745.3647 C868.0486,755.3647 850.0486,755.3647 850.0486,755.3647 C850.0486,755.3647 832.0486,755.3647 832.0486,745.3647 L832.0486,719.3647" fill="#E2E2F0" style="stroke:#181818;stroke-width:0.5;"/><path d="M832.0486,719.3647 C832.0486,729.3647 850.0486,729.3647 850.0486,729.3647 C850.0486,729.3647 868.0486,729.3647 868.0486,719.3647" fill="none" style="stroke:#181818;stroke-width:0.5;"/></g><g class="message" data-entity-1="part1" data-entity-2="part2" id="msg1"><polygon fill="#181818" points="227.0354,151.4028,237.0354,155.4028,227.0354,159.4028,231.0354,155.4028" style="stroke:#181818;stroke-width:1;"/><line style="stroke:#181818;stroke-width:2;" x1="61.9485" x2="233.0354" y1="155.4028" y2="155.4028"/><text fill="#000000" font-family="Georgia" font-size="11" lengthAdjust="spacing" textLength="113.9155" x="68.9485" y="150.9912">Click "Reset to Default"</text></g><g class="message" data-entity-1="part2" data-entity-2="part3" id="msg2"><polygon fill="#181818" points="557.0374,177.9014,567.0374,181.9014,557.0374,185.9014,561.0374,181.9014" style="stroke:#181818;stroke-width:1;"/><line style="stroke:#181818;stroke-width:2;" x1="239.0354" x2="563.0374" y1="181.9014" y2="181.9014"/><text fill="#000000" font-family="Georgia" font-size="11" lengthAdjust="spacing" textLength="125.501" x="246.0354" y="177.4897">POST /api/scenario/reset</text></g><g class="message" data-entity-1="part3" data-entity-2="part5" id="msg3"><polygon fill="#181818" points="838.0486,216.8984,848.0486,220.8984,838.0486,224.8984,842.0486,220.8984" style="stroke:#181818;stroke-width:1;"/><line style="stroke:#181818;stroke-width:2;" x1="569.0374" x2="844.0486" y1="220.8984" y2="220.8984"/><text fill="#000000" font-family="Georgia" font-size="11" lengthAdjust="spacing" textLength="122.0098" x="576.0374" y="203.9883">SELECT default_weights</text><text fill="#000000" font-family="Georgia" font-size="11" lengthAdjust="spacing" textLength="105.9717" x="576.0374" y="216.4868">FROM system_config</text></g><path d="M15,235.8984 L69.7114,235.8984 L69.7114,240.397 L59.7114,250.397 L10,250.397 L10,240.8984 A5,5 0 0 1 15,235.8984" fill="#EEEEEE" style="stroke:#000000;stroke-width:1.5;"/><rect fill="none" height="444.9678" rx="5" ry="5" style="stroke:#000000;stroke-width:1.5;" width="868.9954" x="10" y="235.8984"/><text fill="#000000" font-family="Georgia" font-size="11" font-weight="bold" lengthAdjust="spacing" textLength="14.7114" x="25" y="246.9854">alt</text><text fill="#000000" font-family="Georgia" font-size="11" font-weight="bold" lengthAdjust="spacing" textLength="225.0273" x="84.7114" y="247.9854">[Default config not found [UC-24.EX.1]]</text><g class="message" data-entity-1="part5" data-entity-2="part3" id="msg4"><polygon fill="#181818" points="580.0374,264.8955,570.0374,268.8955,580.0374,272.8955,576.0374,268.8955" style="stroke:#181818;stroke-width:1;"/><line style="stroke:#181818;stroke-width:2;stroke-dasharray:2,2;" x1="574.0374" x2="849.0486" y1="268.8955" y2="268.8955"/><text fill="#000000" font-family="Georgia" font-size="11" lengthAdjust="spacing" textLength="86.5659" x="586.0374" y="264.4839">Not found / Error</text></g><g class="message" data-entity-1="part3" data-entity-2="part3" id="msg5"><line style="stroke:#181818;stroke-width:2;" x1="569.0374" x2="611.0374" y1="295.394" y2="295.394"/><line style="stroke:#181818;stroke-width:2;" x1="611.0374" x2="611.0374" y1="295.394" y2="308.394"/><line style="stroke:#181818;stroke-width:2;" x1="570.0374" x2="611.0374" y1="308.394" y2="308.394"/><polygon fill="#181818" points="580.0374,304.394,570.0374,308.394,580.0374,312.394,576.0374,308.394" style="stroke:#181818;stroke-width:1;"/><text fill="#000000" font-family="Georgia" font-size="11" lengthAdjust="spacing" textLength="45.5898" x="576.0374" y="290.9824">Log error</text></g><g class="message" data-entity-1="part3" data-entity-2="part2" id="msg6"><polygon fill="#181818" points="250.0354,343.3911,240.0354,347.3911,250.0354,351.3911,246.0354,347.3911" style="stroke:#181818;stroke-width:1;"/><line style="stroke:#181818;stroke-width:2;stroke-dasharray:2,2;" x1="244.0354" x2="568.0374" y1="347.3911" y2="347.3911"/><text fill="#000000" font-family="Georgia" font-size="11" lengthAdjust="spacing" textLength="124.7866" x="256.0354" y="330.481">500 Internal Server Error</text><text fill="#000000" font-family="Georgia" font-size="11" lengthAdjust="spacing" textLength="306.002" x="256.0354" y="342.9795">{error: "Default config unavailable. Current weights retained."}</text></g><g class="message" data-entity-1="part2" data-entity-2="part1" id="msg7"><polygon fill="#181818" points="72.9485,369.8896,62.9485,373.8896,72.9485,377.8896,68.9485,373.8896" style="stroke:#181818;stroke-width:1;"/><line style="stroke:#181818;stroke-width:2;stroke-dasharray:2,2;" x1="66.9485" x2="238.0354" y1="373.8896" y2="373.8896"/><text fill="#000000" font-family="Georgia" font-size="11" lengthAdjust="spacing" textLength="153.0869" x="78.9485" y="369.478">Show error; no changes applied</text></g><line style="stroke:#000000;stroke-width:1;stroke-dasharray:2,2;" x1="10" x2="878.9954" y1="382.8896" y2="382.8896"/><text fill="#000000" font-family="Georgia" font-size="11" font-weight="bold" lengthAdjust="spacing" textLength="125.9844" x="15" y="392.9766">[Default config found]</text><g class="message" data-entity-1="part5" data-entity-2="part3" id="msg8"><polygon fill="#181818" points="580.0374,423.3853,570.0374,427.3853,580.0374,431.3853,576.0374,427.3853" style="stroke:#181818;stroke-width:1;"/><line style="stroke:#181818;stroke-width:2;stroke-dasharray:2,2;" x1="574.0374" x2="849.0486" y1="427.3853" y2="427.3853"/><text fill="#000000" font-family="Georgia" font-size="11" lengthAdjust="spacing" textLength="75.8076" x="586.0374" y="410.4751">Default weights</text><text fill="#000000" font-family="Georgia" font-size="11" lengthAdjust="spacing" textLength="102.0615" x="586.0374" y="422.9736">(25% per dimension)</text></g><g class="message" data-entity-1="part3" data-entity-2="part3" id="msg9"><line style="stroke:#181818;stroke-width:2;" x1="569.0374" x2="611.0374" y1="478.8809" y2="478.8809"/><line style="stroke:#181818;stroke-width:2;" x1="611.0374" x2="611.0374" y1="478.8809" y2="491.8809"/><line style="stroke:#181818;stroke-width:2;" x1="570.0374" x2="611.0374" y1="491.8809" y2="491.8809"/><polygon fill="#181818" points="580.0374,487.8809,570.0374,491.8809,580.0374,495.8809,576.0374,491.8809" style="stroke:#181818;stroke-width:1;"/><text fill="#000000" font-family="Georgia" font-size="11" lengthAdjust="spacing" textLength="155.3105" x="576.0374" y="449.4722">Apply default weights to session</text><text fill="#000000" font-family="Georgia" font-size="11" lengthAdjust="spacing" textLength="189.7446" x="576.0374" y="461.9707">{demographic: 25%, accessibility: 25%,</text><text fill="#000000" font-family="Georgia" font-size="11" lengthAdjust="spacing" textLength="194.1113" x="576.0374" y="474.4692">rentalPressure: 25%, competition: 25%}</text></g><g class="message" data-entity-1="part3" data-entity-2="part4" id="msg10"><polygon fill="#181818" points="765.1487,539.3765,775.1487,543.3765,765.1487,547.3765,769.1487,543.3765" style="stroke:#181818;stroke-width:1;"/><line style="stroke:#181818;stroke-width:2;" x1="569.0374" x2="771.1487" y1="543.3765" y2="543.3765"/><text fill="#000000" font-family="Georgia" font-size="11" lengthAdjust="spacing" textLength="103.2485" x="576.0374" y="513.9678">Recalculate all scores</text><text fill="#000000" font-family="Georgia" font-size="11" lengthAdjust="spacing" textLength="129.7549" x="576.0374" y="526.4663">{profileId, defaultWeights,</text><text fill="#000000" font-family="Georgia" font-size="11" lengthAdjust="spacing" textLength="145.2988" x="576.0374" y="538.9648">currentViewAreas, activePOI}</text></g><g class="message" data-entity-1="part4" data-entity-2="part3" id="msg11"><polygon fill="#181818" points="580.0374,565.875,570.0374,569.875,580.0374,573.875,576.0374,569.875" style="stroke:#181818;stroke-width:1;"/><line style="stroke:#181818;stroke-width:2;stroke-dasharray:2,2;" x1="574.0374" x2="776.1487" y1="569.875" y2="569.875"/><text fill="#000000" font-family="Georgia" font-size="11" lengthAdjust="spacing" textLength="74.8032" x="586.0374" y="565.4634">Updated scores</text></g><g class="message" data-entity-1="part3" data-entity-2="part2" id="msg12"><polygon fill="#181818" points="250.0354,617.3706,240.0354,621.3706,250.0354,625.3706,246.0354,621.3706" style="stroke:#181818;stroke-width:1;"/><line style="stroke:#181818;stroke-width:2;stroke-dasharray:2,2;" x1="244.0354" x2="568.0374" y1="621.3706" y2="621.3706"/><text fill="#000000" font-family="Georgia" font-size="11" lengthAdjust="spacing" textLength="38.124" x="256.0354" y="591.9619">200 OK</text><text fill="#000000" font-family="Georgia" font-size="11" lengthAdjust="spacing" textLength="155.9121" x="256.0354" y="604.4604">{appliedWeights: {25,25,25,25},</text><text fill="#000000" font-family="Georgia" font-size="11" lengthAdjust="spacing" textLength="182.5259" x="256.0354" y="616.959">updatedScores, updatedOverlayData}</text></g><g class="message" data-entity-1="part2" data-entity-2="part1" id="msg13"><polygon fill="#181818" points="72.9485,668.8662,62.9485,672.8662,72.9485,676.8662,68.9485,672.8662" style="stroke:#181818;stroke-width:1;"/><line style="stroke:#181818;stroke-width:2;stroke-dasharray:2,2;" x1="66.9485" x2="238.0354" y1="672.8662" y2="672.8662"/><text fill="#000000" font-family="Georgia" font-size="11" lengthAdjust="spacing" textLength="112.0464" x="78.9485" y="643.4575">Reset all sliders to 25%</text><text fill="#000000" font-family="Georgia" font-size="11" lengthAdjust="spacing" textLength="97.7217" x="78.9485" y="655.9561">Update map overlay</text><text fill="#000000" font-family="Georgia" font-size="11" lengthAdjust="spacing" textLength="122.3267" x="78.9485" y="668.4546">Refresh all score displays</text></g><?plantuml-src RLFlJzim4Ftkl-8KQH98fRy6NpffKbVI2OrHrC0sQPtGuLnJ2zVER8UA8VxtNUAqK21gfDJtxjxTUxwWWYQudXmDZqSm9qy1Vf8gLi53i71AIwnq4CBVALEYmpLu-bkHaJHspcwkLahU6V8UXYyWpbOcbzOPSZ3elmZaiTpKcd21QuAlP5sXy7r4fluH30P2e0pMGNBjoItCmRW_w8txGtu_7YQ07kfpmTb1ILMY2P1C7QUJoHaz9ywEk6cwZ_g2yYw2nltZ2E6FVKp6KoXJG6eAPQZ1PAd8CU0jUe9aOirI5Srv_1IYRWUEFZCTZ62YMHz8egxFUYQ2eunXFWPTph8hw66fUbwIGQTipzK9GjHnXiNIZCpIytHojHNfPXEDMfZfVFOT_8CFjBwHRH-emvOEuXaO6s1PUmE_6yExwQ_ku8y0VbgAerrJ5pji3rAssZMmjg48ERS5q7veE_T9lmzdx84pg24ZTy-QD5KMvh596K7oghdAu3qgZRUQkZ2fd2Cse9qG70La0_9kyjIGrV8nLwCroxAoczZ99vuHv0fDGHwmBBMYN91cgrwnDQEzF_aMkLFtO7Zo0KfcojMQZ5VM78gtQeoPxM5hpQvnzjppUd0EJvxJsXOEIrwQ4N3H3g2KTVHMQHKUujd2r9EZlkGxu2j7BLBQTKb11QxKd3pjjP3Leiz9efQLna20MeFdoqlS_sFfx59fEiixs_xQ5MSo6PN-eMWpTeI-xYceUxgSdKMfi_I5DjSbtttAszBYhV53DdxsZJbRyLkY4JmEJphRtnFpLh5IrXJgGFjtnXT5uyCfBzXxHiSzQcRJAYVNwCjYB4ni3DPOWeqr5cPEIwwzUjQ23VGbXxpWlHV_0G00?></g></svg>