<?plantuml 1.2026.2?><svg xmlns="http://www.w3.org/2000/svg" xmlns:xlink="http://www.w3.org/1999/xlink" contentStyleType="text/css" data-diagram-type="SEQUENCE" height="1229px" preserveAspectRatio="none" style="width:921px;height:1229px;background:#FFFFFF;" version="1.1" viewBox="0 0 921 1229" width="921px" zoomAndPan="magnify"><title>UC-20: Compare Candidate Sites (max 3)</title><defs/><g><text fill="#000000" font-family="Georgia" font-size="14" font-weight="bold" lengthAdjust="spacing" textLength="294.7178" x="314.5232" y="27.8379">UC-20: Compare Candidate Sites (max 3)</text><rect fill="none" height="691.4458" rx="5" ry="5" style="stroke:#000000;stroke-width:1.5;" width="904.7642" x="10" y="431.3853"/><rect fill="none" height="376.4692" rx="5" ry="5" style="stroke:#000000;stroke-width:1.5;" width="807.324" x="20" y="739.3618"/><g class="participant-lifeline" data-entity-uid="part1" data-qualified-name="User" id="part1-lifeline"><g><title>User</title><rect fill="#000000" fill-opacity="0.00000" height="1012.9268" width="8" x="67.9485" y="126.9043"/><line style="stroke:#181818;stroke-width:0.5;stroke-dasharray:5,5;" x1="71" x2="71" y1="126.9043" y2="1139.8311"/></g></g><g class="participant-lifeline" data-entity-uid="part2" data-qualified-name="FE" id="part2-lifeline"><g><title>Frontend</title><rect fill="#000000" fill-opacity="0.00000" height="1012.9268" width="8" x="308.9138" y="126.9043"/><line style="stroke:#181818;stroke-width:0.5;stroke-dasharray:5,5;" x1="312.186" x2="312.186" y1="126.9043" y2="1139.8311"/></g></g><g class="participant-lifeline" data-entity-uid="part3" data-qualified-name="A04" id="part3-lifeline"><g><title>Backend</title><rect fill="#000000" fill-opacity="0.00000" height="1012.9268" width="8" x="654.3523" y="126.9043"/><line style="stroke:#181818;stroke-width:0.5;stroke-dasharray:5,5;" x1="657.4749" x2="657.4749" y1="126.9043" y2="1139.8311"/></g></g><g class="participant-lifeline" data-entity-uid="part4" data-qualified-name="DB" id="part4-lifeline"><g><title>Database</title><rect fill="#000000" fill-opacity="0.00000" height="1012.9268" width="8" x="875.3157" y="126.9043"/><line style="stroke:#181818;stroke-width:0.5;stroke-dasharray:5,5;" x1="878.8672" x2="878.8672" y1="126.9043" y2="1139.8311"/></g></g><g class="participant participant-head" data-entity-uid="part1" data-qualified-name="User" id="part1-head"><text fill="#000000" font-family="Georgia" font-size="11" lengthAdjust="spacing" textLength="22.897" x="57.5" y="111.9941">User</text><text fill="#000000" font-family="Georgia" font-size="11" lengthAdjust="spacing" textLength="77.897" x="30" y="124.4927">(A01/A02/A03)</text><ellipse cx="71.9485" cy="50.4072" fill="#E2E2F0" rx="8" ry="8" style="stroke:#181818;stroke-width:0.5;"/><path d="M71.9485,58.4072 L71.9485,85.4072 M58.9485,66.4072 L84.9485,66.4072 M71.9485,85.4072 L58.9485,100.4072 M71.9485,85.4072 L84.9485,100.4072" fill="none" style="stroke:#181818;stroke-width:0.5;"/></g><g class="participant participant-tail" data-entity-uid="part1" data-qualified-name="User" id="part1-tail"><text fill="#000000" font-family="Georgia" font-size="11" lengthAdjust="spacing" textLength="22.897" x="57.5" y="1148.918">User</text><text fill="#000000" font-family="Georgia" font-size="11" lengthAdjust="spacing" textLength="77.897" x="30" y="1161.4165">(A01/A02/A03)</text><ellipse cx="71.9485" cy="1172.3281" fill="#E2E2F0" rx="8" ry="8" style="stroke:#181818;stroke-width:0.5;"/><path d="M71.9485,1180.3281 L71.9485,1207.3281 M58.9485,1188.3281 L84.9485,1188.3281 M71.9485,1207.3281 L58.9485,1222.3281 M71.9485,1207.3281 L84.9485,1222.3281" fill="none" style="stroke:#181818;stroke-width:0.5;"/></g><g class="participant participant-head" data-entity-uid="part2" data-qualified-name="FE" id="part2-head"><rect fill="#E2E2F0" height="38.9971" rx="5" ry="5" style="stroke:#181818;stroke-width:0.5;" width="59.4556" x="283.186" y="86.9072"/><text fill="#000000" font-family="Georgia" font-size="11" lengthAdjust="spacing" textLength="45.4556" x="290.186" y="103.9941">Frontend</text><text fill="#000000" font-family="Georgia" font-size="11" lengthAdjust="spacing" textLength="35.6211" x="295.1033" y="116.4927">(React)</text></g><g class="participant participant-tail" data-entity-uid="part2" data-qualified-name="FE" id="part2-tail"><rect fill="#E2E2F0" height="38.9971" rx="5" ry="5" style="stroke:#181818;stroke-width:0.5;" width="59.4556" x="283.186" y="1138.8311"/><text fill="#000000" font-family="Georgia" font-size="11" lengthAdjust="spacing" textLength="45.4556" x="290.186" y="1155.918">Frontend</text><text fill="#000000" font-family="Georgia" font-size="11" lengthAdjust="spacing" textLength="35.6211" x="295.1033" y="1168.4165">(React)</text></g><g class="participant participant-head" data-entity-uid="part3" data-qualified-name="A04" id="part3-head"><rect fill="#E2E2F0" height="38.9971" rx="5" ry="5" style="stroke:#181818;stroke-width:0.5;" width="55.7549" x="630.4749" y="86.9072"/><text fill="#000000" font-family="Georgia" font-size="11" lengthAdjust="spacing" textLength="41.7549" x="637.4749" y="103.9941">Backend</text><text fill="#000000" font-family="Georgia" font-size="11" lengthAdjust="spacing" textLength="28.5957" x="644.0544" y="116.4927">(A04)</text></g><g class="participant participant-tail" data-entity-uid="part3" data-qualified-name="A04" id="part3-tail"><rect fill="#E2E2F0" height="38.9971" rx="5" ry="5" style="stroke:#181818;stroke-width:0.5;" width="55.7549" x="630.4749" y="1138.8311"/><text fill="#000000" font-family="Georgia" font-size="11" lengthAdjust="spacing" textLength="41.7549" x="637.4749" y="1155.918">Backend</text><text fill="#000000" font-family="Georgia" font-size="11" lengthAdjust="spacing" textLength="28.5957" x="644.0544" y="1168.4165">(A04)</text></g><g class="participant participant-head" data-entity-uid="part4" data-qualified-name="DB" id="part4-head"><text fill="#000000" font-family="Georgia" font-size="11" lengthAdjust="spacing" textLength="44.897" x="853.8672" y="124.4927">Database</text><path d="M861.3157,78.4058 C861.3157,68.4058 879.3157,68.4058 879.3157,68.4058 C879.3157,68.4058 897.3157,68.4058 897.3157,78.4058 L897.3157,104.4058 C897.3157,114.4058 879.3157,114.4058 879.3157,114.4058 C879.3157,114.4058 861.3157,114.4058 861.3157,104.4058 L861.3157,78.4058" fill="#E2E2F0" style="stroke:#181818;stroke-width:0.5;"/><path d="M861.3157,78.4058 C861.3157,88.4058 879.3157,88.4058 879.3157,88.4058 C879.3157,88.4058 897.3157,88.4058 897.3157,78.4058" fill="none" style="stroke:#181818;stroke-width:0.5;"/></g><g class="participant participant-tail" data-entity-uid="part4" data-qualified-name="DB" id="part4-tail"><text fill="#000000" font-family="Georgia" font-size="11" lengthAdjust="spacing" textLength="44.897" x="853.8672" y="1148.918">Database</text><path d="M861.3157,1161.3296 C861.3157,1151.3296 879.3157,1151.3296 879.3157,1151.3296 C879.3157,1151.3296 897.3157,1151.3296 897.3157,1161.3296 L897.3157,1187.3296 C897.3157,1197.3296 879.3157,1197.3296 879.3157,1197.3296 C879.3157,1197.3296 861.3157,1197.3296 861.3157,1187.3296 L861.3157,1161.3296" fill="#E2E2F0" style="stroke:#181818;stroke-width:0.5;"/><path d="M861.3157,1161.3296 C861.3157,1171.3296 879.3157,1171.3296 879.3157,1171.3296 C879.3157,1171.3296 897.3157,1171.3296 897.3157,1161.3296" fill="none" style="stroke:#181818;stroke-width:0.5;"/></g><g class="message" data-entity-1="part1" data-entity-2="part2" id="msg1"><polygon fill="#181818" points="300.9138,163.9014,310.9138,167.9014,300.9138,171.9014,304.9138,167.9014" style="stroke:#181818;stroke-width:1;"/><line style="stroke:#181818;stroke-width:2;" x1="71.9485" x2="306.9138" y1="167.9014" y2="167.9014"/><text fill="#000000" font-family="Georgia" font-size="11" lengthAdjust="spacing" textLength="171.5044" x="78.9485" y="150.9912">Navigate to Comparison dashboard</text><text fill="#000000" font-family="Georgia" font-size="11" lengthAdjust="spacing" textLength="214.0005" x="78.9485" y="163.4897">(or click "Compare Selected" from portfolio)</text></g><g class="message" data-entity-1="part2" data-entity-2="part3" id="msg2"><polygon fill="#181818" points="646.3523,190.3999,656.3523,194.3999,646.3523,198.3999,650.3523,194.3999" style="stroke:#181818;stroke-width:1;"/><line style="stroke:#181818;stroke-width:2;" x1="312.9138" x2="652.3523" y1="194.3999" y2="194.3999"/><text fill="#000000" font-family="Georgia" font-size="11" lengthAdjust="spacing" textLength="197.9194" x="319.9138" y="189.9883">GET /api/portfolio/sites?profileId=&lt;id&gt;</text></g><g class="message" data-entity-1="part3" data-entity-2="part4" id="msg3"><polygon fill="#181818" points="867.3157,241.8955,877.3157,245.8955,867.3157,249.8955,871.3157,245.8955" style="stroke:#181818;stroke-width:1;"/><line style="stroke:#181818;stroke-width:2;" x1="658.3523" x2="873.3157" y1="245.8955" y2="245.8955"/><text fill="#000000" font-family="Georgia" font-size="11" lengthAdjust="spacing" textLength="156.1646" x="665.3523" y="216.4868">SELECT id, site_name, address,</text><text fill="#000000" font-family="Georgia" font-size="11" lengthAdjust="spacing" textLength="196.9634" x="665.3523" y="228.9854">composite_score FROM candidate_sites</text><text fill="#000000" font-family="Georgia" font-size="11" lengthAdjust="spacing" textLength="195.207" x="665.3523" y="241.4839">WHERE user_id = ? AND profile_id = ?</text></g><g class="message" data-entity-1="part4" data-entity-2="part3" id="msg4"><polygon fill="#181818" points="669.3523,268.394,659.3523,272.394,669.3523,276.394,665.3523,272.394" style="stroke:#181818;stroke-width:1;"/><line style="stroke:#181818;stroke-width:2;stroke-dasharray:2,2;" x1="663.3523" x2="878.3157" y1="272.394" y2="272.394"/><text fill="#000000" font-family="Georgia" font-size="11" lengthAdjust="spacing" textLength="36.083" x="675.3523" y="267.9824">Site list</text></g><g class="message" data-entity-1="part3" data-entity-2="part2" id="msg5"><polygon fill="#181818" points="323.9138,294.8926,313.9138,298.8926,323.9138,302.8926,319.9138,298.8926" style="stroke:#181818;stroke-width:1;"/><line style="stroke:#181818;stroke-width:2;stroke-dasharray:2,2;" x1="317.9138" x2="657.3523" y1="298.8926" y2="298.8926"/><text fill="#000000" font-family="Georgia" font-size="11" lengthAdjust="spacing" textLength="95.3208" x="329.9138" y="294.481">200 OK {sites: [...]}</text></g><g class="message" data-entity-1="part2" data-entity-2="part1" id="msg6"><polygon fill="#181818" points="82.9485,346.3882,72.9485,350.3882,82.9485,354.3882,78.9485,350.3882" style="stroke:#181818;stroke-width:1;"/><line style="stroke:#181818;stroke-width:2;stroke-dasharray:2,2;" x1="76.9485" x2="311.9138" y1="350.3882" y2="350.3882"/><text fill="#000000" font-family="Georgia" font-size="11" lengthAdjust="spacing" textLength="98.1084" x="88.9485" y="320.9795">Display site list with</text><text fill="#000000" font-family="Georgia" font-size="11" lengthAdjust="spacing" textLength="115.5967" x="88.9485" y="333.478">multi-select checkboxes</text><text fill="#000000" font-family="Georgia" font-size="11" lengthAdjust="spacing" textLength="216.9653" x="88.9485" y="345.9766">(Compare button disabled until &#8805; 2 selected)</text></g><g class="message" data-entity-1="part1" data-entity-2="part2" id="msg7"><polygon fill="#181818" points="300.9138,372.8867,310.9138,376.8867,300.9138,380.8867,304.9138,376.8867" style="stroke:#181818;stroke-width:1;"/><line style="stroke:#181818;stroke-width:2;" x1="71.9485" x2="306.9138" y1="376.8867" y2="376.8867"/><text fill="#000000" font-family="Georgia" font-size="11" lengthAdjust="spacing" textLength="122.4287" x="78.9485" y="372.4751">Select 2-3 candidate sites</text></g><g class="message" data-entity-1="part2" data-entity-2="part2" id="msg8"><line style="stroke:#181818;stroke-width:2;" x1="312.9138" x2="354.9138" y1="403.3853" y2="403.3853"/><line style="stroke:#181818;stroke-width:2;" x1="354.9138" x2="354.9138" y1="403.3853" y2="416.3853"/><line style="stroke:#181818;stroke-width:2;" x1="313.9138" x2="354.9138" y1="416.3853" y2="416.3853"/><polygon fill="#181818" points="323.9138,412.3853,313.9138,416.3853,323.9138,420.3853,319.9138,416.3853" style="stroke:#181818;stroke-width:1;"/><text fill="#000000" font-family="Georgia" font-size="11" lengthAdjust="spacing" textLength="92.3076" x="319.9138" y="398.9736">Validate: count &#8804; 3</text></g><path d="M15,431.3853 L69.7114,431.3853 L69.7114,435.8838 L59.7114,445.8838 L10,445.8838 L10,436.3853 A5,5 0 0 1 15,431.3853" fill="#EEEEEE" style="stroke:#000000;stroke-width:1.5;"/><rect fill="none" height="691.4458" rx="5" ry="5" style="stroke:#000000;stroke-width:1.5;" width="904.7642" x="10" y="431.3853"/><text fill="#000000" font-family="Georgia" font-size="11" font-weight="bold" lengthAdjust="spacing" textLength="14.7114" x="25" y="442.4722">alt</text><text fill="#000000" font-family="Georgia" font-size="11" font-weight="bold" lengthAdjust="spacing" textLength="225.9619" x="84.7114" y="443.4722">[User selects more than 3 [UC-20.AC.1]]</text><g class="message" data-entity-1="part2" data-entity-2="part1" id="msg9"><polygon fill="#181818" points="82.9485,472.8809,72.9485,476.8809,82.9485,480.8809,78.9485,476.8809" style="stroke:#181818;stroke-width:1;"/><line style="stroke:#181818;stroke-width:2;stroke-dasharray:2,2;" x1="76.9485" x2="311.9138" y1="476.8809" y2="476.8809"/><text fill="#000000" font-family="Georgia" font-size="11" lengthAdjust="spacing" textLength="91.8564" x="88.9485" y="459.9707">Block 4th selection</text><text fill="#000000" font-family="Georgia" font-size="11" lengthAdjust="spacing" textLength="201.8779" x="88.9485" y="472.4692">Show: "Maximum 3 sites for comparison"</text></g><line style="stroke:#000000;stroke-width:1;stroke-dasharray:2,2;" x1="10" x2="914.7642" y1="485.8809" y2="485.8809"/><text fill="#000000" font-family="Georgia" font-size="11" font-weight="bold" lengthAdjust="spacing" textLength="152.394" x="15" y="495.9678">[Valid selection (2-3 sites)]</text><g class="message" data-entity-1="part1" data-entity-2="part2" id="msg10"><polygon fill="#181818" points="300.9138,513.8779,310.9138,517.8779,300.9138,521.8779,304.9138,517.8779" style="stroke:#181818;stroke-width:1;"/><line style="stroke:#181818;stroke-width:2;" x1="71.9485" x2="306.9138" y1="517.8779" y2="517.8779"/><text fill="#000000" font-family="Georgia" font-size="11" lengthAdjust="spacing" textLength="80.3623" x="78.9485" y="513.4663">Click "Compare"</text></g><g class="message" data-entity-1="part2" data-entity-2="part3" id="msg11"><polygon fill="#181818" points="646.3523,540.3765,656.3523,544.3765,646.3523,548.3765,650.3523,544.3765" style="stroke:#181818;stroke-width:1;"/><line style="stroke:#181818;stroke-width:2;" x1="312.9138" x2="652.3523" y1="544.3765" y2="544.3765"/><text fill="#000000" font-family="Georgia" font-size="11" lengthAdjust="spacing" textLength="188.52" x="319.9138" y="539.9648">GET /api/compare?siteIds=id1,id2,id3</text></g><g class="message" data-entity-1="part3" data-entity-2="part3" id="msg12"><line style="stroke:#181818;stroke-width:2;" x1="658.3523" x2="700.3523" y1="570.875" y2="570.875"/><line style="stroke:#181818;stroke-width:2;" x1="700.3523" x2="700.3523" y1="570.875" y2="583.875"/><line style="stroke:#181818;stroke-width:2;" x1="659.3523" x2="700.3523" y1="583.875" y2="583.875"/><polygon fill="#181818" points="669.3523,579.875,659.3523,583.875,669.3523,587.875,665.3523,583.875" style="stroke:#181818;stroke-width:1;"/><text fill="#000000" font-family="Georgia" font-size="11" lengthAdjust="spacing" textLength="134.5029" x="665.3523" y="566.4634">Validate selection count &#8804; 3</text></g><g class="message" data-entity-1="part3" data-entity-2="part4" id="msg13"><polygon fill="#181818" points="867.3157,693.8633,877.3157,697.8633,867.3157,701.8633,871.3157,697.8633" style="stroke:#181818;stroke-width:1;"/><line style="stroke:#181818;stroke-width:2;" x1="658.3523" x2="873.3157" y1="697.8633" y2="697.8633"/><text fill="#000000" font-family="Georgia" font-size="11" lengthAdjust="spacing" textLength="172.9224" x="665.3523" y="605.9619">SELECT site_name, address, notes,</text><text fill="#000000" font-family="Georgia" font-size="11" lengthAdjust="spacing" textLength="187.4619" x="665.3523" y="618.4604">composite_score, demographic_score,</text><text fill="#000000" font-family="Georgia" font-size="11" lengthAdjust="spacing" textLength="161.0898" x="665.3523" y="630.959">accessibility_score, rental_score,</text><text fill="#000000" font-family="Georgia" font-size="11" lengthAdjust="spacing" textLength="184.8892" x="665.3523" y="643.4575">competition_score, scenario_weights,</text><text fill="#000000" font-family="Georgia" font-size="11" lengthAdjust="spacing" textLength="52.207" x="665.3523" y="655.9561">created_at</text><text fill="#000000" font-family="Georgia" font-size="11" lengthAdjust="spacing" textLength="111.8154" x="665.3523" y="668.4546">FROM candidate_sites</text><text fill="#000000" font-family="Georgia" font-size="11" lengthAdjust="spacing" textLength="137.0542" x="665.3523" y="680.9531">WHERE id IN (id1, id2, id3)</text><text fill="#000000" font-family="Georgia" font-size="11" lengthAdjust="spacing" textLength="81.8716" x="665.3523" y="693.4517">AND user_id = ?</text></g><g class="message" data-entity-1="part4" data-entity-2="part3" id="msg14"><polygon fill="#181818" points="669.3523,720.3618,659.3523,724.3618,669.3523,728.3618,665.3523,724.3618" style="stroke:#181818;stroke-width:1;"/><line style="stroke:#181818;stroke-width:2;stroke-dasharray:2,2;" x1="663.3523" x2="878.3157" y1="724.3618" y2="724.3618"/><text fill="#000000" font-family="Georgia" font-size="11" lengthAdjust="spacing" textLength="156.5889" x="675.3523" y="719.9502">Detailed scores for selected sites</text></g><path d="M25,739.3618 L79.7114,739.3618 L79.7114,743.8604 L69.7114,753.8604 L20,753.8604 L20,744.3618 A5,5 0 0 1 25,739.3618" fill="#EEEEEE" style="stroke:#000000;stroke-width:1.5;"/><rect fill="none" height="376.4692" rx="5" ry="5" style="stroke:#000000;stroke-width:1.5;" width="807.324" x="20" y="739.3618"/><text fill="#000000" font-family="Georgia" font-size="11" font-weight="bold" lengthAdjust="spacing" textLength="14.7114" x="35" y="750.4487">alt</text><text fill="#000000" font-family="Georgia" font-size="11" font-weight="bold" lengthAdjust="spacing" textLength="267.9746" x="94.7114" y="751.4487">[Score data unavailable for a site [UC-20.EX.1]]</text><g class="message" data-entity-1="part3" data-entity-2="part2" id="msg15"><polygon fill="#181818" points="323.9138,780.8574,313.9138,784.8574,323.9138,788.8574,319.9138,784.8574" style="stroke:#181818;stroke-width:1;"/><line style="stroke:#181818;stroke-width:2;stroke-dasharray:2,2;" x1="317.9138" x2="657.3523" y1="784.8574" y2="784.8574"/><text fill="#000000" font-family="Georgia" font-size="11" lengthAdjust="spacing" textLength="38.124" x="329.9138" y="767.9473">200 OK</text><text fill="#000000" font-family="Georgia" font-size="11" lengthAdjust="spacing" textLength="321.4385" x="329.9138" y="780.4458">{comparison: [...], warnings: ["Score data unavailable for Site X"]}</text></g><g class="message" data-entity-1="part2" data-entity-2="part1" id="msg16"><polygon fill="#181818" points="82.9485,819.8545,72.9485,823.8545,82.9485,827.8545,78.9485,823.8545" style="stroke:#181818;stroke-width:1;"/><line style="stroke:#181818;stroke-width:2;stroke-dasharray:2,2;" x1="76.9485" x2="311.9138" y1="823.8545" y2="823.8545"/><text fill="#000000" font-family="Georgia" font-size="11" lengthAdjust="spacing" textLength="110.8057" x="88.9485" y="806.9443">Show comparison with</text><text fill="#000000" font-family="Georgia" font-size="11" lengthAdjust="spacing" textLength="136.4258" x="88.9485" y="819.4429">warning flag on affected site</text></g><line style="stroke:#000000;stroke-width:1;stroke-dasharray:2,2;" x1="20" x2="827.324" y1="832.8545" y2="832.8545"/><text fill="#000000" font-family="Georgia" font-size="11" font-weight="bold" lengthAdjust="spacing" textLength="106.8472" x="25" y="842.9414">[All data available]</text><g class="message" data-entity-1="part3" data-entity-2="part3" id="msg17"><line style="stroke:#181818;stroke-width:2;" x1="658.3523" x2="700.3523" y1="902.3472" y2="902.3472"/><line style="stroke:#181818;stroke-width:2;" x1="700.3523" x2="700.3523" y1="902.3472" y2="915.3472"/><line style="stroke:#181818;stroke-width:2;" x1="659.3523" x2="700.3523" y1="915.3472" y2="915.3472"/><polygon fill="#181818" points="669.3523,911.3472,659.3523,915.3472,669.3523,919.3472,665.3523,915.3472" style="stroke:#181818;stroke-width:1;"/><text fill="#000000" font-family="Georgia" font-size="11" lengthAdjust="spacing" textLength="149.9717" x="665.3523" y="860.4399">Format comparison table data:</text><text fill="#000000" font-family="Georgia" font-size="11" lengthAdjust="spacing" textLength="127.0747" x="665.3523" y="872.9385">{sites: [{name, composite,</text><text fill="#000000" font-family="Georgia" font-size="11" lengthAdjust="spacing" textLength="130.9365" x="665.3523" y="885.437">demographic, accessibility,</text><text fill="#000000" font-family="Georgia" font-size="11" lengthAdjust="spacing" textLength="121.2148" x="665.3523" y="897.9355">rental, competition}, ...]}</text></g><g class="message" data-entity-1="part3" data-entity-2="part3" id="msg18"><line style="stroke:#181818;stroke-width:2;" x1="658.3523" x2="700.3523" y1="954.3442" y2="954.3442"/><line style="stroke:#181818;stroke-width:2;" x1="700.3523" x2="700.3523" y1="954.3442" y2="967.3442"/><line style="stroke:#181818;stroke-width:2;" x1="659.3523" x2="700.3523" y1="967.3442" y2="967.3442"/><polygon fill="#181818" points="669.3523,963.3442,659.3523,967.3442,669.3523,971.3442,665.3523,967.3442" style="stroke:#181818;stroke-width:1;"/><text fill="#000000" font-family="Georgia" font-size="11" lengthAdjust="spacing" textLength="96.0244" x="665.3523" y="937.4341">Generate chart data</text><text fill="#000000" font-family="Georgia" font-size="11" lengthAdjust="spacing" textLength="148.2529" x="665.3523" y="949.9326">(bar + radar) per FR-SCD-003</text></g><g class="message" data-entity-1="part3" data-entity-2="part2" id="msg19"><polygon fill="#181818" points="323.9138,1014.8398,313.9138,1018.8398,323.9138,1022.8398,319.9138,1018.8398" style="stroke:#181818;stroke-width:1;"/><line style="stroke:#181818;stroke-width:2;stroke-dasharray:2,2;" x1="317.9138" x2="657.3523" y1="1018.8398" y2="1018.8398"/><text fill="#000000" font-family="Georgia" font-size="11" lengthAdjust="spacing" textLength="38.124" x="329.9138" y="989.4312">200 OK</text><text fill="#000000" font-family="Georgia" font-size="11" lengthAdjust="spacing" textLength="146.0078" x="329.9138" y="1001.9297">{comparisonTable, chartData,</text><text fill="#000000" font-family="Georgia" font-size="11" lengthAdjust="spacing" textLength="127.4668" x="329.9138" y="1014.4282">profileDetails, siteDetails}</text></g><g class="message" data-entity-1="part2" data-entity-2="part1" id="msg20"><polygon fill="#181818" points="82.9485,1103.8311,72.9485,1107.8311,82.9485,1111.8311,78.9485,1107.8311" style="stroke:#181818;stroke-width:1;"/><line style="stroke:#181818;stroke-width:2;stroke-dasharray:2,2;" x1="76.9485" x2="311.9138" y1="1107.8311" y2="1107.8311"/><text fill="#000000" font-family="Georgia" font-size="11" lengthAdjust="spacing" textLength="154.1719" x="88.9485" y="1040.9268">Display comparison dashboard:</text><text fill="#000000" font-family="Georgia" font-size="11" lengthAdjust="spacing" textLength="121.9829" x="88.9485" y="1053.4253">- Side-by-side score table</text><text fill="#000000" font-family="Georgia" font-size="11" lengthAdjust="spacing" textLength="111.9121" x="88.9485" y="1065.9238">- Bar chart comparison</text><text fill="#000000" font-family="Georgia" font-size="11" lengthAdjust="spacing" textLength="124.2979" x="88.9485" y="1078.4224">- Radar chart comparison</text><text fill="#000000" font-family="Georgia" font-size="11" lengthAdjust="spacing" textLength="166.9443" x="88.9485" y="1090.9209">- Site details (address, notes, date)</text><text fill="#000000" font-family="Georgia" font-size="11" lengthAdjust="spacing" textLength="149.7085" x="88.9485" y="1103.4194">- "Export PDF" button (UC-21)</text></g><?plantuml-src ZLNRZjis47tNLmpqPAEMrvSy6TqiVDqkscmAUzC6Y0DZBD8siHBfadIysqK-eF-H_5Y_f4DIigN426f0japEvSpXcQ4LDkFmRfpqEWCOgtoFciCO9HCCBOU5iDn08ySdw3UZo3mAIHQOW-5_7RXC-L1hTNpOYVHHScEWLp7HwY1PghJa6hgToWRZ6pnaTgQalSUSmorNUYlmiiL2_CsXsuqYJAtI4BypN2zbOzZfNWqxFNhwpHZGW5kFoDkALEnHMeXdcjovP6Gzv-GTx6RJkjK8qyTWDEoy2YRq4b7rk4R38PuKRtvhCeeYbmcIrnG91d2FdyJMCMLLGPymIW93irihr2ukeKup8WZYajy5ptXgEOjXerKEUwNjHcL24SCKb48J0efzEts0AzoBgvF1bN7dSRFNQYCoViUkVnRiTUIioMao8f_5zBVf-044Qu6pNKaYk0N8cARZQIrbIX2Ktp5qD1ncyxTl82tFU-NZB-MVlqpdKpXGeIl1u1fkO7W_WI9jiHHHlkI4rGa5Cc5iG5FIq-jquEslyEBZ3k13kzt--DaNIHQUo05CXDbd-Epn-X1m57Qtb3afG2J6SmNfZgUFQ_Naq3LA7jS7QntPmk0wummEqeeC_ltdA_J051mtlpcmm3tqalwvR9_Q5Dnxgpymypi3I4d5bc9-WJvfCBC1TOXk87SSsXrAwCC7tqNjuRZT_HW1VUfbZZ956dXbTuMpK78f5pjr743y1fz4ViWfY4S26wUPavhYY6UaH8_fx0mDLuEtR_fqjJB7DSN59ppVQIkauJSkq1qpru9rMuBrwA5wdLUXhk1MybA1KIEeub2LumKfWbI4_7j5jgZvSxNLkAUXKYmj9QOfEOcro8HzBWqrbnQpauqBnArme4eBat997AhLaOljplfqcXD-jaAxb3yIFr5zTmyDHmSuFkYhtrnArmULll05rnfXmYqA9qOF8HnbgSL2Pzx9IMdXMz2D6f8kVY8_fsFlWg4T2arDtvUQEX5Sxx2bV3dhfUYp5XnHIo6thl7Y7-JolVi-fiOiCzILwqHQaMFHdaLms6Iu1Lh5pUPSf8_aLJlCif3rbBDUHydRJEaSRJMDzG2Txu3AAoV8Iv3HIJLqf1N1aBwgIg7D89BWKAZZSml27BgCv9RJZUKqdkxeel00QEQiKSDFe96XRiAUU9dDayLuadGw_UX_dyo3AwaL0hjxXV0LGpN8neIfNVof0BmyCTCB5mvnbT29CfwidnD3lq68WKstDw92GcLdTxS-TwLTtF7wO04JDBvfOCSFRpgpUFhaBYhuVJABoz7SSFhjXlb4jspadly0?></g></svg>