<?plantuml 1.2026.2?><svg xmlns="http://www.w3.org/2000/svg" xmlns:xlink="http://www.w3.org/1999/xlink" contentStyleType="text/css" data-diagram-type="SEQUENCE" height="927px" preserveAspectRatio="none" style="width:826px;height:927px;background:#FFFFFF;" version="1.1" viewBox="0 0 826 927" width="826px" zoomAndPan="magnify"><title>UC-22: Select Scenario Preset</title><defs/><g><text fill="#000000" font-family="Georgia" font-size="14" font-weight="bold" lengthAdjust="spacing" textLength="212.7549" x="307.6361" y="27.8379">UC-22: Select Scenario Preset</text><rect fill="none" height="443.4663" rx="5" ry="5" style="stroke:#000000;stroke-width:1.5;" width="809.0271" x="10" y="377.8867"/><g class="participant-lifeline" data-entity-uid="part1" data-qualified-name="User" id="part1-lifeline"><g><title>User</title><rect fill="#000000" fill-opacity="0.00000" height="711.4487" width="8" x="57.9485" y="126.9043"/><line style="stroke:#181818;stroke-width:0.5;stroke-dasharray:5,5;" x1="61" x2="61" y1="126.9043" y2="838.353"/></g></g><g class="participant-lifeline" data-entity-uid="part2" data-qualified-name="FE" id="part2-lifeline"><g><title>Frontend</title><rect fill="#000000" fill-opacity="0.00000" height="711.4487" width="8" x="241.905" y="126.9043"/><line style="stroke:#181818;stroke-width:0.5;stroke-dasharray:5,5;" x1="245.1772" x2="245.1772" y1="126.9043" y2="838.353"/></g></g><g class="participant-lifeline" data-entity-uid="part3" data-qualified-name="A04" id="part3-lifeline"><g><title>Backend</title><rect fill="#000000" fill-opacity="0.00000" height="711.4487" width="8" x="488.6604" y="126.9043"/><line style="stroke:#181818;stroke-width:0.5;stroke-dasharray:5,5;" x1="491.783" x2="491.783" y1="126.9043" y2="838.353"/></g></g><g class="participant-lifeline" data-entity-uid="part4" data-qualified-name="SE" id="part4-lifeline"><g><title>Scoring Engine</title><rect fill="#000000" fill-opacity="0.00000" height="711.4487" width="8" x="692.3674" y="126.9043"/><line style="stroke:#181818;stroke-width:0.5;stroke-dasharray:5,5;" x1="695.4143" x2="695.4143" y1="126.9043" y2="838.353"/></g></g><g class="participant-lifeline" data-entity-uid="part5" data-qualified-name="DB" id="part5-lifeline"><g><title>Database .</title><rect fill="#000000" fill-opacity="0.00000" height="711.4487" width="8" x="775.6738" y="126.9043"/><line style="stroke:#181818;stroke-width:0.5;stroke-dasharray:5,5;" x1="779.3206" x2="779.3206" y1="126.9043" y2="838.353"/></g></g><g class="participant participant-head" data-entity-uid="part1" data-qualified-name="User" id="part1-head"><text fill="#000000" font-family="Georgia" font-size="11" lengthAdjust="spacing" textLength="22.897" x="47.5" y="111.9941">User</text><text fill="#000000" font-family="Georgia" font-size="11" lengthAdjust="spacing" textLength="77.897" x="20" y="124.4927">(A01/A02/A03)</text><ellipse cx="61.9485" cy="50.4072" fill="#E2E2F0" rx="8" ry="8" style="stroke:#181818;stroke-width:0.5;"/><path d="M61.9485,58.4072 L61.9485,85.4072 M48.9485,66.4072 L74.9485,66.4072 M61.9485,85.4072 L48.9485,100.4072 M61.9485,85.4072 L74.9485,100.4072" fill="none" style="stroke:#181818;stroke-width:0.5;"/></g><g class="participant participant-tail" data-entity-uid="part1" data-qualified-name="User" id="part1-tail"><text fill="#000000" font-family="Georgia" font-size="11" lengthAdjust="spacing" textLength="22.897" x="47.5" y="847.4399">User</text><text fill="#000000" font-family="Georgia" font-size="11" lengthAdjust="spacing" textLength="77.897" x="20" y="859.9385">(A01/A02/A03)</text><ellipse cx="61.9485" cy="870.8501" fill="#E2E2F0" rx="8" ry="8" style="stroke:#181818;stroke-width:0.5;"/><path d="M61.9485,878.8501 L61.9485,905.8501 M48.9485,886.8501 L74.9485,886.8501 M61.9485,905.8501 L48.9485,920.8501 M61.9485,905.8501 L74.9485,920.8501" fill="none" style="stroke:#181818;stroke-width:0.5;"/></g><g class="participant participant-head" data-entity-uid="part2" data-qualified-name="FE" id="part2-head"><rect fill="#E2E2F0" height="38.9971" rx="5" ry="5" style="stroke:#181818;stroke-width:0.5;" width="59.4556" x="216.1772" y="86.9072"/><text fill="#000000" font-family="Georgia" font-size="11" lengthAdjust="spacing" textLength="45.4556" x="223.1772" y="103.9941">Frontend</text><text fill="#000000" font-family="Georgia" font-size="11" lengthAdjust="spacing" textLength="35.6211" x="228.0945" y="116.4927">(React)</text></g><g class="participant participant-tail" data-entity-uid="part2" data-qualified-name="FE" id="part2-tail"><rect fill="#E2E2F0" height="38.9971" rx="5" ry="5" style="stroke:#181818;stroke-width:0.5;" width="59.4556" x="216.1772" y="837.353"/><text fill="#000000" font-family="Georgia" font-size="11" lengthAdjust="spacing" textLength="45.4556" x="223.1772" y="854.4399">Frontend</text><text fill="#000000" font-family="Georgia" font-size="11" lengthAdjust="spacing" textLength="35.6211" x="228.0945" y="866.9385">(React)</text></g><g class="participant participant-head" data-entity-uid="part3" data-qualified-name="A04" id="part3-head"><rect fill="#E2E2F0" height="38.9971" rx="5" ry="5" style="stroke:#181818;stroke-width:0.5;" width="55.7549" x="464.783" y="86.9072"/><text fill="#000000" font-family="Georgia" font-size="11" lengthAdjust="spacing" textLength="41.7549" x="471.783" y="103.9941">Backend</text><text fill="#000000" font-family="Georgia" font-size="11" lengthAdjust="spacing" textLength="28.5957" x="478.3625" y="116.4927">(A04)</text></g><g class="participant participant-tail" data-entity-uid="part3" data-qualified-name="A04" id="part3-tail"><rect fill="#E2E2F0" height="38.9971" rx="5" ry="5" style="stroke:#181818;stroke-width:0.5;" width="55.7549" x="464.783" y="837.353"/><text fill="#000000" font-family="Georgia" font-size="11" lengthAdjust="spacing" textLength="41.7549" x="471.783" y="854.4399">Backend</text><text fill="#000000" font-family="Georgia" font-size="11" lengthAdjust="spacing" textLength="28.5957" x="478.3625" y="866.9385">(A04)</text></g><g class="participant participant-head" data-entity-uid="part4" data-qualified-name="SE" id="part4-head"><rect fill="#E2E2F0" height="26.4985" rx="5" ry="5" style="stroke:#181818;stroke-width:0.5;" width="87.9063" x="652.4143" y="99.4058"/><text fill="#000000" font-family="Georgia" font-size="11" lengthAdjust="spacing" textLength="73.9063" x="659.4143" y="116.4927">Scoring Engine</text></g><g class="participant participant-tail" data-entity-uid="part4" data-qualified-name="SE" id="part4-tail"><rect fill="#E2E2F0" height="26.4985" rx="5" ry="5" style="stroke:#181818;stroke-width:0.5;" width="87.9063" x="652.4143" y="837.353"/><text fill="#000000" font-family="Georgia" font-size="11" lengthAdjust="spacing" textLength="73.9063" x="659.4143" y="854.4399">Scoring Engine</text></g><g class="participant participant-head" data-entity-uid="part5" data-qualified-name="DB" id="part5-head"><text fill="#000000" font-family="Georgia" font-size="11" lengthAdjust="spacing" textLength="52.7065" x="750.3206" y="111.9941">Database /</text><text fill="#000000" font-family="Georgia" font-size="11" lengthAdjust="spacing" textLength="31.8936" x="760.7271" y="124.4927">Config</text><path d="M761.6738,65.9072 C761.6738,55.9072 779.6738,55.9072 779.6738,55.9072 C779.6738,55.9072 797.6738,55.9072 797.6738,65.9072 L797.6738,91.9072 C797.6738,101.9072 779.6738,101.9072 779.6738,101.9072 C779.6738,101.9072 761.6738,101.9072 761.6738,91.9072 L761.6738,65.9072" fill="#E2E2F0" style="stroke:#181818;stroke-width:0.5;"/><path d="M761.6738,65.9072 C761.6738,75.9072 779.6738,75.9072 779.6738,75.9072 C779.6738,75.9072 797.6738,75.9072 797.6738,65.9072" fill="none" style="stroke:#181818;stroke-width:0.5;"/></g><g class="participant participant-tail" data-entity-uid="part5" data-qualified-name="DB" id="part5-tail"><text fill="#000000" font-family="Georgia" font-size="11" lengthAdjust="spacing" textLength="52.7065" x="750.3206" y="847.4399">Database /</text><text fill="#000000" font-family="Georgia" font-size="11" lengthAdjust="spacing" textLength="31.8936" x="760.7271" y="859.9385">Config</text><path d="M761.6738,872.3501 C761.6738,862.3501 779.6738,862.3501 779.6738,862.3501 C779.6738,862.3501 797.6738,862.3501 797.6738,872.3501 L797.6738,898.3501 C797.6738,908.3501 779.6738,908.3501 779.6738,908.3501 C779.6738,908.3501 761.6738,908.3501 761.6738,898.3501 L761.6738,872.3501" fill="#E2E2F0" style="stroke:#181818;stroke-width:0.5;"/><path d="M761.6738,872.3501 C761.6738,882.3501 779.6738,882.3501 779.6738,882.3501 C779.6738,882.3501 797.6738,882.3501 797.6738,872.3501" fill="none" style="stroke:#181818;stroke-width:0.5;"/></g><g class="message" data-entity-1="part1" data-entity-2="part2" id="msg1"><polygon fill="#181818" points="233.905,151.4028,243.905,155.4028,233.905,159.4028,237.905,155.4028" style="stroke:#181818;stroke-width:1;"/><line style="stroke:#181818;stroke-width:2;" x1="61.9485" x2="239.905" y1="155.4028" y2="155.4028"/><text fill="#000000" font-family="Georgia" font-size="11" lengthAdjust="spacing" textLength="110.1235" x="68.9485" y="150.9912">Open scenario selector</text></g><g class="message" data-entity-1="part2" data-entity-2="part1" id="msg2"><polygon fill="#181818" points="72.9485,215.397,62.9485,219.397,72.9485,223.397,68.9485,219.397" style="stroke:#181818;stroke-width:1;"/><line style="stroke:#181818;stroke-width:2;stroke-dasharray:2,2;" x1="66.9485" x2="244.905" y1="219.397" y2="219.397"/><text fill="#000000" font-family="Georgia" font-size="11" lengthAdjust="spacing" textLength="111.7402" x="78.9485" y="177.4897">Display preset options:</text><text fill="#000000" font-family="Georgia" font-size="11" lengthAdjust="spacing" textLength="119.3403" x="78.9485" y="189.9883">&#8226; Normal / Holiday Peak</text><text fill="#000000" font-family="Georgia" font-size="11" lengthAdjust="spacing" textLength="137.6021" x="78.9485" y="202.4868">&#8226; Pandemic / Delivery Focus</text><text fill="#000000" font-family="Georgia" font-size="11" lengthAdjust="spacing" textLength="95.5464" x="78.9485" y="214.9854">&#8226; Cost-Saving Mode</text></g><g class="message" data-entity-1="part1" data-entity-2="part2" id="msg3"><polygon fill="#181818" points="233.905,254.394,243.905,258.394,233.905,262.394,237.905,258.394" style="stroke:#181818;stroke-width:1;"/><line style="stroke:#181818;stroke-width:2;" x1="61.9485" x2="239.905" y1="258.394" y2="258.394"/><text fill="#000000" font-family="Georgia" font-size="11" lengthAdjust="spacing" textLength="112.9917" x="68.9485" y="241.4839">Select a preset scenario</text><text fill="#000000" font-family="Georgia" font-size="11" lengthAdjust="spacing" textLength="152.1416" x="68.9485" y="253.9824">(e.g., "Normal / Holiday Peak")</text></g><g class="message" data-entity-1="part2" data-entity-2="part3" id="msg4"><polygon fill="#181818" points="480.6604,293.3911,490.6604,297.3911,480.6604,301.3911,484.6604,297.3911" style="stroke:#181818;stroke-width:1;"/><line style="stroke:#181818;stroke-width:2;" x1="245.905" x2="486.6604" y1="297.3911" y2="297.3911"/><text fill="#000000" font-family="Georgia" font-size="11" lengthAdjust="spacing" textLength="131.7852" x="252.905" y="280.481">POST /api/scenario/preset</text><text fill="#000000" font-family="Georgia" font-size="11" lengthAdjust="spacing" textLength="127.4238" x="252.905" y="292.9795">{scenarioName, profileId}</text></g><g class="message" data-entity-1="part3" data-entity-2="part5" id="msg5"><polygon fill="#181818" points="767.6738,332.3882,777.6738,336.3882,767.6738,340.3882,771.6738,336.3882" style="stroke:#181818;stroke-width:1;"/><line style="stroke:#181818;stroke-width:2;" x1="492.6604" x2="773.6738" y1="336.3882" y2="336.3882"/><text fill="#000000" font-family="Georgia" font-size="11" lengthAdjust="spacing" textLength="201.4805" x="499.6604" y="319.478">SELECT weights FROM scenario_presets</text><text fill="#000000" font-family="Georgia" font-size="11" lengthAdjust="spacing" textLength="89.1333" x="499.6604" y="331.9766">WHERE name = ?</text></g><g class="message" data-entity-1="part5" data-entity-2="part3" id="msg6"><polygon fill="#181818" points="503.6604,358.8867,493.6604,362.8867,503.6604,366.8867,499.6604,362.8867" style="stroke:#181818;stroke-width:1;"/><line style="stroke:#181818;stroke-width:2;stroke-dasharray:2,2;" x1="497.6604" x2="778.6738" y1="362.8867" y2="362.8867"/><text fill="#000000" font-family="Georgia" font-size="11" lengthAdjust="spacing" textLength="133.8101" x="509.6604" y="358.4751">Preset weight configuration</text></g><path d="M15,377.8867 L69.7114,377.8867 L69.7114,382.3853 L59.7114,392.3853 L10,392.3853 L10,382.8867 A5,5 0 0 1 15,377.8867" fill="#EEEEEE" style="stroke:#000000;stroke-width:1.5;"/><rect fill="none" height="443.4663" rx="5" ry="5" style="stroke:#000000;stroke-width:1.5;" width="809.0271" x="10" y="377.8867"/><text fill="#000000" font-family="Georgia" font-size="11" font-weight="bold" lengthAdjust="spacing" textLength="14.7114" x="25" y="388.9736">alt</text><text fill="#000000" font-family="Georgia" font-size="11" font-weight="bold" lengthAdjust="spacing" textLength="264.1772" x="84.7114" y="389.9736">[Scenario configuration missing [UC-22.EX.1]]</text><g class="message" data-entity-1="part5" data-entity-2="part3" id="msg7"><polygon fill="#181818" points="503.6604,406.8838,493.6604,410.8838,503.6604,414.8838,499.6604,410.8838" style="stroke:#181818;stroke-width:1;"/><line style="stroke:#181818;stroke-width:2;stroke-dasharray:2,2;" x1="497.6604" x2="778.6738" y1="410.8838" y2="410.8838"/><text fill="#000000" font-family="Georgia" font-size="11" lengthAdjust="spacing" textLength="49.4678" x="509.6604" y="406.4722">Not found</text></g><g class="message" data-entity-1="part3" data-entity-2="part3" id="msg8"><line style="stroke:#181818;stroke-width:2;" x1="492.6604" x2="534.6604" y1="437.3823" y2="437.3823"/><line style="stroke:#181818;stroke-width:2;" x1="534.6604" x2="534.6604" y1="437.3823" y2="450.3823"/><line style="stroke:#181818;stroke-width:2;" x1="493.6604" x2="534.6604" y1="450.3823" y2="450.3823"/><polygon fill="#181818" points="503.6604,446.3823,493.6604,450.3823,503.6604,454.3823,499.6604,450.3823" style="stroke:#181818;stroke-width:1;"/><text fill="#000000" font-family="Georgia" font-size="11" lengthAdjust="spacing" textLength="181.2583" x="499.6604" y="432.9707">Log error; fall back to default weights</text></g><g class="message" data-entity-1="part3" data-entity-2="part2" id="msg9"><polygon fill="#181818" points="256.905,497.8779,246.905,501.8779,256.905,505.8779,252.905,501.8779" style="stroke:#181818;stroke-width:1;"/><line style="stroke:#181818;stroke-width:2;stroke-dasharray:2,2;" x1="250.905" x2="491.6604" y1="501.8779" y2="501.8779"/><text fill="#000000" font-family="Georgia" font-size="11" lengthAdjust="spacing" textLength="38.124" x="262.905" y="472.4692">200 OK</text><text fill="#000000" font-family="Georgia" font-size="11" lengthAdjust="spacing" textLength="124.8457" x="262.905" y="484.9678">{weights: defaultWeights,</text><text fill="#000000" font-family="Georgia" font-size="11" lengthAdjust="spacing" textLength="222.7554" x="262.905" y="497.4663">warning: "Preset unavailable; using defaults"}</text></g><g class="message" data-entity-1="part2" data-entity-2="part1" id="msg10"><polygon fill="#181818" points="72.9485,524.3765,62.9485,528.3765,72.9485,532.3765,68.9485,528.3765" style="stroke:#181818;stroke-width:1;"/><line style="stroke:#181818;stroke-width:2;stroke-dasharray:2,2;" x1="66.9485" x2="244.905" y1="528.3765" y2="528.3765"/><text fill="#000000" font-family="Georgia" font-size="11" lengthAdjust="spacing" textLength="159.9565" x="78.9485" y="523.9648">Notify fallback to default weights</text></g><line style="stroke:#000000;stroke-width:1;stroke-dasharray:2,2;" x1="10" x2="819.0271" y1="537.3765" y2="537.3765"/><text fill="#000000" font-family="Georgia" font-size="11" font-weight="bold" lengthAdjust="spacing" textLength="82.2905" x="15" y="547.4634">[Preset found]</text><g class="message" data-entity-1="part3" data-entity-2="part3" id="msg11"><line style="stroke:#181818;stroke-width:2;" x1="492.6604" x2="534.6604" y1="606.8691" y2="606.8691"/><line style="stroke:#181818;stroke-width:2;" x1="534.6604" x2="534.6604" y1="606.8691" y2="619.8691"/><line style="stroke:#181818;stroke-width:2;" x1="493.6604" x2="534.6604" y1="619.8691" y2="619.8691"/><polygon fill="#181818" points="503.6604,615.8691,493.6604,619.8691,503.6604,623.8691,499.6604,619.8691" style="stroke:#181818;stroke-width:1;"/><text fill="#000000" font-family="Georgia" font-size="11" lengthAdjust="spacing" textLength="154.6982" x="499.6604" y="564.9619">Apply preset weights to session:</text><text fill="#000000" font-family="Georgia" font-size="11" lengthAdjust="spacing" textLength="94.6816" x="499.6604" y="577.4604">(e.g., Holiday Peak:</text><text fill="#000000" font-family="Georgia" font-size="11" lengthAdjust="spacing" textLength="189.707" x="499.6604" y="589.959">Accessibility: 40%, Demographic: 35%,</text><text fill="#000000" font-family="Georgia" font-size="11" lengthAdjust="spacing" textLength="154.6982" x="499.6604" y="602.4575">Rental: 15%, Competition: 10%)</text></g><g class="message" data-entity-1="part3" data-entity-2="part4" id="msg12"><polygon fill="#181818" points="684.3674,667.3647,694.3674,671.3647,684.3674,675.3647,688.3674,671.3647" style="stroke:#181818;stroke-width:1;"/><line style="stroke:#181818;stroke-width:2;" x1="492.6604" x2="690.3674" y1="671.3647" y2="671.3647"/><text fill="#000000" font-family="Georgia" font-size="11" lengthAdjust="spacing" textLength="88.7573" x="499.6604" y="641.9561">Recalculate scores</text><text fill="#000000" font-family="Georgia" font-size="11" lengthAdjust="spacing" textLength="144.418" x="499.6604" y="654.4546">{activeProfileId, newWeights,</text><text fill="#000000" font-family="Georgia" font-size="11" lengthAdjust="spacing" textLength="145.2988" x="499.6604" y="666.9531">currentViewAreas, activePOI}</text></g><g class="message" data-entity-1="part4" data-entity-2="part3" id="msg13"><polygon fill="#181818" points="503.6604,706.3618,493.6604,710.3618,503.6604,714.3618,499.6604,710.3618" style="stroke:#181818;stroke-width:1;"/><line style="stroke:#181818;stroke-width:2;stroke-dasharray:2,2;" x1="497.6604" x2="695.3674" y1="710.3618" y2="710.3618"/><text fill="#000000" font-family="Georgia" font-size="11" lengthAdjust="spacing" textLength="74.8032" x="509.6604" y="693.4517">Updated scores</text><text fill="#000000" font-family="Georgia" font-size="11" lengthAdjust="spacing" textLength="164.9785" x="509.6604" y="705.9502">(map overlay, POI, portfolio sites)</text></g><g class="message" data-entity-1="part3" data-entity-2="part2" id="msg14"><polygon fill="#181818" points="256.905,757.8574,246.905,761.8574,256.905,765.8574,252.905,761.8574" style="stroke:#181818;stroke-width:1;"/><line style="stroke:#181818;stroke-width:2;stroke-dasharray:2,2;" x1="250.905" x2="491.6604" y1="761.8574" y2="761.8574"/><text fill="#000000" font-family="Georgia" font-size="11" lengthAdjust="spacing" textLength="38.124" x="262.905" y="732.4487">200 OK</text><text fill="#000000" font-family="Georgia" font-size="11" lengthAdjust="spacing" textLength="160.832" x="262.905" y="744.9473">{appliedWeights, updatedScores,</text><text fill="#000000" font-family="Georgia" font-size="11" lengthAdjust="spacing" textLength="105.3325" x="262.905" y="757.4458">updatedOverlayData}</text></g><g class="message" data-entity-1="part2" data-entity-2="part1" id="msg15"><polygon fill="#181818" points="72.9485,809.353,62.9485,813.353,72.9485,817.353,68.9485,813.353" style="stroke:#181818;stroke-width:1;"/><line style="stroke:#181818;stroke-width:2;stroke-dasharray:2,2;" x1="66.9485" x2="244.905" y1="813.353" y2="813.353"/><text fill="#000000" font-family="Georgia" font-size="11" lengthAdjust="spacing" textLength="135.9639" x="78.9485" y="783.9443">Update map overlay colours</text><text fill="#000000" font-family="Georgia" font-size="11" lengthAdjust="spacing" textLength="144.5093" x="78.9485" y="796.4429">Refresh POI score breakdown</text><text fill="#000000" font-family="Georgia" font-size="11" lengthAdjust="spacing" textLength="142.6885" x="78.9485" y="808.9414">Update weight display sliders</text></g><?plantuml-src TLJRQjj047tNLmo6G0A-ftrHQ8fZAqre4XihQGfrAMDfx2nUxwgxgvYq1Fej_RH-IMTrIUmsCHYadJEpPywSaHDE4jmCM_r-2359IXp42IaqGiF4a2KN17ObL8O6rs3fUqugeO4nUdDz9vAL8ckXlmKnEbTfeeqY0xtkLY2b1URIdMhbhd1Dy86qMGfy6H6B7mIzNX1WuhI1neqbCrFxWswlC-Zs-Nzuq02quCy3pdOY4Hag1urJm-caKaPFYRDBt6cqYph1P5M21jqt9OGVTZ4nTo7K4YAr58eAJ1m5AJgSeoLeZEgdpamDjLg8PO4PdGI1fmMjOxuMGXXdfC3Mejf2P6q2ZhKOKa1360cRINo0hD0STEQ4LZQSgJ-_ViELDckKq84pBKNAg0dXgWnDKAMq5Wa7HoJ5FPa7EDL9RilmK5lNYl7Uzt6fK_g7MZLnhA-jMR8kr5wscz1uyUh6GS7-s6l6LIRZ-1ewc8bEdTyfwytKp_h4Zxp9r-Y5a7IUFWQ1p-KIenFF8xg8XjUm8R6ySpojwVZoYSktiXOtT7iMJIDGtZplu7t0cQrd3cK3PGL8Yd7a1hsAR2AvvUgT6Ao5jLwSByKEjAFFxTxN0FYtK_rAErXuOnUXYdaPkj1B85u7SmGBb1Bcx2nmkZPptTDpOgrzlzk5yKUMg4A4TSfj-TwSgGqQnUH2Q5JjvGhlKKYSIpg2l21U9Td6Ot75hgkOjrWy5CHUuqMI7LoLVwN5GPR99sVMCtBUogoTLk6JMxOzmgU39F68kP32FOJmfhlNP9EkzT9Wnj-E40xVxd6NKr8EPGWzVcF3hZDomi-6Jxfx1y4sdzWBDwK4PP9BTCGcqKoBHUHDP_DFQdyrGT7cMSWaDuPl-IHeCp24jWaLVdnUoXP7MzE-oNZ9ANqglh_633Il5Yzeazr-paRMnYsuMnP1EBBRBF-RBx9yWjAQ3UHb-RYepkIgzt5vWV-gl3JAaXHiKM4dIvqRwnLSSAaxJwqa3NFkSfNgZPgfAh7QZBJwpbYU51aUFm_yBm00?></g></svg>