<?plantuml 1.2026.2?><svg xmlns="http://www.w3.org/2000/svg" xmlns:xlink="http://www.w3.org/1999/xlink" contentStyleType="text/css" data-diagram-type="SEQUENCE" height="987px" preserveAspectRatio="none" style="width:894px;height:987px;background:#FFFFFF;" version="1.1" viewBox="0 0 894 987" width="894px" zoomAndPan="magnify"><title>UC-21: Export Comparison Report (PDF)</title><defs/><g><text fill="#000000" font-family="Georgia" font-size="14" font-weight="bold" lengthAdjust="spacing" textLength="293.4258" x="297.5447" y="27.8379">UC-21: Export Comparison Report (PDF)</text><rect fill="none" height="329.478" rx="5" ry="5" style="stroke:#000000;stroke-width:1.5;" width="823.6182" x="10" y="551.3735"/><g class="participant-lifeline" data-entity-uid="part1" data-qualified-name="User" id="part1-lifeline"><g><title>User</title><rect fill="#000000" fill-opacity="0.00000" height="770.9473" width="8" x="57.9485" y="126.9043"/><line style="stroke:#181818;stroke-width:0.5;stroke-dasharray:5,5;" x1="61" x2="61" y1="126.9043" y2="897.8516"/></g></g><g class="participant-lifeline" data-entity-uid="part2" data-qualified-name="FE" id="part2-lifeline"><g><title>Frontend</title><rect fill="#000000" fill-opacity="0.00000" height="770.9473" width="8" x="279.1965" y="126.9043"/><line style="stroke:#181818;stroke-width:0.5;stroke-dasharray:5,5;" x1="282.4688" x2="282.4688" y1="126.9043" y2="897.8516"/></g></g><g class="participant-lifeline" data-entity-uid="part3" data-qualified-name="A04" id="part3-lifeline"><g><title>Backend</title><rect fill="#000000" fill-opacity="0.00000" height="770.9473" width="8" x="549.8318" y="126.9043"/><line style="stroke:#181818;stroke-width:0.5;stroke-dasharray:5,5;" x1="552.9543" x2="552.9543" y1="126.9043" y2="897.8516"/></g></g><g class="participant-lifeline" data-entity-uid="part4" data-qualified-name="PDF" id="part4-lifeline"><g><title>PDF Engine</title><rect fill="#000000" fill-opacity="0.00000" height="770.9473" width="8" x="759.5706" y="126.9043"/><line style="stroke:#181818;stroke-width:0.5;stroke-dasharray:5,5;" x1="763.5229" x2="763.5229" y1="126.9043" y2="897.8516"/></g></g><g class="participant-lifeline" data-entity-uid="part5" data-qualified-name="DB" id="part5-lifeline"><g><title>Database</title><rect fill="#000000" fill-opacity="0.00000" height="770.9473" width="8" x="855.0667" y="126.9043"/><line style="stroke:#181818;stroke-width:0.5;stroke-dasharray:5,5;" x1="858.6182" x2="858.6182" y1="126.9043" y2="897.8516"/></g></g><g class="participant participant-head" data-entity-uid="part1" data-qualified-name="User" id="part1-head"><text fill="#000000" font-family="Georgia" font-size="11" lengthAdjust="spacing" textLength="22.897" x="47.5" y="111.9941">User</text><text fill="#000000" font-family="Georgia" font-size="11" lengthAdjust="spacing" textLength="77.897" x="20" y="124.4927">(A01/A02/A03)</text><ellipse cx="61.9485" cy="50.4072" fill="#E2E2F0" rx="8" ry="8" style="stroke:#181818;stroke-width:0.5;"/><path d="M61.9485,58.4072 L61.9485,85.4072 M48.9485,66.4072 L74.9485,66.4072 M61.9485,85.4072 L48.9485,100.4072 M61.9485,85.4072 L74.9485,100.4072" fill="none" style="stroke:#181818;stroke-width:0.5;"/></g><g class="participant participant-tail" data-entity-uid="part1" data-qualified-name="User" id="part1-tail"><text fill="#000000" font-family="Georgia" font-size="11" lengthAdjust="spacing" textLength="22.897" x="47.5" y="906.9385">User</text><text fill="#000000" font-family="Georgia" font-size="11" lengthAdjust="spacing" textLength="77.897" x="20" y="919.437">(A01/A02/A03)</text><ellipse cx="61.9485" cy="930.3486" fill="#E2E2F0" rx="8" ry="8" style="stroke:#181818;stroke-width:0.5;"/><path d="M61.9485,938.3486 L61.9485,965.3486 M48.9485,946.3486 L74.9485,946.3486 M61.9485,965.3486 L48.9485,980.3486 M61.9485,965.3486 L74.9485,980.3486" fill="none" style="stroke:#181818;stroke-width:0.5;"/></g><g class="participant participant-head" data-entity-uid="part2" data-qualified-name="FE" id="part2-head"><rect fill="#E2E2F0" height="38.9971" rx="5" ry="5" style="stroke:#181818;stroke-width:0.5;" width="59.4556" x="253.4688" y="86.9072"/><text fill="#000000" font-family="Georgia" font-size="11" lengthAdjust="spacing" textLength="45.4556" x="260.4688" y="103.9941">Frontend</text><text fill="#000000" font-family="Georgia" font-size="11" lengthAdjust="spacing" textLength="35.6211" x="265.386" y="116.4927">(React)</text></g><g class="participant participant-tail" data-entity-uid="part2" data-qualified-name="FE" id="part2-tail"><rect fill="#E2E2F0" height="38.9971" rx="5" ry="5" style="stroke:#181818;stroke-width:0.5;" width="59.4556" x="253.4688" y="896.8516"/><text fill="#000000" font-family="Georgia" font-size="11" lengthAdjust="spacing" textLength="45.4556" x="260.4688" y="913.9385">Frontend</text><text fill="#000000" font-family="Georgia" font-size="11" lengthAdjust="spacing" textLength="35.6211" x="265.386" y="926.437">(React)</text></g><g class="participant participant-head" data-entity-uid="part3" data-qualified-name="A04" id="part3-head"><rect fill="#E2E2F0" height="38.9971" rx="5" ry="5" style="stroke:#181818;stroke-width:0.5;" width="55.7549" x="525.9543" y="86.9072"/><text fill="#000000" font-family="Georgia" font-size="11" lengthAdjust="spacing" textLength="41.7549" x="532.9543" y="103.9941">Backend</text><text fill="#000000" font-family="Georgia" font-size="11" lengthAdjust="spacing" textLength="28.5957" x="539.5339" y="116.4927">(A04)</text></g><g class="participant participant-tail" data-entity-uid="part3" data-qualified-name="A04" id="part3-tail"><rect fill="#E2E2F0" height="38.9971" rx="5" ry="5" style="stroke:#181818;stroke-width:0.5;" width="55.7549" x="525.9543" y="896.8516"/><text fill="#000000" font-family="Georgia" font-size="11" lengthAdjust="spacing" textLength="41.7549" x="532.9543" y="913.9385">Backend</text><text fill="#000000" font-family="Georgia" font-size="11" lengthAdjust="spacing" textLength="28.5957" x="539.5339" y="926.437">(A04)</text></g><g class="participant participant-head" data-entity-uid="part4" data-qualified-name="PDF" id="part4-head"><rect fill="#E2E2F0" height="38.9971" rx="5" ry="5" style="stroke:#181818;stroke-width:0.5;" width="120.0952" x="703.5229" y="86.9072"/><text fill="#000000" font-family="Georgia" font-size="11" lengthAdjust="spacing" textLength="58.5181" x="734.3115" y="103.9941">PDF Engine</text><text fill="#000000" font-family="Georgia" font-size="11" lengthAdjust="spacing" textLength="106.0952" x="710.5229" y="116.4927">(PDFKit/WeasyPrint)</text></g><g class="participant participant-tail" data-entity-uid="part4" data-qualified-name="PDF" id="part4-tail"><rect fill="#E2E2F0" height="38.9971" rx="5" ry="5" style="stroke:#181818;stroke-width:0.5;" width="120.0952" x="703.5229" y="896.8516"/><text fill="#000000" font-family="Georgia" font-size="11" lengthAdjust="spacing" textLength="58.5181" x="734.3115" y="913.9385">PDF Engine</text><text fill="#000000" font-family="Georgia" font-size="11" lengthAdjust="spacing" textLength="106.0952" x="710.5229" y="926.437">(PDFKit/WeasyPrint)</text></g><g class="participant participant-head" data-entity-uid="part5" data-qualified-name="DB" id="part5-head"><text fill="#000000" font-family="Georgia" font-size="11" lengthAdjust="spacing" textLength="44.897" x="833.6182" y="124.4927">Database</text><path d="M841.0667,78.4058 C841.0667,68.4058 859.0667,68.4058 859.0667,68.4058 C859.0667,68.4058 877.0667,68.4058 877.0667,78.4058 L877.0667,104.4058 C877.0667,114.4058 859.0667,114.4058 859.0667,114.4058 C859.0667,114.4058 841.0667,114.4058 841.0667,104.4058 L841.0667,78.4058" fill="#E2E2F0" style="stroke:#181818;stroke-width:0.5;"/><path d="M841.0667,78.4058 C841.0667,88.4058 859.0667,88.4058 859.0667,88.4058 C859.0667,88.4058 877.0667,88.4058 877.0667,78.4058" fill="none" style="stroke:#181818;stroke-width:0.5;"/></g><g class="participant participant-tail" data-entity-uid="part5" data-qualified-name="DB" id="part5-tail"><text fill="#000000" font-family="Georgia" font-size="11" lengthAdjust="spacing" textLength="44.897" x="833.6182" y="906.9385">Database</text><path d="M841.0667,919.3501 C841.0667,909.3501 859.0667,909.3501 859.0667,909.3501 C859.0667,909.3501 877.0667,909.3501 877.0667,919.3501 L877.0667,945.3501 C877.0667,955.3501 859.0667,955.3501 859.0667,955.3501 C859.0667,955.3501 841.0667,955.3501 841.0667,945.3501 L841.0667,919.3501" fill="#E2E2F0" style="stroke:#181818;stroke-width:0.5;"/><path d="M841.0667,919.3501 C841.0667,929.3501 859.0667,929.3501 859.0667,929.3501 C859.0667,929.3501 877.0667,929.3501 877.0667,919.3501" fill="none" style="stroke:#181818;stroke-width:0.5;"/></g><path d="M28,146.9043 L28,170.9043 A5,5 0 0 0 33,175.9043 L310,175.9043 A5,5 0 0 0 315,170.9043 L315,151.9043 L305,141.9043 L33,141.9043 A5,5 0 0 0 28,146.9043" fill="#FEFFDD" style="stroke:#181818;stroke-width:0.5;"/><path d="M305,141.9043 L305,149.4043 A2.5,2.5 0 0 0 307.5,151.9043 L315,151.9043 L305,141.9043" fill="#FEFFDD" style="stroke:#181818;stroke-width:0.5;"/><text fill="#000000" font-family="Georgia" font-size="11" lengthAdjust="spacing" textLength="182.5796" x="74.1501" y="156.9912">Precondition: Comparison dashboard</text><text fill="#000000" font-family="Georgia" font-size="11" lengthAdjust="spacing" textLength="186.624" x="74.1501" y="169.4897">populated with 2-3 sites (UC-20 done)</text><g class="message" data-entity-1="part1" data-entity-2="part2" id="msg1"><polygon fill="#181818" points="271.1965,196.3999,281.1965,200.3999,271.1965,204.3999,275.1965,200.3999" style="stroke:#181818;stroke-width:1;"/><line style="stroke:#181818;stroke-width:2;" x1="61.9485" x2="277.1965" y1="200.3999" y2="200.3999"/><text fill="#000000" font-family="Georgia" font-size="11" lengthAdjust="spacing" textLength="93.4785" x="68.9485" y="195.9883">Click "Export PDF"</text></g><g class="message" data-entity-1="part2" data-entity-2="part3" id="msg2"><polygon fill="#181818" points="541.8318,235.397,551.8318,239.397,541.8318,243.397,545.8318,239.397" style="stroke:#181818;stroke-width:1;"/><line style="stroke:#181818;stroke-width:2;" x1="283.1965" x2="547.8318" y1="239.397" y2="239.397"/><text fill="#000000" font-family="Georgia" font-size="11" lengthAdjust="spacing" textLength="134.6963" x="290.1965" y="222.4868">POST /api/compare/export</text><text fill="#000000" font-family="Georgia" font-size="11" lengthAdjust="spacing" textLength="161.251" x="290.1965" y="234.9854">{siteIds: [id1, id2, id3], profileId}</text></g><g class="message" data-entity-1="part3" data-entity-2="part5" id="msg3"><polygon fill="#181818" points="847.0667,286.8926,857.0667,290.8926,847.0667,294.8926,851.0667,290.8926" style="stroke:#181818;stroke-width:1;"/><line style="stroke:#181818;stroke-width:2;" x1="553.8318" x2="853.0667" y1="290.8926" y2="290.8926"/><text fill="#000000" font-family="Georgia" font-size="11" lengthAdjust="spacing" textLength="172.9224" x="560.8318" y="261.4839">SELECT site_name, address, notes,</text><text fill="#000000" font-family="Georgia" font-size="11" lengthAdjust="spacing" textLength="193.2358" x="560.8318" y="273.9824">all scores, scenario_weights, created_at</text><text fill="#000000" font-family="Georgia" font-size="11" lengthAdjust="spacing" textLength="203.6235" x="560.8318" y="286.481">FROM candidate_sites WHERE id IN (...)</text></g><g class="message" data-entity-1="part5" data-entity-2="part3" id="msg4"><polygon fill="#181818" points="564.8318,313.3911,554.8318,317.3911,564.8318,321.3911,560.8318,317.3911" style="stroke:#181818;stroke-width:1;"/><line style="stroke:#181818;stroke-width:2;stroke-dasharray:2,2;" x1="558.8318" x2="858.0667" y1="317.3911" y2="317.3911"/><text fill="#000000" font-family="Georgia" font-size="11" lengthAdjust="spacing" textLength="103.0713" x="570.8318" y="312.9795">Full comparison data</text></g><g class="message" data-entity-1="part3" data-entity-2="part5" id="msg5"><polygon fill="#181818" points="847.0667,364.8867,857.0667,368.8867,847.0667,372.8867,851.0667,368.8867" style="stroke:#181818;stroke-width:1;"/><line style="stroke:#181818;stroke-width:2;" x1="553.8318" x2="853.0667" y1="368.8867" y2="368.8867"/><text fill="#000000" font-family="Georgia" font-size="11" lengthAdjust="spacing" textLength="170.1724" x="560.8318" y="339.478">SELECT name, sector, price_band,</text><text fill="#000000" font-family="Georgia" font-size="11" lengthAdjust="spacing" textLength="206.6099" x="560.8318" y="351.9766">age_groups, income_bands, reliance_type</text><text fill="#000000" font-family="Georgia" font-size="11" lengthAdjust="spacing" textLength="195.2231" x="560.8318" y="364.4751">FROM business_profiles WHERE id = ?</text></g><g class="message" data-entity-1="part5" data-entity-2="part3" id="msg6"><polygon fill="#181818" points="564.8318,391.3853,554.8318,395.3853,564.8318,399.3853,560.8318,395.3853" style="stroke:#181818;stroke-width:1;"/><line style="stroke:#181818;stroke-width:2;stroke-dasharray:2,2;" x1="558.8318" x2="858.0667" y1="395.3853" y2="395.3853"/><text fill="#000000" font-family="Georgia" font-size="11" lengthAdjust="spacing" textLength="112.2075" x="570.8318" y="390.9736">Business profile details</text></g><g class="message" data-entity-1="part3" data-entity-2="part3" id="msg7"><line style="stroke:#181818;stroke-width:2;" x1="553.8318" x2="595.8318" y1="484.3765" y2="484.3765"/><line style="stroke:#181818;stroke-width:2;" x1="595.8318" x2="595.8318" y1="484.3765" y2="497.3765"/><line style="stroke:#181818;stroke-width:2;" x1="554.8318" x2="595.8318" y1="497.3765" y2="497.3765"/><polygon fill="#181818" points="564.8318,493.3765,554.8318,497.3765,564.8318,501.3765,560.8318,497.3765" style="stroke:#181818;stroke-width:1;"/><text fill="#000000" font-family="Georgia" font-size="11" lengthAdjust="spacing" textLength="140.7656" x="560.8318" y="417.4722">Compile PDF report content:</text><text fill="#000000" font-family="Georgia" font-size="11" lengthAdjust="spacing" textLength="195.7388" x="560.8318" y="429.9707">- Report header + generation timestamp</text><text fill="#000000" font-family="Georgia" font-size="11" lengthAdjust="spacing" textLength="132.8003" x="560.8318" y="442.4692">- Business profile summary</text><text fill="#000000" font-family="Georgia" font-size="11" lengthAdjust="spacing" textLength="183.2725" x="560.8318" y="454.9678">- Comparison table (all 4 dimensions)</text><text fill="#000000" font-family="Georgia" font-size="11" lengthAdjust="spacing" textLength="123.8413" x="560.8318" y="467.4663">- Chart data (bar + radar)</text><text fill="#000000" font-family="Georgia" font-size="11" lengthAdjust="spacing" textLength="178.8843" x="560.8318" y="479.9648">- Per-site details (coordinates, notes)</text></g><g class="message" data-entity-1="part3" data-entity-2="part4" id="msg8"><polygon fill="#181818" points="751.5706,532.3735,761.5706,536.3735,751.5706,540.3735,755.5706,536.3735" style="stroke:#181818;stroke-width:1;"/><line style="stroke:#181818;stroke-width:2;" x1="553.8318" x2="757.5706" y1="536.3735" y2="536.3735"/><text fill="#000000" font-family="Georgia" font-size="11" lengthAdjust="spacing" textLength="140.3682" x="560.8318" y="519.4634">Generate PDF from template</text><text fill="#000000" font-family="Georgia" font-size="11" lengthAdjust="spacing" textLength="78.4824" x="560.8318" y="531.9619">+ compiled data</text></g><path d="M15,551.3735 L69.7114,551.3735 L69.7114,555.8721 L59.7114,565.8721 L10,565.8721 L10,556.3735 A5,5 0 0 1 15,551.3735" fill="#EEEEEE" style="stroke:#000000;stroke-width:1.5;"/><rect fill="none" height="329.478" rx="5" ry="5" style="stroke:#000000;stroke-width:1.5;" width="823.6182" x="10" y="551.3735"/><text fill="#000000" font-family="Georgia" font-size="11" font-weight="bold" lengthAdjust="spacing" textLength="14.7114" x="25" y="562.4604">alt</text><text fill="#000000" font-family="Georgia" font-size="11" font-weight="bold" lengthAdjust="spacing" textLength="278.8672" x="84.7114" y="563.4604">[PDF generation fails [UC-21.EX.1] (&gt; 5 seconds)]</text><g class="message" data-entity-1="part4" data-entity-2="part3" id="msg9"><polygon fill="#181818" points="564.8318,580.3706,554.8318,584.3706,564.8318,588.3706,560.8318,584.3706" style="stroke:#181818;stroke-width:1;"/><line style="stroke:#181818;stroke-width:2;stroke-dasharray:2,2;" x1="558.8318" x2="762.5706" y1="584.3706" y2="584.3706"/><text fill="#000000" font-family="Georgia" font-size="11" lengthAdjust="spacing" textLength="78.187" x="570.8318" y="579.959">Error / Timeout</text></g><g class="message" data-entity-1="part3" data-entity-2="part3" id="msg10"><line style="stroke:#181818;stroke-width:2;" x1="553.8318" x2="595.8318" y1="610.8691" y2="610.8691"/><line style="stroke:#181818;stroke-width:2;" x1="595.8318" x2="595.8318" y1="610.8691" y2="623.8691"/><line style="stroke:#181818;stroke-width:2;" x1="554.8318" x2="595.8318" y1="623.8691" y2="623.8691"/><polygon fill="#181818" points="564.8318,619.8691,554.8318,623.8691,564.8318,627.8691,560.8318,623.8691" style="stroke:#181818;stroke-width:1;"/><text fill="#000000" font-family="Georgia" font-size="11" lengthAdjust="spacing" textLength="45.5898" x="560.8318" y="606.4575">Log error</text></g><g class="message" data-entity-1="part3" data-entity-2="part2" id="msg11"><polygon fill="#181818" points="294.1965,658.8662,284.1965,662.8662,294.1965,666.8662,290.1965,662.8662" style="stroke:#181818;stroke-width:1;"/><line style="stroke:#181818;stroke-width:2;stroke-dasharray:2,2;" x1="288.1965" x2="552.8318" y1="662.8662" y2="662.8662"/><text fill="#000000" font-family="Georgia" font-size="11" lengthAdjust="spacing" textLength="124.7866" x="300.1965" y="645.9561">500 Internal Server Error</text><text fill="#000000" font-family="Georgia" font-size="11" lengthAdjust="spacing" textLength="233.1592" x="300.1965" y="658.4546">{error: "Report generation failed. Please retry."}</text></g><g class="message" data-entity-1="part2" data-entity-2="part1" id="msg12"><polygon fill="#181818" points="72.9485,685.3647,62.9485,689.3647,72.9485,693.3647,68.9485,689.3647" style="stroke:#181818;stroke-width:1;"/><line style="stroke:#181818;stroke-width:2;stroke-dasharray:2,2;" x1="66.9485" x2="282.1965" y1="689.3647" y2="689.3647"/><text fill="#000000" font-family="Georgia" font-size="11" lengthAdjust="spacing" textLength="124.271" x="78.9485" y="684.9531">Show error + retry option</text></g><line style="stroke:#000000;stroke-width:1;stroke-dasharray:2,2;" x1="10" x2="833.6182" y1="698.3647" y2="698.3647"/><text fill="#000000" font-family="Georgia" font-size="11" font-weight="bold" lengthAdjust="spacing" textLength="164.291" x="15" y="708.4517">[PDF generated successfully]</text><g class="message" data-entity-1="part4" data-entity-2="part3" id="msg13"><polygon fill="#181818" points="564.8318,726.3618,554.8318,730.3618,564.8318,734.3618,560.8318,730.3618" style="stroke:#181818;stroke-width:1;"/><line style="stroke:#181818;stroke-width:2;stroke-dasharray:2,2;" x1="558.8318" x2="762.5706" y1="730.3618" y2="730.3618"/><text fill="#000000" font-family="Georgia" font-size="11" lengthAdjust="spacing" textLength="122.9497" x="570.8318" y="725.9502">PDF binary / byte stream</text></g><g class="message" data-entity-1="part3" data-entity-2="part2" id="msg14"><polygon fill="#181818" points="294.1965,790.356,284.1965,794.356,294.1965,798.356,290.1965,794.356" style="stroke:#181818;stroke-width:1;"/><line style="stroke:#181818;stroke-width:2;stroke-dasharray:2,2;" x1="288.1965" x2="552.8318" y1="794.356" y2="794.356"/><text fill="#000000" font-family="Georgia" font-size="11" lengthAdjust="spacing" textLength="38.124" x="300.1965" y="752.4487">200 OK</text><text fill="#000000" font-family="Georgia" font-size="11" lengthAdjust="spacing" textLength="148.731" x="300.1965" y="764.9473">Content-Type: application/pdf</text><text fill="#000000" font-family="Georgia" font-size="11" lengthAdjust="spacing" textLength="163.7808" x="300.1965" y="777.4458">Content-Disposition: attachment;</text><text fill="#000000" font-family="Georgia" font-size="11" lengthAdjust="spacing" textLength="246.6353" x="300.1965" y="789.9443">filename="SmartLocate_Comparison_Report.pdf"</text></g><g class="message" data-entity-1="part2" data-entity-2="part2" id="msg15"><line style="stroke:#181818;stroke-width:2;" x1="283.1965" x2="325.1965" y1="820.8545" y2="820.8545"/><line style="stroke:#181818;stroke-width:2;" x1="325.1965" x2="325.1965" y1="820.8545" y2="833.8545"/><line style="stroke:#181818;stroke-width:2;" x1="284.1965" x2="325.1965" y1="833.8545" y2="833.8545"/><polygon fill="#181818" points="294.1965,829.8545,284.1965,833.8545,294.1965,837.8545,290.1965,833.8545" style="stroke:#181818;stroke-width:1;"/><text fill="#000000" font-family="Georgia" font-size="11" lengthAdjust="spacing" textLength="145.8628" x="290.1965" y="816.4429">Trigger browser file download</text></g><g class="message" data-entity-1="part2" data-entity-2="part1" id="msg16"><polygon fill="#181818" points="72.9485,868.8516,62.9485,872.8516,72.9485,876.8516,68.9485,872.8516" style="stroke:#181818;stroke-width:1;"/><line style="stroke:#181818;stroke-width:2;stroke-dasharray:2,2;" x1="66.9485" x2="282.1965" y1="872.8516" y2="872.8516"/><text fill="#000000" font-family="Georgia" font-size="11" lengthAdjust="spacing" textLength="106.1919" x="78.9485" y="855.9414">PDF download begins</text><text fill="#000000" font-family="Georgia" font-size="11" lengthAdjust="spacing" textLength="197.248" x="78.9485" y="868.4399">"SmartLocate_Comparison_Report.pdf"</text></g><?plantuml-src ZLLTRnit47o_Nx6u9mdHjvCN5KbXwwCruiQ2fI05ea2WZYk9y8cyabHLjSX_x-pToPORFzI0BTtjSdTcTfQE9kPCdqVjGNz8axyAvoEDtBvGtWHdwO7BDutPUDfCal1eB29gJu7_EB3D-DfxTrpiJFPeEGGQNAHuTx0wSzwoftxl8g1vemvvd3eRFwazqo_i_DQerpFcvc-cVZz9L1QTf_HpOB-qZUjUltlT6-3tgfcI2YJl4voE9ZE5if7IgSTnjXhP3upJLTvqyZBhHcMFLT9rxssLWYylSq2U9dPhB2CD3nzDx7vX5KupRsnT5wyJhQ9Qgy2KZkjlPMXyaoJMHIRt9wGGe2t0e27DF6VEQXEDiyDBrRKAkxLJ7h0ALnno5LdJqSGT3TfN54paG0sPMO-qiup9I5LgVwZgZdBCWz9wca2M9dYFA9X9s_lvWhggCDsiRCbTBZENzXyfVQl3aBuQtM-HqGFvS_MjHOLt6vCZ-3r9f0ogZMzGR3wvcumM9QQLnJHRfBJsy4ABX7DeBQtASmem0XxmoHOatUh8PhkBU9Dv5dehXVxJX_lVA5EG15BogYBwvTV9mmGewFOJDJgTJZD1u_OJc-a1vRDBxQ9w5MA5Bh3uIFYOZ5Thz1A4MrvjuTS2U8n5iIg29y-vKV3vAfuAhW6k3y68srUr9XSGtzFFBz7TrBbd_M3jg4mUdX1MQJ9xYOhJVBLoMUdUE5pQzdaBTwmqnlo6jeobKc8RYcRF8Qfz8Na_T0k7_LxvayGkx0Ll8jQGkRmbZG8se5HebcaxEByKaHfh9SsyqigNiHdxjipaJ88QcNDU6wjaqDMycq_CXCiGorr2hQXjlDjJv7qXZbxQD-NSW5FNKrDvQTTBVfkoqTVoWkfCVk_qlr7Z0xsJEM9rq8xm8sUUDP_WJlBKfGMOkKCiCrweVUUsn9Bq73glphjUZsuXl8ThQSvUDhQiX-KeZmmfhQVn7v2iEpJBMTRVS_IdJlgzB2-RX-hbWiABEtUiUekoaaUka1e9vu4loKEKSCWoJ7C3XvzUuIbFQuYF6brQdw1nY5Yc_O-i1c1r_t5fHvMdsWkOUKYgA71Hb0owXTuyXySc52xKrvAAKMKxU2J-jBHYAjcZz-aSleftBfCzVRRMgjAcWt9fyaI_Hh7mPhk52clyon0rgdrmHvixfL_HIlYTmxHctBzXQVzFOzpdoRy0?></g></svg>