<?plantuml 1.2026.2?><svg xmlns="http://www.w3.org/2000/svg" xmlns:xlink="http://www.w3.org/1999/xlink" contentStyleType="text/css" data-diagram-type="SEQUENCE" height="916px" preserveAspectRatio="none" style="width:885px;height:916px;background:#FFFFFF;" version="1.1" viewBox="0 0 885 916" width="885px" zoomAndPan="magnify"><title>UC-26: View Data Update Status (Dashboard)</title><defs/><g><text fill="#000000" font-family="Georgia" font-size="14" font-weight="bold" lengthAdjust="spacing" textLength="326.71" x="280.4941" y="27.8379">UC-26: View Data Update Status (Dashboard)</text><rect fill="none" height="485.4604" rx="5" ry="5" style="stroke:#000000;stroke-width:1.5;" width="868.6982" x="10" y="324.8896"/><g class="participant-lifeline" data-entity-uid="part1" data-qualified-name="User" id="part1-lifeline"><g><title>User</title><rect fill="#000000" fill-opacity="0.00000" height="700.4458" width="8" x="57.9485" y="126.9043"/><line style="stroke:#181818;stroke-width:0.5;stroke-dasharray:5,5;" x1="61" x2="61" y1="126.9043" y2="827.3501"/></g></g><g class="participant-lifeline" data-entity-uid="part2" data-qualified-name="FE" id="part2-lifeline"><g><title>Frontend</title><rect fill="#000000" fill-opacity="0.00000" height="700.4458" width="8" x="296.1907" y="126.9043"/><line style="stroke:#181818;stroke-width:0.5;stroke-dasharray:5,5;" x1="299.4629" x2="299.4629" y1="126.9043" y2="827.3501"/></g></g><g class="participant-lifeline" data-entity-uid="part3" data-qualified-name="A04" id="part3-lifeline"><g><title>Backend</title><rect fill="#000000" fill-opacity="0.00000" height="700.4458" width="8" x="564.2478" y="126.9043"/><line style="stroke:#181818;stroke-width:0.5;stroke-dasharray:5,5;" x1="567.3704" x2="567.3704" y1="126.9043" y2="827.3501"/></g></g><g class="participant-lifeline" data-entity-uid="part4" data-qualified-name="DB" id="part4-lifeline"><g><title>Database</title><rect fill="#000000" fill-opacity="0.00000" height="700.4458" width="8" x="834.4695" y="126.9043"/><line style="stroke:#181818;stroke-width:0.5;stroke-dasharray:5,5;" x1="838.2407" x2="838.2407" y1="126.9043" y2="827.3501"/></g></g><g class="participant participant-head" data-entity-uid="part1" data-qualified-name="User" id="part1-head"><text fill="#000000" font-family="Georgia" font-size="11" lengthAdjust="spacing" textLength="22.897" x="47.5" y="111.9941">User</text><text fill="#000000" font-family="Georgia" font-size="11" lengthAdjust="spacing" textLength="77.897" x="20" y="124.4927">(A01/A02/A03)</text><ellipse cx="61.9485" cy="50.4072" fill="#E2E2F0" rx="8" ry="8" style="stroke:#181818;stroke-width:0.5;"/><path d="M61.9485,58.4072 L61.9485,85.4072 M48.9485,66.4072 L74.9485,66.4072 M61.9485,85.4072 L48.9485,100.4072 M61.9485,85.4072 L74.9485,100.4072" fill="none" style="stroke:#181818;stroke-width:0.5;"/></g><g class="participant participant-tail" data-entity-uid="part1" data-qualified-name="User" id="part1-tail"><text fill="#000000" font-family="Georgia" font-size="11" lengthAdjust="spacing" textLength="22.897" x="47.5" y="836.437">User</text><text fill="#000000" font-family="Georgia" font-size="11" lengthAdjust="spacing" textLength="77.897" x="20" y="848.9355">(A01/A02/A03)</text><ellipse cx="61.9485" cy="859.8472" fill="#E2E2F0" rx="8" ry="8" style="stroke:#181818;stroke-width:0.5;"/><path d="M61.9485,867.8472 L61.9485,894.8472 M48.9485,875.8472 L74.9485,875.8472 M61.9485,894.8472 L48.9485,909.8472 M61.9485,894.8472 L74.9485,909.8472" fill="none" style="stroke:#181818;stroke-width:0.5;"/></g><g class="participant participant-head" data-entity-uid="part2" data-qualified-name="FE" id="part2-head"><rect fill="#E2E2F0" height="38.9971" rx="5" ry="5" style="stroke:#181818;stroke-width:0.5;" width="59.4556" x="270.4629" y="86.9072"/><text fill="#000000" font-family="Georgia" font-size="11" lengthAdjust="spacing" textLength="45.4556" x="277.4629" y="103.9941">Frontend</text><text fill="#000000" font-family="Georgia" font-size="11" lengthAdjust="spacing" textLength="35.6211" x="282.3801" y="116.4927">(React)</text></g><g class="participant participant-tail" data-entity-uid="part2" data-qualified-name="FE" id="part2-tail"><rect fill="#E2E2F0" height="38.9971" rx="5" ry="5" style="stroke:#181818;stroke-width:0.5;" width="59.4556" x="270.4629" y="826.3501"/><text fill="#000000" font-family="Georgia" font-size="11" lengthAdjust="spacing" textLength="45.4556" x="277.4629" y="843.437">Frontend</text><text fill="#000000" font-family="Georgia" font-size="11" lengthAdjust="spacing" textLength="35.6211" x="282.3801" y="855.9355">(React)</text></g><g class="participant participant-head" data-entity-uid="part3" data-qualified-name="A04" id="part3-head"><rect fill="#E2E2F0" height="38.9971" rx="5" ry="5" style="stroke:#181818;stroke-width:0.5;" width="55.7549" x="540.3704" y="86.9072"/><text fill="#000000" font-family="Georgia" font-size="11" lengthAdjust="spacing" textLength="41.7549" x="547.3704" y="103.9941">Backend</text><text fill="#000000" font-family="Georgia" font-size="11" lengthAdjust="spacing" textLength="28.5957" x="553.95" y="116.4927">(A04)</text></g><g class="participant participant-tail" data-entity-uid="part3" data-qualified-name="A04" id="part3-tail"><rect fill="#E2E2F0" height="38.9971" rx="5" ry="5" style="stroke:#181818;stroke-width:0.5;" width="55.7549" x="540.3704" y="826.3501"/><text fill="#000000" font-family="Georgia" font-size="11" lengthAdjust="spacing" textLength="41.7549" x="547.3704" y="843.437">Backend</text><text fill="#000000" font-family="Georgia" font-size="11" lengthAdjust="spacing" textLength="28.5957" x="553.95" y="855.9355">(A04)</text></g><g class="participant participant-head" data-entity-uid="part4" data-qualified-name="DB" id="part4-head"><text fill="#000000" font-family="Georgia" font-size="11" lengthAdjust="spacing" textLength="44.897" x="813.021" y="111.9941">Database</text><text fill="#000000" font-family="Georgia" font-size="11" lengthAdjust="spacing" textLength="54.4575" x="808.2407" y="124.4927">(ETL Logs)</text><path d="M820.4695,65.9072 C820.4695,55.9072 838.4695,55.9072 838.4695,55.9072 C838.4695,55.9072 856.4695,55.9072 856.4695,65.9072 L856.4695,91.9072 C856.4695,101.9072 838.4695,101.9072 838.4695,101.9072 C838.4695,101.9072 820.4695,101.9072 820.4695,91.9072 L820.4695,65.9072" fill="#E2E2F0" style="stroke:#181818;stroke-width:0.5;"/><path d="M820.4695,65.9072 C820.4695,75.9072 838.4695,75.9072 838.4695,75.9072 C838.4695,75.9072 856.4695,75.9072 856.4695,65.9072" fill="none" style="stroke:#181818;stroke-width:0.5;"/></g><g class="participant participant-tail" data-entity-uid="part4" data-qualified-name="DB" id="part4-tail"><text fill="#000000" font-family="Georgia" font-size="11" lengthAdjust="spacing" textLength="44.897" x="813.021" y="836.437">Database</text><text fill="#000000" font-family="Georgia" font-size="11" lengthAdjust="spacing" textLength="54.4575" x="808.2407" y="848.9355">(ETL Logs)</text><path d="M820.4695,861.3472 C820.4695,851.3472 838.4695,851.3472 838.4695,851.3472 C838.4695,851.3472 856.4695,851.3472 856.4695,861.3472 L856.4695,887.3472 C856.4695,897.3472 838.4695,897.3472 838.4695,897.3472 C838.4695,897.3472 820.4695,897.3472 820.4695,887.3472 L820.4695,861.3472" fill="#E2E2F0" style="stroke:#181818;stroke-width:0.5;"/><path d="M820.4695,861.3472 C820.4695,871.3472 838.4695,871.3472 838.4695,871.3472 C838.4695,871.3472 856.4695,871.3472 856.4695,861.3472" fill="none" style="stroke:#181818;stroke-width:0.5;"/></g><g class="message" data-entity-1="part1" data-entity-2="part2" id="msg1"><polygon fill="#181818" points="288.1907,163.9014,298.1907,167.9014,288.1907,171.9014,292.1907,167.9014" style="stroke:#181818;stroke-width:1;"/><line style="stroke:#181818;stroke-width:2;" x1="61.9485" x2="294.1907" y1="167.9014" y2="167.9014"/><text fill="#000000" font-family="Georgia" font-size="11" lengthAdjust="spacing" textLength="111.3535" x="68.9485" y="150.9912">Navigate to Dashboard</text><text fill="#000000" font-family="Georgia" font-size="11" lengthAdjust="spacing" textLength="128.2725" x="68.9485" y="163.4897">or Data Management page</text></g><g class="message" data-entity-1="part2" data-entity-2="part3" id="msg2"><polygon fill="#181818" points="556.2478,190.3999,566.2478,194.3999,556.2478,198.3999,560.2478,194.3999" style="stroke:#181818;stroke-width:1;"/><line style="stroke:#181818;stroke-width:2;" x1="300.1907" x2="562.2478" y1="194.3999" y2="194.3999"/><text fill="#000000" font-family="Georgia" font-size="11" lengthAdjust="spacing" textLength="143.1504" x="307.1907" y="189.9883">GET /api/system/data-status</text></g><g class="message" data-entity-1="part3" data-entity-2="part4" id="msg3"><polygon fill="#181818" points="826.4695,279.3911,836.4695,283.3911,826.4695,287.3911,830.4695,283.3911" style="stroke:#181818;stroke-width:1;"/><line style="stroke:#181818;stroke-width:2;" x1="568.2478" x2="832.4695" y1="283.3911" y2="283.3911"/><text fill="#000000" font-family="Georgia" font-size="11" lengthAdjust="spacing" textLength="170.457" x="575.2478" y="216.4868">SELECT provider, last_success_at,</text><text fill="#000000" font-family="Georgia" font-size="11" lengthAdjust="spacing" textLength="125.0981" x="575.2478" y="228.9854">last_status, record_count</text><text fill="#000000" font-family="Georgia" font-size="11" lengthAdjust="spacing" textLength="128.1489" x="575.2478" y="241.4839">FROM etl_execution_logs</text><text fill="#000000" font-family="Georgia" font-size="11" lengthAdjust="spacing" textLength="93.7632" x="575.2478" y="253.9824">WHERE run_id IN</text><text fill="#000000" font-family="Georgia" font-size="11" lengthAdjust="spacing" textLength="246.2217" x="575.2478" y="266.481">(SELECT MAX(run_id) FROM etl_execution_logs</text><text fill="#000000" font-family="Georgia" font-size="11" lengthAdjust="spacing" textLength="103.8447" x="575.2478" y="278.9795">GROUP BY provider)</text></g><g class="message" data-entity-1="part4" data-entity-2="part3" id="msg4"><polygon fill="#181818" points="579.2478,305.8896,569.2478,309.8896,579.2478,313.8896,575.2478,309.8896" style="stroke:#181818;stroke-width:1;"/><line style="stroke:#181818;stroke-width:2;stroke-dasharray:2,2;" x1="573.2478" x2="837.4695" y1="309.8896" y2="309.8896"/><text fill="#000000" font-family="Georgia" font-size="11" lengthAdjust="spacing" textLength="169.4902" x="585.2478" y="305.478">Latest ETL log entries per provider</text></g><path d="M15,324.8896 L69.7114,324.8896 L69.7114,329.3882 L59.7114,339.3882 L10,339.3882 L10,329.8896 A5,5 0 0 1 15,324.8896" fill="#EEEEEE" style="stroke:#000000;stroke-width:1.5;"/><rect fill="none" height="485.4604" rx="5" ry="5" style="stroke:#000000;stroke-width:1.5;" width="868.6982" x="10" y="324.8896"/><text fill="#000000" font-family="Georgia" font-size="11" font-weight="bold" lengthAdjust="spacing" textLength="14.7114" x="25" y="335.9766">alt</text><text fill="#000000" font-family="Georgia" font-size="11" font-weight="bold" lengthAdjust="spacing" textLength="229.4907" x="84.7114" y="336.9766">[ETL log table unavailable [UC-26.EX.1]]</text><g class="message" data-entity-1="part4" data-entity-2="part3" id="msg5"><polygon fill="#181818" points="579.2478,353.8867,569.2478,357.8867,579.2478,361.8867,575.2478,357.8867" style="stroke:#181818;stroke-width:1;"/><line style="stroke:#181818;stroke-width:2;stroke-dasharray:2,2;" x1="573.2478" x2="837.4695" y1="357.8867" y2="357.8867"/><text fill="#000000" font-family="Georgia" font-size="11" lengthAdjust="spacing" textLength="26.6353" x="585.2478" y="353.4751">Error</text></g><g class="message" data-entity-1="part3" data-entity-2="part3" id="msg6"><line style="stroke:#181818;stroke-width:2;" x1="568.2478" x2="610.2478" y1="384.3853" y2="384.3853"/><line style="stroke:#181818;stroke-width:2;" x1="610.2478" x2="610.2478" y1="384.3853" y2="397.3853"/><line style="stroke:#181818;stroke-width:2;" x1="569.2478" x2="610.2478" y1="397.3853" y2="397.3853"/><polygon fill="#181818" points="579.2478,393.3853,569.2478,397.3853,579.2478,401.3853,575.2478,397.3853" style="stroke:#181818;stroke-width:1;"/><text fill="#000000" font-family="Georgia" font-size="11" lengthAdjust="spacing" textLength="45.5898" x="575.2478" y="379.9736">Log error</text></g><g class="message" data-entity-1="part3" data-entity-2="part2" id="msg7"><polygon fill="#181818" points="311.1907,432.3823,301.1907,436.3823,311.1907,440.3823,307.1907,436.3823" style="stroke:#181818;stroke-width:1;"/><line style="stroke:#181818;stroke-width:2;stroke-dasharray:2,2;" x1="305.1907" x2="567.2478" y1="436.3823" y2="436.3823"/><text fill="#000000" font-family="Georgia" font-size="11" lengthAdjust="spacing" textLength="18.6323" x="317.1907" y="419.4722">503</text><text fill="#000000" font-family="Georgia" font-size="11" lengthAdjust="spacing" textLength="162.1855" x="317.1907" y="431.9707">{error: "Status data unavailable"}</text></g><g class="message" data-entity-1="part2" data-entity-2="part1" id="msg8"><polygon fill="#181818" points="72.9485,458.8809,62.9485,462.8809,72.9485,466.8809,68.9485,462.8809" style="stroke:#181818;stroke-width:1;"/><line style="stroke:#181818;stroke-width:2;stroke-dasharray:2,2;" x1="66.9485" x2="299.1907" y1="462.8809" y2="462.8809"/><text fill="#000000" font-family="Georgia" font-size="11" lengthAdjust="spacing" textLength="198.8003" x="78.9485" y="458.4692">Show "Data status currently unavailable"</text></g><line style="stroke:#000000;stroke-width:1;stroke-dasharray:2,2;" x1="10" x2="878.6982" y1="471.8809" y2="471.8809"/><text fill="#000000" font-family="Georgia" font-size="11" font-weight="bold" lengthAdjust="spacing" textLength="91.2388" x="15" y="481.9678">[Logs retrieved]</text><g class="message" data-entity-1="part3" data-entity-2="part3" id="msg9"><line style="stroke:#181818;stroke-width:2;" x1="568.2478" x2="610.2478" y1="566.3706" y2="566.3706"/><line style="stroke:#181818;stroke-width:2;" x1="610.2478" x2="610.2478" y1="566.3706" y2="579.3706"/><line style="stroke:#181818;stroke-width:2;" x1="569.2478" x2="610.2478" y1="579.3706" y2="579.3706"/><polygon fill="#181818" points="579.2478,575.3706,569.2478,579.3706,579.2478,583.3706,575.2478,579.3706" style="stroke:#181818;stroke-width:1;"/><text fill="#000000" font-family="Georgia" font-size="11" lengthAdjust="spacing" textLength="210.7778" x="575.2478" y="499.4663">Compute freshness indicators per provider:</text><text fill="#000000" font-family="Georgia" font-size="11" lengthAdjust="spacing" textLength="170.8813" x="575.2478" y="511.9648">- Last successful refresh timestamp</text><text fill="#000000" font-family="Georgia" font-size="11" lengthAdjust="spacing" textLength="115.0864" x="575.2478" y="524.4634">- Days since last refresh</text><text fill="#000000" font-family="Georgia" font-size="11" lengthAdjust="spacing" textLength="165.6606" x="575.2478" y="536.9619">- Staleness flag (&gt; 30 days = stale)</text><text fill="#000000" font-family="Georgia" font-size="11" lengthAdjust="spacing" textLength="114.9414" x="575.2478" y="549.4604">- Overall ETL job status</text><text fill="#000000" font-family="Georgia" font-size="11" lengthAdjust="spacing" textLength="128.7559" x="575.2478" y="561.959">(success / partial / failure)</text></g><g class="message" data-entity-1="part3" data-entity-2="part2" id="msg10"><polygon fill="#181818" points="311.1907,676.8604,301.1907,680.8604,311.1907,684.8604,307.1907,680.8604" style="stroke:#181818;stroke-width:1;"/><line style="stroke:#181818;stroke-width:2;stroke-dasharray:2,2;" x1="305.1907" x2="567.2478" y1="680.8604" y2="680.8604"/><text fill="#000000" font-family="Georgia" font-size="11" lengthAdjust="spacing" textLength="38.124" x="317.1907" y="601.4575">200 OK</text><text fill="#000000" font-family="Georgia" font-size="11" lengthAdjust="spacing" textLength="61.2466" x="317.1907" y="613.9561">{providers: [</text><text fill="#000000" font-family="Georgia" font-size="11" lengthAdjust="spacing" textLength="229.2651" x="322.4973" y="626.4546">{name: "OneMap", lastRefresh, status, isStale},</text><text fill="#000000" font-family="Georgia" font-size="11" lengthAdjust="spacing" textLength="208.0601" x="322.4973" y="638.9531">{name: "LTA", lastRefresh, status, isStale},</text><text fill="#000000" font-family="Georgia" font-size="11" lengthAdjust="spacing" textLength="210.6543" x="322.4973" y="651.4517">{name: "URA", lastRefresh, status, isStale},</text><text fill="#000000" font-family="Georgia" font-size="11" lengthAdjust="spacing" textLength="238.7505" x="322.4973" y="663.9502">{name: "data.gov.sg", lastRefresh, status, isStale}</text><text fill="#000000" font-family="Georgia" font-size="11" lengthAdjust="spacing" textLength="77.9185" x="317.1907" y="676.4487">], overallStatus}</text></g><g class="message" data-entity-1="part2" data-entity-2="part1" id="msg11"><polygon fill="#181818" points="72.9485,753.353,62.9485,757.353,72.9485,761.353,68.9485,757.353" style="stroke:#181818;stroke-width:1;"/><line style="stroke:#181818;stroke-width:2;stroke-dasharray:2,2;" x1="66.9485" x2="299.1907" y1="757.353" y2="757.353"/><text fill="#000000" font-family="Georgia" font-size="11" lengthAdjust="spacing" textLength="130.5391" x="78.9485" y="702.9473">Display data status widget:</text><text fill="#000000" font-family="Georgia" font-size="11" lengthAdjust="spacing" textLength="126.5376" x="78.9485" y="715.4458">- Per-provider status rows</text><text fill="#000000" font-family="Georgia" font-size="11" lengthAdjust="spacing" textLength="214.2422" x="78.9485" y="727.9443">- &#128994; Fresh / &#128993; Warning / &#128308; Stale indicators</text><text fill="#000000" font-family="Georgia" font-size="11" lengthAdjust="spacing" textLength="182.2412" x="78.9485" y="740.4429">- Last refresh timestamp per provider</text><text fill="#000000" font-family="Georgia" font-size="11" lengthAdjust="spacing" textLength="146.5342" x="78.9485" y="752.9414">- Overall ETL job status badge</text></g><path d="M198,775.353 L198,799.353 A5,5 0 0 0 203,804.353 L396,804.353 A5,5 0 0 0 401,799.353 L401,780.353 L391,770.353 L203,770.353 A5,5 0 0 0 198,775.353" fill="#FEFFDD" style="stroke:#181818;stroke-width:0.5;"/><path d="M391,770.353 L391,777.853 A2.5,2.5 0 0 0 393.5,780.353 L401,780.353 L391,770.353" fill="#FEFFDD" style="stroke:#181818;stroke-width:0.5;"/><text fill="#000000" font-family="Georgia" font-size="11" lengthAdjust="spacing" textLength="182.0049" x="204" y="785.4399">Staleness warning visually prominent</text><text fill="#000000" font-family="Georgia" font-size="11" lengthAdjust="spacing" textLength="181.3765" x="204" y="797.9385">(yellow/red) when data &gt; 30 days old</text><?plantuml-src bLJHRY8t57sVhxZY2IG8aBHzGDgLI1ZIgYIi27ItsbcXcvdBuCROKzi3fQlyHTzNss_eX_KJUkqP4b1sLIqIaiS-nzVtd6CxuIJ1ugfp_iC0VX6qWn4wX4MHeIEuS-XA2yqHslMzHfEreiW-25MWmGrO-hqabTBG6BsRhqNweCXQE3-265sgBDL6aO5-xsWXenMMqesrShUu8RWcRNA1NqRSYJy9-lqemjHf0us59PEevh3Nxmvxv_o_Q3K0BVZvYDbEfA90vQ0nDamdbJ5wHiokSEFu57M9wKC56lQ-go0yY5W2l4TBq1ZL8qR4ymbCT6uhsEWoYdnLwBpcNM40jxWLkPVEQNXIBL5ywg3h3IhCQKDSjU115369gLoDkTVn7BfOYAxTMqURhg_ViS62AF8GHeuk6NWNJ-AhEHH6RqL6fWqIhLlQCarP_oMwTgAgcS1jWo6s85kcR8PBr7WslG5oSab_K5eweTLISaE9UljZF8l1b6efClZfbfkj2zqCtpMhwHPybNqzcoxUmEMlJyTgHNpOpbDt4rR5El3wCG5O0YF8Gi7Y7HXii7n6iEGSpLBX5eKCu_SXfsVnkxF-XmZuTr8WvXYQC5rhLTVrnKwN3cPztxj8rCUmE8167NQl-d7LncCWUgEO5ync1zPwLyK2Af4XBOtXdkJ-X1kHvFpulB09lk4jPI-FUAKtHScPMHcowt27XCf4YXpsKu46YUgma2nZRVQgbBnnu84J6nOODuK7ZN1lmGg-dI4S1v1VuZubXIehYJaqNyD5Zxjc_2lVZAIMHqstP53AuCPl-hvkapDHLuOkX3k4aaShxhSqnA_32utFUpsO_imo7tgm0tYVA82FYkyzopvLT8D5emhnh3fc6mxH5JOSzx5zJ9dCXz-4Nyo-3UyZS9RhxPdD_u-Ng0zjq9LMLO0Ueo_aPIHi8N5VXQjEp4vaERbWwHiodOC-XsL-KwrV-_VJfxzX71pk-e_Fy1QD4YeFdt_zK_bvb9YdZBm8nacMlcuot2EVB7IXDCVIjrUP-HoTNNs6hR0bxx3tssw48l_0DFSafTvr3V5xiLkJgjf-pfcMMSJlRVGV?></g></svg>