<?plantuml 1.2026.2?><svg xmlns="http://www.w3.org/2000/svg" xmlns:xlink="http://www.w3.org/1999/xlink" contentStyleType="text/css" data-diagram-type="SEQUENCE" height="1480px" preserveAspectRatio="none" style="width:939px;height:1480px;background:#FFFFFF;" version="1.1" viewBox="0 0 939 1480" width="939px" zoomAndPan="magnify"><title>UC-25: Run / Monitor Data Refresh (ETL)</title><defs/><g><text fill="#000000" font-family="Georgia" font-size="14" font-weight="bold" lengthAdjust="spacing" textLength="299.4482" x="321.7114" y="27.8379">UC-25: Run / Monitor Data Refresh (ETL)</text><rect fill="none" height="157.9883" rx="5" ry="5" style="stroke:#000000;stroke-width:1.5;" width="656.9741" x="195.8325" y="253.397"/><rect fill="none" height="71.9941" rx="5" ry="5" style="stroke:#000000;stroke-width:1.5;" width="267.7158" x="174" y="531.3794"/><rect fill="none" height="98.9941" rx="5" ry="5" style="stroke:#000000;stroke-width:1.5;" width="738.0386" x="195.8325" y="617.3735"/><rect fill="none" height="66.4956" rx="5" ry="5" style="stroke:#000000;stroke-width:1.5;" width="281.3691" x="195.8325" y="782.3647"/><g class="participant-lifeline" data-entity-uid="part1" data-qualified-name="Cron" id="part1-lifeline"><g><title>Scheduler</title><rect fill="#000000" fill-opacity="0.00000" height="1305.918" width="8" x="45.9092" y="100.4058"/><line style="stroke:#181818;stroke-width:0.5;stroke-dasharray:5,5;" x1="49" x2="49" y1="100.4058" y2="1406.3237"/></g></g><g class="participant-lifeline" data-entity-uid="part2" data-qualified-name="A04" id="part2-lifeline"><g><title>Backend</title><rect fill="#000000" fill-opacity="0.00000" height="1305.918" width="8" x="273.2588" y="100.4058"/><line style="stroke:#181818;stroke-width:0.5;stroke-dasharray:5,5;" x1="276.8325" x2="276.8325" y1="100.4058" y2="1406.3237"/></g></g><g class="participant-lifeline" data-entity-uid="part3" data-qualified-name="OneMap" id="part3-lifeline"><g><title>OneMap . SingStat</title><rect fill="#000000" fill-opacity="0.00000" height="1305.918" width="8" x="514.6323" y="100.4058"/><line style="stroke:#181818;stroke-width:0.5;stroke-dasharray:5,5;" x1="517.9844" x2="517.9844" y1="100.4058" y2="1406.3237"/></g></g><g class="participant-lifeline" data-entity-uid="part4" data-qualified-name="LTA" id="part4-lifeline"><g><title>LTA DataMall</title><rect fill="#000000" fill-opacity="0.00000" height="1305.918" width="8" x="619.5989" y="100.4058"/><line style="stroke:#181818;stroke-width:0.5;stroke-dasharray:5,5;" x1="623.2803" x2="623.2803" y1="100.4058" y2="1406.3237"/></g></g><g class="participant-lifeline" data-entity-uid="part5" data-qualified-name="URA" id="part5-lifeline"><g><title>URA Space API</title><rect fill="#000000" fill-opacity="0.00000" height="1305.918" width="8" x="715.6226" y="100.4058"/><line style="stroke:#181818;stroke-width:0.5;stroke-dasharray:5,5;" x1="718.9175" x2="718.9175" y1="100.4058" y2="1406.3237"/></g></g><g class="participant-lifeline" data-entity-uid="part6" data-qualified-name="GovSG" id="part6-lifeline"><g><title>data.gov.sg</title><rect fill="#000000" fill-opacity="0.00000" height="1305.918" width="8" x="804.5671" y="100.4058"/><line style="stroke:#181818;stroke-width:0.5;stroke-dasharray:5,5;" x1="808.3276" x2="808.3276" y1="100.4058" y2="1406.3237"/></g></g><g class="participant-lifeline" data-entity-uid="part7" data-qualified-name="DB" id="part7-lifeline"><g><title>Database</title><rect fill="#000000" fill-opacity="0.00000" height="1305.918" width="8" x="874.2551" y="100.4058"/><line style="stroke:#181818;stroke-width:0.5;stroke-dasharray:5,5;" x1="877.8066" x2="877.8066" y1="100.4058" y2="1406.3237"/></g></g><g class="participant participant-head" data-entity-uid="part1" data-qualified-name="Cron" id="part1-head"><rect fill="#E2E2F0" height="38.9971" rx="5" ry="5" style="stroke:#181818;stroke-width:0.5;" width="89.8184" x="5" y="60.4087"/><text fill="#000000" font-family="Georgia" font-size="11" lengthAdjust="spacing" textLength="48.501" x="25.6587" y="77.4956">Scheduler</text><text fill="#000000" font-family="Georgia" font-size="11" lengthAdjust="spacing" textLength="75.8184" x="12" y="89.9941">(Cron / Admin)</text></g><g class="participant participant-tail" data-entity-uid="part1" data-qualified-name="Cron" id="part1-tail"><rect fill="#E2E2F0" height="38.9971" rx="5" ry="5" style="stroke:#181818;stroke-width:0.5;" width="89.8184" x="5" y="1405.3237"/><text fill="#000000" font-family="Georgia" font-size="11" lengthAdjust="spacing" textLength="48.501" x="25.6587" y="1422.4106">Scheduler</text><text fill="#000000" font-family="Georgia" font-size="11" lengthAdjust="spacing" textLength="75.8184" x="12" y="1434.9092">(Cron / Admin)</text></g><g class="participant participant-head" data-entity-uid="part2" data-qualified-name="A04" id="part2-head"><rect fill="#E2E2F0" height="38.9971" rx="5" ry="5" style="stroke:#181818;stroke-width:0.5;" width="142.8525" x="205.8325" y="60.4087"/><text fill="#000000" font-family="Georgia" font-size="11" lengthAdjust="spacing" textLength="41.7549" x="256.3813" y="77.4956">Backend</text><text fill="#000000" font-family="Georgia" font-size="11" lengthAdjust="spacing" textLength="128.8525" x="212.8325" y="89.9941">(A04 &#8212; ETL Orchestrator)</text></g><g class="participant participant-tail" data-entity-uid="part2" data-qualified-name="A04" id="part2-tail"><rect fill="#E2E2F0" height="38.9971" rx="5" ry="5" style="stroke:#181818;stroke-width:0.5;" width="142.8525" x="205.8325" y="1405.3237"/><text fill="#000000" font-family="Georgia" font-size="11" lengthAdjust="spacing" textLength="41.7549" x="256.3813" y="1422.4106">Backend</text><text fill="#000000" font-family="Georgia" font-size="11" lengthAdjust="spacing" textLength="128.8525" x="212.8325" y="1434.9092">(A04 &#8212; ETL Orchestrator)</text></g><g class="participant participant-head" data-entity-uid="part3" data-qualified-name="OneMap" id="part3-head"><rect fill="#E2E2F0" height="38.9971" rx="5" ry="5" style="stroke:#181818;stroke-width:0.5;" width="107.2959" x="464.9844" y="60.4087"/><text fill="#000000" font-family="Georgia" font-size="11" lengthAdjust="spacing" textLength="93.2959" x="471.9844" y="77.4956">OneMap / SingStat</text><text fill="#000000" font-family="Georgia" font-size="11" lengthAdjust="spacing" textLength="28.1929" x="504.5359" y="89.9941">(A05)</text></g><g class="participant participant-tail" data-entity-uid="part3" data-qualified-name="OneMap" id="part3-tail"><rect fill="#E2E2F0" height="38.9971" rx="5" ry="5" style="stroke:#181818;stroke-width:0.5;" width="107.2959" x="464.9844" y="1405.3237"/><text fill="#000000" font-family="Georgia" font-size="11" lengthAdjust="spacing" textLength="93.2959" x="471.9844" y="1422.4106">OneMap / SingStat</text><text fill="#000000" font-family="Georgia" font-size="11" lengthAdjust="spacing" textLength="28.1929" x="504.5359" y="1434.9092">(A05)</text></g><g class="participant participant-head" data-entity-uid="part4" data-qualified-name="LTA" id="part4-head"><rect fill="#E2E2F0" height="38.9971" rx="5" ry="5" style="stroke:#181818;stroke-width:0.5;" width="82.6372" x="582.2803" y="60.4087"/><text fill="#000000" font-family="Georgia" font-size="11" lengthAdjust="spacing" textLength="68.6372" x="589.2803" y="77.4956">LTA DataMall</text><text fill="#000000" font-family="Georgia" font-size="11" lengthAdjust="spacing" textLength="28.1929" x="609.5024" y="89.9941">(A05)</text></g><g class="participant participant-tail" data-entity-uid="part4" data-qualified-name="LTA" id="part4-tail"><rect fill="#E2E2F0" height="38.9971" rx="5" ry="5" style="stroke:#181818;stroke-width:0.5;" width="82.6372" x="582.2803" y="1405.3237"/><text fill="#000000" font-family="Georgia" font-size="11" lengthAdjust="spacing" textLength="68.6372" x="589.2803" y="1422.4106">LTA DataMall</text><text fill="#000000" font-family="Georgia" font-size="11" lengthAdjust="spacing" textLength="28.1929" x="609.5024" y="1434.9092">(A05)</text></g><g class="participant participant-head" data-entity-uid="part5" data-qualified-name="URA" id="part5-head"><rect fill="#E2E2F0" height="38.9971" rx="5" ry="5" style="stroke:#181818;stroke-width:0.5;" width="89.4102" x="674.9175" y="60.4087"/><text fill="#000000" font-family="Georgia" font-size="11" lengthAdjust="spacing" textLength="75.4102" x="681.9175" y="77.4956">URA Space API</text><text fill="#000000" font-family="Georgia" font-size="11" lengthAdjust="spacing" textLength="28.1929" x="705.5261" y="89.9941">(A05)</text></g><g class="participant participant-tail" data-entity-uid="part5" data-qualified-name="URA" id="part5-tail"><rect fill="#E2E2F0" height="38.9971" rx="5" ry="5" style="stroke:#181818;stroke-width:0.5;" width="89.4102" x="674.9175" y="1405.3237"/><text fill="#000000" font-family="Georgia" font-size="11" lengthAdjust="spacing" textLength="75.4102" x="681.9175" y="1422.4106">URA Space API</text><text fill="#000000" font-family="Georgia" font-size="11" lengthAdjust="spacing" textLength="28.1929" x="705.5261" y="1434.9092">(A05)</text></g><g class="participant participant-head" data-entity-uid="part6" data-qualified-name="GovSG" id="part6-head"><rect fill="#E2E2F0" height="38.9971" rx="5" ry="5" style="stroke:#181818;stroke-width:0.5;" width="68.479" x="774.3276" y="60.4087"/><text fill="#000000" font-family="Georgia" font-size="11" lengthAdjust="spacing" textLength="54.479" x="781.3276" y="77.4956">data.gov.sg</text><text fill="#000000" font-family="Georgia" font-size="11" lengthAdjust="spacing" textLength="28.1929" x="794.4707" y="89.9941">(A05)</text></g><g class="participant participant-tail" data-entity-uid="part6" data-qualified-name="GovSG" id="part6-tail"><rect fill="#E2E2F0" height="38.9971" rx="5" ry="5" style="stroke:#181818;stroke-width:0.5;" width="68.479" x="774.3276" y="1405.3237"/><text fill="#000000" font-family="Georgia" font-size="11" lengthAdjust="spacing" textLength="54.479" x="781.3276" y="1422.4106">data.gov.sg</text><text fill="#000000" font-family="Georgia" font-size="11" lengthAdjust="spacing" textLength="28.1929" x="794.4707" y="1434.9092">(A05)</text></g><g class="participant participant-head" data-entity-uid="part7" data-qualified-name="DB" id="part7-head"><text fill="#000000" font-family="Georgia" font-size="11" lengthAdjust="spacing" textLength="44.897" x="852.8066" y="97.9941">Database</text><path d="M860.2551,51.9072 C860.2551,41.9072 878.2551,41.9072 878.2551,41.9072 C878.2551,41.9072 896.2551,41.9072 896.2551,51.9072 L896.2551,77.9072 C896.2551,87.9072 878.2551,87.9072 878.2551,87.9072 C878.2551,87.9072 860.2551,87.9072 860.2551,77.9072 L860.2551,51.9072" fill="#E2E2F0" style="stroke:#181818;stroke-width:0.5;"/><path d="M860.2551,51.9072 C860.2551,61.9072 878.2551,61.9072 878.2551,61.9072 C878.2551,61.9072 896.2551,61.9072 896.2551,51.9072" fill="none" style="stroke:#181818;stroke-width:0.5;"/></g><g class="participant participant-tail" data-entity-uid="part7" data-qualified-name="DB" id="part7-tail"><text fill="#000000" font-family="Georgia" font-size="11" lengthAdjust="spacing" textLength="44.897" x="852.8066" y="1415.4106">Database</text><path d="M860.2551,1427.8223 C860.2551,1417.8223 878.2551,1417.8223 878.2551,1417.8223 C878.2551,1417.8223 896.2551,1417.8223 896.2551,1427.8223 L896.2551,1453.8223 C896.2551,1463.8223 878.2551,1463.8223 878.2551,1463.8223 C878.2551,1463.8223 860.2551,1463.8223 860.2551,1453.8223 L860.2551,1427.8223" fill="#E2E2F0" style="stroke:#181818;stroke-width:0.5;"/><path d="M860.2551,1427.8223 C860.2551,1437.8223 878.2551,1437.8223 878.2551,1437.8223 C878.2551,1437.8223 896.2551,1437.8223 896.2551,1427.8223" fill="none" style="stroke:#181818;stroke-width:0.5;"/></g><g class="message" data-entity-1="part1" data-entity-2="part2" id="msg1"><polygon fill="#181818" points="265.2588,137.4028,275.2588,141.4028,265.2588,145.4028,269.2588,141.4028" style="stroke:#181818;stroke-width:1;"/><line style="stroke:#181818;stroke-width:2;" x1="49.9092" x2="271.2588" y1="141.4028" y2="141.4028"/><text fill="#000000" font-family="Georgia" font-size="11" lengthAdjust="spacing" textLength="76.8013" x="56.9092" y="124.4927">Trigger ETL job</text><text fill="#000000" font-family="Georgia" font-size="11" lengthAdjust="spacing" textLength="203.3496" x="56.9092" y="136.9912">(scheduled cron or manual admin trigger)</text></g><g class="message" data-entity-1="part2" data-entity-2="part2" id="msg2"><line style="stroke:#181818;stroke-width:2;" x1="277.2588" x2="319.2588" y1="180.3999" y2="180.3999"/><line style="stroke:#181818;stroke-width:2;" x1="319.2588" x2="319.2588" y1="180.3999" y2="193.3999"/><line style="stroke:#181818;stroke-width:2;" x1="278.2588" x2="319.2588" y1="193.3999" y2="193.3999"/><polygon fill="#181818" points="288.2588,189.3999,278.2588,193.3999,288.2588,197.3999,284.2588,193.3999" style="stroke:#181818;stroke-width:1;"/><text fill="#000000" font-family="Georgia" font-size="11" lengthAdjust="spacing" textLength="84.4604" x="284.2588" y="163.4897">Log ETL job start</text><text fill="#000000" font-family="Georgia" font-size="11" lengthAdjust="spacing" textLength="97.7056" x="284.2588" y="175.9883">+ job_id, started_at</text></g><path d="M226,211.3999 L226,235.3999 A5,5 0 0 0 231,240.3999 L852,240.3999 A5,5 0 0 0 857,235.3999 L857,216.3999 L847,206.3999 L231,206.3999 A5,5 0 0 0 226,211.3999" fill="#FEFFDD" style="stroke:#181818;stroke-width:0.5;"/><path d="M847,206.3999 L847,213.8999 A2.5,2.5 0 0 0 849.5,216.3999 L857,216.3999 L847,206.3999" fill="#FEFFDD" style="stroke:#181818;stroke-width:0.5;"/><text fill="#000000" font-family="Georgia" font-size="11" lengthAdjust="spacing" textLength="121.9077" x="463.5808" y="221.4868">A04 orchestrates parallel</text><text fill="#000000" font-family="Georgia" font-size="11" lengthAdjust="spacing" textLength="147.8125" x="463.5808" y="233.9854">data fetches from all providers</text><path d="M200.8325,253.397 L260.3403,253.397 L260.3403,257.8955 L250.3403,267.8955 L195.8325,267.8955 L195.8325,258.397 A5,5 0 0 1 200.8325,253.397" fill="#EEEEEE" style="stroke:#000000;stroke-width:1.5;"/><rect fill="none" height="157.9883" rx="5" ry="5" style="stroke:#000000;stroke-width:1.5;" width="656.9741" x="195.8325" y="253.397"/><text fill="#000000" font-family="Georgia" font-size="11" font-weight="bold" lengthAdjust="spacing" textLength="19.5078" x="210.8325" y="264.4839">par</text><text fill="#000000" font-family="Georgia" font-size="11" font-weight="bold" lengthAdjust="spacing" textLength="112.6802" x="275.3403" y="265.4839">[Parallel data fetch]</text><g class="message" data-entity-1="part2" data-entity-2="part3" id="msg3"><polygon fill="#181818" points="506.6323,294.8926,516.6323,298.8926,506.6323,302.8926,510.6323,298.8926" style="stroke:#181818;stroke-width:1;"/><line style="stroke:#181818;stroke-width:2;" x1="277.2588" x2="512.6323" y1="298.8926" y2="298.8926"/><text fill="#000000" font-family="Georgia" font-size="11" lengthAdjust="spacing" textLength="112.2827" x="284.2588" y="281.9824">GET demographic data</text><text fill="#000000" font-family="Georgia" font-size="11" lengthAdjust="spacing" textLength="217.3735" x="284.2588" y="294.481">(age groups, income, population by subzone)</text></g><g class="message" data-entity-1="part2" data-entity-2="part4" id="msg4"><polygon fill="#181818" points="611.5989,333.8896,621.5989,337.8896,611.5989,341.8896,615.5989,337.8896" style="stroke:#181818;stroke-width:1;"/><line style="stroke:#181818;stroke-width:2;" x1="277.2588" x2="617.5989" y1="337.8896" y2="337.8896"/><text fill="#000000" font-family="Georgia" font-size="11" lengthAdjust="spacing" textLength="94.0908" x="284.2588" y="320.9795">GET transport data</text><text fill="#000000" font-family="Georgia" font-size="11" lengthAdjust="spacing" textLength="161.2026" x="284.2588" y="333.478">(MRT stations, bus stops, routes)</text></g><g class="message" data-entity-1="part2" data-entity-2="part5" id="msg5"><polygon fill="#181818" points="707.6226,372.8867,717.6226,376.8867,707.6226,380.8867,711.6226,376.8867" style="stroke:#181818;stroke-width:1;"/><line style="stroke:#181818;stroke-width:2;" x1="277.2588" x2="713.6226" y1="376.8867" y2="376.8867"/><text fill="#000000" font-family="Georgia" font-size="11" lengthAdjust="spacing" textLength="77.2847" x="284.2588" y="359.9766">GET rental data</text><text fill="#000000" font-family="Georgia" font-size="11" lengthAdjust="spacing" textLength="147.3345" x="284.2588" y="372.4751">(vacancy rates, rental indexes)</text></g><g class="message" data-entity-1="part2" data-entity-2="part6" id="msg6"><polygon fill="#181818" points="796.5671,399.3853,806.5671,403.3853,796.5671,407.3853,800.5671,403.3853" style="stroke:#181818;stroke-width:1;"/><line style="stroke:#181818;stroke-width:2;" x1="277.2588" x2="802.5671" y1="403.3853" y2="403.3853"/><text fill="#000000" font-family="Georgia" font-size="11" lengthAdjust="spacing" textLength="139.9761" x="284.2588" y="398.9736">GET supplementary datasets</text></g><g class="message" data-entity-1="part3" data-entity-2="part2" id="msg7"><polygon fill="#181818" points="288.2588,432.8838,278.2588,436.8838,288.2588,440.8838,284.2588,436.8838" style="stroke:#181818;stroke-width:1;"/><line style="stroke:#181818;stroke-width:2;stroke-dasharray:2,2;" x1="282.2588" x2="517.6323" y1="436.8838" y2="436.8838"/><text fill="#000000" font-family="Georgia" font-size="11" lengthAdjust="spacing" textLength="102.1045" x="294.2588" y="432.4722">Dataset (JSON/CSV)</text></g><g class="message" data-entity-1="part4" data-entity-2="part2" id="msg8"><polygon fill="#181818" points="288.2588,459.3823,278.2588,463.3823,288.2588,467.3823,284.2588,463.3823" style="stroke:#181818;stroke-width:1;"/><line style="stroke:#181818;stroke-width:2;stroke-dasharray:2,2;" x1="282.2588" x2="622.5989" y1="463.3823" y2="463.3823"/><text fill="#000000" font-family="Georgia" font-size="11" lengthAdjust="spacing" textLength="102.1045" x="294.2588" y="458.9707">Dataset (JSON/CSV)</text></g><g class="message" data-entity-1="part5" data-entity-2="part2" id="msg9"><polygon fill="#181818" points="288.2588,485.8809,278.2588,489.8809,288.2588,493.8809,284.2588,489.8809" style="stroke:#181818;stroke-width:1;"/><line style="stroke:#181818;stroke-width:2;stroke-dasharray:2,2;" x1="282.2588" x2="718.6226" y1="489.8809" y2="489.8809"/><text fill="#000000" font-family="Georgia" font-size="11" lengthAdjust="spacing" textLength="102.1045" x="294.2588" y="485.4692">Dataset (JSON/CSV)</text></g><g class="message" data-entity-1="part6" data-entity-2="part2" id="msg10"><polygon fill="#181818" points="288.2588,512.3794,278.2588,516.3794,288.2588,520.3794,284.2588,516.3794" style="stroke:#181818;stroke-width:1;"/><line style="stroke:#181818;stroke-width:2;stroke-dasharray:2,2;" x1="282.2588" x2="807.5671" y1="516.3794" y2="516.3794"/><text fill="#000000" font-family="Georgia" font-size="11" lengthAdjust="spacing" textLength="102.1045" x="294.2588" y="511.9678">Dataset (JSON/CSV)</text></g><path d="M179,531.3794 L233.7114,531.3794 L233.7114,535.8779 L223.7114,545.8779 L174,545.8779 L174,536.3794 A5,5 0 0 1 179,531.3794" fill="#EEEEEE" style="stroke:#000000;stroke-width:1.5;"/><rect fill="none" height="71.9941" rx="5" ry="5" style="stroke:#000000;stroke-width:1.5;" width="267.7158" x="174" y="531.3794"/><text fill="#000000" font-family="Georgia" font-size="11" font-weight="bold" lengthAdjust="spacing" textLength="14.7114" x="189" y="542.4663">alt</text><text fill="#000000" font-family="Georgia" font-size="11" font-weight="bold" lengthAdjust="spacing" textLength="188.0044" x="248.7114" y="543.4663">[One provider fails [UC-25.AC.1]]</text><path d="M184,555.8779 L184,592.8779 A5,5 0 0 0 189,597.8779 L364,597.8779 A5,5 0 0 0 369,592.8779 L369,560.8779 L359,550.8779 L189,550.8779 A5,5 0 0 0 184,555.8779" fill="#FEFFDD" style="stroke:#181818;stroke-width:0.5;"/><path d="M359,550.8779 L359,558.3779 A2.5,2.5 0 0 0 361.5,560.8779 L369,560.8779 L359,550.8779" fill="#FEFFDD" style="stroke:#181818;stroke-width:0.5;"/><text fill="#000000" font-family="Georgia" font-size="11" lengthAdjust="spacing" textLength="147.2808" x="190" y="565.9648">A04 continues with remaining</text><text fill="#000000" font-family="Georgia" font-size="11" lengthAdjust="spacing" textLength="144.2515" x="190" y="578.4634">providers; logs partial failure;</text><text fill="#000000" font-family="Georgia" font-size="11" lengthAdjust="spacing" textLength="164.1675" x="190" y="590.9619">schedules retry for failed provider</text><path d="M200.8325,617.3735 L255.5439,617.3735 L255.5439,621.8721 L245.5439,631.8721 L195.8325,631.8721 L195.8325,622.3735 A5,5 0 0 1 200.8325,617.3735" fill="#EEEEEE" style="stroke:#000000;stroke-width:1.5;"/><rect fill="none" height="98.9941" rx="5" ry="5" style="stroke:#000000;stroke-width:1.5;" width="738.0386" x="195.8325" y="617.3735"/><text fill="#000000" font-family="Georgia" font-size="11" font-weight="bold" lengthAdjust="spacing" textLength="14.7114" x="210.8325" y="628.4604">alt</text><text fill="#000000" font-family="Georgia" font-size="11" font-weight="bold" lengthAdjust="spacing" textLength="181.6396" x="270.5439" y="629.4604">[All providers fail [UC-25.EX.1]]</text><g class="message" data-entity-1="part2" data-entity-2="part2" id="msg11"><line style="stroke:#181818;stroke-width:2;" x1="277.2588" x2="319.2588" y1="662.8691" y2="662.8691"/><line style="stroke:#181818;stroke-width:2;" x1="319.2588" x2="319.2588" y1="662.8691" y2="675.8691"/><line style="stroke:#181818;stroke-width:2;" x1="278.2588" x2="319.2588" y1="675.8691" y2="675.8691"/><polygon fill="#181818" points="288.2588,671.8691,278.2588,675.8691,288.2588,679.8691,284.2588,675.8691" style="stroke:#181818;stroke-width:1;"/><text fill="#000000" font-family="Georgia" font-size="11" lengthAdjust="spacing" textLength="81.6729" x="284.2588" y="645.959">Log critical error</text><text fill="#000000" font-family="Georgia" font-size="11" lengthAdjust="spacing" textLength="117.1167" x="284.2588" y="658.4575">Send admin notification</text></g><path d="M231,693.8691 L231,705.8691 A5,5 0 0 0 236,710.8691 L918,710.8691 A5,5 0 0 0 923,705.8691 L923,698.8691 L913,688.8691 L236,688.8691 A5,5 0 0 0 231,693.8691" fill="#FEFFDD" style="stroke:#181818;stroke-width:0.5;"/><path d="M913,688.8691 L913,696.3691 A2.5,2.5 0 0 0 915.5,698.8691 L923,698.8691 L913,688.8691" fill="#FEFFDD" style="stroke:#181818;stroke-width:0.5;"/><text fill="#000000" font-family="Georgia" font-size="11" lengthAdjust="spacing" textLength="175.1836" x="485.3438" y="703.9561">Retain previous datasets unchanged</text><g class="message" data-entity-1="part2" data-entity-2="part2" id="msg12"><line style="stroke:#181818;stroke-width:2;" x1="277.2588" x2="319.2588" y1="754.3647" y2="754.3647"/><line style="stroke:#181818;stroke-width:2;" x1="319.2588" x2="319.2588" y1="754.3647" y2="767.3647"/><line style="stroke:#181818;stroke-width:2;" x1="278.2588" x2="319.2588" y1="767.3647" y2="767.3647"/><polygon fill="#181818" points="288.2588,763.3647,278.2588,767.3647,288.2588,771.3647,284.2588,767.3647" style="stroke:#181818;stroke-width:1;"/><text fill="#000000" font-family="Georgia" font-size="11" lengthAdjust="spacing" textLength="171.064" x="284.2588" y="737.4546">Validate data integrity per provider</text><text fill="#000000" font-family="Georgia" font-size="11" lengthAdjust="spacing" textLength="177.8369" x="284.2588" y="749.9531">(schema, completeness, date ranges)</text></g><path d="M200.8325,782.3647 L255.5439,782.3647 L255.5439,786.8633 L245.5439,796.8633 L195.8325,796.8633 L195.8325,787.3647 A5,5 0 0 1 200.8325,782.3647" fill="#EEEEEE" style="stroke:#000000;stroke-width:1.5;"/><rect fill="none" height="66.4956" rx="5" ry="5" style="stroke:#000000;stroke-width:1.5;" width="281.3691" x="195.8325" y="782.3647"/><text fill="#000000" font-family="Georgia" font-size="11" font-weight="bold" lengthAdjust="spacing" textLength="14.7114" x="210.8325" y="793.4517">alt</text><text fill="#000000" font-family="Georgia" font-size="11" font-weight="bold" lengthAdjust="spacing" textLength="201.6577" x="270.5439" y="794.4517">[Data validation fails [UC-25.EX.2]]</text><g class="message" data-entity-1="part2" data-entity-2="part2" id="msg13"><line style="stroke:#181818;stroke-width:2;" x1="277.2588" x2="319.2588" y1="827.8604" y2="827.8604"/><line style="stroke:#181818;stroke-width:2;" x1="319.2588" x2="319.2588" y1="827.8604" y2="840.8604"/><line style="stroke:#181818;stroke-width:2;" x1="278.2588" x2="319.2588" y1="840.8604" y2="840.8604"/><polygon fill="#181818" points="288.2588,836.8604,278.2588,840.8604,288.2588,844.8604,284.2588,840.8604" style="stroke:#181818;stroke-width:1;"/><text fill="#000000" font-family="Georgia" font-size="11" lengthAdjust="spacing" textLength="108.8989" x="284.2588" y="810.9502">Reject invalid datasets</text><text fill="#000000" font-family="Georgia" font-size="11" lengthAdjust="spacing" textLength="175.2212" x="284.2588" y="823.4487">Log error; retain previous valid data</text></g><g class="message" data-entity-1="part2" data-entity-2="part2" id="msg14"><line style="stroke:#181818;stroke-width:2;" x1="277.2588" x2="319.2588" y1="899.356" y2="899.356"/><line style="stroke:#181818;stroke-width:2;" x1="319.2588" x2="319.2588" y1="899.356" y2="912.356"/><line style="stroke:#181818;stroke-width:2;" x1="278.2588" x2="319.2588" y1="912.356" y2="912.356"/><polygon fill="#181818" points="288.2588,908.356,278.2588,912.356,288.2588,916.356,284.2588,912.356" style="stroke:#181818;stroke-width:1;"/><text fill="#000000" font-family="Georgia" font-size="11" lengthAdjust="spacing" textLength="79.1001" x="284.2588" y="869.9473">Transform data:</text><text fill="#000000" font-family="Georgia" font-size="11" lengthAdjust="spacing" textLength="101.4224" x="284.2588" y="882.4458">- Normalise schemas</text><text fill="#000000" font-family="Georgia" font-size="11" lengthAdjust="spacing" textLength="184.2017" x="284.2588" y="894.9443">- Aggregate by planning area/subzone</text></g><g class="message" data-entity-1="part2" data-entity-2="part7" id="msg15"><polygon fill="#181818" points="866.2551,947.353,876.2551,951.353,866.2551,955.353,870.2551,951.353" style="stroke:#181818;stroke-width:1;"/><line style="stroke:#181818;stroke-width:2;" x1="277.2588" x2="872.2551" y1="951.353" y2="951.353"/><text fill="#000000" font-family="Georgia" font-size="11" lengthAdjust="spacing" textLength="137.645" x="284.2588" y="934.4429">UPSERT demographic_data</text><text fill="#000000" font-family="Georgia" font-size="11" lengthAdjust="spacing" textLength="165.5371" x="284.2588" y="946.9414">(replace/update previous records)</text></g><g class="message" data-entity-1="part2" data-entity-2="part7" id="msg16"><polygon fill="#181818" points="866.2551,973.8516,876.2551,977.8516,866.2551,981.8516,870.2551,977.8516" style="stroke:#181818;stroke-width:1;"/><line style="stroke:#181818;stroke-width:2;" x1="277.2588" x2="872.2551" y1="977.8516" y2="977.8516"/><text fill="#000000" font-family="Georgia" font-size="11" lengthAdjust="spacing" textLength="119.4531" x="284.2588" y="973.4399">UPSERT transport_data</text></g><g class="message" data-entity-1="part2" data-entity-2="part7" id="msg17"><polygon fill="#181818" points="866.2551,1000.3501,876.2551,1004.3501,866.2551,1008.3501,870.2551,1004.3501" style="stroke:#181818;stroke-width:1;"/><line style="stroke:#181818;stroke-width:2;" x1="277.2588" x2="872.2551" y1="1004.3501" y2="1004.3501"/><text fill="#000000" font-family="Georgia" font-size="11" lengthAdjust="spacing" textLength="102.647" x="284.2588" y="999.9385">UPSERT rental_data</text></g><g class="message" data-entity-1="part2" data-entity-2="part7" id="msg18"><polygon fill="#181818" points="866.2551,1026.8486,876.2551,1030.8486,866.2551,1034.8486,870.2551,1030.8486" style="stroke:#181818;stroke-width:1;"/><line style="stroke:#181818;stroke-width:2;" x1="277.2588" x2="872.2551" y1="1030.8486" y2="1030.8486"/><text fill="#000000" font-family="Georgia" font-size="11" lengthAdjust="spacing" textLength="146.7168" x="284.2588" y="1026.437">UPSERT supplementary_data</text></g><g class="message" data-entity-1="part7" data-entity-2="part2" id="msg19"><polygon fill="#181818" points="288.2588,1053.3472,278.2588,1057.3472,288.2588,1061.3472,284.2588,1057.3472" style="stroke:#181818;stroke-width:1;"/><line style="stroke:#181818;stroke-width:2;stroke-dasharray:2,2;" x1="282.2588" x2="877.2551" y1="1057.3472" y2="1057.3472"/><text fill="#000000" font-family="Georgia" font-size="11" lengthAdjust="spacing" textLength="58.3462" x="294.2588" y="1052.9355">Data loaded</text></g><g class="message" data-entity-1="part2" data-entity-2="part2" id="msg20"><line style="stroke:#181818;stroke-width:2;" x1="277.2588" x2="319.2588" y1="1121.3413" y2="1121.3413"/><line style="stroke:#181818;stroke-width:2;" x1="319.2588" x2="319.2588" y1="1121.3413" y2="1134.3413"/><line style="stroke:#181818;stroke-width:2;" x1="278.2588" x2="319.2588" y1="1134.3413" y2="1134.3413"/><polygon fill="#181818" points="288.2588,1130.3413,278.2588,1134.3413,288.2588,1138.3413,284.2588,1134.3413" style="stroke:#181818;stroke-width:1;"/><text fill="#000000" font-family="Georgia" font-size="11" lengthAdjust="spacing" textLength="121.7681" x="284.2588" y="1079.4341">Recompute area profiles:</text><text fill="#000000" font-family="Georgia" font-size="11" lengthAdjust="spacing" textLength="128.9546" x="284.2588" y="1091.9326">- Demographic summaries</text><text fill="#000000" font-family="Georgia" font-size="11" lengthAdjust="spacing" textLength="149.499" x="284.2588" y="1104.4312">- Transport accessibility scores</text><text fill="#000000" font-family="Georgia" font-size="11" lengthAdjust="spacing" textLength="101.2021" x="284.2588" y="1116.9297">- Rental benchmarks</text></g><g class="message" data-entity-1="part2" data-entity-2="part7" id="msg21"><polygon fill="#181818" points="866.2551,1169.3384,876.2551,1173.3384,866.2551,1177.3384,870.2551,1173.3384" style="stroke:#181818;stroke-width:1;"/><line style="stroke:#181818;stroke-width:2;" x1="277.2588" x2="872.2551" y1="1173.3384" y2="1173.3384"/><text fill="#000000" font-family="Georgia" font-size="11" lengthAdjust="spacing" textLength="112.0142" x="284.2588" y="1156.4282">UPDATE area_profiles</text><text fill="#000000" font-family="Georgia" font-size="11" lengthAdjust="spacing" textLength="200.0464" x="284.2588" y="1168.9268">(demographic, transport, rental per area)</text></g><g class="message" data-entity-1="part7" data-entity-2="part2" id="msg22"><polygon fill="#181818" points="288.2588,1195.8369,278.2588,1199.8369,288.2588,1203.8369,284.2588,1199.8369" style="stroke:#181818;stroke-width:1;"/><line style="stroke:#181818;stroke-width:2;stroke-dasharray:2,2;" x1="282.2588" x2="877.2551" y1="1199.8369" y2="1199.8369"/><text fill="#000000" font-family="Georgia" font-size="11" lengthAdjust="spacing" textLength="104.6934" x="294.2588" y="1195.4253">Area profiles updated</text></g><g class="message" data-entity-1="part2" data-entity-2="part7" id="msg23"><polygon fill="#181818" points="866.2551,1247.3325,876.2551,1251.3325,866.2551,1255.3325,870.2551,1251.3325" style="stroke:#181818;stroke-width:1;"/><line style="stroke:#181818;stroke-width:2;" x1="277.2588" x2="872.2551" y1="1251.3325" y2="1251.3325"/><text fill="#000000" font-family="Georgia" font-size="11" lengthAdjust="spacing" textLength="166.4287" x="284.2588" y="1221.9238">INSERT INTO etl_execution_logs</text><text fill="#000000" font-family="Georgia" font-size="11" lengthAdjust="spacing" textLength="192.5698" x="284.2588" y="1234.4224">(job_id, provider, status, record_count,</text><text fill="#000000" font-family="Georgia" font-size="11" lengthAdjust="spacing" textLength="127.397" x="284.2588" y="1246.9209">started_at, completed_at)</text></g><g class="message" data-entity-1="part7" data-entity-2="part2" id="msg24"><polygon fill="#181818" points="288.2588,1273.8311,278.2588,1277.8311,288.2588,1281.8311,284.2588,1277.8311" style="stroke:#181818;stroke-width:1;"/><line style="stroke:#181818;stroke-width:2;stroke-dasharray:2,2;" x1="282.2588" x2="877.2551" y1="1277.8311" y2="1277.8311"/><text fill="#000000" font-family="Georgia" font-size="11" lengthAdjust="spacing" textLength="68.7822" x="294.2588" y="1273.4194">Logs recorded</text></g><g class="message" data-entity-1="part2" data-entity-2="part7" id="msg25"><polygon fill="#181818" points="866.2551,1312.8281,876.2551,1316.8281,866.2551,1320.8281,870.2551,1316.8281" style="stroke:#181818;stroke-width:1;"/><line style="stroke:#181818;stroke-width:2;" x1="277.2588" x2="872.2551" y1="1316.8281" y2="1316.8281"/><text fill="#000000" font-family="Georgia" font-size="11" lengthAdjust="spacing" textLength="117.917" x="284.2588" y="1299.918">UPDATE system_config</text><text fill="#000000" font-family="Georgia" font-size="11" lengthAdjust="spacing" textLength="181.6611" x="284.2588" y="1312.4165">SET last_etl_completed_at = NOW()</text></g><g class="message" data-entity-1="part7" data-entity-2="part2" id="msg26"><polygon fill="#181818" points="288.2588,1339.3267,278.2588,1343.3267,288.2588,1347.3267,284.2588,1343.3267" style="stroke:#181818;stroke-width:1;"/><line style="stroke:#181818;stroke-width:2;stroke-dasharray:2,2;" x1="282.2588" x2="877.2551" y1="1343.3267" y2="1343.3267"/><text fill="#000000" font-family="Georgia" font-size="11" lengthAdjust="spacing" textLength="138.1338" x="294.2588" y="1338.915">Freshness indicator updated</text></g><path d="M203,1361.3267 L203,1385.3267 A5,5 0 0 0 208,1390.3267 L345,1390.3267 A5,5 0 0 0 350,1385.3267 L350,1366.3267 L340,1356.3267 L208,1356.3267 A5,5 0 0 0 203,1361.3267" fill="#FEFFDD" style="stroke:#181818;stroke-width:0.5;"/><path d="M340,1356.3267 L340,1363.8267 A2.5,2.5 0 0 0 342.5,1366.3267 L350,1366.3267 L340,1356.3267" fill="#FEFFDD" style="stroke:#181818;stroke-width:0.5;"/><text fill="#000000" font-family="Georgia" font-size="11" lengthAdjust="spacing" textLength="126.4731" x="209" y="1371.4136">Data freshness status now</text><text fill="#000000" font-family="Georgia" font-size="11" lengthAdjust="spacing" textLength="123.3794" x="209" y="1383.9121">visible to users via UC-26</text><?plantuml-src VLRDRjj64BxpAGO-MQXinqQJWuqMO2p7S65BXYYd1Qf2M94ZQcDobzrTodLEVOWyOPwaCxiaJIgkTH8vCz_EzytFqabN83nS7fszFuTvhU04xhIIJXkO22TWZXk3TWk7LulRKHJPHwagOKG95l-kKQKO6wEV5bkPFYgq5ivwBaRNAakrKMZWz5tFaE56r8Nxf9MRYXBX6hN9fNZT8v5V4KvFeuWiJgQo4ih1GP9kCQiBD4jrU6aqvnrdfLIZ0n0M-CtG_wD87r5bv1s_-nc-__iDY13C3C5OPmJn3P5a7GRE5Dw9Yk0JgVB42USXtWVlO1m6t2vYBzsTA8g-BxqVEZxCOqWgaIB4zpTzJp8CFJE2EyxrxjZcVRzhlKkk8pQkXKKuc3J_l77oCOgyC4U_CYauXuMHUKwbOE9Vz9gGR2DY1YbxKirBeMfHW60fmOM0KSJn7Sojpbi8i8xINAgV-64bit5uWTbAk2XIsY7e7Pr8WUEGBSKpYkvqHmjSyQ904ekfm0OT6s5ZT0baWChedSpGMDy2SD-umujt1FHhacpgTGxNLmjgerBdHbJKdjwTE8iS8QVEhEmOf4frYMEeT5KNmadIOFqCjbv_rGf7VLGkQe2af9Mjj74juDrymRGvcY3NjQKdpUXq2D4Rm7390un1vKJHOkn4AbJw35wGSMkKAiD_zX1Q5Hd3rbLLOCdEvjb3MNGseZQFeaQ6ewvias26mz-IsVJaClayYfZKcmwSxfiE8PitNI9HE2vALqRO25bO-DFldEFuylZqBqzmq2vDdwGq_rBLr0rFqcr9br98HNEuL5rJN42XSzz4Jf9c35uRl5YgjhajXJdIPwF3qTJjRN2GYXEC-ttctTe4h_ve4_nX2b8ZQKRfKAGTI8ie8RXcT8YCt92Dk-97TcEQJiAOeoCwT2xkfAQ-QIi8jKgtGkMOXGG71tyMXIH73EqlbSESqdY6Yg1R1irebs9C2fRK8mvvEO_11ng6jarb_9BV1Kpk_q5nYFlPAzpd-0LJHsVxk2xjfM9Hl1ONhFc0sulhAvmMF5DKdz8xd2_L4KpfYK9ehGKcbb_6UMumPmuqfbKX5FS228FYf1dQ3jWB_72VNCq7Ms3L39n12a_nfAwy95sQ1kc-okpeDPXkyZt8QnvXRl_NF9ZNu4NcuVHGDuiCzmMQ8zUHreadotNUK2DRhzIaj-DiNPR2IFHgBRfD9TAKoY_Nik1EiKGnUCp3dbdJFRwbk4UxBzyaNbpv8rVjaQHTJyxnYoZTrk96v93Ha5pSJno2xjdml9kfb-bckfW1kc95oo-jkIjNFE9qSdlBj7tkxnjN-ut9TLkbzCNXnZJxtJNqCW7yj9VJBM-E4BgVIyFTFbk79U6gZQIjaz3MBOHrAqwl3mo_m7Js--4U_YV-TFAVHRJAUHlG2kgOx-yxN_rD5n6OqTvuMggTfEBHPvhJK5jUK3if_3VRX-W_?></g></svg>