<?plantuml 1.2026.2?><svg xmlns="http://www.w3.org/2000/svg" xmlns:xlink="http://www.w3.org/1999/xlink" contentStyleType="text/css" data-diagram-type="SEQUENCE" height="885px" preserveAspectRatio="none" style="width:956px;height:885px;background:#FFFFFF;" version="1.1" viewBox="0 0 956 885" width="956px" zoomAndPan="magnify"><title>SmartLocate SG - Compare View Sequence</title><defs/><g><text fill="#000000" font-family="sans-serif" font-size="14" font-weight="bold" lengthAdjust="spacing" textLength="287.8682" x="330.1973" y="29.5332">SmartLocate SG - Compare View Sequence</text><g class="participant-lifeline" data-entity-uid="part1" data-qualified-name="User" id="part1-lifeline"><g><title>User</title><rect fill="#000000" fill-opacity="0.00000" height="682.0313" width="8" x="18.7793" y="121.2188"/><line style="stroke:#181818;stroke-width:0.5;stroke-dasharray:5,5;" x1="22" x2="22" y1="121.2188" y2="803.25"/></g></g><g class="participant-lifeline" data-entity-uid="part2" data-qualified-name="UI" id="part2-lifeline"><g><title>ComparePage</title><rect fill="#000000" fill-opacity="0.00000" height="682.0313" width="8" x="242.9209" y="121.2188"/><line style="stroke:#181818;stroke-width:0.5;stroke-dasharray:5,5;" x1="246.7832" x2="246.7832" y1="121.2188" y2="803.25"/></g></g><g class="participant-lifeline" data-entity-uid="part3" data-qualified-name="CompareCtl" id="part3-lifeline"><g><title>CompareController</title><rect fill="#000000" fill-opacity="0.00000" height="682.0313" width="8" x="437.8125" y="121.2188"/><line style="stroke:#181818;stroke-width:0.5;stroke-dasharray:5,5;" x1="441.6782" x2="441.6782" y1="121.2188" y2="803.25"/></g></g><g class="participant-lifeline" data-entity-uid="part4" data-qualified-name="ExportCtl" id="part4-lifeline"><g><title>ExportController</title><rect fill="#000000" fill-opacity="0.00000" height="682.0313" width="8" x="596.3296" y="121.2188"/><line style="stroke:#181818;stroke-width:0.5;stroke-dasharray:5,5;" x1="599.7539" x2="599.7539" y1="121.2188" y2="803.25"/></g></g><g class="participant-lifeline" data-entity-uid="part5" data-qualified-name="SiteRepo" id="part5-lifeline"><g><title>CandidateSiteRepository</title><rect fill="#000000" fill-opacity="0.00000" height="682.0313" width="8" x="740.3394" y="121.2188"/><line style="stroke:#181818;stroke-width:0.5;stroke-dasharray:5,5;" x1="743.9053" x2="743.9053" y1="121.2188" y2="803.25"/></g></g><g class="participant-lifeline" data-entity-uid="part6" data-qualified-name="ScoreRepo" id="part6-lifeline"><g><title>ScoreRepository</title><rect fill="#000000" fill-opacity="0.00000" height="682.0313" width="8" x="885.5181" y="121.2188"/><line style="stroke:#181818;stroke-width:0.5;stroke-dasharray:5,5;" x1="888.7734" x2="888.7734" y1="121.2188" y2="803.25"/></g></g><g class="participant participant-head" data-entity-uid="part1" data-qualified-name="User" id="part1-head"><text fill="#000000" font-family="sans-serif" font-size="14" lengthAdjust="spacing" textLength="29.5586" x="5" y="118.1426">User</text><ellipse cx="22.7793" cy="52.1094" fill="#E2E2F0" rx="8" ry="8" style="stroke:#181818;stroke-width:0.5;"/><path d="M22.7793,60.1094 L22.7793,87.1094 M9.7793,68.1094 L35.7793,68.1094 M22.7793,87.1094 L9.7793,102.1094 M22.7793,87.1094 L35.7793,102.1094" fill="none" style="stroke:#181818;stroke-width:0.5;"/></g><g class="participant participant-tail" data-entity-uid="part1" data-qualified-name="User" id="part1-tail"><text fill="#000000" font-family="sans-serif" font-size="14" lengthAdjust="spacing" textLength="29.5586" x="5" y="816.7832">User</text><ellipse cx="22.7793" cy="828.3594" fill="#E2E2F0" rx="8" ry="8" style="stroke:#181818;stroke-width:0.5;"/><path d="M22.7793,836.3594 L22.7793,863.3594 M9.7793,844.3594 L35.7793,844.3594 M22.7793,863.3594 L9.7793,878.3594 M22.7793,863.3594 L35.7793,878.3594" fill="none" style="stroke:#181818;stroke-width:0.5;"/></g><g class="participant participant-head" data-entity-uid="part2" data-qualified-name="UI" id="part2-head"><text fill="#000000" font-family="sans-serif" font-size="14" lengthAdjust="spacing" textLength="90.2754" x="198.7832" y="118.1426">ComparePage</text><path d="M226.4209,75.6094 L226.4209,99.6094 M226.4209,87.6094 L243.4209,87.6094" fill="none" style="stroke:#181818;stroke-width:0.5;"/><ellipse cx="255.4209" cy="87.6094" fill="#E2E2F0" rx="12" ry="12" style="stroke:#181818;stroke-width:0.5;"/></g><g class="participant participant-tail" data-entity-uid="part2" data-qualified-name="UI" id="part2-tail"><text fill="#000000" font-family="sans-serif" font-size="14" lengthAdjust="spacing" textLength="90.2754" x="198.7832" y="816.7832">ComparePage</text><path d="M226.4209,823.8594 L226.4209,847.8594 M226.4209,835.8594 L243.4209,835.8594" fill="none" style="stroke:#181818;stroke-width:0.5;"/><ellipse cx="255.4209" cy="835.8594" fill="#E2E2F0" rx="12" ry="12" style="stroke:#181818;stroke-width:0.5;"/></g><g class="participant participant-head" data-entity-uid="part3" data-qualified-name="CompareCtl" id="part3-head"><text fill="#000000" font-family="sans-serif" font-size="14" lengthAdjust="spacing" textLength="118.2686" x="379.6782" y="118.1426">CompareController</text><ellipse cx="441.8125" cy="87.6094" fill="#E2E2F0" rx="12" ry="12" style="stroke:#181818;stroke-width:0.5;"/><polygon fill="#181818" points="437.8125,75.6094,443.8125,70.6094,441.8125,75.6094,443.8125,80.6094,437.8125,75.6094" style="stroke:#181818;stroke-width:1;"/></g><g class="participant participant-tail" data-entity-uid="part3" data-qualified-name="CompareCtl" id="part3-tail"><text fill="#000000" font-family="sans-serif" font-size="14" lengthAdjust="spacing" textLength="118.2686" x="379.6782" y="816.7832">CompareController</text><ellipse cx="441.8125" cy="835.8594" fill="#E2E2F0" rx="12" ry="12" style="stroke:#181818;stroke-width:0.5;"/><polygon fill="#181818" points="437.8125,823.8594,443.8125,818.8594,441.8125,823.8594,443.8125,828.8594,437.8125,823.8594" style="stroke:#181818;stroke-width:1;"/></g><g class="participant participant-head" data-entity-uid="part4" data-qualified-name="ExportCtl" id="part4-head"><text fill="#000000" font-family="sans-serif" font-size="14" lengthAdjust="spacing" textLength="101.1514" x="546.7539" y="118.1426">ExportController</text><ellipse cx="600.3296" cy="87.6094" fill="#E2E2F0" rx="12" ry="12" style="stroke:#181818;stroke-width:0.5;"/><polygon fill="#181818" points="596.3296,75.6094,602.3296,70.6094,600.3296,75.6094,602.3296,80.6094,596.3296,75.6094" style="stroke:#181818;stroke-width:1;"/></g><g class="participant participant-tail" data-entity-uid="part4" data-qualified-name="ExportCtl" id="part4-tail"><text fill="#000000" font-family="sans-serif" font-size="14" lengthAdjust="spacing" textLength="101.1514" x="546.7539" y="816.7832">ExportController</text><ellipse cx="600.3296" cy="835.8594" fill="#E2E2F0" rx="12" ry="12" style="stroke:#181818;stroke-width:0.5;"/><polygon fill="#181818" points="596.3296,823.8594,602.3296,818.8594,600.3296,823.8594,602.3296,828.8594,596.3296,823.8594" style="stroke:#181818;stroke-width:1;"/></g><g class="participant participant-head" data-entity-uid="part5" data-qualified-name="SiteRepo" id="part5-head"><text fill="#000000" font-family="sans-serif" font-size="14" lengthAdjust="spacing" textLength="154.8682" x="663.9053" y="118.1426">CandidateSiteRepository</text><ellipse cx="744.3394" cy="87.6094" fill="#E2E2F0" rx="12" ry="12" style="stroke:#181818;stroke-width:0.5;"/><line style="stroke:#181818;stroke-width:0.5;" x1="732.3394" x2="756.3394" y1="101.6094" y2="101.6094"/></g><g class="participant participant-tail" data-entity-uid="part5" data-qualified-name="SiteRepo" id="part5-tail"><text fill="#000000" font-family="sans-serif" font-size="14" lengthAdjust="spacing" textLength="154.8682" x="663.9053" y="816.7832">CandidateSiteRepository</text><ellipse cx="744.3394" cy="835.8594" fill="#E2E2F0" rx="12" ry="12" style="stroke:#181818;stroke-width:0.5;"/><line style="stroke:#181818;stroke-width:0.5;" x1="732.3394" x2="756.3394" y1="849.8594" y2="849.8594"/></g><g class="participant participant-head" data-entity-uid="part6" data-qualified-name="ScoreRepo" id="part6-head"><text fill="#000000" font-family="sans-serif" font-size="14" lengthAdjust="spacing" textLength="103.4893" x="834.7734" y="118.1426">ScoreRepository</text><ellipse cx="889.5181" cy="87.6094" fill="#E2E2F0" rx="12" ry="12" style="stroke:#181818;stroke-width:0.5;"/><line style="stroke:#181818;stroke-width:0.5;" x1="877.5181" x2="901.5181" y1="101.6094" y2="101.6094"/></g><g class="participant participant-tail" data-entity-uid="part6" data-qualified-name="ScoreRepo" id="part6-tail"><text fill="#000000" font-family="sans-serif" font-size="14" lengthAdjust="spacing" textLength="103.4893" x="834.7734" y="816.7832">ScoreRepository</text><ellipse cx="889.5181" cy="835.8594" fill="#E2E2F0" rx="12" ry="12" style="stroke:#181818;stroke-width:0.5;"/><line style="stroke:#181818;stroke-width:0.5;" x1="877.5181" x2="901.5181" y1="849.8594" y2="849.8594"/></g><rect fill="#EEEEEE" height="3" style="stroke:#EEEEEE;stroke-width:1;" width="949.2627" x="0" y="152.3945"/><line style="stroke:#000000;stroke-width:1;" x1="0" x2="949.2627" y1="152.3945" y2="152.3945"/><line style="stroke:#000000;stroke-width:1;" x1="0" x2="949.2627" y1="155.3945" y2="155.3945"/><rect fill="#EEEEEE" height="24.3516" style="stroke:#000000;stroke-width:2;" width="142.5908" x="403.3359" y="141.2188"/><text fill="#000000" font-family="sans-serif" font-size="13" font-weight="bold" lengthAdjust="spacing" textLength="124.979" x="409.3359" y="158.7139">Open compare page</text><g class="message" data-entity-1="part1" data-entity-2="part2" id="msg1"><polygon fill="#181818" points="234.9209,193.9219,244.9209,197.9219,234.9209,201.9219,238.9209,197.9219" style="stroke:#181818;stroke-width:1;"/><line style="stroke:#181818;stroke-width:1;" x1="22.7793" x2="240.9209" y1="197.9219" y2="197.9219"/><text fill="#000000" font-family="sans-serif" font-size="13" lengthAdjust="spacing" textLength="121.4116" x="29.7793" y="193.0654">Open Compare page</text></g><g class="message" data-entity-1="part2" data-entity-2="part3" id="msg2"><polygon fill="#181818" points="429.8125,224.2734,439.8125,228.2734,429.8125,232.2734,433.8125,228.2734" style="stroke:#181818;stroke-width:1;"/><line style="stroke:#181818;stroke-width:1;" x1="246.9209" x2="435.8125" y1="228.2734" y2="228.2734"/><text fill="#000000" font-family="sans-serif" font-size="13" lengthAdjust="spacing" textLength="148.8462" x="253.9209" y="223.417">listCandidateSites(userId)</text></g><g class="message" data-entity-1="part3" data-entity-2="part5" id="msg3"><polygon fill="#181818" points="732.3394,254.625,742.3394,258.625,732.3394,262.625,736.3394,258.625" style="stroke:#181818;stroke-width:1;"/><line style="stroke:#181818;stroke-width:1;" x1="441.8125" x2="738.3394" y1="258.625" y2="258.625"/><text fill="#000000" font-family="sans-serif" font-size="13" lengthAdjust="spacing" textLength="108.3672" x="448.8125" y="253.7686">findByUser(userId)</text></g><g class="message" data-entity-1="part5" data-entity-2="part3" id="msg4"><polygon fill="#181818" points="452.8125,284.9766,442.8125,288.9766,452.8125,292.9766,448.8125,288.9766" style="stroke:#181818;stroke-width:1;"/><line style="stroke:#181818;stroke-width:1;stroke-dasharray:2,2;" x1="446.8125" x2="743.3394" y1="288.9766" y2="288.9766"/><text fill="#000000" font-family="sans-serif" font-size="13" lengthAdjust="spacing" textLength="33.9536" x="458.8125" y="284.1201">sites[]</text></g><g class="message" data-entity-1="part3" data-entity-2="part2" id="msg5"><polygon fill="#181818" points="257.9209,315.3281,247.9209,319.3281,257.9209,323.3281,253.9209,319.3281" style="stroke:#181818;stroke-width:1;"/><line style="stroke:#181818;stroke-width:1;stroke-dasharray:2,2;" x1="251.9209" x2="440.8125" y1="319.3281" y2="319.3281"/><text fill="#000000" font-family="sans-serif" font-size="13" lengthAdjust="spacing" textLength="33.9536" x="263.9209" y="314.4717">sites[]</text></g><rect fill="#EEEEEE" height="3" style="stroke:#EEEEEE;stroke-width:1;" width="949.2627" x="0" y="348.5039"/><line style="stroke:#000000;stroke-width:1;" x1="0" x2="949.2627" y1="348.5039" y2="348.5039"/><line style="stroke:#000000;stroke-width:1;" x1="0" x2="949.2627" y1="351.5039" y2="351.5039"/><rect fill="#EEEEEE" height="24.3516" style="stroke:#000000;stroke-width:2;" width="162.8462" x="393.2083" y="337.3281"/><text fill="#000000" font-family="sans-serif" font-size="13" font-weight="bold" lengthAdjust="spacing" textLength="145.2344" x="399.2083" y="354.8232">Compare selected sites</text><g class="message" data-entity-1="part1" data-entity-2="part2" id="msg6"><polygon fill="#181818" points="234.9209,390.0313,244.9209,394.0313,234.9209,398.0313,238.9209,394.0313" style="stroke:#181818;stroke-width:1;"/><line style="stroke:#181818;stroke-width:1;" x1="22.7793" x2="240.9209" y1="394.0313" y2="394.0313"/><text fill="#000000" font-family="sans-serif" font-size="13" lengthAdjust="spacing" textLength="200.1416" x="29.7793" y="389.1748">Select 2-3 sites and click Compare</text></g><g class="message" data-entity-1="part2" data-entity-2="part3" id="msg7"><polygon fill="#181818" points="429.8125,420.3828,439.8125,424.3828,429.8125,428.3828,433.8125,424.3828" style="stroke:#181818;stroke-width:1;"/><line style="stroke:#181818;stroke-width:1;" x1="246.9209" x2="435.8125" y1="424.3828" y2="424.3828"/><text fill="#000000" font-family="sans-serif" font-size="13" lengthAdjust="spacing" textLength="143.7808" x="253.9209" y="419.5264">buildComparison(siteIds)</text></g><g class="message" data-entity-1="part3" data-entity-2="part3" id="msg8"><line style="stroke:#181818;stroke-width:1;" x1="441.8125" x2="483.8125" y1="454.7344" y2="454.7344"/><line style="stroke:#181818;stroke-width:1;" x1="483.8125" x2="483.8125" y1="454.7344" y2="467.7344"/><line style="stroke:#181818;stroke-width:1;" x1="442.8125" x2="483.8125" y1="467.7344" y2="467.7344"/><polygon fill="#181818" points="452.8125,463.7344,442.8125,467.7344,452.8125,471.7344,448.8125,467.7344" style="stroke:#181818;stroke-width:1;"/><text fill="#000000" font-family="sans-serif" font-size="13" lengthAdjust="spacing" textLength="144.5171" x="448.8125" y="449.8779">validateSelection(siteIds)</text></g><g class="message" data-entity-1="part3" data-entity-2="part5" id="msg9"><polygon fill="#181818" points="732.3394,494.0859,742.3394,498.0859,732.3394,502.0859,736.3394,498.0859" style="stroke:#181818;stroke-width:1;"/><line style="stroke:#181818;stroke-width:1;" x1="441.8125" x2="738.3394" y1="498.0859" y2="498.0859"/><text fill="#000000" font-family="sans-serif" font-size="13" lengthAdjust="spacing" textLength="143.0571" x="448.8125" y="493.2295">findByIds(userId, siteIds)</text></g><g class="message" data-entity-1="part5" data-entity-2="part3" id="msg10"><polygon fill="#181818" points="452.8125,524.4375,442.8125,528.4375,452.8125,532.4375,448.8125,528.4375" style="stroke:#181818;stroke-width:1;"/><line style="stroke:#181818;stroke-width:1;stroke-dasharray:2,2;" x1="446.8125" x2="743.3394" y1="528.4375" y2="528.4375"/><text fill="#000000" font-family="sans-serif" font-size="13" lengthAdjust="spacing" textLength="84.5444" x="458.8125" y="523.5811">selectedSites[]</text></g><g class="message" data-entity-1="part3" data-entity-2="part6" id="msg11"><polygon fill="#181818" points="877.5181,554.7891,887.5181,558.7891,877.5181,562.7891,881.5181,558.7891" style="stroke:#181818;stroke-width:1;"/><line style="stroke:#181818;stroke-width:1;" x1="441.8125" x2="883.5181" y1="558.7891" y2="558.7891"/><text fill="#000000" font-family="sans-serif" font-size="13" lengthAdjust="spacing" textLength="122.1035" x="448.8125" y="553.9326">findBySiteIds(siteIds)</text></g><g class="message" data-entity-1="part6" data-entity-2="part3" id="msg12"><polygon fill="#181818" points="452.8125,585.1406,442.8125,589.1406,452.8125,593.1406,448.8125,589.1406" style="stroke:#181818;stroke-width:1;"/><line style="stroke:#181818;stroke-width:1;stroke-dasharray:2,2;" x1="446.8125" x2="888.5181" y1="589.1406" y2="589.1406"/><text fill="#000000" font-family="sans-serif" font-size="13" lengthAdjust="spacing" textLength="100.4453" x="458.8125" y="584.2842">scoreSnapshots[]</text></g><g class="message" data-entity-1="part3" data-entity-2="part2" id="msg13"><polygon fill="#181818" points="257.9209,615.4922,247.9209,619.4922,257.9209,623.4922,253.9209,619.4922" style="stroke:#181818;stroke-width:1;"/><line style="stroke:#181818;stroke-width:1;stroke-dasharray:2,2;" x1="251.9209" x2="440.8125" y1="619.4922" y2="619.4922"/><text fill="#000000" font-family="sans-serif" font-size="13" lengthAdjust="spacing" textLength="170.8916" x="263.9209" y="614.6357">comparisonTable + chartData</text></g><rect fill="#EEEEEE" height="3" style="stroke:#EEEEEE;stroke-width:1;" width="949.2627" x="0" y="648.668"/><line style="stroke:#000000;stroke-width:1;" x1="0" x2="949.2627" y1="648.668" y2="648.668"/><line style="stroke:#000000;stroke-width:1;" x1="0" x2="949.2627" y1="651.668" y2="651.668"/><rect fill="#EEEEEE" height="24.3516" style="stroke:#000000;stroke-width:2;" width="113.6709" x="417.7959" y="637.4922"/><text fill="#000000" font-family="sans-serif" font-size="13" font-weight="bold" lengthAdjust="spacing" textLength="96.0591" x="423.7959" y="654.9873">Optional export</text><g class="message" data-entity-1="part1" data-entity-2="part2" id="msg14"><polygon fill="#181818" points="234.9209,690.1953,244.9209,694.1953,234.9209,698.1953,238.9209,694.1953" style="stroke:#181818;stroke-width:1;"/><line style="stroke:#181818;stroke-width:1;" x1="22.7793" x2="240.9209" y1="694.1953" y2="694.1953"/><text fill="#000000" font-family="sans-serif" font-size="13" lengthAdjust="spacing" textLength="67.1836" x="29.7793" y="689.3389">Export PDF</text></g><g class="message" data-entity-1="part2" data-entity-2="part4" id="msg15"><polygon fill="#181818" points="588.3296,720.5469,598.3296,724.5469,588.3296,728.5469,592.3296,724.5469" style="stroke:#181818;stroke-width:1;"/><line style="stroke:#181818;stroke-width:1;" x1="246.9209" x2="594.3296" y1="724.5469" y2="724.5469"/><text fill="#000000" font-family="sans-serif" font-size="13" lengthAdjust="spacing" textLength="238.4307" x="253.9209" y="719.6904">exportComparisonPdf(comparisonResult)</text></g><g class="message" data-entity-1="part4" data-entity-2="part2" id="msg16"><polygon fill="#181818" points="257.9209,750.8984,247.9209,754.8984,257.9209,758.8984,253.9209,754.8984" style="stroke:#181818;stroke-width:1;"/><line style="stroke:#181818;stroke-width:1;stroke-dasharray:2,2;" x1="251.9209" x2="599.3296" y1="754.8984" y2="754.8984"/><text fill="#000000" font-family="sans-serif" font-size="13" lengthAdjust="spacing" textLength="44.0908" x="263.9209" y="750.042">pdfBlob</text></g><g class="message" data-entity-1="part2" data-entity-2="part1" id="msg17"><polygon fill="#181818" points="33.7793,781.25,23.7793,785.25,33.7793,789.25,29.7793,785.25" style="stroke:#181818;stroke-width:1;"/><line style="stroke:#181818;stroke-width:1;stroke-dasharray:2,2;" x1="27.7793" x2="245.9209" y1="785.25" y2="785.25"/><text fill="#000000" font-family="sans-serif" font-size="13" lengthAdjust="spacing" textLength="142.3398" x="39.7793" y="780.3936">Browser download starts</text></g><?plantuml-src VLEnRXin3Dtr5OGd1wsNTWlW37QQm4216BcsIz51bkX6g29T95uS_tsfEqaN-v9i4jyZ-Hv5aI6Bq3pAGD-zaiJdMrZ0sZ-sCY3yCdY01fywT0g5a8fyWDdFY646Ca8wY9tld9RX2BESjPL_SO0tGdb7mTkAhOUxpGLAbEp8_FRI-a1dn1na7Zeob9f9furcnOqXlCVMHyFYZZsxX2gvKJvCI2Kcn789ToqwKDbsomvWkHJ97ooks0XS3eprAuRWC8EZ1oPP4-b4MPntN6IZByGh7cSLYPopDqwlZgbNvLPqSTuWffg__vnKAmeBblmKeH4jAa8zW1DJJG_3byNNJ63jeAnH_qg5jrpkEcFr437HktbAtUXuxl4avrdQOIXzH_D-rcGopCc3-GmrvuC9PSVD6vEw6b-zbc-6agESaJAjdQ36oJO-U7hl6LGTp0-vuz_r2TG3_wzhIJAlMh8lBM2_r9Ct6NOTjjStUVPr-Hd4_3jAYwtUpyU6znWxInTYpAYgMhrVMR_hIwPOwdW9g-0FwQJzmLalUKs8fKRn7m00?></g></svg>