<?plantuml 1.2026.2?><svg xmlns="http://www.w3.org/2000/svg" xmlns:xlink="http://www.w3.org/1999/xlink" contentStyleType="text/css" data-diagram-type="DESCRIPTION" height="627px" preserveAspectRatio="none" style="width:1077px;height:627px;background:#FFFFFF;" version="1.1" viewBox="0 0 1077 627" width="1077px" zoomAndPan="magnify"><defs/><g><!--cluster SmartLocate SG\nComparison Module--><g class="cluster" data-qualified-name="SmartLocate SG.nComparison Module" data-source-line="5" id="ent0003"><rect fill="none" height="496" rx="2.5" ry="2.5" style="stroke:#181818;stroke-width:1;" width="945" x="126" y="7"/><text fill="#000000" font-family="sans-serif" font-size="14" font-weight="bold" lengthAdjust="spacing" textLength="108.9238" x="544.0381" y="23.5332">SmartLocate SG</text><text fill="#000000" font-family="sans-serif" font-size="14" font-weight="bold" lengthAdjust="spacing" textLength="134.5586" x="531.2207" y="41.1426">Comparison Module</text></g><!--entity UC_OpenCompare--><g class="entity" data-qualified-name="SmartLocate SG.nComparison Module.UC_OpenCompare" data-source-line="7" id="ent0004"><ellipse cx="606.8164" cy="451.7633" fill="#F1F1F1" rx="81.8164" ry="18.7633" style="stroke:#181818;stroke-width:0.5;"/><text fill="#000000" font-family="sans-serif" font-size="14" lengthAdjust="spacing" textLength="130.751" x="541.4409" y="457.068">Open Compare page</text></g><!--entity UC_Select--><g class="entity" data-qualified-name="SmartLocate SG.nComparison Module.UC_Select" data-source-line="9" id="ent0005"><ellipse cx="943.3196" cy="409.1823" fill="#F1F1F1" rx="111.3196" ry="25.1823" style="stroke:#181818;stroke-width:0.5;"/><text fill="#000000" font-family="sans-serif" font-size="14" lengthAdjust="spacing" textLength="171.9785" x="857.3304" y="409.8022">Select locations to compare</text><text fill="#000000" font-family="sans-serif" font-size="14" lengthAdjust="spacing" textLength="43.5586" x="921.5403" y="427.4116">(min 2)</text></g><!--entity UC_Criteria--><g class="entity" data-qualified-name="SmartLocate SG.nComparison Module.UC_Criteria" data-source-line="10" id="ent0006"><ellipse cx="262.875" cy="262.2357" fill="#F1F1F1" rx="114.375" ry="27.2357" style="stroke:#181818;stroke-width:0.5;"/><text fill="#000000" font-family="sans-serif" font-size="14" lengthAdjust="spacing" textLength="143.165" x="191.2925" y="257.778">Set comparison criteria</text><text fill="#000000" font-family="sans-serif" font-size="14" lengthAdjust="spacing" textLength="161.8477" x="181.9512" y="275.3874">(weights, business profile)</text></g><!--entity UC_ViewResults--><g class="entity" data-qualified-name="SmartLocate SG.nComparison Module.UC_ViewResults" data-source-line="12" id="ent0007"><ellipse cx="607.0733" cy="361.8901" fill="#F1F1F1" rx="108.0733" ry="27.3901" style="stroke:#181818;stroke-width:0.5;"/><text fill="#000000" font-family="sans-serif" font-size="14" lengthAdjust="spacing" textLength="151.7236" x="531.2115" y="359.1239">View comparison results</text><text fill="#000000" font-family="sans-serif" font-size="14" lengthAdjust="spacing" textLength="138.5029" x="537.8218" y="376.7332">(ranking, score deltas)</text></g><!--entity UC_Breakdown--><g class="entity" data-qualified-name="SmartLocate SG.nComparison Module.UC_Breakdown" data-source-line="13" id="ent0008"><ellipse cx="263.0751" cy="361.8489" fill="#F1F1F1" rx="121.0751" ry="37.8489" style="stroke:#181818;stroke-width:0.5;"/><text fill="#000000" font-family="sans-serif" font-size="14" lengthAdjust="spacing" textLength="178.9922" x="173.579" y="353.2263">View breakdown per location</text><text fill="#000000" font-family="sans-serif" font-size="14" lengthAdjust="spacing" textLength="147.8408" x="189.1546" y="370.8357">(demographics, access,</text><text fill="#000000" font-family="sans-serif" font-size="14" lengthAdjust="spacing" textLength="119.0547" x="203.5477" y="388.445">rental, competition)</text></g><!--entity UC_Map--><g class="entity" data-qualified-name="SmartLocate SG.nComparison Module.UC_Map" data-source-line="15" id="ent0009"><ellipse cx="262.8319" cy="460.7518" fill="#F1F1F1" rx="101.3319" ry="25.2518" style="stroke:#181818;stroke-width:0.5;"/><text fill="#000000" font-family="sans-serif" font-size="14" lengthAdjust="spacing" textLength="155.6338" x="185.015" y="461.2578">View compared locations</text><text fill="#000000" font-family="sans-serif" font-size="14" lengthAdjust="spacing" textLength="46.6963" x="239.4838" y="478.8672">on map</text></g><!--entity UC_Remove--><g class="entity" data-qualified-name="SmartLocate SG.nComparison Module.UC_Remove" data-source-line="16" id="ent0010"><ellipse cx="262.9723" cy="86.9945" fill="#F1F1F1" rx="117.9723" ry="25.9945" style="stroke:#181818;stroke-width:0.5;"/><text fill="#000000" font-family="sans-serif" font-size="14" lengthAdjust="spacing" textLength="212.4199" x="156.7623" y="92.2991">Remove location from comparison</text></g><!--entity UC_Swap--><g class="entity" data-qualified-name="SmartLocate SG.nComparison Module.UC_Swap" data-source-line="17" id="ent0011"><ellipse cx="263.161" cy="173.9301" fill="#F1F1F1" rx="97.161" ry="25.4301" style="stroke:#181818;stroke-width:0.5;"/><text fill="#000000" font-family="sans-serif" font-size="14" lengthAdjust="spacing" textLength="147.8477" x="189.2372" y="174.1464">Swap comparison order</text><text fill="#000000" font-family="sans-serif" font-size="14" lengthAdjust="spacing" textLength="58.3652" x="233.9784" y="191.7557">(optional)</text></g><!--entity User--><g class="entity" data-qualified-name="User" data-source-line="3" id="ent0002"><ellipse cx="42.5552" cy="509.5" fill="#F1F1F1" rx="8" ry="8" style="stroke:#181818;stroke-width:0.5;"/><path d="M42.5552,517.5 L42.5552,544.5 M29.5552,525.5 L55.5552,525.5 M42.5552,544.5 L29.5552,559.5 M42.5552,544.5 L55.5552,559.5" fill="none" style="stroke:#181818;stroke-width:0.5;"/><text fill="#000000" font-family="sans-serif" font-size="14" lengthAdjust="spacing" textLength="73.1104" x="6" y="575.5332">User (SME)</text></g><!--link User to UC_OpenCompare--><g class="link" data-entity-1="ent0002" data-entity-2="ent0004" data-link-type="dependency" data-source-line="20" id="lnk12"><path d="M79.14,556.96 C88.63,560.69 99.03,564.1 109,566 C266.15,596.05 318.54,620.42 469,566 C521.67,546.96 564.4886,502.4524 587.3086,475.3124" fill="none" id="User-to-UC_OpenCompare" style="stroke:#181818;stroke-width:1;"/><polygon fill="#181818" points="591.17,470.72,582.3164,475.0343,587.9522,474.547,588.4395,480.1828,591.17,470.72" style="stroke:#181818;stroke-width:1;"/></g><!--link User to UC_ViewResults--><g class="link" data-entity-1="ent0002" data-entity-2="ent0007" data-link-type="dependency" data-source-line="21" id="lnk13"><path d="M79.08,542.47 C142.76,545.54 279.33,546.05 384,504 C443.97,479.91 444.22,449.29 499,415 C515.87,404.44 529.7323,396.9701 547.2223,388.4801" fill="none" id="User-to-UC_ViewResults" style="stroke:#181818;stroke-width:1;"/><polygon fill="#181818" points="552.62,385.86,542.7767,386.1918,548.1219,388.0434,546.2703,393.3887,552.62,385.86" style="stroke:#181818;stroke-width:1;"/></g><!--link User to UC_Map--><g class="link" data-entity-1="ent0002" data-entity-2="ent0009" data-link-type="dependency" data-source-line="22" id="lnk14"><path d="M79.08,525.55 C88.76,521.71 99.25,517.62 109,514 C139.17,502.79 167.2814,492.9473 195.4214,483.3473" fill="none" id="User-to-UC_Map" style="stroke:#181818;stroke-width:1;"/><polygon fill="#181818" points="201.1,481.41,191.2905,480.5302,196.3678,483.0244,193.8736,488.1017,201.1,481.41" style="stroke:#181818;stroke-width:1;"/></g><!--link UC_OpenCompare to UC_Select--><g class="link" data-entity-1="ent0004" data-entity-2="ent0005" data-link-type="dependency" data-source-line="25" id="lnk15"><path d="M686.07,446.87 C721.53,444.1 763.98,440.18 802,435 C820.8,432.45 835.0164,430.1611 853.9764,426.7211" fill="none" id="UC_OpenCompare-to-UC_Select" style="stroke:#181818;stroke-width:1;stroke-dasharray:7,7;"/><polygon fill="#181818" points="859.88,425.65,850.3105,423.3209,854.9603,426.5426,851.7387,431.1924,859.88,425.65" style="stroke:#181818;stroke-width:1;"/><text fill="#000000" font-family="sans-serif" font-size="13" lengthAdjust="spacing" textLength="55.6563" x="746" y="431.4951">&#171;include&#187;</text></g><!--link UC_ViewResults to UC_Select--><g class="link" data-entity-1="ent0007" data-entity-2="ent0005" data-link-type="dependency" data-source-line="26" id="lnk16"><path d="M702.07,375.22 C747.86,381.66 796.8383,388.5355 842.6183,394.9655" fill="none" id="UC_ViewResults-to-UC_Select" style="stroke:#181818;stroke-width:1;stroke-dasharray:7,7;"/><polygon fill="#181818" points="848.56,395.8,840.2038,390.5871,843.6086,395.1046,839.0911,398.5093,848.56,395.8" style="stroke:#181818;stroke-width:1;"/><text fill="#000000" font-family="sans-serif" font-size="13" lengthAdjust="spacing" textLength="55.6563" x="746" y="378.4951">&#171;include&#187;</text></g><!--link UC_Criteria to UC_ViewResults--><g class="link" data-entity-1="ent0006" data-entity-2="ent0007" data-link-type="dependency" data-source-line="29" id="lnk17"><path d="M335.69,282.97 C394.36,300.12 471.121,322.5667 529.521,339.6367" fill="none" id="UC_Criteria-to-UC_ViewResults" style="stroke:#181818;stroke-width:1;stroke-dasharray:7,7;"/><polygon fill="#181818" points="535.28,341.32,527.7637,334.9557,530.4808,339.9172,525.5192,342.6344,535.28,341.32" style="stroke:#181818;stroke-width:1;"/><text fill="#000000" font-family="sans-serif" font-size="13" lengthAdjust="spacing" textLength="53.4917" x="415" y="303.4951">&#171;extend&#187;</text></g><!--link UC_Breakdown to UC_ViewResults--><g class="link" data-entity-1="ent0008" data-entity-2="ent0007" data-link-type="dependency" data-source-line="30" id="lnk18"><path d="M384.1,362 C421.43,362 456.34,362 492.74,362" fill="none" id="UC_Breakdown-to-UC_ViewResults" style="stroke:#181818;stroke-width:1;stroke-dasharray:7,7;"/><polygon fill="#181818" points="498.74,362,489.74,358,493.74,362,489.74,366,498.74,362" style="stroke:#181818;stroke-width:1;"/><text fill="#000000" font-family="sans-serif" font-size="13" lengthAdjust="spacing" textLength="53.4917" x="415" y="358.4951">&#171;extend&#187;</text></g><!--link UC_Map to UC_ViewResults--><g class="link" data-entity-1="ent0009" data-entity-2="ent0007" data-link-type="dependency" data-source-line="31" id="lnk19"><path d="M330.35,441.8 C389.11,424.79 468.8964,401.6877 529.0664,384.2777" fill="none" id="UC_Map-to-UC_ViewResults" style="stroke:#181818;stroke-width:1;stroke-dasharray:7,7;"/><polygon fill="#181818" points="534.83,382.61,525.0728,381.2691,530.027,383.9997,527.2964,388.9539,534.83,382.61" style="stroke:#181818;stroke-width:1;"/><text fill="#000000" font-family="sans-serif" font-size="13" lengthAdjust="spacing" textLength="53.4917" x="415" y="399.4951">&#171;extend&#187;</text></g><!--link UC_Remove to UC_ViewResults--><g class="link" data-entity-1="ent0010" data-entity-2="ent0007" data-link-type="dependency" data-source-line="32" id="lnk20"><path d="M334.63,107.78 C351.39,114.08 368.81,121.82 384,131 C474.44,185.68 549.4362,281.555 583.8962,329.875" fill="none" id="UC_Remove-to-UC_ViewResults" style="stroke:#181818;stroke-width:1;stroke-dasharray:7,7;"/><polygon fill="#181818" points="587.38,334.76,585.411,325.11,584.4768,330.6892,578.8976,329.755,587.38,334.76" style="stroke:#181818;stroke-width:1;"/><text fill="#000000" font-family="sans-serif" font-size="13" lengthAdjust="spacing" textLength="53.4917" x="415" y="152.4951">&#171;extend&#187;</text></g><!--link UC_Swap to UC_ViewResults--><g class="link" data-entity-1="ent0011" data-entity-2="ent0007" data-link-type="dependency" data-source-line="33" id="lnk21"><path d="M326.51,193.28 C345.37,199.93 365.87,207.99 384,217 C454.28,251.94 524.5959,301.0923 566.9459,332.4123" fill="none" id="UC_Swap-to-UC_ViewResults" style="stroke:#181818;stroke-width:1;stroke-dasharray:7,7;"/><polygon fill="#181818" points="571.77,335.98,566.9123,327.4125,567.7499,333.007,562.1554,333.8446,571.77,335.98" style="stroke:#181818;stroke-width:1;"/><text fill="#000000" font-family="sans-serif" font-size="13" lengthAdjust="spacing" textLength="53.4917" x="415" y="230.4951">&#171;extend&#187;</text></g><?plantuml-src ZP9DRnCn48Rl_XMZN6Ybj0UEgCg1274XgjG8Jf7Gr9xTMlNQrjZB8Y7-E-FiHxmW8CVrFkyxxtmuQZBa06pRbmp6CkbiWrSATGuCcy-966wEXm-t6y04vLEf0g5l7S7cs27dJq5Z9ZX-FFbzw2AoJS738PZUqGP-A0NG9zAOHF0OoSD84KHiQVJTVoq_flULu4XEoe4hDIHPAcdro9tyJMSzlBsTFKPshSuJVSwasMPYYw8SgBISjl3S9-if9OWS6kjeSTjFy2hE5qj3xSYKUfUJ63BwL-lRBIGTf3T3BcDQp8hkQMJ_i7jcmbSJ1WzHfZrtAfQ6kj0onXUh9IXgBJ6t9y_aCxhjEGPbM-2bpllPws-foLncUVBIGOTn5XymrgedAV-D5XmQ3btL-wmQiTNK1upra08ROkadnEA3xh8m0TLFfSvdTdUt-_qGwlTwWlLx2QtUo4t9q1iN1hNsWFlxtUKsu1qyF5YlNMzejrDhst-YKk9nYYzBR-HaEbb3KjMXpFhQifZGzqpUZEMM_Lm3IslNODEUhY3FY_aVzmi0?></g></svg>