<?plantuml 1.2026.2?><svg xmlns="http://www.w3.org/2000/svg" xmlns:xlink="http://www.w3.org/1999/xlink" contentStyleType="text/css" data-diagram-type="DESCRIPTION" height="1149px" preserveAspectRatio="none" style="width:1253px;height:1149px;background:#FFFFFF;" version="1.1" viewBox="0 0 1253 1149" width="1253px" zoomAndPan="magnify"><defs/><g><!--cluster Map Display--><g class="cluster" data-qualified-name="Map Display" data-source-line="26" id="ent0009"><rect fill="none" height="254" rx="2.5" ry="2.5" style="stroke:#181818;stroke-width:1;" width="544" x="276.5" y="7"/><text fill="#000000" font-family="sans-serif" font-size="14" font-weight="bold" lengthAdjust="spacing" textLength="81.6895" x="507.6553" y="23.5332">Map Display</text></g><!--cluster Map Layers--><g class="cluster" data-qualified-name="Map Layers" data-source-line="33" id="ent0014"><rect fill="none" height="255" rx="2.5" ry="2.5" style="stroke:#181818;stroke-width:1;" width="552" x="271.5" y="294"/><text fill="#000000" font-family="sans-serif" font-size="14" font-weight="bold" lengthAdjust="spacing" textLength="77.0342" x="508.9829" y="310.5332">Map Layers</text></g><!--cluster Site Evaluation--><g class="cluster" data-qualified-name="Site Evaluation" data-source-line="40" id="ent0019"><rect fill="none" height="167" rx="2.5" ry="2.5" style="stroke:#181818;stroke-width:1;" width="932.5" x="259" y="976"/><text fill="#000000" font-family="sans-serif" font-size="14" font-weight="bold" lengthAdjust="spacing" textLength="100.3584" x="675.0708" y="992.5332">Site Evaluation</text></g><!--cluster Scenario & Weight Management--><g class="cluster" data-qualified-name="Scenario . Weight Management" data-source-line="47" id="ent0024"><rect fill="none" height="290" rx="2.5" ry="2.5" style="stroke:#181818;stroke-width:1;" width="970" x="277" y="662"/><text fill="#000000" font-family="sans-serif" font-size="14" font-weight="bold" lengthAdjust="spacing" textLength="213.1445" x="655.4277" y="678.5332">Scenario &amp; Weight Management</text></g><!--entity MD1--><g class="entity" data-qualified-name="Map Display.MD1" data-source-line="27" id="ent0010"><ellipse cx="730.058" cy="172.8116" fill="#E3F3FD" rx="74.558" ry="17.3116" style="stroke:#000000;stroke-width:0.5;"/><text fill="#000000" font-family="sans-serif" font-size="14" lengthAdjust="spacing" textLength="112.8271" x="673.6445" y="178.1163">Display Base Map</text></g><!--entity MD2--><g class="entity" data-qualified-name="Map Display.MD2" data-source-line="28" id="ent0011"><ellipse cx="391.4043" cy="223.1809" fill="#E3F3FD" rx="98.9043" ry="22.1809" style="stroke:#000000;stroke-width:0.5;"/><text fill="#000000" font-family="sans-serif" font-size="14" lengthAdjust="spacing" textLength="170.4063" x="306.2012" y="228.4855">Display Choropleth Overlay</text></g><!--entity MD3--><g class="entity" data-qualified-name="Map Display.MD3" data-source-line="29" id="ent0012"><ellipse cx="391.3087" cy="65.0617" fill="#E3F3FD" rx="95.8087" ry="21.5617" style="stroke:#000000;stroke-width:0.5;"/><text fill="#000000" font-family="sans-serif" font-size="14" lengthAdjust="spacing" textLength="163.4063" x="309.6056" y="70.3664">Toggle Overlay Data Type</text></g><!--entity MD4--><g class="entity" data-qualified-name="Map Display.MD4" data-source-line="30" id="ent0013"><ellipse cx="391.7217" cy="144.0443" fill="#E3F3FD" rx="98.2217" ry="22.0443" style="stroke:#000000;stroke-width:0.5;"/><text fill="#000000" font-family="sans-serif" font-size="14" lengthAdjust="spacing" textLength="168.8682" x="307.2876" y="149.349">View Planning Area Details</text></g><!--entity ML1--><g class="entity" data-qualified-name="Map Layers.ML1" data-source-line="34" id="ent0015"><ellipse cx="391.6078" cy="510.2216" fill="#E3F3FD" rx="104.1078" ry="23.2216" style="stroke:#000000;stroke-width:0.5;"/><text fill="#000000" font-family="sans-serif" font-size="14" lengthAdjust="spacing" textLength="182.041" x="300.5873" y="515.5263">Display MRT Station Markers</text></g><!--entity ML2--><g class="entity" data-qualified-name="Map Layers.ML2" data-source-line="35" id="ent0016"><ellipse cx="391.5994" cy="351.9199" fill="#E3F3FD" rx="95.0994" ry="21.4199" style="stroke:#000000;stroke-width:0.5;"/><text fill="#000000" font-family="sans-serif" font-size="14" lengthAdjust="spacing" textLength="161.793" x="310.7029" y="357.2246">Display MRT Exit Markers</text></g><!--entity ML3--><g class="entity" data-qualified-name="Map Layers.ML3" data-source-line="36" id="ent0017"><ellipse cx="391.2754" cy="429.8551" fill="#E3F3FD" rx="94.7754" ry="21.3551" style="stroke:#000000;stroke-width:0.5;"/><text fill="#000000" font-family="sans-serif" font-size="14" lengthAdjust="spacing" textLength="161.0547" x="310.748" y="435.1598">Display Bus Stop Markers</text></g><!--entity ML4--><g class="entity" data-qualified-name="Map Layers.ML4" data-source-line="37" id="ent0018"><ellipse cx="729.854" cy="462.8708" fill="#E3F3FD" rx="77.354" ry="17.8708" style="stroke:#000000;stroke-width:0.5;"/><text fill="#000000" font-family="sans-serif" font-size="14" lengthAdjust="spacing" textLength="119.8408" x="669.9336" y="468.1755">Toggle Map Layers</text></g><!--entity SE1--><g class="entity" data-qualified-name="Site Evaluation.SE1" data-source-line="41" id="ent0020"><ellipse cx="729.819" cy="1027.9517" fill="#E3F3FD" rx="61.319" ry="15.4517" style="stroke:#000000;stroke-width:0.5;"/><text fill="#000000" font-family="sans-serif" font-size="14" lengthAdjust="spacing" textLength="82.4756" x="688.5813" y="1033.2564">Drop POI Pin</text></g><!--entity SE2--><g class="entity" data-qualified-name="Site Evaluation.SE2" data-source-line="42" id="ent0021"><ellipse cx="729.9384" cy="1102.7877" fill="#E3F3FD" rx="106.9384" ry="23.7877" style="stroke:#000000;stroke-width:0.5;"/><text fill="#000000" font-family="sans-serif" font-size="14" lengthAdjust="spacing" textLength="188.3096" x="635.7836" y="1108.0924">Display Site Score Breakdown</text></g><!--entity SE3--><g class="entity" data-qualified-name="Site Evaluation.SE3" data-source-line="43" id="ent0022"><ellipse cx="1092.6025" cy="1031.0205" fill="#E3F3FD" rx="83.1025" ry="19.0205" style="stroke:#000000;stroke-width:0.5;"/><text fill="#000000" font-family="sans-serif" font-size="14" lengthAdjust="spacing" textLength="133.8408" x="1025.6821" y="1036.3252">Calculate Site Scores</text></g><!--entity SE4--><g class="entity" data-qualified-name="Site Evaluation.SE4" data-source-line="44" id="ent0023"><ellipse cx="391.5592" cy="1092.2118" fill="#E3F3FD" rx="116.5592" ry="25.7118" style="stroke:#000000;stroke-width:0.5;"/><text fill="#000000" font-family="sans-serif" font-size="14" lengthAdjust="spacing" textLength="209.3574" x="286.8805" y="1097.5165">Provide Feedback on Explanation</text></g><!--entity SWM1--><g class="entity" data-qualified-name="Scenario . Weight Management.SWM1" data-source-line="48" id="ent0025"><ellipse cx="730.0735" cy="815.1147" fill="#E3F3FD" rx="98.5735" ry="22.1147" style="stroke:#000000;stroke-width:0.5;"/><text fill="#000000" font-family="sans-serif" font-size="14" lengthAdjust="spacing" textLength="169.6611" x="645.2429" y="820.4194">Select Predefined Scenario</text></g><!--entity SWM2--><g class="entity" data-qualified-name="Scenario . Weight Management.SWM2" data-source-line="49" id="ent0026"><ellipse cx="1092.4287" cy="908.0857" fill="#E3F3FD" rx="125.9287" ry="27.5857" style="stroke:#000000;stroke-width:0.5;"/><text fill="#000000" font-family="sans-serif" font-size="14" lengthAdjust="spacing" textLength="229.5508" x="977.6533" y="913.3904">Apply Normal/Holiday Peak Scenario</text></g><!--entity SWM3--><g class="entity" data-qualified-name="Scenario . Weight Management.SWM3" data-source-line="50" id="ent0027"><ellipse cx="1092.7271" cy="815.1454" fill="#E3F3FD" rx="138.7271" ry="30.1454" style="stroke:#000000;stroke-width:0.5;"/><text fill="#000000" font-family="sans-serif" font-size="14" lengthAdjust="spacing" textLength="256.7783" x="964.3379" y="820.4501">Apply Pandemic/Delivery Focus Scenario</text></g><!--entity SWM4--><g class="entity" data-qualified-name="Scenario . Weight Management.SWM4" data-source-line="51" id="ent0028"><ellipse cx="1092.3418" cy="724.0684" fill="#E3F3FD" rx="118.3418" ry="26.0684" style="stroke:#000000;stroke-width:0.5;"/><text fill="#000000" font-family="sans-serif" font-size="14" lengthAdjust="spacing" textLength="213.2197" x="985.7319" y="729.373">Apply Cost-Saving Mode Scenario</text></g><!--entity SWM5--><g class="entity" data-qualified-name="Scenario . Weight Management.SWM5" data-source-line="52" id="ent0029"><ellipse cx="391.5553" cy="773.1111" fill="#E3F3FD" rx="98.5553" ry="22.1111" style="stroke:#000000;stroke-width:0.5;"/><text fill="#000000" font-family="sans-serif" font-size="14" lengthAdjust="spacing" textLength="169.6201" x="306.7452" y="778.4157">Custom Weight Adjustment</text></g><!--entity SWM6--><g class="entity" data-qualified-name="Scenario . Weight Management.SWM6" data-source-line="53" id="ent0030"><ellipse cx="391.5647" cy="850.8129" fill="#E3F3FD" rx="92.0647" ry="20.8129" style="stroke:#000000;stroke-width:0.5;"/><text fill="#000000" font-family="sans-serif" font-size="14" lengthAdjust="spacing" textLength="154.8477" x="314.1408" y="856.1176">Reset to Default Weights</text></g><!--entity A1--><g class="entity" data-qualified-name="A1" data-source-line="15" id="ent0002"><ellipse cx="108.9136" cy="463.5" fill="#F1F1F1" rx="8" ry="8" style="stroke:#181818;stroke-width:0.5;"/><path d="M108.9136,471.5 L108.9136,498.5 M95.9136,479.5 L121.9136,479.5 M108.9136,498.5 L95.9136,513.5 M108.9136,498.5 L121.9136,513.5" fill="none" style="stroke:#181818;stroke-width:0.5;"/><text fill="#000000" font-family="sans-serif" font-size="14" lengthAdjust="spacing" textLength="140.8271" x="38.5" y="529.5332">Small Business Owner</text></g><!--entity A2--><g class="entity" data-qualified-name="A2" data-source-line="16" id="ent0003"><ellipse cx="109.0928" cy="576.5" fill="#F1F1F1" rx="8" ry="8" style="stroke:#181818;stroke-width:0.5;"/><path d="M109.0928,584.5 L109.0928,611.5 M96.0928,592.5 L122.0928,592.5 M109.0928,611.5 L96.0928,626.5 M109.0928,611.5 L122.0928,626.5" fill="none" style="stroke:#181818;stroke-width:0.5;"/><text fill="#000000" font-family="sans-serif" font-size="14" lengthAdjust="spacing" textLength="206.1855" x="6" y="642.5332">Franchise/MNC Expansion Team</text></g><!--entity A3--><g class="entity" data-qualified-name="A3" data-source-line="17" id="ent0004"><ellipse cx="109.0757" cy="689.5" fill="#F1F1F1" rx="8" ry="8" style="stroke:#181818;stroke-width:0.5;"/><path d="M109.0757,697.5 L109.0757,724.5 M96.0757,705.5 L122.0757,705.5 M109.0757,724.5 L96.0757,739.5 M109.0757,724.5 L122.0757,739.5" fill="none" style="stroke:#181818;stroke-width:0.5;"/><text fill="#000000" font-family="sans-serif" font-size="14" lengthAdjust="spacing" textLength="115.1514" x="51.5" y="755.5332">Commercial Agent</text></g><!--entity BU--><g class="entity" data-qualified-name="BU" data-source-line="18" id="ent0005"><ellipse cx="391.6274" cy="576.5" fill="#F1F1F1" rx="8" ry="8" style="stroke:#181818;stroke-width:0.5;"/><path d="M391.6274,584.5 L391.6274,611.5 M378.6274,592.5 L404.6274,592.5 M391.6274,611.5 L378.6274,626.5 M391.6274,611.5 L404.6274,626.5" fill="none" style="stroke:#181818;stroke-width:0.5;"/><text fill="#000000" font-family="sans-serif" font-size="14" lengthAdjust="spacing" textLength="90.2549" x="346.5" y="642.5332">Business User</text></g><!--link A1 to BU--><g class="link" data-entity-1="ent0002" data-entity-2="ent0005" data-link-type="extension" data-source-line="21" id="lnk6"><path d="M179.7,522.08 C231.78,543.06 284.7242,564.3831 329.4242,582.3931" fill="none" id="A1-to-BU" style="stroke:#181818;stroke-width:1;"/><polygon fill="none" points="346.12,589.12,331.6665,576.8279,327.1819,587.9584,346.12,589.12" style="stroke:#181818;stroke-width:1;"/></g><!--link A2 to BU--><g class="link" data-entity-1="ent0003" data-entity-2="ent0005" data-link-type="extension" data-source-line="22" id="lnk7"><path d="M212.06,607 C258.27,607 292.47,607 328.41,607" fill="none" id="A2-to-BU" style="stroke:#181818;stroke-width:1;"/><polygon fill="none" points="346.41,607,328.41,601,328.41,613,346.41,607" style="stroke:#181818;stroke-width:1;"/></g><!--link A3 to BU--><g class="link" data-entity-1="ent0004" data-entity-2="ent0005" data-link-type="extension" data-source-line="23" id="lnk8"><path d="M166.76,697.13 C219.75,675.79 281.0436,651.0954 329.5536,631.5554" fill="none" id="A3-to-BU" style="stroke:#181818;stroke-width:1;"/><polygon fill="none" points="346.25,624.83,327.3118,625.9899,331.7954,637.1208,346.25,624.83" style="stroke:#181818;stroke-width:1;"/></g><!--link BU to MD1--><g class="link" data-entity-1="ent0005" data-entity-2="ent0010" data-link-type="dependency" data-source-line="57" id="lnk31"><path d="M436.64,595.98 C461.62,587.39 491.14,572.81 508,549 C568.85,463.07 484.69,404.8 538,314 C574.21,252.33 643.654,212.072 688.144,190.862" fill="none" id="BU-to-MD1" style="stroke:#181818;stroke-width:1;"/><polygon fill="#181818" points="693.56,188.28,683.7146,188.5423,689.0467,190.4317,687.1573,195.7637,693.56,188.28" style="stroke:#181818;stroke-width:1;"/></g><!--link BU to ML4--><g class="link" data-entity-1="ent0005" data-entity-2="ent0018" data-link-type="dependency" data-source-line="58" id="lnk32"><path d="M436.84,588.03 C503.85,559.35 624.2039,507.8507 686.5439,481.1707" fill="none" id="BU-to-ML4" style="stroke:#181818;stroke-width:1;"/><polygon fill="#181818" points="692.06,478.81,682.2121,478.6737,687.4633,480.7773,685.3597,486.0285,692.06,478.81" style="stroke:#181818;stroke-width:1;"/></g><!--link BU to SE1--><g class="link" data-entity-1="ent0005" data-entity-2="ent0020" data-link-type="dependency" data-source-line="59" id="lnk33"><path d="M436.75,624.26 C461.92,636.47 491.62,655.45 508,682 C571.39,784.76 464.8,855.98 538,952 C570.35,994.43 624.1534,1012.111 668.2334,1020.401" fill="none" id="BU-to-SE1" style="stroke:#181818;stroke-width:1;"/><polygon fill="#181818" points="674.13,1021.51,666.0244,1015.9155,669.2161,1020.5859,664.5458,1023.7776,674.13,1021.51" style="stroke:#181818;stroke-width:1;"/></g><!--link BU to SWM1--><g class="link" data-entity-1="ent0005" data-entity-2="ent0025" data-link-type="dependency" data-source-line="60" id="lnk34"><path d="M436.84,634.41 C505.01,676.55 628.9864,753.1752 690.1364,790.9752" fill="none" id="BU-to-SWM1" style="stroke:#181818;stroke-width:1;"/><polygon fill="#181818" points="695.24,794.13,689.6878,785.9953,690.987,791.501,685.4813,792.8002,695.24,794.13" style="stroke:#181818;stroke-width:1;"/></g><!--link MD2 to MD1--><g class="link" data-entity-1="ent0011" data-entity-2="ent0010" data-link-type="dependency" data-source-line="65" id="lnk35"><path d="M474.39,210.83 C533.62,202.03 606.5252,191.202 660.6952,183.152" fill="none" id="MD2-to-MD1" style="stroke:#181818;stroke-width:1;stroke-dasharray:7,7;"/><polygon fill="#181818" points="666.63,182.27,657.1398,179.6364,661.6843,183.005,658.3157,187.5495,666.63,182.27" style="stroke:#181818;stroke-width:1;"/><text fill="#000000" font-family="sans-serif" font-size="13" lengthAdjust="spacing" textLength="53.4917" x="539" y="190.4951">&#171;extend&#187;</text></g><!--link MD3 to MD1--><g class="link" data-entity-1="ent0012" data-entity-2="ent0010" data-link-type="dependency" data-source-line="66" id="lnk36"><path d="M447.31,82.59 C513.71,103.9 618.4968,137.5371 679.4968,157.1071" fill="none" id="MD3-to-MD1" style="stroke:#181818;stroke-width:1;stroke-dasharray:7,7;"/><polygon fill="#181818" points="685.21,158.94,677.8622,152.3819,680.449,157.4126,675.4183,159.9994,685.21,158.94" style="stroke:#181818;stroke-width:1;"/><text fill="#000000" font-family="sans-serif" font-size="13" lengthAdjust="spacing" textLength="53.4917" x="539" y="109.4951">&#171;extend&#187;</text></g><!--link MD4 to MD1--><g class="link" data-entity-1="ent0013" data-entity-2="ent0010" data-link-type="dependency" data-source-line="67" id="lnk37"><path d="M483.12,151.81 C538.69,156.6 602.7621,162.1253 653.8621,166.5253" fill="none" id="MD4-to-MD1" style="stroke:#181818;stroke-width:1;stroke-dasharray:7,7;"/><polygon fill="#181818" points="659.84,167.04,651.2163,162.2827,654.8584,166.6111,650.53,170.2532,659.84,167.04" style="stroke:#181818;stroke-width:1;"/><text fill="#000000" font-family="sans-serif" font-size="13" lengthAdjust="spacing" textLength="53.4917" x="539" y="153.4951">&#171;extend&#187;</text></g><!--link ML1 to ML4--><g class="link" data-entity-1="ent0015" data-entity-2="ent0018" data-link-type="dependency" data-source-line="70" id="lnk38"><path d="M480.03,497.77 C537.28,489.78 604.9376,480.3296 657.2276,473.0296" fill="none" id="ML1-to-ML4" style="stroke:#181818;stroke-width:1;stroke-dasharray:7,7;"/><polygon fill="#181818" points="663.17,472.2,653.7034,469.4828,658.218,472.8913,654.8095,477.406,663.17,472.2" style="stroke:#181818;stroke-width:1;"/><text fill="#000000" font-family="sans-serif" font-size="13" lengthAdjust="spacing" textLength="53.4917" x="539" y="479.4951">&#171;extend&#187;</text></g><!--link ML2 to ML4--><g class="link" data-entity-1="ent0016" data-entity-2="ent0018" data-link-type="dependency" data-source-line="71" id="lnk39"><path d="M446.19,369.71 C512.25,391.5 617.4719,426.2107 678.9319,446.4807" fill="none" id="ML2-to-ML4" style="stroke:#181818;stroke-width:1;stroke-dasharray:7,7;"/><polygon fill="#181818" points="684.63,448.36,677.3357,441.7424,679.8816,446.7939,674.83,449.3398,684.63,448.36" style="stroke:#181818;stroke-width:1;"/><text fill="#000000" font-family="sans-serif" font-size="13" lengthAdjust="spacing" textLength="53.4917" x="539" y="397.4951">&#171;extend&#187;</text></g><!--link ML3 to ML4--><g class="link" data-entity-1="ent0017" data-entity-2="ent0018" data-link-type="dependency" data-source-line="72" id="lnk40"><path d="M479.16,438.5 C534.75,443.95 600.0587,450.3542 652.2487,455.4742" fill="none" id="ML3-to-ML4" style="stroke:#181818;stroke-width:1;stroke-dasharray:7,7;"/><polygon fill="#181818" points="658.22,456.06,649.6535,451.2004,653.2439,455.5718,648.8725,459.1622,658.22,456.06" style="stroke:#181818;stroke-width:1;"/><text fill="#000000" font-family="sans-serif" font-size="13" lengthAdjust="spacing" textLength="53.4917" x="539" y="441.4951">&#171;extend&#187;</text></g><!--link SE1 to SE3--><g class="link" data-entity-1="ent0020" data-entity-2="ent0022" data-link-type="dependency" data-source-line="75" id="lnk41"><path d="M791.75,1028.51 C851.54,1029 937.2802,1029.7202 1003.5202,1030.2702" fill="none" id="SE1-to-SE3" style="stroke:#181818;stroke-width:1;"/><polygon fill="#181818" points="1009.52,1030.32,1000.5535,1026.2454,1004.5202,1030.2785,1000.4871,1034.2451,1009.52,1030.32" style="stroke:#181818;stroke-width:1;"/><text fill="#000000" font-family="sans-serif" font-size="13" lengthAdjust="spacing" textLength="55.6563" x="868" y="1025.4951">&#171;include&#187;</text></g><!--link SE2 to SE3--><g class="link" data-entity-1="ent0021" data-entity-2="ent0022" data-link-type="dependency" data-source-line="76" id="lnk42"><path d="M810.56,1087.11 C876.5,1073.94 963.0163,1056.6656 1023.5763,1044.5656" fill="none" id="SE2-to-SE3" style="stroke:#181818;stroke-width:1;"/><polygon fill="#181818" points="1029.46,1043.39,1019.8507,1041.2309,1024.5569,1044.3696,1021.4182,1049.0758,1029.46,1043.39" style="stroke:#181818;stroke-width:1;"/><text fill="#000000" font-family="sans-serif" font-size="13" lengthAdjust="spacing" textLength="55.6563" x="868" y="1060.4951">&#171;include&#187;</text></g><!--link SE4 to SE2--><g class="link" data-entity-1="ent0023" data-entity-2="ent0021" data-link-type="dependency" data-source-line="77" id="lnk43"><path d="M506.89,1095.74 C544.81,1096.98 580.8032,1098.1532 617.9832,1099.3732" fill="none" id="SE4-to-SE2" style="stroke:#181818;stroke-width:1;stroke-dasharray:7,7;"/><polygon fill="#181818" points="623.98,1099.57,615.116,1095.277,618.9827,1099.406,614.8537,1103.2727,623.98,1099.57" style="stroke:#181818;stroke-width:1;"/><text fill="#000000" font-family="sans-serif" font-size="13" lengthAdjust="spacing" textLength="53.4917" x="539" y="1092.4951">&#171;extend&#187;</text></g><!--link SWM1 to SWM2--><g class="link" data-entity-1="ent0025" data-entity-2="ent0026" data-link-type="dependency" data-source-line="80" id="lnk44"><path d="M795.45,831.63 C855.5,847.12 939.4701,868.7815 1004.4101,885.5315" fill="none" id="SWM1-to-SWM2" style="stroke:#181818;stroke-width:1;"/><polygon fill="#181818" points="1010.22,887.03,1002.5042,880.909,1005.3785,885.7812,1000.5062,888.6554,1010.22,887.03" style="stroke:#181818;stroke-width:1;"/><text fill="#000000" font-family="sans-serif" font-size="13" lengthAdjust="spacing" textLength="53.4917" x="869" y="846.4951">&#171;extend&#187;</text></g><!--link SWM1 to SWM3--><g class="link" data-entity-1="ent0025" data-entity-2="ent0027" data-link-type="dependency" data-source-line="81" id="lnk45"><path d="M828.56,815 C867.13,815 906.16,815 947.94,815" fill="none" id="SWM1-to-SWM3" style="stroke:#181818;stroke-width:1;"/><polygon fill="#181818" points="953.94,815,944.94,811,948.94,815,944.94,819,953.94,815" style="stroke:#181818;stroke-width:1;"/><text fill="#000000" font-family="sans-serif" font-size="13" lengthAdjust="spacing" textLength="53.4917" x="869" y="811.4951">&#171;extend&#187;</text></g><!--link SWM1 to SWM4--><g class="link" data-entity-1="ent0025" data-entity-2="ent0028" data-link-type="dependency" data-source-line="82" id="lnk46"><path d="M795.87,798.63 C857.09,783.17 943.1225,761.4585 1008.1725,745.0385" fill="none" id="SWM1-to-SWM4" style="stroke:#181818;stroke-width:1;"/><polygon fill="#181818" points="1013.99,743.57,1004.2847,741.8943,1009.1421,744.7937,1006.2427,749.6511,1013.99,743.57" style="stroke:#181818;stroke-width:1;"/><text fill="#000000" font-family="sans-serif" font-size="13" lengthAdjust="spacing" textLength="53.4917" x="869" y="762.4951">&#171;extend&#187;</text></g><!--link SWM1 to SE3--><g class="link" data-entity-1="ent0025" data-entity-2="ent0022" data-link-type="dependency" data-source-line="83" id="lnk47"><path d="M764.06,835.73 C807.44,862.83 886.03,911.61 954,952 C990.21,973.52 1027.0299,994.5719 1054.9999,1010.4219" fill="none" id="SWM1-to-SE3" style="stroke:#181818;stroke-width:1;"/><polygon fill="#181818" points="1060.22,1013.38,1054.3619,1005.4627,1055.8699,1010.9149,1050.4178,1012.4229,1060.22,1013.38" style="stroke:#181818;stroke-width:1;"/><text fill="#000000" font-family="sans-serif" font-size="13" lengthAdjust="spacing" textLength="55.6563" x="868" y="895.4951">&#171;include&#187;</text></g><!--link SWM5 to SWM1--><g class="link" data-entity-1="ent0029" data-entity-2="ent0025" data-link-type="dependency" data-source-line="84" id="lnk48"><path d="M477.85,783.65 C528.67,790 586.9862,797.2769 637.7862,803.6169" fill="none" id="SWM5-to-SWM1" style="stroke:#181818;stroke-width:1;stroke-dasharray:7,7;"/><polygon fill="#181818" points="643.74,804.36,635.3047,799.2762,638.7785,803.7408,634.3139,807.2146,643.74,804.36" style="stroke:#181818;stroke-width:1;"/><text fill="#000000" font-family="sans-serif" font-size="13" lengthAdjust="spacing" textLength="53.4917" x="539" y="787.4951">&#171;extend&#187;</text></g><!--link SWM6 to SWM1--><g class="link" data-entity-1="ent0030" data-entity-2="ent0025" data-link-type="dependency" data-source-line="85" id="lnk49"><path d="M483.59,851.18 C517.98,850.37 557.39,848.38 593,844 C616.24,841.14 635.5417,837.5763 657.8217,832.6463" fill="none" id="SWM6-to-SWM1" style="stroke:#181818;stroke-width:1;stroke-dasharray:7,7;"/><polygon fill="#181818" points="663.68,831.35,654.0284,829.3889,658.7981,832.4302,655.7568,837.2,663.68,831.35" style="stroke:#181818;stroke-width:1;"/><text fill="#000000" font-family="sans-serif" font-size="13" lengthAdjust="spacing" textLength="53.4917" x="539" y="840.4951">&#171;extend&#187;</text></g><?plantuml-src TLLDS-8u4BtpAxgOgjrJ9Wjcvh0raoe3PYQr45mOTiuQgo7Qo99BafDGi_lVjoNR2HZCILQ__dXFtOt4lGEdmOZ3emCk3EPEQ3MmJqALpB02AeivimY_1a2_ad4kr056VuJFdon_EXXTAJxJKXlua4IBQ36lRTfmDFNzJqd0mNydOLdkwFuYw2d4ryBKGLxa_aImmU_mzUq7yMoxtcGdDuCw_Z0hc9GmhQnGQ2siNnIQ8J0ByQY5B0nJ-QEmUBjwc47oMZ9bIGBO8YjgwBY5pdHHeCa5an0VKBdQ7BNcjpGxssIPxdoXtv2oCYai2zh68xYv-VVE6-Fn-p5wEvvpssK9pE8ioU3RPhrBa_afpNUDXYjMmbpOKhBZi56iVRjXSmzJ_qN0KDngFhgEcZrgeqk9xX7MpsX2m80Vd-Et-k0pDnYOCyTWUoonGKVdwBy5la0gcLB-4ME33ERec92smK_yitO8BTaHZUtbizfi8ND1Lg9bdWBM1rkE-XsIL-4ww76FN9MbyBhieAEhCfoM6s1TFfbm2CaparKe-98KYGxf-XvIeKA8BEbX4I9bkJO8KzBnYUkNrgF3PCPaNadcuMy-je5sQAH6FmkEi43aVgw1DALfe0ThoWrE5wHoLCm83R_13mnBP4KE1op2U7GOPYZ94rA37FSqAXnQzphwZrM7S5oMyWWFsj0OttxNKd1YdnBZ2yVnDSUKAOw5o6_dA0LrwH4MElTlsd6EhZdFj7Kt6NlstRhI72-y9XsfA-jqqQeGyt_eksYN1C4_dSCtQ36itZdkMILTusXR-EVhImwMzmz_dMswwOuMnrsOvlP8hTSSVGkrHw_kzTK2csGPR-_N3zdt-_GiEE7NfNz-Mda5DJWBVmzsGBi0FduCMU5F-F85NnqgVdT7XgZFCBbke1Jrs037agvytxamKWCQuzfdEUa4Muxx3D5r0sK94s1f0kX51oHC8r0KW4Bbik98I9gXNajDmICkWhTpmFPxwd7xdeXaR_Nlk9sQedxJfCzqMI1rMLsXntIzFlUO_WS0?></g></svg>