<?plantuml 1.2026.2?><svg xmlns="http://www.w3.org/2000/svg" xmlns:xlink="http://www.w3.org/1999/xlink" contentStyleType="text/css" data-diagram-type="DESCRIPTION" height="1155px" preserveAspectRatio="none" style="width:1065px;height:1155px;background:#FFFFFF;" version="1.1" viewBox="0 0 1065 1155" width="1065px" zoomAndPan="magnify"><defs/><g><!--cluster SmartLocate SG\nPortfolio Module--><g class="cluster" data-qualified-name="SmartLocate SG.nPortfolio Module" data-source-line="6" id="ent0004"><rect fill="none" height="935" rx="2.5" ry="2.5" style="stroke:#181818;stroke-width:1;" width="863" x="196" y="80.74"/><text fill="#000000" font-family="sans-serif" font-size="14" font-weight="bold" lengthAdjust="spacing" textLength="108.9238" x="573.0381" y="97.2732">SmartLocate SG</text><text fill="#000000" font-family="sans-serif" font-size="14" font-weight="bold" lengthAdjust="spacing" textLength="110.4277" x="572.2861" y="114.8826">Portfolio Module</text></g><!--entity UC_View--><g class="entity" data-qualified-name="SmartLocate SG.nPortfolio Module.UC_View" data-source-line="9" id="ent0005"><ellipse cx="636.0452" cy="854.549" fill="#F1F1F1" rx="87.0452" ry="19.809" style="stroke:#181818;stroke-width:0.5;"/><text fill="#000000" font-family="sans-serif" font-size="14" lengthAdjust="spacing" textLength="143.1855" x="564.4524" y="859.8537">View portfolio locations</text></g><!--entity UC_Filter--><g class="entity" data-qualified-name="SmartLocate SG.nPortfolio Module.UC_Filter" data-source-line="10" id="ent0006"><ellipse cx="321.8773" cy="897.9832" fill="#F1F1F1" rx="106.3773" ry="27.2432" style="stroke:#181818;stroke-width:0.5;"/><text fill="#000000" font-family="sans-serif" font-size="14" lengthAdjust="spacing" textLength="150.1787" x="246.7879" y="895.4299">Search or filter locations</text><text fill="#000000" font-family="sans-serif" font-size="14" lengthAdjust="spacing" textLength="133.0547" x="255.3499" y="913.0393">(by name or address)</text></g><!--entity UC_Select--><g class="entity" data-qualified-name="SmartLocate SG.nPortfolio Module.UC_Select" data-source-line="11" id="ent0007"><ellipse cx="941.684" cy="318.9768" fill="#F1F1F1" rx="101.684" ry="22.7368" style="stroke:#181818;stroke-width:0.5;"/><text fill="#000000" font-family="sans-serif" font-size="14" lengthAdjust="spacing" textLength="176.6406" x="853.3637" y="324.2815">Select location from portfolio</text></g><!--entity UC_Details--><g class="entity" data-qualified-name="SmartLocate SG.nPortfolio Module.UC_Details" data-source-line="14" id="ent0008"><ellipse cx="636.2052" cy="318.681" fill="#F1F1F1" rx="80.2052" ry="18.441" style="stroke:#181818;stroke-width:0.5;"/><text fill="#000000" font-family="sans-serif" font-size="14" lengthAdjust="spacing" textLength="126.8477" x="572.7814" y="323.9857">View location details</text></g><!--entity UC_Score--><g class="entity" data-qualified-name="SmartLocate SG.nPortfolio Module.UC_Score" data-source-line="15" id="ent0009"><ellipse cx="321.8337" cy="647.7592" fill="#F1F1F1" rx="81.8337" ry="26.0192" style="stroke:#181818;stroke-width:0.5;"/><text fill="#000000" font-family="sans-serif" font-size="14" lengthAdjust="spacing" textLength="120.6133" x="261.527" y="647.0431">View location score</text><text fill="#000000" font-family="sans-serif" font-size="14" lengthAdjust="spacing" textLength="73.1309" x="285.2683" y="664.6525">(composite)</text></g><!--entity UC_Breakdown--><g class="entity" data-qualified-name="SmartLocate SG.nPortfolio Module.UC_Breakdown" data-source-line="16" id="ent0010"><ellipse cx="322.1782" cy="173.5638" fill="#F1F1F1" rx="110.1782" ry="38.3238" style="stroke:#181818;stroke-width:0.5;"/><text fill="#000000" font-family="sans-serif" font-size="14" lengthAdjust="spacing" textLength="160.2891" x="242.0336" y="164.2196">View statistics breakdown</text><text fill="#000000" font-family="sans-serif" font-size="14" lengthAdjust="spacing" textLength="147.8408" x="248.2578" y="181.829">(demographics, access,</text><text fill="#000000" font-family="sans-serif" font-size="14" lengthAdjust="spacing" textLength="119.0547" x="262.6508" y="199.4384">rental, competition)</text></g><!--entity UC_Map--><g class="entity" data-qualified-name="SmartLocate SG.nPortfolio Module.UC_Map" data-source-line="17" id="ent0011"><ellipse cx="322.2375" cy="273.5482" fill="#F1F1F1" rx="95.2375" ry="25.8082" style="stroke:#181818;stroke-width:0.5;"/><text fill="#000000" font-family="sans-serif" font-size="14" lengthAdjust="spacing" textLength="142.4268" x="251.0242" y="273.162">Open selected location</text><text fill="#000000" font-family="sans-serif" font-size="14" lengthAdjust="spacing" textLength="77.0547" x="283.7102" y="290.7713">in Map page</text></g><!--entity UC_Notes--><g class="entity" data-qualified-name="SmartLocate SG.nPortfolio Module.UC_Notes" data-source-line="20" id="ent0012"><ellipse cx="321.8068" cy="361.6614" fill="#F1F1F1" rx="85.8068" ry="26.4214" style="stroke:#181818;stroke-width:0.5;"/><text fill="#000000" font-family="sans-serif" font-size="14" lengthAdjust="spacing" textLength="88.7305" x="277.4416" y="355.9946">Manage notes</text><text fill="#000000" font-family="sans-serif" font-size="14" lengthAdjust="spacing" textLength="124.5166" x="259.5485" y="373.6039">for selected location</text></g><!--entity UC_AddNote--><g class="entity" data-qualified-name="SmartLocate SG.nPortfolio Module.UC_AddNote" data-source-line="21" id="ent0013"><ellipse cx="322.1318" cy="570.6917" fill="#F1F1F1" rx="42.6318" ry="15.4517" style="stroke:#181818;stroke-width:0.5;"/><text fill="#000000" font-family="sans-serif" font-size="14" lengthAdjust="spacing" textLength="56.0479" x="294.1079" y="575.9964">Add note</text></g><!--entity UC_EditNote--><g class="entity" data-qualified-name="SmartLocate SG.nPortfolio Module.UC_EditNote" data-source-line="22" id="ent0014"><ellipse cx="322.0759" cy="438.6917" fill="#F1F1F1" rx="42.0759" ry="15.4517" style="stroke:#181818;stroke-width:0.5;"/><text fill="#000000" font-family="sans-serif" font-size="14" lengthAdjust="spacing" textLength="55.2617" x="294.4451" y="443.9964">Edit note</text></g><!--entity UC_DeleteNote--><g class="entity" data-qualified-name="SmartLocate SG.nPortfolio Module.UC_DeleteNote" data-source-line="23" id="ent0015"><ellipse cx="322.1334" cy="504.6917" fill="#F1F1F1" rx="53.6334" ry="15.4517" style="stroke:#181818;stroke-width:0.5;"/><text fill="#000000" font-family="sans-serif" font-size="14" lengthAdjust="spacing" textLength="71.6064" x="286.3302" y="509.9964">Delete note</text></g><!--entity UC_Compare--><g class="entity" data-qualified-name="SmartLocate SG.nPortfolio Module.UC_Compare" data-source-line="25" id="ent0016"><ellipse cx="321.8022" cy="809.7023" fill="#F1F1F1" rx="96.3022" ry="25.4623" style="stroke:#181818;stroke-width:0.5;"/><text fill="#000000" font-family="sans-serif" font-size="14" lengthAdjust="spacing" textLength="146.2891" x="248.6577" y="809.8666">Compare selected sites</text><text fill="#000000" font-family="sans-serif" font-size="14" lengthAdjust="spacing" textLength="59.8965" x="291.854" y="827.476">(2-3 max)</text></g><!--entity UC_CreateProfile--><g class="entity" data-qualified-name="SmartLocate SG.nPortfolio Module.UC_CreateProfile" data-source-line="28" id="ent0017"><ellipse cx="322.0452" cy="979.549" fill="#F1F1F1" rx="87.0452" ry="19.809" style="stroke:#181818;stroke-width:0.5;"/><text fill="#000000" font-family="sans-serif" font-size="14" lengthAdjust="spacing" textLength="143.1855" x="250.4524" y="984.8537">Create business profile</text></g><!--entity UC_UpdateProfile--><g class="entity" data-qualified-name="SmartLocate SG.nPortfolio Module.UC_UpdateProfile" data-source-line="29" id="ent0018"><ellipse cx="321.8797" cy="728.8159" fill="#F1F1F1" rx="88.3797" ry="20.0759" style="stroke:#181818;stroke-width:0.5;"/><text fill="#000000" font-family="sans-serif" font-size="14" lengthAdjust="spacing" textLength="146.3096" x="248.7249" y="734.1206">Update business profile</text></g><!--entity User--><g class="entity" data-qualified-name="User" data-source-line="3" id="ent0002"><ellipse cx="77.5552" cy="698.24" fill="#F1F1F1" rx="8" ry="8" style="stroke:#181818;stroke-width:0.5;"/><path d="M77.5552,706.24 L77.5552,733.24 M64.5552,714.24 L90.5552,714.24 M77.5552,733.24 L64.5552,748.24 M77.5552,733.24 L90.5552,748.24" fill="none" style="stroke:#181818;stroke-width:0.5;"/><text fill="#000000" font-family="sans-serif" font-size="14" lengthAdjust="spacing" textLength="73.1104" x="41" y="764.2732">User (SME)</text></g><!--entity A04--><g class="entity" data-qualified-name="A04" data-source-line="4" id="ent0003"><ellipse cx="77.5859" cy="1022.24" fill="#F1F1F1" rx="8" ry="8" style="stroke:#181818;stroke-width:0.5;"/><path d="M77.5859,1030.24 L77.5859,1057.24 M64.5859,1038.24 L90.5859,1038.24 M77.5859,1057.24 L64.5859,1072.24 M77.5859,1057.24 L90.5859,1072.24" fill="none" style="stroke:#181818;stroke-width:0.5;"/><text fill="#000000" font-family="sans-serif" font-size="14" lengthAdjust="spacing" textLength="143.1719" x="6" y="1088.2732">System (Backend A04)</text></g><!--link User to UC_View--><g class="link" data-entity-1="ent0002" data-entity-2="ent0005" data-link-type="dependency" data-source-line="33" id="lnk19"><path d="M79.27,689.48 C82.58,566.34 99.87,191.47 188,117.74 C271.17,48.15 333.2,73.03 432,117.74 C485.37,141.88 493.5,164 519,216.74 C532.97,245.62 613.0837,723.2016 630.6537,828.6316" fill="none" id="User-to-UC_View" style="stroke:#181818;stroke-width:1;"/><polygon fill="#181818" points="631.64,834.55,634.1061,825.0149,630.8181,829.618,626.215,826.33,631.64,834.55" style="stroke:#181818;stroke-width:1;"/></g><!--link User to UC_Details--><g class="link" data-entity-1="ent0002" data-entity-2="ent0008" data-link-type="dependency" data-source-line="34" id="lnk20"><path d="M78.34,689.68 C78.75,559.61 88,145.14 188,70.74 C275,6 330.84,31.66 432,70.74 C539.96,112.44 604.1688,244.5614 625.3188,294.7214" fill="none" id="User-to-UC_Details" style="stroke:#181818;stroke-width:1;"/><polygon fill="#181818" points="627.65,300.25,627.839,290.403,625.7074,295.6428,620.4675,293.5112,627.65,300.25" style="stroke:#181818;stroke-width:1;"/></g><!--link User to UC_Compare--><g class="link" data-entity-1="ent0002" data-entity-2="ent0016" data-link-type="dependency" data-source-line="35" id="lnk21"><path d="M114.48,740.96 C135.84,748.2 163.45,757.53 188,765.74 C211.76,773.68 232.2337,780.4654 255.0237,788.0054" fill="none" id="User-to-UC_Compare" style="stroke:#181818;stroke-width:1;"/><polygon fill="#181818" points="260.72,789.89,253.4319,783.2655,255.9731,788.3195,250.9191,790.8606,260.72,789.89" style="stroke:#181818;stroke-width:1;"/></g><!--link User to UC_CreateProfile--><g class="link" data-entity-1="ent0002" data-entity-2="ent0017" data-link-type="dependency" data-source-line="36" id="lnk22"><path d="M88.27,767.83 C102.29,815.81 132.71,896.37 188,941.74 C204.62,955.37 220.0804,962.5349 240.7004,968.1449" fill="none" id="User-to-UC_CreateProfile" style="stroke:#181818;stroke-width:1;"/><polygon fill="#181818" points="246.49,969.72,238.8558,963.4976,241.6654,968.4074,236.7556,971.217,246.49,969.72" style="stroke:#181818;stroke-width:1;"/></g><!--link User to UC_UpdateProfile--><g class="link" data-entity-1="ent0002" data-entity-2="ent0018" data-link-type="dependency" data-source-line="37" id="lnk23"><path d="M114.02,728.74 C145.27,728.74 186.06,728.74 227.25,728.74" fill="none" id="User-to-UC_UpdateProfile" style="stroke:#181818;stroke-width:1;"/><polygon fill="#181818" points="233.25,728.74,224.25,724.74,228.25,728.74,224.25,732.74,233.25,728.74" style="stroke:#181818;stroke-width:1;"/></g><!--link A04 to UC_View--><g class="link" data-entity-1="ent0003" data-entity-2="ent0005" data-link-type="dependency" data-source-line="39" id="lnk24"><path d="M149.28,1080.09 C241.61,1110.89 404.79,1148.21 519,1078.74 C594.21,1032.99 621.7004,926.8827 630.5204,880.8727" fill="none" id="A04-to-UC_View" style="stroke:#181818;stroke-width:1;"/><polygon fill="#181818" points="631.65,874.98,626.0271,883.066,630.7087,879.8906,633.884,884.5721,631.65,874.98" style="stroke:#181818;stroke-width:1;"/></g><!--link A04 to UC_Details--><g class="link" data-entity-1="ent0003" data-entity-2="ent0008" data-link-type="dependency" data-source-line="40" id="lnk25"><path d="M149.21,1061.47 C224.35,1067.28 344.19,1066.36 432,1016.74 C488.1,985.03 492.72,959.58 519,900.74 C566.33,794.79 619.347,430.6419 631.597,343.2619" fill="none" id="A04-to-UC_Details" style="stroke:#181818;stroke-width:1;"/><polygon fill="#181818" points="632.43,337.32,627.2192,345.6775,631.7358,342.2716,635.1418,346.7882,632.43,337.32" style="stroke:#181818;stroke-width:1;"/></g><!--link A04 to UC_Compare--><g class="link" data-entity-1="ent0003" data-entity-2="ent0016" data-link-type="dependency" data-source-line="41" id="lnk26"><path d="M90.12,1013.52 C105.43,968.45 136.61,895.26 188,852.74 C203.61,839.82 217.4908,832.6261 236.7808,826.2761" fill="none" id="A04-to-UC_Compare" style="stroke:#181818;stroke-width:1;"/><polygon fill="#181818" points="242.48,824.4,232.6806,823.4147,237.7307,825.9634,235.182,831.0136,242.48,824.4" style="stroke:#181818;stroke-width:1;"/></g><!--link UC_Filter to UC_View--><g class="link" data-entity-1="ent0006" data-entity-2="ent0005" data-link-type="dependency" data-source-line="44" id="lnk27"><path d="M428.2,895.17 C457.71,893.41 489.72,890.5 519,885.74 C540.5,882.24 558.0056,878.0597 578.0256,872.4097" fill="none" id="UC_Filter-to-UC_View" style="stroke:#181818;stroke-width:1;stroke-dasharray:7,7;"/><polygon fill="#181818" points="583.8,870.78,574.0519,869.3748,578.988,872.138,576.2248,877.0741,583.8,870.78" style="stroke:#181818;stroke-width:1;"/><text fill="#000000" font-family="sans-serif" font-size="13" lengthAdjust="spacing" textLength="53.4917" x="464" y="882.2351">&#171;extend&#187;</text></g><!--link UC_Details to UC_Select--><g class="link" data-entity-1="ent0008" data-entity-2="ent0007" data-link-type="dependency" data-source-line="47" id="lnk28"><path d="M716.34,318.74 C754.11,318.74 793.68,318.74 833.85,318.74" fill="none" id="UC_Details-to-UC_Select" style="stroke:#181818;stroke-width:1;stroke-dasharray:7,7;"/><polygon fill="#181818" points="839.85,318.74,830.85,314.74,834.85,318.74,830.85,322.74,839.85,318.74" style="stroke:#181818;stroke-width:1;"/><text fill="#000000" font-family="sans-serif" font-size="13" lengthAdjust="spacing" textLength="55.6563" x="754" y="315.2351">&#171;include&#187;</text></g><!--link UC_Score to UC_Details--><g class="link" data-entity-1="ent0009" data-entity-2="ent0008" data-link-type="dependency" data-source-line="50" id="lnk29"><path d="M383.43,630.35 C400.22,623.73 417.74,614.98 432,603.74 C530.98,525.68 600.2917,392.3378 623.9817,342.5578" fill="none" id="UC_Score-to-UC_Details" style="stroke:#181818;stroke-width:1;stroke-dasharray:7,7;"/><polygon fill="#181818" points="626.56,337.14,619.0807,343.5478,624.4114,341.6548,626.3044,346.9855,626.56,337.14" style="stroke:#181818;stroke-width:1;"/><text fill="#000000" font-family="sans-serif" font-size="13" lengthAdjust="spacing" textLength="53.4917" x="464" y="512.2351">&#171;extend&#187;</text></g><!--link UC_Breakdown to UC_Details--><g class="link" data-entity-1="ent0010" data-entity-2="ent0008" data-link-type="dependency" data-source-line="51" id="lnk30"><path d="M389.17,204.49 C453.38,234.33 542.9689,275.9613 594.0289,299.6913" fill="none" id="UC_Breakdown-to-UC_Details" style="stroke:#181818;stroke-width:1;stroke-dasharray:7,7;"/><polygon fill="#181818" points="599.47,302.22,592.9942,294.7995,594.9358,300.1127,589.6225,302.0543,599.47,302.22" style="stroke:#181818;stroke-width:1;"/><text fill="#000000" font-family="sans-serif" font-size="13" lengthAdjust="spacing" textLength="53.4917" x="464" y="239.2351">&#171;extend&#187;</text></g><!--link UC_Map to UC_Details--><g class="link" data-entity-1="ent0011" data-entity-2="ent0008" data-link-type="dependency" data-source-line="52" id="lnk31"><path d="M406.61,285.8 C457.06,293.07 514.5515,301.3634 561.7615,308.1734" fill="none" id="UC_Map-to-UC_Details" style="stroke:#181818;stroke-width:1;stroke-dasharray:7,7;"/><polygon fill="#181818" points="567.7,309.03,559.3633,303.786,562.7512,308.3161,558.2211,311.7041,567.7,309.03" style="stroke:#181818;stroke-width:1;"/><text fill="#000000" font-family="sans-serif" font-size="13" lengthAdjust="spacing" textLength="53.4917" x="464" y="292.2351">&#171;extend&#187;</text></g><!--link UC_Compare to UC_View--><g class="link" data-entity-1="ent0016" data-entity-2="ent0005" data-link-type="dependency" data-source-line="53" id="lnk32"><path d="M407.02,821.85 C455.39,828.83 509.6514,836.6536 556.0414,843.3436" fill="none" id="UC_Compare-to-UC_View" style="stroke:#181818;stroke-width:1;stroke-dasharray:7,7;"/><polygon fill="#181818" points="561.98,844.2,553.6431,838.9563,557.0312,843.4863,552.5012,846.8744,561.98,844.2" style="stroke:#181818;stroke-width:1;"/><text fill="#000000" font-family="sans-serif" font-size="13" lengthAdjust="spacing" textLength="55.6563" x="463" y="828.2351">&#171;include&#187;</text></g><!--link UC_Notes to UC_Details--><g class="link" data-entity-1="ent0012" data-entity-2="ent0008" data-link-type="dependency" data-source-line="56" id="lnk33"><path d="M408.31,360.22 C442.85,358.65 482.99,355.59 519,349.74 C542.04,345.99 561.3638,341.2485 582.2938,335.2285" fill="none" id="UC_Notes-to-UC_Details" style="stroke:#181818;stroke-width:1;stroke-dasharray:7,7;"/><polygon fill="#181818" points="588.06,333.57,578.305,332.2136,583.2548,334.9521,580.5163,339.9019,588.06,333.57" style="stroke:#181818;stroke-width:1;"/><text fill="#000000" font-family="sans-serif" font-size="13" lengthAdjust="spacing" textLength="53.4917" x="464" y="346.2351">&#171;extend&#187;</text></g><!--link UC_AddNote to UC_Notes--><g class="link" data-entity-1="ent0013" data-entity-2="ent0012" data-link-type="extension" data-source-line="59" id="lnk34"><path d="M279.31,571.98 C240.46,570.4 186.51,560.59 168.5,520.24 C150.93,480.87 150.93,462.61 168.5,423.24 C181.25,394.66 193.6172,384.0532 223.5472,375.8032" fill="none" id="UC_AddNote-to-UC_Notes" style="stroke:#181818;stroke-width:1;"/><polygon fill="none" points="240.9,371.02,221.9528,370.0189,225.1416,381.5875,240.9,371.02" style="stroke:#181818;stroke-width:1;"/></g><!--link UC_EditNote to UC_Notes--><g class="link" data-entity-1="ent0014" data-entity-2="ent0012" data-link-type="extension" data-source-line="60" id="lnk35"><path d="M322,423.1 C322,411.59 322,418.09 322,406.58" fill="none" id="UC_EditNote-to-UC_Notes" style="stroke:#181818;stroke-width:1;"/><polygon fill="none" points="322,388.58,316,406.58,328,406.58,322,388.58" style="stroke:#181818;stroke-width:1;"/></g><!--link UC_DeleteNote to UC_Notes--><g class="link" data-entity-1="ent0015" data-entity-2="ent0012" data-link-type="extension" data-source-line="61" id="lnk36"><path d="M268.23,505.32 C230.83,502.34 184.85,490.87 168.5,454.24 C150.24,413.32 183.7438,393.9773 231.7338,380.6773" fill="none" id="UC_DeleteNote-to-UC_Notes" style="stroke:#181818;stroke-width:1;"/><polygon fill="none" points="249.08,375.87,230.1314,374.8953,233.3363,386.4594,249.08,375.87" style="stroke:#181818;stroke-width:1;"/></g><?plantuml-src XLJ1RXen4BtxAqPS0X94LTjJ5I4b9EqbD95GcWjIvTW3MF7QMzkKeBR_tl5wRNP12hUrvysRvzbvet4L85XmQhq989L34PGrZ74Hh8F1aqS7myNyRZG0xY4USsYnzm4h6DvmyOf6mlM7pmb47un58cxM6WbOSHVkhU01OV5jQHwj2okhbOMvbLkD0_Z36C05pAn3U75svvLP0oTEZxeL1B3rABWdlXyATr0N4XsP2UAJmjdF6E_Y5yYTs01fNYaTw3qbOsc6BtimlC8OvL8wz7wKURusw3vJb5FoOULiTL2Iyn8gFUa-GoK6hhG_UOS-0cIIstDuBwXRz01Xgzfw5R3eNiJ8IQ8FbEU34fvQZFnLsfsXT8cLNJjURoWm1Yu4TM2yD0vDu7eCaHs3YXKB_qrExzPugD6qlmjbKRaqoi2Srr3pDUPyEgVcVBS1FGpNpcvhbACktPmRoW0J4Kkpehzpmftf6fPkxhMKJM86q3bYkf0xgK8F4o-EGRTKCM0FbguQO1SveovncjsYCVwFE5qV9v-Wuc-bTIqmFVzcItDExORQMPhCNkqPzPXglnn12ayJVZpDUwhbUtafdFF-CNO1rusRkVTMgEGArfX-CfaMCtKlyc1sx_ApUdSzYTr8NmIZTT4hrZddMfshqi4BUAYZNAvRMyUTiTiG9VmccdWgpcJ5pN1vMIh15xYwmhT0osiwZOHjEU1wn_SU7FxQgl9NcvLKXeyTr6NATZb4KcM4tafChCygR5JnzpWPjzbknOSGXuUU5S2kYlgyCRAZSvrSjgU-QyjpmEZ7Cv0yqCVTwZqisJV2giQjCkt3LZSCRVj_HYoxzDsoBIFO6bqQHF0rqb1gTRmH1knWQvZydHxMGCVA9u63UVkX_m00?></g></svg>