<?plantuml 1.2026.2?><svg xmlns="http://www.w3.org/2000/svg" xmlns:xlink="http://www.w3.org/1999/xlink" contentStyleType="text/css" data-diagram-type="DESCRIPTION" height="1295px" preserveAspectRatio="none" style="width:1972px;height:1295px;background:#FEFEFE;" version="1.1" viewBox="0 0 1972 1295" width="1972px" zoomAndPan="magnify"><title>SmartLocate SG &#8212; Business Profile Management
Use Case Diagram</title><defs/><g><rect fill="#FEFEFE" height="1295" style="stroke:none;stroke-width:1;" width="1972" x="0" y="0"/><g class="title" data-source-line="7"><text fill="#000000" font-family="Verdana" font-size="22" font-weight="bold" lengthAdjust="spacing" textLength="599.0059" x="682.3367" y="37.1182">SmartLocate SG &#8212; Business Profile Management</text><text fill="#000000" font-family="Verdana" font-size="22" font-weight="bold" lengthAdjust="spacing" textLength="223.6094" x="870.0349" y="63.8555">Use Case Diagram</text></g><!--cluster SmartLocate SG ? Business Profile Management--><g class="cluster" data-qualified-name="SmartLocate SG . Business Profile Management" data-source-line="74" id="ent0015"><rect fill="#FAFAFA" height="697" rx="2.5" ry="2.5" style="stroke:#9E9E9E;stroke-width:1;" width="1222" x="12" y="236.4746"/><text fill="#000000" font-family="Verdana" font-size="14" font-weight="bold" lengthAdjust="spacing" textLength="381.1855" x="432.4072" y="252.5498">SmartLocate SG &#8212; Business Profile Management</text></g><!--cluster Business Profile CRUD--><g class="cluster" data-qualified-name="SmartLocate SG . Business Profile Management.Business Profile CRUD" data-source-line="79" id="ent0016"><rect fill="#E3F2FD" height="262" rx="2.5" ry="2.5" style="stroke:#9E9E9E;stroke-width:1;" width="408" x="802" y="452.4746"/><text fill="#000000" font-family="Verdana" font-size="14" font-weight="bold" lengthAdjust="spacing" textLength="174.8633" x="918.5684" y="468.5498">Business Profile CRUD</text></g><!--cluster Supporting Operations--><g class="cluster" data-qualified-name="SmartLocate SG . Business Profile Management.Supporting Operations" data-source-line="89" id="ent0021"><rect fill="#F1F8E9" height="122" rx="2.5" ry="2.5" style="stroke:#9E9E9E;stroke-width:1;" width="992" x="218" y="787.4746"/><text fill="#000000" font-family="Verdana" font-size="14" font-weight="bold" lengthAdjust="spacing" textLength="178.1309" x="624.9346" y="803.5498">Supporting Operations</text></g><!--cluster AI-Assisted Guidance--><g class="cluster" data-qualified-name="SmartLocate SG . Business Profile Management.AI-Assisted Guidance" data-source-line="102" id="ent0029"><rect fill="#FFF8E1" height="109" rx="2.5" ry="2.5" style="stroke:#9E9E9E;stroke-width:1;" width="323" x="684" y="280.4746"/><text fill="#000000" font-family="Verdana" font-size="14" font-weight="bold" lengthAdjust="spacing" textLength="168.8135" x="761.0933" y="296.5498">AI-Assisted Guidance</text></g><!--entity UC06--><g class="entity" data-qualified-name="SmartLocate SG . Business Profile Management.Business Profile CRUD.UC06" data-source-line="80" id="ent0017"><ellipse cx="876.8042" cy="516.7592" fill="#E3F2FD" rx="58.8042" ry="28.2846" style="stroke:#1565C0;stroke-width:1;"/><text fill="#000000" font-family="Verdana" font-size="11" lengthAdjust="spacing" textLength="34.7134" x="859.4475" y="502.5974">UC-06</text><text fill="#000000" font-family="Verdana" font-size="11" lengthAdjust="spacing" textLength="88.5156" x="832.5464" y="515.966">Create Business</text><text fill="#000000" font-family="Verdana" font-size="11" lengthAdjust="spacing" textLength="86.147" x="833.7307" y="529.3347">Profile (Wizard)</text></g><!--entity UC07--><g class="entity" data-qualified-name="SmartLocate SG . Business Profile Management.Business Profile CRUD.UC07" data-source-line="81" id="ent0018"><ellipse cx="1146.8738" cy="673.7231" fill="#E3F2FD" rx="46.3738" ry="25.2485" style="stroke:#1565C0;stroke-width:1;"/><text fill="#000000" font-family="Verdana" font-size="11" lengthAdjust="spacing" textLength="34.7134" x="1129.5171" y="663.2023">UC-07</text><text fill="#000000" font-family="Verdana" font-size="11" lengthAdjust="spacing" textLength="78.187" x="1107.7803" y="676.5709">View Business</text><text fill="#000000" font-family="Verdana" font-size="11" lengthAdjust="spacing" textLength="40.1919" x="1126.7778" y="689.9396">Profiles</text></g><!--entity UC08--><g class="entity" data-qualified-name="SmartLocate SG . Business Profile Management.Business Profile CRUD.UC08" data-source-line="82" id="ent0019"><ellipse cx="1015.0055" cy="517.1503" fill="#E3F2FD" rx="43.5055" ry="25.1757" style="stroke:#1565C0;stroke-width:1;"/><text fill="#000000" font-family="Verdana" font-size="11" lengthAdjust="spacing" textLength="34.7134" x="997.6488" y="506.9823">UC-08</text><text fill="#000000" font-family="Verdana" font-size="11" lengthAdjust="spacing" textLength="73.2563" x="978.3773" y="520.351">Edit Business</text><text fill="#000000" font-family="Verdana" font-size="11" lengthAdjust="spacing" textLength="34.4609" x="997.775" y="533.7196">Profile</text></g><!--entity UC09--><g class="entity" data-qualified-name="SmartLocate SG . Business Profile Management.Business Profile CRUD.UC09" data-source-line="83" id="ent0020"><ellipse cx="1144.0817" cy="517.0347" fill="#E3F2FD" rx="50.0817" ry="24.5601" style="stroke:#1565C0;stroke-width:1;"/><text fill="#000000" font-family="Verdana" font-size="11" lengthAdjust="spacing" textLength="34.7134" x="1126.725" y="506.8618">UC-09</text><text fill="#000000" font-family="Verdana" font-size="11" lengthAdjust="spacing" textLength="87.5811" x="1100.2911" y="520.2304">Delete Business</text><text fill="#000000" font-family="Verdana" font-size="11" lengthAdjust="spacing" textLength="34.4609" x="1126.8512" y="533.5991">Profile</text></g><!--entity UC06a--><g class="entity" data-qualified-name="SmartLocate SG . Business Profile Management.Supporting Operations.UC06a" data-source-line="90" id="ent0022"><ellipse cx="286.9532" cy="858.4173" fill="#E3F2FD" rx="52.4532" ry="26.9426" style="stroke:#1565C0;stroke-width:1;"/><text fill="#000000" font-family="Verdana" font-size="11" lengthAdjust="spacing" textLength="41.3198" x="266.2933" y="846.5327">UC-06a</text><text fill="#000000" font-family="Verdana" font-size="11" lengthAdjust="spacing" textLength="82.8384" x="245.5341" y="859.9014">Validate Profile</text><text fill="#000000" font-family="Verdana" font-size="11" lengthAdjust="spacing" textLength="63.5186" x="255.194" y="873.27">Input Rules</text></g><!--entity UC06b--><g class="entity" data-qualified-name="SmartLocate SG . Business Profile Management.Supporting Operations.UC06b" data-source-line="91" id="ent0023"><ellipse cx="1131.8322" cy="858.4981" fill="#E3F2FD" rx="61.3322" ry="32.5235" style="stroke:#1565C0;stroke-width:1;"/><text fill="#000000" font-family="Verdana" font-size="11" lengthAdjust="spacing" textLength="41.5669" x="1111.0488" y="840.7808">UC-06b</text><text fill="#000000" font-family="Verdana" font-size="11" lengthAdjust="spacing" textLength="81.1357" x="1091.2644" y="854.1494">Fetch Sector &amp;</text><text fill="#000000" font-family="Verdana" font-size="11" lengthAdjust="spacing" textLength="105.6548" x="1079.0049" y="867.5181">Industry Reference</text><text fill="#000000" font-family="Verdana" font-size="11" lengthAdjust="spacing" textLength="26.0229" x="1118.8208" y="880.8867">Data</text></g><!--entity UC06c--><g class="entity" data-qualified-name="SmartLocate SG . Business Profile Management.Supporting Operations.UC06c" data-source-line="92" id="ent0024"><ellipse cx="554.2043" cy="858.6248" fill="#E3F2FD" rx="47.7043" ry="29.1502" style="stroke:#1565C0;stroke-width:1;"/><text fill="#000000" font-family="Verdana" font-size="11" lengthAdjust="spacing" textLength="40.4443" x="533.9821" y="845.1717">UC-06c</text><text fill="#000000" font-family="Verdana" font-size="11" lengthAdjust="spacing" textLength="65.5166" x="521.446" y="858.5404">Save Profile</text><text fill="#000000" font-family="Verdana" font-size="11" lengthAdjust="spacing" textLength="68.562" x="519.9233" y="871.909">to Supabase</text></g><!--entity UC07a--><g class="entity" data-qualified-name="SmartLocate SG . Business Profile Management.Supporting Operations.UC07a" data-source-line="93" id="ent0025"><ellipse cx="696.2117" cy="858.5453" fill="#E3F2FD" rx="59.2117" ry="28.0706" style="stroke:#1565C0;stroke-width:1;"/><text fill="#000000" font-family="Verdana" font-size="11" lengthAdjust="spacing" textLength="41.3198" x="675.5518" y="845.098">UC-07a</text><text fill="#000000" font-family="Verdana" font-size="11" lengthAdjust="spacing" textLength="89.9229" x="651.2503" y="858.4666">Retrieve Profiles</text><text fill="#000000" font-family="Verdana" font-size="11" lengthAdjust="spacing" textLength="83.4883" x="654.4676" y="871.8353">from Supabase</text></g><!--entity UC08a--><g class="entity" data-qualified-name="SmartLocate SG . Business Profile Management.Supporting Operations.UC08a" data-source-line="94" id="ent0026"><ellipse cx="841.0548" cy="858.3171" fill="#E3F2FD" rx="51.0548" ry="27.8425" style="stroke:#1565C0;stroke-width:1;"/><text fill="#000000" font-family="Verdana" font-size="11" lengthAdjust="spacing" textLength="41.3198" x="820.3949" y="845.7563">UC-08a</text><text fill="#000000" font-family="Verdana" font-size="11" lengthAdjust="spacing" textLength="77.5801" x="802.2648" y="859.125">Update Profile</text><text fill="#000000" font-family="Verdana" font-size="11" lengthAdjust="spacing" textLength="67.5308" x="807.2894" y="872.4936">in Supabase</text></g><!--entity UC08b--><g class="entity" data-qualified-name="SmartLocate SG . Business Profile Management.Supporting Operations.UC08b" data-source-line="95" id="ent0027"><ellipse cx="422.8186" cy="858.6875" fill="#E3F2FD" rx="47.8186" ry="29.2129" style="stroke:#1565C0;stroke-width:1;"/><text fill="#000000" font-family="Verdana" font-size="11" lengthAdjust="spacing" textLength="41.5669" x="402.0352" y="845.3321">UC-08b</text><text fill="#000000" font-family="Verdana" font-size="11" lengthAdjust="spacing" textLength="55.0913" x="395.273" y="858.7007">Invalidate</text><text fill="#000000" font-family="Verdana" font-size="11" lengthAdjust="spacing" textLength="68.5728" x="388.5322" y="872.0694">Score Cache</text></g><!--entity UC09a--><g class="entity" data-qualified-name="SmartLocate SG . Business Profile Management.Supporting Operations.UC09a" data-source-line="96" id="ent0028"><ellipse cx="981.1096" cy="858.5846" fill="#E3F2FD" rx="54.1096" ry="35.11" style="stroke:#1565C0;stroke-width:1;"/><text fill="#000000" font-family="Verdana" font-size="11" lengthAdjust="spacing" textLength="41.3198" x="960.4497" y="839.0836">UC-09a</text><text fill="#000000" font-family="Verdana" font-size="11" lengthAdjust="spacing" textLength="85.1157" x="938.5518" y="852.4522">Cascade Delete</text><text fill="#000000" font-family="Verdana" font-size="11" lengthAdjust="spacing" textLength="77.3438" x="942.4378" y="865.8209">Profile &amp; Sites</text><text fill="#000000" font-family="Verdana" font-size="11" lengthAdjust="spacing" textLength="67.5308" x="947.3442" y="879.1895">in Supabase</text></g><!--entity UC06d--><g class="entity" data-qualified-name="SmartLocate SG . Business Profile Management.AI-Assisted Guidance.UC06d" data-source-line="103" id="ent0030"><ellipse cx="768.8264" cy="345.0363" fill="#E3F2FD" rx="68.8264" ry="28.5617" style="stroke:#1565C0;stroke-width:1;"/><text fill="#000000" font-family="Verdana" font-size="11" lengthAdjust="spacing" textLength="41.5669" x="748.043" y="330.6508">UC-06d</text><text fill="#000000" font-family="Verdana" font-size="11" lengthAdjust="spacing" textLength="89.1118" x="724.2705" y="344.0194">Generate Profile</text><text fill="#000000" font-family="Verdana" font-size="11" lengthAdjust="spacing" textLength="103.2808" x="717.186" y="357.3881">Setup Suggestions</text></g><!--entity UC06e--><g class="entity" data-qualified-name="SmartLocate SG . Business Profile Management.AI-Assisted Guidance.UC06e" data-source-line="104" id="ent0031"><ellipse cx="931.9901" cy="344.8628" fill="#E3F2FD" rx="58.4901" ry="26.3882" style="stroke:#1565C0;stroke-width:1;"/><text fill="#000000" font-family="Verdana" font-size="11" lengthAdjust="spacing" textLength="41.2661" x="911.357" y="333.0202">UC-06e</text><text fill="#000000" font-family="Verdana" font-size="11" lengthAdjust="spacing" textLength="95.1543" x="884.4129" y="346.3889">Generate Sector-</text><text fill="#000000" font-family="Verdana" font-size="11" lengthAdjust="spacing" textLength="68.5405" x="897.7198" y="359.7575">Specific Tips</text></g><!--entity USER--><g class="entity" data-qualified-name="USER" data-source-line="44" id="ent0002"><ellipse cx="1299.9834" cy="317.4746" fill="#FFF3E0" rx="16" ry="16" style="stroke:#E65100;stroke-width:1;"/><path d="M1299.9834,337.4746 C1303.9834,337.4746 1306.9834,337.4746 1310.9834,333.4746 C1318.9834,333.4746 1326.9834,341.4746 1326.9834,349.4746 L1326.9834,353.4746 C1326.9834,357.4746 1322.9834,361.4746 1318.9834,361.4746 L1280.9834,361.4746 C1276.9834,361.4746 1272.9834,357.4746 1272.9834,353.4746 L1272.9834,349.4746 C1272.9834,341.4746 1280.9834,333.4746 1288.9834,333.4746 C1292.9834,337.4746 1295.9834,337.4746 1299.9834,337.4746" fill="#FFF3E0" style="stroke:#E65100;stroke-width:1;"/><text fill="#000000" font-family="Verdana" font-size="11" lengthAdjust="spacing" textLength="25.0293" x="1250" y="373.5337">User</text><text fill="#000000" font-family="Verdana" font-size="11" lengthAdjust="spacing" textLength="99.9668" x="1250" y="386.9023">(A01 / A02 / A03)</text></g><!--entity A04--><g class="entity" data-qualified-name="A04" data-source-line="45" id="ent0003"><ellipse cx="1291.0593" cy="645.9746" fill="#FFF3E0" rx="16" ry="16" style="stroke:#E65100;stroke-width:1;"/><path d="M1291.0593,665.9746 C1295.0593,665.9746 1298.0593,665.9746 1302.0593,661.9746 C1310.0593,661.9746 1318.0593,669.9746 1318.0593,677.9746 L1318.0593,681.9746 C1318.0593,685.9746 1314.0593,689.9746 1310.0593,689.9746 L1272.0593,689.9746 C1268.0593,689.9746 1264.0593,685.9746 1264.0593,681.9746 L1264.0593,677.9746 C1264.0593,669.9746 1272.0593,661.9746 1280.0593,661.9746 C1284.0593,665.9746 1287.0593,665.9746 1291.0593,665.9746" fill="#FFF3E0" style="stroke:#E65100;stroke-width:1;"/><text fill="#000000" font-family="Verdana" font-size="11" lengthAdjust="spacing" textLength="41.3467" x="1250" y="702.0337">System</text><text fill="#000000" font-family="Verdana" font-size="11" lengthAdjust="spacing" textLength="82.1187" x="1250" y="715.4023">(Backend A04)</text></g><!--entity EXTAPI--><g class="entity" data-qualified-name="EXTAPI" data-source-line="46" id="ent0004"><ellipse cx="1540.7878" cy="639.4746" fill="#FFF3E0" rx="16" ry="16" style="stroke:#E65100;stroke-width:1;"/><path d="M1540.7878,659.4746 C1544.7878,659.4746 1547.7878,659.4746 1551.7878,655.4746 C1559.7878,655.4746 1567.7878,663.4746 1567.7878,671.4746 L1567.7878,675.4746 C1567.7878,679.4746 1563.7878,683.4746 1559.7878,683.4746 L1521.7878,683.4746 C1517.7878,683.4746 1513.7878,679.4746 1513.7878,675.4746 L1513.7878,671.4746 C1513.7878,663.4746 1521.7878,655.4746 1529.7878,655.4746 C1533.7878,659.4746 1536.7878,659.4746 1540.7878,659.4746" fill="#FFF3E0" style="stroke:#E65100;stroke-width:1;"/><text fill="#000000" font-family="Verdana" font-size="11" lengthAdjust="spacing" textLength="68.2827" x="1491.5" y="695.5337">External API</text><text fill="#000000" font-family="Verdana" font-size="11" lengthAdjust="spacing" textLength="67.5415" x="1491.5" y="708.9023">(Supabase /</text><text fill="#000000" font-family="Verdana" font-size="11" lengthAdjust="spacing" textLength="98.5757" x="1491.5" y="722.271">Public Databases)</text></g><!--entity CHATBOT--><g class="entity" data-qualified-name="CHATBOT" data-source-line="47" id="ent0005"><ellipse cx="851.0483" cy="101.4746" fill="#FFF3E0" rx="16" ry="16" style="stroke:#E65100;stroke-width:1;"/><path d="M851.0483,121.4746 C855.0483,121.4746 858.0483,121.4746 862.0483,117.4746 C870.0483,117.4746 878.0483,125.4746 878.0483,133.4746 L878.0483,137.4746 C878.0483,141.4746 874.0483,145.4746 870.0483,145.4746 L832.0483,145.4746 C828.0483,145.4746 824.0483,141.4746 824.0483,137.4746 L824.0483,133.4746 C824.0483,125.4746 832.0483,117.4746 840.0483,117.4746 C844.0483,121.4746 847.0483,121.4746 851.0483,121.4746" fill="#FFF3E0" style="stroke:#E65100;stroke-width:1;"/><text fill="#000000" font-family="Verdana" font-size="11" lengthAdjust="spacing" textLength="66.0967" x="818" y="157.5337">Chatbot API</text><text fill="#000000" font-family="Verdana" font-size="11" lengthAdjust="spacing" textLength="58.228" x="818" y="170.9023">(AI Agent)</text></g><g class="entity" data-qualified-name="GMN6" data-source-line="50" id="ent0007"><path d="M1385,300.4746 L1385,340.9746 L1350.31,344.9746 L1385,348.9746 L1385,389.4712 A0,0 0 0 0 1385,389.4712 L1663.2007,389.4712 A0,0 0 0 0 1663.2007,389.4712 L1663.2007,310.4746 L1653.2007,300.4746 L1385,300.4746 A0,0 0 0 0 1385,300.4746" fill="#FFFDE7" style="stroke:#F9A825;stroke-width:1;"/><path d="M1653.2007,300.4746 L1653.2007,310.4746 L1663.2007,310.4746 L1653.2007,300.4746" fill="#FFFDE7" style="stroke:#F9A825;stroke-width:1;"/><text fill="#000000" font-family="Verdana" font-size="13" lengthAdjust="spacing" textLength="180.7241" x="1391" y="318.5444">Represents three user roles</text><text fill="#000000" font-family="Verdana" font-size="13" lengthAdjust="spacing" textLength="191.0391" x="1391" y="334.3438">with identical system access:</text><text fill="#000000" font-family="Verdana" font-size="13" lengthAdjust="spacing" textLength="192.5498" x="1391" y="350.1431">&#8226; A01: Small Business Owner</text><text fill="#000000" font-family="Verdana" font-size="13" lengthAdjust="spacing" textLength="257.2007" x="1391" y="365.9424">&#8226; A02: Franchise/MNC Expansion Team</text><text fill="#000000" font-family="Verdana" font-size="13" lengthAdjust="spacing" textLength="167.4639" x="1391" y="381.7417">&#8226; A03: Commercial Agent</text></g><g class="entity" data-qualified-name="GMN9" data-source-line="58" id="ent0010"><path d="M1625.5,636.9746 L1625.5,669.4746 L1590.84,673.4746 L1625.5,677.4746 L1625.5,710.1719 A0,0 0 0 0 1625.5,710.1719 L1896.2549,710.1719 A0,0 0 0 0 1896.2549,710.1719 L1896.2549,646.9746 L1886.2549,636.9746 L1625.5,636.9746 A0,0 0 0 0 1625.5,636.9746" fill="#FFFDE7" style="stroke:#F9A825;stroke-width:1;"/><path d="M1886.2549,636.9746 L1886.2549,646.9746 L1896.2549,646.9746 L1886.2549,636.9746" fill="#FFFDE7" style="stroke:#F9A825;stroke-width:1;"/><text fill="#000000" font-family="Verdana" font-size="13" lengthAdjust="spacing" textLength="198.3198" x="1631.5" y="655.0444">Supabase: profile persistence,</text><text fill="#000000" font-family="Verdana" font-size="13" lengthAdjust="spacing" textLength="233.0479" x="1631.5" y="670.8438">authentication, Row-Level Security.</text><text fill="#000000" font-family="Verdana" font-size="13" lengthAdjust="spacing" textLength="249.7549" x="1631.5" y="686.6431">Public Databases: sector benchmarks,</text><text fill="#000000" font-family="Verdana" font-size="13" lengthAdjust="spacing" textLength="244.9624" x="1631.5" y="702.4424">industry classification reference data.</text></g><g class="entity" data-qualified-name="GMN12" data-source-line="65" id="ent0013"><path d="M919.5,100.4746 L919.5,124.9746 L884.19,128.9746 L919.5,132.9746 L919.5,157.8726 A0,0 0 0 0 919.5,157.8726 L1136.1919,157.8726 A0,0 0 0 0 1136.1919,157.8726 L1136.1919,110.4746 L1126.1919,100.4746 L919.5,100.4746 A0,0 0 0 0 919.5,100.4746" fill="#FFFDE7" style="stroke:#F9A825;stroke-width:1;"/><path d="M1126.1919,100.4746 L1126.1919,110.4746 L1136.1919,110.4746 L1126.1919,100.4746" fill="#FFFDE7" style="stroke:#F9A825;stroke-width:1;"/><text fill="#000000" font-family="Verdana" font-size="13" lengthAdjust="spacing" textLength="157.2378" x="925.5" y="118.5444">AI Agent that generates</text><text fill="#000000" font-family="Verdana" font-size="13" lengthAdjust="spacing" textLength="162.2905" x="925.5" y="134.3438">sector-specific setup tips</text><text fill="#000000" font-family="Verdana" font-size="13" lengthAdjust="spacing" textLength="195.6919" x="925.5" y="150.1431">and profile recommendations.</text></g><!--link USER to UC06--><g class="link" data-entity-1="ent0002" data-entity-2="ent0017" data-link-type="dependency" data-source-line="114" id="lnk32"><path d="M1249.74,359.9546 C1155.39,386.2446 960.59,440.7646 954,444.4746 C933.02,456.2946 917.2952,470.5495 903.0252,485.8295" fill="none" id="USER-to-UC06" style="stroke:#424242;stroke-width:1;"/><polygon fill="#424242" points="898.93,490.2146,907.9963,486.3671,902.3427,486.5604,902.1495,480.9068,898.93,490.2146" style="stroke:#424242;stroke-width:1;"/></g><!--link USER to UC07--><g class="link" data-entity-1="ent0002" data-entity-2="ent0018" data-link-type="dependency" data-source-line="115" id="lnk33"><path d="M1281.66,389.4946 C1264.33,430.1346 1237.3,492.3246 1212,545.4746 C1194.54,582.1546 1175.5858,618.6511 1162.1958,643.9611" fill="none" id="USER-to-UC07" style="stroke:#424242;stroke-width:1;"/><polygon fill="#424242" points="1159.39,649.2646,1167.1344,643.1798,1161.7282,644.845,1160.063,639.4388,1159.39,649.2646" style="stroke:#424242;stroke-width:1;"/></g><!--link USER to UC08--><g class="link" data-entity-1="ent0002" data-entity-2="ent0019" data-link-type="dependency" data-source-line="116" id="lnk34"><path d="M1249.72,361.0646 C1202.21,376.8946 1130.45,404.9946 1077,444.4746 C1058.63,458.0446 1045.5104,473.14 1034.0804,488.51" fill="none" id="USER-to-UC08" style="stroke:#424242;stroke-width:1;"/><polygon fill="#424242" points="1030.5,493.3246,1039.0804,488.4896,1033.4837,489.3124,1032.6609,483.7157,1030.5,493.3246" style="stroke:#424242;stroke-width:1;"/></g><!--link USER to UC09--><g class="link" data-entity-1="ent0002" data-entity-2="ent0020" data-link-type="dependency" data-source-line="117" id="lnk35"><path d="M1259.83,389.7546 C1229.13,423.2046 1192.1869,463.464 1168.0969,489.714" fill="none" id="USER-to-UC09" style="stroke:#424242;stroke-width:1;"/><polygon fill="#424242" points="1164.04,494.1346,1173.0724,490.2083,1167.4207,490.4508,1167.1782,484.7991,1164.04,494.1346" style="stroke:#424242;stroke-width:1;"/></g><!--link A04 to UC06a--><g class="link" data-entity-1="ent0003" data-entity-2="ent0022" data-link-type="dependency" data-source-line="120" id="lnk36"><path d="M1249.77,704.3346 C1237.49,711.9946 1223.65,719.4646 1210,724.4746 C1126.44,755.1346 1099.96,740.8846 1012,754.4746 C963.98,761.8946 952.41,767.3346 904,771.4746 C873.77,774.0646 385.66,767.0046 358,779.4746 C333.79,790.3846 317.5862,808.9911 305.1762,827.3811" fill="none" id="A04-to-UC06a" style="stroke:#424242;stroke-width:1;"/><polygon fill="#424242" points="301.82,832.3546,310.17,827.1318,304.6169,828.21,303.5387,822.6569,301.82,832.3546" style="stroke:#424242;stroke-width:1;"/></g><!--link A04 to UC06b--><g class="link" data-entity-1="ent0003" data-entity-2="ent0023" data-link-type="dependency" data-source-line="121" id="lnk37"><path d="M1332.16,686.8546 C1369.08,697.6746 1424.85,713.3646 1474,724.4746 C1549.21,741.4646 1690.77,712.5846 1641,771.4746 C1584.3,838.5546 1322.0579,853.1657 1199.4279,856.4157" fill="none" id="A04-to-UC06b" style="stroke:#424242;stroke-width:1;"/><polygon fill="#424242" points="1193.43,856.5746,1202.5328,860.3348,1198.4282,856.4421,1202.3209,852.3376,1193.43,856.5746" style="stroke:#424242;stroke-width:1;"/></g><!--link A04 to UC06c--><g class="link" data-entity-1="ent0003" data-entity-2="ent0024" data-link-type="dependency" data-source-line="122" id="lnk38"><path d="M1249.84,703.1846 C1237.44,710.9046 1223.53,718.7046 1210,724.4746 C1161.02,745.3646 1144.7,738.1846 1094,754.4746 C1074.04,760.8846 1070.57,767.4446 1050,771.4746 C1026.55,776.0746 641.58,769.2246 620,779.4746 C597.57,790.1346 583.1292,807.3887 571.7592,825.4287" fill="none" id="A04-to-UC06c" style="stroke:#424242;stroke-width:1;"/><polygon fill="#424242" points="568.56,830.5046,576.7427,825.0235,571.226,826.2747,569.9748,820.7579,568.56,830.5046" style="stroke:#424242;stroke-width:1;"/></g><!--link A04 to UC07a--><g class="link" data-entity-1="ent0003" data-entity-2="ent0025" data-link-type="dependency" data-source-line="123" id="lnk39"><path d="M1249.77,701.8746 C1237.26,709.6546 1223.3,717.8146 1210,724.4746 C1206.82,726.0646 1094.48,770.7646 1091,771.4746 C1056.36,778.5146 805.44,765.4346 773,779.4746 C748.03,790.2846 730.5409,808.5628 716.7809,826.8228" fill="none" id="A04-to-UC07a" style="stroke:#424242;stroke-width:1;"/><polygon fill="#424242" points="713.17,831.6146,721.7809,826.8342,716.1791,827.6214,715.3918,822.0196,713.17,831.6146" style="stroke:#424242;stroke-width:1;"/></g><!--link A04 to UC08a--><g class="link" data-entity-1="ent0003" data-entity-2="ent0026" data-link-type="dependency" data-source-line="124" id="lnk40"><path d="M1292.38,718.4046 C1290.48,737.6946 1284.51,758.8046 1269,771.4746 C1253.55,784.0946 928.1,771.0746 910,779.4746 C886.55,790.3546 871.0715,808.4046 859.0515,826.6446" fill="none" id="A04-to-UC08a" style="stroke:#424242;stroke-width:1;"/><polygon fill="#424242" points="855.75,831.6546,864.0423,826.3407,858.5013,827.4796,857.3623,821.9386,855.75,831.6546" style="stroke:#424242;stroke-width:1;"/></g><!--link A04 to UC08b--><g class="link" data-entity-1="ent0003" data-entity-2="ent0027" data-link-type="dependency" data-source-line="125" id="lnk41"><path d="M1249.65,704.0046 C1237.36,711.6446 1223.55,719.2046 1210,724.4746 C1143.79,750.2246 1121.3,734.9246 1053,754.4746 C1032.84,760.2446 1029.58,767.4746 1009,771.4746 C980.64,776.9846 515.12,767.1146 489,779.4746 C466.55,790.0946 452.1167,807.3471 440.7467,825.4071" fill="none" id="A04-to-UC08b" style="stroke:#424242;stroke-width:1;"/><polygon fill="#424242" points="437.55,830.4846,445.73,824.9994,440.2139,826.2533,438.96,820.7372,437.55,830.4846" style="stroke:#424242;stroke-width:1;"/></g><!--link A04 to UC09a--><g class="link" data-entity-1="ent0003" data-entity-2="ent0028" data-link-type="dependency" data-source-line="126" id="lnk42"><path d="M1332.11,682.1446 C1395.46,695.5946 1505.25,726.3446 1461,771.4746 C1445.13,787.6646 1073.68,770.1746 1053,779.4746 C1031.49,789.1446 1017.0574,803.8203 1004.4274,820.9003" fill="none" id="A04-to-UC09a" style="stroke:#424242;stroke-width:1;"/><polygon fill="#424242" points="1000.86,825.7246,1009.4273,820.8664,1003.8328,821.7044,1002.9949,816.1099,1000.86,825.7246" style="stroke:#424242;stroke-width:1;"/></g><!--link EXTAPI to UC06c--><g class="link" data-entity-1="ent0004" data-entity-2="ent0024" data-link-type="dependency" data-source-line="129" id="lnk43"><path d="M1491.43,688.7646 C1453.04,699.5046 1398.43,714.0946 1350,724.4746 C1271.12,741.3746 1250.1,738.6546 1171,754.4746 C1138.33,761.0046 1131.06,767.3946 1098,771.4746 C1071.64,774.7246 644,768.0946 620,779.4746 C597.56,790.1146 583.1179,807.3679 571.7479,825.4179" fill="none" id="EXTAPI-to-UC06c" style="stroke:#424242;stroke-width:1;"/><polygon fill="#424242" points="568.55,830.4946,576.7314,825.0114,571.2149,826.264,569.9624,820.7476,568.55,830.4946" style="stroke:#424242;stroke-width:1;"/><text fill="#000000" font-family="Verdana" font-size="13" lengthAdjust="spacing" textLength="95.9575" x="1172" y="768.5444">persists profile</text></g><!--link EXTAPI to UC06b--><g class="link" data-entity-1="ent0004" data-entity-2="ent0023" data-link-type="dependency" data-source-line="130" id="lnk44"><path d="M1590.59,715.5546 C1596.24,718.9746 1602.09,722.0446 1608,724.4746 C1698.47,761.6546 1887.75,698.1646 1823,771.4746 C1781.53,818.4246 1360.3113,845.3913 1199.1113,854.0913" fill="none" id="EXTAPI-to-UC06b" style="stroke:#424242;stroke-width:1;"/><polygon fill="#424242" points="1193.12,854.4146,1202.3225,857.9238,1198.1127,854.1452,1201.8914,849.9354,1193.12,854.4146" style="stroke:#424242;stroke-width:1;"/><text fill="#000000" font-family="Verdana" font-size="13" lengthAdjust="spacing" textLength="130.6792" x="1834" y="768.5444">supplies sector data</text></g><!--link EXTAPI to UC07a--><g class="link" data-entity-1="ent0004" data-entity-2="ent0025" data-link-type="dependency" data-source-line="131" id="lnk45"><path d="M1491.13,698.4746 C1438.9,722.2146 1353.8,757.0446 1276,771.4746 C1248.52,776.5746 798.7,768.4946 773,779.4746 C747.98,790.1646 730.4838,808.4574 716.7438,826.7474" fill="none" id="EXTAPI-to-UC07a" style="stroke:#424242;stroke-width:1;"/><polygon fill="#424242" points="713.14,831.5446,721.7438,826.7514,716.1431,827.547,715.3476,821.9463,713.14,831.5446" style="stroke:#424242;stroke-width:1;"/><text fill="#000000" font-family="Verdana" font-size="13" lengthAdjust="spacing" textLength="109.8145" x="1344" y="768.5444">retrieves profiles</text></g><!--link EXTAPI to UC08a--><g class="link" data-entity-1="ent0004" data-entity-2="ent0026" data-link-type="dependency" data-source-line="132" id="lnk46"><path d="M1515.87,724.6746 C1504.01,742.8146 1488.01,761.3046 1468,771.4746 C1440.36,785.5146 938.18,766.5346 910,779.4746 C886.5,790.2646 871.0239,808.3196 859.0239,826.5896" fill="none" id="EXTAPI-to-UC08a" style="stroke:#424242;stroke-width:1;"/><polygon fill="#424242" points="855.73,831.6046,864.0142,826.2781,858.4749,827.4255,857.3275,821.8862,855.73,831.6046" style="stroke:#424242;stroke-width:1;"/><text fill="#000000" font-family="Verdana" font-size="13" lengthAdjust="spacing" textLength="97.4302" x="1490" y="768.5444">updates profile</text></g><!--link EXTAPI to UC09a--><g class="link" data-entity-1="ent0004" data-entity-2="ent0028" data-link-type="dependency" data-source-line="133" id="lnk47"><path d="M1590.67,711.5146 C1618.58,732.3446 1647.89,754.2546 1648,754.4746 C1651.38,761.2346 1653.31,766.0946 1648,771.4746 C1636.39,783.2446 1068.1,772.7446 1053,779.4746 C1031.46,789.0846 1017.0242,803.758 1004.4042,820.848" fill="none" id="EXTAPI-to-UC09a" style="stroke:#424242;stroke-width:1;"/><polygon fill="#424242" points="1000.84,825.6746,1009.4041,820.8108,1003.8102,821.6524,1002.9685,816.0585,1000.84,825.6746" style="stroke:#424242;stroke-width:1;"/><text fill="#000000" font-family="Verdana" font-size="13" lengthAdjust="spacing" textLength="99.7407" x="1652" y="768.5444">deletes records</text></g><!--link CHATBOT to UC06d--><g class="link" data-entity-1="ent0005" data-entity-2="ent0030" data-link-type="dependency" data-source-line="136" id="lnk48"><path d="M817.56,144.1446 C793.93,156.1446 764.07,175.8346 750,203.4746 C731.63,239.5546 742.498,281.7073 754.198,311.2073" fill="none" id="CHATBOT-to-UC06d" style="stroke:#424242;stroke-width:1;"/><polygon fill="#424242" points="756.41,316.7846,756.8102,306.9439,754.5666,312.1368,749.3737,309.8933,756.41,316.7846" style="stroke:#424242;stroke-width:1;"/><text fill="#000000" font-family="Verdana" font-size="13" lengthAdjust="spacing" textLength="146.6753" x="751" y="217.5444">generates suggestions</text></g><!--link CHATBOT to UC06e--><g class="link" data-entity-1="ent0005" data-entity-2="ent0031" data-link-type="dependency" data-source-line="137" id="lnk49"><path d="M884.28,167.5546 C892.49,178.5046 900.5,190.9146 906,203.4746 C922.57,241.3146 928.1298,283.3815 930.3098,312.3515" fill="none" id="CHATBOT-to-UC06e" style="stroke:#424242;stroke-width:1;"/><polygon fill="#424242" points="930.76,318.3346,934.0734,309.0598,930.3848,313.3487,926.0959,309.6601,930.76,318.3346" style="stroke:#424242;stroke-width:1;"/><text fill="#000000" font-family="Verdana" font-size="13" lengthAdjust="spacing" textLength="92.9424" x="912" y="217.5444">generates tips</text></g><!--link UC06 to UC06a--><g class="link" data-entity-1="ent0017" data-entity-2="ent0022" data-link-type="dependency" data-source-line="143" id="lnk50"><path d="M817.63,518.2946 C706.27,520.0246 459.07,529.2746 257,575.4746 C198.73,588.7946 165.09,573.3746 131,622.4746 C105.15,659.7146 112,683.3146 131,724.4746 C155.46,777.4746 207.3912,814.1666 245.3112,835.8466" fill="none" id="UC06-to-UC06a" style="stroke:#424242;stroke-width:1;stroke-dasharray:7,7;"/><polygon fill="#424242" points="250.52,838.8246,244.6922,830.8851,246.1793,836.3429,240.7215,837.8301,250.52,838.8246" style="stroke:#424242;stroke-width:1;"/><text fill="#000000" font-family="Verdana" font-size="13" lengthAdjust="spacing" textLength="62.9624" x="132" y="679.0444">&#171;include&#187;</text></g><!--link UC06 to UC06b--><g class="link" data-entity-1="ent0017" data-entity-2="ent0023" data-link-type="dependency" data-source-line="144" id="lnk51"><path d="M864.96,544.9246 C843.93,596.5946 808.04,709.9246 867,771.4746 C881.31,786.4146 1034.04,771.2146 1053,779.4746 C1076.5,789.7146 1093.1198,805.7052 1107.3098,823.1952" fill="none" id="UC06-to-UC06b" style="stroke:#424242;stroke-width:1;stroke-dasharray:7,7;"/><polygon fill="#424242" points="1111.09,827.8546,1108.5259,818.3454,1107.9398,823.9718,1102.3134,823.3857,1111.09,827.8546" style="stroke:#424242;stroke-width:1;"/><text fill="#000000" font-family="Verdana" font-size="13" lengthAdjust="spacing" textLength="62.9624" x="841" y="679.0444">&#171;include&#187;</text></g><!--link UC06 to UC06c--><g class="link" data-entity-1="ent0017" data-entity-2="ent0024" data-link-type="dependency" data-source-line="145" id="lnk52"><path d="M817.91,517.9246 C671.51,519.1946 298.4,531.4846 224,622.4746 C195.3,657.5646 195.39,689.3146 224,724.4746 C299.92,817.7746 385.85,717.5946 489,779.4746 C509.86,791.9846 523.8078,808.6717 535.2878,826.0117" fill="none" id="UC06-to-UC06c" style="stroke:#424242;stroke-width:1;stroke-dasharray:7,7;"/><polygon fill="#424242" points="538.6,831.0146,536.967,821.3021,535.8398,826.8455,530.2964,825.7184,538.6,831.0146" style="stroke:#424242;stroke-width:1;"/><text fill="#000000" font-family="Verdana" font-size="13" lengthAdjust="spacing" textLength="62.9624" x="225" y="679.0444">&#171;include&#187;</text></g><!--link UC06 to UC07--><g class="link" data-entity-1="ent0017" data-entity-2="ent0018" data-link-type="dependency" data-source-line="146" id="lnk53"><path d="M917.47,537.9946 C957.59,558.1946 1020.47,590.8446 1073,622.4746 C1088.81,631.9946 1100.9814,640.0428 1114.7514,649.6028" fill="none" id="UC06-to-UC07" style="stroke:#424242;stroke-width:1;stroke-dasharray:7,7;"/><polygon fill="#424242" points="1119.68,653.0246,1114.5682,644.6062,1115.5728,650.1731,1110.0059,651.1777,1119.68,653.0246" style="stroke:#424242;stroke-width:1;"/><text fill="#000000" font-family="Verdana" font-size="13" lengthAdjust="spacing" textLength="62.9624" x="1021" y="589.5444">&#171;include&#187;</text></g><!--link UC07 to UC07a--><g class="link" data-entity-1="ent0018" data-entity-2="ent0025" data-link-type="dependency" data-source-line="148" id="lnk54"><path d="M1122.46,694.8446 C1108.72,705.2446 1090.8,717.2046 1073,724.4746 C947.51,775.7346 892.82,716.0846 773,779.4746 C749.45,791.9346 732.3805,809.4112 718.3505,826.9312" fill="none" id="UC07-to-UC07a" style="stroke:#424242;stroke-width:1;stroke-dasharray:7,7;"/><polygon fill="#424242" points="714.6,831.6146,723.3479,827.0898,717.7254,827.7118,717.1034,822.0892,714.6,831.6146" style="stroke:#424242;stroke-width:1;"/><text fill="#000000" font-family="Verdana" font-size="13" lengthAdjust="spacing" textLength="62.9624" x="833" y="768.5444">&#171;include&#187;</text></g><!--link UC08 to UC07a--><g class="link" data-entity-1="ent0019" data-entity-2="ent0025" data-link-type="dependency" data-source-line="150" id="lnk55"><path d="M983.3,534.0946 C974.04,538.2946 963.77,542.4846 954,545.4746 C829.77,583.5146 743.22,513.8146 672,622.4746 C629.51,687.3046 660.4309,778.9995 680.7909,825.4395" fill="none" id="UC08-to-UC07a" style="stroke:#424242;stroke-width:1;stroke-dasharray:7,7;"/><polygon fill="#424242" points="683.2,830.9346,683.2497,821.0859,681.1924,826.3554,675.9229,824.2981,683.2,830.9346" style="stroke:#424242;stroke-width:1;"/><text fill="#000000" font-family="Verdana" font-size="13" lengthAdjust="spacing" textLength="62.9624" x="673" y="679.0444">&#171;include&#187;</text></g><!--link UC08 to UC06a--><g class="link" data-entity-1="ent0019" data-entity-2="ent0022" data-link-type="dependency" data-source-line="151" id="lnk56"><path d="M983.76,534.4746 C974.42,538.7346 964,542.8546 954,545.4746 C722.45,606.0846 612.33,478.6646 421,622.4746 C348.54,676.9346 310.9297,777.1085 295.9497,825.9385" fill="none" id="UC08-to-UC06a" style="stroke:#424242;stroke-width:1;stroke-dasharray:7,7;"/><polygon fill="#424242" points="294.19,831.6746,300.6537,824.2435,295.6564,826.8945,293.0055,821.8972,294.19,831.6746" style="stroke:#424242;stroke-width:1;"/><text fill="#000000" font-family="Verdana" font-size="13" lengthAdjust="spacing" textLength="62.9624" x="422" y="679.0444">&#171;include&#187;</text></g><!--link UC08 to UC08a--><g class="link" data-entity-1="ent0019" data-entity-2="ent0026" data-link-type="dependency" data-source-line="152" id="lnk57"><path d="M981.88,533.2346 C972.87,537.2946 963.09,541.6246 954,545.4746 C868.58,581.6546 812.11,545.7246 760,622.4746 C713.7,690.6646 777.7414,783.3032 815.1914,828.2932" fill="none" id="UC08-to-UC08a" style="stroke:#424242;stroke-width:1;stroke-dasharray:7,7;"/><polygon fill="#424242" points="819.03,832.9046,816.3464,823.4284,815.8312,829.0618,810.1978,828.5465,819.03,832.9046" style="stroke:#424242;stroke-width:1;"/><text fill="#000000" font-family="Verdana" font-size="13" lengthAdjust="spacing" textLength="62.9624" x="761" y="679.0444">&#171;include&#187;</text></g><!--link UC08 to UC08b--><g class="link" data-entity-1="ent0019" data-entity-2="ent0027" data-link-type="dependency" data-source-line="153" id="lnk58"><path d="M983.4,534.4646 C974.15,538.6746 963.86,542.7646 954,545.4746 C789.93,590.5146 709.58,513.3946 579,622.4746 C507.78,681.9646 459.0026,776.6923 437.1726,824.7223" fill="none" id="UC08-to-UC08b" style="stroke:#424242;stroke-width:1;stroke-dasharray:7,7;"/><polygon fill="#424242" points="434.69,830.1846,442.0555,823.6463,436.7589,825.6327,434.7725,820.3361,434.69,830.1846" style="stroke:#424242;stroke-width:1;"/><text fill="#000000" font-family="Verdana" font-size="13" lengthAdjust="spacing" textLength="62.9624" x="580" y="679.0444">&#171;include&#187;</text></g><!--link UC09 to UC09a--><g class="link" data-entity-1="ent0020" data-entity-2="ent0028" data-link-type="dependency" data-source-line="155" id="lnk59"><path d="M1106.26,533.3046 C1066.08,549.6946 1007.94,573.5846 1006,575.4746 C953.95,626.0946 991.85,674.6846 939,724.4746 C911.66,750.2246 881.33,723.5646 860,754.4746 C855.71,760.6946 855.1,765.7246 860,771.4746 C874.6,788.5946 890.2,768.7746 910,779.4746 C930.3,790.4446 944.18,804.7372 956.74,821.2672" fill="none" id="UC09-to-UC09a" style="stroke:#424242;stroke-width:1;stroke-dasharray:7,7;"/><polygon fill="#424242" points="960.37,826.0446,958.1099,816.4586,957.345,822.0635,951.7401,821.2986,960.37,826.0446" style="stroke:#424242;stroke-width:1;"/><text fill="#000000" font-family="Verdana" font-size="13" lengthAdjust="spacing" textLength="62.9624" x="978" y="679.0444">&#171;include&#187;</text></g><!--link UC06d to UC06--><g class="link" data-entity-1="ent0030" data-entity-2="ent0017" data-link-type="dependency" data-source-line="161" id="lnk60"><path d="M786.11,372.9146 C806.4,404.8346 836.7638,452.6294 856.9238,484.3794" fill="none" id="UC06d-to-UC06" style="stroke:#424242;stroke-width:1;stroke-dasharray:7,7;"/><polygon fill="#424242" points="860.14,489.4446,858.6925,479.7027,857.4598,485.2236,851.9389,483.991,860.14,489.4446" style="stroke:#424242;stroke-width:1;"/><text fill="#000000" font-family="Verdana" font-size="13" lengthAdjust="spacing" textLength="61.3882" x="827" y="433.5444">&#171;extend&#187;</text></g><!--link UC06e to UC06--><g class="link" data-entity-1="ent0031" data-entity-2="ent0017" data-link-type="dependency" data-source-line="162" id="lnk61"><path d="M923.77,371.4246 C913.58,402.9146 898.147,450.616 887.687,482.946" fill="none" id="UC06e-to-UC06" style="stroke:#424242;stroke-width:1;stroke-dasharray:7,7;"/><polygon fill="#424242" points="885.84,488.6546,892.4162,481.3229,887.3791,483.8974,884.8047,478.8603,885.84,488.6546" style="stroke:#424242;stroke-width:1;"/><text fill="#000000" font-family="Verdana" font-size="13" lengthAdjust="spacing" textLength="61.3882" x="908" y="433.5444">&#171;extend&#187;</text></g><g class="legend" data-source-line="168"><rect fill="none" height="316.2637" rx="7.5" ry="7.5" style="stroke:#000000;stroke-width:1;" width="381.5264" x="1572.1528" y="943.4746"/><text fill="#000000" font-family="Verdana" font-size="14" font-weight="bold" lengthAdjust="spacing" textLength="52.5137" x="1577.1528" y="962.5498">Scope:</text><text fill="#000000" font-family="Verdana" font-size="14" lengthAdjust="spacing" textLength="284.5664" x="1634.5884" y="962.5498">Business Profile Management page only.</text><text fill="#000000" font-family="Verdana" font-size="14" lengthAdjust="spacing" textLength="371.5264" x="1577.1528" y="979.5645">Other pages (Map, Portfolio, Compare, Auth, Admin)</text><text fill="#000000" font-family="Verdana" font-size="14" lengthAdjust="spacing" textLength="236.3867" x="1577.1528" y="996.5791">are out of scope for this diagram.</text><text fill="#000000" font-family="Verdana" font-size="14" lengthAdjust="spacing" textLength="4.9219" x="1577.1528" y="1013.5938">&#160;</text><text fill="#000000" font-family="Verdana" font-size="14" font-weight="bold" lengthAdjust="spacing" textLength="55.9932" x="1577.1528" y="1030.6084">Actors:</text><text fill="#000000" font-family="Verdana" font-size="14" lengthAdjust="spacing" textLength="362.7695" x="1577.1528" y="1047.623">User (A01/A02/A03): Combined authenticated user</text><text fill="#000000" font-family="Verdana" font-size="14" lengthAdjust="spacing" textLength="207.3613" x="1586.9966" y="1064.6377">&#8226; A01: Small Business Owner</text><text fill="#000000" font-family="Verdana" font-size="14" lengthAdjust="spacing" textLength="276.9854" x="1586.9966" y="1081.6523">&#8226; A02: Franchise/MNC Expansion Team</text><text fill="#000000" font-family="Verdana" font-size="14" lengthAdjust="spacing" textLength="180.3457" x="1586.9966" y="1098.667">&#8226; A03: Commercial Agent</text><text fill="#000000" font-family="Verdana" font-size="14" lengthAdjust="spacing" textLength="366.7412" x="1577.1528" y="1115.6816">A04: System Backend &#8212; orchestrates all operations</text><text fill="#000000" font-family="Verdana" font-size="14" lengthAdjust="spacing" textLength="343.2734" x="1577.1528" y="1132.6963">External API: Supabase (persistence + RLS) and</text><text fill="#000000" font-family="Verdana" font-size="14" lengthAdjust="spacing" textLength="331.2695" x="1586.9966" y="1149.7109">Publicly Available Databases (sector reference)</text><text fill="#000000" font-family="Verdana" font-size="14" lengthAdjust="spacing" textLength="341.7969" x="1577.1528" y="1166.7256">Chatbot API: AI Agent for profile setup guidance</text><text fill="#000000" font-family="Verdana" font-size="14" lengthAdjust="spacing" textLength="4.9219" x="1577.1528" y="1183.7402">&#160;</text><text fill="#000000" font-family="Verdana" font-size="14" font-weight="bold" lengthAdjust="spacing" textLength="111.9248" x="1577.1528" y="1200.7549">Relationships:</text><text fill="#000000" font-family="Verdana" font-size="14" lengthAdjust="spacing" textLength="356.5625" x="1577.1528" y="1217.7695">&#8212;&#8212;&gt;   Association (actor participates in use case)</text><text fill="#000000" font-family="Verdana" font-size="14" lengthAdjust="spacing" textLength="287.2529" x="1577.1528" y="1234.7842">..&gt;  &#171;include&#187;   mandatory sub-use case</text><text fill="#000000" font-family="Verdana" font-size="14" lengthAdjust="spacing" textLength="304.6299" x="1577.1528" y="1251.7988">..&gt;  &#171;extend&#187;    optional / AI-assisted path</text></g><g class="footer" data-source-line="8"><text fill="#000000" font-family="Verdana" font-size="10" lengthAdjust="spacing" textLength="153.9893" x="904.845" y="1280.792">Generated: February 28, 2026</text></g><?plantuml-src jHXPRjj6z5-dU7M1n74jBt9iIq9gG94fHu0tY7BR0FePacDf46f8p0pjE4M07g8dwD5wahutv53KsZPsA8CmEM_V7tym4pxbaCPCo9h-96JA59j2mC9FOvLaCkecSQBWnvv7lme42qsYVFCKSs2FN2TJNZbC4PsDUNwiU6YO7CUyLdiDGs7m7qDtyATCcSiaP0R_lu2___WJtcTQIAurtAhaNY3C5PD8QCgb6SaxpQ7By7Oks1ZPrEwJn7055rnoXKIYDlHue3Acdg3Ht8N6GUE4U98OGeuhycMQXqJeznhWzNvHMU-er-YTvsU9YhWgtXyUdnnt3-pxZbB9O_7wROD-zdKlaSONNpWS7jQ-rXRDjOvVhzSxyWwM-NadnuS71vi95wPUIxf3lsNIBOz-2wGhEbZF1KaSpNEJQF0DMfnxfykiUgrEit5CT5x3pzz-8NQdExmP-CyaW-XtlZV0i4mLrnXO6in4SOpJ9EOQ7eMPW8ZmlGXPJ942DbHO669SjX4RdNzmQACL0pYEPp5xyuXnM00qB41FCHbE1ABlmzLr5xpFAPDQ91A67ECt1psoeDraEkKg5CYpCqRkjJnYjZ3erKXk4yjzIvVkHs-sW6chXuFpdxJXKuGalt0P8TJR70h_SK3UPymNIInk-mZgPoaBIBdzaRpDWbY4SCwCVQLpNE-t8O8wzEw4cI0n1NQddqkQGtO_T8RlRuQrcWqH9SOJ0ybzBYB0OD7OQ5ULMnnF5sokhIgbnG7jynVPlBtQuEwyqPxPUt-5jHtSKNlPs6Gm4dnH_49_06UgDgH5PKgvqW85bI7VHG2MOIMr2XZak0k3vB5-oHzu33uFCoNCqnv2BLgv3LY9oBO1qfbWFVoaYPYGKQODbh4mPbgB-u8gnkmzLyGH8gImjrPivmmChy99Q7PcO5nKIZ9wphYkKnuI0tmsMGf6f7J8aB1J5EitcKj6LWPTvVhSXFO_-aFl2jxVt5sVTmOVdvlPPQV1TFXVlMKBQvejNA-X_crNWTrD55zcv1gNVW4UhjvlBN7f3kxEjrppAeeqNQxPRTrrwmSd8zbLdApYy37r2mBRluelJ4L5RUaUdAmcSJgIlmZ-k4n0EyJJrOZDaVGYOPOH7LvpDLvh9Czvp5V9x31R5lFhopWHSprDbC6H0OjjNnObyxiuiSBg9gNKf0n39_OEUqsljTQ935t0OX6H7mjBZ6HVffc1GLPnn0bRGo0OoHutuOIA4vMVLuHUr9o1Ap9eTgmo9QrW3Qrm97tsK17496MvB973DR64cWouKOBF2A1txrKoNQ9nkaQP9jAuI-Tj8UGIUdCTUa2wFnJcH5r2ok4k2oSpr3Mgjv0pXaJ88fn9ROJEakaL-CAGBYj4QR6N3DTElzxHjXL5toT8gmmkCZGJniQMdVUQtk7Q68r6qWtcCx_ujidusNZCTH7hHO14QyZm2fayMEj8nZMj8RQhaWHtLdsfKHFgPpJ0GBU3juxlttJxdM7_vle5Hb0qSZw62YcCe9OCDDgaIanfVQ5Q3abP4GYyPi7h91ALvkhJwTnJS-wfvRZX68W3L3vQkHanKHZbcFGbVpshHmlS4RrapkQUWhcdiFfqEWVPd7-QmyEKAEIipgZjCdMgurO-dUIJrFn4P2NDPxQPGD1soDhDD8im0SAGwh50EnGJ6T5RW3jb2AUASbKIqmjGJOBAR45Qnx15896j6DhELohIJl_AaDr69v07o1Xz61Uf1n6Ea-WWDv-5rCzfEYJbYyclr2n2HkNKXpgMYRS4oUSWxHpux2nwzqx8CCuYVdO60-yoJvuF_Tjd9n0937jxHJYYv1LEyuV1fiDmm-4fB1pMx4jtobQSDjUULWzFDXqsDnu6AvYst6bhIQJdkuzZCiheUtWlAirXfNQCQdaehZvxjaANteLtVVvSyMC-fkA9IMfmJB5B5tQUdHsS75BUtjdPj6bWLyMMciZOheCtk3Cg-qh3zXLBT-4Mg-zz4ejabvRKb2c-2nrSBV4UJOLyGxiPZYT9PlSyJHpX7gkLmQqNeloxs5xDYjEXCgPH7doYhmX07n7sSK_Ufmy8TWaEKCoekhhY4stcjf7-szRzt_VkJPith6nCjAyjDQTPHqAiDMrYkzedVeB1fV-6seKL8b--uoVeF30Him0TKoxYi5sK_RAXaAddQd6vIfEzNV7DjsPNcdF33tYSYpd18fhR7_N1lpFwtgDrWkhRWhsTVrT1BwFnHMeLnN7HVNCY2IWHvieem9JHAfxWbA2peEw0Px1bpk9Lzezz6XEPc-AGrOJM-3oIQ_y0?></g></svg>