<?plantuml 1.2026.2?><svg xmlns="http://www.w3.org/2000/svg" xmlns:xlink="http://www.w3.org/1999/xlink" contentStyleType="text/css" data-diagram-type="CLASS" height="1810px" preserveAspectRatio="none" style="width:2812px;height:1810px;background:#FFFFFF;" version="1.1" viewBox="0 0 2812 1810" width="2812px" zoomAndPan="magnify"><title>SmartLocate SG &#8212; UC-13 Drop POI Pin and Get Site Score (Class Diagram)</title><defs/><g><g class="title" data-source-line="1"><text fill="#000000" font-family="sans-serif" font-size="14" font-weight="bold" lengthAdjust="spacing" textLength="500.6777" x="1148.6838" y="29.5332">SmartLocate SG &#8212; UC-13 Drop POI Pin and Get Site Score (Class Diagram)</text></g><!--cluster Boundary--><g class="cluster" data-qualified-name="Boundary" data-source-line="10" id="ent0002"><path d="M2005.27,54.6094 L2062.9399,54.6094 A3.75,3.75 0 0 1 2065.4399,57.1094 L2072.4399,83.1875 L2378.27,83.1875 A2.5,2.5 0 0 1 2380.77,85.6875 L2380.77,516.1094 A2.5,2.5 0 0 1 2378.27,518.6094 L2005.27,518.6094 A2.5,2.5 0 0 1 2002.77,516.1094 L2002.77,57.1094 A2.5,2.5 0 0 1 2005.27,54.6094" fill="#FFDDDD" style="stroke:#000000;stroke-width:1.5;"/><line style="stroke:#000000;stroke-width:1.5;" x1="2002.77" x2="2072.4399" y1="83.1875" y2="83.1875"/><text fill="#000000" font-family="sans-serif" font-size="10" font-weight="bold" lengthAdjust="spacing" textLength="46.6699" x="2011.77" y="71.9902">Boundary</text></g><!--cluster Control--><g class="cluster" data-qualified-name="Control" data-source-line="27" id="ent0005"><path d="M2003.27,574.6094 L2049.8169,574.6094 A3.75,3.75 0 0 1 2052.3169,577.1094 L2059.3169,603.1875 L2380.27,603.1875 A2.5,2.5 0 0 1 2382.77,605.6875 L2382.77,1236.1094 A2.5,2.5 0 0 1 2380.27,1238.6094 L2003.27,1238.6094 A2.5,2.5 0 0 1 2000.77,1236.1094 L2000.77,577.1094 A2.5,2.5 0 0 1 2003.27,574.6094" fill="#DDFFDD" style="stroke:#000000;stroke-width:1.5;"/><line style="stroke:#000000;stroke-width:1.5;" x1="2000.77" x2="2059.3169" y1="603.1875" y2="603.1875"/><text fill="#000000" font-family="sans-serif" font-size="10" font-weight="bold" lengthAdjust="spacing" textLength="35.5469" x="2009.77" y="591.9902">Control</text></g><!--cluster Persistence--><g class="cluster" data-qualified-name="Persistence" data-source-line="48" id="ent0009"><path d="M146.27,1031.6094 L213.4175,1031.6094 A3.75,3.75 0 0 1 215.9175,1034.1094 L222.9175,1060.1875 L1704.27,1060.1875 A2.5,2.5 0 0 1 1706.77,1062.6875 L1706.77,1202.1094 A2.5,2.5 0 0 1 1704.27,1204.6094 L146.27,1204.6094 A2.5,2.5 0 0 1 143.77,1202.1094 L143.77,1034.1094 A2.5,2.5 0 0 1 146.27,1031.6094" fill="#EFEFEF" style="stroke:#000000;stroke-width:1.5;"/><line style="stroke:#000000;stroke-width:1.5;" x1="143.77" x2="222.9175" y1="1060.1875" y2="1060.1875"/><text fill="#000000" font-family="sans-serif" font-size="10" font-weight="bold" lengthAdjust="spacing" textLength="56.1475" x="152.77" y="1048.9902">Persistence</text></g><!--cluster Entity--><g class="cluster" data-qualified-name="Entity" data-source-line="69" id="ent0014"><path d="M1456.27,1294.6094 L1495.0483,1294.6094 A3.75,3.75 0 0 1 1497.5483,1297.1094 L1504.5483,1323.1875 L2719.27,1323.1875 A2.5,2.5 0 0 1 2721.77,1325.6875 L2721.77,1801.1094 A2.5,2.5 0 0 1 2719.27,1803.6094 L1456.27,1803.6094 A2.5,2.5 0 0 1 1453.77,1801.1094 L1453.77,1297.1094 A2.5,2.5 0 0 1 1456.27,1294.6094" fill="#DDDDFF" style="stroke:#000000;stroke-width:1.5;"/><line style="stroke:#000000;stroke-width:1.5;" x1="1453.77" x2="1504.5483" y1="1323.1875" y2="1323.1875"/><text fill="#000000" font-family="sans-serif" font-size="10" font-weight="bold" lengthAdjust="spacing" textLength="27.7783" x="1462.77" y="1311.9902">Entity</text></g><!--cluster External Services--><g class="cluster" data-qualified-name="External Services" data-source-line="137" id="ent0025"><path d="M379.27,1340.1094 L473.6587,1340.1094 A3.75,3.75 0 0 1 476.1587,1342.6094 L483.1587,1368.6875 L926.27,1368.6875 A2.5,2.5 0 0 1 928.77,1371.1875 L928.77,1510.6094 A2.5,2.5 0 0 1 926.27,1513.1094 L379.27,1513.1094 A2.5,2.5 0 0 1 376.77,1510.6094 L376.77,1342.6094 A2.5,2.5 0 0 1 379.27,1340.1094" fill="#FFFACD" style="stroke:#000000;stroke-width:1.5;"/><line style="stroke:#000000;stroke-width:1.5;" x1="376.77" x2="483.1587" y1="1368.6875" y2="1368.6875"/><text fill="#000000" font-family="sans-serif" font-size="10" font-weight="bold" lengthAdjust="spacing" textLength="83.3887" x="385.77" y="1357.4902">External Services</text></g><!--class MapPage--><g class="entity" data-qualified-name="Boundary.MapPage" data-source-line="11" id="ent0003"><rect fill="#F1F1F1" height="229.2031" rx="2.5" ry="2.5" style="stroke:#181818;stroke-width:0.5;" width="267.9473" x="2057.77" y="95.6094"/><ellipse cx="2158.5825" cy="123.1875" fill="#ADD1B2" rx="9" ry="9" style="stroke:#181818;stroke-width:1;"/><path d="M2159.6606,120.5156 Q2159.7388,120.3906 2159.8481,120.3281 Q2159.9731,120.2656 2160.0981,120.2656 Q2160.3169,120.2656 2160.4575,120.4219 Q2160.5981,120.5781 2160.5981,120.9375 L2160.5981,121.7813 Q2160.5981,122.1406 2160.4575,122.2969 Q2160.3169,122.4531 2160.0981,122.4531 Q2159.895,122.4531 2159.77,122.3438 Q2159.645,122.2344 2159.5825,121.9219 Q2159.5513,121.7188 2159.4575,121.6094 Q2159.2544,121.375 2158.895,121.25 Q2158.5356,121.125 2158.1763,121.125 Q2157.7231,121.125 2157.3481,121.3281 Q2156.9731,121.5156 2156.6763,121.9531 Q2156.395,122.3906 2156.395,123 L2156.395,123.6406 Q2156.395,124.3594 2156.9106,124.8438 Q2157.4419,125.3281 2158.3794,125.3281 Q2158.9419,125.3281 2159.3169,125.1875 Q2159.5513,125.0938 2159.8013,124.8281 Q2159.9575,124.6719 2160.0356,124.625 Q2160.1294,124.5781 2160.2388,124.5781 Q2160.4419,124.5781 2160.5981,124.7344 Q2160.7544,124.8906 2160.7544,125.0938 Q2160.7544,125.2969 2160.5356,125.5313 Q2160.2388,125.875 2159.77,126.0625 Q2159.145,126.3281 2158.3794,126.3281 Q2157.4888,126.3281 2156.7856,125.9688 Q2156.2075,125.6719 2155.8013,125.0469 Q2155.395,124.4063 2155.395,123.6563 L2155.395,122.9844 Q2155.395,122.2031 2155.7544,121.5313 Q2156.1294,120.8438 2156.77,120.4844 Q2157.4106,120.125 2158.1294,120.125 Q2158.5669,120.125 2158.9419,120.2188 Q2159.3325,120.3125 2159.6606,120.5156 Z " fill="#000000"/><text fill="#000000" font-family="sans-serif" font-size="10" font-style="italic" lengthAdjust="spacing" textLength="52.8223" x="2179.0825" y="115.9902">&#171;boundary&#187;</text><text fill="#000000" font-family="sans-serif" font-size="10" lengthAdjust="spacing" textLength="42.8076" x="2184.0898" y="138.5684">MapPage</text><line style="stroke:#181818;stroke-width:0.5;" x1="2058.77" x2="2324.7173" y1="150.7656" y2="150.7656"/><text fill="#000000" font-family="sans-serif" font-size="10" lengthAdjust="spacing" textLength="115.6445" x="2068.77" y="170.1465">-selectedLatLng : LatLng?</text><text fill="#000000" font-family="sans-serif" font-size="10" lengthAdjust="spacing" textLength="113.9404" x="2068.77" y="192.7246">-activeProfileId : number?</text><text fill="#000000" font-family="sans-serif" font-size="10" lengthAdjust="spacing" textLength="131.1621" x="2068.77" y="215.3027">-focusRadiusMeters : number</text><line style="stroke:#181818;stroke-width:1;" x1="2058.77" x2="2324.7173" y1="226.5" y2="226.5"/><text fill="#000000" font-family="sans-serif" font-size="10" lengthAdjust="spacing" textLength="218.7158" x="2068.77" y="245.8809">+handleMapClick(lat: number, lng: number) : void</text><text fill="#000000" font-family="sans-serif" font-size="10" lengthAdjust="spacing" textLength="164.2432" x="2068.77" y="268.459">+requestSiteScore() : Promise&lt;void&gt;</text><text fill="#000000" font-family="sans-serif" font-size="10" lengthAdjust="spacing" textLength="245.9473" x="2068.77" y="291.0371">+renderScoreBreakdown(score: SiteScoreResult) : void</text><text fill="#000000" font-family="sans-serif" font-size="10" lengthAdjust="spacing" textLength="181.4551" x="2068.77" y="313.6152">+showScoreError(message: string) : void</text></g><!--class MapAPI--><g class="entity" data-qualified-name="Boundary.MapAPI" data-source-line="22" id="ent0004"><rect fill="#F1F1F1" height="93.7344" rx="2.5" ry="2.5" style="stroke:#181818;stroke-width:0.5;" width="346.3311" x="2018.77" y="408.6094"/><ellipse cx="2158.7744" cy="436.1875" fill="#ADD1B2" rx="9" ry="9" style="stroke:#181818;stroke-width:1;"/><path d="M2159.8525,433.5156 Q2159.9306,433.3906 2160.04,433.3281 Q2160.165,433.2656 2160.29,433.2656 Q2160.5088,433.2656 2160.6494,433.4219 Q2160.79,433.5781 2160.79,433.9375 L2160.79,434.7813 Q2160.79,435.1406 2160.6494,435.2969 Q2160.5088,435.4531 2160.29,435.4531 Q2160.0869,435.4531 2159.9619,435.3438 Q2159.8369,435.2344 2159.7744,434.9219 Q2159.7431,434.7188 2159.6494,434.6094 Q2159.4463,434.375 2159.0869,434.25 Q2158.7275,434.125 2158.3681,434.125 Q2157.915,434.125 2157.54,434.3281 Q2157.165,434.5156 2156.8681,434.9531 Q2156.5869,435.3906 2156.5869,436 L2156.5869,436.6406 Q2156.5869,437.3594 2157.1025,437.8438 Q2157.6338,438.3281 2158.5713,438.3281 Q2159.1338,438.3281 2159.5088,438.1875 Q2159.7431,438.0938 2159.9931,437.8281 Q2160.1494,437.6719 2160.2275,437.625 Q2160.3213,437.5781 2160.4306,437.5781 Q2160.6338,437.5781 2160.79,437.7344 Q2160.9463,437.8906 2160.9463,438.0938 Q2160.9463,438.2969 2160.7275,438.5313 Q2160.4306,438.875 2159.9619,439.0625 Q2159.3369,439.3281 2158.5713,439.3281 Q2157.6806,439.3281 2156.9775,438.9688 Q2156.3994,438.6719 2155.9931,438.0469 Q2155.5869,437.4063 2155.5869,436.6563 L2155.5869,435.9844 Q2155.5869,435.2031 2155.9463,434.5313 Q2156.3213,433.8438 2156.9619,433.4844 Q2157.6025,433.125 2158.3213,433.125 Q2158.7588,433.125 2159.1338,433.2188 Q2159.5244,433.3125 2159.8525,433.5156 Z " fill="#000000"/><text fill="#000000" font-family="sans-serif" font-size="10" font-style="italic" lengthAdjust="spacing" textLength="52.8223" x="2179.2744" y="428.9902">&#171;boundary&#187;</text><text fill="#000000" font-family="sans-serif" font-size="10" lengthAdjust="spacing" textLength="35.5713" x="2187.8999" y="451.5684">MapAPI</text><line style="stroke:#181818;stroke-width:0.5;" x1="2019.77" x2="2364.1011" y1="463.7656" y2="463.7656"/><line style="stroke:#181818;stroke-width:0.5;" x1="2019.77" x2="2364.1011" y1="471.7656" y2="471.7656"/><text fill="#000000" font-family="sans-serif" font-size="10" lengthAdjust="spacing" textLength="324.3311" x="2029.77" y="491.1465">+postSiteScore(payload: SiteScoreRequest) : Promise&lt;SiteScoreResult&gt;</text></g><!--class MapController--><g class="entity" data-qualified-name="Control.MapController" data-source-line="28" id="ent0006"><rect fill="#F1F1F1" height="116.3125" rx="2.5" ry="2.5" style="stroke:#181818;stroke-width:0.5;" width="350.2471" x="2016.77" y="615.6094"/><ellipse cx="2151.7422" cy="643.1875" fill="#ADD1B2" rx="9" ry="9" style="stroke:#181818;stroke-width:1;"/><path d="M2152.8203,640.5156 Q2152.8984,640.3906 2153.0078,640.3281 Q2153.1328,640.2656 2153.2578,640.2656 Q2153.4765,640.2656 2153.6172,640.4219 Q2153.7578,640.5781 2153.7578,640.9375 L2153.7578,641.7813 Q2153.7578,642.1406 2153.6172,642.2969 Q2153.4765,642.4531 2153.2578,642.4531 Q2153.0547,642.4531 2152.9297,642.3438 Q2152.8047,642.2344 2152.7422,641.9219 Q2152.7109,641.7188 2152.6172,641.6094 Q2152.414,641.375 2152.0547,641.25 Q2151.6953,641.125 2151.3359,641.125 Q2150.8828,641.125 2150.5078,641.3281 Q2150.1328,641.5156 2149.8359,641.9531 Q2149.5547,642.3906 2149.5547,643 L2149.5547,643.6406 Q2149.5547,644.3594 2150.0703,644.8438 Q2150.6015,645.3281 2151.539,645.3281 Q2152.1015,645.3281 2152.4765,645.1875 Q2152.7109,645.0938 2152.9609,644.8281 Q2153.1172,644.6719 2153.1953,644.625 Q2153.289,644.5781 2153.3984,644.5781 Q2153.6015,644.5781 2153.7578,644.7344 Q2153.914,644.8906 2153.914,645.0938 Q2153.914,645.2969 2153.6953,645.5313 Q2153.3984,645.875 2152.9297,646.0625 Q2152.3047,646.3281 2151.539,646.3281 Q2150.6484,646.3281 2149.9453,645.9688 Q2149.3672,645.6719 2148.9609,645.0469 Q2148.5547,644.4063 2148.5547,643.6563 L2148.5547,642.9844 Q2148.5547,642.2031 2148.914,641.5313 Q2149.289,640.8438 2149.9297,640.4844 Q2150.5703,640.125 2151.289,640.125 Q2151.7265,640.125 2152.1015,640.2188 Q2152.4922,640.3125 2152.8203,640.5156 Z " fill="#000000"/><text fill="#000000" font-family="sans-serif" font-size="10" font-style="italic" lengthAdjust="spacing" textLength="41.1377" x="2185.0747" y="635.9902">&#171;control&#187;</text><text fill="#000000" font-family="sans-serif" font-size="10" lengthAdjust="spacing" textLength="62.8027" x="2174.2422" y="658.5684">MapController</text><line style="stroke:#181818;stroke-width:0.5;" x1="2017.77" x2="2366.0171" y1="670.7656" y2="670.7656"/><line style="stroke:#181818;stroke-width:0.5;" x1="2017.77" x2="2366.0171" y1="678.7656" y2="678.7656"/><text fill="#000000" font-family="sans-serif" font-size="10" lengthAdjust="spacing" textLength="240.957" x="2027.77" y="698.1465">+postSiteScore(request: HttpRequest) : HttpResponse</text><text fill="#000000" font-family="sans-serif" font-size="10" lengthAdjust="spacing" textLength="328.2471" x="2027.77" y="720.7246">+validateSiteScorePayload(payload: SiteScoreRequest) : ValidationResult</text></g><!--class ScoreService--><g class="entity" data-qualified-name="Control.ScoreService" data-source-line="33" id="ent0007"><rect fill="#F1F1F1" height="138.8906" rx="2.5" ry="2.5" style="stroke:#181818;stroke-width:0.5;" width="341.0479" x="2017.27" y="815.6094"/><ellipse cx="2149.31" cy="843.1875" fill="#ADD1B2" rx="9" ry="9" style="stroke:#181818;stroke-width:1;"/><path d="M2150.3882,840.5156 Q2150.4663,840.3906 2150.5757,840.3281 Q2150.7007,840.2656 2150.8257,840.2656 Q2151.0444,840.2656 2151.185,840.4219 Q2151.3257,840.5781 2151.3257,840.9375 L2151.3257,841.7813 Q2151.3257,842.1406 2151.185,842.2969 Q2151.0444,842.4531 2150.8257,842.4531 Q2150.6225,842.4531 2150.4975,842.3438 Q2150.3725,842.2344 2150.31,841.9219 Q2150.2788,841.7188 2150.185,841.6094 Q2149.9819,841.375 2149.6225,841.25 Q2149.2632,841.125 2148.9038,841.125 Q2148.4507,841.125 2148.0757,841.3281 Q2147.7007,841.5156 2147.4038,841.9531 Q2147.1225,842.3906 2147.1225,843 L2147.1225,843.6406 Q2147.1225,844.3594 2147.6382,844.8438 Q2148.1694,845.3281 2149.1069,845.3281 Q2149.6694,845.3281 2150.0444,845.1875 Q2150.2788,845.0938 2150.5288,844.8281 Q2150.685,844.6719 2150.7632,844.625 Q2150.8569,844.5781 2150.9663,844.5781 Q2151.1694,844.5781 2151.3257,844.7344 Q2151.4819,844.8906 2151.4819,845.0938 Q2151.4819,845.2969 2151.2632,845.5313 Q2150.9663,845.875 2150.4975,846.0625 Q2149.8725,846.3281 2149.1069,846.3281 Q2148.2163,846.3281 2147.5132,845.9688 Q2146.935,845.6719 2146.5288,845.0469 Q2146.1225,844.4063 2146.1225,843.6563 L2146.1225,842.9844 Q2146.1225,842.2031 2146.4819,841.5313 Q2146.8569,840.8438 2147.4975,840.4844 Q2148.1382,840.125 2148.8569,840.125 Q2149.2944,840.125 2149.6694,840.2188 Q2150.06,840.3125 2150.3882,840.5156 Z " fill="#000000"/><text fill="#000000" font-family="sans-serif" font-size="10" font-style="italic" lengthAdjust="spacing" textLength="41.1377" x="2180.9751" y="835.9902">&#171;control&#187;</text><text fill="#000000" font-family="sans-serif" font-size="10" lengthAdjust="spacing" textLength="59.4678" x="2171.81" y="858.5684">ScoreService</text><line style="stroke:#181818;stroke-width:0.5;" x1="2018.27" x2="2357.3179" y1="870.7656" y2="870.7656"/><line style="stroke:#181818;stroke-width:0.5;" x1="2018.27" x2="2357.3179" y1="878.7656" y2="878.7656"/><text fill="#000000" font-family="sans-serif" font-size="10" lengthAdjust="spacing" textLength="279.8682" x="2028.27" y="898.1465">+scoreSiteLocation(input: SiteScoreRequest) : SiteScoreResult</text><text fill="#000000" font-family="sans-serif" font-size="10" lengthAdjust="spacing" textLength="283.999" x="2028.27" y="920.7246">-scoreViaPrimaryDb(input: SiteScoreRequest) : SiteScoreResult</text><text fill="#000000" font-family="sans-serif" font-size="10" lengthAdjust="spacing" textLength="319.0479" x="2028.27" y="943.3027">-scoreViaSupabaseFallback(input: SiteScoreRequest) : SiteScoreResult</text></g><!--class ScoreEngine--><g class="entity" data-qualified-name="Control.ScoreEngine" data-source-line="39" id="ent0008"><rect fill="#F1F1F1" height="184.0469" rx="2.5" ry="2.5" style="stroke:#181818;stroke-width:0.5;" width="330.7354" x="2035.27" y="1038.6094"/><ellipse cx="2163.2573" cy="1066.1875" fill="#ADD1B2" rx="9" ry="9" style="stroke:#181818;stroke-width:1;"/><path d="M2164.3354,1063.5156 Q2164.4136,1063.3906 2164.5229,1063.3281 Q2164.6479,1063.2656 2164.7729,1063.2656 Q2164.9917,1063.2656 2165.1323,1063.4219 Q2165.2729,1063.5781 2165.2729,1063.9375 L2165.2729,1064.7813 Q2165.2729,1065.1406 2165.1323,1065.2969 Q2164.9917,1065.4531 2164.7729,1065.4531 Q2164.5698,1065.4531 2164.4448,1065.3438 Q2164.3198,1065.2344 2164.2573,1064.9219 Q2164.2261,1064.7188 2164.1323,1064.6094 Q2163.9292,1064.375 2163.5698,1064.25 Q2163.2104,1064.125 2162.8511,1064.125 Q2162.3979,1064.125 2162.0229,1064.3281 Q2161.6479,1064.5156 2161.3511,1064.9531 Q2161.0698,1065.3906 2161.0698,1066 L2161.0698,1066.6406 Q2161.0698,1067.3594 2161.5854,1067.8438 Q2162.1167,1068.3281 2163.0542,1068.3281 Q2163.6167,1068.3281 2163.9917,1068.1875 Q2164.2261,1068.0938 2164.4761,1067.8281 Q2164.6323,1067.6719 2164.7104,1067.625 Q2164.8042,1067.5781 2164.9136,1067.5781 Q2165.1167,1067.5781 2165.2729,1067.7344 Q2165.4292,1067.8906 2165.4292,1068.0938 Q2165.4292,1068.2969 2165.2104,1068.5313 Q2164.9136,1068.875 2164.4448,1069.0625 Q2163.8198,1069.3281 2163.0542,1069.3281 Q2162.1636,1069.3281 2161.4604,1068.9688 Q2160.8823,1068.6719 2160.4761,1068.0469 Q2160.0698,1067.4063 2160.0698,1066.6563 L2160.0698,1065.9844 Q2160.0698,1065.2031 2160.4292,1064.5313 Q2160.8042,1063.8438 2161.4448,1063.4844 Q2162.0854,1063.125 2162.8042,1063.125 Q2163.2417,1063.125 2163.6167,1063.2188 Q2164.0073,1063.3125 2164.3354,1063.5156 Z " fill="#000000"/><text fill="#000000" font-family="sans-serif" font-size="10" font-style="italic" lengthAdjust="spacing" textLength="41.1377" x="2193.8188" y="1058.9902">&#171;control&#187;</text><text fill="#000000" font-family="sans-serif" font-size="10" lengthAdjust="spacing" textLength="57.2607" x="2185.7573" y="1081.5684">ScoreEngine</text><line style="stroke:#181818;stroke-width:0.5;" x1="2036.27" x2="2365.0054" y1="1093.7656" y2="1093.7656"/><line style="stroke:#181818;stroke-width:0.5;" x1="2036.27" x2="2365.0054" y1="1101.7656" y2="1101.7656"/><text fill="#000000" font-family="sans-serif" font-size="10" lengthAdjust="spacing" textLength="254.2676" x="2046.27" y="1121.1465">+computeComposite(scores: DimensionScores) : number</text><text fill="#000000" font-family="sans-serif" font-size="10" lengthAdjust="spacing" textLength="308.7354" x="2046.27" y="1143.7246">+computeDemographicScore(metrics: PlanningAreaMetrics) : number</text><text fill="#000000" font-family="sans-serif" font-size="10" lengthAdjust="spacing" textLength="293.7109" x="2046.27" y="1166.3027">+computeAccessibilityScore(transport: TransportMetrics) : number</text><text fill="#000000" font-family="sans-serif" font-size="10" lengthAdjust="spacing" textLength="278.1689" x="2046.27" y="1188.8809">+computeRentalScore(metrics: PlanningAreaMetrics) : number</text><text fill="#000000" font-family="sans-serif" font-size="10" lengthAdjust="spacing" textLength="295.9375" x="2046.27" y="1211.459">+computeCompetitionScore(metrics: CompetitionMetrics) : number</text></g><!--class PlanningAreaRepository--><g class="entity" data-qualified-name="Persistence.PlanningAreaRepository" data-source-line="49" id="ent0010"><rect fill="#F1F1F1" height="116.3125" rx="2.5" ry="2.5" style="stroke:#181818;stroke-width:0.5;" width="301.8877" x="984.77" y="1072.6094"/><ellipse cx="1073.0429" cy="1100.1875" fill="#ADD1B2" rx="9" ry="9" style="stroke:#181818;stroke-width:1;"/><path d="M1074.1211,1097.5156 Q1074.1992,1097.3906 1074.3086,1097.3281 Q1074.4336,1097.2656 1074.5586,1097.2656 Q1074.7773,1097.2656 1074.9179,1097.4219 Q1075.0586,1097.5781 1075.0586,1097.9375 L1075.0586,1098.7813 Q1075.0586,1099.1406 1074.9179,1099.2969 Q1074.7773,1099.4531 1074.5586,1099.4531 Q1074.3554,1099.4531 1074.2304,1099.3438 Q1074.1054,1099.2344 1074.0429,1098.9219 Q1074.0117,1098.7188 1073.9179,1098.6094 Q1073.7148,1098.375 1073.3554,1098.25 Q1072.9961,1098.125 1072.6367,1098.125 Q1072.1836,1098.125 1071.8086,1098.3281 Q1071.4336,1098.5156 1071.1367,1098.9531 Q1070.8554,1099.3906 1070.8554,1100 L1070.8554,1100.6406 Q1070.8554,1101.3594 1071.3711,1101.8438 Q1071.9023,1102.3281 1072.8398,1102.3281 Q1073.4023,1102.3281 1073.7773,1102.1875 Q1074.0117,1102.0938 1074.2617,1101.8281 Q1074.4179,1101.6719 1074.4961,1101.625 Q1074.5898,1101.5781 1074.6992,1101.5781 Q1074.9023,1101.5781 1075.0586,1101.7344 Q1075.2148,1101.8906 1075.2148,1102.0938 Q1075.2148,1102.2969 1074.9961,1102.5313 Q1074.6992,1102.875 1074.2304,1103.0625 Q1073.6054,1103.3281 1072.8398,1103.3281 Q1071.9492,1103.3281 1071.2461,1102.9688 Q1070.6679,1102.6719 1070.2617,1102.0469 Q1069.8554,1101.4063 1069.8554,1100.6563 L1069.8554,1099.9844 Q1069.8554,1099.2031 1070.2148,1098.5313 Q1070.5898,1097.8438 1071.2304,1097.4844 Q1071.8711,1097.125 1072.5898,1097.125 Q1073.0273,1097.125 1073.4023,1097.2188 Q1073.7929,1097.3125 1074.1211,1097.5156 Z " fill="#000000"/><text fill="#000000" font-family="sans-serif" font-size="10" font-style="italic" lengthAdjust="spacing" textLength="55.0293" x="1121.9492" y="1092.9902">&#171;repository&#187;</text><text fill="#000000" font-family="sans-serif" font-size="10" lengthAdjust="spacing" textLength="107.8418" x="1095.5429" y="1115.5684">PlanningAreaRepository</text><line style="stroke:#181818;stroke-width:0.5;" x1="985.77" x2="1285.6577" y1="1127.7656" y2="1127.7656"/><line style="stroke:#181818;stroke-width:0.5;" x1="985.77" x2="1285.6577" y1="1135.7656" y2="1135.7656"/><text fill="#000000" font-family="sans-serif" font-size="10" lengthAdjust="spacing" textLength="279.8877" x="995.77" y="1155.1465">+findContainingArea(lat: number, lng: number) : PlanningArea?</text><text fill="#000000" font-family="sans-serif" font-size="10" lengthAdjust="spacing" textLength="277.6318" x="995.77" y="1177.7246">+getPlanningAreaMetrics(areaId: string) : PlanningAreaMetrics</text></g><!--class TransportRepository--><g class="entity" data-qualified-name="Persistence.TransportRepository" data-source-line="54" id="ent0011"><rect fill="#F1F1F1" height="116.3125" rx="2.5" ry="2.5" style="stroke:#181818;stroke-width:0.5;" width="364.1045" x="1326.77" y="1072.6094"/><ellipse cx="1454.7768" cy="1100.1875" fill="#ADD1B2" rx="9" ry="9" style="stroke:#181818;stroke-width:1;"/><path d="M1455.855,1097.5156 Q1455.9331,1097.3906 1456.0425,1097.3281 Q1456.1675,1097.2656 1456.2925,1097.2656 Q1456.5112,1097.2656 1456.6518,1097.4219 Q1456.7925,1097.5781 1456.7925,1097.9375 L1456.7925,1098.7813 Q1456.7925,1099.1406 1456.6518,1099.2969 Q1456.5112,1099.4531 1456.2925,1099.4531 Q1456.0893,1099.4531 1455.9643,1099.3438 Q1455.8393,1099.2344 1455.7768,1098.9219 Q1455.7456,1098.7188 1455.6518,1098.6094 Q1455.4487,1098.375 1455.0893,1098.25 Q1454.73,1098.125 1454.3706,1098.125 Q1453.9175,1098.125 1453.5425,1098.3281 Q1453.1675,1098.5156 1452.8706,1098.9531 Q1452.5893,1099.3906 1452.5893,1100 L1452.5893,1100.6406 Q1452.5893,1101.3594 1453.105,1101.8438 Q1453.6362,1102.3281 1454.5737,1102.3281 Q1455.1362,1102.3281 1455.5112,1102.1875 Q1455.7456,1102.0938 1455.9956,1101.8281 Q1456.1518,1101.6719 1456.23,1101.625 Q1456.3237,1101.5781 1456.4331,1101.5781 Q1456.6362,1101.5781 1456.7925,1101.7344 Q1456.9487,1101.8906 1456.9487,1102.0938 Q1456.9487,1102.2969 1456.73,1102.5313 Q1456.4331,1102.875 1455.9643,1103.0625 Q1455.3393,1103.3281 1454.5737,1103.3281 Q1453.6831,1103.3281 1452.98,1102.9688 Q1452.4018,1102.6719 1451.9956,1102.0469 Q1451.5893,1101.4063 1451.5893,1100.6563 L1451.5893,1099.9844 Q1451.5893,1099.2031 1451.9487,1098.5313 Q1452.3237,1097.8438 1452.9643,1097.4844 Q1453.605,1097.125 1454.3237,1097.125 Q1454.7612,1097.125 1455.1362,1097.2188 Q1455.5268,1097.3125 1455.855,1097.5156 Z " fill="#000000"/><text fill="#000000" font-family="sans-serif" font-size="10" font-style="italic" lengthAdjust="spacing" textLength="55.0293" x="1495.0576" y="1092.9902">&#171;repository&#187;</text><text fill="#000000" font-family="sans-serif" font-size="10" lengthAdjust="spacing" textLength="90.5908" x="1477.2768" y="1115.5684">TransportRepository</text><line style="stroke:#181818;stroke-width:0.5;" x1="1327.77" x2="1689.8745" y1="1127.7656" y2="1127.7656"/><line style="stroke:#181818;stroke-width:0.5;" x1="1327.77" x2="1689.8745" y1="1135.7656" y2="1135.7656"/><text fill="#000000" font-family="sans-serif" font-size="10" lengthAdjust="spacing" textLength="342.1045" x="1337.77" y="1155.1465">+countNearbyBusStops(lat: number, lng: number, radiusMeters: number) : int</text><text fill="#000000" font-family="sans-serif" font-size="10" lengthAdjust="spacing" textLength="335.4102" x="1337.77" y="1177.7246">+countNearbyMrtExits(lat: number, lng: number, radiusMeters: number) : int</text></g><!--class CompetitionRepository--><g class="entity" data-qualified-name="Persistence.CompetitionRepository" data-source-line="59" id="ent0012"><rect fill="#F1F1F1" height="93.7344" rx="2.5" ry="2.5" style="stroke:#181818;stroke-width:0.5;" width="449.1289" x="160.27" y="1083.6094"/><ellipse cx="325.5058" cy="1111.1875" fill="#ADD1B2" rx="9" ry="9" style="stroke:#181818;stroke-width:1;"/><path d="M326.584,1108.5156 Q326.6621,1108.3906 326.7715,1108.3281 Q326.8965,1108.2656 327.0215,1108.2656 Q327.2402,1108.2656 327.3808,1108.4219 Q327.5215,1108.5781 327.5215,1108.9375 L327.5215,1109.7813 Q327.5215,1110.1406 327.3808,1110.2969 Q327.2402,1110.4531 327.0215,1110.4531 Q326.8183,1110.4531 326.6933,1110.3438 Q326.5683,1110.2344 326.5058,1109.9219 Q326.4746,1109.7188 326.3808,1109.6094 Q326.1777,1109.375 325.8183,1109.25 Q325.459,1109.125 325.0996,1109.125 Q324.6465,1109.125 324.2715,1109.3281 Q323.8965,1109.5156 323.5996,1109.9531 Q323.3183,1110.3906 323.3183,1111 L323.3183,1111.6406 Q323.3183,1112.3594 323.834,1112.8438 Q324.3652,1113.3281 325.3027,1113.3281 Q325.8652,1113.3281 326.2402,1113.1875 Q326.4746,1113.0938 326.7246,1112.8281 Q326.8808,1112.6719 326.959,1112.625 Q327.0527,1112.5781 327.1621,1112.5781 Q327.3652,1112.5781 327.5215,1112.7344 Q327.6777,1112.8906 327.6777,1113.0938 Q327.6777,1113.2969 327.459,1113.5313 Q327.1621,1113.875 326.6933,1114.0625 Q326.0683,1114.3281 325.3027,1114.3281 Q324.4121,1114.3281 323.709,1113.9688 Q323.1308,1113.6719 322.7246,1113.0469 Q322.3183,1112.4063 322.3183,1111.6563 L322.3183,1110.9844 Q322.3183,1110.2031 322.6777,1109.5313 Q323.0527,1108.8438 323.6933,1108.4844 Q324.334,1108.125 325.0527,1108.125 Q325.4902,1108.125 325.8652,1108.2188 Q326.2558,1108.3125 326.584,1108.5156 Z " fill="#000000"/><text fill="#000000" font-family="sans-serif" font-size="10" font-style="italic" lengthAdjust="spacing" textLength="55.0293" x="371.0698" y="1103.9902">&#171;repository&#187;</text><text fill="#000000" font-family="sans-serif" font-size="10" lengthAdjust="spacing" textLength="101.1572" x="348.0058" y="1126.5684">CompetitionRepository</text><line style="stroke:#181818;stroke-width:0.5;" x1="161.27" x2="608.3989" y1="1138.7656" y2="1138.7656"/><line style="stroke:#181818;stroke-width:0.5;" x1="161.27" x2="608.3989" y1="1146.7656" y2="1146.7656"/><text fill="#000000" font-family="sans-serif" font-size="10" lengthAdjust="spacing" textLength="427.1289" x="171.27" y="1166.1465">+countNearbyCompetitors(lat: number, lng: number, radiusMeters: number, category: string) : int</text></g><!--class BusinessProfileRepository--><g class="entity" data-qualified-name="Persistence.BusinessProfileRepository" data-source-line="63" id="ent0013"><rect fill="#F1F1F1" height="116.3125" rx="2.5" ry="2.5" style="stroke:#181818;stroke-width:0.5;" width="295.1738" x="649.27" y="1072.6094"/><ellipse cx="729.7475" cy="1100.1875" fill="#ADD1B2" rx="9" ry="9" style="stroke:#181818;stroke-width:1;"/><path d="M730.8257,1097.5156 Q730.9038,1097.3906 731.0132,1097.3281 Q731.1382,1097.2656 731.2632,1097.2656 Q731.4819,1097.2656 731.6225,1097.4219 Q731.7632,1097.5781 731.7632,1097.9375 L731.7632,1098.7813 Q731.7632,1099.1406 731.6225,1099.2969 Q731.4819,1099.4531 731.2632,1099.4531 Q731.06,1099.4531 730.935,1099.3438 Q730.81,1099.2344 730.7475,1098.9219 Q730.7163,1098.7188 730.6225,1098.6094 Q730.4194,1098.375 730.06,1098.25 Q729.7007,1098.125 729.3413,1098.125 Q728.8882,1098.125 728.5132,1098.3281 Q728.1382,1098.5156 727.8413,1098.9531 Q727.56,1099.3906 727.56,1100 L727.56,1100.6406 Q727.56,1101.3594 728.0757,1101.8438 Q728.6069,1102.3281 729.5444,1102.3281 Q730.1069,1102.3281 730.4819,1102.1875 Q730.7163,1102.0938 730.9663,1101.8281 Q731.1225,1101.6719 731.2007,1101.625 Q731.2944,1101.5781 731.4038,1101.5781 Q731.6069,1101.5781 731.7632,1101.7344 Q731.9194,1101.8906 731.9194,1102.0938 Q731.9194,1102.2969 731.7007,1102.5313 Q731.4038,1102.875 730.935,1103.0625 Q730.31,1103.3281 729.5444,1103.3281 Q728.6538,1103.3281 727.9507,1102.9688 Q727.3725,1102.6719 726.9663,1102.0469 Q726.56,1101.4063 726.56,1100.6563 L726.56,1099.9844 Q726.56,1099.2031 726.9194,1098.5313 Q727.2944,1097.8438 727.935,1097.4844 Q728.5757,1097.125 729.2944,1097.125 Q729.7319,1097.125 730.1069,1097.2188 Q730.4975,1097.3125 730.8257,1097.5156 Z " fill="#000000"/><text fill="#000000" font-family="sans-serif" font-size="10" font-style="italic" lengthAdjust="spacing" textLength="55.0293" x="783.0923" y="1092.9902">&#171;repository&#187;</text><text fill="#000000" font-family="sans-serif" font-size="10" lengthAdjust="spacing" textLength="116.7188" x="752.2475" y="1115.5684">BusinessProfileRepository</text><line style="stroke:#181818;stroke-width:0.5;" x1="650.27" x2="943.4438" y1="1127.7656" y2="1127.7656"/><line style="stroke:#181818;stroke-width:0.5;" x1="650.27" x2="943.4438" y1="1135.7656" y2="1135.7656"/><text fill="#000000" font-family="sans-serif" font-size="10" lengthAdjust="spacing" textLength="253.1787" x="660.27" y="1155.1465">+getBusinessProfile(profileId: number) : BusinessProfile?</text><text fill="#000000" font-family="sans-serif" font-size="10" lengthAdjust="spacing" textLength="273.1738" x="660.27" y="1177.7246">+resolveCompetitionCategory(profile: BusinessProfile) : string</text></g><!--class SiteScoreRequest--><g class="entity" data-qualified-name="Entity.SiteScoreRequest" data-source-line="70" id="ent0015"><rect fill="#F1F1F1" height="161.4688" rx="2.5" ry="2.5" style="stroke:#181818;stroke-width:0.5;" width="127.8789" x="1469.77" y="1358.6094"/><ellipse cx="1486.9452" cy="1386.1875" fill="#ADD1B2" rx="9" ry="9" style="stroke:#181818;stroke-width:1;"/><path d="M1488.0234,1383.5156 Q1488.1015,1383.3906 1488.2109,1383.3281 Q1488.3359,1383.2656 1488.4609,1383.2656 Q1488.6796,1383.2656 1488.8202,1383.4219 Q1488.9609,1383.5781 1488.9609,1383.9375 L1488.9609,1384.7813 Q1488.9609,1385.1406 1488.8202,1385.2969 Q1488.6796,1385.4531 1488.4609,1385.4531 Q1488.2577,1385.4531 1488.1327,1385.3438 Q1488.0077,1385.2344 1487.9452,1384.9219 Q1487.914,1384.7188 1487.8202,1384.6094 Q1487.6171,1384.375 1487.2577,1384.25 Q1486.8984,1384.125 1486.539,1384.125 Q1486.0859,1384.125 1485.7109,1384.3281 Q1485.3359,1384.5156 1485.039,1384.9531 Q1484.7577,1385.3906 1484.7577,1386 L1484.7577,1386.6406 Q1484.7577,1387.3594 1485.2734,1387.8438 Q1485.8046,1388.3281 1486.7421,1388.3281 Q1487.3046,1388.3281 1487.6796,1388.1875 Q1487.914,1388.0938 1488.164,1387.8281 Q1488.3202,1387.6719 1488.3984,1387.625 Q1488.4921,1387.5781 1488.6015,1387.5781 Q1488.8046,1387.5781 1488.9609,1387.7344 Q1489.1171,1387.8906 1489.1171,1388.0938 Q1489.1171,1388.2969 1488.8984,1388.5313 Q1488.6015,1388.875 1488.1327,1389.0625 Q1487.5077,1389.3281 1486.7421,1389.3281 Q1485.8515,1389.3281 1485.1484,1388.9688 Q1484.5702,1388.6719 1484.164,1388.0469 Q1483.7577,1387.4063 1483.7577,1386.6563 L1483.7577,1385.9844 Q1483.7577,1385.2031 1484.1171,1384.5313 Q1484.4921,1383.8438 1485.1327,1383.4844 Q1485.7734,1383.125 1486.4921,1383.125 Q1486.9296,1383.125 1487.3046,1383.2188 Q1487.6952,1383.3125 1488.0234,1383.5156 Z " fill="#000000"/><text fill="#000000" font-family="sans-serif" font-size="10" font-style="italic" lengthAdjust="spacing" textLength="35.0244" x="1527.6612" y="1378.9902">&#171;entity&#187;</text><text fill="#000000" font-family="sans-serif" font-size="10" lengthAdjust="spacing" textLength="80.6006" x="1504.8731" y="1401.5684">SiteScoreRequest</text><line style="stroke:#181818;stroke-width:0.5;" x1="1470.77" x2="1596.6489" y1="1413.7656" y2="1413.7656"/><text fill="#000000" font-family="sans-serif" font-size="10" lengthAdjust="spacing" textLength="58.6426" x="1480.77" y="1433.1465">+lat : number</text><text fill="#000000" font-family="sans-serif" font-size="10" lengthAdjust="spacing" textLength="61.4258" x="1480.77" y="1455.7246">+lng : number</text><text fill="#000000" font-family="sans-serif" font-size="10" lengthAdjust="spacing" textLength="89.2188" x="1480.77" y="1478.3027">+profileId : number?</text><text fill="#000000" font-family="sans-serif" font-size="10" lengthAdjust="spacing" textLength="105.8789" x="1480.77" y="1500.8809">+radiusMeters : number</text><line style="stroke:#181818;stroke-width:0.5;" x1="1470.77" x2="1596.6489" y1="1512.0781" y2="1512.0781"/></g><!--class SiteScoreResult--><g class="entity" data-qualified-name="Entity.SiteScoreResult" data-source-line="77" id="ent0016"><rect fill="#F1F1F1" height="206.625" rx="2.5" ry="2.5" style="stroke:#181818;stroke-width:0.5;" width="196.2578" x="1847.77" y="1335.6094"/><ellipse cx="1901.2993" cy="1363.1875" fill="#ADD1B2" rx="9" ry="9" style="stroke:#181818;stroke-width:1;"/><path d="M1902.3774,1360.5156 Q1902.4555,1360.3906 1902.5649,1360.3281 Q1902.6899,1360.2656 1902.8149,1360.2656 Q1903.0337,1360.2656 1903.1743,1360.4219 Q1903.3149,1360.5781 1903.3149,1360.9375 L1903.3149,1361.7813 Q1903.3149,1362.1406 1903.1743,1362.2969 Q1903.0337,1362.4531 1902.8149,1362.4531 Q1902.6118,1362.4531 1902.4868,1362.3438 Q1902.3618,1362.2344 1902.2993,1361.9219 Q1902.268,1361.7188 1902.1743,1361.6094 Q1901.9712,1361.375 1901.6118,1361.25 Q1901.2524,1361.125 1900.893,1361.125 Q1900.4399,1361.125 1900.0649,1361.3281 Q1899.6899,1361.5156 1899.393,1361.9531 Q1899.1118,1362.3906 1899.1118,1363 L1899.1118,1363.6406 Q1899.1118,1364.3594 1899.6274,1364.8438 Q1900.1587,1365.3281 1901.0962,1365.3281 Q1901.6587,1365.3281 1902.0337,1365.1875 Q1902.268,1365.0938 1902.518,1364.8281 Q1902.6743,1364.6719 1902.7524,1364.625 Q1902.8462,1364.5781 1902.9555,1364.5781 Q1903.1587,1364.5781 1903.3149,1364.7344 Q1903.4712,1364.8906 1903.4712,1365.0938 Q1903.4712,1365.2969 1903.2524,1365.5313 Q1902.9555,1365.875 1902.4868,1366.0625 Q1901.8618,1366.3281 1901.0962,1366.3281 Q1900.2055,1366.3281 1899.5024,1365.9688 Q1898.9243,1365.6719 1898.518,1365.0469 Q1898.1118,1364.4063 1898.1118,1363.6563 L1898.1118,1362.9844 Q1898.1118,1362.2031 1898.4712,1361.5313 Q1898.8462,1360.8438 1899.4868,1360.4844 Q1900.1274,1360.125 1900.8462,1360.125 Q1901.2837,1360.125 1901.6587,1360.2188 Q1902.0493,1360.3125 1902.3774,1360.5156 Z " fill="#000000"/><text fill="#000000" font-family="sans-serif" font-size="10" font-style="italic" lengthAdjust="spacing" textLength="35.0244" x="1942.1367" y="1355.9902">&#171;entity&#187;</text><text fill="#000000" font-family="sans-serif" font-size="10" lengthAdjust="spacing" textLength="71.6992" x="1923.7993" y="1378.5684">SiteScoreResult</text><line style="stroke:#181818;stroke-width:0.5;" x1="1848.77" x2="2043.0278" y1="1390.7656" y2="1390.7656"/><text fill="#000000" font-family="sans-serif" font-size="10" lengthAdjust="spacing" textLength="58.6426" x="1858.77" y="1410.1465">+lat : number</text><text fill="#000000" font-family="sans-serif" font-size="10" lengthAdjust="spacing" textLength="61.4258" x="1858.77" y="1432.7246">+lng : number</text><text fill="#000000" font-family="sans-serif" font-size="10" lengthAdjust="spacing" textLength="138.7158" x="1858.77" y="1455.3027">+planningArea : PlanningArea?</text><text fill="#000000" font-family="sans-serif" font-size="10" lengthAdjust="spacing" textLength="121.9922" x="1858.77" y="1477.8809">+scores : DimensionScores</text><text fill="#000000" font-family="sans-serif" font-size="10" lengthAdjust="spacing" textLength="174.2578" x="1858.77" y="1500.459">+breakdownDetails : BreakdownDetails</text><text fill="#000000" font-family="sans-serif" font-size="10" lengthAdjust="spacing" textLength="104.7754" x="1858.77" y="1523.0371">+dataFreshness : string</text><line style="stroke:#181818;stroke-width:0.5;" x1="1848.77" x2="2043.0278" y1="1534.2344" y2="1534.2344"/></g><!--class DimensionScores--><g class="entity" data-qualified-name="Entity.DimensionScores" data-source-line="86" id="ent0017"><rect fill="#F1F1F1" height="184.0469" rx="2.5" ry="2.5" style="stroke:#181818;stroke-width:0.5;" width="127.8936" x="1685.77" y="1603.6094"/><ellipse cx="1703.9582" cy="1631.1875" fill="#ADD1B2" rx="9" ry="9" style="stroke:#181818;stroke-width:1;"/><path d="M1705.0363,1628.5156 Q1705.1144,1628.3906 1705.2238,1628.3281 Q1705.3488,1628.2656 1705.4738,1628.2656 Q1705.6926,1628.2656 1705.8332,1628.4219 Q1705.9738,1628.5781 1705.9738,1628.9375 L1705.9738,1629.7813 Q1705.9738,1630.1406 1705.8332,1630.2969 Q1705.6926,1630.4531 1705.4738,1630.4531 Q1705.2707,1630.4531 1705.1457,1630.3438 Q1705.0207,1630.2344 1704.9582,1629.9219 Q1704.9269,1629.7188 1704.8332,1629.6094 Q1704.6301,1629.375 1704.2707,1629.25 Q1703.9113,1629.125 1703.5519,1629.125 Q1703.0988,1629.125 1702.7238,1629.3281 Q1702.3488,1629.5156 1702.0519,1629.9531 Q1701.7707,1630.3906 1701.7707,1631 L1701.7707,1631.6406 Q1701.7707,1632.3594 1702.2863,1632.8438 Q1702.8176,1633.3281 1703.7551,1633.3281 Q1704.3176,1633.3281 1704.6926,1633.1875 Q1704.9269,1633.0938 1705.1769,1632.8281 Q1705.3332,1632.6719 1705.4113,1632.625 Q1705.5051,1632.5781 1705.6144,1632.5781 Q1705.8176,1632.5781 1705.9738,1632.7344 Q1706.1301,1632.8906 1706.1301,1633.0938 Q1706.1301,1633.2969 1705.9113,1633.5313 Q1705.6144,1633.875 1705.1457,1634.0625 Q1704.5207,1634.3281 1703.7551,1634.3281 Q1702.8644,1634.3281 1702.1613,1633.9688 Q1701.5832,1633.6719 1701.1769,1633.0469 Q1700.7707,1632.4063 1700.7707,1631.6563 L1700.7707,1630.9844 Q1700.7707,1630.2031 1701.1301,1629.5313 Q1701.5051,1628.8438 1702.1457,1628.4844 Q1702.7863,1628.125 1703.5051,1628.125 Q1703.9426,1628.125 1704.3176,1628.2188 Q1704.7082,1628.3125 1705.0363,1628.5156 Z " fill="#000000"/><text fill="#000000" font-family="sans-serif" font-size="10" font-style="italic" lengthAdjust="spacing" textLength="35.0244" x="1743.781" y="1623.9902">&#171;entity&#187;</text><text fill="#000000" font-family="sans-serif" font-size="10" lengthAdjust="spacing" textLength="78.3643" x="1722.1111" y="1646.5684">DimensionScores</text><line style="stroke:#181818;stroke-width:0.5;" x1="1686.77" x2="1812.6636" y1="1658.7656" y2="1658.7656"/><text fill="#000000" font-family="sans-serif" font-size="10" lengthAdjust="spacing" textLength="93.6572" x="1696.77" y="1678.1465">+composite : number</text><text fill="#000000" font-family="sans-serif" font-size="10" lengthAdjust="spacing" textLength="105.8936" x="1696.77" y="1700.7246">+demographic : number</text><text fill="#000000" font-family="sans-serif" font-size="10" lengthAdjust="spacing" textLength="101.4307" x="1696.77" y="1723.3027">+accessibility : number</text><text fill="#000000" font-family="sans-serif" font-size="10" lengthAdjust="spacing" textLength="73.0957" x="1696.77" y="1745.8809">+rental : number</text><text fill="#000000" font-family="sans-serif" font-size="10" lengthAdjust="spacing" textLength="99.2188" x="1696.77" y="1768.459">+competition : number</text><line style="stroke:#181818;stroke-width:0.5;" x1="1686.77" x2="1812.6636" y1="1779.6563" y2="1779.6563"/></g><!--class BreakdownDetails--><g class="entity" data-qualified-name="Entity.BreakdownDetails" data-source-line="94" id="ent0018"><rect fill="#F1F1F1" height="161.4688" rx="2.5" ry="2.5" style="stroke:#181818;stroke-width:0.5;" width="183.4697" x="1854.27" y="1615.1094"/><ellipse cx="1896.957" cy="1642.6875" fill="#ADD1B2" rx="9" ry="9" style="stroke:#181818;stroke-width:1;"/><path d="M1898.0351,1640.0156 Q1898.1133,1639.8906 1898.2226,1639.8281 Q1898.3476,1639.7656 1898.4726,1639.7656 Q1898.6914,1639.7656 1898.832,1639.9219 Q1898.9726,1640.0781 1898.9726,1640.4375 L1898.9726,1641.2813 Q1898.9726,1641.6406 1898.832,1641.7969 Q1898.6914,1641.9531 1898.4726,1641.9531 Q1898.2695,1641.9531 1898.1445,1641.8438 Q1898.0195,1641.7344 1897.957,1641.4219 Q1897.9258,1641.2188 1897.832,1641.1094 Q1897.6289,1640.875 1897.2695,1640.75 Q1896.9101,1640.625 1896.5508,1640.625 Q1896.0976,1640.625 1895.7226,1640.8281 Q1895.3476,1641.0156 1895.0508,1641.4531 Q1894.7695,1641.8906 1894.7695,1642.5 L1894.7695,1643.1406 Q1894.7695,1643.8594 1895.2851,1644.3438 Q1895.8164,1644.8281 1896.7539,1644.8281 Q1897.3164,1644.8281 1897.6914,1644.6875 Q1897.9258,1644.5938 1898.1758,1644.3281 Q1898.332,1644.1719 1898.4101,1644.125 Q1898.5039,1644.0781 1898.6133,1644.0781 Q1898.8164,1644.0781 1898.9726,1644.2344 Q1899.1289,1644.3906 1899.1289,1644.5938 Q1899.1289,1644.7969 1898.9101,1645.0313 Q1898.6133,1645.375 1898.1445,1645.5625 Q1897.5195,1645.8281 1896.7539,1645.8281 Q1895.8633,1645.8281 1895.1601,1645.4688 Q1894.582,1645.1719 1894.1758,1644.5469 Q1893.7695,1643.9063 1893.7695,1643.1563 L1893.7695,1642.4844 Q1893.7695,1641.7031 1894.1289,1641.0313 Q1894.5039,1640.3438 1895.1445,1639.9844 Q1895.7851,1639.625 1896.5039,1639.625 Q1896.9414,1639.625 1897.3164,1639.7188 Q1897.707,1639.8125 1898.0351,1640.0156 Z " fill="#000000"/><text fill="#000000" font-family="sans-serif" font-size="10" font-style="italic" lengthAdjust="spacing" textLength="35.0244" x="1942.2427" y="1635.4902">&#171;entity&#187;</text><text fill="#000000" font-family="sans-serif" font-size="10" lengthAdjust="spacing" textLength="80.5957" x="1919.457" y="1658.0684">BreakdownDetails</text><line style="stroke:#181818;stroke-width:0.5;" x1="1855.27" x2="2036.7397" y1="1670.2656" y2="1670.2656"/><text fill="#000000" font-family="sans-serif" font-size="10" lengthAdjust="spacing" textLength="122.5537" x="1865.27" y="1689.6465">+analysisRadiusMeters : int</text><text fill="#000000" font-family="sans-serif" font-size="10" lengthAdjust="spacing" textLength="125.3418" x="1865.27" y="1712.2246">+busStopsWithinRadius : int</text><text fill="#000000" font-family="sans-serif" font-size="10" lengthAdjust="spacing" textLength="119.7559" x="1865.27" y="1734.8027">+mrtExitsWithinRadius : int</text><text fill="#000000" font-family="sans-serif" font-size="10" lengthAdjust="spacing" textLength="161.4697" x="1865.27" y="1757.3809">+competitionCountWithinRadius : int</text><line style="stroke:#181818;stroke-width:0.5;" x1="1855.27" x2="2036.7397" y1="1768.5781" y2="1768.5781"/></g><!--class PlanningArea--><g class="entity" data-qualified-name="Entity.PlanningArea" data-source-line="101" id="ent0019"><rect fill="#F1F1F1" height="161.4688" rx="2.5" ry="2.5" style="stroke:#181818;stroke-width:0.5;" width="146.2383" x="2077.77" y="1615.1094"/><ellipse cx="2112.4575" cy="1642.6875" fill="#ADD1B2" rx="9" ry="9" style="stroke:#181818;stroke-width:1;"/><path d="M2113.5356,1640.0156 Q2113.6137,1639.8906 2113.7231,1639.8281 Q2113.8481,1639.7656 2113.9731,1639.7656 Q2114.1918,1639.7656 2114.3325,1639.9219 Q2114.4731,1640.0781 2114.4731,1640.4375 L2114.4731,1641.2813 Q2114.4731,1641.6406 2114.3325,1641.7969 Q2114.1918,1641.9531 2113.9731,1641.9531 Q2113.77,1641.9531 2113.645,1641.8438 Q2113.52,1641.7344 2113.4575,1641.4219 Q2113.4262,1641.2188 2113.3325,1641.1094 Q2113.1293,1640.875 2112.77,1640.75 Q2112.4106,1640.625 2112.0512,1640.625 Q2111.5981,1640.625 2111.2231,1640.8281 Q2110.8481,1641.0156 2110.5512,1641.4531 Q2110.27,1641.8906 2110.27,1642.5 L2110.27,1643.1406 Q2110.27,1643.8594 2110.7856,1644.3438 Q2111.3168,1644.8281 2112.2543,1644.8281 Q2112.8168,1644.8281 2113.1918,1644.6875 Q2113.4262,1644.5938 2113.6762,1644.3281 Q2113.8325,1644.1719 2113.9106,1644.125 Q2114.0043,1644.0781 2114.1137,1644.0781 Q2114.3168,1644.0781 2114.4731,1644.2344 Q2114.6293,1644.3906 2114.6293,1644.5938 Q2114.6293,1644.7969 2114.4106,1645.0313 Q2114.1137,1645.375 2113.645,1645.5625 Q2113.02,1645.8281 2112.2543,1645.8281 Q2111.3637,1645.8281 2110.6606,1645.4688 Q2110.0825,1645.1719 2109.6762,1644.5469 Q2109.27,1643.9063 2109.27,1643.1563 L2109.27,1642.4844 Q2109.27,1641.7031 2109.6293,1641.0313 Q2110.0043,1640.3438 2110.645,1639.9844 Q2111.2856,1639.625 2112.0043,1639.625 Q2112.4418,1639.625 2112.8168,1639.7188 Q2113.2075,1639.8125 2113.5356,1640.0156 Z " fill="#000000"/><text fill="#000000" font-family="sans-serif" font-size="10" font-style="italic" lengthAdjust="spacing" textLength="35.0244" x="2146.7867" y="1635.4902">&#171;entity&#187;</text><text fill="#000000" font-family="sans-serif" font-size="10" lengthAdjust="spacing" textLength="60.0439" x="2134.2769" y="1658.0684">PlanningArea</text><line style="stroke:#181818;stroke-width:0.5;" x1="2078.77" x2="2223.0083" y1="1670.2656" y2="1670.2656"/><text fill="#000000" font-family="sans-serif" font-size="10" lengthAdjust="spacing" textLength="105.9033" x="2088.77" y="1689.6465">+planningAreaId : string</text><text fill="#000000" font-family="sans-serif" font-size="10" lengthAdjust="spacing" textLength="124.2383" x="2088.77" y="1712.2246">+planningAreaName : string</text><text fill="#000000" font-family="sans-serif" font-size="10" lengthAdjust="spacing" textLength="82.5488" x="2088.77" y="1734.8027">+areaCode : string</text><text fill="#000000" font-family="sans-serif" font-size="10" lengthAdjust="spacing" textLength="93.1006" x="2088.77" y="1757.3809">+regionName : string</text><line style="stroke:#181818;stroke-width:0.5;" x1="2078.77" x2="2223.0083" y1="1768.5781" y2="1768.5781"/></g><!--class PlanningAreaMetrics--><g class="entity" data-qualified-name="Entity.PlanningAreaMetrics" data-source-line="108" id="ent0020"><rect fill="#F1F1F1" height="138.8906" rx="2.5" ry="2.5" style="stroke:#181818;stroke-width:0.5;" width="154.0166" x="2247.77" y="1369.6094"/><ellipse cx="2271.4579" cy="1397.1875" fill="#ADD1B2" rx="9" ry="9" style="stroke:#181818;stroke-width:1;"/><path d="M2272.5361,1394.5156 Q2272.6142,1394.3906 2272.7236,1394.3281 Q2272.8486,1394.2656 2272.9736,1394.2656 Q2273.1923,1394.2656 2273.3329,1394.4219 Q2273.4736,1394.5781 2273.4736,1394.9375 L2273.4736,1395.7813 Q2273.4736,1396.1406 2273.3329,1396.2969 Q2273.1923,1396.4531 2272.9736,1396.4531 Q2272.7704,1396.4531 2272.6454,1396.3438 Q2272.5204,1396.2344 2272.4579,1395.9219 Q2272.4267,1395.7188 2272.3329,1395.6094 Q2272.1298,1395.375 2271.7704,1395.25 Q2271.4111,1395.125 2271.0517,1395.125 Q2270.5986,1395.125 2270.2236,1395.3281 Q2269.8486,1395.5156 2269.5517,1395.9531 Q2269.2704,1396.3906 2269.2704,1397 L2269.2704,1397.6406 Q2269.2704,1398.3594 2269.7861,1398.8438 Q2270.3173,1399.3281 2271.2548,1399.3281 Q2271.8173,1399.3281 2272.1923,1399.1875 Q2272.4267,1399.0938 2272.6767,1398.8281 Q2272.8329,1398.6719 2272.9111,1398.625 Q2273.0048,1398.5781 2273.1142,1398.5781 Q2273.3173,1398.5781 2273.4736,1398.7344 Q2273.6298,1398.8906 2273.6298,1399.0938 Q2273.6298,1399.2969 2273.4111,1399.5313 Q2273.1142,1399.875 2272.6454,1400.0625 Q2272.0204,1400.3281 2271.2548,1400.3281 Q2270.3642,1400.3281 2269.6611,1399.9688 Q2269.0829,1399.6719 2268.6767,1399.0469 Q2268.2704,1398.4063 2268.2704,1397.6563 L2268.2704,1396.9844 Q2268.2704,1396.2031 2268.6298,1395.5313 Q2269.0048,1394.8438 2269.6454,1394.4844 Q2270.2861,1394.125 2271.0048,1394.125 Q2271.4423,1394.125 2271.8173,1394.2188 Q2272.2079,1394.3125 2272.5361,1394.5156 Z " fill="#000000"/><text fill="#000000" font-family="sans-serif" font-size="10" font-style="italic" lengthAdjust="spacing" textLength="35.0244" x="2319.4536" y="1389.9902">&#171;entity&#187;</text><text fill="#000000" font-family="sans-serif" font-size="10" lengthAdjust="spacing" textLength="92.2656" x="2290.833" y="1412.5684">PlanningAreaMetrics</text><line style="stroke:#181818;stroke-width:0.5;" x1="2248.77" x2="2400.7866" y1="1424.7656" y2="1424.7656"/><text fill="#000000" font-family="sans-serif" font-size="10" lengthAdjust="spacing" textLength="132.0166" x="2258.77" y="1444.1465">+demographicScore : number</text><text fill="#000000" font-family="sans-serif" font-size="10" lengthAdjust="spacing" textLength="110.8887" x="2258.77" y="1466.7246">+vacancyScore : number</text><text fill="#000000" font-family="sans-serif" font-size="10" lengthAdjust="spacing" textLength="125.9033" x="2258.77" y="1489.3027">+rentalMedianPsf : number?</text><line style="stroke:#181818;stroke-width:0.5;" x1="2248.77" x2="2400.7866" y1="1500.5" y2="1500.5"/></g><!--class TransportMetrics--><g class="entity" data-qualified-name="Entity.TransportMetrics" data-source-line="114" id="ent0021"><rect fill="#F1F1F1" height="116.3125" rx="2.5" ry="2.5" style="stroke:#181818;stroke-width:0.5;" width="113.0146" x="2442.27" y="1381.1094"/><ellipse cx="2455.27" cy="1408.6875" fill="#ADD1B2" rx="9" ry="9" style="stroke:#181818;stroke-width:1;"/><path d="M2456.3481,1406.0156 Q2456.4263,1405.8906 2456.5356,1405.8281 Q2456.6606,1405.7656 2456.7856,1405.7656 Q2457.0044,1405.7656 2457.145,1405.9219 Q2457.2856,1406.0781 2457.2856,1406.4375 L2457.2856,1407.2813 Q2457.2856,1407.6406 2457.145,1407.7969 Q2457.0044,1407.9531 2456.7856,1407.9531 Q2456.5825,1407.9531 2456.4575,1407.8438 Q2456.3325,1407.7344 2456.27,1407.4219 Q2456.2388,1407.2188 2456.145,1407.1094 Q2455.9419,1406.875 2455.5825,1406.75 Q2455.2231,1406.625 2454.8638,1406.625 Q2454.4106,1406.625 2454.0356,1406.8281 Q2453.6606,1407.0156 2453.3638,1407.4531 Q2453.0825,1407.8906 2453.0825,1408.5 L2453.0825,1409.1406 Q2453.0825,1409.8594 2453.5981,1410.3438 Q2454.1294,1410.8281 2455.0669,1410.8281 Q2455.6294,1410.8281 2456.0044,1410.6875 Q2456.2388,1410.5938 2456.4888,1410.3281 Q2456.645,1410.1719 2456.7231,1410.125 Q2456.8169,1410.0781 2456.9263,1410.0781 Q2457.1294,1410.0781 2457.2856,1410.2344 Q2457.4419,1410.3906 2457.4419,1410.5938 Q2457.4419,1410.7969 2457.2231,1411.0313 Q2456.9263,1411.375 2456.4575,1411.5625 Q2455.8325,1411.8281 2455.0669,1411.8281 Q2454.1763,1411.8281 2453.4731,1411.4688 Q2452.895,1411.1719 2452.4888,1410.5469 Q2452.0825,1409.9063 2452.0825,1409.1563 L2452.0825,1408.4844 Q2452.0825,1407.7031 2452.4419,1407.0313 Q2452.8169,1406.3438 2453.4575,1405.9844 Q2454.0981,1405.625 2454.8169,1405.625 Q2455.2544,1405.625 2455.6294,1405.7188 Q2456.02,1405.8125 2456.3481,1406.0156 Z " fill="#000000"/><text fill="#000000" font-family="sans-serif" font-size="10" font-style="italic" lengthAdjust="spacing" textLength="35.0244" x="2492.2651" y="1401.4902">&#171;entity&#187;</text><text fill="#000000" font-family="sans-serif" font-size="10" lengthAdjust="spacing" textLength="75.0146" x="2472.27" y="1424.0684">TransportMetrics</text><line style="stroke:#181818;stroke-width:0.5;" x1="2443.27" x2="2554.2846" y1="1436.2656" y2="1436.2656"/><text fill="#000000" font-family="sans-serif" font-size="10" lengthAdjust="spacing" textLength="88.1152" x="2453.27" y="1455.6465">+busStopCount : int</text><text fill="#000000" font-family="sans-serif" font-size="10" lengthAdjust="spacing" textLength="82.5293" x="2453.27" y="1478.2246">+mrtExitCount : int</text><line style="stroke:#181818;stroke-width:0.5;" x1="2443.27" x2="2554.2846" y1="1489.4219" y2="1489.4219"/></g><!--class CompetitionMetrics--><g class="entity" data-qualified-name="Entity.CompetitionMetrics" data-source-line="119" id="ent0022"><rect fill="#F1F1F1" height="116.3125" rx="2.5" ry="2.5" style="stroke:#181818;stroke-width:0.5;" width="123.5811" x="2083.77" y="1381.1094"/><ellipse cx="2096.77" cy="1408.6875" fill="#ADD1B2" rx="9" ry="9" style="stroke:#181818;stroke-width:1;"/><path d="M2097.8481,1406.0156 Q2097.9263,1405.8906 2098.0356,1405.8281 Q2098.1606,1405.7656 2098.2856,1405.7656 Q2098.5044,1405.7656 2098.645,1405.9219 Q2098.7856,1406.0781 2098.7856,1406.4375 L2098.7856,1407.2813 Q2098.7856,1407.6406 2098.645,1407.7969 Q2098.5044,1407.9531 2098.2856,1407.9531 Q2098.0825,1407.9531 2097.9575,1407.8438 Q2097.8325,1407.7344 2097.77,1407.4219 Q2097.7388,1407.2188 2097.645,1407.1094 Q2097.4419,1406.875 2097.0825,1406.75 Q2096.7231,1406.625 2096.3638,1406.625 Q2095.9106,1406.625 2095.5356,1406.8281 Q2095.1606,1407.0156 2094.8638,1407.4531 Q2094.5825,1407.8906 2094.5825,1408.5 L2094.5825,1409.1406 Q2094.5825,1409.8594 2095.0981,1410.3438 Q2095.6294,1410.8281 2096.5669,1410.8281 Q2097.1294,1410.8281 2097.5044,1410.6875 Q2097.7388,1410.5938 2097.9888,1410.3281 Q2098.145,1410.1719 2098.2231,1410.125 Q2098.3169,1410.0781 2098.4263,1410.0781 Q2098.6294,1410.0781 2098.7856,1410.2344 Q2098.9419,1410.3906 2098.9419,1410.5938 Q2098.9419,1410.7969 2098.7231,1411.0313 Q2098.4263,1411.375 2097.9575,1411.5625 Q2097.3325,1411.8281 2096.5669,1411.8281 Q2095.6763,1411.8281 2094.9731,1411.4688 Q2094.395,1411.1719 2093.9888,1410.5469 Q2093.5825,1409.9063 2093.5825,1409.1563 L2093.5825,1408.4844 Q2093.5825,1407.7031 2093.9419,1407.0313 Q2094.3169,1406.3438 2094.9575,1405.9844 Q2095.5981,1405.625 2096.3169,1405.625 Q2096.7544,1405.625 2097.1294,1405.7188 Q2097.52,1405.8125 2097.8481,1406.0156 Z " fill="#000000"/><text fill="#000000" font-family="sans-serif" font-size="10" font-style="italic" lengthAdjust="spacing" textLength="35.0244" x="2139.0483" y="1401.4902">&#171;entity&#187;</text><text fill="#000000" font-family="sans-serif" font-size="10" lengthAdjust="spacing" textLength="85.5811" x="2113.77" y="1424.0684">CompetitionMetrics</text><line style="stroke:#181818;stroke-width:0.5;" x1="2084.77" x2="2206.3511" y1="1436.2656" y2="1436.2656"/><text fill="#000000" font-family="sans-serif" font-size="10" lengthAdjust="spacing" textLength="76.9824" x="2094.77" y="1455.6465">+category : string</text><text fill="#000000" font-family="sans-serif" font-size="10" lengthAdjust="spacing" textLength="81.9971" x="2094.77" y="1478.2246">+nearbyCount : int</text><line style="stroke:#181818;stroke-width:0.5;" x1="2084.77" x2="2206.3511" y1="1489.4219" y2="1489.4219"/></g><!--class BusinessProfile--><g class="entity" data-qualified-name="Entity.BusinessProfile" data-source-line="124" id="ent0023"><rect fill="#F1F1F1" height="161.4688" rx="2.5" ry="2.5" style="stroke:#181818;stroke-width:0.5;" width="170.1348" x="1637.77" y="1358.6094"/><ellipse cx="1679.6269" cy="1386.1875" fill="#ADD1B2" rx="9" ry="9" style="stroke:#181818;stroke-width:1;"/><path d="M1680.7051,1383.5156 Q1680.7832,1383.3906 1680.8926,1383.3281 Q1681.0176,1383.2656 1681.1426,1383.2656 Q1681.3613,1383.2656 1681.5019,1383.4219 Q1681.6426,1383.5781 1681.6426,1383.9375 L1681.6426,1384.7813 Q1681.6426,1385.1406 1681.5019,1385.2969 Q1681.3613,1385.4531 1681.1426,1385.4531 Q1680.9394,1385.4531 1680.8144,1385.3438 Q1680.6894,1385.2344 1680.6269,1384.9219 Q1680.5957,1384.7188 1680.5019,1384.6094 Q1680.2988,1384.375 1679.9394,1384.25 Q1679.5801,1384.125 1679.2207,1384.125 Q1678.7676,1384.125 1678.3926,1384.3281 Q1678.0176,1384.5156 1677.7207,1384.9531 Q1677.4394,1385.3906 1677.4394,1386 L1677.4394,1386.6406 Q1677.4394,1387.3594 1677.9551,1387.8438 Q1678.4863,1388.3281 1679.4238,1388.3281 Q1679.9863,1388.3281 1680.3613,1388.1875 Q1680.5957,1388.0938 1680.8457,1387.8281 Q1681.0019,1387.6719 1681.0801,1387.625 Q1681.1738,1387.5781 1681.2832,1387.5781 Q1681.4863,1387.5781 1681.6426,1387.7344 Q1681.7988,1387.8906 1681.7988,1388.0938 Q1681.7988,1388.2969 1681.5801,1388.5313 Q1681.2832,1388.875 1680.8144,1389.0625 Q1680.1894,1389.3281 1679.4238,1389.3281 Q1678.5332,1389.3281 1677.8301,1388.9688 Q1677.2519,1388.6719 1676.8457,1388.0469 Q1676.4394,1387.4063 1676.4394,1386.6563 L1676.4394,1385.9844 Q1676.4394,1385.2031 1676.7988,1384.5313 Q1677.1738,1383.8438 1677.8144,1383.4844 Q1678.4551,1383.125 1679.1738,1383.125 Q1679.6113,1383.125 1679.9863,1383.2188 Q1680.3769,1383.3125 1680.7051,1383.5156 Z " fill="#000000"/><text fill="#000000" font-family="sans-serif" font-size="10" font-style="italic" lengthAdjust="spacing" textLength="35.0244" x="1719.0752" y="1378.9902">&#171;entity&#187;</text><text fill="#000000" font-family="sans-serif" font-size="10" lengthAdjust="spacing" textLength="68.9209" x="1702.1269" y="1401.5684">BusinessProfile</text><line style="stroke:#181818;stroke-width:0.5;" x1="1638.77" x2="1806.9048" y1="1413.7656" y2="1413.7656"/><text fill="#000000" font-family="sans-serif" font-size="10" lengthAdjust="spacing" textLength="83.6572" x="1648.77" y="1433.1465">+profileId : number</text><text fill="#000000" font-family="sans-serif" font-size="10" lengthAdjust="spacing" textLength="89.7656" x="1648.77" y="1455.7246">+sectorCode : string</text><text fill="#000000" font-family="sans-serif" font-size="10" lengthAdjust="spacing" textLength="107.5635" x="1648.77" y="1478.3027">+operatingModel : string</text><text fill="#000000" font-family="sans-serif" font-size="10" lengthAdjust="spacing" textLength="148.1348" x="1648.77" y="1500.8809">+activeWeightConfigId : number?</text><line style="stroke:#181818;stroke-width:0.5;" x1="1638.77" x2="1806.9048" y1="1512.0781" y2="1512.0781"/></g><!--class ValidationResult--><g class="entity" data-qualified-name="Entity.ValidationResult" data-source-line="131" id="ent0024"><rect fill="#F1F1F1" height="116.3125" rx="2.5" ry="2.5" style="stroke:#181818;stroke-width:0.5;" width="110.2656" x="2595.77" y="1381.1094"/><ellipse cx="2608.77" cy="1408.6875" fill="#ADD1B2" rx="9" ry="9" style="stroke:#181818;stroke-width:1;"/><path d="M2609.8481,1406.0156 Q2609.9263,1405.8906 2610.0356,1405.8281 Q2610.1606,1405.7656 2610.2856,1405.7656 Q2610.5044,1405.7656 2610.645,1405.9219 Q2610.7856,1406.0781 2610.7856,1406.4375 L2610.7856,1407.2813 Q2610.7856,1407.6406 2610.645,1407.7969 Q2610.5044,1407.9531 2610.2856,1407.9531 Q2610.0825,1407.9531 2609.9575,1407.8438 Q2609.8325,1407.7344 2609.77,1407.4219 Q2609.7388,1407.2188 2609.645,1407.1094 Q2609.4419,1406.875 2609.0825,1406.75 Q2608.7231,1406.625 2608.3638,1406.625 Q2607.9106,1406.625 2607.5356,1406.8281 Q2607.1606,1407.0156 2606.8638,1407.4531 Q2606.5825,1407.8906 2606.5825,1408.5 L2606.5825,1409.1406 Q2606.5825,1409.8594 2607.0981,1410.3438 Q2607.6294,1410.8281 2608.5669,1410.8281 Q2609.1294,1410.8281 2609.5044,1410.6875 Q2609.7388,1410.5938 2609.9888,1410.3281 Q2610.145,1410.1719 2610.2231,1410.125 Q2610.3169,1410.0781 2610.4263,1410.0781 Q2610.6294,1410.0781 2610.7856,1410.2344 Q2610.9419,1410.3906 2610.9419,1410.5938 Q2610.9419,1410.7969 2610.7231,1411.0313 Q2610.4263,1411.375 2609.9575,1411.5625 Q2609.3325,1411.8281 2608.5669,1411.8281 Q2607.6763,1411.8281 2606.9731,1411.4688 Q2606.395,1411.1719 2605.9888,1410.5469 Q2605.5825,1409.9063 2605.5825,1409.1563 L2605.5825,1408.4844 Q2605.5825,1407.7031 2605.9419,1407.0313 Q2606.3169,1406.3438 2606.9575,1405.9844 Q2607.5981,1405.625 2608.3169,1405.625 Q2608.7544,1405.625 2609.1294,1405.7188 Q2609.52,1405.8125 2609.8481,1406.0156 Z " fill="#000000"/><text fill="#000000" font-family="sans-serif" font-size="10" font-style="italic" lengthAdjust="spacing" textLength="64.4922" x="2629.6567" y="1401.4902">&#171;value object&#187;</text><text fill="#000000" font-family="sans-serif" font-size="10" lengthAdjust="spacing" textLength="72.2656" x="2625.77" y="1424.0684">ValidationResult</text><line style="stroke:#181818;stroke-width:0.5;" x1="2596.77" x2="2705.0356" y1="1436.2656" y2="1436.2656"/><text fill="#000000" font-family="sans-serif" font-size="10" lengthAdjust="spacing" textLength="62.5391" x="2606.77" y="1455.6465">+isValid : bool</text><text fill="#000000" font-family="sans-serif" font-size="10" lengthAdjust="spacing" textLength="70.2979" x="2606.77" y="1478.2246">+errors : string[]</text><line style="stroke:#181818;stroke-width:0.5;" x1="2596.77" x2="2705.0356" y1="1489.4219" y2="1489.4219"/></g><!--class PostgresDatabase--><g class="entity" data-qualified-name="External Services.PostgresDatabase" data-source-line="138" id="ent0026"><rect fill="#F1F1F1" height="93.7344" rx="2.5" ry="2.5" style="stroke:#181818;stroke-width:0.5;" width="230.6963" x="681.27" y="1392.1094"/><ellipse cx="746.7329" cy="1419.6875" fill="#ADD1B2" rx="9" ry="9" style="stroke:#181818;stroke-width:1;"/><path d="M747.811,1417.0156 Q747.8891,1416.8906 747.9985,1416.8281 Q748.1235,1416.7656 748.2485,1416.7656 Q748.4673,1416.7656 748.6079,1416.9219 Q748.7485,1417.0781 748.7485,1417.4375 L748.7485,1418.2813 Q748.7485,1418.6406 748.6079,1418.7969 Q748.4673,1418.9531 748.2485,1418.9531 Q748.0454,1418.9531 747.9204,1418.8438 Q747.7954,1418.7344 747.7329,1418.4219 Q747.7016,1418.2188 747.6079,1418.1094 Q747.4048,1417.875 747.0454,1417.75 Q746.686,1417.625 746.3266,1417.625 Q745.8735,1417.625 745.4985,1417.8281 Q745.1235,1418.0156 744.8266,1418.4531 Q744.5454,1418.8906 744.5454,1419.5 L744.5454,1420.1406 Q744.5454,1420.8594 745.061,1421.3438 Q745.5923,1421.8281 746.5298,1421.8281 Q747.0923,1421.8281 747.4673,1421.6875 Q747.7016,1421.5938 747.9516,1421.3281 Q748.1079,1421.1719 748.186,1421.125 Q748.2798,1421.0781 748.3891,1421.0781 Q748.5923,1421.0781 748.7485,1421.2344 Q748.9048,1421.3906 748.9048,1421.5938 Q748.9048,1421.7969 748.686,1422.0313 Q748.3891,1422.375 747.9204,1422.5625 Q747.2954,1422.8281 746.5298,1422.8281 Q745.6391,1422.8281 744.936,1422.4688 Q744.3579,1422.1719 743.9516,1421.5469 Q743.5454,1420.9063 743.5454,1420.1563 L743.5454,1419.4844 Q743.5454,1418.7031 743.9048,1418.0313 Q744.2798,1417.3438 744.9204,1416.9844 Q745.561,1416.625 746.2798,1416.625 Q746.7173,1416.625 747.0923,1416.7188 Q747.4829,1416.8125 747.811,1417.0156 Z " fill="#000000"/><text fill="#000000" font-family="sans-serif" font-size="10" font-style="italic" lengthAdjust="spacing" textLength="46.6992" x="787.0185" y="1412.4902">&#171;external&#187;</text><text fill="#000000" font-family="sans-serif" font-size="10" lengthAdjust="spacing" textLength="82.2705" x="769.2329" y="1435.0684">PostgresDatabase</text><line style="stroke:#181818;stroke-width:0.5;" x1="682.27" x2="910.9663" y1="1447.2656" y2="1447.2656"/><line style="stroke:#181818;stroke-width:0.5;" x1="682.27" x2="910.9663" y1="1455.2656" y2="1455.2656"/><text fill="#000000" font-family="sans-serif" font-size="10" lengthAdjust="spacing" textLength="208.6963" x="692.27" y="1474.6465">+query(sql: string, params: object[]) : ResultSet</text></g><!--class SupabaseClient--><g class="entity" data-qualified-name="External Services.SupabaseClient" data-source-line="142" id="ent0027"><rect fill="#F1F1F1" height="116.3125" rx="2.5" ry="2.5" style="stroke:#181818;stroke-width:0.5;" width="247.9473" x="392.77" y="1381.1094"/><ellipse cx="472.6909" cy="1408.6875" fill="#ADD1B2" rx="9" ry="9" style="stroke:#181818;stroke-width:1;"/><path d="M473.769,1406.0156 Q473.8471,1405.8906 473.9565,1405.8281 Q474.0815,1405.7656 474.2065,1405.7656 Q474.4253,1405.7656 474.5659,1405.9219 Q474.7065,1406.0781 474.7065,1406.4375 L474.7065,1407.2813 Q474.7065,1407.6406 474.5659,1407.7969 Q474.4253,1407.9531 474.2065,1407.9531 Q474.0034,1407.9531 473.8784,1407.8438 Q473.7534,1407.7344 473.6909,1407.4219 Q473.6596,1407.2188 473.5659,1407.1094 Q473.3628,1406.875 473.0034,1406.75 Q472.644,1406.625 472.2846,1406.625 Q471.8315,1406.625 471.4565,1406.8281 Q471.0815,1407.0156 470.7846,1407.4531 Q470.5034,1407.8906 470.5034,1408.5 L470.5034,1409.1406 Q470.5034,1409.8594 471.019,1410.3438 Q471.5503,1410.8281 472.4878,1410.8281 Q473.0503,1410.8281 473.4253,1410.6875 Q473.6596,1410.5938 473.9096,1410.3281 Q474.0659,1410.1719 474.144,1410.125 Q474.2378,1410.0781 474.3471,1410.0781 Q474.5503,1410.0781 474.7065,1410.2344 Q474.8628,1410.3906 474.8628,1410.5938 Q474.8628,1410.7969 474.644,1411.0313 Q474.3471,1411.375 473.8784,1411.5625 Q473.2534,1411.8281 472.4878,1411.8281 Q471.5971,1411.8281 470.894,1411.4688 Q470.3159,1411.1719 469.9096,1410.5469 Q469.5034,1409.9063 469.5034,1409.1563 L469.5034,1408.4844 Q469.5034,1407.7031 469.8628,1407.0313 Q470.2378,1406.3438 470.8784,1405.9844 Q471.519,1405.625 472.2378,1405.625 Q472.6753,1405.625 473.0503,1405.7188 Q473.4409,1405.8125 473.769,1406.0156 Z " fill="#000000"/><text fill="#000000" font-family="sans-serif" font-size="10" font-style="italic" lengthAdjust="spacing" textLength="46.6992" x="507.144" y="1401.4902">&#171;external&#187;</text><text fill="#000000" font-family="sans-serif" font-size="10" lengthAdjust="spacing" textLength="70.6055" x="495.1909" y="1424.0684">SupabaseClient</text><line style="stroke:#181818;stroke-width:0.5;" x1="393.77" x2="639.7173" y1="1436.2656" y2="1436.2656"/><line style="stroke:#181818;stroke-width:0.5;" x1="393.77" x2="639.7173" y1="1444.2656" y2="1444.2656"/><text fill="#000000" font-family="sans-serif" font-size="10" lengthAdjust="spacing" textLength="150.8887" x="403.77" y="1463.6465">+from(table: string) : QueryBuilder</text><text fill="#000000" font-family="sans-serif" font-size="10" lengthAdjust="spacing" textLength="225.9473" x="403.77" y="1486.2246">+rpc(functionName: string, payload: object) : object</text></g><g class="entity" data-qualified-name="GMN50" data-source-line="175" id="ent0051"><path d="M2399.27,833.6094 L2399.27,881.1094 L2358.52,885.1094 L2399.27,889.1094 L2399.27,936.6563 A2.5,2.5 0 0 0 2401.77,939.1563 L2623.4243,939.1563 A2.5,2.5 0 0 0 2625.9243,936.6563 L2625.9243,841.1094 L2615.9243,831.1094 L2401.77,831.1094 A2.5,2.5 0 0 0 2399.27,833.6094" fill="#FEFFDD" style="stroke:#181818;stroke-width:0.5;"/><path d="M2615.9243,831.1094 L2615.9243,839.8594 A1.25,1.25 0 0 0 2617.1743,841.1094 L2625.9243,841.1094 L2615.9243,831.1094" fill="#FEFFDD" style="stroke:#181818;stroke-width:0.5;"/><text fill="#000000" font-family="sans-serif" font-size="10" lengthAdjust="spacing" textLength="104.4922" x="2410.27" y="851.4902">UC-13 traceability path:</text><text fill="#000000" font-family="sans-serif" font-size="10" lengthAdjust="spacing" textLength="131.1865" x="2410.27" y="864.0684">1) user drops pin in MapPage</text><text fill="#000000" font-family="sans-serif" font-size="10" lengthAdjust="spacing" textLength="157.2998" x="2410.27" y="876.6465">2) MapAPI posts SiteScoreRequest</text><text fill="#000000" font-family="sans-serif" font-size="10" lengthAdjust="spacing" textLength="171.4844" x="2410.27" y="889.2246">3) MapController validates + delegates</text><text fill="#000000" font-family="sans-serif" font-size="10" lengthAdjust="spacing" textLength="183.4082" x="2410.27" y="901.8027">4) ScoreService orchestrates repositories</text><text fill="#000000" font-family="sans-serif" font-size="10" lengthAdjust="spacing" textLength="195.6543" x="2410.27" y="914.3809">5) ScoreEngine computes dimension scores</text><text fill="#000000" font-family="sans-serif" font-size="10" lengthAdjust="spacing" textLength="147.29" x="2410.27" y="926.959">6) SiteScoreResult returned to UI</text></g><!--link MapPage to MapAPI--><g class="link" data-entity-1="ent0003" data-entity-2="ent0004" data-link-type="dependency" data-source-line="148" id="lnk28"><path codeLine="148" d="M2191.77,324.6594 C2191.77,354.2894 2191.77,378.5794 2191.77,402.4494" fill="none" id="MapPage-to-MapAPI" style="stroke:#181818;stroke-width:1;stroke-dasharray:7,7;"/><polygon fill="#181818" points="2191.77,408.4494,2195.77,399.4494,2191.77,403.4494,2187.77,399.4494,2191.77,408.4494" style="stroke:#181818;stroke-width:1;"/><text fill="#000000" font-family="sans-serif" font-size="10" lengthAdjust="spacing" textLength="20.0049" x="2197.77" y="370.9902">calls</text></g><!--link MapAPI to MapController--><g class="link" data-entity-1="ent0004" data-entity-2="ent0006" data-link-type="dependency" data-source-line="149" id="lnk29"><path codeLine="149" d="M2191.77,502.6794 C2191.77,535.6394 2191.77,574.2194 2191.77,609.4494" fill="none" id="MapAPI-to-MapController" style="stroke:#181818;stroke-width:1;stroke-dasharray:7,7;"/><polygon fill="#181818" points="2191.77,615.4494,2195.77,606.4494,2191.77,610.4494,2187.77,606.4494,2191.77,615.4494" style="stroke:#181818;stroke-width:1;"/><text fill="#000000" font-family="sans-serif" font-size="10" lengthAdjust="spacing" textLength="143.3691" x="2197.77" y="550.9902">HTTP POST /api/map/site-score</text></g><!--link MapController to ScoreService--><g class="link" data-entity-1="ent0006" data-entity-2="ent0007" data-link-type="dependency" data-source-line="150" id="lnk30"><path codeLine="150" d="M2190.68,731.8594 C2190.19,757.6594 2189.7154,782.3505 2189.1954,809.3805" fill="none" id="MapController-to-ScoreService" style="stroke:#181818;stroke-width:1;"/><polygon fill="#181818" points="2189.08,815.3794,2193.2524,806.458,2189.1762,810.3803,2185.2538,806.3041,2189.08,815.3794" style="stroke:#181818;stroke-width:1;"/><text fill="#000000" font-family="sans-serif" font-size="10" lengthAdjust="spacing" textLength="43.3691" x="2195.77" y="777.9902">delegates</text></g><!--link MapController to ValidationResult--><g class="link" data-entity-1="ent0006" data-entity-2="ent0024" data-link-type="dependency" data-source-line="151" id="lnk31"><path codeLine="151" d="M2367.04,706.7894 C2480.14,731.5094 2612.37,769.2494 2646.77,815.6094 C2773.48,986.3694 2709.5857,1256.6244 2672.3857,1375.2244" fill="none" id="MapController-to-ValidationResult" style="stroke:#181818;stroke-width:1;stroke-dasharray:7,7;"/><polygon fill="#181818" points="2670.59,1380.9494,2677.1002,1373.559,2672.0864,1376.1786,2669.4669,1371.1648,2670.59,1380.9494" style="stroke:#181818;stroke-width:1;"/><text fill="#000000" font-family="sans-serif" font-size="10" lengthAdjust="spacing" textLength="77.2754" x="2721.77" y="1000.9902">validates payload</text></g><!--link ScoreService to ScoreEngine--><g class="link" data-entity-1="ent0007" data-entity-2="ent0008" data-link-type="dependency" data-source-line="153" id="lnk32"><path codeLine="153" d="M2191.44,954.9094 C2192.83,980.7894 2194.101,1004.6379 2195.571,1032.2479" fill="none" id="ScoreService-to-ScoreEngine" style="stroke:#181818;stroke-width:1;"/><polygon fill="#181818" points="2195.89,1038.2394,2199.4058,1029.0394,2195.6242,1033.2464,2191.4172,1029.4648,2195.89,1038.2394" style="stroke:#181818;stroke-width:1;"/><text fill="#000000" font-family="sans-serif" font-size="10" lengthAdjust="spacing" textLength="75.5859" x="2199.77" y="1000.9902">computes scores</text></g><!--link ScoreService to PlanningAreaRepository--><g class="link" data-entity-1="ent0007" data-entity-2="ent0010" data-link-type="dependency" data-source-line="154" id="lnk33"><path codeLine="154" d="M2017.11,888.3194 C1834.55,896.1794 1539.83,924.8794 1306.77,1023.6094 C1275.9,1036.6894 1249.1908,1051.6462 1221.5408,1069.2562" fill="none" id="ScoreService-to-PlanningAreaRepository" style="stroke:#181818;stroke-width:1;"/><polygon fill="#181818" points="1216.48,1072.4794,1226.2199,1071.0185,1220.6973,1069.7934,1221.9224,1064.2708,1216.48,1072.4794" style="stroke:#181818;stroke-width:1;"/><text fill="#000000" font-family="sans-serif" font-size="10" lengthAdjust="spacing" textLength="104.7559" x="1402.77" y="1000.9902">retrieves area + metrics</text></g><!--link ScoreService to TransportRepository--><g class="link" data-entity-1="ent0007" data-entity-2="ent0011" data-link-type="dependency" data-source-line="155" id="lnk34"><path codeLine="155" d="M2017.07,901.2494 C1873.2,916.5594 1680.56,943.8294 1614.77,984.6094 C1580.98,1005.5594 1557.5706,1036.4252 1539.5606,1067.3352" fill="none" id="ScoreService-to-TransportRepository" style="stroke:#181818;stroke-width:1;"/><polygon fill="#181818" points="1536.54,1072.5194,1544.5271,1066.7568,1539.0572,1068.1992,1537.6148,1062.7293,1536.54,1072.5194" style="stroke:#181818;stroke-width:1;"/><text fill="#000000" font-family="sans-serif" font-size="10" lengthAdjust="spacing" textLength="113.9404" x="1620.77" y="1000.9902">retrieves nearby transport</text></g><!--link ScoreService to CompetitionRepository--><g class="link" data-entity-1="ent0007" data-entity-2="ent0012" data-link-type="dependency" data-source-line="156" id="lnk35"><path codeLine="156" d="M2017.25,894.4194 C1766.55,907.6594 1284.02,937.0094 875.77,984.6094 C765.82,997.4294 736.07,992.7194 629.77,1023.6094 C577.37,1038.8394 526.7774,1059.9428 481.5474,1081.0428" fill="none" id="ScoreService-to-CompetitionRepository" style="stroke:#181818;stroke-width:1;"/><polygon fill="#181818" points="476.11,1083.5794,485.9572,1083.3994,480.6412,1081.4656,482.5751,1076.1495,476.11,1083.5794" style="stroke:#181818;stroke-width:1;"/><text fill="#000000" font-family="sans-serif" font-size="10" lengthAdjust="spacing" textLength="120.0488" x="881.77" y="1000.9902">retrieves competitor counts</text></g><!--link ScoreService to BusinessProfileRepository--><g class="link" data-entity-1="ent0007" data-entity-2="ent0013" data-link-type="dependency" data-source-line="157" id="lnk36"><path codeLine="157" d="M2017,895.3794 C1727.64,912.7294 1154,954.7094 964.77,1023.6094 C932.53,1035.3494 904.9728,1050.667 877.2128,1069.047" fill="none" id="ScoreService-to-BusinessProfileRepository" style="stroke:#181818;stroke-width:1;"/><polygon fill="#181818" points="872.21,1072.3594,881.9225,1070.726,876.379,1069.5991,877.506,1064.0556,872.21,1072.3594" style="stroke:#181818;stroke-width:1;"/><text fill="#000000" font-family="sans-serif" font-size="10" lengthAdjust="spacing" textLength="78.3691" x="1115.77" y="1000.9902">resolves category</text></g><!--link ScoreService to SiteScoreRequest--><g class="link" data-entity-1="ent0007" data-entity-2="ent0015" data-link-type="dependency" data-source-line="158" id="lnk37"><path codeLine="158" d="M2017.06,922.1294 C1950.45,942.9394 1877.18,974.9894 1822.77,1023.6094 C1739.77,1097.7794 1789.75,1170.2294 1708.77,1246.6094 C1676.63,1276.9194 1650.42,1256.8394 1617.77,1286.6094 C1596.1,1306.3694 1581.5175,1327.7206 1568.3375,1353.1906" fill="none" id="ScoreService-to-SiteScoreRequest" style="stroke:#181818;stroke-width:1;stroke-dasharray:7,7;"/><polygon fill="#181818" points="1565.58,1358.5194,1573.2688,1352.3645,1567.8779,1354.0787,1566.1637,1348.6878,1565.58,1358.5194" style="stroke:#181818;stroke-width:1;"/><text fill="#000000" font-family="sans-serif" font-size="10" lengthAdjust="spacing" textLength="45.5859" x="1828.77" y="1134.9902">uses input</text></g><!--link ScoreService to SiteScoreResult--><g class="link" data-entity-1="ent0007" data-entity-2="ent0016" data-link-type="dependency" data-source-line="159" id="lnk38"><path codeLine="159" d="M2017.27,942.9794 C1982.1,962.8494 1949.5,989.1394 1928.77,1023.6094 C1872.27,1117.5794 1887.4881,1240.5778 1910.3281,1329.5478" fill="none" id="ScoreService-to-SiteScoreResult" style="stroke:#181818;stroke-width:1;stroke-dasharray:7,7;"/><polygon fill="#181818" points="1911.82,1335.3594,1913.4565,1325.6474,1910.5767,1330.5164,1905.7078,1327.6367,1911.82,1335.3594" style="stroke:#181818;stroke-width:1;"/><text fill="#000000" font-family="sans-serif" font-size="10" lengthAdjust="spacing" textLength="75.0391" x="1934.77" y="1134.9902">returns response</text></g><!--link PlanningAreaRepository to PostgresDatabase--><g class="link" data-entity-1="ent0010" data-entity-2="ent0026" data-link-type="dependency" data-source-line="161" id="lnk39"><path codeLine="161" d="M1072.41,1188.8994 C1007.44,1247.6394 912.1205,1333.8153 852.1105,1388.0753" fill="none" id="PlanningAreaRepository-to-PostgresDatabase" style="stroke:#181818;stroke-width:1;stroke-dasharray:7,7;"/><polygon fill="#181818" points="847.66,1392.0994,857.0185,1389.0303,851.3687,1388.746,851.653,1383.0963,847.66,1392.0994" style="stroke:#181818;stroke-width:1;"/><text fill="#000000" font-family="sans-serif" font-size="10" lengthAdjust="spacing" textLength="47.8027" x="1001.77" y="1270.9902">SQL query</text></g><!--link TransportRepository to PostgresDatabase--><g class="link" data-entity-1="ent0011" data-entity-2="ent0026" data-link-type="dependency" data-source-line="162" id="lnk40"><path codeLine="162" d="M1415.61,1188.7394 C1381.93,1208.2894 1343.22,1229.5194 1306.77,1246.6094 C1174.89,1308.4294 1022.8043,1363.2589 918.0243,1398.6589" fill="none" id="TransportRepository-to-PostgresDatabase" style="stroke:#181818;stroke-width:1;stroke-dasharray:7,7;"/><polygon fill="#181818" points="912.34,1400.5794,922.1468,1401.4882,917.077,1398.979,919.5862,1393.9091,912.34,1400.5794" style="stroke:#181818;stroke-width:1;"/><text fill="#000000" font-family="sans-serif" font-size="10" lengthAdjust="spacing" textLength="47.8027" x="1285.77" y="1270.9902">SQL query</text></g><!--link CompetitionRepository to PostgresDatabase--><g class="link" data-entity-1="ent0012" data-entity-2="ent0026" data-link-type="dependency" data-source-line="163" id="lnk41"><path codeLine="163" d="M484.85,1177.7594 C539.57,1205.3894 606.95,1243.4894 660.77,1286.6094 C699.39,1317.5494 732.6931,1355.2732 758.3431,1387.3532" fill="none" id="CompetitionRepository-to-PostgresDatabase" style="stroke:#181818;stroke-width:1;stroke-dasharray:7,7;"/><polygon fill="#181818" points="762.09,1392.0394,759.5938,1382.5121,758.9676,1388.1342,753.3455,1387.508,762.09,1392.0394" style="stroke:#181818;stroke-width:1;"/><text fill="#000000" font-family="sans-serif" font-size="10" lengthAdjust="spacing" textLength="47.8027" x="652.77" y="1270.9902">SQL query</text></g><!--link BusinessProfileRepository to PostgresDatabase--><g class="link" data-entity-1="ent0013" data-entity-2="ent0026" data-link-type="dependency" data-source-line="164" id="lnk42"><path codeLine="164" d="M796.77,1188.8994 C796.77,1247.6394 796.77,1331.8394 796.77,1386.0994" fill="none" id="BusinessProfileRepository-to-PostgresDatabase" style="stroke:#181818;stroke-width:1;stroke-dasharray:7,7;"/><polygon fill="#181818" points="796.77,1392.0994,800.77,1383.0994,796.77,1387.0994,792.77,1383.0994,796.77,1392.0994" style="stroke:#181818;stroke-width:1;"/><text fill="#000000" font-family="sans-serif" font-size="10" lengthAdjust="spacing" textLength="47.8027" x="802.77" y="1270.9902">SQL query</text></g><!--link ScoreService to SupabaseClient--><g class="link" data-entity-1="ent0007" data-entity-2="ent0027" data-link-type="dependency" data-source-line="165" id="lnk43"><path codeLine="165" d="M2017,890.9194 C1525.79,905.5694 139.92,953.0194 73.77,1023.6094 C6,1095.9294 19.34,1163.7794 73.77,1246.6094 C144,1353.4794 282.0663,1399.8139 386.8763,1420.7539" fill="none" id="ScoreService-to-SupabaseClient" style="stroke:#181818;stroke-width:1;stroke-dasharray:7,7;"/><polygon fill="#181818" points="392.76,1421.9294,384.7181,1416.2436,387.8569,1420.9498,383.1507,1424.0886,392.76,1421.9294" style="stroke:#181818;stroke-width:1;"/><text fill="#000000" font-family="sans-serif" font-size="10" lengthAdjust="spacing" textLength="56.1475" x="79.77" y="1134.9902">fallback path</text></g><!--reverse link SiteScoreResult to DimensionScores--><g class="link" data-entity-1="ent0016" data-entity-2="ent0017" data-link-type="composition" data-source-line="167" id="lnk44"><path codeLine="167" d="M1859.2976,1552.3964 C1841.7676,1575.1564 1830.72,1589.4994 1813.88,1611.3694" fill="none" id="SiteScoreResult-backto-DimensionScores" style="stroke:#181818;stroke-width:1;"/><polygon fill="#181818" points="1866.62,1542.8894,1859.7898,1545.2021,1859.2976,1552.3964,1866.1278,1550.0837,1866.62,1542.8894" style="stroke:#181818;stroke-width:1;"/></g><!--reverse link SiteScoreResult to BreakdownDetails--><g class="link" data-entity-1="ent0016" data-entity-2="ent0018" data-link-type="composition" data-source-line="168" id="lnk45"><path codeLine="168" d="M1945.77,1554.8894 C1945.77,1578.8994 1945.77,1592.1094 1945.77,1614.9294" fill="none" id="SiteScoreResult-backto-BreakdownDetails" style="stroke:#181818;stroke-width:1;"/><polygon fill="#181818" points="1945.77,1542.8894,1941.77,1548.8894,1945.77,1554.8894,1949.77,1548.8894,1945.77,1542.8894" style="stroke:#181818;stroke-width:1;"/></g><!--reverse link SiteScoreResult to PlanningArea--><g class="link" data-entity-1="ent0016" data-entity-2="ent0019" data-link-type="aggregation" data-source-line="169" id="lnk46"><path codeLine="169" d="M2036.0876,1552.2347 C2055.4276,1576.2447 2068.21,1592.1094 2086.59,1614.9294" fill="none" id="SiteScoreResult-backto-PlanningArea" style="stroke:#181818;stroke-width:1;"/><polygon fill="none" points="2028.56,1542.8894,2029.2087,1550.0712,2036.0876,1552.2347,2035.4389,1545.0528,2028.56,1542.8894" style="stroke:#181818;stroke-width:1;"/></g><!--link ScoreEngine to PlanningAreaMetrics--><g class="link" data-entity-1="ent0008" data-entity-2="ent0020" data-link-type="dependency" data-source-line="170" id="lnk47"><path codeLine="170" d="M2237.64,1222.7394 C2256.63,1269.6794 2277.1599,1320.4172 2294.6599,1363.6772" fill="none" id="ScoreEngine-to-PlanningAreaMetrics" style="stroke:#181818;stroke-width:1;stroke-dasharray:7,7;"/><polygon fill="#181818" points="2296.91,1369.2394,2297.243,1359.3961,2295.035,1364.6043,2289.8268,1362.3962,2296.91,1369.2394" style="stroke:#181818;stroke-width:1;"/><text fill="#000000" font-family="sans-serif" font-size="10" lengthAdjust="spacing" textLength="21.123" x="2264.77" y="1270.9902">uses</text></g><!--link ScoreEngine to TransportMetrics--><g class="link" data-entity-1="ent0008" data-entity-2="ent0021" data-link-type="dependency" data-source-line="171" id="lnk48"><path codeLine="171" d="M2352.07,1222.6294 C2377.18,1241.7894 2401.58,1263.3394 2421.77,1286.6094 C2445.75,1314.2394 2462.1831,1345.1403 2475.2131,1375.3403" fill="none" id="ScoreEngine-to-TransportMetrics" style="stroke:#181818;stroke-width:1;stroke-dasharray:7,7;"/><polygon fill="#181818" points="2477.59,1380.8494,2477.6973,1371.0011,2475.6092,1376.2585,2470.3519,1374.1704,2477.59,1380.8494" style="stroke:#181818;stroke-width:1;"/><text fill="#000000" font-family="sans-serif" font-size="10" lengthAdjust="spacing" textLength="21.123" x="2417.77" y="1270.9902">uses</text></g><!--link ScoreEngine to CompetitionMetrics--><g class="link" data-entity-1="ent0008" data-entity-2="ent0022" data-link-type="dependency" data-source-line="172" id="lnk49"><path codeLine="172" d="M2184.42,1222.7394 C2175.2,1274.0894 2165.0394,1330.7336 2157.0694,1375.1636" fill="none" id="ScoreEngine-to-CompetitionMetrics" style="stroke:#181818;stroke-width:1;stroke-dasharray:7,7;"/><polygon fill="#181818" points="2156.01,1381.0694,2161.5362,1372.917,2156.8928,1376.1479,2153.6619,1371.5045,2156.01,1381.0694" style="stroke:#181818;stroke-width:1;"/><text fill="#000000" font-family="sans-serif" font-size="10" lengthAdjust="spacing" textLength="21.123" x="2183.77" y="1270.9902">uses</text></g><?plantuml-src hLX9Szis5BxpLs3IYrHRMPhbmF4uOqjMwXaxOImdEMHoWCWd2ZK4C02eHErafZ-Ylx2_f0_S19AWd4mg7ypbUmzlNsYOuK0M6whCbOofmUjNvD-__o7lffCdJybCoOn4Rov9n0IX8Y6lm905ix1OAY2ZAQTQancZgQARSH3eEoOoYjSajc_EZ55icHkuZALOi3-1F7OWGYQW8IFFt8UAYZlxy8NxCAD9maHAdhj0cOi4fH2WMiyJMD6ScxaKfZZnoUCWo6XyHrCW3yuj4LMx1-IN-No6F_9NGF1NI4kkQHPPsCd9iiATdbO0-viG3HnY0yaLDLSeJaZAYvSEXCQ6RI5ISiKuN2Q84Vbc2Sh5h6ISwnkQi5nVWm6b6zGUD6akZyWQJSy1fPjo5j-DE3Kr_fXmaTOtOsIpbInnA1Lypa4RwxB2OoEBGU4sJCE9nPwsm281LU3E5T2xH7uH8srlGz9mk06DrlKSfTVoIu6uK4ggqGQqHbk6H6C8YBH5y2re6_qikXoo-H79f2j_HdTSqgGbKA6YgrX7sDFgq6zE84mnF9Ja60UpcOs4RXnKxpa6ryb9NDuS5AooT4X-DoPpP2flTIQ51eTuIpbBCDyQ1b6fs645tvTKJ8fIixur2ue5g2sBOL3omgUMVv7po6s4oPCR_vaTOxhPO9--PpHI30l8RhRyEJQBFADBgc5EEL-YdtwKMzyE5o9bOjWCiTpW0J35Vr8ZmpBMTOZrR0D2erqABdhSJy-6U0ORYRKlMxEuZ8CDOBp7o2JYL0YC_3DCfUlouI56Pt6C6SEMZ3EpAraPh8KOE0fjS5jVVWUd6n26yf-Jnje433Er3VQCd3T-FkqyYx2wCMr0n82vTZ6tVwrSSmMxWS8HKktGPwgvwRXjnKHYqvEockvWHNGFUEcmIS5uZ3AYU7sPk6NBW-h7M-EWxzCXnbfdNWDLozrvhXT6PdfGYMFiYVjMuQh6XF7pl5RcuYipFyEpfPtZz1_MhwQLwaV5EIPs8acHk-iEhu1eHCnqhQk--tr2OWHqw4PPtRTTatH0BrijKqk-TTDbMebSi-gHMuwbDfvqkH38PLTq9TkNMfdIhOEe6XJmZbfeP5zcys9WwJtE3amgHostTDFSBvejn_-JP4xU7SZZicYJNjLs8Cjwcfa1LWrkmUUTHmuQ6ooT8uErTLhNMOxIdVE6b8xhzkBJCTct3zzhwZO57q0LjNwea5SXUS1nNJCCAK45vJiiv9sXjLs0bbKb-y3CceaIsWDjgj9q4EG8FxMLP03SKiMDZo4rt90g8jxnRH_nccx0Xx4jOegxY--TWXI5xbCEYbfrb269ayvyuNFrbiPKnBl1zsMGN4F2g8ZqgfFe_ZPsZrYLgmld3Bcu-tAeeznpLDq3VDOMLOSvS52d-Wv6HgyCkYK6bpwfXbmkCr0uHOlq6W7S6p35JlW1MBf6guWLItlbjYLpTyn7eN5Vo878vHyeIaTqfWiyCbnAoPqNO1UnVGNx-CdNSBvYAcDoasfdqCLcF3-RjZUY27UT58lS36kZdT6j6IlAZZJOch3vwS-yFlQO57ivTlLI-e-VR0Si5Lk0RtIlzW1STj5LmoUjSDiReJYyjMI-jUUVvumdxHp8uj4g5x6fijELhbguIl4iZ_9gRwtwky33XwVrkXfYN79i6zLjzSRP6d7pkxsDIFHcSKiUqOmzsj3iaMq3aw9X1MtqP7BQNjr2p7mEASQ-xa3jKRq02Pk5KjSA1K6BOND2jHI5zQYlgmxQXm-CvY4M5BGTR97KbaARyTLOt6FX6ujT-ZA1IRFfz3duHq-NHzmCcENOwH5ZU3mCwn5EDuMcJMxDtPkyGf9hf2WMr8FmoZaeRAw4jcUL7mA20TjQybwkuRhxzgfChC1dq7k9_3QybspOQlUIzctIJkgGhAej7yFLh35MEpRxTJBf3NG-J6-Ewu8aWbnZ1suI57fucd7ftnwqrnq7S9xcLY438N4GLBOH4BbgfNnGVdB5L8Y1LXEVjKqOF1bROaKIXSCLoPZ0mAk_LGQ_ZUkIPBz7zRU4uEcuKvdsbUB8AJBFnkq295MyHd9L09iLYY7o-RXLI9eoajJkgWlAYt4l5Sf4W8GOITvT1Y0IOYqI_0S0?></g></svg>