<?plantuml 1.2026.2?><svg xmlns="http://www.w3.org/2000/svg" xmlns:xlink="http://www.w3.org/1999/xlink" contentStyleType="text/css" data-diagram-type="STATE" height="1544px" preserveAspectRatio="none" style="width:1681px;height:1544px;background:#FAFAFA;" version="1.1" viewBox="0 0 1681 1544" width="1681px" zoomAndPan="magnify"><title>SmartLocateSG - Dialog Map (Master)</title><defs/><g><rect fill="#FAFAFA" height="1544" style="stroke:none;stroke-width:1;" width="1681" x="0" y="0"/><g class="title" data-source-line="9"><text fill="#000000" font-family="Verdana" font-size="22" font-weight="bold" lengthAdjust="spacing" textLength="467.5537" x="599.4595" y="37.1182">SmartLocateSG - Dialog Map (Master)</text></g><path d="M692,59.7373 L988.3286,59.7373 A12.5,12.5 0 0 1 1000.8286,72.2373 L1000.8286,86.752 L679.5,86.752 L679.5,72.2373 A12.5,12.5 0 0 1 692,59.7373" fill="#E8EAF6"/><path d="M679.5,86.752 L1000.8286,86.752 L1000.8286,614.252 A12.5,12.5 0 0 1 988.3286,626.752 L692,626.752 A12.5,12.5 0 0 1 679.5,614.252 L679.5,86.752" fill="#FFFFFF"/><rect fill="none" height="567.0146" rx="12.5" ry="12.5" style="stroke:#3949AB;stroke-width:1;" width="321.3286" x="679.5" y="59.7373"/><line style="stroke:#3949AB;stroke-width:1;" x1="679.5" x2="1000.8286" y1="86.752" y2="86.752"/><text fill="#1A237E" font-family="Verdana" font-size="14" lengthAdjust="spacing" textLength="141.1416" x="769.5935" y="78.8125">UNAUTHENTICATED</text><g class="start_entity" data-qualified-name="UA..start.UA" data-source-line="12" id="ent0002"><ellipse cx="849" cy="107.752" fill="#FFFFFF" rx="10" ry="10" style="stroke:#000000;stroke-width:1;"/></g><g class="entity" data-qualified-name="UA.Landing" id="ent0003"><rect fill="#E8EAF6" height="50" rx="12.5" ry="12.5" style="stroke:#3949AB;stroke-width:1;" width="75.207" x="811.5" y="154.752"/><line style="stroke:#3949AB;stroke-width:1;" x1="811.5" x2="886.707" y1="181.7666" y2="181.7666"/><text fill="#1A237E" font-family="Verdana" font-size="14" lengthAdjust="spacing" textLength="55.207" x="821.5" y="173.8271">Landing</text></g><g class="entity" data-qualified-name="UA.Register" id="ent0005"><rect fill="#E8EAF6" height="50" rx="12.5" ry="12.5" style="stroke:#3949AB;stroke-width:1;" width="77.7637" x="746" y="257.752"/><line style="stroke:#3949AB;stroke-width:1;" x1="746" x2="823.7637" y1="284.7666" y2="284.7666"/><text fill="#1A237E" font-family="Verdana" font-size="14" lengthAdjust="spacing" textLength="57.7637" x="756" y="276.8271">Register</text></g><g class="entity" data-qualified-name="UA.Login" id="ent0007"><rect fill="#E8EAF6" height="50" rx="12.5" ry="12.5" style="stroke:#3949AB;stroke-width:1;" width="57.7139" x="793" y="463.752"/><line style="stroke:#3949AB;stroke-width:1;" x1="793" x2="850.7139" y1="490.7666" y2="490.7666"/><text fill="#1A237E" font-family="Verdana" font-size="14" lengthAdjust="spacing" textLength="37.7139" x="803" y="482.8271">Login</text></g><g class="entity" data-qualified-name="UA.VerifyPending" id="ent0009"><rect fill="#E8EAF6" height="50" rx="12.5" ry="12.5" style="stroke:#3949AB;stroke-width:1;" width="116.7217" x="691.5" y="360.752"/><line style="stroke:#3949AB;stroke-width:1;" x1="691.5" x2="808.2217" y1="387.7666" y2="387.7666"/><text fill="#1A237E" font-family="Verdana" font-size="14" lengthAdjust="spacing" textLength="96.7217" x="701.5" y="379.8271">VerifyPending</text></g><g class="entity" data-qualified-name="UA.ForgotPW" id="ent0012"><rect fill="#E8EAF6" height="50" rx="12.5" ry="12.5" style="stroke:#3949AB;stroke-width:1;" width="87.5391" x="778" y="566.752"/><line style="stroke:#3949AB;stroke-width:1;" x1="778" x2="865.5391" y1="593.7666" y2="593.7666"/><text fill="#1A237E" font-family="Verdana" font-size="14" lengthAdjust="spacing" textLength="67.5391" x="788" y="585.8271">ForgotPW</text></g><!--link *start*UA to Landing--><g class="link" data-entity-1="ent0002" data-entity-2="ent0003" data-link-type="dependency" data-source-line="12" id="lnk4"><path d="M849,117.902 C849,127.172 849,135.892 849,148.532" fill="none" id="*start*UA-to-Landing" style="stroke:#000000;stroke-width:1;"/><polygon fill="#000000" points="849,154.532,853,145.532,849,149.532,845,145.532,849,154.532" style="stroke:#000000;stroke-width:1;"/></g><!--link Landing to Register--><g class="link" data-entity-1="ent0003" data-entity-2="ent0005" data-link-type="dependency" data-source-line="13" id="lnk6"><path d="M826.53,204.762 C821.76,210.442 816.97,216.632 813,222.752 C805.9,233.692 801.9553,241.214 797.0853,252.234" fill="none" id="Landing-to-Register" style="stroke:#000000;stroke-width:1;"/><polygon fill="#000000" points="794.66,257.722,801.9566,251.1068,796.6811,253.1486,794.6392,247.8731,794.66,257.722" style="stroke:#000000;stroke-width:1;"/><text fill="#000000" font-family="Verdana" font-size="13" lengthAdjust="spacing" textLength="75.8481" x="814" y="236.8218">Get Started</text></g><!--link Landing to Login--><g class="link" data-entity-1="ent0003" data-entity-2="ent0007" data-link-type="dependency" data-source-line="14" id="lnk8"><path d="M878.63,205.052 C883.27,210.362 887.39,216.332 890,222.752 C927.38,314.542 938.28,359.192 890,445.752 C881.69,460.662 871.1058,468.4133 856.7058,475.0733" fill="none" id="Landing-to-Login" style="stroke:#000000;stroke-width:1;"/><polygon fill="#000000" points="851.26,477.592,861.1078,477.4445,855.7981,475.4931,857.7495,470.1834,851.26,477.592" style="stroke:#000000;stroke-width:1;"/><text fill="#000000" font-family="Verdana" font-size="13" lengthAdjust="spacing" textLength="41.4946" x="923" y="339.8218">Log In</text></g><!--link Register to VerifyPending--><g class="link" data-entity-1="ent0005" data-entity-2="ent0009" data-link-type="dependency" data-source-line="15" id="lnk10"><path d="M776.62,307.942 C771.12,323.822 765.9135,338.8323 760.4035,354.7423" fill="none" id="Register-to-VerifyPending" style="stroke:#000000;stroke-width:1;"/><polygon fill="#000000" points="758.44,360.412,765.165,353.2165,760.0763,355.6873,757.6055,350.5985,758.44,360.412" style="stroke:#000000;stroke-width:1;"/><text fill="#000000" font-family="Verdana" font-size="13" lengthAdjust="spacing" textLength="103.9492" x="771" y="339.8218">Submit (UC-01)</text></g><!--link VerifyPending to Login--><g class="link" data-entity-1="ent0009" data-entity-2="ent0007" data-link-type="dependency" data-source-line="16" id="lnk11"><path d="M739.95,410.892 C736.88,422.192 735.74,435.402 742,445.752 C752.95,463.872 768.913,472.6494 786.933,478.7094" fill="none" id="VerifyPending-to-Login" style="stroke:#000000;stroke-width:1;"/><polygon fill="#000000" points="792.62,480.622,785.3645,473.9618,787.8808,479.0282,782.8144,481.5445,792.62,480.622" style="stroke:#000000;stroke-width:1;"/><text fill="#000000" font-family="Verdana" font-size="13" lengthAdjust="spacing" textLength="146.3135" x="743" y="442.8218">Email verified (UC-02)</text></g><!--link Login to ForgotPW--><g class="link" data-entity-1="ent0007" data-entity-2="ent0012" data-link-type="dependency" data-source-line="17" id="lnk13"><path d="M792.75,495.592 C758.88,503.772 709.92,520.862 728,548.752 C739.09,565.852 753.234,574.197 771.844,580.247" fill="none" id="Login-to-ForgotPW" style="stroke:#000000;stroke-width:1;"/><polygon fill="#000000" points="777.55,582.102,770.2276,575.5154,772.795,580.5561,767.7543,583.1235,777.55,582.102" style="stroke:#000000;stroke-width:1;"/><text fill="#000000" font-family="Verdana" font-size="13" lengthAdjust="spacing" textLength="165.3628" x="729" y="545.8218">Forgot Password (UC-05)</text></g><!--link ForgotPW to Login--><g class="link" data-entity-1="ent0012" data-entity-2="ent0007" data-link-type="dependency" data-source-line="18" id="lnk14"><path d="M866.33,574.792 C887.19,564.562 905.44,549.812 895,531.752 C885.56,515.422 872.6556,507.1335 856.6656,500.6935" fill="none" id="ForgotPW-to-Login" style="stroke:#000000;stroke-width:1;"/><polygon fill="#000000" points="851.1,498.452,857.954,505.5246,855.738,500.3199,860.9427,498.1039,851.1,498.452" style="stroke:#000000;stroke-width:1;"/><text fill="#000000" font-family="Verdana" font-size="13" lengthAdjust="spacing" textLength="90.8286" x="900" y="545.8218">Reset success</text></g><path d="M24.5,703.7373 L1655.9728,703.7373 A12.5,12.5 0 0 1 1668.4728,716.2373 L1668.4728,730.752 L12,730.752 L12,716.2373 A12.5,12.5 0 0 1 24.5,703.7373" fill="#E8EAF6"/><path d="M12,730.752 L1668.4728,730.752 L1668.4728,1464.252 A12.5,12.5 0 0 1 1655.9728,1476.752 L24.5,1476.752 A12.5,12.5 0 0 1 12,1464.252 L12,730.752" fill="#FFFFFF"/><rect fill="none" height="773.0146" rx="12.5" ry="12.5" style="stroke:#3949AB;stroke-width:1;" width="1656.4728" x="12" y="703.7373"/><line style="stroke:#3949AB;stroke-width:1;" x1="12" x2="1668.4728" y1="730.752" y2="730.752"/><text fill="#1A237E" font-family="Verdana" font-size="14" lengthAdjust="spacing" textLength="120.4219" x="780.0255" y="722.8125">AUTHENTICATED</text><g class="start_entity" data-qualified-name="AU..start.AU" data-source-line="22" id="ent0015"><ellipse cx="1114.11" cy="751.752" fill="#FFFFFF" rx="10" ry="10" style="stroke:#000000;stroke-width:1;"/></g><g class="entity" data-qualified-name="AU.Dashboard" id="ent0016"><rect fill="#E8EAF6" height="50" rx="12.5" ry="12.5" style="stroke:#3949AB;stroke-width:1;" width="95.6738" x="1066.11" y="798.752"/><line style="stroke:#3949AB;stroke-width:1;" x1="1066.11" x2="1161.7838" y1="825.7666" y2="825.7666"/><text fill="#1A237E" font-family="Verdana" font-size="14" lengthAdjust="spacing" textLength="75.6738" x="1076.11" y="817.8271">Dashboard</text></g><g class="entity" data-qualified-name="AU.ProfilesList" id="ent0018"><rect fill="#E8EAF6" height="50" rx="12.5" ry="12.5" style="stroke:#3949AB;stroke-width:1;" width="95.5986" x="344.11" y="901.752"/><line style="stroke:#3949AB;stroke-width:1;" x1="344.11" x2="439.7086" y1="928.7666" y2="928.7666"/><text fill="#1A237E" font-family="Verdana" font-size="14" lengthAdjust="spacing" textLength="75.5986" x="354.11" y="920.8271">ProfilesList</text></g><g class="entity" data-qualified-name="AU.ProfileWizard" id="ent0020"><rect fill="#E8EAF6" height="50" rx="12.5" ry="12.5" style="stroke:#3949AB;stroke-width:1;" width="112.0049" x="47.11" y="1004.752"/><line style="stroke:#3949AB;stroke-width:1;" x1="47.11" x2="159.1149" y1="1031.7666" y2="1031.7666"/><text fill="#1A237E" font-family="Verdana" font-size="14" lengthAdjust="spacing" textLength="92.0049" x="57.11" y="1023.8271">ProfileWizard</text></g><g class="entity" data-qualified-name="AU.DeleteProfileConfirm" id="ent0023"><rect fill="#E8EAF6" height="50" rx="12.5" ry="12.5" style="stroke:#3949AB;stroke-width:1;" width="164.5117" x="342.61" y="1004.752"/><line style="stroke:#3949AB;stroke-width:1;" x1="342.61" x2="507.1217" y1="1031.7666" y2="1031.7666"/><text fill="#1A237E" font-family="Verdana" font-size="14" lengthAdjust="spacing" textLength="144.5117" x="352.61" y="1023.8271">DeleteProfileConfirm</text></g><g class="entity" data-qualified-name="AU.MapIdle" id="ent0026"><rect fill="#E8EAF6" height="50" rx="12.5" ry="12.5" style="stroke:#3949AB;stroke-width:1;" width="75.7266" x="909.11" y="901.752"/><line style="stroke:#3949AB;stroke-width:1;" x1="909.11" x2="984.8366" y1="928.7666" y2="928.7666"/><text fill="#1A237E" font-family="Verdana" font-size="14" lengthAdjust="spacing" textLength="55.7266" x="919.11" y="920.8271">MapIdle</text></g><g class="entity" data-qualified-name="AU.Scoring" id="ent0028"><rect fill="#E8EAF6" height="50" rx="12.5" ry="12.5" style="stroke:#3949AB;stroke-width:1;" width="72.7598" x="615.61" y="1004.752"/><line style="stroke:#3949AB;stroke-width:1;" x1="615.61" x2="688.3698" y1="1031.7666" y2="1031.7666"/><text fill="#1A237E" font-family="Verdana" font-size="14" lengthAdjust="spacing" textLength="52.7598" x="625.61" y="1023.8271">Scoring</text></g><g class="entity" data-qualified-name="AU.ScoreShown" id="ent0030"><rect fill="#E8EAF6" height="50" rx="12.5" ry="12.5" style="stroke:#3949AB;stroke-width:1;" width="106.9189" x="637.61" y="1107.752"/><line style="stroke:#3949AB;stroke-width:1;" x1="637.61" x2="744.5289" y1="1134.7666" y2="1134.7666"/><text fill="#1A237E" font-family="Verdana" font-size="14" lengthAdjust="spacing" textLength="86.9189" x="647.61" y="1126.8271">ScoreShown</text></g><g class="entity" data-qualified-name="AU.WeightPanel" id="ent0032"><rect fill="#E8EAF6" height="50" rx="12.5" ry="12.5" style="stroke:#3949AB;stroke-width:1;" width="107.0146" x="321.61" y="1210.752"/><line style="stroke:#3949AB;stroke-width:1;" x1="321.61" x2="428.6246" y1="1237.7666" y2="1237.7666"/><text fill="#1A237E" font-family="Verdana" font-size="14" lengthAdjust="spacing" textLength="87.0146" x="331.61" y="1229.8271">WeightPanel</text></g><g class="entity" data-qualified-name="AU.ExplanationPanel" id="ent0035"><rect fill="#E8EAF6" height="50" rx="12.5" ry="12.5" style="stroke:#3949AB;stroke-width:1;" width="139.9844" x="665.11" y="1210.752"/><line style="stroke:#3949AB;stroke-width:1;" x1="665.11" x2="805.0944" y1="1237.7666" y2="1237.7666"/><text fill="#1A237E" font-family="Verdana" font-size="14" lengthAdjust="spacing" textLength="119.9844" x="675.11" y="1229.8271">ExplanationPanel</text></g><g class="entity" data-qualified-name="AU.AreaDetails" id="ent0038"><rect fill="#E8EAF6" height="50" rx="12.5" ry="12.5" style="stroke:#3949AB;stroke-width:1;" width="100.3223" x="891.11" y="1004.752"/><line style="stroke:#3949AB;stroke-width:1;" x1="891.11" x2="991.4323" y1="1031.7666" y2="1031.7666"/><text fill="#1A237E" font-family="Verdana" font-size="14" lengthAdjust="spacing" textLength="80.3223" x="901.11" y="1023.8271">AreaDetails</text></g><g class="entity" data-qualified-name="AU.SaveSiteDialog" id="ent0041"><rect fill="#E8EAF6" height="50" rx="12.5" ry="12.5" style="stroke:#3949AB;stroke-width:1;" width="125.9707" x="899.11" y="1210.752"/><line style="stroke:#3949AB;stroke-width:1;" x1="899.11" x2="1025.0807" y1="1237.7666" y2="1237.7666"/><text fill="#1A237E" font-family="Verdana" font-size="14" lengthAdjust="spacing" textLength="105.9707" x="909.11" y="1229.8271">SaveSiteDialog</text></g><g class="entity" data-qualified-name="AU.PortfolioList" id="ent0043"><rect fill="#E8EAF6" height="50" rx="12.5" ry="12.5" style="stroke:#3949AB;stroke-width:1;" width="102.4756" x="972.11" y="1313.752"/><line style="stroke:#3949AB;stroke-width:1;" x1="972.11" x2="1074.5856" y1="1340.7666" y2="1340.7666"/><text fill="#1A237E" font-family="Verdana" font-size="14" lengthAdjust="spacing" textLength="82.4756" x="982.11" y="1332.8271">PortfolioList</text></g><g class="entity" data-qualified-name="AU.EditNotes" id="ent0046"><rect fill="#E8EAF6" height="50" rx="12.5" ry="12.5" style="stroke:#3949AB;stroke-width:1;" width="87.0537" x="870.61" y="1416.752"/><line style="stroke:#3949AB;stroke-width:1;" x1="870.61" x2="957.6637" y1="1443.7666" y2="1443.7666"/><text fill="#1A237E" font-family="Verdana" font-size="14" lengthAdjust="spacing" textLength="67.0537" x="880.61" y="1435.8271">EditNotes</text></g><g class="entity" data-qualified-name="AU.DeleteSiteConfirm" id="ent0049"><rect fill="#E8EAF6" height="50" rx="12.5" ry="12.5" style="stroke:#3949AB;stroke-width:1;" width="147.9209" x="1040.11" y="1416.752"/><line style="stroke:#3949AB;stroke-width:1;" x1="1040.11" x2="1188.0309" y1="1443.7666" y2="1443.7666"/><text fill="#1A237E" font-family="Verdana" font-size="14" lengthAdjust="spacing" textLength="127.9209" x="1050.11" y="1435.8271">DeleteSiteConfirm</text></g><g class="entity" data-qualified-name="AU.CompareSelect" id="ent0052"><rect fill="#E8EAF6" height="50" rx="12.5" ry="12.5" style="stroke:#3949AB;stroke-width:1;" width="126.2373" x="1142.11" y="901.752"/><line style="stroke:#3949AB;stroke-width:1;" x1="1142.11" x2="1268.3473" y1="928.7666" y2="928.7666"/><text fill="#1A237E" font-family="Verdana" font-size="14" lengthAdjust="spacing" textLength="106.2373" x="1152.11" y="920.8271">CompareSelect</text></g><g class="entity" data-qualified-name="AU.CompareView" id="ent0054"><rect fill="#E8EAF6" height="50" rx="12.5" ry="12.5" style="stroke:#3949AB;stroke-width:1;" width="116.5439" x="1144.61" y="1004.752"/><line style="stroke:#3949AB;stroke-width:1;" x1="1144.61" x2="1261.1539" y1="1031.7666" y2="1031.7666"/><text fill="#1A237E" font-family="Verdana" font-size="14" lengthAdjust="spacing" textLength="96.5439" x="1154.61" y="1023.8271">CompareView</text></g><g class="entity" data-qualified-name="AU.ExportPDF" id="ent0056"><rect fill="#E8EAF6" height="50" rx="12.5" ry="12.5" style="stroke:#3949AB;stroke-width:1;" width="93.124" x="1197.61" y="1107.752"/><line style="stroke:#3949AB;stroke-width:1;" x1="1197.61" x2="1290.734" y1="1134.7666" y2="1134.7666"/><text fill="#1A237E" font-family="Verdana" font-size="14" lengthAdjust="spacing" textLength="73.124" x="1207.61" y="1126.8271">ExportPDF</text></g><g class="entity" data-qualified-name="AU.AdminStatus" id="ent0059"><rect fill="#E8EAF6" height="50" rx="12.5" ry="12.5" style="stroke:#3949AB;stroke-width:1;" width="109.7764" x="1347.11" y="901.752"/><line style="stroke:#3949AB;stroke-width:1;" x1="1347.11" x2="1456.8864" y1="928.7666" y2="928.7666"/><text fill="#1A237E" font-family="Verdana" font-size="14" lengthAdjust="spacing" textLength="89.7764" x="1357.11" y="920.8271">AdminStatus</text></g><g class="entity" data-qualified-name="AU.AdminRefresh" id="ent0061"><rect fill="#E8EAF6" height="50" rx="12.5" ry="12.5" style="stroke:#3949AB;stroke-width:1;" width="118.0752" x="1410.11" y="1004.752"/><line style="stroke:#3949AB;stroke-width:1;" x1="1410.11" x2="1528.1852" y1="1031.7666" y2="1031.7666"/><text fill="#1A237E" font-family="Verdana" font-size="14" lengthAdjust="spacing" textLength="98.0752" x="1420.11" y="1023.8271">AdminRefresh</text></g><!--link *start*AU to Dashboard--><g class="link" data-entity-1="ent0015" data-entity-2="ent0016" data-link-type="dependency" data-source-line="22" id="lnk17"><path d="M1114.11,761.902 C1114.11,771.172 1114.11,779.892 1114.11,792.532" fill="none" id="*start*AU-to-Dashboard" style="stroke:#000000;stroke-width:1;"/><polygon fill="#000000" points="1114.11,798.532,1118.11,789.532,1114.11,793.532,1110.11,789.532,1114.11,798.532" style="stroke:#000000;stroke-width:1;"/></g><!--link Dashboard to ProfilesList--><g class="link" data-entity-1="ent0016" data-entity-2="ent0018" data-link-type="dependency" data-source-line="24" id="lnk19"><path d="M1065.9,831.492 C934.62,849.862 577.8021,899.7705 446.3821,918.1605" fill="none" id="Dashboard-to-ProfilesList" style="stroke:#000000;stroke-width:1;"/><polygon fill="#000000" points="440.44,918.992,449.9075,921.7061,445.3918,918.299,448.7988,913.7833,440.44,918.992" style="stroke:#000000;stroke-width:1;"/><text fill="#000000" font-family="Verdana" font-size="13" lengthAdjust="spacing" textLength="25.2256" x="798.11" y="880.8218">Nav</text></g><!--link ProfilesList to ProfileWizard--><g class="link" data-entity-1="ent0018" data-entity-2="ent0020" data-link-type="dependency" data-source-line="25" id="lnk21"><path d="M343.91,929.902 C250.98,934.552 54.36,946.992 34.11,969.752 C23,982.232 27.9084,991.2082 43.3384,1001.2982" fill="none" id="ProfilesList-to-ProfileWizard" style="stroke:#000000;stroke-width:1;"/><polygon fill="#000000" points="48.36,1004.582,43.0167,996.3086,44.1753,1001.8455,38.6384,1003.0041,48.36,1004.582" style="stroke:#000000;stroke-width:1;"/><text fill="#000000" font-family="Verdana" font-size="13" lengthAdjust="spacing" textLength="115.7749" x="35.11" y="983.8218">Create New / Edit</text></g><!--link ProfileWizard to ProfilesList--><g class="link" data-entity-1="ent0020" data-entity-2="ent0018" data-link-type="dependency" data-source-line="26" id="lnk22"><path d="M132.42,1004.612 C148.55,992.462 169.44,978.502 190.11,969.752 C240.25,948.522 296.1073,938.454 338.0573,933.154" fill="none" id="ProfileWizard-to-ProfilesList" style="stroke:#000000;stroke-width:1;"/><polygon fill="#000000" points="344.01,932.402,334.5796,929.5616,339.0494,933.0287,335.5824,937.4985,344.01,932.402" style="stroke:#000000;stroke-width:1;"/><text fill="#000000" font-family="Verdana" font-size="13" lengthAdjust="spacing" textLength="194.7017" x="191.11" y="983.8218">Save / Cancel (UC-06/UC-08)</text></g><!--link ProfilesList to DeleteProfileConfirm--><g class="link" data-entity-1="ent0018" data-entity-2="ent0023" data-link-type="dependency" data-source-line="27" id="lnk24"><path d="M389.16,951.892 C388.66,962.812 389.28,975.722 393.11,986.752 C395.27,992.992 395.2787,994.1481 399.1587,999.6181" fill="none" id="ProfilesList-to-DeleteProfileConfirm" style="stroke:#000000;stroke-width:1;"/><polygon fill="#000000" points="402.63,1004.512,400.6856,994.8569,399.7372,1000.4337,394.1604,999.4854,402.63,1004.512" style="stroke:#000000;stroke-width:1;"/><text fill="#000000" font-family="Verdana" font-size="13" lengthAdjust="spacing" textLength="41.939" x="394.11" y="983.8218">Delete</text></g><!--link DeleteProfileConfirm to ProfilesList--><g class="link" data-entity-1="ent0023" data-entity-2="ent0018" data-link-type="dependency" data-source-line="28" id="lnk25"><path d="M435.82,1004.512 C439.11,993.562 440.78,980.672 436.11,969.752 C433.28,963.152 432.9422,961.4799 427.9622,956.1399" fill="none" id="DeleteProfileConfirm-to-ProfilesList" style="stroke:#000000;stroke-width:1;"/><polygon fill="#000000" points="423.87,951.752,427.0829,961.062,427.2801,955.4086,432.9335,955.6058,423.87,951.752" style="stroke:#000000;stroke-width:1;"/><text fill="#000000" font-family="Verdana" font-size="13" lengthAdjust="spacing" textLength="167.1655" x="440.11" y="983.8218">Confirm / Cancel (UC-09)</text></g><!--link Dashboard to MapIdle--><g class="link" data-entity-1="ent0016" data-entity-2="ent0026" data-link-type="dependency" data-source-line="30" id="lnk27"><path d="M1074.11,848.942 C1047.19,865.222 1017.0242,883.4671 990.4842,899.5171" fill="none" id="Dashboard-to-MapIdle" style="stroke:#000000;stroke-width:1;"/><polygon fill="#000000" points="985.35,902.622,995.1212,901.3874,989.6285,900.0346,990.9813,894.5419,985.35,902.622" style="stroke:#000000;stroke-width:1;"/><text fill="#000000" font-family="Verdana" font-size="13" lengthAdjust="spacing" textLength="25.2256" x="1042.11" y="880.8218">Nav</text></g><!--link MapIdle to Scoring--><g class="link" data-entity-1="ent0026" data-entity-2="ent0028" data-link-type="dependency" data-source-line="31" id="lnk29"><path d="M908.94,928.332 C840.51,930.172 700.84,937.842 666.11,969.752 C656.57,978.512 653.5451,986.4996 652.3751,998.6496" fill="none" id="MapIdle-to-Scoring" style="stroke:#000000;stroke-width:1;"/><polygon fill="#000000" points="651.8,1004.622,656.6443,996.0468,652.2793,999.645,648.6811,995.28,651.8,1004.622" style="stroke:#000000;stroke-width:1;"/><text fill="#000000" font-family="Verdana" font-size="13" lengthAdjust="spacing" textLength="171.3359" x="667.11" y="983.8218">Drop pin / search (UC-13)</text></g><!--link Scoring to ScoreShown--><g class="link" data-entity-1="ent0028" data-entity-2="ent0030" data-link-type="dependency" data-source-line="32" id="lnk31"><path d="M661.45,1054.942 C667.58,1070.822 673.4098,1085.9043 679.5498,1101.8143" fill="none" id="Scoring-to-ScoreShown" style="stroke:#000000;stroke-width:1;"/><polygon fill="#000000" points="681.71,1107.412,682.2014,1097.5754,679.9098,1102.7473,674.7379,1100.4557,681.71,1107.412" style="stroke:#000000;stroke-width:1;"/><text fill="#000000" font-family="Verdana" font-size="13" lengthAdjust="spacing" textLength="85.0776" x="675.11" y="1086.8218">Scores ready</text></g><!--link ScoreShown to WeightPanel--><g class="link" data-entity-1="ent0030" data-entity-2="ent0032" data-link-type="dependency" data-source-line="33" id="lnk33"><path d="M637.42,1135.392 C532.66,1139.162 309.21,1150.122 286.11,1175.752 C269.66,1193.992 288.4694,1207.0357 315.8594,1217.4157" fill="none" id="ScoreShown-to-WeightPanel" style="stroke:#000000;stroke-width:1;"/><polygon fill="#000000" points="321.47,1219.542,314.4716,1212.6122,316.7945,1217.7701,311.6366,1220.093,321.47,1219.542" style="stroke:#000000;stroke-width:1;"/><text fill="#000000" font-family="Verdana" font-size="13" lengthAdjust="spacing" textLength="155.9429" x="287.11" y="1189.8218">Adjust Weights (UC-23)</text></g><!--link WeightPanel to ScoreShown--><g class="link" data-entity-1="ent0032" data-entity-2="ent0030" data-link-type="dependency" data-source-line="34" id="lnk34"><path d="M412.01,1210.472 C431.79,1198.442 456.99,1184.622 481.11,1175.752 C532.4,1156.872 588.0869,1146.6564 631.2669,1140.6664" fill="none" id="WeightPanel-to-ScoreShown" style="stroke:#000000;stroke-width:1;"/><polygon fill="#000000" points="637.21,1139.842,627.7457,1137.1165,632.2574,1140.529,628.845,1145.0407,637.21,1139.842" style="stroke:#000000;stroke-width:1;"/><text fill="#000000" font-family="Verdana" font-size="13" lengthAdjust="spacing" textLength="203.4551" x="482.11" y="1189.8218">Apply / Reset / Cancel (UC-24)</text></g><!--link ScoreShown to ExplanationPanel--><g class="link" data-entity-1="ent0030" data-entity-2="ent0035" data-link-type="dependency" data-source-line="35" id="lnk36"><path d="M688.54,1157.892 C688.3,1168.942 689.38,1181.942 694.11,1192.752 C696.88,1199.102 697.1181,1200.536 701.7781,1205.836" fill="none" id="ScoreShown-to-ExplanationPanel" style="stroke:#000000;stroke-width:1;"/><polygon fill="#000000" points="705.74,1210.342,702.8012,1200.9418,702.4385,1206.587,696.7932,1206.2242,705.74,1210.342" style="stroke:#000000;stroke-width:1;"/><text fill="#000000" font-family="Verdana" font-size="13" lengthAdjust="spacing" textLength="145.9961" x="695.11" y="1189.8218">Explain Score (UC-15)</text></g><!--link ExplanationPanel to ScoreShown--><g class="link" data-entity-1="ent0035" data-entity-2="ent0030" data-link-type="dependency" data-source-line="36" id="lnk37"><path d="M805.3,1219.772 C833.67,1210.352 856.51,1196.052 841.11,1175.752 C829.3,1160.182 788.9321,1149.8913 750.8721,1142.9313" fill="none" id="ExplanationPanel-to-ScoreShown" style="stroke:#000000;stroke-width:1;"/><polygon fill="#000000" points="744.97,1141.852,753.1036,1147.4057,749.8884,1142.7514,754.5427,1139.5362,744.97,1141.852" style="stroke:#000000;stroke-width:1;"/><text fill="#000000" font-family="Verdana" font-size="13" lengthAdjust="spacing" textLength="35.0518" x="847.11" y="1189.8218">Close</text></g><!--link MapIdle to AreaDetails--><g class="link" data-entity-1="ent0026" data-entity-2="ent0038" data-link-type="dependency" data-source-line="37" id="lnk39"><path d="M908.88,933.262 C886.83,938.612 860.81,949.132 847.11,969.752 C832.28,992.062 855.5566,1005.6996 885.1466,1015.1896" fill="none" id="MapIdle-to-AreaDetails" style="stroke:#000000;stroke-width:1;"/><polygon fill="#000000" points="890.86,1017.022,883.5115,1010.4645,886.0989,1015.495,881.0684,1018.0823,890.86,1017.022" style="stroke:#000000;stroke-width:1;"/><text fill="#000000" font-family="Verdana" font-size="13" lengthAdjust="spacing" textLength="191.1089" x="848.11" y="983.8218">Select planning area (UC-14)</text></g><!--link AreaDetails to MapIdle--><g class="link" data-entity-1="ent0038" data-entity-2="ent0026" data-link-type="dependency" data-source-line="38" id="lnk40"><path d="M991.21,1019.642 C1009.8,1013.572 1029.03,1003.492 1040.11,986.752 C1056.73,961.642 1023.4819,946.6949 990.9819,937.6849" fill="none" id="AreaDetails-to-MapIdle" style="stroke:#000000;stroke-width:1;"/><polygon fill="#000000" points="985.2,936.082,992.8043,942.341,990.0183,937.4177,994.9415,934.6317,985.2,936.082" style="stroke:#000000;stroke-width:1;"/><text fill="#000000" font-family="Verdana" font-size="13" lengthAdjust="spacing" textLength="35.0518" x="1045.11" y="983.8218">Close</text></g><!--link ScoreShown to SaveSiteDialog--><g class="link" data-entity-1="ent0030" data-entity-2="ent0041" data-link-type="dependency" data-source-line="39" id="lnk42"><path d="M744.78,1138.612 C785.4,1143.832 841.74,1154.462 887.11,1175.752 C905.55,1184.412 919.094,1194.3988 932.854,1206.5588" fill="none" id="ScoreShown-to-SaveSiteDialog" style="stroke:#000000;stroke-width:1;"/><polygon fill="#000000" points="937.35,1210.532,933.2548,1201.5749,933.6034,1207.221,927.9572,1207.5695,937.35,1210.532" style="stroke:#000000;stroke-width:1;"/><text fill="#000000" font-family="Verdana" font-size="13" lengthAdjust="spacing" textLength="165.5723" x="915.11" y="1189.8218">Save to Portfolio (UC-16)</text></g><!--link SaveSiteDialog to PortfolioList--><g class="link" data-entity-1="ent0041" data-entity-2="ent0043" data-link-type="dependency" data-source-line="40" id="lnk44"><path d="M976.72,1260.942 C986.31,1276.822 995.6978,1292.3661 1005.3078,1308.2761" fill="none" id="SaveSiteDialog-to-PortfolioList" style="stroke:#000000;stroke-width:1;"/><polygon fill="#000000" points="1008.41,1313.412,1007.1807,1303.6401,1005.8249,1309.1321,1000.3329,1307.7763,1008.41,1313.412" style="stroke:#000000;stroke-width:1;"/><text fill="#000000" font-family="Verdana" font-size="13" lengthAdjust="spacing" textLength="40.2314" x="998.11" y="1292.8218">Saved</text></g><!--link Dashboard to PortfolioList--><g class="link" data-entity-1="ent0016" data-entity-2="ent0043" data-link-type="dependency" data-source-line="42" id="lnk45"><path d="M1114.11,848.832 C1114.11,869.292 1114.11,899.452 1114.11,925.752 C1114.11,925.752 1114.11,925.752 1114.11,1236.752 C1114.11,1269.202 1092.702,1292.3886 1068.392,1310.1786" fill="none" id="Dashboard-to-PortfolioList" style="stroke:#000000;stroke-width:1;"/><polygon fill="#000000" points="1063.55,1313.722,1073.1752,1311.6349,1067.585,1310.7692,1068.4507,1305.179,1063.55,1313.722" style="stroke:#000000;stroke-width:1;"/><text fill="#000000" font-family="Verdana" font-size="13" lengthAdjust="spacing" textLength="25.2256" x="1115.11" y="1086.8218">Nav</text></g><!--link PortfolioList to EditNotes--><g class="link" data-entity-1="ent0043" data-entity-2="ent0046" data-link-type="dependency" data-source-line="43" id="lnk47"><path d="M971.98,1343.012 C917.71,1347.662 837.17,1358.392 818.11,1381.752 C799.25,1404.872 831.1603,1419.7357 864.7003,1429.3057" fill="none" id="PortfolioList-to-EditNotes" style="stroke:#000000;stroke-width:1;"/><polygon fill="#000000" points="870.47,1430.952,862.9129,1424.636,865.6619,1429.5801,860.7179,1432.329,870.47,1430.952" style="stroke:#000000;stroke-width:1;"/><text fill="#000000" font-family="Verdana" font-size="13" lengthAdjust="spacing" textLength="124.2363" x="819.11" y="1395.8218">Edit Notes (UC-18)</text></g><!--link EditNotes to PortfolioList--><g class="link" data-entity-1="ent0046" data-entity-2="ent0043" data-link-type="dependency" data-source-line="44" id="lnk48"><path d="M934.48,1416.582 C944.23,1405.532 956.33,1392.532 968.11,1381.752 C974.76,1375.672 977.4879,1373.2279 984.7379,1367.6079" fill="none" id="EditNotes-to-PortfolioList" style="stroke:#000000;stroke-width:1;"/><polygon fill="#000000" points="989.48,1363.932,979.9162,1366.2845,985.5283,1366.9952,984.8175,1372.6073,989.48,1363.932" style="stroke:#000000;stroke-width:1;"/><text fill="#000000" font-family="Verdana" font-size="13" lengthAdjust="spacing" textLength="90.3716" x="969.11" y="1395.8218">Save / Cancel</text></g><!--link PortfolioList to DeleteSiteConfirm--><g class="link" data-entity-1="ent0043" data-entity-2="ent0049" data-link-type="dependency" data-source-line="45" id="lnk50"><path d="M1044.91,1363.942 C1059.21,1379.822 1073.8245,1396.0437 1088.1545,1411.9537" fill="none" id="PortfolioList-to-DeleteSiteConfirm" style="stroke:#000000;stroke-width:1;"/><polygon fill="#000000" points="1092.17,1416.412,1089.1189,1407.0476,1088.8238,1412.6968,1083.1746,1412.4016,1092.17,1416.412" style="stroke:#000000;stroke-width:1;"/><text fill="#000000" font-family="Verdana" font-size="13" lengthAdjust="spacing" textLength="41.939" x="1075.11" y="1395.8218">Delete</text></g><!--link DeleteSiteConfirm to PortfolioList--><g class="link" data-entity-1="ent0049" data-entity-2="ent0043" data-link-type="dependency" data-source-line="46" id="lnk51"><path d="M1123.86,1416.662 C1126.84,1405.242 1127.81,1391.912 1121.11,1381.752 C1110.46,1365.602 1097.8561,1357.5868 1079.9361,1351.4468" fill="none" id="DeleteSiteConfirm-to-PortfolioList" style="stroke:#000000;stroke-width:1;"/><polygon fill="#000000" points="1074.26,1349.502,1081.4776,1356.2032,1078.9901,1351.1226,1084.0706,1348.6351,1074.26,1349.502" style="stroke:#000000;stroke-width:1;"/><text fill="#000000" font-family="Verdana" font-size="13" lengthAdjust="spacing" textLength="167.1655" x="1127.11" y="1395.8218">Confirm / Cancel (UC-19)</text></g><!--link Dashboard to CompareSelect--><g class="link" data-entity-1="ent0016" data-entity-2="ent0052" data-link-type="dependency" data-source-line="48" id="lnk53"><path d="M1135.91,848.942 C1150.21,864.822 1164.8245,881.0437 1179.1545,896.9537" fill="none" id="Dashboard-to-CompareSelect" style="stroke:#000000;stroke-width:1;"/><polygon fill="#000000" points="1183.17,901.412,1180.1189,892.0476,1179.8238,897.6968,1174.1746,897.4016,1183.17,901.412" style="stroke:#000000;stroke-width:1;"/><text fill="#000000" font-family="Verdana" font-size="13" lengthAdjust="spacing" textLength="25.2256" x="1166.11" y="880.8218">Nav</text></g><!--link CompareSelect to CompareView--><g class="link" data-entity-1="ent0052" data-entity-2="ent0054" data-link-type="dependency" data-source-line="49" id="lnk55"><path d="M1204.5,952.182 C1204.36,957.942 1204.22,964.062 1204.11,969.752 C1203.87,981.222 1203.7454,987.9527 1203.5754,998.6427" fill="none" id="CompareSelect-to-CompareView" style="stroke:#000000;stroke-width:1;"/><polygon fill="#000000" points="1203.48,1004.642,1207.6226,995.7067,1203.5595,999.6426,1199.6236,995.5795,1203.48,1004.642" style="stroke:#000000;stroke-width:1;"/><text fill="#000000" font-family="Verdana" font-size="13" lengthAdjust="spacing" textLength="174.3511" x="1205.11" y="983.8218">Compare selected (UC-20)</text></g><!--link CompareView to ExportPDF--><g class="link" data-entity-1="ent0054" data-entity-2="ent0056" data-link-type="dependency" data-source-line="50" id="lnk57"><path d="M1182.28,1054.762 C1175.41,1065.662 1170.93,1078.582 1177.11,1089.752 C1181.89,1098.402 1184.3874,1102.043 1192.5374,1107.793" fill="none" id="CompareView-to-ExportPDF" style="stroke:#000000;stroke-width:1;"/><polygon fill="#000000" points="1197.44,1111.252,1192.392,1102.7951,1193.3545,1108.3695,1187.7801,1109.332,1197.44,1111.252" style="stroke:#000000;stroke-width:1;"/><text fill="#000000" font-family="Verdana" font-size="13" lengthAdjust="spacing" textLength="99.9756" x="1178.11" y="1086.8218">Export (UC-21)</text></g><!--link ExportPDF to CompareView--><g class="link" data-entity-1="ent0056" data-entity-2="ent0054" data-link-type="dependency" data-source-line="51" id="lnk58"><path d="M1270.63,1107.592 C1279.13,1096.892 1284.8,1084.172 1278.11,1072.752 C1274.03,1065.802 1273.0963,1063.5695 1266.6463,1058.6095" fill="none" id="ExportPDF-to-CompareView" style="stroke:#000000;stroke-width:1;"/><polygon fill="#000000" points="1261.89,1054.952,1266.5861,1063.6091,1265.8536,1057.9999,1271.4628,1057.2674,1261.89,1054.952" style="stroke:#000000;stroke-width:1;"/><text fill="#000000" font-family="Verdana" font-size="13" lengthAdjust="spacing" textLength="81.6753" x="1282.11" y="1086.8218">Done / Error</text></g><!--link Dashboard to AdminStatus--><g class="link" data-entity-1="ent0016" data-entity-2="ent0059" data-link-type="dependency" data-source-line="53" id="lnk60"><path d="M1162.31,841.662 C1213.31,859.542 1287.998,885.7365 1341.438,904.4765" fill="none" id="Dashboard-to-AdminStatus" style="stroke:#000000;stroke-width:1;"/><polygon fill="#000000" points="1347.1,906.462,1339.9307,899.7091,1342.3817,904.8074,1337.2834,907.2583,1347.1,906.462" style="stroke:#000000;stroke-width:1;"/><text fill="#000000" font-family="Verdana" font-size="13" lengthAdjust="spacing" textLength="71.2207" x="1277.11" y="880.8218">Admin Nav</text></g><!--link AdminStatus to AdminRefresh--><g class="link" data-entity-1="ent0059" data-entity-2="ent0061" data-link-type="dependency" data-source-line="54" id="lnk62"><path d="M1397.49,951.792 C1396.54,963.072 1397.25,976.292 1403.11,986.752 C1406.96,993.622 1407.7972,995.7536 1413.9872,1000.7936" fill="none" id="AdminStatus-to-AdminRefresh" style="stroke:#000000;stroke-width:1;"/><polygon fill="#000000" points="1418.64,1004.582,1414.1864,995.7976,1414.7627,1001.425,1409.1353,1002.0013,1418.64,1004.582" style="stroke:#000000;stroke-width:1;"/><text fill="#000000" font-family="Verdana" font-size="13" lengthAdjust="spacing" textLength="110.9316" x="1404.11" y="983.8218">Run ETL (UC-25)</text></g><!--link AdminRefresh to AdminStatus--><g class="link" data-entity-1="ent0061" data-entity-2="ent0059" data-link-type="dependency" data-source-line="55" id="lnk63"><path d="M1504.89,1004.522 C1515.92,994.022 1523.26,981.482 1515.11,969.752 C1501.91,950.762 1484.8528,941.8675 1463.1328,936.1575" fill="none" id="AdminRefresh-to-AdminStatus" style="stroke:#000000;stroke-width:1;"/><polygon fill="#000000" points="1457.33,934.632,1465.0172,940.7888,1462.1657,935.9032,1467.0513,933.0517,1457.33,934.632" style="stroke:#000000;stroke-width:1;"/><text fill="#000000" font-family="Verdana" font-size="13" lengthAdjust="spacing" textLength="139.3628" x="1519.11" y="983.8218">Completed / Warning</text></g><!--link UA to AU--><g class="link" data-entity-1="ent0002" data-entity-2="ent0003" data-link-type="dependency" data-source-line="58" id="lnk64"><path d="M748.18,626.9673 C746.23,636.9673 744.49,646.9073 743,656.7373 C740.66,672.1473 739.4972,681.8205 738.9772,697.6305" fill="none" id="UA-to-AU" style="stroke:#000000;stroke-width:1;"/><polygon fill="#000000" points="738.78,703.6273,743.0737,694.7637,738.9444,698.63,735.078,694.5007,738.78,703.6273" style="stroke:#000000;stroke-width:1;"/><text fill="#000000" font-family="Verdana" font-size="13" lengthAdjust="spacing" textLength="146.8276" x="744" y="670.8071">Login success (UC-03)</text></g><!--link AU to UA--><g class="link" data-entity-1="ent0003" data-entity-2="ent0002" data-link-type="dependency" data-source-line="59" id="lnk65"><path d="M897.42,703.5673 C897.12,687.7573 896.34,672.0973 895,656.7373 C894.15,646.9973 893.8191,643.0699 892.6991,633.0899" fill="none" id="AU-to-UA" style="stroke:#000000;stroke-width:1;"/><polygon fill="#000000" points="892.03,627.1273,889.0587,636.5173,892.5876,632.0961,897.0088,635.6251,892.03,627.1273" style="stroke:#000000;stroke-width:1;"/><text fill="#000000" font-family="Verdana" font-size="13" lengthAdjust="spacing" textLength="226.459" x="896" y="670.8071">Log Out (UC-04) / session timeout</text></g><g class="legend" data-source-line="61"><rect fill="none" height="44.0293" rx="7.5" ry="7.5" style="stroke:#000000;stroke-width:1;" width="559.3086" x="553.5821" y="1487.752"/><text fill="#000000" font-family="Verdana" font-size="14" lengthAdjust="spacing" textLength="508.498" x="558.5821" y="1506.8271">Master dialog map aligned to current frontend routes and key UI states.</text><text fill="#000000" font-family="Verdana" font-size="14" lengthAdjust="spacing" textLength="549.3086" x="558.5821" y="1523.8418">Feature-specific sequence diagrams remain as detailed behavioral references.</text></g><?plantuml-src TLLDR-Cs4BthLqotbtK1DsidJJS-5D3QyZQ0rpNYU7CeUg2biSn68bsIIfeM_U-T8Qb4ihq8u8WpZ_F5DpFVkJtM28TAI9NOHwaEmeWQjY9_B8rkL37LbJRm_Jpblmx2Ek4G_aq0FXrZiuzPEhzcZJO5cYYzlBcwIJ-HTAwLYx9HEhxyEKl-In8dNOMmheLn2vsJwVLd6C9CYagNy4KSuFqNOHsQGP84p-ysotHp_skslB-TflVPx1q82vlKH_Jx3t_0SFWBB8Ggf2f94h-yz0vBoQPW0f_HmTgHJooEG0jTIaK8-W-tYfIljrZx5OtSlQmmu2UmRhQrTF1-Cnr-60q8tGTq3MQra1KyiLvY4QwC-Ke0C7IkJQdTwe7GuHDMmjfdAcQ0_pJmLOoWhl4xj9IHRV8ShUMonbgTLYhTz2er4tQ_rS8K2GbV3rwrCdedAxGBIfzSBCKJGNh23kf1_iFt9Z0ro9wN-0mNa1NIlLsAc3Esr-892JuLAiSgv7fzmRyV1-Typh12Xr4yrMedJKrMWfZpEAS_uxPLzJtV34vhGKIyBOYdRHdQC-lMkJQ13JEZ3t2W1xa0YyBaUszmTCb9jAZs1gxt-fcVpXyiKDcAbuYBEeO-e2ptRYKKHJU1jFYpeSY3q7hhOs-z2plna1uErGl554ZIItPyDJZrcVrDKq499xLg7NiH9UQH8IjFnXFeYVDffIqULIobP6Veg1yi5u1UAtSyYPJY2WdI1XS-k2wu_nIjwQFmcKnhwJ3EaCWkfs6bZTlfIkfW_TgdtWTxahIm3ZdFjSSHBFP7J-ghIJsmr0uvLVw6SF0XU7g_0Rxb_VNDpZe8RESaljaANUKv9sSRONIk4QQwfZM0yStQhFlI3kwhf3amQK_K5Go8qs_yOV1srGCZ-IYurMmUM4VV0JoAT8lAKnyphRXGcJ7QdCQT5hLKDF5TOtqVqId6tjMy8kzmHqsvvydQACZk5o48p_aUuDGsHyKrBoYO1s6OqZoGQKDvx2Ri5d8VftKOEjJ5f6840SFs-Qs9Y-Lgu0UAjTHbu6IDkd59Kc59MmQssZbT9s59GX5eNDFU59Ki5KL1nCyROr0vs1dQm7o9bZRpZTOUFE8BR6x3LhS_9dEQtet1eJrWJeig9xz_DKYSODCbxN-UL3MF0jebXMzByh75lNYIseYAj3iqV86CaQiGPV8_?></g></svg>